M48
;Layer_Color=9474304
;FILE_FORMAT=2:4
INCH
;TYPE=PLATED
T1F00S00C0.0280
T2F00S00C0.0320
T3F00S00C0.0400
T4F00S00C0.0440
T5F00S00C0.1200
T6F00S00C0.1300
%
T01
X003150Y004250
X012200Y002850
X020100Y002700
X019450Y009600
X014850Y009450
X016150Y016900
X016730Y017620
X015300Y019850
X012950Y019950
X013250Y019150
X012300Y017650
X011500Y018200
X011450Y019950
X009500Y018650
X008450Y017850
X007000Y016750
X006900Y015750
X006650Y014600
X008100Y014400
X019450Y018600
X018050Y020050
X004050Y019250
X003000Y019600
X002400Y018950
X002700Y017250
X001750Y016500
X002550Y015350
X005300Y009100
X002900Y021750
X002750Y022750
T02
X007850Y023200
X010850
X013600Y023000
X016600
T03
X004628Y025350
X005608
X006600
X007584
X014720
X015700
X016692
X017676
T04
X004661Y005339
X005661
X006661
X009257
X010257
X011257
X013854
X014854
X015854
X018450
X019450
X020450
X018430Y002211
X017050
X015672
X009630
X008250
X006872
X001889Y006311
Y007690
Y010511
Y011890
T05
X001500Y001100
X020600
X001500Y026350
X020550
T06
X005661Y012239
X010257
X014854
X019450
M30
