%FSLAX24Y24*%
%MOIN*%
G70*
G01*
G75*
G04 Layer_Color=2752767*
%ADD10R,0.0800X0.0260*%
%ADD11R,0.0520X0.0600*%
%ADD12R,0.0520X0.0630*%
%ADD13R,0.0600X0.0520*%
%ADD14R,0.0630X0.0520*%
%ADD15C,0.0350*%
%ADD16C,0.0700*%
%ADD17C,0.0600*%
%ADD18R,0.0079X0.0318*%
%ADD19R,0.0159X0.0476*%
%ADD20R,0.0318X0.0079*%
%ADD21R,0.0476X0.0159*%
%ADD22R,0.0079X0.0318*%
%ADD23C,0.0000*%
%ADD24C,0.0039*%
%ADD25C,0.0240*%
%ADD26C,0.0060*%
%ADD27C,0.0040*%
%ADD28R,0.0100X0.0240*%
%ADD29R,0.0450X0.0200*%
%ADD30R,0.0300X0.0575*%
%ADD31R,0.0295X0.0575*%
%ADD32R,0.0140X0.0560*%
%ADD33R,0.0575X0.0300*%
%ADD34R,0.0575X0.0295*%
%ADD35R,0.0580X0.0200*%
%ADD36R,0.0300X0.0750*%
%ADD37R,0.0560X0.0140*%
%ADD38C,0.0020*%
%ADD39R,0.1500X0.1500*%
G04:AMPARAMS|DCode=40|XSize=48mil|YSize=48mil|CornerRadius=0mil|HoleSize=0mil|Usage=FLASHONLY|Rotation=180.000|XOffset=0mil|YOffset=0mil|HoleType=Round|Shape=Octagon|*
%AMOCTAGOND40*
4,1,8,-0.0240,0.0120,-0.0240,-0.0120,-0.0120,-0.0240,0.0120,-0.0240,0.0240,-0.0120,0.0240,0.0120,0.0120,0.0240,-0.0120,0.0240,-0.0240,0.0120,0.0*
%
%ADD40OCTAGOND40*%

%ADD41C,0.1300*%
%ADD42O,0.0660X0.1320*%
%ADD43C,0.0670*%
%ADD44O,0.0600X0.1200*%
%ADD45C,0.0500*%
%ADD46R,0.0433X0.0551*%
%ADD47C,0.0650*%
%ADD48C,0.0100*%
%ADD49C,0.0034*%
%ADD50R,0.0050X0.0200*%
%ADD51R,0.0500X0.1100*%
%ADD52R,0.0300X0.0250*%
%ADD53R,0.0880X0.0340*%
%ADD54R,0.0600X0.0680*%
%ADD55R,0.0600X0.0710*%
%ADD56R,0.0680X0.0600*%
%ADD57R,0.0710X0.0600*%
%ADD58R,0.1580X0.1580*%
G04:AMPARAMS|DCode=59|XSize=56mil|YSize=56mil|CornerRadius=0mil|HoleSize=0mil|Usage=FLASHONLY|Rotation=180.000|XOffset=0mil|YOffset=0mil|HoleType=Round|Shape=Octagon|*
%AMOCTAGOND59*
4,1,8,-0.0280,0.0140,-0.0280,-0.0140,-0.0140,-0.0280,0.0140,-0.0280,0.0280,-0.0140,0.0280,0.0140,0.0140,0.0280,-0.0140,0.0280,-0.0280,0.0140,0.0*
%
%ADD59OCTAGOND59*%

%ADD60C,0.1380*%
%ADD61O,0.0740X0.1400*%
%ADD62C,0.0750*%
%ADD63O,0.0680X0.1280*%
%ADD64C,0.0580*%
%ADD65R,0.0513X0.0631*%
%ADD66C,0.0050*%
%ADD67C,0.0067*%
D18*
X12300Y22049D02*
D03*
D19*
X16251Y20652D02*
D03*
X16351Y18652D02*
D03*
X3349Y9102D02*
D03*
X9579Y9302D02*
D03*
D20*
X9149Y16850D02*
D03*
X3201Y7160D02*
D03*
X8601Y20940D02*
D03*
D21*
X13548Y9929D02*
D03*
X7152Y20449D02*
D03*
D22*
X16235Y24099D02*
D03*
D23*
X7311Y12239D02*
G03*
X7311Y12239I-1650J0D01*
G01*
X11907D02*
G03*
X11907Y12239I-1650J0D01*
G01*
X16504D02*
G03*
X16504Y12239I-1650J0D01*
G01*
X21100D02*
G03*
X21100Y12239I-1650J0D01*
G01*
X7311D02*
G03*
X7311Y12239I-1650J0D01*
G01*
X11907D02*
G03*
X11907Y12239I-1650J0D01*
G01*
X16504D02*
G03*
X16504Y12239I-1650J0D01*
G01*
X21100D02*
G03*
X21100Y12239I-1650J0D01*
G01*
D24*
X19317Y8485D02*
X20183D01*
X19317Y7915D02*
X20183D01*
Y8485D01*
X19317Y7915D02*
Y8485D01*
X14717Y8735D02*
X15583D01*
X14717Y8165D02*
X15583D01*
Y8735D01*
X14717Y8165D02*
Y8735D01*
X5962Y7715D02*
X6828D01*
X5962Y8285D02*
X6828D01*
X5962Y7715D02*
Y8285D01*
X6828Y7715D02*
Y8285D01*
X19750Y8003D02*
Y8397D01*
X19553Y8200D02*
X19947D01*
X19199Y8515D02*
X20301D01*
X19199Y7885D02*
X20301D01*
Y8515D01*
X19199Y7885D02*
Y8515D01*
X15150Y8253D02*
Y8647D01*
X14953Y8450D02*
X15347D01*
X14599Y8765D02*
X15701D01*
X14599Y8135D02*
X15701D01*
Y8765D01*
X14599Y8135D02*
Y8765D01*
X6395Y7803D02*
Y8197D01*
X6198Y8000D02*
X6592D01*
X5844Y7685D02*
X6946D01*
X5844Y8315D02*
X6946D01*
X5844Y7685D02*
Y8315D01*
X6946Y7685D02*
Y8315D01*
D25*
X7850Y23200D02*
X8000D01*
X10700D02*
X10850D01*
X13600Y23000D02*
X13750D01*
X16450D02*
X16600D01*
D26*
X8100Y22850D02*
Y23550D01*
X10600Y22850D02*
Y23550D01*
X13850Y22650D02*
Y23350D01*
X16350Y22650D02*
Y23350D01*
X15970Y20400D02*
X16530D01*
X15970Y20900D02*
X16530D01*
X16070Y18400D02*
X16630D01*
X16070Y18900D02*
X16630D01*
X13800Y9650D02*
Y10210D01*
X13300Y9650D02*
Y10210D01*
X3070Y8850D02*
X3630D01*
X3070Y9350D02*
X3630D01*
X9300Y9050D02*
X9860D01*
X9300Y9550D02*
X9860D01*
X15550Y25500D02*
X15850D01*
X15550Y25200D02*
X15850Y25500D01*
X15550D02*
X15850Y25200D01*
X15550D02*
Y25500D01*
Y25200D02*
X15850D01*
Y25500D01*
X14570D02*
X14870D01*
X14570Y25200D02*
X14870Y25500D01*
X14570D02*
X14870Y25200D01*
X14570D02*
Y25500D01*
Y25200D02*
X14870D01*
Y25500D01*
X17524D02*
X17824Y25200D01*
X17524D02*
X17824Y25500D01*
X17524D02*
X17824D01*
Y25200D02*
Y25500D01*
X17524Y25200D02*
X17824D01*
X17524D02*
Y25500D01*
X16533Y25200D02*
X16833Y25500D01*
X16533D02*
X16833Y25200D01*
Y25500D01*
X16533Y25200D02*
X16833D01*
X16533D02*
Y25500D01*
X16833D01*
X6900Y20170D02*
Y20730D01*
X7400Y20170D02*
Y20730D01*
X5458Y25500D02*
X5758D01*
X5458Y25200D02*
X5758Y25500D01*
X5458D02*
X5758Y25200D01*
X5458D02*
Y25500D01*
Y25200D02*
X5758D01*
Y25500D01*
X4478D02*
X4778D01*
X4478Y25200D02*
X4778Y25500D01*
X4478D02*
X4778Y25200D01*
X4478D02*
Y25500D01*
Y25200D02*
X4778D01*
Y25500D01*
X7431D02*
X7732Y25200D01*
X7431D02*
X7732Y25500D01*
X7431D02*
X7732D01*
Y25200D02*
Y25500D01*
X7431Y25200D02*
X7732D01*
X7431D02*
Y25500D01*
X6441Y25200D02*
X6741Y25500D01*
X6441D02*
X6741Y25200D01*
Y25500D01*
X6441Y25200D02*
X6741D01*
X6441D02*
Y25500D01*
X6741D01*
D27*
X12150Y22310D02*
X12440D01*
X12150Y21790D02*
X12450D01*
X9410Y16710D02*
Y17000D01*
X8890Y16700D02*
Y17000D01*
X2940Y7020D02*
Y7310D01*
X3460Y7010D02*
Y7310D01*
X9350Y1736D02*
X10110Y2490D01*
X9160Y1931D02*
X9910Y2690D01*
X7970Y1736D02*
X8730Y2490D01*
X7775Y1931D02*
X8530Y2690D01*
X6592Y1736D02*
X7344Y2490D01*
X6397Y1931D02*
X7152Y2690D01*
X18150Y1736D02*
X18910Y2490D01*
X17960Y1931D02*
X18710Y2690D01*
X16770Y1736D02*
X17530Y2490D01*
X16575Y1931D02*
X17330Y2690D01*
X15392Y1736D02*
X16144Y2490D01*
X15197Y1931D02*
X15952Y2690D01*
X1610Y12370D02*
X2364Y11610D01*
X1410Y12170D02*
X2169Y11420D01*
X1610Y10983D02*
X2364Y10231D01*
X1410Y10791D02*
X2169Y10036D01*
X1610Y8170D02*
X2364Y7410D01*
X1410Y7970D02*
X2169Y7220D01*
X1610Y6783D02*
X2364Y6031D01*
X1410Y6591D02*
X2169Y5836D01*
X8340Y20790D02*
Y21080D01*
X8860Y20790D02*
Y21090D01*
X16094Y24360D02*
X16385D01*
X16085Y23840D02*
X16385D01*
D28*
X8050Y23200D02*
D03*
X10650D02*
D03*
X13800Y23000D02*
D03*
X16400D02*
D03*
D29*
X3805Y15250D02*
D03*
Y15750D02*
D03*
Y16250D02*
D03*
X5795Y15250D02*
D03*
Y15750D02*
D03*
Y16250D02*
D03*
Y18250D02*
D03*
Y17750D02*
D03*
Y17250D02*
D03*
X3805Y16750D02*
D03*
X3815Y17250D02*
D03*
X3805Y17750D02*
D03*
Y18250D02*
D03*
X5795Y16750D02*
D03*
X3855Y20250D02*
D03*
Y20750D02*
D03*
Y21250D02*
D03*
X5845Y20250D02*
D03*
Y20750D02*
D03*
Y21250D02*
D03*
Y23250D02*
D03*
Y22750D02*
D03*
Y22250D02*
D03*
X3855Y21750D02*
D03*
X3865Y22250D02*
D03*
X3855Y22750D02*
D03*
Y23250D02*
D03*
X5845Y21750D02*
D03*
D30*
X12010Y22048D02*
D03*
X16525Y24097D02*
D03*
D31*
X12582Y22048D02*
D03*
X15952Y24097D02*
D03*
D32*
X16590Y20650D02*
D03*
X15910D02*
D03*
X16690Y18650D02*
D03*
X16010D02*
D03*
X3010Y9100D02*
D03*
X3690D02*
D03*
X9240Y9300D02*
D03*
X9920D02*
D03*
D33*
X9147Y17140D02*
D03*
X3203Y7450D02*
D03*
X8602Y20650D02*
D03*
D34*
X9147Y16568D02*
D03*
X3203Y6878D02*
D03*
X8602Y21222D02*
D03*
D35*
X10490Y16650D02*
D03*
Y17150D02*
D03*
X14110Y16650D02*
D03*
Y17150D02*
D03*
Y17650D02*
D03*
Y18150D02*
D03*
Y18650D02*
D03*
Y19150D02*
D03*
Y19650D02*
D03*
Y20150D02*
D03*
Y20650D02*
D03*
Y21150D02*
D03*
X10490Y17650D02*
D03*
Y18150D02*
D03*
Y18650D02*
D03*
Y19150D02*
D03*
Y19650D02*
D03*
Y20150D02*
D03*
Y20650D02*
D03*
Y21150D02*
D03*
D36*
X6661Y5614D02*
D03*
X5661D02*
D03*
X4661D02*
D03*
X11257D02*
D03*
X10257D02*
D03*
X9257D02*
D03*
X15854D02*
D03*
X14854D02*
D03*
X13854D02*
D03*
X20450D02*
D03*
X19450D02*
D03*
X18450D02*
D03*
D37*
X13550Y9590D02*
D03*
Y10270D02*
D03*
X7150Y20110D02*
D03*
Y20790D02*
D03*
D38*
X11520Y21660D02*
Y22437D01*
X13077Y21660D02*
Y22437D01*
X11520D02*
X13077D01*
X11520Y21660D02*
X13077D01*
X17030Y20263D02*
Y21040D01*
X15473Y20263D02*
Y21040D01*
Y20263D02*
X17030D01*
X15473Y21040D02*
X17030D01*
X17130Y18263D02*
Y19040D01*
X15573Y18263D02*
Y19040D01*
Y18263D02*
X17130D01*
X15573Y19040D02*
X17130D01*
X8760Y17630D02*
X9537D01*
X8760Y16073D02*
X9537D01*
Y17630D01*
X8760Y16073D02*
Y17630D01*
X13160Y9150D02*
X13937D01*
X13160Y10707D02*
X13937D01*
Y9150D02*
Y10707D01*
X13160Y9150D02*
Y10707D01*
X2570Y8713D02*
Y9490D01*
X4127Y8713D02*
Y9490D01*
X2570Y8713D02*
X4127D01*
X2570Y9490D02*
X4127D01*
X2813Y7940D02*
X3590D01*
X2813Y6383D02*
X3590D01*
X2813D02*
Y7940D01*
X3590Y6383D02*
Y7940D01*
X8800Y8913D02*
Y9690D01*
X10357Y8913D02*
Y9690D01*
X8800Y8913D02*
X10357D01*
X8800Y9690D02*
X10357D01*
X8213Y20160D02*
X8990D01*
X8213Y21717D02*
X8990D01*
X8213Y20160D02*
Y21717D01*
X8990Y20160D02*
Y21717D01*
X6763Y19670D02*
X7540D01*
X6763Y21227D02*
X7540D01*
X6763Y19670D02*
Y21227D01*
X7540Y19670D02*
Y21227D01*
X17015Y23710D02*
Y24487D01*
X15458Y23710D02*
Y24487D01*
X17015D01*
X15458Y23710D02*
X17015D01*
D66*
X20400Y900D02*
Y1300D01*
X20800D01*
Y900D01*
X20400D01*
X1300D02*
Y1300D01*
X1700D01*
Y900D01*
X1300D01*
X20350Y26150D02*
Y26550D01*
X20750D01*
Y26150D01*
X20350D01*
X1300D02*
Y26550D01*
X1700D01*
Y26150D01*
X1300D01*
X5661Y12039D02*
X5461Y12439D01*
X5861D01*
X5661Y12039D01*
X6661Y5139D02*
X6761Y5239D01*
X6861D01*
X6761Y5339D01*
X6861Y5439D01*
X6761D01*
X6661Y5539D01*
X6561Y5439D01*
X6461D01*
X6561Y5339D01*
X6461Y5239D01*
X6561D01*
X6661Y5139D01*
X5661D02*
X5761Y5239D01*
X5861D01*
X5761Y5339D01*
X5861Y5439D01*
X5761D01*
X5661Y5539D01*
X5561Y5439D01*
X5461D01*
X5561Y5339D01*
X5461Y5239D01*
X5561D01*
X5661Y5139D01*
X4661D02*
X4761Y5239D01*
X4861D01*
X4761Y5339D01*
X4861Y5439D01*
X4761D01*
X4661Y5539D01*
X4561Y5439D01*
X4461D01*
X4561Y5339D01*
X4461Y5239D01*
X4561D01*
X4661Y5139D01*
X9630Y2011D02*
X9730Y2111D01*
X9830D01*
X9730Y2211D01*
X9830Y2311D01*
X9730D01*
X9630Y2411D01*
X9530Y2311D01*
X9430D01*
X9530Y2211D01*
X9430Y2111D01*
X9530D01*
X9630Y2011D01*
X8250D02*
X8350Y2111D01*
X8450D01*
X8350Y2211D01*
X8450Y2311D01*
X8350D01*
X8250Y2411D01*
X8150Y2311D01*
X8050D01*
X8150Y2211D01*
X8050Y2111D01*
X8150D01*
X8250Y2011D01*
X6872D02*
X6972Y2111D01*
X7072D01*
X6972Y2211D01*
X7072Y2311D01*
X6972D01*
X6872Y2411D01*
X6772Y2311D01*
X6672D01*
X6772Y2211D01*
X6672Y2111D01*
X6772D01*
X6872Y2011D01*
X18430D02*
X18530Y2111D01*
X18630D01*
X18530Y2211D01*
X18630Y2311D01*
X18530D01*
X18430Y2411D01*
X18330Y2311D01*
X18230D01*
X18330Y2211D01*
X18230Y2111D01*
X18330D01*
X18430Y2011D01*
X17050D02*
X17150Y2111D01*
X17250D01*
X17150Y2211D01*
X17250Y2311D01*
X17150D01*
X17050Y2411D01*
X16950Y2311D01*
X16850D01*
X16950Y2211D01*
X16850Y2111D01*
X16950D01*
X17050Y2011D01*
X15672D02*
X15772Y2111D01*
X15872D01*
X15772Y2211D01*
X15872Y2311D01*
X15772D01*
X15672Y2411D01*
X15572Y2311D01*
X15472D01*
X15572Y2211D01*
X15472Y2111D01*
X15572D01*
X15672Y2011D01*
X10257Y12039D02*
X10057Y12439D01*
X10457D01*
X10257Y12039D01*
X11257Y5139D02*
X11357Y5239D01*
X11457D01*
X11357Y5339D01*
X11457Y5439D01*
X11357D01*
X11257Y5539D01*
X11157Y5439D01*
X11057D01*
X11157Y5339D01*
X11057Y5239D01*
X11157D01*
X11257Y5139D01*
X10257D02*
X10357Y5239D01*
X10457D01*
X10357Y5339D01*
X10457Y5439D01*
X10357D01*
X10257Y5539D01*
X10157Y5439D01*
X10057D01*
X10157Y5339D01*
X10057Y5239D01*
X10157D01*
X10257Y5139D01*
X9257D02*
X9357Y5239D01*
X9457D01*
X9357Y5339D01*
X9457Y5439D01*
X9357D01*
X9257Y5539D01*
X9157Y5439D01*
X9057D01*
X9157Y5339D01*
X9057Y5239D01*
X9157D01*
X9257Y5139D01*
X14854Y12039D02*
X14654Y12439D01*
X15054D01*
X14854Y12039D01*
X15854Y5139D02*
X15954Y5239D01*
X16054D01*
X15954Y5339D01*
X16054Y5439D01*
X15954D01*
X15854Y5539D01*
X15754Y5439D01*
X15654D01*
X15754Y5339D01*
X15654Y5239D01*
X15754D01*
X15854Y5139D01*
X14854D02*
X14954Y5239D01*
X15054D01*
X14954Y5339D01*
X15054Y5439D01*
X14954D01*
X14854Y5539D01*
X14754Y5439D01*
X14654D01*
X14754Y5339D01*
X14654Y5239D01*
X14754D01*
X14854Y5139D01*
X13854D02*
X13954Y5239D01*
X14054D01*
X13954Y5339D01*
X14054Y5439D01*
X13954D01*
X13854Y5539D01*
X13754Y5439D01*
X13654D01*
X13754Y5339D01*
X13654Y5239D01*
X13754D01*
X13854Y5139D01*
X19450Y12039D02*
X19250Y12439D01*
X19650D01*
X19450Y12039D01*
X20450Y5139D02*
X20550Y5239D01*
X20650D01*
X20550Y5339D01*
X20650Y5439D01*
X20550D01*
X20450Y5539D01*
X20350Y5439D01*
X20250D01*
X20350Y5339D01*
X20250Y5239D01*
X20350D01*
X20450Y5139D01*
X19450D02*
X19550Y5239D01*
X19650D01*
X19550Y5339D01*
X19650Y5439D01*
X19550D01*
X19450Y5539D01*
X19350Y5439D01*
X19250D01*
X19350Y5339D01*
X19250Y5239D01*
X19350D01*
X19450Y5139D01*
X18450D02*
X18550Y5239D01*
X18650D01*
X18550Y5339D01*
X18650Y5439D01*
X18550D01*
X18450Y5539D01*
X18350Y5439D01*
X18250D01*
X18350Y5339D01*
X18250Y5239D01*
X18350D01*
X18450Y5139D01*
X1889Y11690D02*
X1989Y11790D01*
X2089D01*
X1989Y11890D01*
X2089Y11990D01*
X1989D01*
X1889Y12090D01*
X1789Y11990D01*
X1689D01*
X1789Y11890D01*
X1689Y11790D01*
X1789D01*
X1889Y11690D01*
Y10311D02*
X1989Y10411D01*
X2089D01*
X1989Y10511D01*
X2089Y10611D01*
X1989D01*
X1889Y10711D01*
X1789Y10611D01*
X1689D01*
X1789Y10511D01*
X1689Y10411D01*
X1789D01*
X1889Y10311D01*
Y7490D02*
X1989Y7590D01*
X2089D01*
X1989Y7690D01*
X2089Y7790D01*
X1989D01*
X1889Y7890D01*
X1789Y7790D01*
X1689D01*
X1789Y7690D01*
X1689Y7590D01*
X1789D01*
X1889Y7490D01*
Y6111D02*
X1989Y6211D01*
X2089D01*
X1989Y6311D01*
X2089Y6411D01*
X1989D01*
X1889Y6511D01*
X1789Y6411D01*
X1689D01*
X1789Y6311D01*
X1689Y6211D01*
X1789D01*
X1889Y6111D01*
X14520Y25150D02*
X14620Y25350D01*
X14520Y25550D01*
X14720Y25450D01*
X14920Y25550D01*
X14820Y25350D01*
X14920Y25150D01*
X14720Y25250D01*
X14520Y25150D01*
X15500D02*
X15600Y25350D01*
X15500Y25550D01*
X15700Y25450D01*
X15900Y25550D01*
X15800Y25350D01*
X15900Y25150D01*
X15700Y25250D01*
X15500Y25150D01*
X17476D02*
X17576Y25350D01*
X17476Y25550D01*
X17676Y25450D01*
X17876Y25550D01*
X17776Y25350D01*
X17876Y25150D01*
X17676Y25250D01*
X17476Y25150D01*
X16492D02*
X16592Y25350D01*
X16492Y25550D01*
X16692Y25450D01*
X16892Y25550D01*
X16792Y25350D01*
X16892Y25150D01*
X16692Y25250D01*
X16492Y25150D01*
X4428D02*
X4528Y25350D01*
X4428Y25550D01*
X4628Y25450D01*
X4828Y25550D01*
X4728Y25350D01*
X4828Y25150D01*
X4628Y25250D01*
X4428Y25150D01*
X5408D02*
X5508Y25350D01*
X5408Y25550D01*
X5608Y25450D01*
X5808Y25550D01*
X5708Y25350D01*
X5808Y25150D01*
X5608Y25250D01*
X5408Y25150D01*
X7384D02*
X7484Y25350D01*
X7384Y25550D01*
X7584Y25450D01*
X7784Y25550D01*
X7684Y25350D01*
X7784Y25150D01*
X7584Y25250D01*
X7384Y25150D01*
X6400D02*
X6500Y25350D01*
X6400Y25550D01*
X6600Y25450D01*
X6800Y25550D01*
X6700Y25350D01*
X6800Y25150D01*
X6600Y25250D01*
X6400Y25150D01*
X20000Y2600D02*
Y2500D01*
X20200D01*
Y2600D01*
X20300D01*
Y2800D01*
X20200D01*
Y2900D01*
X20000D01*
Y2800D01*
X19900D01*
Y2600D01*
X20000D01*
X12100Y2750D02*
Y2650D01*
X12300D01*
Y2750D01*
X12400D01*
Y2950D01*
X12300D01*
Y3050D01*
X12100D01*
Y2950D01*
X12000D01*
Y2750D01*
X12100D01*
X3050Y4150D02*
Y4050D01*
X3250D01*
Y4150D01*
X3350D01*
Y4350D01*
X3250D01*
Y4450D01*
X3050D01*
Y4350D01*
X2950D01*
Y4150D01*
X3050D01*
X20150Y20450D02*
Y20350D01*
X20350D01*
Y20450D01*
X20450D01*
Y20650D01*
X20350D01*
Y20750D01*
X20150D01*
Y20650D01*
X20050D01*
Y20450D01*
X20150D01*
X18150Y15600D02*
Y15500D01*
X18350D01*
Y15600D01*
X18450D01*
Y15800D01*
X18350D01*
Y15900D01*
X18150D01*
Y15800D01*
X18050D01*
Y15600D01*
X18150D01*
X2800Y21650D02*
Y21550D01*
X3000D01*
Y21650D01*
X3100D01*
Y21850D01*
X3000D01*
Y21950D01*
X2800D01*
Y21850D01*
X2700D01*
Y21650D01*
X2800D01*
X2900Y19500D02*
Y19400D01*
X3100D01*
Y19500D01*
X3200D01*
Y19700D01*
X3100D01*
Y19800D01*
X2900D01*
Y19700D01*
X2800D01*
Y19500D01*
X2900D01*
X2450Y15250D02*
Y15150D01*
X2650D01*
Y15250D01*
X2750D01*
Y15450D01*
X2650D01*
Y15550D01*
X2450D01*
Y15450D01*
X2350D01*
Y15250D01*
X2450D01*
X12200Y17550D02*
Y17450D01*
X12400D01*
Y17550D01*
X12500D01*
Y17750D01*
X12400D01*
Y17850D01*
X12200D01*
Y17750D01*
X12100D01*
Y17550D01*
X12200D01*
X16050Y16800D02*
Y16700D01*
X16250D01*
Y16800D01*
X16350D01*
Y17000D01*
X16250D01*
Y17100D01*
X16050D01*
Y17000D01*
X15950D01*
Y16800D01*
X16050D01*
X6800Y15650D02*
Y15550D01*
X7000D01*
Y15650D01*
X7100D01*
Y15850D01*
X7000D01*
Y15950D01*
X6800D01*
Y15850D01*
X6700D01*
Y15650D01*
X6800D01*
X6550Y14500D02*
Y14400D01*
X6750D01*
Y14500D01*
X6850D01*
Y14700D01*
X6750D01*
Y14800D01*
X6550D01*
Y14700D01*
X6450D01*
Y14500D01*
X6550D01*
X2300Y18850D02*
Y18750D01*
X2500D01*
Y18850D01*
X2600D01*
Y19050D01*
X2500D01*
Y19150D01*
X2300D01*
Y19050D01*
X2200D01*
Y18850D01*
X2300D01*
X2650Y22650D02*
Y22550D01*
X2850D01*
Y22650D01*
X2950D01*
Y22850D01*
X2850D01*
Y22950D01*
X2650D01*
Y22850D01*
X2550D01*
Y22650D01*
X2650D01*
X1650Y16400D02*
Y16300D01*
X1850D01*
Y16400D01*
X1950D01*
Y16600D01*
X1850D01*
Y16700D01*
X1650D01*
Y16600D01*
X1550D01*
Y16400D01*
X1650D01*
X9800Y26300D02*
Y26200D01*
X10000D01*
Y26300D01*
X10100D01*
Y26500D01*
X10000D01*
Y26600D01*
X9800D01*
Y26500D01*
X9700D01*
Y26300D01*
X9800D01*
X10900Y25200D02*
Y25100D01*
X11100D01*
Y25200D01*
X11200D01*
Y25400D01*
X11100D01*
Y25500D01*
X10900D01*
Y25400D01*
X10800D01*
Y25200D01*
X10900D01*
X5200Y9000D02*
Y8900D01*
X5400D01*
Y9000D01*
X5500D01*
Y9200D01*
X5400D01*
Y9300D01*
X5200D01*
Y9200D01*
X5100D01*
Y9000D01*
X5200D01*
X8000Y14300D02*
Y14200D01*
X8200D01*
Y14300D01*
X8300D01*
Y14500D01*
X8200D01*
Y14600D01*
X8000D01*
Y14500D01*
X7900D01*
Y14300D01*
X8000D01*
X14750Y9350D02*
Y9250D01*
X14950D01*
Y9350D01*
X15050D01*
Y9550D01*
X14950D01*
Y9650D01*
X14750D01*
Y9550D01*
X14650D01*
Y9350D01*
X14750D01*
X15200Y19750D02*
Y19650D01*
X15400D01*
Y19750D01*
X15500D01*
Y19950D01*
X15400D01*
Y20050D01*
X15200D01*
Y19950D01*
X15100D01*
Y19750D01*
X15200D01*
X16630Y17520D02*
Y17420D01*
X16830D01*
Y17520D01*
X16930D01*
Y17720D01*
X16830D01*
Y17820D01*
X16630D01*
Y17720D01*
X16530D01*
Y17520D01*
X16630D01*
X19350Y9500D02*
Y9400D01*
X19550D01*
Y9500D01*
X19650D01*
Y9700D01*
X19550D01*
Y9800D01*
X19350D01*
Y9700D01*
X19250D01*
Y9500D01*
X19350D01*
Y18500D02*
Y18400D01*
X19550D01*
Y18500D01*
X19650D01*
Y18700D01*
X19550D01*
Y18800D01*
X19350D01*
Y18700D01*
X19250D01*
Y18500D01*
X19350D01*
X17950Y19950D02*
Y19850D01*
X18150D01*
Y19950D01*
X18250D01*
Y20150D01*
X18150D01*
Y20250D01*
X17950D01*
Y20150D01*
X17850D01*
Y19950D01*
X17950D01*
X8350Y17750D02*
Y17650D01*
X8550D01*
Y17750D01*
X8650D01*
Y17950D01*
X8550D01*
Y18050D01*
X8350D01*
Y17950D01*
X8250D01*
Y17750D01*
X8350D01*
X12850Y19850D02*
Y19750D01*
X13050D01*
Y19850D01*
X13150D01*
Y20050D01*
X13050D01*
Y20150D01*
X12850D01*
Y20050D01*
X12750D01*
Y19850D01*
X12850D01*
X11350D02*
Y19750D01*
X11550D01*
Y19850D01*
X11650D01*
Y20050D01*
X11550D01*
Y20150D01*
X11350D01*
Y20050D01*
X11250D01*
Y19850D01*
X11350D01*
X11400Y18100D02*
Y18000D01*
X11600D01*
Y18100D01*
X11700D01*
Y18300D01*
X11600D01*
Y18400D01*
X11400D01*
Y18300D01*
X11300D01*
Y18100D01*
X11400D01*
X13150Y19050D02*
Y18950D01*
X13350D01*
Y19050D01*
X13450D01*
Y19250D01*
X13350D01*
Y19350D01*
X13150D01*
Y19250D01*
X13050D01*
Y19050D01*
X13150D01*
X6900Y16650D02*
Y16550D01*
X7100D01*
Y16650D01*
X7200D01*
Y16850D01*
X7100D01*
Y16950D01*
X6900D01*
Y16850D01*
X6800D01*
Y16650D01*
X6900D01*
X2600Y17150D02*
Y17050D01*
X2800D01*
Y17150D01*
X2900D01*
Y17350D01*
X2800D01*
Y17450D01*
X2600D01*
Y17350D01*
X2500D01*
Y17150D01*
X2600D01*
X9400Y18550D02*
Y18450D01*
X9600D01*
Y18550D01*
X9700D01*
Y18750D01*
X9600D01*
Y18850D01*
X9400D01*
Y18750D01*
X9300D01*
Y18550D01*
X9400D01*
X3950Y19150D02*
Y19050D01*
X4150D01*
Y19150D01*
X4250D01*
Y19350D01*
X4150D01*
Y19450D01*
X3950D01*
Y19350D01*
X3850D01*
Y19150D01*
X3950D01*
D67*
X8050Y23200D02*
G03*
X8050Y23200I-200J0D01*
G01*
X11050D02*
G03*
X11050Y23200I-200J0D01*
G01*
X13800Y23000D02*
G03*
X13800Y23000I-200J0D01*
G01*
X16800D02*
G03*
X16800Y23000I-200J0D01*
G01*
M02*
