%FSLAX24Y24*%
%MOIN*%
G70*
G01*
G75*
G04 Layer_Color=2752767*
%ADD10R,0.0630X0.0520*%
%ADD11R,0.0600X0.0520*%
%ADD12R,0.0800X0.0260*%
%ADD13R,0.0520X0.0630*%
%ADD14R,0.0520X0.0600*%
%ADD15C,0.0350*%
%ADD16C,0.0600*%
%ADD17C,0.0700*%
%ADD18R,0.1500X0.1500*%
%ADD19O,0.0600X0.1200*%
%ADD20C,0.0670*%
%ADD21O,0.0660X0.1320*%
%ADD22C,0.1300*%
G04:AMPARAMS|DCode=23|XSize=48mil|YSize=48mil|CornerRadius=0mil|HoleSize=0mil|Usage=FLASHONLY|Rotation=180.000|XOffset=0mil|YOffset=0mil|HoleType=Round|Shape=Octagon|*
%AMOCTAGOND23*
4,1,8,-0.0240,0.0120,-0.0240,-0.0120,-0.0120,-0.0240,0.0120,-0.0240,0.0240,-0.0120,0.0240,0.0120,0.0120,0.0240,-0.0120,0.0240,-0.0240,0.0120,0.0*
%
%ADD23OCTAGOND23*%

%ADD24C,0.0500*%
%ADD25R,0.0433X0.0551*%
%ADD26C,0.0650*%
%ADD27C,0.0060*%
%ADD28C,0.0040*%
%ADD29C,0.0020*%
%ADD30C,0.0100*%
%ADD31C,0.0034*%
%ADD32R,0.0300X0.0250*%
%ADD33R,0.0500X0.1100*%
%ADD34R,0.0050X0.0200*%
%ADD35R,0.0710X0.0600*%
%ADD36R,0.0680X0.0600*%
%ADD37R,0.0880X0.0340*%
%ADD38R,0.0600X0.0710*%
%ADD39R,0.0600X0.0680*%
%ADD40R,0.1580X0.1580*%
%ADD41O,0.0680X0.1280*%
%ADD42C,0.0750*%
%ADD43O,0.0740X0.1400*%
%ADD44C,0.1380*%
G04:AMPARAMS|DCode=45|XSize=56mil|YSize=56mil|CornerRadius=0mil|HoleSize=0mil|Usage=FLASHONLY|Rotation=180.000|XOffset=0mil|YOffset=0mil|HoleType=Round|Shape=Octagon|*
%AMOCTAGOND45*
4,1,8,-0.0280,0.0140,-0.0280,-0.0140,-0.0140,-0.0280,0.0140,-0.0280,0.0280,-0.0140,0.0280,0.0140,0.0140,0.0280,-0.0140,0.0280,-0.0280,0.0140,0.0*
%
%ADD45OCTAGOND45*%

%ADD46C,0.0580*%
%ADD47R,0.0513X0.0631*%
%ADD48C,0.0000*%
%ADD49C,0.0050*%
%ADD50C,0.0067*%
D49*
X1300Y900D02*
Y1300D01*
X1700D01*
Y900D01*
X1300D01*
Y26150D02*
Y26550D01*
X1700D01*
Y26150D01*
X1300D01*
X20400Y900D02*
Y1300D01*
X20800D01*
Y900D01*
X20400D01*
X20350Y26150D02*
Y26550D01*
X20750D01*
Y26150D01*
X20350D01*
X1889Y6111D02*
X1689Y6511D01*
X2089D01*
X1889Y6111D01*
Y7490D02*
X1689Y7890D01*
X2089D01*
X1889Y7490D01*
Y10311D02*
X1689Y10711D01*
X2089D01*
X1889Y10311D01*
Y11690D02*
X1689Y12090D01*
X2089D01*
X1889Y11690D01*
X18450Y5139D02*
X18250Y5539D01*
X18650D01*
X18450Y5139D01*
X19450D02*
X19250Y5539D01*
X19650D01*
X19450Y5139D01*
X20450D02*
X20250Y5539D01*
X20650D01*
X20450Y5139D01*
X19450Y12039D02*
X19550Y12139D01*
X19650D01*
X19550Y12239D01*
X19650Y12339D01*
X19550D01*
X19450Y12439D01*
X19350Y12339D01*
X19250D01*
X19350Y12239D01*
X19250Y12139D01*
X19350D01*
X19450Y12039D01*
X13854Y5139D02*
X13654Y5539D01*
X14054D01*
X13854Y5139D01*
X14854D02*
X14654Y5539D01*
X15054D01*
X14854Y5139D01*
X15854D02*
X15654Y5539D01*
X16054D01*
X15854Y5139D01*
X14854Y12039D02*
X14954Y12139D01*
X15054D01*
X14954Y12239D01*
X15054Y12339D01*
X14954D01*
X14854Y12439D01*
X14754Y12339D01*
X14654D01*
X14754Y12239D01*
X14654Y12139D01*
X14754D01*
X14854Y12039D01*
X9257Y5139D02*
X9057Y5539D01*
X9457D01*
X9257Y5139D01*
X10257D02*
X10057Y5539D01*
X10457D01*
X10257Y5139D01*
X11257D02*
X11057Y5539D01*
X11457D01*
X11257Y5139D01*
X10257Y12039D02*
X10357Y12139D01*
X10457D01*
X10357Y12239D01*
X10457Y12339D01*
X10357D01*
X10257Y12439D01*
X10157Y12339D01*
X10057D01*
X10157Y12239D01*
X10057Y12139D01*
X10157D01*
X10257Y12039D01*
X15672Y2011D02*
X15472Y2411D01*
X15872D01*
X15672Y2011D01*
X17050D02*
X16850Y2411D01*
X17250D01*
X17050Y2011D01*
X18430D02*
X18230Y2411D01*
X18630D01*
X18430Y2011D01*
X6872D02*
X6672Y2411D01*
X7072D01*
X6872Y2011D01*
X8250D02*
X8050Y2411D01*
X8450D01*
X8250Y2011D01*
X9630D02*
X9430Y2411D01*
X9830D01*
X9630Y2011D01*
X4661Y5139D02*
X4461Y5539D01*
X4861D01*
X4661Y5139D01*
X5661D02*
X5461Y5539D01*
X5861D01*
X5661Y5139D01*
X6661D02*
X6461Y5539D01*
X6861D01*
X6661Y5139D01*
X5661Y12039D02*
X5761Y12139D01*
X5861D01*
X5761Y12239D01*
X5861Y12339D01*
X5761D01*
X5661Y12439D01*
X5561Y12339D01*
X5461D01*
X5561Y12239D01*
X5461Y12139D01*
X5561D01*
X5661Y12039D01*
X16400Y22800D02*
X16500Y23000D01*
X16400Y23200D01*
X16600Y23100D01*
X16800Y23200D01*
X16700Y23000D01*
X16800Y22800D01*
X16600Y22900D01*
X16400Y22800D01*
X13400D02*
X13500Y23000D01*
X13400Y23200D01*
X13600Y23100D01*
X13800Y23200D01*
X13700Y23000D01*
X13800Y22800D01*
X13600Y22900D01*
X13400Y22800D01*
X10650Y23000D02*
X10750Y23200D01*
X10650Y23400D01*
X10850Y23300D01*
X11050Y23400D01*
X10950Y23200D01*
X11050Y23000D01*
X10850Y23100D01*
X10650Y23000D01*
X7650D02*
X7750Y23200D01*
X7650Y23400D01*
X7850Y23300D01*
X8050Y23400D01*
X7950Y23200D01*
X8050Y23000D01*
X7850Y23100D01*
X7650Y23000D01*
X3050Y4150D02*
Y4050D01*
X3250D01*
Y4150D01*
X3350D01*
Y4350D01*
X3250D01*
Y4450D01*
X3050D01*
Y4350D01*
X2950D01*
Y4150D01*
X3050D01*
X12100Y2750D02*
Y2650D01*
X12300D01*
Y2750D01*
X12400D01*
Y2950D01*
X12300D01*
Y3050D01*
X12100D01*
Y2950D01*
X12000D01*
Y2750D01*
X12100D01*
X20000Y2600D02*
Y2500D01*
X20200D01*
Y2600D01*
X20300D01*
Y2800D01*
X20200D01*
Y2900D01*
X20000D01*
Y2800D01*
X19900D01*
Y2600D01*
X20000D01*
X16050Y16800D02*
Y16700D01*
X16250D01*
Y16800D01*
X16350D01*
Y17000D01*
X16250D01*
Y17100D01*
X16050D01*
Y17000D01*
X15950D01*
Y16800D01*
X16050D01*
X3950Y19150D02*
Y19050D01*
X4150D01*
Y19150D01*
X4250D01*
Y19350D01*
X4150D01*
Y19450D01*
X3950D01*
Y19350D01*
X3850D01*
Y19150D01*
X3950D01*
X9400Y18550D02*
Y18450D01*
X9600D01*
Y18550D01*
X9700D01*
Y18750D01*
X9600D01*
Y18850D01*
X9400D01*
Y18750D01*
X9300D01*
Y18550D01*
X9400D01*
X2600Y17150D02*
Y17050D01*
X2800D01*
Y17150D01*
X2900D01*
Y17350D01*
X2800D01*
Y17450D01*
X2600D01*
Y17350D01*
X2500D01*
Y17150D01*
X2600D01*
X6900Y16650D02*
Y16550D01*
X7100D01*
Y16650D01*
X7200D01*
Y16850D01*
X7100D01*
Y16950D01*
X6900D01*
Y16850D01*
X6800D01*
Y16650D01*
X6900D01*
X13150Y19050D02*
Y18950D01*
X13350D01*
Y19050D01*
X13450D01*
Y19250D01*
X13350D01*
Y19350D01*
X13150D01*
Y19250D01*
X13050D01*
Y19050D01*
X13150D01*
X11400Y18100D02*
Y18000D01*
X11600D01*
Y18100D01*
X11700D01*
Y18300D01*
X11600D01*
Y18400D01*
X11400D01*
Y18300D01*
X11300D01*
Y18100D01*
X11400D01*
X11350Y19850D02*
Y19750D01*
X11550D01*
Y19850D01*
X11650D01*
Y20050D01*
X11550D01*
Y20150D01*
X11350D01*
Y20050D01*
X11250D01*
Y19850D01*
X11350D01*
X12850D02*
Y19750D01*
X13050D01*
Y19850D01*
X13150D01*
Y20050D01*
X13050D01*
Y20150D01*
X12850D01*
Y20050D01*
X12750D01*
Y19850D01*
X12850D01*
X8350Y17750D02*
Y17650D01*
X8550D01*
Y17750D01*
X8650D01*
Y17950D01*
X8550D01*
Y18050D01*
X8350D01*
Y17950D01*
X8250D01*
Y17750D01*
X8350D01*
X17950Y19950D02*
Y19850D01*
X18150D01*
Y19950D01*
X18250D01*
Y20150D01*
X18150D01*
Y20250D01*
X17950D01*
Y20150D01*
X17850D01*
Y19950D01*
X17950D01*
X19350Y18500D02*
Y18400D01*
X19550D01*
Y18500D01*
X19650D01*
Y18700D01*
X19550D01*
Y18800D01*
X19350D01*
Y18700D01*
X19250D01*
Y18500D01*
X19350D01*
Y9500D02*
Y9400D01*
X19550D01*
Y9500D01*
X19650D01*
Y9700D01*
X19550D01*
Y9800D01*
X19350D01*
Y9700D01*
X19250D01*
Y9500D01*
X19350D01*
X16630Y17520D02*
Y17420D01*
X16830D01*
Y17520D01*
X16930D01*
Y17720D01*
X16830D01*
Y17820D01*
X16630D01*
Y17720D01*
X16530D01*
Y17520D01*
X16630D01*
X15200Y19750D02*
Y19650D01*
X15400D01*
Y19750D01*
X15500D01*
Y19950D01*
X15400D01*
Y20050D01*
X15200D01*
Y19950D01*
X15100D01*
Y19750D01*
X15200D01*
X14750Y9350D02*
Y9250D01*
X14950D01*
Y9350D01*
X15050D01*
Y9550D01*
X14950D01*
Y9650D01*
X14750D01*
Y9550D01*
X14650D01*
Y9350D01*
X14750D01*
X8000Y14300D02*
Y14200D01*
X8200D01*
Y14300D01*
X8300D01*
Y14500D01*
X8200D01*
Y14600D01*
X8000D01*
Y14500D01*
X7900D01*
Y14300D01*
X8000D01*
X5200Y9000D02*
Y8900D01*
X5400D01*
Y9000D01*
X5500D01*
Y9200D01*
X5400D01*
Y9300D01*
X5200D01*
Y9200D01*
X5100D01*
Y9000D01*
X5200D01*
X1650Y16400D02*
Y16300D01*
X1850D01*
Y16400D01*
X1950D01*
Y16600D01*
X1850D01*
Y16700D01*
X1650D01*
Y16600D01*
X1550D01*
Y16400D01*
X1650D01*
X2650Y22650D02*
Y22550D01*
X2850D01*
Y22650D01*
X2950D01*
Y22850D01*
X2850D01*
Y22950D01*
X2650D01*
Y22850D01*
X2550D01*
Y22650D01*
X2650D01*
X2300Y18850D02*
Y18750D01*
X2500D01*
Y18850D01*
X2600D01*
Y19050D01*
X2500D01*
Y19150D01*
X2300D01*
Y19050D01*
X2200D01*
Y18850D01*
X2300D01*
X6550Y14500D02*
Y14400D01*
X6750D01*
Y14500D01*
X6850D01*
Y14700D01*
X6750D01*
Y14800D01*
X6550D01*
Y14700D01*
X6450D01*
Y14500D01*
X6550D01*
X6800Y15650D02*
Y15550D01*
X7000D01*
Y15650D01*
X7100D01*
Y15850D01*
X7000D01*
Y15950D01*
X6800D01*
Y15850D01*
X6700D01*
Y15650D01*
X6800D01*
X12200Y17550D02*
Y17450D01*
X12400D01*
Y17550D01*
X12500D01*
Y17750D01*
X12400D01*
Y17850D01*
X12200D01*
Y17750D01*
X12100D01*
Y17550D01*
X12200D01*
X2450Y15250D02*
Y15150D01*
X2650D01*
Y15250D01*
X2750D01*
Y15450D01*
X2650D01*
Y15550D01*
X2450D01*
Y15450D01*
X2350D01*
Y15250D01*
X2450D01*
X2900Y19500D02*
Y19400D01*
X3100D01*
Y19500D01*
X3200D01*
Y19700D01*
X3100D01*
Y19800D01*
X2900D01*
Y19700D01*
X2800D01*
Y19500D01*
X2900D01*
X2800Y21650D02*
Y21550D01*
X3000D01*
Y21650D01*
X3100D01*
Y21850D01*
X3000D01*
Y21950D01*
X2800D01*
Y21850D01*
X2700D01*
Y21650D01*
X2800D01*
D50*
X6800Y25350D02*
G03*
X6800Y25350I-200J0D01*
G01*
X7784D02*
G03*
X7784Y25350I-200J0D01*
G01*
X5808D02*
G03*
X5808Y25350I-200J0D01*
G01*
X4828D02*
G03*
X4828Y25350I-200J0D01*
G01*
X16892D02*
G03*
X16892Y25350I-200J0D01*
G01*
X17876D02*
G03*
X17876Y25350I-200J0D01*
G01*
X15900D02*
G03*
X15900Y25350I-200J0D01*
G01*
X14920D02*
G03*
X14920Y25350I-200J0D01*
G01*
M02*
