%FSLAX24Y24*%
%MOIN*%
G70*
G01*
G75*
G04 Layer_Color=255*
%ADD10R,0.0630X0.0520*%
%ADD11R,0.0600X0.0520*%
%ADD12R,0.0800X0.0260*%
%ADD13R,0.0520X0.0630*%
%ADD14R,0.0520X0.0600*%
%ADD15C,0.0350*%
%ADD16C,0.0600*%
%ADD17C,0.0700*%
%ADD18R,0.1500X0.1500*%
%ADD19O,0.0600X0.1200*%
%ADD20C,0.0670*%
%ADD21O,0.0660X0.1320*%
%ADD22C,0.1300*%
G04:AMPARAMS|DCode=23|XSize=48mil|YSize=48mil|CornerRadius=0mil|HoleSize=0mil|Usage=FLASHONLY|Rotation=180.000|XOffset=0mil|YOffset=0mil|HoleType=Round|Shape=Octagon|*
%AMOCTAGOND23*
4,1,8,-0.0240,0.0120,-0.0240,-0.0120,-0.0120,-0.0240,0.0120,-0.0240,0.0240,-0.0120,0.0240,0.0120,0.0120,0.0240,-0.0120,0.0240,-0.0240,0.0120,0.0*
%
%ADD23OCTAGOND23*%

%ADD24C,0.0500*%
%ADD25R,0.0433X0.0551*%
%ADD26C,0.0650*%
D10*
X13550Y10304D02*
D03*
Y9550D02*
D03*
D11*
X3200Y6825D02*
D03*
Y7500D02*
D03*
D13*
X9954Y9300D02*
D03*
X9200D02*
D03*
X3724Y9100D02*
D03*
X2970D02*
D03*
D14*
X15900Y24100D02*
D03*
X16575D02*
D03*
D18*
X1500Y1100D02*
D03*
Y26350D02*
D03*
X20600Y1100D02*
D03*
X20550Y26350D02*
D03*
D19*
X6600Y25350D02*
D03*
X7584D02*
D03*
X5608D02*
D03*
X4628D02*
D03*
X16692D02*
D03*
X17676D02*
D03*
X15700D02*
D03*
X14720D02*
D03*
D20*
X1889Y6311D02*
D03*
Y7690D02*
D03*
Y10511D02*
D03*
Y11890D02*
D03*
X15672Y2211D02*
D03*
X17050D02*
D03*
X18430D02*
D03*
X6872D02*
D03*
X8250D02*
D03*
X9630D02*
D03*
D21*
X18450Y5339D02*
D03*
X19450D02*
D03*
X20450D02*
D03*
X13854D02*
D03*
X14854D02*
D03*
X15854D02*
D03*
X9257D02*
D03*
X10257D02*
D03*
X11257D02*
D03*
X4661D02*
D03*
X5661D02*
D03*
X6661D02*
D03*
D22*
X19450Y12239D02*
D03*
X14854D02*
D03*
X10257D02*
D03*
X5661D02*
D03*
D23*
X16600Y23000D02*
D03*
X13600D02*
D03*
X10850Y23200D02*
D03*
X7850D02*
D03*
D25*
X6691Y8000D02*
D03*
X6100D02*
D03*
X14855Y8450D02*
D03*
X15445D02*
D03*
X19455Y8200D02*
D03*
X20045D02*
D03*
M02*
