%FSLAX24Y24*%
%MOIN*%
G70*
G01*
G75*
G04 Layer_Color=8388736*
%ADD10R,0.0630X0.0520*%
%ADD11R,0.0600X0.0520*%
%ADD12R,0.0800X0.0260*%
%ADD13R,0.0520X0.0630*%
%ADD14R,0.0520X0.0600*%
%ADD15C,0.0350*%
%ADD16C,0.0600*%
%ADD17C,0.0700*%
%ADD18R,0.1500X0.1500*%
%ADD19O,0.0600X0.1200*%
%ADD20C,0.0670*%
%ADD21O,0.0660X0.1320*%
%ADD22C,0.1300*%
G04:AMPARAMS|DCode=23|XSize=48mil|YSize=48mil|CornerRadius=0mil|HoleSize=0mil|Usage=FLASHONLY|Rotation=180.000|XOffset=0mil|YOffset=0mil|HoleType=Round|Shape=Octagon|*
%AMOCTAGOND23*
4,1,8,-0.0240,0.0120,-0.0240,-0.0120,-0.0120,-0.0240,0.0120,-0.0240,0.0240,-0.0120,0.0240,0.0120,0.0120,0.0240,-0.0120,0.0240,-0.0240,0.0120,0.0*
%
%ADD23OCTAGOND23*%

%ADD24C,0.0500*%
%ADD25R,0.0433X0.0551*%
%ADD26C,0.0650*%
%ADD27C,0.0060*%
%ADD28C,0.0040*%
%ADD29C,0.0020*%
%ADD30C,0.0100*%
%ADD31C,0.0034*%
%ADD32R,0.0300X0.0250*%
%ADD33R,0.0500X0.1100*%
%ADD34R,0.0050X0.0200*%
%ADD35R,0.0710X0.0600*%
%ADD36R,0.0680X0.0600*%
%ADD37R,0.0880X0.0340*%
%ADD38R,0.0600X0.0710*%
%ADD39R,0.0600X0.0680*%
%ADD40R,0.1580X0.1580*%
%ADD41O,0.0680X0.1280*%
%ADD42C,0.0750*%
%ADD43O,0.0740X0.1400*%
%ADD44C,0.1380*%
G04:AMPARAMS|DCode=45|XSize=56mil|YSize=56mil|CornerRadius=0mil|HoleSize=0mil|Usage=FLASHONLY|Rotation=180.000|XOffset=0mil|YOffset=0mil|HoleType=Round|Shape=Octagon|*
%AMOCTAGOND45*
4,1,8,-0.0280,0.0140,-0.0280,-0.0140,-0.0140,-0.0280,0.0140,-0.0280,0.0280,-0.0140,0.0280,0.0140,0.0140,0.0280,-0.0140,0.0280,-0.0280,0.0140,0.0*
%
%ADD45OCTAGOND45*%

%ADD46C,0.0580*%
D35*
X7150Y20824D02*
D03*
Y20070D02*
D03*
D36*
X8600Y21275D02*
D03*
Y20600D02*
D03*
X9150Y16515D02*
D03*
Y17190D02*
D03*
D37*
X10320Y21150D02*
D03*
Y20650D02*
D03*
Y20150D02*
D03*
Y19650D02*
D03*
Y19150D02*
D03*
Y18650D02*
D03*
Y18150D02*
D03*
Y17650D02*
D03*
X14280D02*
D03*
Y18150D02*
D03*
Y18650D02*
D03*
Y19150D02*
D03*
Y19650D02*
D03*
Y20150D02*
D03*
Y20650D02*
D03*
Y21150D02*
D03*
X10320Y17150D02*
D03*
Y16650D02*
D03*
X14280Y17150D02*
D03*
Y16650D02*
D03*
X3640Y23250D02*
D03*
X6060D02*
D03*
X3640Y22750D02*
D03*
Y22250D02*
D03*
X6060Y22750D02*
D03*
Y22250D02*
D03*
X3640Y21750D02*
D03*
X6060D02*
D03*
X3640Y21250D02*
D03*
Y20750D02*
D03*
X6060Y21250D02*
D03*
Y20750D02*
D03*
X3640Y20250D02*
D03*
X6060D02*
D03*
X3590Y18250D02*
D03*
X6010D02*
D03*
X3590Y17750D02*
D03*
Y17250D02*
D03*
X6010Y17750D02*
D03*
Y17250D02*
D03*
X3590Y16750D02*
D03*
X6010D02*
D03*
X3590Y16250D02*
D03*
Y15750D02*
D03*
X6010Y16250D02*
D03*
Y15750D02*
D03*
X3590Y15250D02*
D03*
X6010D02*
D03*
D38*
X15976Y18650D02*
D03*
X16730D02*
D03*
X15876Y20650D02*
D03*
X16630D02*
D03*
D39*
X12635Y22050D02*
D03*
X11960D02*
D03*
D40*
X1500Y1100D02*
D03*
Y26350D02*
D03*
X20600Y1100D02*
D03*
X20550Y26350D02*
D03*
D41*
X6600Y25350D02*
D03*
X7584D02*
D03*
X5608D02*
D03*
X4628D02*
D03*
X16692D02*
D03*
X17676D02*
D03*
X15700D02*
D03*
X14720D02*
D03*
D42*
X1889Y6311D02*
D03*
Y7690D02*
D03*
Y10511D02*
D03*
Y11890D02*
D03*
X15672Y2211D02*
D03*
X17050D02*
D03*
X18430D02*
D03*
X6872D02*
D03*
X8250D02*
D03*
X9630D02*
D03*
D43*
X18450Y5339D02*
D03*
X19450D02*
D03*
X20450D02*
D03*
X13854D02*
D03*
X14854D02*
D03*
X15854D02*
D03*
X9257D02*
D03*
X10257D02*
D03*
X11257D02*
D03*
X4661D02*
D03*
X5661D02*
D03*
X6661D02*
D03*
D44*
X19450Y12239D02*
D03*
X14854D02*
D03*
X10257D02*
D03*
X5661D02*
D03*
D45*
X16600Y23000D02*
D03*
X13600D02*
D03*
X10850Y23200D02*
D03*
X7850D02*
D03*
D46*
X3150Y4250D02*
D03*
X12200Y2850D02*
D03*
X20100Y2700D02*
D03*
X16150Y16900D02*
D03*
X4050Y19250D02*
D03*
X9500Y18650D02*
D03*
X2700Y17250D02*
D03*
X7000Y16750D02*
D03*
X13250Y19150D02*
D03*
X11500Y18200D02*
D03*
X11450Y19950D02*
D03*
X12950D02*
D03*
X8450Y17850D02*
D03*
X18050Y20050D02*
D03*
X19450Y18600D02*
D03*
Y9600D02*
D03*
X16730Y17620D02*
D03*
X15300Y19850D02*
D03*
X14850Y9450D02*
D03*
X8100Y14400D02*
D03*
X5300Y9100D02*
D03*
X1750Y16500D02*
D03*
X2750Y22750D02*
D03*
X2400Y18950D02*
D03*
X6650Y14600D02*
D03*
X6900Y15750D02*
D03*
X12300Y17650D02*
D03*
X2550Y15350D02*
D03*
X3000Y19600D02*
D03*
X2900Y21750D02*
D03*
M02*
