%FSLAX24Y24*%
%MOIN*%
G70*
G01*
G75*
G04 Layer_Physical_Order=1*
G04 Layer_Color=255*
%ADD10R,0.0800X0.0260*%
%ADD11R,0.0520X0.0600*%
%ADD12R,0.0520X0.0630*%
%ADD13R,0.0600X0.0520*%
%ADD14R,0.0630X0.0520*%
%ADD15C,0.0350*%
%ADD16C,0.0700*%
%ADD17C,0.0600*%
%ADD18R,0.0079X0.0318*%
%ADD19R,0.0159X0.0476*%
%ADD20R,0.0318X0.0079*%
%ADD21R,0.0476X0.0159*%
%ADD22R,0.0079X0.0318*%
%ADD23C,0.0000*%
%ADD24C,0.0039*%
%ADD25C,0.0240*%
%ADD26C,0.0060*%
%ADD27C,0.0040*%
%ADD28R,0.0100X0.0240*%
%ADD29R,0.0450X0.0200*%
%ADD30R,0.0300X0.0575*%
%ADD31R,0.0295X0.0575*%
%ADD32R,0.0140X0.0560*%
%ADD33R,0.0575X0.0300*%
%ADD34R,0.0575X0.0295*%
%ADD35R,0.0580X0.0200*%
%ADD36R,0.0300X0.0750*%
%ADD37R,0.0560X0.0140*%
%ADD38C,0.0020*%
%ADD39R,0.1500X0.1500*%
G04:AMPARAMS|DCode=40|XSize=48mil|YSize=48mil|CornerRadius=0mil|HoleSize=0mil|Usage=FLASHONLY|Rotation=180.000|XOffset=0mil|YOffset=0mil|HoleType=Round|Shape=Octagon|*
%AMOCTAGOND40*
4,1,8,-0.0240,0.0120,-0.0240,-0.0120,-0.0120,-0.0240,0.0120,-0.0240,0.0240,-0.0120,0.0240,0.0120,0.0120,0.0240,-0.0120,0.0240,-0.0240,0.0120,0.0*
%
%ADD40OCTAGOND40*%

%ADD41C,0.1300*%
%ADD42O,0.0660X0.1320*%
%ADD43C,0.0670*%
%ADD44O,0.0600X0.1200*%
%ADD45C,0.0500*%
G36*
X19221Y18313D02*
Y14750D01*
X14509D01*
Y16421D01*
X15405D01*
X15788Y16038D01*
X15862Y15988D01*
X15950Y15971D01*
X16700D01*
X16788Y15988D01*
X16862Y16038D01*
X18962Y18138D01*
X19012Y18212D01*
X19029Y18300D01*
Y18339D01*
X19089Y18381D01*
X19221Y18313D01*
D02*
G37*
G36*
X21900Y14750D02*
X21900Y14750D01*
X19679D01*
Y18403D01*
X19733Y18483D01*
X19756Y18600D01*
X19733Y18717D01*
X19666Y18816D01*
X19567Y18883D01*
X19450Y18906D01*
X19333Y18883D01*
X19234Y18816D01*
X19059Y18825D01*
X19029Y18850D01*
Y26050D01*
X19012Y26138D01*
X18962Y26212D01*
X18012Y27162D01*
X17938Y27212D01*
X17850Y27229D01*
X11700D01*
X11612Y27212D01*
X11538Y27162D01*
X7866Y23490D01*
X7705D01*
X7560Y23345D01*
Y23055D01*
X7621Y22994D01*
Y22025D01*
X7638Y21937D01*
X7688Y21862D01*
X8250Y21300D01*
Y21060D01*
X8250Y20965D01*
Y20937D01*
Y20910D01*
X8250Y20815D01*
Y20770D01*
X8220Y20746D01*
X8062Y20712D01*
X7788Y20986D01*
X7714Y21036D01*
X7626Y21053D01*
X7515D01*
Y21134D01*
X6785D01*
Y20514D01*
X6785D01*
Y20380D01*
X6785D01*
Y19760D01*
X7136D01*
X7271Y19625D01*
Y19009D01*
X7121Y18994D01*
X7112Y19038D01*
X7062Y19112D01*
X6289Y19885D01*
Y20070D01*
X6510D01*
Y20420D01*
X6510Y20430D01*
Y20500D01*
Y20570D01*
X6510Y20580D01*
Y20920D01*
X6510Y20930D01*
Y21000D01*
Y21070D01*
X6510Y21080D01*
Y21420D01*
X6510Y21430D01*
Y21500D01*
Y21570D01*
X6510Y21580D01*
Y21920D01*
X6510Y21930D01*
Y22000D01*
Y22070D01*
X6510Y22080D01*
Y22420D01*
X6510Y22430D01*
Y22500D01*
Y22570D01*
X6510Y22580D01*
Y22920D01*
X6510Y22930D01*
Y23000D01*
Y23070D01*
X6510Y23080D01*
Y23430D01*
X5610D01*
Y23080D01*
X5610Y23070D01*
Y23000D01*
Y22930D01*
X5610Y22920D01*
Y22580D01*
X5610Y22570D01*
Y22500D01*
Y22430D01*
X5610Y22420D01*
Y22080D01*
X5610Y22070D01*
Y22000D01*
Y21930D01*
X5610Y21920D01*
Y21580D01*
X5610Y21570D01*
Y21500D01*
Y21430D01*
X5610Y21420D01*
Y21129D01*
X5610Y21070D01*
X5498Y20979D01*
X5495D01*
X5329Y21145D01*
Y23755D01*
X5881Y24307D01*
X5913Y24313D01*
X5988Y24363D01*
X6392Y24768D01*
X6463Y24720D01*
X6600Y24693D01*
X6737Y24720D01*
X6852Y24798D01*
X6930Y24913D01*
X6957Y25050D01*
Y25650D01*
X6930Y25787D01*
X6852Y25902D01*
X6737Y25980D01*
X6600Y26007D01*
X6463Y25980D01*
X6348Y25902D01*
X6270Y25787D01*
X6243Y25650D01*
Y25267D01*
X6115Y25139D01*
X5965Y25201D01*
Y25650D01*
X5938Y25787D01*
X5860Y25902D01*
X5744Y25980D01*
X5608Y26007D01*
X5471Y25980D01*
X5356Y25902D01*
X5278Y25787D01*
X5251Y25650D01*
Y25050D01*
X5255Y25030D01*
X5095Y24869D01*
X4965Y24952D01*
X4985Y25050D01*
Y25650D01*
X4958Y25787D01*
X4880Y25902D01*
X4764Y25980D01*
X4628Y26007D01*
X4522Y25986D01*
X4445Y26086D01*
X4434Y26110D01*
X4545Y26221D01*
X7355D01*
Y25918D01*
X7332Y25902D01*
X7255Y25787D01*
X7227Y25650D01*
Y25050D01*
X7255Y24913D01*
X7332Y24798D01*
X7448Y24720D01*
X7584Y24693D01*
X7721Y24720D01*
X7837Y24798D01*
X7914Y24913D01*
X7941Y25050D01*
Y25650D01*
X7914Y25787D01*
X7837Y25902D01*
X7814Y25918D01*
Y26450D01*
X7796Y26538D01*
X7746Y26612D01*
X7672Y26662D01*
X7584Y26679D01*
X4450D01*
X4362Y26662D01*
X4288Y26612D01*
X1588Y23912D01*
X1538Y23838D01*
X1521Y23750D01*
Y21250D01*
X1538Y21162D01*
X1588Y21088D01*
X1662Y21038D01*
X1750Y21021D01*
X3078D01*
X3190Y20930D01*
X3190Y20871D01*
Y20580D01*
X3190Y20570D01*
Y20500D01*
Y20430D01*
X3190Y20420D01*
Y20070D01*
X4090D01*
Y20223D01*
X4240Y20286D01*
X4471Y20055D01*
Y19500D01*
X4441Y19475D01*
X4266Y19466D01*
X4167Y19533D01*
X4050Y19556D01*
X3933Y19533D01*
X3834Y19466D01*
X3767Y19367D01*
X3749Y19273D01*
X3428Y18952D01*
X3378Y18878D01*
X3361Y18790D01*
Y18430D01*
X3140D01*
Y18147D01*
X2990Y18084D01*
X2679Y18395D01*
Y18828D01*
X2683Y18833D01*
X2706Y18950D01*
X2683Y19067D01*
X2616Y19166D01*
X2625Y19341D01*
X2650Y19371D01*
X2803D01*
X2883Y19317D01*
X3000Y19294D01*
X3117Y19317D01*
X3216Y19384D01*
X3283Y19483D01*
X3306Y19600D01*
X3283Y19717D01*
X3216Y19816D01*
X3117Y19883D01*
X3000Y19906D01*
X2883Y19883D01*
X2803Y19829D01*
X1900D01*
X1812Y19812D01*
X1738Y19762D01*
X938Y18962D01*
X888Y18888D01*
X871Y18800D01*
Y15800D01*
X888Y15712D01*
X938Y15638D01*
X1488Y15088D01*
X1562Y15038D01*
X1650Y15021D01*
X1738Y15038D01*
X1812Y15088D01*
X2098Y15374D01*
X2150Y15365D01*
X2251Y15315D01*
X2267Y15233D01*
X2334Y15134D01*
X2433Y15067D01*
X2550Y15044D01*
X2667Y15067D01*
X2766Y15134D01*
X2833Y15233D01*
X2851Y15327D01*
X3015Y15491D01*
X3140Y15403D01*
X3140Y15371D01*
Y15070D01*
X4040D01*
Y15420D01*
X4040Y15430D01*
Y15500D01*
Y15570D01*
X4040Y15580D01*
Y15930D01*
X4040D01*
Y16070D01*
X4040D01*
Y16430D01*
X4040D01*
Y16570D01*
X4040D01*
Y16930D01*
X4040D01*
X4040Y16930D01*
Y17070D01*
X4040D01*
X4040Y17070D01*
Y17420D01*
X4040Y17430D01*
Y17500D01*
Y17570D01*
X4040Y17580D01*
Y17920D01*
X4040Y17930D01*
Y18000D01*
Y18070D01*
X4040Y18080D01*
Y18430D01*
X3819D01*
Y18695D01*
X4073Y18949D01*
X4167Y18967D01*
X4266Y19034D01*
X4441Y19025D01*
X4471Y19000D01*
Y16250D01*
X4488Y16162D01*
X4538Y16088D01*
X4612Y16038D01*
X4700Y16021D01*
X5448D01*
X5560Y15930D01*
X5560Y15871D01*
Y15580D01*
X5560Y15570D01*
Y15500D01*
Y15430D01*
X5560Y15420D01*
Y15070D01*
X5856D01*
X6037Y14889D01*
X5980Y14750D01*
X106D01*
X0Y14856D01*
Y28150D01*
X0Y28150D01*
X21900D01*
Y14750D01*
D02*
G37*
G36*
X21900Y14029D02*
Y0D01*
X21900Y-0D01*
X71D01*
X-0Y71D01*
X0Y14100D01*
X8080D01*
X8100Y14097D01*
X8120Y14100D01*
X8445D01*
X8483Y14008D01*
X8305Y13829D01*
X7850D01*
X7762Y13812D01*
X7688Y13762D01*
X7488Y13562D01*
X7438Y13488D01*
X7421Y13400D01*
Y11545D01*
X5275Y9399D01*
X5222Y9392D01*
X5149Y9362D01*
X5086Y9314D01*
X5038Y9251D01*
X5008Y9178D01*
X4997Y9100D01*
X5008Y9022D01*
X5038Y8949D01*
X5086Y8886D01*
X5149Y8838D01*
X5222Y8808D01*
X5300Y8797D01*
X5378Y8808D01*
X5451Y8838D01*
X5514Y8886D01*
X5562Y8949D01*
X5592Y9022D01*
X5599Y9075D01*
X7812Y11288D01*
X7862Y11362D01*
X7879Y11450D01*
Y13305D01*
X7945Y13371D01*
X8400D01*
X8488Y13388D01*
X8562Y13438D01*
X9012Y13888D01*
X9062Y13962D01*
X9079Y14050D01*
Y14100D01*
X14051D01*
Y13875D01*
X13388Y13212D01*
X13338Y13138D01*
X13321Y13050D01*
Y10750D01*
X13338Y10662D01*
X13388Y10588D01*
X14551Y9425D01*
X14558Y9372D01*
X14588Y9299D01*
X14636Y9236D01*
X14699Y9188D01*
X14772Y9158D01*
X14850Y9147D01*
X14928Y9158D01*
X15001Y9188D01*
X15064Y9236D01*
X15112Y9299D01*
X15142Y9372D01*
X15153Y9450D01*
X15142Y9528D01*
X15112Y9601D01*
X15064Y9664D01*
X15001Y9712D01*
X14928Y9742D01*
X14875Y9749D01*
X13779Y10845D01*
Y12955D01*
X14442Y13618D01*
X14492Y13692D01*
X14509Y13780D01*
Y14100D01*
X18895D01*
X18933Y14008D01*
X17938Y13012D01*
X17888Y12938D01*
X17871Y12850D01*
Y11839D01*
X17888Y11751D01*
X17938Y11677D01*
X19221Y10394D01*
Y9794D01*
X19188Y9751D01*
X19158Y9678D01*
X19147Y9600D01*
X19158Y9522D01*
X19188Y9449D01*
X19236Y9386D01*
X19299Y9338D01*
X19372Y9308D01*
X19450Y9297D01*
X19528Y9308D01*
X19601Y9338D01*
X19664Y9386D01*
X19712Y9449D01*
X19742Y9522D01*
X19753Y9600D01*
X19742Y9678D01*
X19712Y9751D01*
X19679Y9794D01*
Y10489D01*
X19662Y10577D01*
X19612Y10651D01*
X18329Y11934D01*
Y12755D01*
X19612Y14038D01*
X19654Y14100D01*
X21829D01*
X21900Y14029D01*
D02*
G37*
G36*
X18571Y25955D02*
Y18395D01*
X16605Y16429D01*
X16399D01*
X16381Y16454D01*
X16402Y16648D01*
X16480Y16763D01*
X16497Y16850D01*
X16150D01*
Y16900D01*
X16100D01*
Y17247D01*
X16013Y17230D01*
X15898Y17152D01*
X15820Y17037D01*
X15793Y16900D01*
X15795Y16892D01*
X15676Y16820D01*
X15657Y16816D01*
X15588Y16862D01*
X15500Y16879D01*
X14913D01*
X14780Y16920D01*
X14780Y17029D01*
Y17100D01*
X13780D01*
Y16959D01*
X13780Y16923D01*
Y16920D01*
X13830Y16791D01*
X13830Y16770D01*
Y16470D01*
X14051D01*
Y14750D01*
X9079D01*
Y15050D01*
X9062Y15138D01*
X9012Y15212D01*
X8712Y15512D01*
X8638Y15562D01*
X8550Y15579D01*
X8229D01*
Y17456D01*
X8258Y17487D01*
X8379Y17558D01*
X8450Y17544D01*
X8567Y17567D01*
X8623Y17605D01*
X8750Y17510D01*
Y17240D01*
X9100D01*
Y17550D01*
X8790D01*
X8695Y17677D01*
X8733Y17733D01*
X8751Y17827D01*
X8845Y17921D01*
X9758D01*
X9870Y17830D01*
X9870Y17771D01*
Y17530D01*
X9870Y17509D01*
X9820Y17380D01*
Y17377D01*
X9820Y17341D01*
Y17200D01*
X10820D01*
Y17271D01*
X10820Y17380D01*
X10953Y17421D01*
X12103D01*
X12183Y17367D01*
X12300Y17344D01*
X12417Y17367D01*
X12516Y17434D01*
X12583Y17533D01*
X12606Y17650D01*
X12583Y17767D01*
X12516Y17866D01*
X12417Y17933D01*
X12300Y17956D01*
X12183Y17933D01*
X12103Y17879D01*
X11813D01*
X11807Y17887D01*
X11747Y18029D01*
X11783Y18083D01*
X11806Y18200D01*
X11783Y18317D01*
X11729Y18397D01*
Y18791D01*
X11879Y18806D01*
X11888Y18762D01*
X11938Y18688D01*
X13138Y17488D01*
X13212Y17438D01*
X13300Y17421D01*
X13647D01*
X13780Y17380D01*
X13780Y17271D01*
Y17200D01*
X14780D01*
Y17341D01*
X14780Y17377D01*
Y17380D01*
X14730Y17509D01*
X14730Y17530D01*
Y17770D01*
X14730Y17791D01*
X14780Y17920D01*
Y17923D01*
X14780Y17959D01*
Y18100D01*
X13780D01*
Y18029D01*
X13780Y17920D01*
X13647Y17879D01*
X13647Y17879D01*
X13395D01*
X12329Y18945D01*
Y20755D01*
X12797Y21222D01*
X12847Y21297D01*
X12864Y21385D01*
Y21700D01*
X12945D01*
Y22400D01*
X12420D01*
X12325Y22400D01*
X12297D01*
X12270D01*
X12175Y22400D01*
X11650D01*
Y21955D01*
X11238Y21543D01*
X11188Y21469D01*
X11171Y21381D01*
Y20879D01*
X10882D01*
X10770Y20970D01*
X10770Y21029D01*
Y21330D01*
X10464D01*
X10358Y21437D01*
X10283Y21487D01*
X10195Y21504D01*
X8950D01*
Y21585D01*
X8614D01*
X8079Y22120D01*
Y22994D01*
X8140Y23055D01*
Y23116D01*
X10548Y25524D01*
X10670Y25437D01*
X10653Y25350D01*
X10950D01*
Y25647D01*
X10863Y25630D01*
X10776Y25752D01*
X11795Y26771D01*
X17755D01*
X18571Y25955D01*
D02*
G37*
%LPC*%
G36*
X11207Y5289D02*
X10823D01*
Y5009D01*
X10838Y4897D01*
X10881Y4792D01*
X10950Y4702D01*
X11040Y4633D01*
X11145Y4590D01*
X11207Y4582D01*
Y5289D01*
D02*
G37*
G36*
X11691D02*
X11307D01*
Y4582D01*
X11369Y4590D01*
X11474Y4633D01*
X11564Y4702D01*
X11633Y4792D01*
X11676Y4897D01*
X11691Y5009D01*
Y5289D01*
D02*
G37*
G36*
X20400D02*
X20016D01*
Y5009D01*
X20031Y4897D01*
X20074Y4792D01*
X20143Y4702D01*
X20233Y4633D01*
X20338Y4590D01*
X20400Y4582D01*
Y5289D01*
D02*
G37*
G36*
X10257Y6052D02*
X10158Y6039D01*
X10065Y6001D01*
X9986Y5940D01*
X9925Y5861D01*
X9887Y5768D01*
X9874Y5669D01*
Y5009D01*
X9887Y4910D01*
X9904Y4868D01*
Y4453D01*
X9553Y4103D01*
X8396D01*
X7044Y5455D01*
Y5669D01*
X7031Y5768D01*
X6993Y5861D01*
X6932Y5940D01*
X6852Y6001D01*
X6760Y6039D01*
X6661Y6052D01*
X6561Y6039D01*
X6469Y6001D01*
X6390Y5940D01*
X6329Y5861D01*
X6290Y5768D01*
X6277Y5669D01*
Y5009D01*
X6290Y4910D01*
X6329Y4817D01*
X6390Y4738D01*
X6469Y4677D01*
X6561Y4639D01*
X6661Y4626D01*
X6760Y4639D01*
X6832Y4669D01*
X7897Y3603D01*
Y2364D01*
X7875Y2311D01*
X7862Y2211D01*
X7875Y2110D01*
X7914Y2016D01*
X7975Y1936D01*
X8056Y1874D01*
X8149Y1836D01*
X8250Y1822D01*
X8351Y1836D01*
X8444Y1874D01*
X8525Y1936D01*
X8586Y2016D01*
X8625Y2110D01*
X8638Y2211D01*
X8625Y2311D01*
X8603Y2364D01*
Y3397D01*
X9700D01*
X9791Y3409D01*
X9876Y3444D01*
X9949Y3500D01*
X10507Y4057D01*
X10507Y4057D01*
X10563Y4131D01*
X10598Y4216D01*
X10610Y4307D01*
Y4868D01*
X10627Y4910D01*
X10640Y5009D01*
Y5669D01*
X10627Y5768D01*
X10589Y5861D01*
X10528Y5940D01*
X10449Y6001D01*
X10356Y6039D01*
X10257Y6052D01*
D02*
G37*
G36*
X3496Y4200D02*
X3200D01*
Y3904D01*
X3241Y3909D01*
X3327Y3944D01*
X3400Y4000D01*
X3456Y4073D01*
X3491Y4159D01*
X3496Y4200D01*
D02*
G37*
G36*
X3100D02*
X2804D01*
X2809Y4159D01*
X2844Y4073D01*
X2900Y4000D01*
X2973Y3944D01*
X3059Y3909D01*
X3100Y3904D01*
Y4200D01*
D02*
G37*
G36*
X19450Y6052D02*
X19351Y6039D01*
X19258Y6001D01*
X19179Y5940D01*
X19118Y5861D01*
X19080Y5768D01*
X19067Y5669D01*
Y5009D01*
X19080Y4910D01*
X19097Y4868D01*
Y4353D01*
X18246D01*
X17011Y5589D01*
X16938Y5645D01*
X16852Y5680D01*
X16761Y5692D01*
X16234D01*
X16224Y5768D01*
X16185Y5861D01*
X16125Y5940D01*
X16045Y6001D01*
X15953Y6039D01*
X15854Y6052D01*
X15754Y6039D01*
X15662Y6001D01*
X15583Y5940D01*
X15522Y5861D01*
X15483Y5768D01*
X15470Y5669D01*
Y5459D01*
X15464Y5443D01*
X15450Y5339D01*
Y3407D01*
X15450Y3407D01*
X15464Y3303D01*
X15504Y3205D01*
X15568Y3122D01*
X16765Y1925D01*
X16848Y1861D01*
X16946Y1821D01*
X17050Y1807D01*
X17154Y1821D01*
X17252Y1861D01*
X17335Y1925D01*
X17399Y2009D01*
X17440Y2106D01*
X17453Y2211D01*
X17440Y2315D01*
X17399Y2412D01*
X17335Y2496D01*
X16257Y3574D01*
Y4986D01*
X16615D01*
X17850Y3750D01*
X17923Y3694D01*
X18009Y3659D01*
X18100Y3647D01*
X19250D01*
X19341Y3659D01*
X19427Y3694D01*
X19500Y3750D01*
X19700Y3950D01*
X19756Y4023D01*
X19791Y4109D01*
X19803Y4200D01*
Y4868D01*
X19820Y4910D01*
X19833Y5009D01*
Y5669D01*
X19820Y5768D01*
X19782Y5861D01*
X19721Y5940D01*
X19642Y6001D01*
X19549Y6039D01*
X19450Y6052D01*
D02*
G37*
G36*
X3200Y4596D02*
Y4300D01*
X3496D01*
X3491Y4341D01*
X3456Y4427D01*
X3400Y4500D01*
X3327Y4556D01*
X3241Y4591D01*
X3200Y4596D01*
D02*
G37*
G36*
X3100D02*
X3059Y4591D01*
X2973Y4556D01*
X2900Y4500D01*
X2844Y4427D01*
X2809Y4341D01*
X2804Y4300D01*
X3100D01*
Y4596D01*
D02*
G37*
G36*
X20884Y5289D02*
X20500D01*
Y4582D01*
X20562Y4590D01*
X20667Y4633D01*
X20757Y4702D01*
X20826Y4792D01*
X20869Y4897D01*
X20884Y5009D01*
Y5289D01*
D02*
G37*
G36*
X20500Y6096D02*
Y5389D01*
X20884D01*
Y5669D01*
X20869Y5781D01*
X20826Y5886D01*
X20757Y5976D01*
X20667Y6045D01*
X20562Y6088D01*
X20500Y6096D01*
D02*
G37*
G36*
X20400D02*
X20338Y6088D01*
X20233Y6045D01*
X20143Y5976D01*
X20074Y5886D01*
X20031Y5781D01*
X20016Y5669D01*
Y5389D01*
X20400D01*
Y6096D01*
D02*
G37*
G36*
X1889Y10914D02*
X1785Y10901D01*
X1688Y10860D01*
X1604Y10796D01*
X815Y10007D01*
X751Y9923D01*
X710Y9826D01*
X697Y9722D01*
X697Y9722D01*
Y7100D01*
X697Y7100D01*
X710Y6996D01*
X751Y6899D01*
X815Y6815D01*
X1604Y6026D01*
X1688Y5962D01*
X1785Y5921D01*
X1889Y5908D01*
X1994Y5921D01*
X2091Y5962D01*
X2175Y6026D01*
X2239Y6109D01*
X2279Y6207D01*
X2293Y6311D01*
X2279Y6415D01*
X2239Y6513D01*
X2175Y6596D01*
X1540Y7231D01*
X1535Y7257D01*
X1542Y7283D01*
X1654Y7322D01*
X1670Y7310D01*
X1776Y7266D01*
X1839Y7258D01*
Y7690D01*
Y8122D01*
X1776Y8114D01*
X1670Y8070D01*
X1603Y8019D01*
X1523Y8047D01*
X1503Y8063D01*
Y9555D01*
X2175Y10226D01*
X2239Y10309D01*
X2279Y10407D01*
X2293Y10511D01*
X2279Y10615D01*
X2239Y10713D01*
X2175Y10796D01*
X2091Y10860D01*
X1994Y10901D01*
X1889Y10914D01*
D02*
G37*
G36*
X1939Y8122D02*
Y7740D01*
X2322D01*
X2313Y7804D01*
X2269Y7909D01*
X2200Y8000D01*
X2109Y8070D01*
X2003Y8114D01*
X1939Y8122D01*
D02*
G37*
G36*
X2322Y7640D02*
X1939D01*
Y7258D01*
X2003Y7266D01*
X2109Y7310D01*
X2200Y7380D01*
X2269Y7471D01*
X2313Y7576D01*
X2322Y7640D01*
D02*
G37*
G36*
X11307Y6096D02*
Y5389D01*
X11691D01*
Y5669D01*
X11676Y5781D01*
X11633Y5886D01*
X11564Y5976D01*
X11474Y6045D01*
X11369Y6088D01*
X11307Y6096D01*
D02*
G37*
G36*
X9257Y6052D02*
X9158Y6039D01*
X9065Y6001D01*
X8986Y5940D01*
X8925Y5861D01*
X8887Y5768D01*
X8874Y5669D01*
Y5009D01*
X8887Y4910D01*
X8925Y4817D01*
X8986Y4738D01*
X9065Y4677D01*
X9158Y4639D01*
X9257Y4626D01*
X9356Y4639D01*
X9449Y4677D01*
X9528Y4738D01*
X9589Y4817D01*
X9627Y4910D01*
X9640Y5009D01*
Y5669D01*
X9627Y5768D01*
X9589Y5861D01*
X9528Y5940D01*
X9449Y6001D01*
X9356Y6039D01*
X9257Y6052D01*
D02*
G37*
G36*
X4661D02*
X4561Y6039D01*
X4469Y6001D01*
X4390Y5940D01*
X4329Y5861D01*
X4290Y5768D01*
X4277Y5669D01*
Y5009D01*
X4290Y4910D01*
X4329Y4817D01*
X4390Y4738D01*
X4469Y4677D01*
X4561Y4639D01*
X4661Y4626D01*
X4760Y4639D01*
X4852Y4677D01*
X4932Y4738D01*
X4993Y4817D01*
X5031Y4910D01*
X5044Y5009D01*
Y5669D01*
X5031Y5768D01*
X4993Y5861D01*
X4932Y5940D01*
X4852Y6001D01*
X4760Y6039D01*
X4661Y6052D01*
D02*
G37*
G36*
X13854D02*
X13754Y6039D01*
X13662Y6001D01*
X13583Y5940D01*
X13522Y5861D01*
X13483Y5768D01*
X13470Y5669D01*
Y5009D01*
X13483Y4910D01*
X13522Y4817D01*
X13583Y4738D01*
X13662Y4677D01*
X13754Y4639D01*
X13854Y4626D01*
X13953Y4639D01*
X14045Y4677D01*
X14125Y4738D01*
X14185Y4817D01*
X14224Y4910D01*
X14237Y5009D01*
Y5669D01*
X14224Y5768D01*
X14185Y5861D01*
X14125Y5940D01*
X14045Y6001D01*
X13953Y6039D01*
X13854Y6052D01*
D02*
G37*
G36*
X11207Y6096D02*
X11145Y6088D01*
X11040Y6045D01*
X10950Y5976D01*
X10881Y5886D01*
X10838Y5781D01*
X10823Y5669D01*
Y5389D01*
X11207D01*
Y6096D01*
D02*
G37*
G36*
X18450Y6052D02*
X18351Y6039D01*
X18258Y6001D01*
X18179Y5940D01*
X18118Y5861D01*
X18080Y5768D01*
X18067Y5669D01*
Y5009D01*
X18080Y4910D01*
X18118Y4817D01*
X18179Y4738D01*
X18258Y4677D01*
X18351Y4639D01*
X18450Y4626D01*
X18549Y4639D01*
X18642Y4677D01*
X18721Y4738D01*
X18782Y4817D01*
X18820Y4910D01*
X18833Y5009D01*
Y5669D01*
X18820Y5768D01*
X18782Y5861D01*
X18721Y5940D01*
X18642Y6001D01*
X18549Y6039D01*
X18450Y6052D01*
D02*
G37*
G36*
X12250Y3196D02*
Y2900D01*
X12546D01*
X12541Y2941D01*
X12506Y3027D01*
X12450Y3100D01*
X12377Y3156D01*
X12291Y3191D01*
X12250Y3196D01*
D02*
G37*
G36*
X14854Y6052D02*
X14754Y6039D01*
X14662Y6001D01*
X14583Y5940D01*
X14522Y5861D01*
X14483Y5768D01*
X14470Y5669D01*
Y5459D01*
X14464Y5443D01*
X14450Y5339D01*
Y3029D01*
X14450Y3029D01*
X14464Y2925D01*
X14504Y2827D01*
X14568Y2744D01*
X15101Y2211D01*
X14394Y1503D01*
X8150D01*
X7225Y2428D01*
Y3378D01*
X7213Y3469D01*
X7178Y3554D01*
X7122Y3628D01*
X6014Y4736D01*
Y4868D01*
X6031Y4910D01*
X6044Y5009D01*
Y5669D01*
X6031Y5768D01*
X5993Y5861D01*
X5932Y5940D01*
X5852Y6001D01*
X5760Y6039D01*
X5661Y6052D01*
X5561Y6039D01*
X5469Y6001D01*
X5390Y5940D01*
X5329Y5861D01*
X5290Y5768D01*
X5277Y5669D01*
Y5009D01*
X5290Y4910D01*
X5308Y4868D01*
Y4589D01*
X5320Y4498D01*
X5355Y4413D01*
X5411Y4340D01*
X6519Y3232D01*
Y2404D01*
X6482Y2315D01*
X6469Y2211D01*
X6482Y2106D01*
X6523Y2009D01*
X6587Y1925D01*
X7697Y815D01*
X7781Y751D01*
X7878Y710D01*
X7983Y697D01*
X14561D01*
X14561Y697D01*
X14666Y710D01*
X14763Y751D01*
X14847Y815D01*
X15957Y1925D01*
X16021Y2009D01*
X16062Y2106D01*
X16075Y2211D01*
X16062Y2315D01*
X16021Y2412D01*
X15957Y2496D01*
X15257Y3196D01*
Y5339D01*
X15243Y5443D01*
X15237Y5459D01*
Y5669D01*
X15224Y5768D01*
X15185Y5861D01*
X15125Y5940D01*
X15045Y6001D01*
X14953Y6039D01*
X14854Y6052D01*
D02*
G37*
G36*
X21450Y1950D02*
X20650D01*
Y1150D01*
X21450D01*
Y1950D01*
D02*
G37*
G36*
X20550D02*
X19750D01*
Y1150D01*
X20550D01*
Y1950D01*
D02*
G37*
G36*
X18380Y2161D02*
X17998D01*
X18006Y2097D01*
X18050Y1991D01*
X18120Y1900D01*
X18211Y1831D01*
X18316Y1787D01*
X18380Y1778D01*
Y2161D01*
D02*
G37*
G36*
X10062D02*
X9680D01*
Y1778D01*
X9744Y1787D01*
X9849Y1831D01*
X9940Y1900D01*
X10010Y1991D01*
X10054Y2097D01*
X10062Y2161D01*
D02*
G37*
G36*
X9580D02*
X9198D01*
X9206Y2097D01*
X9250Y1991D01*
X9320Y1900D01*
X9411Y1831D01*
X9516Y1787D01*
X9580Y1778D01*
Y2161D01*
D02*
G37*
G36*
X20550Y1050D02*
X19750D01*
Y250D01*
X20550D01*
Y1050D01*
D02*
G37*
G36*
X2350D02*
X1550D01*
Y250D01*
X2350D01*
Y1050D01*
D02*
G37*
G36*
X1450D02*
X650D01*
Y250D01*
X1450D01*
Y1050D01*
D02*
G37*
G36*
X2350Y1950D02*
X1550D01*
Y1150D01*
X2350D01*
Y1950D01*
D02*
G37*
G36*
X1450D02*
X650D01*
Y1150D01*
X1450D01*
Y1950D01*
D02*
G37*
G36*
X21450Y1050D02*
X20650D01*
Y250D01*
X21450D01*
Y1050D01*
D02*
G37*
G36*
X12546Y2800D02*
X12250D01*
Y2504D01*
X12291Y2509D01*
X12377Y2544D01*
X12450Y2600D01*
X12506Y2673D01*
X12541Y2759D01*
X12546Y2800D01*
D02*
G37*
G36*
X12150D02*
X11854D01*
X11859Y2759D01*
X11894Y2673D01*
X11950Y2600D01*
X12023Y2544D01*
X12109Y2509D01*
X12150Y2504D01*
Y2800D01*
D02*
G37*
G36*
X20446Y2650D02*
X20150D01*
Y2354D01*
X20191Y2359D01*
X20277Y2394D01*
X20350Y2450D01*
X20406Y2523D01*
X20441Y2609D01*
X20446Y2650D01*
D02*
G37*
G36*
X12150Y3196D02*
X12109Y3191D01*
X12023Y3156D01*
X11950Y3100D01*
X11894Y3027D01*
X11859Y2941D01*
X11854Y2900D01*
X12150D01*
Y3196D01*
D02*
G37*
G36*
X20150Y3046D02*
Y2750D01*
X20446D01*
X20441Y2791D01*
X20406Y2877D01*
X20350Y2950D01*
X20277Y3006D01*
X20191Y3041D01*
X20150Y3046D01*
D02*
G37*
G36*
X20050D02*
X20009Y3041D01*
X19923Y3006D01*
X19850Y2950D01*
X19794Y2877D01*
X19759Y2791D01*
X19754Y2750D01*
X20050D01*
Y3046D01*
D02*
G37*
G36*
X9680Y2643D02*
Y2261D01*
X10062D01*
X10054Y2324D01*
X10010Y2430D01*
X9940Y2521D01*
X9849Y2591D01*
X9744Y2634D01*
X9680Y2643D01*
D02*
G37*
G36*
X9580D02*
X9516Y2634D01*
X9411Y2591D01*
X9320Y2521D01*
X9250Y2430D01*
X9206Y2324D01*
X9198Y2261D01*
X9580D01*
Y2643D01*
D02*
G37*
G36*
X18862Y2161D02*
X18480D01*
Y1778D01*
X18544Y1787D01*
X18649Y1831D01*
X18740Y1900D01*
X18810Y1991D01*
X18854Y2097D01*
X18862Y2161D01*
D02*
G37*
G36*
X20050Y2650D02*
X19754D01*
X19759Y2609D01*
X19794Y2523D01*
X19850Y2450D01*
X19923Y2394D01*
X20009Y2359D01*
X20050Y2354D01*
Y2650D01*
D02*
G37*
G36*
X18480Y2643D02*
Y2261D01*
X18862D01*
X18854Y2324D01*
X18810Y2430D01*
X18740Y2521D01*
X18649Y2591D01*
X18544Y2634D01*
X18480Y2643D01*
D02*
G37*
G36*
X18380D02*
X18316Y2634D01*
X18211Y2591D01*
X18120Y2521D01*
X18050Y2430D01*
X18006Y2324D01*
X17998Y2261D01*
X18380D01*
Y2643D01*
D02*
G37*
G36*
X10950Y25250D02*
X10653D01*
X10670Y25163D01*
X10748Y25048D01*
X10863Y24970D01*
X10950Y24953D01*
Y25250D01*
D02*
G37*
G36*
X15700Y26007D02*
X15563Y25980D01*
X15448Y25902D01*
X15370Y25787D01*
X15343Y25650D01*
Y25050D01*
X15370Y24913D01*
X15448Y24798D01*
X15563Y24720D01*
X15700Y24693D01*
X15837Y24720D01*
X15952Y24798D01*
X16030Y24913D01*
X16057Y25050D01*
Y25650D01*
X16030Y25787D01*
X15952Y25902D01*
X15837Y25980D01*
X15700Y26007D01*
D02*
G37*
G36*
X11347Y25250D02*
X11050D01*
Y24953D01*
X11137Y24970D01*
X11252Y25048D01*
X11330Y25163D01*
X11347Y25250D01*
D02*
G37*
G36*
X16642Y26048D02*
X16536Y26027D01*
X16404Y25938D01*
X16315Y25806D01*
X16284Y25650D01*
Y25400D01*
X16642D01*
Y26048D01*
D02*
G37*
G36*
X11050Y25647D02*
Y25350D01*
X11347D01*
X11330Y25437D01*
X11252Y25552D01*
X11137Y25630D01*
X11050Y25647D01*
D02*
G37*
G36*
X14720Y26007D02*
X14583Y25980D01*
X14468Y25902D01*
X14390Y25787D01*
X14363Y25650D01*
Y25050D01*
X14390Y24913D01*
X14468Y24798D01*
X14583Y24720D01*
X14720Y24693D01*
X14857Y24720D01*
X14972Y24798D01*
X15050Y24913D01*
X15077Y25050D01*
Y25650D01*
X15050Y25787D01*
X14972Y25902D01*
X14857Y25980D01*
X14720Y26007D01*
D02*
G37*
G36*
X16642Y25300D02*
X16284D01*
Y25050D01*
X16315Y24894D01*
X16404Y24762D01*
X16536Y24673D01*
X16642Y24652D01*
Y25300D01*
D02*
G37*
G36*
X16770Y23340D02*
X16650D01*
Y23050D01*
X16940D01*
Y23170D01*
X16770Y23340D01*
D02*
G37*
G36*
X17100Y25300D02*
X16742D01*
Y24652D01*
X16848Y24673D01*
X16981Y24762D01*
X17069Y24894D01*
X17100Y25050D01*
Y25300D01*
D02*
G37*
G36*
X18084D02*
X17726D01*
Y24652D01*
X17832Y24673D01*
X17965Y24762D01*
X18053Y24894D01*
X18084Y25050D01*
Y25300D01*
D02*
G37*
G36*
X17626D02*
X17269D01*
Y25050D01*
X17300Y24894D01*
X17388Y24762D01*
X17520Y24673D01*
X17626Y24652D01*
Y25300D01*
D02*
G37*
G36*
X16742Y26048D02*
Y25400D01*
X17100D01*
Y25650D01*
X17069Y25806D01*
X16981Y25938D01*
X16848Y26027D01*
X16742Y26048D01*
D02*
G37*
G36*
X1450Y27200D02*
X650D01*
Y26400D01*
X1450D01*
Y27200D01*
D02*
G37*
G36*
X10247Y26350D02*
X9950D01*
Y26053D01*
X10037Y26070D01*
X10152Y26148D01*
X10230Y26263D01*
X10247Y26350D01*
D02*
G37*
G36*
X2350Y27200D02*
X1550D01*
Y26400D01*
X2350D01*
Y27200D01*
D02*
G37*
G36*
X9950Y26747D02*
Y26450D01*
X10247D01*
X10230Y26537D01*
X10152Y26652D01*
X10037Y26730D01*
X9950Y26747D01*
D02*
G37*
G36*
X9850D02*
X9763Y26730D01*
X9648Y26652D01*
X9570Y26537D01*
X9553Y26450D01*
X9850D01*
Y26747D01*
D02*
G37*
G36*
Y26350D02*
X9553D01*
X9570Y26263D01*
X9648Y26148D01*
X9763Y26070D01*
X9850Y26053D01*
Y26350D01*
D02*
G37*
G36*
X17726Y26048D02*
Y25400D01*
X18084D01*
Y25650D01*
X18053Y25806D01*
X17965Y25938D01*
X17832Y26027D01*
X17726Y26048D01*
D02*
G37*
G36*
X17626D02*
X17520Y26027D01*
X17388Y25938D01*
X17300Y25806D01*
X17269Y25650D01*
Y25400D01*
X17626D01*
Y26048D01*
D02*
G37*
G36*
X1450Y26300D02*
X650D01*
Y25500D01*
X1450D01*
Y26300D01*
D02*
G37*
G36*
X21350Y27150D02*
X19750D01*
Y25550D01*
X21350D01*
Y27150D01*
D02*
G37*
G36*
X2350Y26300D02*
X1550D01*
Y25500D01*
X2350D01*
Y26300D01*
D02*
G37*
G36*
X1939Y12322D02*
Y11940D01*
X2322D01*
X2313Y12004D01*
X2269Y12109D01*
X2200Y12200D01*
X2109Y12270D01*
X2003Y12314D01*
X1939Y12322D01*
D02*
G37*
G36*
X1839D02*
X1776Y12314D01*
X1670Y12270D01*
X1579Y12200D01*
X1509Y12109D01*
X1466Y12004D01*
X1457Y11940D01*
X1839D01*
Y12322D01*
D02*
G37*
G36*
X18200Y15650D02*
X17903D01*
X17920Y15563D01*
X17998Y15448D01*
X18113Y15370D01*
X18200Y15353D01*
Y15650D01*
D02*
G37*
G36*
Y16047D02*
X18113Y16030D01*
X17998Y15952D01*
X17920Y15837D01*
X17903Y15750D01*
X18200D01*
Y16047D01*
D02*
G37*
G36*
X18597Y15650D02*
X18300D01*
Y15353D01*
X18387Y15370D01*
X18502Y15448D01*
X18580Y15563D01*
X18597Y15650D01*
D02*
G37*
G36*
X19450Y12942D02*
X19313Y12929D01*
X19181Y12889D01*
X19059Y12824D01*
X18953Y12736D01*
X18865Y12630D01*
X18800Y12508D01*
X18760Y12376D01*
X18747Y12239D01*
X18760Y12102D01*
X18800Y11970D01*
X18865Y11848D01*
X18953Y11742D01*
X19059Y11654D01*
X19181Y11589D01*
X19313Y11549D01*
X19450Y11536D01*
X19587Y11549D01*
X19719Y11589D01*
X19841Y11654D01*
X19947Y11742D01*
X20035Y11848D01*
X20100Y11970D01*
X20140Y12102D01*
X20153Y12239D01*
X20140Y12376D01*
X20100Y12508D01*
X20035Y12630D01*
X19947Y12736D01*
X19841Y12824D01*
X19719Y12889D01*
X19587Y12929D01*
X19450Y12942D01*
D02*
G37*
G36*
X2322Y11840D02*
X1939D01*
Y11458D01*
X2003Y11466D01*
X2109Y11510D01*
X2200Y11580D01*
X2269Y11671D01*
X2313Y11776D01*
X2322Y11840D01*
D02*
G37*
G36*
X1839D02*
X1457D01*
X1466Y11776D01*
X1509Y11671D01*
X1579Y11580D01*
X1670Y11510D01*
X1776Y11466D01*
X1839Y11458D01*
Y11840D01*
D02*
G37*
G36*
X5661Y12942D02*
X5523Y12929D01*
X5391Y12889D01*
X5270Y12824D01*
X5163Y12736D01*
X5076Y12630D01*
X5011Y12508D01*
X4971Y12376D01*
X4957Y12239D01*
X4971Y12102D01*
X5011Y11970D01*
X5076Y11848D01*
X5163Y11742D01*
X5270Y11654D01*
X5391Y11589D01*
X5523Y11549D01*
X5661Y11536D01*
X5798Y11549D01*
X5930Y11589D01*
X6051Y11654D01*
X6158Y11742D01*
X6245Y11848D01*
X6310Y11970D01*
X6351Y12102D01*
X6364Y12239D01*
X6351Y12376D01*
X6310Y12508D01*
X6245Y12630D01*
X6158Y12736D01*
X6051Y12824D01*
X5930Y12889D01*
X5798Y12929D01*
X5661Y12942D01*
D02*
G37*
G36*
X14854D02*
X14716Y12929D01*
X14584Y12889D01*
X14463Y12824D01*
X14356Y12736D01*
X14269Y12630D01*
X14204Y12508D01*
X14164Y12376D01*
X14150Y12239D01*
X14164Y12102D01*
X14204Y11970D01*
X14269Y11848D01*
X14356Y11742D01*
X14463Y11654D01*
X14584Y11589D01*
X14716Y11549D01*
X14854Y11536D01*
X14991Y11549D01*
X15123Y11589D01*
X15244Y11654D01*
X15351Y11742D01*
X15438Y11848D01*
X15503Y11970D01*
X15543Y12102D01*
X15557Y12239D01*
X15543Y12376D01*
X15503Y12508D01*
X15438Y12630D01*
X15351Y12736D01*
X15244Y12824D01*
X15123Y12889D01*
X14991Y12929D01*
X14854Y12942D01*
D02*
G37*
G36*
X10257D02*
X10120Y12929D01*
X9988Y12889D01*
X9866Y12824D01*
X9760Y12736D01*
X9672Y12630D01*
X9607Y12508D01*
X9567Y12376D01*
X9554Y12239D01*
X9567Y12102D01*
X9607Y11970D01*
X9672Y11848D01*
X9760Y11742D01*
X9866Y11654D01*
X9988Y11589D01*
X10120Y11549D01*
X10257Y11536D01*
X10394Y11549D01*
X10526Y11589D01*
X10648Y11654D01*
X10754Y11742D01*
X10842Y11848D01*
X10907Y11970D01*
X10947Y12102D01*
X10960Y12239D01*
X10947Y12376D01*
X10907Y12508D01*
X10842Y12630D01*
X10754Y12736D01*
X10648Y12824D01*
X10526Y12889D01*
X10394Y12929D01*
X10257Y12942D01*
D02*
G37*
G36*
X18300Y16047D02*
Y15750D01*
X18597D01*
X18580Y15837D01*
X18502Y15952D01*
X18387Y16030D01*
X18300Y16047D01*
D02*
G37*
G36*
X20300Y20897D02*
Y20600D01*
X20597D01*
X20580Y20687D01*
X20502Y20802D01*
X20387Y20880D01*
X20300Y20897D01*
D02*
G37*
G36*
X20200D02*
X20113Y20880D01*
X19998Y20802D01*
X19920Y20687D01*
X19903Y20600D01*
X20200D01*
Y20897D01*
D02*
G37*
G36*
X16550Y22950D02*
X16260D01*
Y22830D01*
X16430Y22660D01*
X16550D01*
Y22950D01*
D02*
G37*
G36*
Y23340D02*
X16430D01*
X16260Y23170D01*
Y23050D01*
X16550D01*
Y23340D01*
D02*
G37*
G36*
X16940Y22950D02*
X16650D01*
Y22660D01*
X16770D01*
X16940Y22830D01*
Y22950D01*
D02*
G37*
G36*
X20597Y20500D02*
X20300D01*
Y20203D01*
X20387Y20220D01*
X20502Y20298D01*
X20580Y20413D01*
X20597Y20500D01*
D02*
G37*
G36*
X16200Y17247D02*
Y16950D01*
X16497D01*
X16480Y17037D01*
X16402Y17152D01*
X16287Y17230D01*
X16200Y17247D01*
D02*
G37*
G36*
X9550Y17140D02*
X8750D01*
Y16955D01*
X8750Y16894D01*
Y16830D01*
X8800Y16701D01*
Y16680D01*
Y16205D01*
X9500D01*
Y16286D01*
X10185D01*
X10273Y16303D01*
X10348Y16353D01*
X10464Y16470D01*
X10770D01*
Y16770D01*
X10770Y16791D01*
X10820Y16920D01*
Y16923D01*
X10820Y16959D01*
Y17100D01*
X9820D01*
Y16959D01*
X9820Y16923D01*
Y16920D01*
X9830Y16895D01*
X9780Y16822D01*
X9596Y16796D01*
X9550Y16830D01*
Y16892D01*
X9550Y16955D01*
Y17140D01*
D02*
G37*
G36*
Y17550D02*
X9200D01*
Y17240D01*
X9550D01*
Y17550D01*
D02*
G37*
G36*
X20200Y20500D02*
X19903D01*
X19920Y20413D01*
X19998Y20298D01*
X20113Y20220D01*
X20200Y20203D01*
Y20500D01*
D02*
G37*
G36*
X10995Y23490D02*
X10705D01*
X10560Y23345D01*
Y23055D01*
X10705Y22910D01*
X10995D01*
X11056Y22971D01*
X13305D01*
X13310Y22966D01*
Y22855D01*
X13455Y22710D01*
X13566D01*
X14051Y22225D01*
Y21330D01*
X13830D01*
Y20980D01*
X13830Y20970D01*
Y20900D01*
Y20830D01*
X13830Y20820D01*
Y20480D01*
X13830Y20470D01*
Y20400D01*
Y20330D01*
X13830Y20320D01*
Y20029D01*
X13830Y19970D01*
X13718Y19879D01*
X13718Y19879D01*
X13645D01*
X13412Y20112D01*
X13338Y20162D01*
X13250Y20179D01*
X13147D01*
X13067Y20233D01*
X12950Y20256D01*
X12833Y20233D01*
X12734Y20166D01*
X12667Y20067D01*
X12644Y19950D01*
X12667Y19833D01*
X12734Y19734D01*
X12833Y19667D01*
X12950Y19644D01*
X13067Y19667D01*
X13147Y19721D01*
X13155D01*
X13274Y19602D01*
X13265Y19550D01*
X13215Y19449D01*
X13133Y19433D01*
X13034Y19366D01*
X12967Y19267D01*
X12944Y19150D01*
X12967Y19033D01*
X13034Y18934D01*
X13133Y18867D01*
X13250Y18844D01*
X13367Y18867D01*
X13447Y18921D01*
X13718D01*
X13830Y18830D01*
X13830Y18771D01*
Y18530D01*
X13830Y18509D01*
X13780Y18380D01*
Y18377D01*
X13780Y18341D01*
Y18200D01*
X14780D01*
Y18271D01*
X14780Y18380D01*
X14913Y18421D01*
X15666D01*
Y18285D01*
X16270D01*
X16286Y18285D01*
X16351D01*
X16422Y18282D01*
X16501Y18162D01*
Y17817D01*
X16447Y17737D01*
X16424Y17620D01*
X16447Y17503D01*
X16514Y17404D01*
X16613Y17337D01*
X16730Y17314D01*
X16847Y17337D01*
X16946Y17404D01*
X17013Y17503D01*
X17036Y17620D01*
X17013Y17737D01*
X16959Y17817D01*
Y18285D01*
X17040D01*
Y19015D01*
X16436D01*
X16420Y19015D01*
X16353D01*
X16286D01*
X16270Y19015D01*
X15666D01*
Y18879D01*
X14842D01*
X14730Y18970D01*
X14730Y19029D01*
Y19320D01*
X14730Y19330D01*
Y19400D01*
Y19470D01*
X14730Y19480D01*
Y19771D01*
X14730Y19830D01*
X14842Y19921D01*
X14842Y19921D01*
X14905D01*
X14999Y19827D01*
X15017Y19733D01*
X15084Y19634D01*
X15183Y19567D01*
X15300Y19544D01*
X15417Y19567D01*
X15516Y19634D01*
X15583Y19733D01*
X15606Y19850D01*
X15583Y19967D01*
X15516Y20066D01*
X15417Y20133D01*
X15323Y20151D01*
X15204Y20271D01*
X15263Y20421D01*
X15566D01*
Y20285D01*
X16170D01*
X16186Y20285D01*
X16253D01*
X16320D01*
X16336Y20285D01*
X16940D01*
Y20421D01*
X17355D01*
X17749Y20027D01*
X17767Y19933D01*
X17834Y19834D01*
X17933Y19767D01*
X18050Y19744D01*
X18167Y19767D01*
X18266Y19834D01*
X18333Y19933D01*
X18356Y20050D01*
X18333Y20167D01*
X18266Y20266D01*
X18167Y20333D01*
X18073Y20351D01*
X17612Y20812D01*
X17538Y20862D01*
X17450Y20879D01*
X16940D01*
Y21015D01*
X16336D01*
X16320Y21015D01*
X16253D01*
X16186D01*
X16170Y21015D01*
X15566D01*
Y20879D01*
X14842D01*
X14730Y20970D01*
X14730Y21029D01*
Y21330D01*
X14509D01*
Y22320D01*
X14492Y22408D01*
X14442Y22482D01*
X13890Y23034D01*
Y23145D01*
X13745Y23290D01*
X13634D01*
X13562Y23362D01*
X13488Y23412D01*
X13400Y23429D01*
X11056D01*
X10995Y23490D01*
D02*
G37*
%LPD*%
D10*
X6010Y15250D02*
D03*
X3590D02*
D03*
X6010Y15750D02*
D03*
Y16250D02*
D03*
X3590Y15750D02*
D03*
Y16250D02*
D03*
X6010Y16750D02*
D03*
X3590D02*
D03*
X6010Y17250D02*
D03*
Y17750D02*
D03*
X3590Y17250D02*
D03*
Y17750D02*
D03*
X6010Y18250D02*
D03*
X3590D02*
D03*
X6060Y20250D02*
D03*
X3640D02*
D03*
X6060Y20750D02*
D03*
Y21250D02*
D03*
X3640Y20750D02*
D03*
Y21250D02*
D03*
X6060Y21750D02*
D03*
X3640D02*
D03*
X6060Y22250D02*
D03*
Y22750D02*
D03*
X3640Y22250D02*
D03*
Y22750D02*
D03*
X6060Y23250D02*
D03*
X3640D02*
D03*
X14280Y16650D02*
D03*
Y17150D02*
D03*
X10320Y16650D02*
D03*
Y17150D02*
D03*
X14280Y21150D02*
D03*
Y20650D02*
D03*
Y20150D02*
D03*
Y19650D02*
D03*
Y19150D02*
D03*
Y18650D02*
D03*
Y18150D02*
D03*
Y17650D02*
D03*
X10320D02*
D03*
Y18150D02*
D03*
Y18650D02*
D03*
Y19150D02*
D03*
Y19650D02*
D03*
Y20150D02*
D03*
Y20650D02*
D03*
Y21150D02*
D03*
D11*
X11960Y22050D02*
D03*
X12635D02*
D03*
D12*
X16630Y20650D02*
D03*
X15876D02*
D03*
X16730Y18650D02*
D03*
X15976D02*
D03*
D13*
X9150Y17190D02*
D03*
Y16515D02*
D03*
X8600Y20600D02*
D03*
Y21275D02*
D03*
D14*
X7150Y20070D02*
D03*
Y20824D02*
D03*
D15*
X6060Y19790D02*
Y20250D01*
Y19790D02*
X6900Y18950D01*
Y17850D02*
Y18950D01*
X6800Y17750D02*
X6900Y17850D01*
X6010Y17750D02*
X6800D01*
X7150Y20070D02*
X7500Y19720D01*
X1750Y21250D02*
X3640D01*
X1750D02*
Y23750D01*
X2900Y21750D02*
X3640D01*
X1900Y19600D02*
X3000D01*
X1100Y18800D02*
X1900Y19600D01*
X1100Y15800D02*
Y18800D01*
Y15800D02*
X1650Y15250D01*
X2500Y16100D01*
X2666D01*
X2816Y16250D01*
X3590D01*
X2550Y15350D02*
X2950Y15750D01*
X3590D01*
X15950Y16200D02*
X16700D01*
X15500Y16650D02*
X15950Y16200D01*
X14280Y16650D02*
X15500D01*
X16700Y16200D02*
X18800Y18300D01*
X13100Y17150D02*
X14280D01*
X12900Y16950D02*
X13100Y17150D01*
X11950Y16950D02*
X12900D01*
X11750Y17150D02*
X11950Y16950D01*
X10320Y17150D02*
X11750D01*
X10320Y17650D02*
X12300D01*
X15750Y17300D02*
X15900Y17150D01*
X16150Y16900D01*
X14280Y17150D02*
X15900D01*
X14280Y18150D02*
X15350D01*
X15750Y17750D01*
Y17300D02*
Y17750D01*
X6010Y15750D02*
X6900D01*
X6000Y15250D02*
X6650Y14600D01*
X3000Y17750D02*
X3590D01*
X2450Y18300D02*
X3000Y17750D01*
X2450Y18300D02*
Y18900D01*
X2400Y18950D02*
X2450Y18900D01*
X2750Y22750D02*
X3640D01*
X1750Y23750D02*
X4450Y26450D01*
X2750Y16750D02*
X3590D01*
X2500Y16500D02*
X2750Y16750D01*
X1750Y16500D02*
X2500D01*
X11000Y25300D02*
X11400D01*
X5300Y9100D02*
X7650Y11450D01*
Y13400D01*
X7850Y13600D01*
X7500Y15000D02*
X8100Y14400D01*
X7500Y15000D02*
Y19720D01*
X8400Y13600D02*
X8850Y14050D01*
X7850Y13600D02*
X8400D01*
X8850Y14050D02*
Y15050D01*
X8550Y15350D02*
X8850Y15050D01*
X8000Y15350D02*
Y17628D01*
Y15350D02*
X8550D01*
X7975Y17653D02*
X8000Y17628D01*
X8750Y18150D02*
X10320D01*
X9150Y17190D02*
X9190Y17150D01*
X10320D01*
X13550Y10750D02*
X14850Y9450D01*
X13550Y10750D02*
Y13050D01*
X14280Y13780D01*
Y16650D01*
X15000Y20150D02*
X15300Y19850D01*
X14280Y20150D02*
X15000D01*
X16730Y17620D02*
Y18650D01*
X19450Y14200D02*
Y18600D01*
X18100Y12850D02*
X19450Y14200D01*
X18100Y11839D02*
Y12850D01*
Y11839D02*
X19450Y10489D01*
Y9600D02*
Y10489D01*
X17450Y20650D02*
X18050Y20050D01*
X18800Y18300D02*
Y26050D01*
X17850Y27000D02*
X18800Y26050D01*
X16630Y20650D02*
X17450D01*
X7900Y19900D02*
X8374D01*
X7900D02*
Y20550D01*
X8374Y19900D02*
X8624Y19650D01*
X7975Y17653D02*
Y18047D01*
X8000Y18072D01*
Y19150D01*
X8450Y17850D02*
X8750Y18150D01*
X8000Y19150D02*
X10320D01*
X7626Y20824D02*
X7900Y20550D01*
X7150Y20824D02*
X7626D01*
X7850Y23200D02*
X7900D01*
X11700Y27000D01*
X17850D01*
X11500Y18200D02*
Y19950D01*
X13550Y19650D02*
X14280D01*
X13250Y19950D02*
X13550Y19650D01*
X12950Y19950D02*
X13250D01*
X11450D02*
X11500D01*
X12100Y18850D02*
Y20850D01*
X6000Y15250D02*
X6010D01*
X12100Y20850D02*
X12635Y21385D01*
Y22050D01*
X11400Y21381D02*
X11960Y21941D01*
X11400Y20750D02*
Y21381D01*
X11300Y20650D02*
X11400Y20750D01*
X11960Y21941D02*
Y22050D01*
X12100Y18850D02*
X13300Y17650D01*
X10320Y20650D02*
X11300D01*
X13250Y19150D02*
X14280D01*
X6010Y16750D02*
X7000D01*
X2700Y17250D02*
X3590D01*
X9500Y18650D02*
X10320D01*
X10185Y16515D02*
X10320Y16650D01*
X9150Y16515D02*
X10185D01*
X8624Y19650D02*
X10320D01*
X3590Y18250D02*
Y18790D01*
X4050Y19250D01*
X3640Y22250D02*
X4500D01*
Y23950D01*
X5608Y25058D01*
Y25350D01*
X5825Y24525D02*
X6600Y25300D01*
X5775Y24525D02*
X5825D01*
X5100Y23850D02*
X5775Y24525D01*
X5100Y21050D02*
Y23850D01*
X6600Y25300D02*
Y25350D01*
X5233Y17250D02*
Y20267D01*
X4250Y21250D02*
X5233Y20267D01*
X3640Y21250D02*
X4250D01*
X4700Y16250D02*
Y20150D01*
X4100Y20750D02*
X4700Y20150D01*
X3640Y20750D02*
X4100D01*
X4700Y16250D02*
X6010D01*
X5233Y17250D02*
X6010D01*
X5100Y21050D02*
X5400Y20750D01*
X6060D01*
X4450Y26450D02*
X7584D01*
Y25350D02*
Y26450D01*
X3640Y23250D02*
Y24362D01*
X4628Y25350D01*
X13300Y17650D02*
X14280D01*
X9500Y20150D02*
X10320D01*
X9050Y20600D02*
X9500Y20150D01*
X8600Y20600D02*
X9050D01*
X7850Y22025D02*
X8600Y21275D01*
X7850Y22025D02*
Y23200D01*
X13400D02*
X13600Y23000D01*
X10850Y23200D02*
X13400D01*
X14280Y21150D02*
Y22320D01*
X13600Y23000D02*
X14280Y22320D01*
X10195Y21275D02*
X10320Y21150D01*
X8600Y21275D02*
X10195D01*
X14280Y20650D02*
X15876D01*
X14280Y18650D02*
X15976D01*
D16*
X1100Y7100D02*
X1889Y6311D01*
X1100Y7100D02*
Y9722D01*
X1889Y10511D01*
X14561Y1100D02*
X15672Y2211D01*
X7983Y1100D02*
X14561D01*
X6872Y2211D02*
X7983Y1100D01*
X15854Y3407D02*
X17050Y2211D01*
X15854Y3407D02*
Y5339D01*
X14854Y3029D02*
X15672Y2211D01*
X14854Y3029D02*
Y5339D01*
D17*
X19450Y4200D02*
Y5339D01*
X15854D02*
X16761D01*
X18100Y4000D01*
X19250D01*
X19450Y4200D01*
X8250Y3750D02*
X9700D01*
X10257Y4307D01*
Y5339D01*
X8250Y2211D02*
Y3750D01*
X6661Y5339D02*
X8250Y3750D01*
X5661Y4589D02*
Y5339D01*
Y4589D02*
X6872Y3378D01*
Y2211D02*
Y3378D01*
D18*
X12300Y22049D02*
D03*
D19*
X16251Y20652D02*
D03*
X16351Y18652D02*
D03*
X3349Y9102D02*
D03*
X9579Y9302D02*
D03*
D20*
X9149Y16850D02*
D03*
X3201Y7160D02*
D03*
X8601Y20940D02*
D03*
D21*
X13548Y9929D02*
D03*
X7152Y20449D02*
D03*
D22*
X16235Y24099D02*
D03*
D23*
X7311Y12239D02*
G03*
X7311Y12239I-1650J0D01*
G01*
X11907D02*
G03*
X11907Y12239I-1650J0D01*
G01*
X16504D02*
G03*
X16504Y12239I-1650J0D01*
G01*
X21100D02*
G03*
X21100Y12239I-1650J0D01*
G01*
X7311D02*
G03*
X7311Y12239I-1650J0D01*
G01*
X11907D02*
G03*
X11907Y12239I-1650J0D01*
G01*
X16504D02*
G03*
X16504Y12239I-1650J0D01*
G01*
X21100D02*
G03*
X21100Y12239I-1650J0D01*
G01*
D24*
X19317Y8485D02*
X20183D01*
X19317Y7915D02*
X20183D01*
Y8485D01*
X19317Y7915D02*
Y8485D01*
X14717Y8735D02*
X15583D01*
X14717Y8165D02*
X15583D01*
Y8735D01*
X14717Y8165D02*
Y8735D01*
X5962Y7715D02*
X6828D01*
X5962Y8285D02*
X6828D01*
X5962Y7715D02*
Y8285D01*
X6828Y7715D02*
Y8285D01*
X19750Y8003D02*
Y8397D01*
X19553Y8200D02*
X19947D01*
X19199Y8515D02*
X20301D01*
X19199Y7885D02*
X20301D01*
Y8515D01*
X19199Y7885D02*
Y8515D01*
X15150Y8253D02*
Y8647D01*
X14953Y8450D02*
X15347D01*
X14599Y8765D02*
X15701D01*
X14599Y8135D02*
X15701D01*
Y8765D01*
X14599Y8135D02*
Y8765D01*
X6395Y7803D02*
Y8197D01*
X6198Y8000D02*
X6592D01*
X5844Y7685D02*
X6946D01*
X5844Y8315D02*
X6946D01*
X5844Y7685D02*
Y8315D01*
X6946Y7685D02*
Y8315D01*
D25*
X7850Y23200D02*
X8000D01*
X10700D02*
X10850D01*
X13600Y23000D02*
X13750D01*
X16450D02*
X16600D01*
D26*
X8100Y22850D02*
Y23550D01*
X10600Y22850D02*
Y23550D01*
X13850Y22650D02*
Y23350D01*
X16350Y22650D02*
Y23350D01*
X15970Y20400D02*
X16530D01*
X15970Y20900D02*
X16530D01*
X16070Y18400D02*
X16630D01*
X16070Y18900D02*
X16630D01*
X13800Y9650D02*
Y10210D01*
X13300Y9650D02*
Y10210D01*
X3070Y8850D02*
X3630D01*
X3070Y9350D02*
X3630D01*
X9300Y9050D02*
X9860D01*
X9300Y9550D02*
X9860D01*
X15550Y25500D02*
X15850D01*
X15550Y25200D02*
X15850Y25500D01*
X15550D02*
X15850Y25200D01*
X15550D02*
Y25500D01*
Y25200D02*
X15850D01*
Y25500D01*
X14570D02*
X14870D01*
X14570Y25200D02*
X14870Y25500D01*
X14570D02*
X14870Y25200D01*
X14570D02*
Y25500D01*
Y25200D02*
X14870D01*
Y25500D01*
X17524D02*
X17824Y25200D01*
X17524D02*
X17824Y25500D01*
X17524D02*
X17824D01*
Y25200D02*
Y25500D01*
X17524Y25200D02*
X17824D01*
X17524D02*
Y25500D01*
X16533Y25200D02*
X16833Y25500D01*
X16533D02*
X16833Y25200D01*
Y25500D01*
X16533Y25200D02*
X16833D01*
X16533D02*
Y25500D01*
X16833D01*
X6900Y20170D02*
Y20730D01*
X7400Y20170D02*
Y20730D01*
X5458Y25500D02*
X5758D01*
X5458Y25200D02*
X5758Y25500D01*
X5458D02*
X5758Y25200D01*
X5458D02*
Y25500D01*
Y25200D02*
X5758D01*
Y25500D01*
X4478D02*
X4778D01*
X4478Y25200D02*
X4778Y25500D01*
X4478D02*
X4778Y25200D01*
X4478D02*
Y25500D01*
Y25200D02*
X4778D01*
Y25500D01*
X7431D02*
X7732Y25200D01*
X7431D02*
X7732Y25500D01*
X7431D02*
X7732D01*
Y25200D02*
Y25500D01*
X7431Y25200D02*
X7732D01*
X7431D02*
Y25500D01*
X6441Y25200D02*
X6741Y25500D01*
X6441D02*
X6741Y25200D01*
Y25500D01*
X6441Y25200D02*
X6741D01*
X6441D02*
Y25500D01*
X6741D01*
D27*
X12150Y22310D02*
X12440D01*
X12150Y21790D02*
X12450D01*
X9410Y16710D02*
Y17000D01*
X8890Y16700D02*
Y17000D01*
X2940Y7020D02*
Y7310D01*
X3460Y7010D02*
Y7310D01*
X9350Y1736D02*
X10110Y2490D01*
X9160Y1931D02*
X9910Y2690D01*
X7970Y1736D02*
X8730Y2490D01*
X7775Y1931D02*
X8530Y2690D01*
X6592Y1736D02*
X7344Y2490D01*
X6397Y1931D02*
X7152Y2690D01*
X18150Y1736D02*
X18910Y2490D01*
X17960Y1931D02*
X18710Y2690D01*
X16770Y1736D02*
X17530Y2490D01*
X16575Y1931D02*
X17330Y2690D01*
X15392Y1736D02*
X16144Y2490D01*
X15197Y1931D02*
X15952Y2690D01*
X1610Y12370D02*
X2364Y11610D01*
X1410Y12170D02*
X2169Y11420D01*
X1610Y10983D02*
X2364Y10231D01*
X1410Y10791D02*
X2169Y10036D01*
X1610Y8170D02*
X2364Y7410D01*
X1410Y7970D02*
X2169Y7220D01*
X1610Y6783D02*
X2364Y6031D01*
X1410Y6591D02*
X2169Y5836D01*
X8340Y20790D02*
Y21080D01*
X8860Y20790D02*
Y21090D01*
X16094Y24360D02*
X16385D01*
X16085Y23840D02*
X16385D01*
D28*
X8050Y23200D02*
D03*
X10650D02*
D03*
X13800Y23000D02*
D03*
X16400D02*
D03*
D29*
X3805Y15250D02*
D03*
Y15750D02*
D03*
Y16250D02*
D03*
X5795Y15250D02*
D03*
Y15750D02*
D03*
Y16250D02*
D03*
Y18250D02*
D03*
Y17750D02*
D03*
Y17250D02*
D03*
X3805Y16750D02*
D03*
X3815Y17250D02*
D03*
X3805Y17750D02*
D03*
Y18250D02*
D03*
X5795Y16750D02*
D03*
X3855Y20250D02*
D03*
Y20750D02*
D03*
Y21250D02*
D03*
X5845Y20250D02*
D03*
Y20750D02*
D03*
Y21250D02*
D03*
Y23250D02*
D03*
Y22750D02*
D03*
Y22250D02*
D03*
X3855Y21750D02*
D03*
X3865Y22250D02*
D03*
X3855Y22750D02*
D03*
Y23250D02*
D03*
X5845Y21750D02*
D03*
D30*
X12010Y22048D02*
D03*
X16525Y24097D02*
D03*
D31*
X12582Y22048D02*
D03*
X15952Y24097D02*
D03*
D32*
X16590Y20650D02*
D03*
X15910D02*
D03*
X16690Y18650D02*
D03*
X16010D02*
D03*
X3010Y9100D02*
D03*
X3690D02*
D03*
X9240Y9300D02*
D03*
X9920D02*
D03*
D33*
X9147Y17140D02*
D03*
X3203Y7450D02*
D03*
X8602Y20650D02*
D03*
D34*
X9147Y16568D02*
D03*
X3203Y6878D02*
D03*
X8602Y21222D02*
D03*
D35*
X10490Y16650D02*
D03*
Y17150D02*
D03*
X14110Y16650D02*
D03*
Y17150D02*
D03*
Y17650D02*
D03*
Y18150D02*
D03*
Y18650D02*
D03*
Y19150D02*
D03*
Y19650D02*
D03*
Y20150D02*
D03*
Y20650D02*
D03*
Y21150D02*
D03*
X10490Y17650D02*
D03*
Y18150D02*
D03*
Y18650D02*
D03*
Y19150D02*
D03*
Y19650D02*
D03*
Y20150D02*
D03*
Y20650D02*
D03*
Y21150D02*
D03*
D36*
X6661Y5614D02*
D03*
X5661D02*
D03*
X4661D02*
D03*
X11257D02*
D03*
X10257D02*
D03*
X9257D02*
D03*
X15854D02*
D03*
X14854D02*
D03*
X13854D02*
D03*
X20450D02*
D03*
X19450D02*
D03*
X18450D02*
D03*
D37*
X13550Y9590D02*
D03*
Y10270D02*
D03*
X7150Y20110D02*
D03*
Y20790D02*
D03*
D38*
X11520Y21660D02*
Y22437D01*
X13077Y21660D02*
Y22437D01*
X11520D02*
X13077D01*
X11520Y21660D02*
X13077D01*
X17030Y20263D02*
Y21040D01*
X15473Y20263D02*
Y21040D01*
Y20263D02*
X17030D01*
X15473Y21040D02*
X17030D01*
X17130Y18263D02*
Y19040D01*
X15573Y18263D02*
Y19040D01*
Y18263D02*
X17130D01*
X15573Y19040D02*
X17130D01*
X8760Y17630D02*
X9537D01*
X8760Y16073D02*
X9537D01*
Y17630D01*
X8760Y16073D02*
Y17630D01*
X13160Y9150D02*
X13937D01*
X13160Y10707D02*
X13937D01*
Y9150D02*
Y10707D01*
X13160Y9150D02*
Y10707D01*
X2570Y8713D02*
Y9490D01*
X4127Y8713D02*
Y9490D01*
X2570Y8713D02*
X4127D01*
X2570Y9490D02*
X4127D01*
X2813Y7940D02*
X3590D01*
X2813Y6383D02*
X3590D01*
X2813D02*
Y7940D01*
X3590Y6383D02*
Y7940D01*
X8800Y8913D02*
Y9690D01*
X10357Y8913D02*
Y9690D01*
X8800Y8913D02*
X10357D01*
X8800Y9690D02*
X10357D01*
X8213Y20160D02*
X8990D01*
X8213Y21717D02*
X8990D01*
X8213Y20160D02*
Y21717D01*
X8990Y20160D02*
Y21717D01*
X6763Y19670D02*
X7540D01*
X6763Y21227D02*
X7540D01*
X6763Y19670D02*
Y21227D01*
X7540Y19670D02*
Y21227D01*
X17015Y23710D02*
Y24487D01*
X15458Y23710D02*
Y24487D01*
X17015D01*
X15458Y23710D02*
X17015D01*
D39*
X20600Y1100D02*
D03*
X1500D02*
D03*
X20550Y26350D02*
D03*
X1500D02*
D03*
D40*
X7850Y23200D02*
D03*
X10850D02*
D03*
X13600Y23000D02*
D03*
X16600D02*
D03*
D41*
X5661Y12239D02*
D03*
X10257D02*
D03*
X14854D02*
D03*
X19450D02*
D03*
D42*
X6661Y5339D02*
D03*
X5661D02*
D03*
X4661D02*
D03*
X11257D02*
D03*
X10257D02*
D03*
X9257D02*
D03*
X15854D02*
D03*
X14854D02*
D03*
X13854D02*
D03*
X20450D02*
D03*
X19450D02*
D03*
X18450D02*
D03*
D43*
X9630Y2211D02*
D03*
X8250D02*
D03*
X6872D02*
D03*
X18430D02*
D03*
X17050D02*
D03*
X15672D02*
D03*
X1889Y11890D02*
D03*
Y10511D02*
D03*
Y7690D02*
D03*
Y6311D02*
D03*
D44*
X14720Y25350D02*
D03*
X15700D02*
D03*
X17676D02*
D03*
X16692D02*
D03*
X4628D02*
D03*
X5608D02*
D03*
X7584D02*
D03*
X6600D02*
D03*
D45*
X20100Y2700D02*
D03*
X12200Y2850D02*
D03*
X3150Y4250D02*
D03*
X20250Y20550D02*
D03*
X18250Y15700D02*
D03*
X2900Y21750D02*
D03*
X3000Y19600D02*
D03*
X2550Y15350D02*
D03*
X12300Y17650D02*
D03*
X16150Y16900D02*
D03*
X6900Y15750D02*
D03*
X6650Y14600D02*
D03*
X2400Y18950D02*
D03*
X2750Y22750D02*
D03*
X1750Y16500D02*
D03*
X9900Y26400D02*
D03*
X11000Y25300D02*
D03*
X5300Y9100D02*
D03*
X8100Y14400D02*
D03*
X14850Y9450D02*
D03*
X15300Y19850D02*
D03*
X16730Y17620D02*
D03*
X19450Y9600D02*
D03*
Y18600D02*
D03*
X18050Y20050D02*
D03*
X8450Y17850D02*
D03*
X12950Y19950D02*
D03*
X11450D02*
D03*
X11500Y18200D02*
D03*
X13250Y19150D02*
D03*
X7000Y16750D02*
D03*
X2700Y17250D02*
D03*
X9500Y18650D02*
D03*
X4050Y19250D02*
D03*
M02*
