%FSLAX24Y24*%
%MOIN*%
G70*
G01*
G75*
%ADD10R,0.0800X0.0260*%
%ADD11R,0.0520X0.0600*%
%ADD12R,0.0520X0.0630*%
%ADD13R,0.0600X0.0520*%
%ADD14R,0.0630X0.0520*%
%ADD15C,0.0350*%
%ADD16C,0.0700*%
%ADD17C,0.0600*%
%ADD18R,0.0079X0.0318*%
%ADD19R,0.0159X0.0476*%
%ADD20R,0.0318X0.0079*%
%ADD21R,0.0476X0.0159*%
%ADD22R,0.0079X0.0318*%
%ADD23C,0.0000*%
%ADD24C,0.0039*%
%ADD25C,0.0240*%
%ADD26C,0.0060*%
%ADD27C,0.0040*%
%ADD28R,0.0100X0.0240*%
%ADD29R,0.0450X0.0200*%
%ADD30R,0.0300X0.0575*%
%ADD31R,0.0295X0.0575*%
%ADD32R,0.0140X0.0560*%
%ADD33R,0.0575X0.0300*%
%ADD34R,0.0575X0.0295*%
%ADD35R,0.0580X0.0200*%
%ADD36R,0.0300X0.0750*%
%ADD37R,0.0560X0.0140*%
%ADD38C,0.0020*%
%ADD39R,0.1500X0.1500*%
G04:AMPARAMS|DCode=40|XSize=48mil|YSize=48mil|CornerRadius=0mil|HoleSize=0mil|Usage=FLASHONLY|Rotation=180.000|XOffset=0mil|YOffset=0mil|HoleType=Round|Shape=Octagon|*
%AMOCTAGOND40*
4,1,8,-0.0240,0.0120,-0.0240,-0.0120,-0.0120,-0.0240,0.0120,-0.0240,0.0240,-0.0120,0.0240,0.0120,0.0120,0.0240,-0.0120,0.0240,-0.0240,0.0120,0.0*
%
%ADD40OCTAGOND40*%

%ADD41C,0.1300*%
%ADD42O,0.0660X0.1320*%
%ADD43C,0.0670*%
%ADD44O,0.0600X0.1200*%
%ADD45C,0.0500*%
%ADD46R,0.0433X0.0551*%
%ADD47C,0.0650*%
%ADD48C,0.0100*%
%ADD49C,0.0034*%
%ADD50R,0.0050X0.0200*%
%ADD51R,0.0500X0.1100*%
%ADD52R,0.0300X0.0250*%
G36*
X9917Y11285D02*
X9758D01*
X9737Y11177D01*
X9738Y11178D01*
X9739Y11178D01*
X9741Y11179D01*
X9743Y11181D01*
X9747Y11183D01*
X9751Y11185D01*
X9760Y11190D01*
X9772Y11194D01*
X9784Y11198D01*
X9798Y11201D01*
X9805Y11202D01*
X9818D01*
X9821Y11202D01*
X9826Y11201D01*
X9831Y11201D01*
X9836Y11200D01*
X9843Y11198D01*
X9857Y11194D01*
X9864Y11191D01*
X9871Y11187D01*
X9879Y11183D01*
X9886Y11178D01*
X9893Y11173D01*
X9900Y11166D01*
X9901Y11166D01*
X9902Y11165D01*
X9904Y11163D01*
X9906Y11160D01*
X9909Y11156D01*
X9912Y11152D01*
X9915Y11147D01*
X9919Y11141D01*
X9921Y11135D01*
X9925Y11128D01*
X9928Y11120D01*
X9931Y11112D01*
X9933Y11103D01*
X9935Y11093D01*
X9936Y11084D01*
X9936Y11073D01*
Y11073D01*
Y11071D01*
Y11068D01*
X9936Y11064D01*
X9935Y11060D01*
X9935Y11054D01*
X9933Y11048D01*
X9932Y11042D01*
X9929Y11027D01*
X9923Y11011D01*
X9920Y11003D01*
X9915Y10996D01*
X9911Y10988D01*
X9905Y10980D01*
X9904Y10980D01*
X9903Y10978D01*
X9901Y10976D01*
X9898Y10973D01*
X9894Y10969D01*
X9889Y10965D01*
X9884Y10961D01*
X9877Y10956D01*
X9870Y10952D01*
X9862Y10948D01*
X9854Y10944D01*
X9845Y10940D01*
X9835Y10937D01*
X9824Y10934D01*
X9812Y10933D01*
X9800Y10932D01*
X9795D01*
X9791Y10933D01*
X9787Y10933D01*
X9781Y10934D01*
X9775Y10934D01*
X9769Y10936D01*
X9754Y10940D01*
X9740Y10945D01*
X9733Y10948D01*
X9725Y10952D01*
X9718Y10957D01*
X9711Y10962D01*
X9711Y10963D01*
X9710Y10963D01*
X9708Y10965D01*
X9706Y10968D01*
X9703Y10971D01*
X9700Y10974D01*
X9697Y10979D01*
X9694Y10984D01*
X9691Y10989D01*
X9687Y10995D01*
X9681Y11009D01*
X9676Y11025D01*
X9674Y11034D01*
X9673Y11043D01*
X9724Y11047D01*
Y11046D01*
Y11045D01*
X9725Y11043D01*
X9725Y11041D01*
X9727Y11034D01*
X9729Y11026D01*
X9733Y11017D01*
X9737Y11007D01*
X9743Y10999D01*
X9750Y10991D01*
X9751Y10990D01*
X9753Y10988D01*
X9758Y10985D01*
X9764Y10981D01*
X9771Y10978D01*
X9780Y10975D01*
X9789Y10973D01*
X9800Y10972D01*
X9804D01*
X9806Y10973D01*
X9813Y10973D01*
X9821Y10976D01*
X9831Y10979D01*
X9840Y10983D01*
X9851Y10990D01*
X9855Y10994D01*
X9860Y10999D01*
X9861Y10999D01*
X9861Y11000D01*
X9862Y11002D01*
X9864Y11003D01*
X9868Y11010D01*
X9873Y11018D01*
X9877Y11027D01*
X9881Y11039D01*
X9884Y11054D01*
X9885Y11061D01*
Y11069D01*
Y11070D01*
Y11071D01*
Y11073D01*
X9884Y11076D01*
Y11080D01*
X9884Y11084D01*
X9882Y11093D01*
X9879Y11104D01*
X9875Y11115D01*
X9869Y11125D01*
X9861Y11135D01*
Y11135D01*
X9860Y11136D01*
X9857Y11139D01*
X9852Y11143D01*
X9845Y11147D01*
X9836Y11151D01*
X9826Y11155D01*
X9814Y11158D01*
X9807Y11159D01*
X9796D01*
X9791Y11159D01*
X9785Y11158D01*
X9779Y11157D01*
X9772Y11155D01*
X9764Y11152D01*
X9757Y11148D01*
X9756Y11148D01*
X9754Y11147D01*
X9750Y11144D01*
X9746Y11141D01*
X9741Y11137D01*
X9737Y11132D01*
X9731Y11127D01*
X9727Y11120D01*
X9681Y11127D01*
X9720Y11331D01*
X9917D01*
Y11285D01*
D02*
G37*
G36*
X9470Y11293D02*
X9470Y11292D01*
X9469Y11291D01*
X9466Y11289D01*
X9464Y11285D01*
X9460Y11281D01*
X9456Y11276D01*
X9451Y11271D01*
X9446Y11264D01*
X9441Y11257D01*
X9435Y11249D01*
X9428Y11240D01*
X9422Y11231D01*
X9415Y11220D01*
X9408Y11209D01*
X9401Y11197D01*
X9394Y11185D01*
X9394Y11185D01*
X9393Y11182D01*
X9391Y11179D01*
X9388Y11174D01*
X9385Y11167D01*
X9382Y11161D01*
X9378Y11152D01*
X9374Y11143D01*
X9369Y11133D01*
X9364Y11123D01*
X9359Y11111D01*
X9355Y11099D01*
X9346Y11074D01*
X9337Y11048D01*
Y11047D01*
X9337Y11046D01*
X9336Y11043D01*
X9335Y11039D01*
X9334Y11035D01*
X9333Y11029D01*
X9331Y11023D01*
X9330Y11016D01*
X9328Y11008D01*
X9326Y10999D01*
X9323Y10981D01*
X9320Y10961D01*
X9319Y10939D01*
X9269D01*
Y10940D01*
Y10941D01*
Y10944D01*
X9269Y10947D01*
Y10952D01*
X9270Y10957D01*
X9271Y10964D01*
X9271Y10971D01*
X9272Y10979D01*
X9273Y10987D01*
X9275Y10996D01*
X9277Y11006D01*
X9279Y11016D01*
X9281Y11028D01*
X9287Y11051D01*
Y11052D01*
X9287Y11054D01*
X9288Y11058D01*
X9290Y11063D01*
X9292Y11069D01*
X9294Y11076D01*
X9296Y11084D01*
X9300Y11092D01*
X9303Y11102D01*
X9307Y11112D01*
X9315Y11134D01*
X9326Y11157D01*
X9337Y11179D01*
X9338Y11180D01*
X9339Y11182D01*
X9341Y11185D01*
X9343Y11190D01*
X9346Y11195D01*
X9350Y11201D01*
X9354Y11208D01*
X9358Y11216D01*
X9369Y11232D01*
X9381Y11250D01*
X9394Y11267D01*
X9408Y11284D01*
X9213D01*
Y11331D01*
X9470D01*
Y11293D01*
D02*
G37*
G36*
X10766Y11233D02*
X10770D01*
X10774Y11232D01*
X10784Y11231D01*
X10794Y11228D01*
X10805Y11223D01*
X10816Y11217D01*
X10825Y11209D01*
X10827Y11208D01*
X10829Y11205D01*
X10833Y11200D01*
X10835Y11196D01*
X10837Y11192D01*
X10839Y11186D01*
X10841Y11181D01*
X10843Y11175D01*
X10845Y11169D01*
X10846Y11162D01*
X10847Y11154D01*
X10848Y11146D01*
Y11136D01*
Y10939D01*
X10800D01*
Y11120D01*
Y11120D01*
Y11121D01*
Y11124D01*
Y11130D01*
X10799Y11136D01*
X10798Y11143D01*
X10798Y11150D01*
X10797Y11157D01*
X10795Y11162D01*
Y11162D01*
X10794Y11164D01*
X10793Y11166D01*
X10791Y11169D01*
X10789Y11173D01*
X10786Y11176D01*
X10782Y11179D01*
X10778Y11183D01*
X10777Y11184D01*
X10776Y11184D01*
X10773Y11185D01*
X10769Y11187D01*
X10765Y11189D01*
X10760Y11190D01*
X10755Y11190D01*
X10749Y11191D01*
X10746D01*
X10743Y11190D01*
X10738Y11190D01*
X10731Y11189D01*
X10723Y11186D01*
X10714Y11182D01*
X10706Y11177D01*
X10697Y11170D01*
X10697Y11169D01*
X10695Y11166D01*
X10691Y11162D01*
X10688Y11155D01*
X10684Y11146D01*
X10681Y11135D01*
X10679Y11122D01*
X10677Y11106D01*
Y10939D01*
X10629D01*
Y11126D01*
Y11126D01*
Y11127D01*
Y11128D01*
Y11131D01*
X10628Y11137D01*
X10627Y11144D01*
X10626Y11152D01*
X10623Y11160D01*
X10621Y11167D01*
X10617Y11174D01*
X10616Y11175D01*
X10614Y11177D01*
X10611Y11179D01*
X10607Y11183D01*
X10602Y11186D01*
X10595Y11189D01*
X10587Y11190D01*
X10577Y11191D01*
X10574D01*
X10570Y11190D01*
X10565Y11190D01*
X10560Y11188D01*
X10553Y11186D01*
X10547Y11184D01*
X10540Y11180D01*
X10539Y11179D01*
X10537Y11178D01*
X10534Y11175D01*
X10530Y11172D01*
X10526Y11167D01*
X10522Y11162D01*
X10518Y11155D01*
X10514Y11148D01*
X10514Y11147D01*
X10513Y11144D01*
X10512Y11139D01*
X10510Y11133D01*
X10509Y11124D01*
X10507Y11114D01*
X10507Y11102D01*
X10506Y11088D01*
Y10939D01*
X10458D01*
Y11227D01*
X10501D01*
Y11186D01*
X10502Y11187D01*
X10503Y11189D01*
X10507Y11193D01*
X10511Y11198D01*
X10516Y11204D01*
X10522Y11209D01*
X10529Y11215D01*
X10537Y11220D01*
X10538Y11221D01*
X10541Y11223D01*
X10546Y11224D01*
X10552Y11227D01*
X10560Y11229D01*
X10568Y11231D01*
X10578Y11233D01*
X10588Y11233D01*
X10594D01*
X10600Y11233D01*
X10607Y11232D01*
X10615Y11230D01*
X10624Y11228D01*
X10633Y11224D01*
X10641Y11220D01*
X10642Y11219D01*
X10644Y11217D01*
X10648Y11214D01*
X10652Y11210D01*
X10657Y11205D01*
X10662Y11198D01*
X10666Y11191D01*
X10670Y11182D01*
X10670Y11183D01*
X10672Y11185D01*
X10673Y11187D01*
X10676Y11190D01*
X10680Y11194D01*
X10684Y11198D01*
X10688Y11203D01*
X10694Y11208D01*
X10700Y11213D01*
X10707Y11217D01*
X10714Y11221D01*
X10722Y11225D01*
X10731Y11229D01*
X10740Y11231D01*
X10749Y11233D01*
X10759Y11233D01*
X10763D01*
X10766Y11233D01*
D02*
G37*
G36*
X10304D02*
X10308D01*
X10312Y11232D01*
X10322Y11231D01*
X10332Y11228D01*
X10343Y11223D01*
X10354Y11217D01*
X10363Y11209D01*
X10364Y11208D01*
X10366Y11205D01*
X10370Y11200D01*
X10372Y11196D01*
X10374Y11192D01*
X10377Y11186D01*
X10378Y11181D01*
X10381Y11175D01*
X10382Y11169D01*
X10383Y11162D01*
X10385Y11154D01*
X10386Y11146D01*
Y11136D01*
Y10939D01*
X10337D01*
Y11120D01*
Y11120D01*
Y11121D01*
Y11124D01*
Y11130D01*
X10336Y11136D01*
X10336Y11143D01*
X10335Y11150D01*
X10334Y11157D01*
X10332Y11162D01*
Y11162D01*
X10331Y11164D01*
X10330Y11166D01*
X10328Y11169D01*
X10326Y11173D01*
X10323Y11176D01*
X10320Y11179D01*
X10315Y11183D01*
X10315Y11184D01*
X10313Y11184D01*
X10311Y11185D01*
X10307Y11187D01*
X10303Y11189D01*
X10297Y11190D01*
X10292Y11190D01*
X10286Y11191D01*
X10283D01*
X10281Y11190D01*
X10275Y11190D01*
X10268Y11189D01*
X10260Y11186D01*
X10251Y11182D01*
X10243Y11177D01*
X10235Y11170D01*
X10234Y11169D01*
X10232Y11166D01*
X10229Y11162D01*
X10225Y11155D01*
X10221Y11146D01*
X10218Y11135D01*
X10216Y11122D01*
X10215Y11106D01*
Y10939D01*
X10166D01*
Y11126D01*
Y11126D01*
Y11127D01*
Y11128D01*
Y11131D01*
X10165Y11137D01*
X10164Y11144D01*
X10163Y11152D01*
X10161Y11160D01*
X10158Y11167D01*
X10154Y11174D01*
X10153Y11175D01*
X10152Y11177D01*
X10149Y11179D01*
X10145Y11183D01*
X10140Y11186D01*
X10133Y11189D01*
X10125Y11190D01*
X10115Y11191D01*
X10111D01*
X10107Y11190D01*
X10103Y11190D01*
X10097Y11188D01*
X10090Y11186D01*
X10084Y11184D01*
X10077Y11180D01*
X10076Y11179D01*
X10074Y11178D01*
X10071Y11175D01*
X10067Y11172D01*
X10063Y11167D01*
X10059Y11162D01*
X10055Y11155D01*
X10052Y11148D01*
X10051Y11147D01*
X10051Y11144D01*
X10049Y11139D01*
X10048Y11133D01*
X10046Y11124D01*
X10045Y11114D01*
X10044Y11102D01*
X10044Y11088D01*
Y10939D01*
X9995D01*
Y11227D01*
X10039D01*
Y11186D01*
X10039Y11187D01*
X10041Y11189D01*
X10044Y11193D01*
X10048Y11198D01*
X10053Y11204D01*
X10060Y11209D01*
X10067Y11215D01*
X10075Y11220D01*
X10076Y11221D01*
X10079Y11223D01*
X10083Y11224D01*
X10090Y11227D01*
X10097Y11229D01*
X10106Y11231D01*
X10115Y11233D01*
X10126Y11233D01*
X10131D01*
X10137Y11233D01*
X10144Y11232D01*
X10153Y11230D01*
X10161Y11228D01*
X10170Y11224D01*
X10178Y11220D01*
X10179Y11219D01*
X10181Y11217D01*
X10185Y11214D01*
X10189Y11210D01*
X10194Y11205D01*
X10199Y11198D01*
X10204Y11191D01*
X10207Y11182D01*
X10208Y11183D01*
X10209Y11185D01*
X10211Y11187D01*
X10214Y11190D01*
X10217Y11194D01*
X10221Y11198D01*
X10226Y11203D01*
X10231Y11208D01*
X10238Y11213D01*
X10244Y11217D01*
X10251Y11221D01*
X10260Y11225D01*
X10268Y11229D01*
X10277Y11231D01*
X10286Y11233D01*
X10297Y11233D01*
X10301D01*
X10304Y11233D01*
D02*
G37*
G36*
X9601Y10939D02*
Y10938D01*
Y10938D01*
Y10936D01*
Y10934D01*
X9600Y10929D01*
X9599Y10921D01*
X9598Y10914D01*
X9596Y10905D01*
X9593Y10897D01*
X9590Y10890D01*
X9589Y10889D01*
X9587Y10887D01*
X9585Y10883D01*
X9581Y10879D01*
X9576Y10874D01*
X9571Y10870D01*
X9563Y10864D01*
X9555Y10860D01*
X9541Y10881D01*
X9542Y10882D01*
X9544Y10882D01*
X9547Y10884D01*
X9550Y10886D01*
X9553Y10889D01*
X9558Y10892D01*
X9561Y10897D01*
X9564Y10901D01*
X9564Y10902D01*
X9565Y10903D01*
X9566Y10907D01*
X9568Y10911D01*
X9569Y10916D01*
X9571Y10923D01*
X9572Y10930D01*
X9572Y10939D01*
X9545D01*
Y10995D01*
X9601D01*
Y10939D01*
D02*
G37*
G36*
X15363Y11233D02*
X15367D01*
X15371Y11232D01*
X15381Y11231D01*
X15391Y11228D01*
X15402Y11223D01*
X15413Y11217D01*
X15422Y11209D01*
X15423Y11208D01*
X15425Y11205D01*
X15429Y11200D01*
X15431Y11196D01*
X15433Y11192D01*
X15436Y11186D01*
X15437Y11181D01*
X15440Y11175D01*
X15441Y11169D01*
X15443Y11162D01*
X15444Y11154D01*
X15445Y11146D01*
Y11136D01*
Y10939D01*
X15396D01*
Y11120D01*
Y11120D01*
Y11121D01*
Y11124D01*
Y11130D01*
X15396Y11136D01*
X15395Y11143D01*
X15394Y11150D01*
X15393Y11157D01*
X15392Y11162D01*
Y11162D01*
X15390Y11164D01*
X15389Y11166D01*
X15387Y11169D01*
X15385Y11173D01*
X15382Y11176D01*
X15379Y11179D01*
X15374Y11183D01*
X15374Y11184D01*
X15372Y11184D01*
X15370Y11185D01*
X15366Y11187D01*
X15362Y11189D01*
X15356Y11190D01*
X15351Y11190D01*
X15345Y11191D01*
X15342D01*
X15340Y11190D01*
X15334Y11190D01*
X15327Y11189D01*
X15319Y11186D01*
X15311Y11182D01*
X15302Y11177D01*
X15294Y11170D01*
X15293Y11169D01*
X15291Y11166D01*
X15288Y11162D01*
X15284Y11155D01*
X15280Y11146D01*
X15277Y11135D01*
X15275Y11122D01*
X15274Y11106D01*
Y10939D01*
X15225D01*
Y11126D01*
Y11126D01*
Y11127D01*
Y11128D01*
Y11131D01*
X15224Y11137D01*
X15223Y11144D01*
X15222Y11152D01*
X15220Y11160D01*
X15217Y11167D01*
X15213Y11174D01*
X15212Y11175D01*
X15211Y11177D01*
X15208Y11179D01*
X15204Y11183D01*
X15199Y11186D01*
X15192Y11189D01*
X15184Y11190D01*
X15174Y11191D01*
X15171D01*
X15166Y11190D01*
X15162Y11190D01*
X15156Y11188D01*
X15149Y11186D01*
X15143Y11184D01*
X15136Y11180D01*
X15136Y11179D01*
X15133Y11178D01*
X15130Y11175D01*
X15126Y11172D01*
X15122Y11167D01*
X15118Y11162D01*
X15114Y11155D01*
X15111Y11148D01*
X15110Y11147D01*
X15110Y11144D01*
X15109Y11139D01*
X15107Y11133D01*
X15105Y11124D01*
X15104Y11114D01*
X15103Y11102D01*
X15103Y11088D01*
Y10939D01*
X15054D01*
Y11227D01*
X15098D01*
Y11186D01*
X15098Y11187D01*
X15100Y11189D01*
X15103Y11193D01*
X15107Y11198D01*
X15113Y11204D01*
X15119Y11209D01*
X15126Y11215D01*
X15134Y11220D01*
X15135Y11221D01*
X15138Y11223D01*
X15142Y11224D01*
X15149Y11227D01*
X15156Y11229D01*
X15165Y11231D01*
X15175Y11233D01*
X15185Y11233D01*
X15190D01*
X15196Y11233D01*
X15203Y11232D01*
X15212Y11230D01*
X15220Y11228D01*
X15229Y11224D01*
X15237Y11220D01*
X15238Y11219D01*
X15241Y11217D01*
X15244Y11214D01*
X15249Y11210D01*
X15253Y11205D01*
X15258Y11198D01*
X15263Y11191D01*
X15266Y11182D01*
X15267Y11183D01*
X15268Y11185D01*
X15270Y11187D01*
X15273Y11190D01*
X15276Y11194D01*
X15280Y11198D01*
X15285Y11203D01*
X15290Y11208D01*
X15297Y11213D01*
X15303Y11217D01*
X15311Y11221D01*
X15319Y11225D01*
X15327Y11229D01*
X15336Y11231D01*
X15346Y11233D01*
X15356Y11233D01*
X15360D01*
X15363Y11233D01*
D02*
G37*
G36*
X9085Y10939D02*
X9036D01*
Y11250D01*
X9035Y11249D01*
X9032Y11247D01*
X9029Y11243D01*
X9023Y11239D01*
X9017Y11234D01*
X9009Y11228D01*
X9000Y11222D01*
X8989Y11216D01*
X8989D01*
X8988Y11215D01*
X8985Y11213D01*
X8979Y11210D01*
X8972Y11206D01*
X8964Y11202D01*
X8955Y11198D01*
X8947Y11194D01*
X8938Y11191D01*
Y11238D01*
X8939D01*
X8940Y11239D01*
X8942Y11240D01*
X8945Y11241D01*
X8948Y11243D01*
X8953Y11245D01*
X8962Y11251D01*
X8974Y11258D01*
X8985Y11266D01*
X8997Y11275D01*
X9009Y11285D01*
X9010Y11285D01*
X9010Y11286D01*
X9012Y11287D01*
X9014Y11289D01*
X9020Y11295D01*
X9027Y11302D01*
X9033Y11310D01*
X9041Y11319D01*
X9047Y11328D01*
X9053Y11338D01*
X9085D01*
Y10939D01*
D02*
G37*
G36*
X8878D02*
X8819D01*
X8772Y11060D01*
X8606D01*
X8563Y10939D01*
X8507D01*
X8659Y11336D01*
X8716D01*
X8878Y10939D01*
D02*
G37*
G36*
X5707Y11233D02*
X5711D01*
X5715Y11232D01*
X5725Y11231D01*
X5735Y11228D01*
X5746Y11223D01*
X5757Y11217D01*
X5766Y11209D01*
X5768Y11208D01*
X5770Y11205D01*
X5774Y11200D01*
X5776Y11196D01*
X5778Y11192D01*
X5780Y11186D01*
X5782Y11181D01*
X5784Y11175D01*
X5786Y11169D01*
X5787Y11162D01*
X5788Y11154D01*
X5789Y11146D01*
Y11136D01*
Y10939D01*
X5741D01*
Y11120D01*
Y11120D01*
Y11121D01*
Y11124D01*
Y11130D01*
X5740Y11136D01*
X5739Y11143D01*
X5739Y11150D01*
X5738Y11157D01*
X5736Y11162D01*
Y11162D01*
X5735Y11164D01*
X5734Y11166D01*
X5732Y11169D01*
X5730Y11173D01*
X5727Y11176D01*
X5723Y11179D01*
X5719Y11183D01*
X5718Y11184D01*
X5716Y11184D01*
X5714Y11185D01*
X5710Y11187D01*
X5706Y11189D01*
X5701Y11190D01*
X5696Y11190D01*
X5689Y11191D01*
X5687D01*
X5684Y11190D01*
X5679Y11190D01*
X5672Y11189D01*
X5664Y11186D01*
X5655Y11182D01*
X5646Y11177D01*
X5638Y11170D01*
X5638Y11169D01*
X5635Y11166D01*
X5632Y11162D01*
X5629Y11155D01*
X5625Y11146D01*
X5622Y11135D01*
X5619Y11122D01*
X5618Y11106D01*
Y10939D01*
X5569D01*
Y11126D01*
Y11126D01*
Y11127D01*
Y11128D01*
Y11131D01*
X5569Y11137D01*
X5568Y11144D01*
X5567Y11152D01*
X5564Y11160D01*
X5561Y11167D01*
X5557Y11174D01*
X5557Y11175D01*
X5555Y11177D01*
X5552Y11179D01*
X5548Y11183D01*
X5543Y11186D01*
X5536Y11189D01*
X5528Y11190D01*
X5518Y11191D01*
X5515D01*
X5511Y11190D01*
X5506Y11190D01*
X5501Y11188D01*
X5494Y11186D01*
X5487Y11184D01*
X5481Y11180D01*
X5480Y11179D01*
X5478Y11178D01*
X5475Y11175D01*
X5471Y11172D01*
X5467Y11167D01*
X5463Y11162D01*
X5459Y11155D01*
X5455Y11148D01*
X5455Y11147D01*
X5454Y11144D01*
X5453Y11139D01*
X5451Y11133D01*
X5450Y11124D01*
X5448Y11114D01*
X5448Y11102D01*
X5447Y11088D01*
Y10939D01*
X5398D01*
Y11227D01*
X5442D01*
Y11186D01*
X5443Y11187D01*
X5444Y11189D01*
X5448Y11193D01*
X5452Y11198D01*
X5457Y11204D01*
X5463Y11209D01*
X5470Y11215D01*
X5478Y11220D01*
X5479Y11221D01*
X5482Y11223D01*
X5487Y11224D01*
X5493Y11227D01*
X5501Y11229D01*
X5509Y11231D01*
X5519Y11233D01*
X5529Y11233D01*
X5534D01*
X5541Y11233D01*
X5548Y11232D01*
X5556Y11230D01*
X5565Y11228D01*
X5574Y11224D01*
X5582Y11220D01*
X5583Y11219D01*
X5585Y11217D01*
X5588Y11214D01*
X5593Y11210D01*
X5598Y11205D01*
X5603Y11198D01*
X5607Y11191D01*
X5611Y11182D01*
X5611Y11183D01*
X5613Y11185D01*
X5614Y11187D01*
X5617Y11190D01*
X5621Y11194D01*
X5625Y11198D01*
X5629Y11203D01*
X5635Y11208D01*
X5641Y11213D01*
X5648Y11217D01*
X5655Y11221D01*
X5663Y11225D01*
X5672Y11229D01*
X5681Y11231D01*
X5690Y11233D01*
X5700Y11233D01*
X5704D01*
X5707Y11233D01*
D02*
G37*
G36*
X5321Y11285D02*
X5162D01*
X5141Y11177D01*
X5141Y11178D01*
X5142Y11178D01*
X5144Y11179D01*
X5147Y11181D01*
X5150Y11183D01*
X5154Y11185D01*
X5164Y11190D01*
X5175Y11194D01*
X5188Y11198D01*
X5202Y11201D01*
X5208Y11202D01*
X5221D01*
X5225Y11202D01*
X5229Y11201D01*
X5234Y11201D01*
X5240Y11200D01*
X5246Y11198D01*
X5260Y11194D01*
X5268Y11191D01*
X5275Y11187D01*
X5282Y11183D01*
X5290Y11178D01*
X5297Y11173D01*
X5304Y11166D01*
X5304Y11166D01*
X5305Y11165D01*
X5307Y11163D01*
X5309Y11160D01*
X5312Y11156D01*
X5315Y11152D01*
X5319Y11147D01*
X5322Y11141D01*
X5325Y11135D01*
X5328Y11128D01*
X5331Y11120D01*
X5334Y11112D01*
X5336Y11103D01*
X5338Y11093D01*
X5339Y11084D01*
X5340Y11073D01*
Y11073D01*
Y11071D01*
Y11068D01*
X5339Y11064D01*
X5339Y11060D01*
X5338Y11054D01*
X5337Y11048D01*
X5336Y11042D01*
X5332Y11027D01*
X5327Y11011D01*
X5323Y11003D01*
X5319Y10996D01*
X5314Y10988D01*
X5308Y10980D01*
X5308Y10980D01*
X5307Y10978D01*
X5304Y10976D01*
X5301Y10973D01*
X5297Y10969D01*
X5293Y10965D01*
X5287Y10961D01*
X5281Y10956D01*
X5274Y10952D01*
X5266Y10948D01*
X5257Y10944D01*
X5248Y10940D01*
X5238Y10937D01*
X5227Y10934D01*
X5216Y10933D01*
X5204Y10932D01*
X5199D01*
X5195Y10933D01*
X5190Y10933D01*
X5185Y10934D01*
X5179Y10934D01*
X5172Y10936D01*
X5158Y10940D01*
X5144Y10945D01*
X5136Y10948D01*
X5129Y10952D01*
X5122Y10957D01*
X5115Y10962D01*
X5114Y10963D01*
X5113Y10963D01*
X5112Y10965D01*
X5110Y10968D01*
X5107Y10971D01*
X5104Y10974D01*
X5101Y10979D01*
X5098Y10984D01*
X5094Y10989D01*
X5091Y10995D01*
X5084Y11009D01*
X5079Y11025D01*
X5078Y11034D01*
X5076Y11043D01*
X5128Y11047D01*
Y11046D01*
Y11045D01*
X5128Y11043D01*
X5129Y11041D01*
X5130Y11034D01*
X5133Y11026D01*
X5136Y11017D01*
X5141Y11007D01*
X5146Y10999D01*
X5153Y10991D01*
X5154Y10990D01*
X5157Y10988D01*
X5161Y10985D01*
X5168Y10981D01*
X5175Y10978D01*
X5183Y10975D01*
X5193Y10973D01*
X5204Y10972D01*
X5207D01*
X5210Y10973D01*
X5216Y10973D01*
X5225Y10976D01*
X5234Y10979D01*
X5244Y10983D01*
X5254Y10990D01*
X5259Y10994D01*
X5264Y10999D01*
X5264Y10999D01*
X5265Y11000D01*
X5266Y11002D01*
X5268Y11003D01*
X5272Y11010D01*
X5276Y11018D01*
X5280Y11027D01*
X5284Y11039D01*
X5287Y11054D01*
X5288Y11061D01*
Y11069D01*
Y11070D01*
Y11071D01*
Y11073D01*
X5288Y11076D01*
Y11080D01*
X5287Y11084D01*
X5285Y11093D01*
X5282Y11104D01*
X5278Y11115D01*
X5273Y11125D01*
X5265Y11135D01*
Y11135D01*
X5264Y11136D01*
X5261Y11139D01*
X5256Y11143D01*
X5249Y11147D01*
X5239Y11151D01*
X5229Y11155D01*
X5217Y11158D01*
X5210Y11159D01*
X5199D01*
X5195Y11159D01*
X5189Y11158D01*
X5182Y11157D01*
X5175Y11155D01*
X5168Y11152D01*
X5160Y11148D01*
X5160Y11148D01*
X5157Y11147D01*
X5154Y11144D01*
X5149Y11141D01*
X5145Y11137D01*
X5140Y11132D01*
X5135Y11127D01*
X5131Y11120D01*
X5085Y11127D01*
X5123Y11331D01*
X5321D01*
Y11285D01*
D02*
G37*
G36*
X3876Y3399D02*
X3883Y3398D01*
X3892Y3396D01*
X3901Y3395D01*
X3909Y3392D01*
X3917Y3388D01*
X3918Y3388D01*
X3920Y3386D01*
X3923Y3385D01*
X3926Y3382D01*
X3929Y3378D01*
X3933Y3374D01*
X3937Y3369D01*
X3940Y3363D01*
Y3362D01*
X3941Y3360D01*
X3942Y3357D01*
X3943Y3353D01*
X3943Y3346D01*
X3944Y3338D01*
X3945Y3328D01*
Y3316D01*
Y3234D01*
Y3233D01*
Y3232D01*
Y3230D01*
Y3228D01*
Y3222D01*
Y3215D01*
X3946Y3208D01*
Y3201D01*
Y3195D01*
X3946Y3193D01*
Y3191D01*
Y3191D01*
Y3190D01*
X3947Y3187D01*
X3948Y3183D01*
X3950Y3181D01*
X3951Y3180D01*
X3952Y3179D01*
X3954Y3179D01*
X3957Y3178D01*
X3960D01*
X3962Y3179D01*
X3965Y3180D01*
X3965D01*
X3966Y3181D01*
X3968Y3182D01*
X3970Y3184D01*
X3973Y3186D01*
X3977Y3189D01*
X3981Y3194D01*
X3987Y3199D01*
Y3184D01*
X3986Y3184D01*
X3985Y3183D01*
X3984Y3181D01*
X3982Y3178D01*
X3975Y3172D01*
X3968Y3165D01*
X3959Y3157D01*
X3950Y3151D01*
X3945Y3149D01*
X3940Y3147D01*
X3934Y3146D01*
X3929Y3145D01*
X3927D01*
X3925Y3146D01*
X3922Y3146D01*
X3919Y3147D01*
X3916Y3149D01*
X3912Y3151D01*
X3909Y3154D01*
X3908Y3154D01*
X3908Y3156D01*
X3907Y3158D01*
X3905Y3161D01*
X3903Y3165D01*
X3902Y3171D01*
X3902Y3177D01*
X3901Y3184D01*
X3901Y3184D01*
X3899Y3183D01*
X3898Y3182D01*
X3895Y3180D01*
X3889Y3175D01*
X3881Y3169D01*
X3873Y3164D01*
X3866Y3158D01*
X3859Y3154D01*
X3857Y3152D01*
X3855Y3151D01*
X3854D01*
X3852Y3150D01*
X3849Y3149D01*
X3845Y3148D01*
X3841Y3147D01*
X3836Y3146D01*
X3830Y3146D01*
X3824Y3145D01*
X3823D01*
X3820Y3146D01*
X3815Y3146D01*
X3810Y3147D01*
X3803Y3149D01*
X3796Y3152D01*
X3790Y3156D01*
X3783Y3162D01*
X3782Y3162D01*
X3781Y3165D01*
X3778Y3169D01*
X3775Y3174D01*
X3772Y3181D01*
X3770Y3188D01*
X3767Y3197D01*
X3767Y3207D01*
Y3208D01*
Y3210D01*
X3767Y3213D01*
X3768Y3218D01*
X3768Y3223D01*
X3770Y3228D01*
X3772Y3233D01*
X3775Y3238D01*
X3775Y3238D01*
X3777Y3240D01*
X3780Y3244D01*
X3783Y3249D01*
X3788Y3254D01*
X3795Y3259D01*
X3802Y3265D01*
X3812Y3272D01*
X3812D01*
X3813Y3272D01*
X3815Y3273D01*
X3817Y3274D01*
X3820Y3276D01*
X3823Y3278D01*
X3828Y3280D01*
X3833Y3283D01*
X3839Y3285D01*
X3846Y3288D01*
X3853Y3292D01*
X3861Y3295D01*
X3870Y3298D01*
X3879Y3302D01*
X3890Y3306D01*
X3901Y3310D01*
Y3320D01*
Y3320D01*
Y3321D01*
Y3323D01*
Y3326D01*
X3901Y3332D01*
X3899Y3340D01*
X3898Y3348D01*
X3896Y3356D01*
X3893Y3363D01*
X3889Y3369D01*
X3889Y3370D01*
X3887Y3371D01*
X3885Y3374D01*
X3881Y3376D01*
X3877Y3379D01*
X3871Y3381D01*
X3864Y3383D01*
X3857Y3383D01*
X3854D01*
X3851Y3383D01*
X3847Y3382D01*
X3843Y3381D01*
X3838Y3379D01*
X3834Y3377D01*
X3830Y3374D01*
X3830Y3373D01*
X3828Y3372D01*
X3827Y3370D01*
X3826Y3368D01*
X3822Y3361D01*
X3821Y3358D01*
X3821Y3353D01*
X3821Y3338D01*
Y3337D01*
Y3335D01*
X3821Y3333D01*
Y3331D01*
X3818Y3324D01*
X3817Y3321D01*
X3815Y3319D01*
X3813Y3318D01*
X3810Y3316D01*
X3805Y3314D01*
X3802Y3313D01*
X3798Y3313D01*
X3797D01*
X3795Y3313D01*
X3793Y3314D01*
X3787Y3315D01*
X3785Y3317D01*
X3782Y3319D01*
Y3320D01*
X3781Y3320D01*
X3781Y3322D01*
X3780Y3324D01*
X3778Y3327D01*
X3777Y3330D01*
X3777Y3334D01*
X3776Y3338D01*
Y3339D01*
X3777Y3342D01*
X3777Y3346D01*
X3779Y3352D01*
X3782Y3358D01*
X3786Y3365D01*
X3791Y3373D01*
X3799Y3380D01*
X3800Y3381D01*
X3803Y3383D01*
X3808Y3386D01*
X3816Y3390D01*
X3825Y3393D01*
X3837Y3396D01*
X3850Y3399D01*
X3864Y3399D01*
X3870D01*
X3876Y3399D01*
D02*
G37*
G36*
X6170Y11233D02*
X6174D01*
X6178Y11232D01*
X6188Y11231D01*
X6198Y11228D01*
X6209Y11223D01*
X6220Y11217D01*
X6229Y11209D01*
X6230Y11208D01*
X6232Y11205D01*
X6236Y11200D01*
X6238Y11196D01*
X6241Y11192D01*
X6243Y11186D01*
X6245Y11181D01*
X6247Y11175D01*
X6249Y11169D01*
X6250Y11162D01*
X6251Y11154D01*
X6252Y11146D01*
Y11136D01*
Y10939D01*
X6203D01*
Y11120D01*
Y11120D01*
Y11121D01*
Y11124D01*
Y11130D01*
X6203Y11136D01*
X6202Y11143D01*
X6201Y11150D01*
X6200Y11157D01*
X6199Y11162D01*
Y11162D01*
X6197Y11164D01*
X6196Y11166D01*
X6195Y11169D01*
X6192Y11173D01*
X6189Y11176D01*
X6186Y11179D01*
X6181Y11183D01*
X6181Y11184D01*
X6179Y11184D01*
X6177Y11185D01*
X6173Y11187D01*
X6169Y11189D01*
X6164Y11190D01*
X6158Y11190D01*
X6152Y11191D01*
X6149D01*
X6147Y11190D01*
X6141Y11190D01*
X6134Y11189D01*
X6126Y11186D01*
X6118Y11182D01*
X6109Y11177D01*
X6101Y11170D01*
X6100Y11169D01*
X6098Y11166D01*
X6095Y11162D01*
X6091Y11155D01*
X6087Y11146D01*
X6084Y11135D01*
X6082Y11122D01*
X6081Y11106D01*
Y10939D01*
X6032D01*
Y11126D01*
Y11126D01*
Y11127D01*
Y11128D01*
Y11131D01*
X6032Y11137D01*
X6030Y11144D01*
X6029Y11152D01*
X6027Y11160D01*
X6024Y11167D01*
X6020Y11174D01*
X6020Y11175D01*
X6018Y11177D01*
X6015Y11179D01*
X6011Y11183D01*
X6006Y11186D01*
X5999Y11189D01*
X5991Y11190D01*
X5981Y11191D01*
X5978D01*
X5974Y11190D01*
X5969Y11190D01*
X5963Y11188D01*
X5956Y11186D01*
X5950Y11184D01*
X5943Y11180D01*
X5943Y11179D01*
X5940Y11178D01*
X5937Y11175D01*
X5933Y11172D01*
X5929Y11167D01*
X5925Y11162D01*
X5921Y11155D01*
X5918Y11148D01*
X5917Y11147D01*
X5917Y11144D01*
X5916Y11139D01*
X5914Y11133D01*
X5912Y11124D01*
X5911Y11114D01*
X5910Y11102D01*
X5910Y11088D01*
Y10939D01*
X5861D01*
Y11227D01*
X5905D01*
Y11186D01*
X5905Y11187D01*
X5907Y11189D01*
X5910Y11193D01*
X5914Y11198D01*
X5920Y11204D01*
X5926Y11209D01*
X5933Y11215D01*
X5941Y11220D01*
X5942Y11221D01*
X5945Y11223D01*
X5949Y11224D01*
X5956Y11227D01*
X5963Y11229D01*
X5972Y11231D01*
X5982Y11233D01*
X5992Y11233D01*
X5997D01*
X6003Y11233D01*
X6010Y11232D01*
X6019Y11230D01*
X6028Y11228D01*
X6036Y11224D01*
X6044Y11220D01*
X6045Y11219D01*
X6048Y11217D01*
X6051Y11214D01*
X6056Y11210D01*
X6060Y11205D01*
X6065Y11198D01*
X6070Y11191D01*
X6073Y11182D01*
X6074Y11183D01*
X6075Y11185D01*
X6077Y11187D01*
X6080Y11190D01*
X6083Y11194D01*
X6087Y11198D01*
X6092Y11203D01*
X6098Y11208D01*
X6104Y11213D01*
X6110Y11217D01*
X6118Y11221D01*
X6126Y11225D01*
X6134Y11229D01*
X6143Y11231D01*
X6153Y11233D01*
X6163Y11233D01*
X6167D01*
X6170Y11233D01*
D02*
G37*
G36*
X4282Y10939D02*
X4222D01*
X4176Y11060D01*
X4009D01*
X3966Y10939D01*
X3911D01*
X4062Y11336D01*
X4120D01*
X4282Y10939D01*
D02*
G37*
G36*
X5004D02*
Y10938D01*
Y10938D01*
Y10936D01*
Y10934D01*
X5004Y10929D01*
X5003Y10921D01*
X5001Y10914D01*
X5000Y10905D01*
X4997Y10897D01*
X4993Y10890D01*
X4993Y10889D01*
X4991Y10887D01*
X4989Y10883D01*
X4985Y10879D01*
X4980Y10874D01*
X4974Y10870D01*
X4967Y10864D01*
X4959Y10860D01*
X4945Y10881D01*
X4946Y10882D01*
X4947Y10882D01*
X4950Y10884D01*
X4954Y10886D01*
X4957Y10889D01*
X4961Y10892D01*
X4964Y10897D01*
X4967Y10901D01*
X4968Y10902D01*
X4969Y10903D01*
X4970Y10907D01*
X4971Y10911D01*
X4973Y10916D01*
X4974Y10923D01*
X4975Y10930D01*
X4976Y10939D01*
X4948D01*
Y10995D01*
X5004D01*
Y10939D01*
D02*
G37*
G36*
X4874Y11293D02*
X4873Y11292D01*
X4872Y11291D01*
X4870Y11289D01*
X4867Y11285D01*
X4864Y11281D01*
X4859Y11276D01*
X4855Y11271D01*
X4850Y11264D01*
X4845Y11257D01*
X4838Y11249D01*
X4832Y11240D01*
X4826Y11231D01*
X4819Y11220D01*
X4812Y11209D01*
X4805Y11197D01*
X4798Y11185D01*
X4797Y11185D01*
X4796Y11182D01*
X4795Y11179D01*
X4792Y11174D01*
X4789Y11167D01*
X4785Y11161D01*
X4781Y11152D01*
X4777Y11143D01*
X4773Y11133D01*
X4768Y11123D01*
X4763Y11111D01*
X4758Y11099D01*
X4749Y11074D01*
X4741Y11048D01*
Y11047D01*
X4740Y11046D01*
X4739Y11043D01*
X4738Y11039D01*
X4737Y11035D01*
X4736Y11029D01*
X4734Y11023D01*
X4733Y11016D01*
X4731Y11008D01*
X4730Y10999D01*
X4727Y10981D01*
X4724Y10961D01*
X4722Y10939D01*
X4672D01*
Y10940D01*
Y10941D01*
Y10944D01*
X4673Y10947D01*
Y10952D01*
X4673Y10957D01*
X4674Y10964D01*
X4675Y10971D01*
X4676Y10979D01*
X4677Y10987D01*
X4679Y10996D01*
X4680Y11006D01*
X4682Y11016D01*
X4684Y11028D01*
X4690Y11051D01*
Y11052D01*
X4691Y11054D01*
X4692Y11058D01*
X4694Y11063D01*
X4695Y11069D01*
X4698Y11076D01*
X4700Y11084D01*
X4703Y11092D01*
X4707Y11102D01*
X4710Y11112D01*
X4719Y11134D01*
X4729Y11157D01*
X4741Y11179D01*
X4741Y11180D01*
X4742Y11182D01*
X4744Y11185D01*
X4746Y11190D01*
X4749Y11195D01*
X4753Y11201D01*
X4757Y11208D01*
X4762Y11216D01*
X4773Y11232D01*
X4784Y11250D01*
X4797Y11267D01*
X4811Y11284D01*
X4617D01*
Y11331D01*
X4874D01*
Y11293D01*
D02*
G37*
G36*
X4488Y10939D02*
X4439D01*
Y11250D01*
X4439Y11249D01*
X4436Y11247D01*
X4432Y11243D01*
X4427Y11239D01*
X4420Y11234D01*
X4412Y11228D01*
X4403Y11222D01*
X4393Y11216D01*
X4392D01*
X4392Y11215D01*
X4388Y11213D01*
X4382Y11210D01*
X4376Y11206D01*
X4368Y11202D01*
X4359Y11198D01*
X4350Y11194D01*
X4342Y11191D01*
Y11238D01*
X4342D01*
X4343Y11239D01*
X4346Y11240D01*
X4349Y11241D01*
X4352Y11243D01*
X4356Y11245D01*
X4366Y11251D01*
X4377Y11258D01*
X4389Y11266D01*
X4401Y11275D01*
X4413Y11285D01*
X4413Y11285D01*
X4414Y11286D01*
X4416Y11287D01*
X4418Y11289D01*
X4423Y11295D01*
X4430Y11302D01*
X4437Y11310D01*
X4444Y11319D01*
X4451Y11328D01*
X4457Y11338D01*
X4488D01*
Y10939D01*
D02*
G37*
G36*
X14900Y11233D02*
X14904D01*
X14908Y11232D01*
X14918Y11231D01*
X14928Y11228D01*
X14939Y11223D01*
X14950Y11217D01*
X14959Y11209D01*
X14960Y11208D01*
X14963Y11205D01*
X14967Y11200D01*
X14968Y11196D01*
X14971Y11192D01*
X14973Y11186D01*
X14975Y11181D01*
X14977Y11175D01*
X14979Y11169D01*
X14980Y11162D01*
X14981Y11154D01*
X14982Y11146D01*
Y11136D01*
Y10939D01*
X14933D01*
Y11120D01*
Y11120D01*
Y11121D01*
Y11124D01*
Y11130D01*
X14933Y11136D01*
X14932Y11143D01*
X14932Y11150D01*
X14931Y11157D01*
X14929Y11162D01*
Y11162D01*
X14928Y11164D01*
X14927Y11166D01*
X14925Y11169D01*
X14923Y11173D01*
X14920Y11176D01*
X14916Y11179D01*
X14912Y11183D01*
X14911Y11184D01*
X14909Y11184D01*
X14907Y11185D01*
X14903Y11187D01*
X14899Y11189D01*
X14894Y11190D01*
X14889Y11190D01*
X14882Y11191D01*
X14879D01*
X14877Y11190D01*
X14871Y11190D01*
X14865Y11189D01*
X14857Y11186D01*
X14848Y11182D01*
X14839Y11177D01*
X14831Y11170D01*
X14831Y11169D01*
X14828Y11166D01*
X14825Y11162D01*
X14822Y11155D01*
X14818Y11146D01*
X14815Y11135D01*
X14812Y11122D01*
X14811Y11106D01*
Y10939D01*
X14762D01*
Y11126D01*
Y11126D01*
Y11127D01*
Y11128D01*
Y11131D01*
X14762Y11137D01*
X14761Y11144D01*
X14760Y11152D01*
X14757Y11160D01*
X14754Y11167D01*
X14750Y11174D01*
X14750Y11175D01*
X14748Y11177D01*
X14745Y11179D01*
X14741Y11183D01*
X14736Y11186D01*
X14729Y11189D01*
X14721Y11190D01*
X14711Y11191D01*
X14708D01*
X14704Y11190D01*
X14699Y11190D01*
X14694Y11188D01*
X14687Y11186D01*
X14680Y11184D01*
X14673Y11180D01*
X14673Y11179D01*
X14671Y11178D01*
X14668Y11175D01*
X14664Y11172D01*
X14660Y11167D01*
X14656Y11162D01*
X14652Y11155D01*
X14648Y11148D01*
X14648Y11147D01*
X14647Y11144D01*
X14646Y11139D01*
X14644Y11133D01*
X14642Y11124D01*
X14641Y11114D01*
X14641Y11102D01*
X14640Y11088D01*
Y10939D01*
X14591D01*
Y11227D01*
X14635D01*
Y11186D01*
X14636Y11187D01*
X14637Y11189D01*
X14641Y11193D01*
X14645Y11198D01*
X14650Y11204D01*
X14656Y11209D01*
X14663Y11215D01*
X14671Y11220D01*
X14672Y11221D01*
X14675Y11223D01*
X14680Y11224D01*
X14686Y11227D01*
X14694Y11229D01*
X14702Y11231D01*
X14712Y11233D01*
X14722Y11233D01*
X14727D01*
X14734Y11233D01*
X14741Y11232D01*
X14749Y11230D01*
X14758Y11228D01*
X14766Y11224D01*
X14774Y11220D01*
X14776Y11219D01*
X14778Y11217D01*
X14781Y11214D01*
X14786Y11210D01*
X14791Y11205D01*
X14796Y11198D01*
X14800Y11191D01*
X14804Y11182D01*
X14804Y11183D01*
X14805Y11185D01*
X14807Y11187D01*
X14810Y11190D01*
X14813Y11194D01*
X14818Y11198D01*
X14822Y11203D01*
X14828Y11208D01*
X14834Y11213D01*
X14840Y11217D01*
X14848Y11221D01*
X14856Y11225D01*
X14865Y11229D01*
X14874Y11231D01*
X14883Y11233D01*
X14893Y11233D01*
X14897D01*
X14900Y11233D01*
D02*
G37*
G36*
X18071Y10939D02*
X18012D01*
X17965Y11060D01*
X17799D01*
X17756Y10939D01*
X17700D01*
X17852Y11336D01*
X17909D01*
X18071Y10939D01*
D02*
G37*
G36*
X18793D02*
Y10938D01*
Y10938D01*
Y10936D01*
Y10934D01*
X18793Y10929D01*
X18792Y10921D01*
X18791Y10914D01*
X18789Y10905D01*
X18786Y10897D01*
X18783Y10890D01*
X18782Y10889D01*
X18780Y10887D01*
X18778Y10883D01*
X18774Y10879D01*
X18769Y10874D01*
X18764Y10870D01*
X18756Y10864D01*
X18748Y10860D01*
X18734Y10881D01*
X18735Y10882D01*
X18737Y10882D01*
X18740Y10884D01*
X18743Y10886D01*
X18746Y10889D01*
X18750Y10892D01*
X18754Y10897D01*
X18757Y10901D01*
X18757Y10902D01*
X18758Y10903D01*
X18759Y10907D01*
X18761Y10911D01*
X18762Y10916D01*
X18764Y10923D01*
X18765Y10930D01*
X18765Y10939D01*
X18738D01*
Y10995D01*
X18793D01*
Y10939D01*
D02*
G37*
G36*
X18663Y11293D02*
X18663Y11292D01*
X18661Y11291D01*
X18659Y11289D01*
X18657Y11285D01*
X18653Y11281D01*
X18649Y11276D01*
X18644Y11271D01*
X18639Y11264D01*
X18634Y11257D01*
X18628Y11249D01*
X18621Y11240D01*
X18615Y11231D01*
X18608Y11220D01*
X18601Y11209D01*
X18594Y11197D01*
X18587Y11185D01*
X18587Y11185D01*
X18586Y11182D01*
X18584Y11179D01*
X18581Y11174D01*
X18578Y11167D01*
X18575Y11161D01*
X18571Y11152D01*
X18567Y11143D01*
X18562Y11133D01*
X18557Y11123D01*
X18552Y11111D01*
X18548Y11099D01*
X18539Y11074D01*
X18530Y11048D01*
Y11047D01*
X18529Y11046D01*
X18529Y11043D01*
X18528Y11039D01*
X18527Y11035D01*
X18525Y11029D01*
X18524Y11023D01*
X18523Y11016D01*
X18521Y11008D01*
X18519Y10999D01*
X18516Y10981D01*
X18513Y10961D01*
X18512Y10939D01*
X18462D01*
Y10940D01*
Y10941D01*
Y10944D01*
X18462Y10947D01*
Y10952D01*
X18463Y10957D01*
X18463Y10964D01*
X18464Y10971D01*
X18465Y10979D01*
X18466Y10987D01*
X18468Y10996D01*
X18470Y11006D01*
X18471Y11016D01*
X18474Y11028D01*
X18479Y11051D01*
Y11052D01*
X18480Y11054D01*
X18481Y11058D01*
X18483Y11063D01*
X18485Y11069D01*
X18487Y11076D01*
X18489Y11084D01*
X18493Y11092D01*
X18496Y11102D01*
X18500Y11112D01*
X18508Y11134D01*
X18519Y11157D01*
X18530Y11179D01*
X18531Y11180D01*
X18532Y11182D01*
X18533Y11185D01*
X18536Y11190D01*
X18539Y11195D01*
X18543Y11201D01*
X18547Y11208D01*
X18551Y11216D01*
X18562Y11232D01*
X18574Y11250D01*
X18587Y11267D01*
X18601Y11284D01*
X18406D01*
Y11331D01*
X18663D01*
Y11293D01*
D02*
G37*
G36*
X18277Y10939D02*
X18229D01*
Y11250D01*
X18228Y11249D01*
X18225Y11247D01*
X18222Y11243D01*
X18216Y11239D01*
X18210Y11234D01*
X18202Y11228D01*
X18192Y11222D01*
X18182Y11216D01*
X18182D01*
X18181Y11215D01*
X18178Y11213D01*
X18172Y11210D01*
X18165Y11206D01*
X18157Y11202D01*
X18148Y11198D01*
X18140Y11194D01*
X18131Y11191D01*
Y11238D01*
X18132D01*
X18133Y11239D01*
X18135Y11240D01*
X18138Y11241D01*
X18141Y11243D01*
X18145Y11245D01*
X18155Y11251D01*
X18167Y11258D01*
X18178Y11266D01*
X18190Y11275D01*
X18202Y11285D01*
X18203Y11285D01*
X18203Y11286D01*
X18205Y11287D01*
X18207Y11289D01*
X18213Y11295D01*
X18219Y11302D01*
X18226Y11310D01*
X18234Y11319D01*
X18240Y11328D01*
X18246Y11338D01*
X18277D01*
Y10939D01*
D02*
G37*
G36*
X8246Y25481D02*
X8461D01*
Y25425D01*
X8234Y25104D01*
X8185D01*
Y25425D01*
X8117D01*
Y25481D01*
X8185D01*
Y25600D01*
X8246D01*
Y25481D01*
D02*
G37*
G36*
X3986Y25212D02*
X3987Y25213D01*
X3990Y25216D01*
X3995Y25220D01*
X4002Y25225D01*
X4010Y25231D01*
X4020Y25239D01*
X4031Y25247D01*
X4044Y25254D01*
X4045D01*
X4045Y25255D01*
X4050Y25258D01*
X4057Y25262D01*
X4066Y25266D01*
X4076Y25271D01*
X4086Y25276D01*
X4097Y25281D01*
X4108Y25285D01*
Y25226D01*
X4107D01*
X4106Y25225D01*
X4103Y25224D01*
X4099Y25222D01*
X4095Y25220D01*
X4090Y25217D01*
X4078Y25210D01*
X4063Y25202D01*
X4049Y25192D01*
X4034Y25181D01*
X4019Y25168D01*
X4018Y25168D01*
X4018Y25167D01*
X4015Y25165D01*
X4013Y25163D01*
X4006Y25155D01*
X3997Y25147D01*
X3989Y25137D01*
X3980Y25125D01*
X3972Y25114D01*
X3964Y25102D01*
X3925D01*
Y25600D01*
X3986D01*
Y25212D01*
D02*
G37*
G36*
X18338Y25481D02*
X18554D01*
Y25425D01*
X18326Y25104D01*
X18277D01*
Y25425D01*
X18209D01*
Y25481D01*
X18277D01*
Y25600D01*
X18338D01*
Y25481D01*
D02*
G37*
G36*
X14078Y25212D02*
X14079Y25213D01*
X14082Y25216D01*
X14087Y25220D01*
X14094Y25225D01*
X14102Y25231D01*
X14112Y25239D01*
X14123Y25247D01*
X14136Y25254D01*
X14137D01*
X14138Y25255D01*
X14142Y25258D01*
X14149Y25262D01*
X14158Y25266D01*
X14168Y25271D01*
X14178Y25276D01*
X14189Y25281D01*
X14200Y25285D01*
Y25226D01*
X14199D01*
X14198Y25225D01*
X14195Y25224D01*
X14191Y25222D01*
X14187Y25220D01*
X14182Y25217D01*
X14170Y25210D01*
X14156Y25202D01*
X14141Y25192D01*
X14126Y25181D01*
X14111Y25168D01*
X14110Y25168D01*
X14110Y25167D01*
X14108Y25165D01*
X14105Y25163D01*
X14098Y25155D01*
X14090Y25147D01*
X14081Y25137D01*
X14072Y25125D01*
X14064Y25114D01*
X14057Y25102D01*
X14017D01*
Y25600D01*
X14078D01*
Y25212D01*
D02*
G37*
G36*
X13681Y10939D02*
X13632D01*
Y11250D01*
X13632Y11249D01*
X13629Y11247D01*
X13625Y11243D01*
X13620Y11239D01*
X13613Y11234D01*
X13605Y11228D01*
X13596Y11222D01*
X13586Y11216D01*
X13585D01*
X13585Y11215D01*
X13581Y11213D01*
X13575Y11210D01*
X13568Y11206D01*
X13560Y11202D01*
X13552Y11198D01*
X13543Y11194D01*
X13535Y11191D01*
Y11238D01*
X13535D01*
X13536Y11239D01*
X13539Y11240D01*
X13542Y11241D01*
X13545Y11243D01*
X13549Y11245D01*
X13559Y11251D01*
X13570Y11258D01*
X13582Y11266D01*
X13594Y11275D01*
X13606Y11285D01*
X13606Y11285D01*
X13607Y11286D01*
X13609Y11287D01*
X13611Y11289D01*
X13616Y11295D01*
X13623Y11302D01*
X13630Y11310D01*
X13637Y11319D01*
X13644Y11328D01*
X13649Y11338D01*
X13681D01*
Y10939D01*
D02*
G37*
G36*
X13475D02*
X13415D01*
X13369Y11060D01*
X13202D01*
X13159Y10939D01*
X13104D01*
X13255Y11336D01*
X13312D01*
X13475Y10939D01*
D02*
G37*
G36*
X14514Y11285D02*
X14355D01*
X14334Y11177D01*
X14334Y11178D01*
X14335Y11178D01*
X14337Y11179D01*
X14340Y11181D01*
X14343Y11183D01*
X14347Y11185D01*
X14357Y11190D01*
X14368Y11194D01*
X14381Y11198D01*
X14394Y11201D01*
X14401Y11202D01*
X14414D01*
X14417Y11202D01*
X14422Y11201D01*
X14427Y11201D01*
X14433Y11200D01*
X14439Y11198D01*
X14453Y11194D01*
X14460Y11191D01*
X14468Y11187D01*
X14475Y11183D01*
X14483Y11178D01*
X14490Y11173D01*
X14497Y11166D01*
X14497Y11166D01*
X14498Y11165D01*
X14500Y11163D01*
X14502Y11160D01*
X14505Y11156D01*
X14508Y11152D01*
X14512Y11147D01*
X14515Y11141D01*
X14518Y11135D01*
X14521Y11128D01*
X14524Y11120D01*
X14527Y11112D01*
X14529Y11103D01*
X14531Y11093D01*
X14532Y11084D01*
X14533Y11073D01*
Y11073D01*
Y11071D01*
Y11068D01*
X14532Y11064D01*
X14532Y11060D01*
X14531Y11054D01*
X14530Y11048D01*
X14529Y11042D01*
X14525Y11027D01*
X14520Y11011D01*
X14516Y11003D01*
X14512Y10996D01*
X14507Y10988D01*
X14501Y10980D01*
X14501Y10980D01*
X14500Y10978D01*
X14497Y10976D01*
X14494Y10973D01*
X14490Y10969D01*
X14486Y10965D01*
X14480Y10961D01*
X14474Y10956D01*
X14467Y10952D01*
X14459Y10948D01*
X14450Y10944D01*
X14441Y10940D01*
X14431Y10937D01*
X14420Y10934D01*
X14409Y10933D01*
X14397Y10932D01*
X14392D01*
X14388Y10933D01*
X14383Y10933D01*
X14378Y10934D01*
X14372Y10934D01*
X14365Y10936D01*
X14351Y10940D01*
X14336Y10945D01*
X14329Y10948D01*
X14322Y10952D01*
X14315Y10957D01*
X14308Y10962D01*
X14307Y10963D01*
X14306Y10963D01*
X14305Y10965D01*
X14303Y10968D01*
X14300Y10971D01*
X14297Y10974D01*
X14293Y10979D01*
X14291Y10984D01*
X14287Y10989D01*
X14284Y10995D01*
X14277Y11009D01*
X14272Y11025D01*
X14270Y11034D01*
X14269Y11043D01*
X14320Y11047D01*
Y11046D01*
Y11045D01*
X14321Y11043D01*
X14322Y11041D01*
X14323Y11034D01*
X14326Y11026D01*
X14329Y11017D01*
X14334Y11007D01*
X14339Y10999D01*
X14346Y10991D01*
X14347Y10990D01*
X14350Y10988D01*
X14354Y10985D01*
X14361Y10981D01*
X14367Y10978D01*
X14376Y10975D01*
X14386Y10973D01*
X14397Y10972D01*
X14400D01*
X14403Y10973D01*
X14409Y10973D01*
X14417Y10976D01*
X14427Y10979D01*
X14437Y10983D01*
X14447Y10990D01*
X14452Y10994D01*
X14456Y10999D01*
X14457Y10999D01*
X14458Y11000D01*
X14459Y11002D01*
X14460Y11003D01*
X14464Y11010D01*
X14469Y11018D01*
X14473Y11027D01*
X14477Y11039D01*
X14480Y11054D01*
X14481Y11061D01*
Y11069D01*
Y11070D01*
Y11071D01*
Y11073D01*
X14481Y11076D01*
Y11080D01*
X14480Y11084D01*
X14478Y11093D01*
X14475Y11104D01*
X14471Y11115D01*
X14466Y11125D01*
X14458Y11135D01*
Y11135D01*
X14456Y11136D01*
X14454Y11139D01*
X14448Y11143D01*
X14442Y11147D01*
X14432Y11151D01*
X14422Y11155D01*
X14410Y11158D01*
X14403Y11159D01*
X14392D01*
X14388Y11159D01*
X14382Y11158D01*
X14375Y11157D01*
X14368Y11155D01*
X14361Y11152D01*
X14353Y11148D01*
X14353Y11148D01*
X14350Y11147D01*
X14347Y11144D01*
X14342Y11141D01*
X14338Y11137D01*
X14333Y11132D01*
X14328Y11127D01*
X14324Y11120D01*
X14278Y11127D01*
X14316Y11331D01*
X14514D01*
Y11285D01*
D02*
G37*
G36*
X14067Y11293D02*
X14066Y11292D01*
X14065Y11291D01*
X14063Y11289D01*
X14060Y11285D01*
X14057Y11281D01*
X14052Y11276D01*
X14048Y11271D01*
X14043Y11264D01*
X14037Y11257D01*
X14031Y11249D01*
X14025Y11240D01*
X14018Y11231D01*
X14012Y11220D01*
X14005Y11209D01*
X13998Y11197D01*
X13991Y11185D01*
X13990Y11185D01*
X13989Y11182D01*
X13987Y11179D01*
X13985Y11174D01*
X13982Y11167D01*
X13978Y11161D01*
X13974Y11152D01*
X13970Y11143D01*
X13966Y11133D01*
X13961Y11123D01*
X13956Y11111D01*
X13951Y11099D01*
X13942Y11074D01*
X13934Y11048D01*
Y11047D01*
X13933Y11046D01*
X13932Y11043D01*
X13931Y11039D01*
X13930Y11035D01*
X13929Y11029D01*
X13927Y11023D01*
X13926Y11016D01*
X13924Y11008D01*
X13923Y10999D01*
X13920Y10981D01*
X13917Y10961D01*
X13915Y10939D01*
X13865D01*
Y10940D01*
Y10941D01*
Y10944D01*
X13866Y10947D01*
Y10952D01*
X13866Y10957D01*
X13867Y10964D01*
X13868Y10971D01*
X13869Y10979D01*
X13870Y10987D01*
X13872Y10996D01*
X13873Y11006D01*
X13875Y11016D01*
X13877Y11028D01*
X13883Y11051D01*
Y11052D01*
X13884Y11054D01*
X13885Y11058D01*
X13886Y11063D01*
X13888Y11069D01*
X13891Y11076D01*
X13893Y11084D01*
X13896Y11092D01*
X13900Y11102D01*
X13903Y11112D01*
X13912Y11134D01*
X13922Y11157D01*
X13934Y11179D01*
X13934Y11180D01*
X13935Y11182D01*
X13937Y11185D01*
X13939Y11190D01*
X13942Y11195D01*
X13946Y11201D01*
X13950Y11208D01*
X13955Y11216D01*
X13966Y11232D01*
X13977Y11250D01*
X13990Y11267D01*
X14004Y11284D01*
X13810D01*
Y11331D01*
X14067D01*
Y11293D01*
D02*
G37*
G36*
X19497Y11233D02*
X19501D01*
X19505Y11232D01*
X19514Y11231D01*
X19525Y11228D01*
X19536Y11223D01*
X19547Y11217D01*
X19556Y11209D01*
X19557Y11208D01*
X19559Y11205D01*
X19563Y11200D01*
X19565Y11196D01*
X19567Y11192D01*
X19570Y11186D01*
X19571Y11181D01*
X19574Y11175D01*
X19575Y11169D01*
X19576Y11162D01*
X19578Y11154D01*
X19579Y11146D01*
Y11136D01*
Y10939D01*
X19530D01*
Y11120D01*
Y11120D01*
Y11121D01*
Y11124D01*
Y11130D01*
X19529Y11136D01*
X19529Y11143D01*
X19528Y11150D01*
X19527Y11157D01*
X19525Y11162D01*
Y11162D01*
X19524Y11164D01*
X19523Y11166D01*
X19521Y11169D01*
X19519Y11173D01*
X19516Y11176D01*
X19513Y11179D01*
X19508Y11183D01*
X19508Y11184D01*
X19506Y11184D01*
X19504Y11185D01*
X19499Y11187D01*
X19495Y11189D01*
X19490Y11190D01*
X19485Y11190D01*
X19479Y11191D01*
X19476D01*
X19474Y11190D01*
X19468Y11190D01*
X19461Y11189D01*
X19453Y11186D01*
X19444Y11182D01*
X19436Y11177D01*
X19428Y11170D01*
X19427Y11169D01*
X19425Y11166D01*
X19421Y11162D01*
X19418Y11155D01*
X19414Y11146D01*
X19411Y11135D01*
X19409Y11122D01*
X19408Y11106D01*
Y10939D01*
X19359D01*
Y11126D01*
Y11126D01*
Y11127D01*
Y11128D01*
Y11131D01*
X19358Y11137D01*
X19357Y11144D01*
X19356Y11152D01*
X19354Y11160D01*
X19351Y11167D01*
X19347Y11174D01*
X19346Y11175D01*
X19345Y11177D01*
X19342Y11179D01*
X19338Y11183D01*
X19332Y11186D01*
X19326Y11189D01*
X19318Y11190D01*
X19308Y11191D01*
X19304D01*
X19300Y11190D01*
X19296Y11190D01*
X19290Y11188D01*
X19283Y11186D01*
X19277Y11184D01*
X19270Y11180D01*
X19269Y11179D01*
X19267Y11178D01*
X19264Y11175D01*
X19260Y11172D01*
X19256Y11167D01*
X19252Y11162D01*
X19248Y11155D01*
X19245Y11148D01*
X19244Y11147D01*
X19243Y11144D01*
X19242Y11139D01*
X19241Y11133D01*
X19239Y11124D01*
X19238Y11114D01*
X19237Y11102D01*
X19237Y11088D01*
Y10939D01*
X19188D01*
Y11227D01*
X19231D01*
Y11186D01*
X19232Y11187D01*
X19234Y11189D01*
X19237Y11193D01*
X19241Y11198D01*
X19246Y11204D01*
X19253Y11209D01*
X19260Y11215D01*
X19268Y11220D01*
X19269Y11221D01*
X19272Y11223D01*
X19276Y11224D01*
X19283Y11227D01*
X19290Y11229D01*
X19299Y11231D01*
X19308Y11233D01*
X19319Y11233D01*
X19324D01*
X19330Y11233D01*
X19337Y11232D01*
X19346Y11230D01*
X19354Y11228D01*
X19363Y11224D01*
X19371Y11220D01*
X19372Y11219D01*
X19374Y11217D01*
X19378Y11214D01*
X19382Y11210D01*
X19387Y11205D01*
X19392Y11198D01*
X19397Y11191D01*
X19400Y11182D01*
X19401Y11183D01*
X19402Y11185D01*
X19404Y11187D01*
X19406Y11190D01*
X19410Y11194D01*
X19414Y11198D01*
X19419Y11203D01*
X19424Y11208D01*
X19431Y11213D01*
X19437Y11217D01*
X19444Y11221D01*
X19452Y11225D01*
X19461Y11229D01*
X19470Y11231D01*
X19479Y11233D01*
X19490Y11233D01*
X19494D01*
X19497Y11233D01*
D02*
G37*
G36*
X19110Y11285D02*
X18951D01*
X18930Y11177D01*
X18931Y11178D01*
X18932Y11178D01*
X18934Y11179D01*
X18936Y11181D01*
X18940Y11183D01*
X18944Y11185D01*
X18953Y11190D01*
X18965Y11194D01*
X18977Y11198D01*
X18991Y11201D01*
X18998Y11202D01*
X19010D01*
X19014Y11202D01*
X19018Y11201D01*
X19024Y11201D01*
X19029Y11200D01*
X19036Y11198D01*
X19049Y11194D01*
X19057Y11191D01*
X19064Y11187D01*
X19072Y11183D01*
X19079Y11178D01*
X19086Y11173D01*
X19093Y11166D01*
X19094Y11166D01*
X19095Y11165D01*
X19097Y11163D01*
X19099Y11160D01*
X19102Y11156D01*
X19105Y11152D01*
X19108Y11147D01*
X19111Y11141D01*
X19114Y11135D01*
X19118Y11128D01*
X19121Y11120D01*
X19124Y11112D01*
X19126Y11103D01*
X19128Y11093D01*
X19129Y11084D01*
X19129Y11073D01*
Y11073D01*
Y11071D01*
Y11068D01*
X19129Y11064D01*
X19128Y11060D01*
X19128Y11054D01*
X19126Y11048D01*
X19125Y11042D01*
X19122Y11027D01*
X19116Y11011D01*
X19113Y11003D01*
X19108Y10996D01*
X19103Y10988D01*
X19098Y10980D01*
X19097Y10980D01*
X19096Y10978D01*
X19094Y10976D01*
X19091Y10973D01*
X19087Y10969D01*
X19082Y10965D01*
X19076Y10961D01*
X19070Y10956D01*
X19063Y10952D01*
X19055Y10948D01*
X19047Y10944D01*
X19037Y10940D01*
X19028Y10937D01*
X19017Y10934D01*
X19005Y10933D01*
X18993Y10932D01*
X18988D01*
X18984Y10933D01*
X18979Y10933D01*
X18974Y10934D01*
X18968Y10934D01*
X18962Y10936D01*
X18947Y10940D01*
X18933Y10945D01*
X18925Y10948D01*
X18918Y10952D01*
X18911Y10957D01*
X18904Y10962D01*
X18904Y10963D01*
X18903Y10963D01*
X18901Y10965D01*
X18899Y10968D01*
X18896Y10971D01*
X18893Y10974D01*
X18890Y10979D01*
X18887Y10984D01*
X18884Y10989D01*
X18880Y10995D01*
X18874Y11009D01*
X18869Y11025D01*
X18867Y11034D01*
X18866Y11043D01*
X18917Y11047D01*
Y11046D01*
Y11045D01*
X18917Y11043D01*
X18918Y11041D01*
X18920Y11034D01*
X18922Y11026D01*
X18925Y11017D01*
X18930Y11007D01*
X18936Y10999D01*
X18943Y10991D01*
X18944Y10990D01*
X18946Y10988D01*
X18951Y10985D01*
X18957Y10981D01*
X18964Y10978D01*
X18973Y10975D01*
X18982Y10973D01*
X18993Y10972D01*
X18997D01*
X18999Y10973D01*
X19006Y10973D01*
X19014Y10976D01*
X19024Y10979D01*
X19033Y10983D01*
X19044Y10990D01*
X19048Y10994D01*
X19053Y10999D01*
X19053Y10999D01*
X19054Y11000D01*
X19055Y11002D01*
X19057Y11003D01*
X19061Y11010D01*
X19066Y11018D01*
X19070Y11027D01*
X19074Y11039D01*
X19076Y11054D01*
X19078Y11061D01*
Y11069D01*
Y11070D01*
Y11071D01*
Y11073D01*
X19077Y11076D01*
Y11080D01*
X19076Y11084D01*
X19075Y11093D01*
X19072Y11104D01*
X19068Y11115D01*
X19062Y11125D01*
X19054Y11135D01*
Y11135D01*
X19053Y11136D01*
X19050Y11139D01*
X19045Y11143D01*
X19038Y11147D01*
X19029Y11151D01*
X19018Y11155D01*
X19006Y11158D01*
X19000Y11159D01*
X18989D01*
X18984Y11159D01*
X18978Y11158D01*
X18971Y11157D01*
X18965Y11155D01*
X18957Y11152D01*
X18950Y11148D01*
X18949Y11148D01*
X18947Y11147D01*
X18943Y11144D01*
X18939Y11141D01*
X18934Y11137D01*
X18930Y11132D01*
X18924Y11127D01*
X18920Y11120D01*
X18874Y11127D01*
X18913Y11331D01*
X19110D01*
Y11285D01*
D02*
G37*
G36*
X14197Y10939D02*
Y10938D01*
Y10938D01*
Y10936D01*
Y10934D01*
X14196Y10929D01*
X14196Y10921D01*
X14194Y10914D01*
X14192Y10905D01*
X14190Y10897D01*
X14186Y10890D01*
X14186Y10889D01*
X14184Y10887D01*
X14182Y10883D01*
X14178Y10879D01*
X14173Y10874D01*
X14167Y10870D01*
X14160Y10864D01*
X14152Y10860D01*
X14138Y10881D01*
X14138Y10882D01*
X14140Y10882D01*
X14143Y10884D01*
X14146Y10886D01*
X14150Y10889D01*
X14154Y10892D01*
X14157Y10897D01*
X14160Y10901D01*
X14161Y10902D01*
X14161Y10903D01*
X14163Y10907D01*
X14164Y10911D01*
X14165Y10916D01*
X14167Y10923D01*
X14168Y10930D01*
X14169Y10939D01*
X14141D01*
Y10995D01*
X14197D01*
Y10939D01*
D02*
G37*
G36*
X19959Y11233D02*
X19963D01*
X19967Y11232D01*
X19977Y11231D01*
X19987Y11228D01*
X19998Y11223D01*
X20009Y11217D01*
X20018Y11209D01*
X20020Y11208D01*
X20022Y11205D01*
X20026Y11200D01*
X20028Y11196D01*
X20030Y11192D01*
X20032Y11186D01*
X20034Y11181D01*
X20036Y11175D01*
X20038Y11169D01*
X20039Y11162D01*
X20040Y11154D01*
X20041Y11146D01*
Y11136D01*
Y10939D01*
X19993D01*
Y11120D01*
Y11120D01*
Y11121D01*
Y11124D01*
Y11130D01*
X19992Y11136D01*
X19991Y11143D01*
X19991Y11150D01*
X19990Y11157D01*
X19988Y11162D01*
Y11162D01*
X19987Y11164D01*
X19986Y11166D01*
X19984Y11169D01*
X19982Y11173D01*
X19979Y11176D01*
X19975Y11179D01*
X19971Y11183D01*
X19970Y11184D01*
X19968Y11184D01*
X19966Y11185D01*
X19962Y11187D01*
X19958Y11189D01*
X19953Y11190D01*
X19948Y11190D01*
X19941Y11191D01*
X19939D01*
X19936Y11190D01*
X19931Y11190D01*
X19924Y11189D01*
X19916Y11186D01*
X19907Y11182D01*
X19898Y11177D01*
X19890Y11170D01*
X19890Y11169D01*
X19888Y11166D01*
X19884Y11162D01*
X19881Y11155D01*
X19877Y11146D01*
X19874Y11135D01*
X19871Y11122D01*
X19870Y11106D01*
Y10939D01*
X19821D01*
Y11126D01*
Y11126D01*
Y11127D01*
Y11128D01*
Y11131D01*
X19821Y11137D01*
X19820Y11144D01*
X19819Y11152D01*
X19816Y11160D01*
X19813Y11167D01*
X19809Y11174D01*
X19809Y11175D01*
X19807Y11177D01*
X19804Y11179D01*
X19800Y11183D01*
X19795Y11186D01*
X19788Y11189D01*
X19780Y11190D01*
X19770Y11191D01*
X19767D01*
X19763Y11190D01*
X19758Y11190D01*
X19753Y11188D01*
X19746Y11186D01*
X19739Y11184D01*
X19733Y11180D01*
X19732Y11179D01*
X19730Y11178D01*
X19727Y11175D01*
X19723Y11172D01*
X19719Y11167D01*
X19715Y11162D01*
X19711Y11155D01*
X19707Y11148D01*
X19707Y11147D01*
X19706Y11144D01*
X19705Y11139D01*
X19703Y11133D01*
X19702Y11124D01*
X19700Y11114D01*
X19700Y11102D01*
X19699Y11088D01*
Y10939D01*
X19650D01*
Y11227D01*
X19694D01*
Y11186D01*
X19695Y11187D01*
X19696Y11189D01*
X19700Y11193D01*
X19704Y11198D01*
X19709Y11204D01*
X19715Y11209D01*
X19722Y11215D01*
X19730Y11220D01*
X19731Y11221D01*
X19734Y11223D01*
X19739Y11224D01*
X19745Y11227D01*
X19753Y11229D01*
X19761Y11231D01*
X19771Y11233D01*
X19781Y11233D01*
X19786D01*
X19793Y11233D01*
X19800Y11232D01*
X19808Y11230D01*
X19817Y11228D01*
X19826Y11224D01*
X19834Y11220D01*
X19835Y11219D01*
X19837Y11217D01*
X19840Y11214D01*
X19845Y11210D01*
X19850Y11205D01*
X19855Y11198D01*
X19859Y11191D01*
X19863Y11182D01*
X19863Y11183D01*
X19865Y11185D01*
X19866Y11187D01*
X19869Y11190D01*
X19873Y11194D01*
X19877Y11198D01*
X19881Y11203D01*
X19887Y11208D01*
X19893Y11213D01*
X19900Y11217D01*
X19907Y11221D01*
X19915Y11225D01*
X19924Y11229D01*
X19933Y11231D01*
X19942Y11233D01*
X19952Y11233D01*
X19956D01*
X19959Y11233D01*
D02*
G37*
G36*
X3929Y2149D02*
X3929D01*
X3926Y2148D01*
X3922Y2147D01*
X3919Y2146D01*
X3909Y2142D01*
X3904Y2139D01*
X3900Y2136D01*
X3900Y2136D01*
X3898Y2134D01*
X3895Y2131D01*
X3892Y2126D01*
X3888Y2121D01*
X3884Y2114D01*
X3880Y2106D01*
X3876Y2096D01*
X3751Y1792D01*
X3741D01*
X3607Y2100D01*
Y2101D01*
X3606Y2101D01*
X3605Y2104D01*
X3603Y2108D01*
X3601Y2113D01*
X3598Y2118D01*
X3596Y2123D01*
X3594Y2127D01*
X3592Y2130D01*
X3592Y2130D01*
X3591Y2131D01*
X3588Y2134D01*
X3582Y2138D01*
X3576Y2142D01*
X3575D01*
X3574Y2142D01*
X3572Y2144D01*
X3569Y2145D01*
X3565Y2146D01*
X3561Y2147D01*
X3556Y2148D01*
X3549Y2149D01*
Y2159D01*
X3697D01*
Y2149D01*
X3695D01*
X3693Y2148D01*
X3688Y2147D01*
X3683Y2146D01*
X3678Y2145D01*
X3673Y2144D01*
X3668Y2142D01*
X3664Y2140D01*
X3664D01*
X3663Y2139D01*
X3661Y2135D01*
X3658Y2131D01*
X3658Y2127D01*
X3657Y2124D01*
Y2124D01*
Y2122D01*
X3658Y2119D01*
X3659Y2114D01*
X3660Y2108D01*
X3662Y2101D01*
X3665Y2093D01*
X3669Y2083D01*
X3760Y1873D01*
X3845Y2080D01*
Y2081D01*
X3846Y2081D01*
X3846Y2083D01*
X3847Y2085D01*
X3849Y2091D01*
X3851Y2097D01*
X3854Y2104D01*
X3856Y2111D01*
X3857Y2117D01*
X3857Y2123D01*
Y2124D01*
Y2124D01*
X3856Y2128D01*
X3854Y2132D01*
X3852Y2135D01*
X3850Y2137D01*
X3849Y2138D01*
X3848Y2139D01*
X3846Y2140D01*
X3844Y2141D01*
X3840Y2143D01*
X3835Y2145D01*
X3830Y2146D01*
X3824Y2147D01*
X3823Y2148D01*
X3821D01*
X3819Y2149D01*
Y2159D01*
X3929D01*
Y2149D01*
D02*
G37*
G36*
X5252Y2733D02*
X5250D01*
X5247Y2732D01*
X5244Y2731D01*
X5238Y2730D01*
X5235Y2728D01*
X5233Y2726D01*
X5232Y2726D01*
X5231Y2725D01*
X5230Y2723D01*
X5227Y2720D01*
X5225Y2716D01*
X5222Y2712D01*
X5219Y2707D01*
X5216Y2700D01*
X5131Y2493D01*
X5120D01*
X5034Y2697D01*
Y2698D01*
X5033Y2699D01*
X5032Y2702D01*
X5030Y2705D01*
X5027Y2711D01*
X5025Y2714D01*
X5023Y2717D01*
Y2718D01*
X5022Y2718D01*
X5019Y2721D01*
X5015Y2724D01*
X5009Y2728D01*
X5008Y2728D01*
X5007Y2729D01*
X5005Y2729D01*
X5003Y2730D01*
X5000Y2731D01*
X4996Y2731D01*
X4992Y2733D01*
Y2742D01*
X5105D01*
Y2733D01*
X5094D01*
X5092Y2732D01*
X5087Y2730D01*
X5082Y2727D01*
X5081Y2726D01*
X5080Y2724D01*
X5078Y2719D01*
X5077Y2714D01*
Y2713D01*
Y2712D01*
X5078Y2710D01*
Y2708D01*
X5078Y2704D01*
X5079Y2701D01*
X5083Y2692D01*
X5139Y2558D01*
X5195Y2697D01*
Y2698D01*
X5196Y2699D01*
X5197Y2702D01*
X5198Y2705D01*
X5200Y2713D01*
X5201Y2716D01*
Y2719D01*
Y2720D01*
Y2721D01*
X5200Y2724D01*
X5199Y2725D01*
X5199Y2726D01*
X5197Y2728D01*
X5195Y2729D01*
X5191Y2731D01*
X5190Y2731D01*
X5189D01*
X5187Y2732D01*
X5185D01*
X5182Y2733D01*
X5173D01*
Y2742D01*
X5252D01*
Y2733D01*
D02*
G37*
G36*
X3111Y2849D02*
X3095D01*
X3091Y2848D01*
X3086Y2847D01*
X3080Y2845D01*
X3075Y2842D01*
X3070Y2839D01*
X3066Y2835D01*
Y2834D01*
X3065Y2833D01*
X3064Y2830D01*
X3063Y2827D01*
X3062Y2822D01*
X3061Y2815D01*
X3060Y2807D01*
Y2796D01*
Y2562D01*
Y2562D01*
Y2560D01*
Y2559D01*
Y2557D01*
X3061Y2551D01*
X3061Y2544D01*
X3062Y2537D01*
X3063Y2531D01*
X3065Y2525D01*
X3066Y2522D01*
X3067Y2521D01*
X3068Y2520D01*
X3069Y2519D01*
X3072Y2517D01*
X3075Y2516D01*
X3080Y2513D01*
X3085Y2512D01*
X3091Y2511D01*
X3098Y2510D01*
X3111D01*
Y2500D01*
X2959D01*
Y2510D01*
X2975D01*
X2979Y2511D01*
X2984Y2512D01*
X2989Y2513D01*
X2995Y2516D01*
X3000Y2519D01*
X3004Y2523D01*
X3004Y2524D01*
X3005Y2525D01*
X3006Y2528D01*
X3007Y2531D01*
X3008Y2537D01*
X3009Y2543D01*
X3010Y2552D01*
Y2562D01*
Y2801D01*
X2871Y2500D01*
X2863D01*
X2724Y2801D01*
Y2562D01*
Y2562D01*
Y2560D01*
Y2559D01*
Y2557D01*
X2725Y2551D01*
X2725Y2544D01*
X2726Y2537D01*
X2727Y2531D01*
X2729Y2525D01*
X2730Y2522D01*
X2731Y2521D01*
X2732Y2520D01*
X2733Y2519D01*
X2735Y2517D01*
X2739Y2516D01*
X2743Y2513D01*
X2749Y2512D01*
X2755Y2511D01*
X2763Y2510D01*
X2775D01*
Y2500D01*
X2650D01*
Y2510D01*
X2667D01*
X2671Y2511D01*
X2676Y2512D01*
X2681Y2513D01*
X2686Y2516D01*
X2691Y2519D01*
X2695Y2523D01*
X2696Y2524D01*
X2696Y2525D01*
X2697Y2528D01*
X2698Y2531D01*
X2699Y2537D01*
X2700Y2543D01*
X2701Y2552D01*
Y2562D01*
Y2796D01*
Y2797D01*
Y2800D01*
Y2804D01*
X2700Y2809D01*
X2699Y2820D01*
X2697Y2826D01*
X2696Y2830D01*
Y2831D01*
X2695Y2831D01*
X2692Y2835D01*
X2688Y2839D01*
X2685Y2841D01*
X2682Y2843D01*
X2681D01*
X2680Y2844D01*
X2677Y2845D01*
X2674Y2846D01*
X2669Y2847D01*
X2664Y2847D01*
X2658Y2849D01*
X2650D01*
Y2859D01*
X2753D01*
X2881Y2578D01*
X3010Y2859D01*
X3111D01*
Y2849D01*
D02*
G37*
G36*
X4441Y2858D02*
X4449Y2857D01*
X4457Y2857D01*
X4466Y2856D01*
X4486Y2854D01*
X4506Y2851D01*
X4525Y2846D01*
X4534Y2844D01*
X4543Y2840D01*
X4543D01*
X4544Y2839D01*
X4546Y2838D01*
X4550Y2837D01*
X4553Y2835D01*
X4558Y2832D01*
X4567Y2826D01*
X4578Y2817D01*
X4589Y2807D01*
X4600Y2794D01*
X4605Y2787D01*
X4610Y2779D01*
X4611Y2779D01*
X4611Y2777D01*
X4612Y2775D01*
X4614Y2771D01*
X4616Y2768D01*
X4619Y2763D01*
X4621Y2757D01*
X4623Y2751D01*
X4625Y2744D01*
X4627Y2736D01*
X4630Y2728D01*
X4632Y2720D01*
X4635Y2701D01*
X4636Y2691D01*
Y2681D01*
Y2680D01*
Y2678D01*
X4635Y2674D01*
Y2669D01*
X4635Y2662D01*
X4634Y2655D01*
X4632Y2647D01*
X4630Y2637D01*
X4627Y2628D01*
X4625Y2618D01*
X4621Y2607D01*
X4616Y2597D01*
X4611Y2586D01*
X4605Y2576D01*
X4598Y2565D01*
X4590Y2556D01*
X4590Y2555D01*
X4588Y2554D01*
X4585Y2551D01*
X4581Y2547D01*
X4575Y2543D01*
X4569Y2538D01*
X4561Y2533D01*
X4552Y2528D01*
X4541Y2523D01*
X4530Y2518D01*
X4517Y2513D01*
X4503Y2509D01*
X4488Y2505D01*
X4472Y2502D01*
X4454Y2501D01*
X4435Y2500D01*
X4276D01*
Y2510D01*
X4293D01*
X4297Y2511D01*
X4301Y2512D01*
X4307Y2513D01*
X4312Y2516D01*
X4317Y2519D01*
X4321Y2524D01*
X4321Y2525D01*
X4322Y2526D01*
X4323Y2529D01*
X4324Y2532D01*
X4325Y2538D01*
X4326Y2544D01*
X4327Y2553D01*
Y2563D01*
Y2795D01*
Y2796D01*
Y2797D01*
Y2799D01*
Y2801D01*
X4326Y2806D01*
X4326Y2813D01*
X4325Y2820D01*
X4323Y2827D01*
X4322Y2833D01*
X4320Y2835D01*
X4319Y2837D01*
X4318Y2837D01*
X4317Y2839D01*
X4314Y2841D01*
X4312Y2843D01*
X4307Y2845D01*
X4302Y2847D01*
X4296Y2848D01*
X4289Y2849D01*
X4276D01*
Y2859D01*
X4434D01*
X4441Y2858D01*
D02*
G37*
G36*
X4937Y2555D02*
Y2554D01*
Y2551D01*
Y2547D01*
X4938Y2542D01*
X4938Y2532D01*
X4939Y2527D01*
X4940Y2524D01*
Y2523D01*
X4940Y2523D01*
X4943Y2520D01*
X4945Y2516D01*
X4950Y2513D01*
X4950D01*
X4951Y2512D01*
X4953Y2512D01*
X4955Y2511D01*
X4959Y2511D01*
X4963Y2510D01*
X4968Y2509D01*
X4974D01*
Y2500D01*
X4856D01*
Y2509D01*
X4862D01*
X4866Y2510D01*
X4874Y2511D01*
X4877Y2512D01*
X4880Y2513D01*
X4881D01*
X4881Y2513D01*
X4883Y2516D01*
X4887Y2519D01*
X4889Y2524D01*
Y2524D01*
X4890Y2526D01*
X4891Y2528D01*
X4892Y2531D01*
X4892Y2535D01*
X4893Y2541D01*
X4893Y2547D01*
Y2555D01*
Y2648D01*
Y2649D01*
Y2650D01*
Y2652D01*
Y2654D01*
Y2662D01*
X4893Y2669D01*
Y2678D01*
X4892Y2686D01*
X4892Y2693D01*
X4891Y2696D01*
X4891Y2699D01*
Y2699D01*
X4890Y2700D01*
X4889Y2704D01*
X4888Y2708D01*
X4885Y2711D01*
X4884Y2711D01*
X4882Y2713D01*
X4879Y2714D01*
X4874Y2714D01*
X4871D01*
X4869Y2714D01*
X4863Y2713D01*
X4856Y2710D01*
X4853Y2720D01*
X4925Y2749D01*
X4937D01*
Y2555D01*
D02*
G37*
G36*
X8350Y2250D02*
X8250D01*
Y2350D01*
X8350D01*
Y2250D01*
D02*
G37*
G36*
X4096Y1863D02*
Y1863D01*
Y1862D01*
Y1860D01*
Y1858D01*
Y1853D01*
X4097Y1847D01*
Y1841D01*
X4097Y1834D01*
X4098Y1829D01*
X4098Y1826D01*
Y1825D01*
X4099Y1824D01*
X4101Y1822D01*
X4104Y1818D01*
X4109Y1814D01*
X4109D01*
X4111Y1813D01*
X4113Y1813D01*
X4116Y1812D01*
X4120Y1811D01*
X4126Y1811D01*
X4133Y1810D01*
X4141D01*
Y1800D01*
X4006D01*
Y1810D01*
X4015D01*
X4020Y1811D01*
X4025Y1811D01*
X4030Y1812D01*
X4035Y1813D01*
X4038Y1814D01*
X4039D01*
X4040Y1814D01*
X4043Y1817D01*
X4046Y1820D01*
X4049Y1824D01*
Y1825D01*
X4049Y1826D01*
X4050Y1828D01*
X4051Y1832D01*
X4051Y1837D01*
X4052Y1844D01*
X4052Y1852D01*
Y1858D01*
Y1863D01*
Y2056D01*
Y2057D01*
Y2058D01*
Y2060D01*
Y2063D01*
Y2069D01*
X4052Y2077D01*
Y2086D01*
X4051Y2094D01*
X4051Y2101D01*
X4050Y2104D01*
X4049Y2106D01*
Y2107D01*
X4049Y2107D01*
X4048Y2111D01*
X4046Y2115D01*
X4042Y2119D01*
X4042Y2119D01*
X4040Y2121D01*
X4036Y2122D01*
X4031Y2122D01*
X4030D01*
X4027Y2122D01*
X4024Y2121D01*
X4020Y2121D01*
X4016Y2119D01*
X4010Y2117D01*
X4004Y2115D01*
X4000Y2123D01*
X4087Y2166D01*
X4096D01*
Y1863D01*
D02*
G37*
G36*
X4919Y2875D02*
X4922Y2875D01*
X4924Y2874D01*
X4928Y2872D01*
X4931Y2870D01*
X4934Y2867D01*
X4934Y2867D01*
X4935Y2866D01*
X4937Y2865D01*
X4938Y2862D01*
X4941Y2856D01*
X4942Y2852D01*
X4942Y2849D01*
Y2848D01*
Y2847D01*
X4942Y2845D01*
X4941Y2842D01*
X4940Y2839D01*
X4939Y2836D01*
X4937Y2833D01*
X4934Y2830D01*
X4933Y2829D01*
X4933Y2829D01*
X4931Y2827D01*
X4929Y2826D01*
X4923Y2823D01*
X4919Y2822D01*
X4915Y2822D01*
X4913D01*
X4911Y2822D01*
X4908Y2823D01*
X4902Y2825D01*
X4899Y2827D01*
X4896Y2830D01*
X4896Y2830D01*
X4895Y2831D01*
X4894Y2833D01*
X4892Y2835D01*
X4889Y2841D01*
X4889Y2845D01*
X4888Y2849D01*
Y2849D01*
Y2850D01*
X4889Y2852D01*
X4889Y2855D01*
X4892Y2861D01*
X4893Y2865D01*
X4896Y2867D01*
X4897Y2868D01*
X4898Y2869D01*
X4899Y2870D01*
X4902Y2872D01*
X4907Y2875D01*
X4911Y2875D01*
X4915Y2876D01*
X4917D01*
X4919Y2875D01*
D02*
G37*
G36*
X4486Y2165D02*
X4489Y2165D01*
X4493Y2164D01*
X4503Y2161D01*
X4509Y2159D01*
X4515Y2155D01*
X4521Y2152D01*
X4527Y2148D01*
X4534Y2143D01*
X4540Y2137D01*
X4547Y2131D01*
X4553Y2124D01*
X4553Y2123D01*
X4555Y2121D01*
X4557Y2118D01*
X4560Y2114D01*
X4562Y2109D01*
X4566Y2102D01*
X4570Y2095D01*
X4573Y2086D01*
X4577Y2077D01*
X4581Y2066D01*
X4585Y2055D01*
X4587Y2042D01*
X4590Y2029D01*
X4592Y2014D01*
X4593Y1999D01*
X4594Y1983D01*
Y1982D01*
Y1980D01*
Y1976D01*
Y1972D01*
X4593Y1966D01*
X4593Y1960D01*
X4592Y1953D01*
X4592Y1946D01*
X4590Y1929D01*
X4586Y1911D01*
X4582Y1893D01*
X4576Y1876D01*
Y1875D01*
X4575Y1874D01*
X4574Y1872D01*
X4572Y1869D01*
X4571Y1865D01*
X4568Y1862D01*
X4563Y1852D01*
X4557Y1842D01*
X4549Y1831D01*
X4540Y1822D01*
X4535Y1817D01*
X4530Y1813D01*
X4529D01*
X4528Y1813D01*
X4527Y1812D01*
X4525Y1811D01*
X4520Y1807D01*
X4512Y1804D01*
X4504Y1800D01*
X4495Y1797D01*
X4486Y1795D01*
X4476Y1794D01*
X4474D01*
X4471Y1794D01*
X4467Y1795D01*
X4463Y1796D01*
X4458Y1797D01*
X4452Y1799D01*
X4446Y1802D01*
X4439Y1804D01*
X4432Y1808D01*
X4425Y1813D01*
X4418Y1819D01*
X4411Y1826D01*
X4404Y1834D01*
X4397Y1843D01*
X4390Y1854D01*
X4390Y1854D01*
X4389Y1856D01*
X4387Y1859D01*
X4386Y1863D01*
X4384Y1868D01*
X4381Y1874D01*
X4379Y1880D01*
X4376Y1888D01*
X4374Y1897D01*
X4371Y1907D01*
X4369Y1917D01*
X4366Y1928D01*
X4365Y1939D01*
X4363Y1951D01*
X4363Y1964D01*
X4362Y1977D01*
Y1978D01*
Y1980D01*
Y1983D01*
X4363Y1987D01*
Y1993D01*
X4363Y1999D01*
X4364Y2005D01*
X4364Y2013D01*
X4366Y2030D01*
X4370Y2048D01*
X4374Y2065D01*
X4380Y2083D01*
Y2083D01*
X4381Y2085D01*
X4382Y2087D01*
X4384Y2090D01*
X4385Y2094D01*
X4387Y2097D01*
X4394Y2107D01*
X4400Y2118D01*
X4409Y2129D01*
X4419Y2140D01*
X4430Y2149D01*
X4431Y2149D01*
X4434Y2151D01*
X4439Y2154D01*
X4445Y2157D01*
X4452Y2160D01*
X4460Y2163D01*
X4469Y2165D01*
X4479Y2166D01*
X4482D01*
X4486Y2165D01*
D02*
G37*
G36*
X4279Y1851D02*
X4282Y1850D01*
X4285Y1849D01*
X4289Y1848D01*
X4292Y1846D01*
X4295Y1843D01*
X4296Y1842D01*
X4297Y1841D01*
X4298Y1839D01*
X4300Y1837D01*
X4303Y1831D01*
X4304Y1827D01*
X4304Y1822D01*
Y1822D01*
Y1820D01*
X4304Y1818D01*
X4303Y1815D01*
X4302Y1812D01*
X4300Y1808D01*
X4298Y1804D01*
X4295Y1801D01*
X4295Y1801D01*
X4294Y1800D01*
X4292Y1798D01*
X4289Y1797D01*
X4283Y1794D01*
X4279Y1793D01*
X4275Y1793D01*
X4273D01*
X4270Y1793D01*
X4268Y1794D01*
X4264Y1795D01*
X4261Y1796D01*
X4257Y1798D01*
X4254Y1801D01*
X4253Y1802D01*
X4253Y1803D01*
X4251Y1804D01*
X4250Y1807D01*
X4248Y1810D01*
X4247Y1814D01*
X4246Y1818D01*
X4245Y1822D01*
Y1823D01*
Y1824D01*
X4246Y1827D01*
X4247Y1829D01*
X4248Y1833D01*
X4249Y1836D01*
X4251Y1839D01*
X4254Y1843D01*
X4254Y1843D01*
X4255Y1844D01*
X4257Y1846D01*
X4260Y1847D01*
X4263Y1849D01*
X4267Y1850D01*
X4270Y1851D01*
X4275Y1852D01*
X4277D01*
X4279Y1851D01*
D02*
G37*
G36*
X3969Y2749D02*
X3973Y2748D01*
X3976Y2747D01*
X3980Y2745D01*
X3984Y2743D01*
X3988Y2740D01*
X3989Y2740D01*
X3990Y2739D01*
X3991Y2737D01*
X3993Y2734D01*
X3996Y2728D01*
X3998Y2724D01*
X3998Y2720D01*
Y2719D01*
Y2718D01*
X3998Y2716D01*
X3997Y2714D01*
X3995Y2708D01*
X3993Y2705D01*
X3991Y2702D01*
X3990D01*
X3990Y2701D01*
X3986Y2699D01*
X3981Y2696D01*
X3978Y2696D01*
X3975Y2695D01*
X3973D01*
X3971Y2696D01*
X3969Y2696D01*
X3965Y2698D01*
X3962Y2699D01*
X3958Y2701D01*
X3954Y2704D01*
X3953Y2705D01*
X3952Y2706D01*
X3950Y2707D01*
X3948Y2709D01*
X3942Y2712D01*
X3939Y2713D01*
X3937Y2714D01*
X3936D01*
X3934Y2713D01*
X3931Y2711D01*
X3927Y2708D01*
X3927Y2708D01*
X3925Y2706D01*
X3923Y2703D01*
X3919Y2700D01*
X3916Y2695D01*
X3912Y2689D01*
X3907Y2681D01*
X3903Y2673D01*
Y2557D01*
Y2555D01*
Y2553D01*
X3903Y2549D01*
Y2545D01*
X3905Y2535D01*
X3906Y2531D01*
X3908Y2526D01*
Y2526D01*
X3908Y2525D01*
X3910Y2522D01*
X3914Y2518D01*
X3919Y2514D01*
X3920D01*
X3921Y2513D01*
X3923Y2513D01*
X3926Y2512D01*
X3929Y2511D01*
X3934Y2510D01*
X3939Y2509D01*
X3945D01*
Y2500D01*
X3821D01*
Y2509D01*
X3823D01*
X3827Y2510D01*
X3831D01*
X3840Y2512D01*
X3844Y2513D01*
X3848Y2515D01*
X3848D01*
X3849Y2516D01*
X3852Y2518D01*
X3854Y2523D01*
X3857Y2529D01*
X3858Y2530D01*
Y2532D01*
X3858Y2534D01*
Y2537D01*
X3859Y2542D01*
Y2548D01*
Y2555D01*
Y2648D01*
Y2649D01*
Y2650D01*
Y2652D01*
Y2655D01*
Y2662D01*
Y2670D01*
X3858Y2679D01*
X3858Y2687D01*
Y2691D01*
X3857Y2694D01*
Y2696D01*
X3857Y2698D01*
Y2699D01*
X3856Y2699D01*
X3855Y2703D01*
X3853Y2707D01*
X3850Y2710D01*
X3850Y2711D01*
X3847Y2713D01*
X3844Y2714D01*
X3839Y2714D01*
X3836D01*
X3834Y2714D01*
X3828Y2713D01*
X3821Y2710D01*
X3818Y2720D01*
X3891Y2749D01*
X3903D01*
Y2695D01*
X3903Y2695D01*
X3904Y2697D01*
X3905Y2700D01*
X3908Y2703D01*
X3910Y2708D01*
X3914Y2712D01*
X3922Y2722D01*
X3931Y2732D01*
X3936Y2736D01*
X3941Y2741D01*
X3947Y2744D01*
X3953Y2747D01*
X3958Y2749D01*
X3964Y2749D01*
X3966D01*
X3969Y2749D01*
D02*
G37*
G36*
X4811D02*
X4814Y2748D01*
X4818Y2747D01*
X4822Y2745D01*
X4826Y2743D01*
X4830Y2740D01*
X4831Y2740D01*
X4832Y2739D01*
X4833Y2737D01*
X4835Y2734D01*
X4838Y2728D01*
X4839Y2724D01*
X4840Y2720D01*
Y2719D01*
Y2718D01*
X4839Y2716D01*
X4839Y2714D01*
X4837Y2708D01*
X4835Y2705D01*
X4833Y2702D01*
X4832D01*
X4832Y2701D01*
X4828Y2699D01*
X4823Y2696D01*
X4820Y2696D01*
X4817Y2695D01*
X4815D01*
X4813Y2696D01*
X4811Y2696D01*
X4807Y2698D01*
X4804Y2699D01*
X4800Y2701D01*
X4796Y2704D01*
X4795Y2705D01*
X4794Y2706D01*
X4792Y2707D01*
X4790Y2709D01*
X4784Y2712D01*
X4781Y2713D01*
X4779Y2714D01*
X4778D01*
X4776Y2713D01*
X4773Y2711D01*
X4769Y2708D01*
X4768Y2708D01*
X4767Y2706D01*
X4765Y2703D01*
X4761Y2700D01*
X4758Y2695D01*
X4753Y2689D01*
X4749Y2681D01*
X4745Y2673D01*
Y2557D01*
Y2555D01*
Y2553D01*
X4745Y2549D01*
Y2545D01*
X4747Y2535D01*
X4748Y2531D01*
X4750Y2526D01*
Y2526D01*
X4750Y2525D01*
X4752Y2522D01*
X4756Y2518D01*
X4761Y2514D01*
X4762D01*
X4763Y2513D01*
X4765Y2513D01*
X4768Y2512D01*
X4771Y2511D01*
X4776Y2510D01*
X4781Y2509D01*
X4787D01*
Y2500D01*
X4662D01*
Y2509D01*
X4665D01*
X4669Y2510D01*
X4673D01*
X4682Y2512D01*
X4686Y2513D01*
X4690Y2515D01*
X4690D01*
X4691Y2516D01*
X4694Y2518D01*
X4696Y2523D01*
X4699Y2529D01*
X4700Y2530D01*
Y2532D01*
X4700Y2534D01*
Y2537D01*
X4701Y2542D01*
Y2548D01*
Y2555D01*
Y2648D01*
Y2649D01*
Y2650D01*
Y2652D01*
Y2655D01*
Y2662D01*
Y2670D01*
X4700Y2679D01*
X4700Y2687D01*
Y2691D01*
X4699Y2694D01*
Y2696D01*
X4699Y2698D01*
Y2699D01*
X4698Y2699D01*
X4697Y2703D01*
X4695Y2707D01*
X4692Y2710D01*
X4692Y2711D01*
X4689Y2713D01*
X4686Y2714D01*
X4681Y2714D01*
X4678D01*
X4676Y2714D01*
X4670Y2713D01*
X4662Y2710D01*
X4660Y2720D01*
X4733Y2749D01*
X4745D01*
Y2695D01*
X4745Y2695D01*
X4746Y2697D01*
X4747Y2700D01*
X4750Y2703D01*
X4752Y2708D01*
X4756Y2712D01*
X4763Y2722D01*
X4773Y2732D01*
X4778Y2736D01*
X4783Y2741D01*
X4789Y2744D01*
X4795Y2747D01*
X4800Y2749D01*
X4806Y2749D01*
X4808D01*
X4811Y2749D01*
D02*
G37*
G36*
X5653D02*
X5656Y2748D01*
X5660Y2747D01*
X5664Y2745D01*
X5668Y2743D01*
X5672Y2740D01*
X5673Y2740D01*
X5674Y2739D01*
X5675Y2737D01*
X5677Y2734D01*
X5680Y2728D01*
X5681Y2724D01*
X5682Y2720D01*
Y2719D01*
Y2718D01*
X5681Y2716D01*
X5681Y2714D01*
X5679Y2708D01*
X5677Y2705D01*
X5675Y2702D01*
X5674D01*
X5674Y2701D01*
X5670Y2699D01*
X5665Y2696D01*
X5662Y2696D01*
X5659Y2695D01*
X5657D01*
X5655Y2696D01*
X5653Y2696D01*
X5649Y2698D01*
X5646Y2699D01*
X5642Y2701D01*
X5638Y2704D01*
X5637Y2705D01*
X5636Y2706D01*
X5634Y2707D01*
X5631Y2709D01*
X5626Y2712D01*
X5623Y2713D01*
X5621Y2714D01*
X5620D01*
X5618Y2713D01*
X5615Y2711D01*
X5611Y2708D01*
X5610Y2708D01*
X5609Y2706D01*
X5606Y2703D01*
X5603Y2700D01*
X5600Y2695D01*
X5595Y2689D01*
X5591Y2681D01*
X5587Y2673D01*
Y2557D01*
Y2555D01*
Y2553D01*
X5587Y2549D01*
Y2545D01*
X5589Y2535D01*
X5590Y2531D01*
X5591Y2526D01*
Y2526D01*
X5592Y2525D01*
X5594Y2522D01*
X5598Y2518D01*
X5603Y2514D01*
X5604D01*
X5605Y2513D01*
X5607Y2513D01*
X5610Y2512D01*
X5613Y2511D01*
X5618Y2510D01*
X5623Y2509D01*
X5629D01*
Y2500D01*
X5504D01*
Y2509D01*
X5507D01*
X5510Y2510D01*
X5515D01*
X5524Y2512D01*
X5528Y2513D01*
X5532Y2515D01*
X5532D01*
X5533Y2516D01*
X5535Y2518D01*
X5538Y2523D01*
X5541Y2529D01*
X5542Y2530D01*
Y2532D01*
X5542Y2534D01*
Y2537D01*
X5543Y2542D01*
Y2548D01*
Y2555D01*
Y2648D01*
Y2649D01*
Y2650D01*
Y2652D01*
Y2655D01*
Y2662D01*
Y2670D01*
X5542Y2679D01*
X5542Y2687D01*
Y2691D01*
X5541Y2694D01*
Y2696D01*
X5540Y2698D01*
Y2699D01*
X5540Y2699D01*
X5539Y2703D01*
X5537Y2707D01*
X5534Y2710D01*
X5534Y2711D01*
X5531Y2713D01*
X5528Y2714D01*
X5523Y2714D01*
X5520D01*
X5518Y2714D01*
X5512Y2713D01*
X5504Y2710D01*
X5502Y2720D01*
X5575Y2749D01*
X5587D01*
Y2695D01*
X5587Y2695D01*
X5588Y2697D01*
X5589Y2700D01*
X5591Y2703D01*
X5594Y2708D01*
X5598Y2712D01*
X5605Y2722D01*
X5615Y2732D01*
X5620Y2736D01*
X5625Y2741D01*
X5631Y2744D01*
X5636Y2747D01*
X5642Y2749D01*
X5648Y2749D01*
X5650D01*
X5653Y2749D01*
D02*
G37*
G36*
X3481Y2742D02*
X3537D01*
Y2724D01*
X3481Y2724D01*
Y2566D01*
Y2565D01*
Y2562D01*
X3481Y2558D01*
X3482Y2553D01*
X3484Y2543D01*
X3485Y2538D01*
X3487Y2534D01*
X3488Y2534D01*
X3489Y2533D01*
X3490Y2532D01*
X3492Y2531D01*
X3497Y2528D01*
X3501Y2527D01*
X3505Y2527D01*
X3506D01*
X3508Y2527D01*
X3510D01*
X3515Y2529D01*
X3521Y2532D01*
X3521Y2532D01*
X3522Y2533D01*
X3526Y2536D01*
X3530Y2541D01*
X3534Y2548D01*
X3545D01*
Y2548D01*
X3544Y2547D01*
X3543Y2544D01*
X3541Y2539D01*
X3538Y2534D01*
X3534Y2527D01*
X3530Y2521D01*
X3524Y2514D01*
X3518Y2509D01*
X3517Y2508D01*
X3515Y2507D01*
X3512Y2505D01*
X3507Y2503D01*
X3502Y2500D01*
X3496Y2498D01*
X3490Y2497D01*
X3483Y2496D01*
X3481D01*
X3479Y2497D01*
X3475Y2497D01*
X3468Y2499D01*
X3464Y2501D01*
X3459Y2503D01*
X3459Y2503D01*
X3458Y2504D01*
X3455Y2506D01*
X3453Y2508D01*
X3450Y2511D01*
X3448Y2513D01*
X3443Y2522D01*
Y2522D01*
X3441Y2524D01*
X3441Y2527D01*
X3440Y2531D01*
X3439Y2537D01*
X3438Y2543D01*
X3437Y2552D01*
Y2560D01*
Y2724D01*
X3399D01*
Y2733D01*
X3399Y2733D01*
X3401Y2734D01*
X3404Y2735D01*
X3408Y2737D01*
X3412Y2740D01*
X3417Y2743D01*
X3423Y2747D01*
X3428Y2751D01*
X3429Y2752D01*
X3431Y2754D01*
X3434Y2757D01*
X3437Y2761D01*
X3441Y2765D01*
X3446Y2771D01*
X3451Y2777D01*
X3455Y2784D01*
X3456Y2785D01*
X3456Y2786D01*
X3458Y2789D01*
X3460Y2793D01*
X3462Y2798D01*
X3465Y2804D01*
X3469Y2812D01*
X3473Y2821D01*
X3481D01*
Y2742D01*
D02*
G37*
G36*
X3741Y3499D02*
X3724D01*
X3720Y3498D01*
X3715Y3497D01*
X3710Y3495D01*
X3704Y3492D01*
X3699Y3489D01*
X3695Y3485D01*
Y3484D01*
X3694Y3483D01*
X3694Y3480D01*
X3692Y3477D01*
X3691Y3472D01*
X3691Y3465D01*
X3690Y3457D01*
Y3446D01*
Y3144D01*
X3680D01*
X3444Y3433D01*
Y3212D01*
Y3212D01*
Y3210D01*
Y3209D01*
Y3207D01*
X3444Y3201D01*
X3445Y3194D01*
X3445Y3187D01*
X3447Y3181D01*
X3448Y3175D01*
X3449Y3172D01*
X3450Y3171D01*
X3451Y3170D01*
X3453Y3169D01*
X3455Y3167D01*
X3458Y3166D01*
X3463Y3163D01*
X3468Y3162D01*
X3475Y3161D01*
X3482Y3160D01*
X3495D01*
Y3150D01*
X3369D01*
Y3160D01*
X3386D01*
X3389Y3161D01*
X3394Y3162D01*
X3400Y3163D01*
X3406Y3166D01*
X3410Y3169D01*
X3414Y3173D01*
X3415Y3174D01*
X3415Y3175D01*
X3417Y3178D01*
X3418Y3181D01*
X3419Y3187D01*
X3419Y3193D01*
X3420Y3202D01*
Y3212D01*
Y3461D01*
X3420Y3462D01*
X3418Y3464D01*
X3415Y3467D01*
X3412Y3471D01*
X3403Y3479D01*
X3399Y3482D01*
X3396Y3485D01*
X3396Y3485D01*
X3394Y3486D01*
X3393Y3487D01*
X3391Y3489D01*
X3387Y3490D01*
X3383Y3492D01*
X3378Y3494D01*
X3373Y3496D01*
X3372D01*
X3371Y3496D01*
X3369Y3497D01*
X3367Y3497D01*
X3364D01*
X3360Y3498D01*
X3356Y3499D01*
X3350D01*
Y3509D01*
X3447D01*
X3666Y3240D01*
Y3446D01*
Y3447D01*
Y3448D01*
Y3450D01*
Y3451D01*
X3666Y3457D01*
X3665Y3464D01*
X3665Y3471D01*
X3663Y3477D01*
X3661Y3484D01*
X3660Y3486D01*
X3659Y3487D01*
X3658Y3488D01*
X3657Y3489D01*
X3654Y3491D01*
X3651Y3493D01*
X3646Y3495D01*
X3641Y3497D01*
X3635Y3498D01*
X3627Y3499D01*
X3615D01*
Y3509D01*
X3741D01*
Y3499D01*
D02*
G37*
G36*
X4895Y3399D02*
X4898Y3398D01*
X4902Y3397D01*
X4906Y3395D01*
X4910Y3393D01*
X4913Y3390D01*
X4914Y3390D01*
X4915Y3389D01*
X4917Y3387D01*
X4918Y3384D01*
X4922Y3378D01*
X4923Y3374D01*
X4923Y3370D01*
Y3369D01*
Y3368D01*
X4923Y3366D01*
X4922Y3364D01*
X4921Y3358D01*
X4918Y3355D01*
X4916Y3352D01*
X4916D01*
X4915Y3351D01*
X4912Y3349D01*
X4907Y3346D01*
X4903Y3346D01*
X4900Y3345D01*
X4898D01*
X4897Y3346D01*
X4894Y3346D01*
X4891Y3348D01*
X4887Y3349D01*
X4883Y3351D01*
X4879Y3354D01*
X4878Y3355D01*
X4877Y3356D01*
X4875Y3357D01*
X4873Y3359D01*
X4867Y3362D01*
X4865Y3363D01*
X4862Y3364D01*
X4862D01*
X4860Y3363D01*
X4856Y3361D01*
X4852Y3358D01*
X4852Y3358D01*
X4850Y3356D01*
X4848Y3353D01*
X4845Y3350D01*
X4841Y3345D01*
X4837Y3339D01*
X4832Y3331D01*
X4828Y3323D01*
Y3207D01*
Y3205D01*
Y3203D01*
X4829Y3199D01*
Y3195D01*
X4830Y3185D01*
X4831Y3181D01*
X4833Y3176D01*
Y3176D01*
X4834Y3175D01*
X4836Y3172D01*
X4839Y3168D01*
X4845Y3164D01*
X4845D01*
X4846Y3163D01*
X4848Y3163D01*
X4851Y3162D01*
X4855Y3161D01*
X4859Y3160D01*
X4864Y3159D01*
X4870D01*
Y3150D01*
X4746D01*
Y3159D01*
X4749D01*
X4752Y3160D01*
X4756D01*
X4765Y3162D01*
X4769Y3163D01*
X4773Y3165D01*
X4774D01*
X4774Y3166D01*
X4777Y3168D01*
X4780Y3173D01*
X4782Y3179D01*
X4783Y3180D01*
Y3182D01*
X4784Y3184D01*
Y3187D01*
X4784Y3192D01*
Y3198D01*
Y3205D01*
Y3298D01*
Y3299D01*
Y3300D01*
Y3302D01*
Y3305D01*
Y3312D01*
Y3320D01*
X4784Y3329D01*
X4783Y3337D01*
Y3341D01*
X4782Y3344D01*
Y3346D01*
X4782Y3348D01*
Y3349D01*
X4781Y3349D01*
X4781Y3353D01*
X4779Y3357D01*
X4776Y3360D01*
X4775Y3361D01*
X4772Y3363D01*
X4769Y3364D01*
X4764Y3364D01*
X4761D01*
X4759Y3364D01*
X4753Y3363D01*
X4746Y3360D01*
X4744Y3370D01*
X4816Y3399D01*
X4828D01*
Y3345D01*
X4829Y3345D01*
X4829Y3347D01*
X4831Y3350D01*
X4833Y3353D01*
X4836Y3358D01*
X4839Y3362D01*
X4847Y3372D01*
X4856Y3382D01*
X4861Y3386D01*
X4867Y3391D01*
X4872Y3394D01*
X4878Y3397D01*
X4883Y3399D01*
X4890Y3399D01*
X4892D01*
X4895Y3399D01*
D02*
G37*
G36*
X4472Y3395D02*
X4464D01*
Y3396D01*
X4463Y3398D01*
X4462Y3400D01*
X4461Y3404D01*
X4459Y3409D01*
X4457Y3414D01*
X4452Y3425D01*
X4445Y3439D01*
X4437Y3451D01*
X4427Y3464D01*
X4422Y3469D01*
X4417Y3474D01*
X4416Y3474D01*
X4416Y3475D01*
X4414Y3476D01*
X4411Y3477D01*
X4408Y3479D01*
X4405Y3481D01*
X4397Y3486D01*
X4386Y3490D01*
X4373Y3494D01*
X4360Y3497D01*
X4352Y3498D01*
X4338D01*
X4336Y3497D01*
X4332Y3497D01*
X4323Y3496D01*
X4313Y3494D01*
X4302Y3490D01*
X4291Y3486D01*
X4280Y3480D01*
X4280D01*
X4279Y3479D01*
X4276Y3476D01*
X4270Y3472D01*
X4264Y3466D01*
X4257Y3457D01*
X4249Y3447D01*
X4242Y3435D01*
X4235Y3421D01*
Y3421D01*
X4235Y3420D01*
X4234Y3418D01*
X4233Y3414D01*
X4231Y3410D01*
X4230Y3406D01*
X4229Y3400D01*
X4227Y3394D01*
X4226Y3388D01*
X4224Y3380D01*
X4223Y3372D01*
X4222Y3363D01*
X4221Y3354D01*
X4220Y3344D01*
X4219Y3323D01*
Y3323D01*
Y3321D01*
Y3318D01*
Y3315D01*
X4220Y3311D01*
Y3306D01*
X4220Y3300D01*
X4221Y3294D01*
X4223Y3281D01*
X4225Y3267D01*
X4229Y3252D01*
X4234Y3238D01*
Y3238D01*
X4235Y3237D01*
X4236Y3235D01*
X4237Y3233D01*
X4241Y3226D01*
X4246Y3218D01*
X4252Y3209D01*
X4260Y3201D01*
X4270Y3192D01*
X4281Y3184D01*
X4281D01*
X4282Y3183D01*
X4284Y3182D01*
X4286Y3181D01*
X4289Y3179D01*
X4293Y3178D01*
X4302Y3174D01*
X4312Y3171D01*
X4325Y3168D01*
X4338Y3166D01*
X4352Y3165D01*
X4358D01*
X4361Y3166D01*
X4365D01*
X4373Y3167D01*
X4383Y3168D01*
X4393Y3171D01*
X4403Y3174D01*
X4413Y3179D01*
X4414D01*
X4414Y3180D01*
X4416Y3181D01*
X4418Y3183D01*
X4423Y3187D01*
X4431Y3193D01*
X4435Y3196D01*
X4439Y3201D01*
X4444Y3205D01*
X4449Y3211D01*
X4455Y3217D01*
X4461Y3224D01*
X4466Y3231D01*
X4472Y3239D01*
X4481Y3234D01*
X4480Y3233D01*
X4479Y3232D01*
X4478Y3229D01*
X4476Y3226D01*
X4473Y3222D01*
X4470Y3217D01*
X4462Y3207D01*
X4453Y3196D01*
X4442Y3184D01*
X4431Y3173D01*
X4424Y3168D01*
X4417Y3163D01*
X4417D01*
X4416Y3162D01*
X4414Y3161D01*
X4411Y3160D01*
X4407Y3158D01*
X4403Y3157D01*
X4399Y3154D01*
X4393Y3153D01*
X4387Y3151D01*
X4381Y3148D01*
X4366Y3145D01*
X4350Y3143D01*
X4332Y3142D01*
X4328D01*
X4324Y3142D01*
X4318Y3143D01*
X4310Y3144D01*
X4302Y3145D01*
X4292Y3147D01*
X4282Y3150D01*
X4271Y3153D01*
X4260Y3158D01*
X4249Y3163D01*
X4237Y3169D01*
X4226Y3177D01*
X4215Y3186D01*
X4204Y3196D01*
X4195Y3208D01*
X4194Y3208D01*
X4193Y3210D01*
X4191Y3213D01*
X4189Y3217D01*
X4186Y3221D01*
X4183Y3227D01*
X4180Y3233D01*
X4177Y3240D01*
X4173Y3249D01*
X4170Y3257D01*
X4167Y3267D01*
X4164Y3277D01*
X4162Y3288D01*
X4160Y3299D01*
X4159Y3311D01*
X4159Y3323D01*
Y3324D01*
Y3325D01*
Y3329D01*
X4159Y3332D01*
Y3337D01*
X4160Y3343D01*
X4161Y3349D01*
X4161Y3356D01*
X4165Y3371D01*
X4169Y3388D01*
X4175Y3405D01*
X4178Y3414D01*
X4182Y3422D01*
X4183Y3422D01*
X4184Y3424D01*
X4185Y3426D01*
X4187Y3429D01*
X4189Y3433D01*
X4192Y3437D01*
X4200Y3447D01*
X4209Y3459D01*
X4220Y3470D01*
X4233Y3482D01*
X4248Y3492D01*
X4249Y3492D01*
X4250Y3493D01*
X4252Y3494D01*
X4255Y3496D01*
X4259Y3497D01*
X4264Y3500D01*
X4269Y3502D01*
X4275Y3505D01*
X4282Y3507D01*
X4289Y3509D01*
X4305Y3513D01*
X4321Y3516D01*
X4331Y3517D01*
X4343D01*
X4346Y3516D01*
X4350D01*
X4354Y3516D01*
X4363Y3515D01*
X4375Y3512D01*
X4388Y3509D01*
X4402Y3504D01*
X4416Y3497D01*
X4416D01*
X4417Y3496D01*
X4419Y3496D01*
X4422Y3495D01*
X4427Y3493D01*
X4429Y3492D01*
X4433D01*
X4436Y3492D01*
X4440Y3494D01*
X4444Y3497D01*
X4444Y3497D01*
X4445Y3498D01*
X4446Y3500D01*
X4448Y3502D01*
X4449Y3505D01*
X4451Y3509D01*
X4453Y3512D01*
X4454Y3517D01*
X4464D01*
X4472Y3395D01*
D02*
G37*
G36*
X1850Y7000D02*
X1750D01*
Y7100D01*
X1850D01*
Y7000D01*
D02*
G37*
G36*
X4627Y3399D02*
X4635Y3398D01*
X4643Y3396D01*
X4652Y3395D01*
X4660Y3392D01*
X4669Y3388D01*
X4669Y3388D01*
X4671Y3386D01*
X4674Y3385D01*
X4678Y3382D01*
X4681Y3378D01*
X4685Y3374D01*
X4689Y3369D01*
X4691Y3363D01*
Y3362D01*
X4692Y3360D01*
X4693Y3357D01*
X4694Y3353D01*
X4695Y3346D01*
X4696Y3338D01*
X4696Y3328D01*
Y3316D01*
Y3234D01*
Y3233D01*
Y3232D01*
Y3230D01*
Y3228D01*
Y3222D01*
Y3215D01*
X4697Y3208D01*
Y3201D01*
Y3195D01*
X4698Y3193D01*
Y3191D01*
Y3191D01*
Y3190D01*
X4699Y3187D01*
X4700Y3183D01*
X4701Y3181D01*
X4702Y3180D01*
X4704Y3179D01*
X4706Y3179D01*
X4709Y3178D01*
X4711D01*
X4714Y3179D01*
X4716Y3180D01*
X4717D01*
X4718Y3181D01*
X4719Y3182D01*
X4721Y3184D01*
X4724Y3186D01*
X4728Y3189D01*
X4733Y3194D01*
X4738Y3199D01*
Y3184D01*
X4737Y3184D01*
X4737Y3183D01*
X4735Y3181D01*
X4733Y3178D01*
X4727Y3172D01*
X4720Y3165D01*
X4711Y3157D01*
X4701Y3151D01*
X4696Y3149D01*
X4691Y3147D01*
X4686Y3146D01*
X4681Y3145D01*
X4679D01*
X4676Y3146D01*
X4674Y3146D01*
X4670Y3147D01*
X4667Y3149D01*
X4664Y3151D01*
X4660Y3154D01*
X4660Y3154D01*
X4659Y3156D01*
X4658Y3158D01*
X4656Y3161D01*
X4655Y3165D01*
X4654Y3171D01*
X4653Y3177D01*
X4653Y3184D01*
X4652Y3184D01*
X4651Y3183D01*
X4649Y3182D01*
X4646Y3180D01*
X4640Y3175D01*
X4633Y3169D01*
X4625Y3164D01*
X4617Y3158D01*
X4611Y3154D01*
X4608Y3152D01*
X4606Y3151D01*
X4605D01*
X4604Y3150D01*
X4600Y3149D01*
X4597Y3148D01*
X4592Y3147D01*
X4587Y3146D01*
X4582Y3146D01*
X4575Y3145D01*
X4574D01*
X4572Y3146D01*
X4567Y3146D01*
X4561Y3147D01*
X4554Y3149D01*
X4548Y3152D01*
X4541Y3156D01*
X4534Y3162D01*
X4534Y3162D01*
X4532Y3165D01*
X4529Y3169D01*
X4527Y3174D01*
X4523Y3181D01*
X4521Y3188D01*
X4519Y3197D01*
X4518Y3207D01*
Y3208D01*
Y3210D01*
X4519Y3213D01*
X4519Y3218D01*
X4520Y3223D01*
X4522Y3228D01*
X4523Y3233D01*
X4526Y3238D01*
X4527Y3238D01*
X4528Y3240D01*
X4531Y3244D01*
X4535Y3249D01*
X4540Y3254D01*
X4546Y3259D01*
X4554Y3265D01*
X4563Y3272D01*
X4564D01*
X4564Y3272D01*
X4566Y3273D01*
X4568Y3274D01*
X4572Y3276D01*
X4575Y3278D01*
X4579Y3280D01*
X4585Y3283D01*
X4590Y3285D01*
X4597Y3288D01*
X4604Y3292D01*
X4613Y3295D01*
X4622Y3298D01*
X4631Y3302D01*
X4641Y3306D01*
X4653Y3310D01*
Y3320D01*
Y3320D01*
Y3321D01*
Y3323D01*
Y3326D01*
X4652Y3332D01*
X4651Y3340D01*
X4650Y3348D01*
X4648Y3356D01*
X4645Y3363D01*
X4641Y3369D01*
X4640Y3370D01*
X4639Y3371D01*
X4636Y3374D01*
X4633Y3376D01*
X4628Y3379D01*
X4623Y3381D01*
X4616Y3383D01*
X4608Y3383D01*
X4605D01*
X4603Y3383D01*
X4599Y3382D01*
X4594Y3381D01*
X4590Y3379D01*
X4585Y3377D01*
X4582Y3374D01*
X4581Y3373D01*
X4580Y3372D01*
X4579Y3370D01*
X4577Y3368D01*
X4574Y3361D01*
X4573Y3358D01*
X4572Y3353D01*
X4573Y3338D01*
Y3337D01*
Y3335D01*
X4572Y3333D01*
Y3331D01*
X4570Y3324D01*
X4568Y3321D01*
X4566Y3319D01*
X4565Y3318D01*
X4562Y3316D01*
X4557Y3314D01*
X4553Y3313D01*
X4550Y3313D01*
X4548D01*
X4547Y3313D01*
X4544Y3314D01*
X4539Y3315D01*
X4536Y3317D01*
X4534Y3319D01*
Y3320D01*
X4533Y3320D01*
X4532Y3322D01*
X4531Y3324D01*
X4530Y3327D01*
X4529Y3330D01*
X4528Y3334D01*
X4528Y3338D01*
Y3339D01*
X4528Y3342D01*
X4529Y3346D01*
X4530Y3352D01*
X4533Y3358D01*
X4537Y3365D01*
X4543Y3373D01*
X4550Y3380D01*
X4552Y3381D01*
X4555Y3383D01*
X4560Y3386D01*
X4568Y3390D01*
X4577Y3393D01*
X4588Y3396D01*
X4601Y3399D01*
X4616Y3399D01*
X4622D01*
X4627Y3399D01*
D02*
G37*
G36*
X4076Y3392D02*
X4132D01*
Y3374D01*
X4076Y3374D01*
Y3216D01*
Y3215D01*
Y3212D01*
X4076Y3208D01*
X4077Y3203D01*
X4079Y3193D01*
X4080Y3188D01*
X4083Y3184D01*
X4083Y3184D01*
X4084Y3183D01*
X4085Y3182D01*
X4087Y3181D01*
X4093Y3178D01*
X4096Y3177D01*
X4100Y3177D01*
X4101D01*
X4103Y3177D01*
X4105D01*
X4110Y3179D01*
X4116Y3182D01*
X4116Y3182D01*
X4118Y3183D01*
X4121Y3186D01*
X4125Y3191D01*
X4129Y3198D01*
X4140D01*
Y3198D01*
X4139Y3197D01*
X4138Y3194D01*
X4136Y3189D01*
X4133Y3184D01*
X4129Y3177D01*
X4125Y3171D01*
X4119Y3164D01*
X4113Y3159D01*
X4113Y3158D01*
X4110Y3157D01*
X4107Y3155D01*
X4103Y3153D01*
X4097Y3150D01*
X4091Y3148D01*
X4085Y3147D01*
X4078Y3146D01*
X4076D01*
X4074Y3147D01*
X4070Y3147D01*
X4063Y3149D01*
X4059Y3151D01*
X4054Y3153D01*
X4054Y3153D01*
X4053Y3154D01*
X4050Y3156D01*
X4048Y3158D01*
X4045Y3161D01*
X4043Y3163D01*
X4038Y3172D01*
Y3172D01*
X4037Y3174D01*
X4036Y3177D01*
X4035Y3181D01*
X4034Y3187D01*
X4033Y3193D01*
X4032Y3202D01*
Y3210D01*
Y3374D01*
X3994D01*
Y3383D01*
X3994Y3383D01*
X3997Y3384D01*
X3999Y3385D01*
X4003Y3387D01*
X4007Y3390D01*
X4012Y3393D01*
X4018Y3397D01*
X4023Y3401D01*
X4024Y3402D01*
X4026Y3404D01*
X4029Y3407D01*
X4032Y3411D01*
X4037Y3415D01*
X4041Y3421D01*
X4046Y3428D01*
X4050Y3434D01*
X4051Y3435D01*
X4052Y3436D01*
X4053Y3439D01*
X4055Y3443D01*
X4057Y3448D01*
X4060Y3454D01*
X4064Y3462D01*
X4068Y3471D01*
X4076D01*
Y3392D01*
D02*
G37*
G36*
X1850Y11200D02*
X1750D01*
Y11300D01*
X1850D01*
Y11200D01*
D02*
G37*
G36*
X17150Y2250D02*
X17050D01*
Y2350D01*
X17150D01*
Y2250D01*
D02*
G37*
G36*
X3688Y2749D02*
X3693Y2748D01*
X3698Y2747D01*
X3704Y2746D01*
X3711Y2744D01*
X3718Y2742D01*
X3725Y2739D01*
X3732Y2735D01*
X3740Y2731D01*
X3747Y2726D01*
X3754Y2721D01*
X3761Y2714D01*
X3768Y2707D01*
X3768Y2706D01*
X3769Y2705D01*
X3771Y2704D01*
X3772Y2701D01*
X3774Y2698D01*
X3777Y2693D01*
X3779Y2689D01*
X3782Y2684D01*
X3787Y2671D01*
X3792Y2658D01*
X3795Y2642D01*
X3796Y2634D01*
X3796Y2625D01*
Y2625D01*
Y2624D01*
Y2622D01*
Y2620D01*
X3796Y2617D01*
Y2613D01*
X3794Y2605D01*
X3792Y2595D01*
X3789Y2584D01*
X3786Y2572D01*
X3780Y2559D01*
Y2559D01*
X3779Y2558D01*
X3778Y2556D01*
X3777Y2554D01*
X3774Y2548D01*
X3769Y2541D01*
X3763Y2533D01*
X3756Y2524D01*
X3747Y2517D01*
X3737Y2509D01*
X3737D01*
X3736Y2509D01*
X3734Y2508D01*
X3732Y2507D01*
X3727Y2504D01*
X3719Y2501D01*
X3711Y2498D01*
X3700Y2496D01*
X3688Y2493D01*
X3676Y2493D01*
X3674D01*
X3671Y2493D01*
X3667D01*
X3663Y2494D01*
X3657Y2495D01*
X3651Y2497D01*
X3645Y2498D01*
X3638Y2501D01*
X3631Y2503D01*
X3624Y2507D01*
X3617Y2511D01*
X3610Y2516D01*
X3602Y2522D01*
X3596Y2528D01*
X3590Y2536D01*
X3589Y2537D01*
X3589Y2538D01*
X3587Y2540D01*
X3585Y2543D01*
X3584Y2546D01*
X3581Y2550D01*
X3579Y2555D01*
X3576Y2560D01*
X3571Y2572D01*
X3567Y2586D01*
X3564Y2602D01*
X3563Y2610D01*
X3562Y2618D01*
Y2619D01*
Y2620D01*
Y2622D01*
Y2624D01*
X3563Y2627D01*
X3564Y2630D01*
X3565Y2639D01*
X3566Y2649D01*
X3569Y2660D01*
X3573Y2672D01*
X3579Y2684D01*
Y2685D01*
X3579Y2686D01*
X3580Y2688D01*
X3581Y2690D01*
X3585Y2695D01*
X3590Y2703D01*
X3596Y2711D01*
X3604Y2719D01*
X3612Y2726D01*
X3622Y2733D01*
X3622D01*
X3623Y2734D01*
X3625Y2735D01*
X3627Y2736D01*
X3632Y2738D01*
X3639Y2741D01*
X3648Y2744D01*
X3657Y2747D01*
X3668Y2749D01*
X3679Y2749D01*
X3685D01*
X3688Y2749D01*
D02*
G37*
G36*
X3267D02*
X3272Y2748D01*
X3277Y2747D01*
X3283Y2746D01*
X3290Y2744D01*
X3297Y2742D01*
X3304Y2739D01*
X3311Y2735D01*
X3319Y2731D01*
X3326Y2726D01*
X3333Y2721D01*
X3340Y2714D01*
X3347Y2707D01*
X3347Y2706D01*
X3348Y2705D01*
X3349Y2704D01*
X3351Y2701D01*
X3353Y2698D01*
X3355Y2693D01*
X3358Y2689D01*
X3361Y2684D01*
X3366Y2671D01*
X3370Y2658D01*
X3374Y2642D01*
X3374Y2634D01*
X3375Y2625D01*
Y2625D01*
Y2624D01*
Y2622D01*
Y2620D01*
X3374Y2617D01*
Y2613D01*
X3373Y2605D01*
X3371Y2595D01*
X3368Y2584D01*
X3364Y2572D01*
X3359Y2559D01*
Y2559D01*
X3358Y2558D01*
X3357Y2556D01*
X3356Y2554D01*
X3353Y2548D01*
X3348Y2541D01*
X3342Y2533D01*
X3334Y2524D01*
X3325Y2517D01*
X3316Y2509D01*
X3315D01*
X3315Y2509D01*
X3313Y2508D01*
X3311Y2507D01*
X3305Y2504D01*
X3298Y2501D01*
X3289Y2498D01*
X3279Y2496D01*
X3267Y2493D01*
X3255Y2493D01*
X3253D01*
X3250Y2493D01*
X3246D01*
X3242Y2494D01*
X3236Y2495D01*
X3230Y2497D01*
X3224Y2498D01*
X3217Y2501D01*
X3210Y2503D01*
X3203Y2507D01*
X3196Y2511D01*
X3188Y2516D01*
X3181Y2522D01*
X3174Y2528D01*
X3168Y2536D01*
X3168Y2537D01*
X3167Y2538D01*
X3166Y2540D01*
X3164Y2543D01*
X3162Y2546D01*
X3160Y2550D01*
X3157Y2555D01*
X3155Y2560D01*
X3150Y2572D01*
X3146Y2586D01*
X3142Y2602D01*
X3142Y2610D01*
X3141Y2618D01*
Y2619D01*
Y2620D01*
Y2622D01*
Y2624D01*
X3142Y2627D01*
X3142Y2630D01*
X3143Y2639D01*
X3145Y2649D01*
X3148Y2660D01*
X3152Y2672D01*
X3157Y2684D01*
Y2685D01*
X3158Y2686D01*
X3159Y2688D01*
X3160Y2690D01*
X3164Y2695D01*
X3169Y2703D01*
X3175Y2711D01*
X3183Y2719D01*
X3191Y2726D01*
X3201Y2733D01*
X3201D01*
X3202Y2734D01*
X3203Y2735D01*
X3206Y2736D01*
X3211Y2738D01*
X3218Y2741D01*
X3227Y2744D01*
X3236Y2747D01*
X3247Y2749D01*
X3258Y2749D01*
X3263D01*
X3267Y2749D01*
D02*
G37*
G36*
X4271Y2383D02*
X3990D01*
Y2405D01*
X4271D01*
Y2383D01*
D02*
G37*
G36*
X5396Y2749D02*
X5399D01*
X5404Y2748D01*
X5413Y2746D01*
X5423Y2743D01*
X5434Y2738D01*
X5441Y2735D01*
X5446Y2731D01*
X5451Y2727D01*
X5456Y2722D01*
X5457Y2721D01*
X5457Y2721D01*
X5458Y2719D01*
X5461Y2717D01*
X5462Y2714D01*
X5464Y2711D01*
X5469Y2703D01*
X5474Y2693D01*
X5479Y2680D01*
X5482Y2666D01*
X5482Y2659D01*
X5483Y2650D01*
X5316D01*
Y2650D01*
Y2648D01*
Y2645D01*
X5316Y2642D01*
Y2637D01*
X5317Y2632D01*
X5318Y2626D01*
X5319Y2620D01*
X5322Y2606D01*
X5326Y2592D01*
X5330Y2585D01*
X5333Y2578D01*
X5337Y2572D01*
X5342Y2566D01*
X5342Y2565D01*
X5343Y2565D01*
X5345Y2563D01*
X5346Y2562D01*
X5352Y2557D01*
X5360Y2551D01*
X5368Y2546D01*
X5379Y2541D01*
X5391Y2537D01*
X5397Y2537D01*
X5403Y2536D01*
X5407D01*
X5412Y2537D01*
X5417Y2538D01*
X5424Y2539D01*
X5431Y2542D01*
X5438Y2544D01*
X5444Y2549D01*
X5445Y2549D01*
X5447Y2552D01*
X5451Y2554D01*
X5455Y2559D01*
X5459Y2565D01*
X5464Y2573D01*
X5469Y2583D01*
X5474Y2594D01*
X5483Y2588D01*
Y2588D01*
Y2587D01*
X5482Y2585D01*
X5482Y2582D01*
X5480Y2579D01*
X5479Y2575D01*
X5477Y2566D01*
X5472Y2556D01*
X5467Y2545D01*
X5459Y2533D01*
X5450Y2522D01*
X5449Y2522D01*
X5449Y2521D01*
X5447Y2519D01*
X5445Y2518D01*
X5439Y2513D01*
X5432Y2508D01*
X5422Y2502D01*
X5411Y2497D01*
X5398Y2494D01*
X5391Y2493D01*
X5383Y2493D01*
X5379D01*
X5376Y2493D01*
X5372Y2494D01*
X5368Y2494D01*
X5358Y2497D01*
X5346Y2501D01*
X5340Y2504D01*
X5333Y2507D01*
X5327Y2511D01*
X5321Y2516D01*
X5315Y2521D01*
X5308Y2527D01*
X5308Y2527D01*
X5307Y2528D01*
X5306Y2530D01*
X5303Y2533D01*
X5301Y2536D01*
X5299Y2541D01*
X5296Y2545D01*
X5293Y2551D01*
X5290Y2557D01*
X5287Y2564D01*
X5285Y2571D01*
X5283Y2579D01*
X5281Y2588D01*
X5279Y2597D01*
X5278Y2607D01*
X5278Y2618D01*
Y2618D01*
Y2620D01*
Y2624D01*
X5278Y2628D01*
X5279Y2633D01*
X5280Y2639D01*
X5281Y2646D01*
X5282Y2653D01*
X5286Y2669D01*
X5288Y2676D01*
X5291Y2685D01*
X5295Y2693D01*
X5299Y2700D01*
X5304Y2708D01*
X5310Y2714D01*
X5310Y2715D01*
X5311Y2716D01*
X5313Y2718D01*
X5315Y2720D01*
X5318Y2723D01*
X5322Y2725D01*
X5327Y2729D01*
X5331Y2732D01*
X5337Y2735D01*
X5343Y2738D01*
X5357Y2744D01*
X5364Y2746D01*
X5372Y2748D01*
X5381Y2749D01*
X5389Y2749D01*
X5393D01*
X5396Y2749D01*
D02*
G37*
%LPC*%
G36*
X4479Y2149D02*
X4475D01*
X4472Y2147D01*
X4467Y2146D01*
X4462Y2145D01*
X4457Y2141D01*
X4452Y2137D01*
X4446Y2132D01*
X4446Y2131D01*
X4443Y2128D01*
X4440Y2122D01*
X4436Y2115D01*
X4434Y2111D01*
X4431Y2106D01*
X4429Y2100D01*
X4427Y2094D01*
X4425Y2087D01*
X4423Y2080D01*
X4422Y2071D01*
X4420Y2063D01*
Y2063D01*
Y2061D01*
X4420Y2059D01*
X4419Y2055D01*
X4419Y2051D01*
X4418Y2046D01*
X4417Y2040D01*
X4417Y2034D01*
X4416Y2020D01*
X4415Y2004D01*
X4414Y1988D01*
X4414Y1970D01*
Y1970D01*
Y1967D01*
Y1963D01*
X4414Y1958D01*
Y1952D01*
X4415Y1944D01*
X4415Y1937D01*
X4416Y1928D01*
X4418Y1908D01*
X4421Y1888D01*
X4426Y1868D01*
X4429Y1858D01*
X4432Y1849D01*
Y1849D01*
X4432Y1848D01*
X4434Y1846D01*
X4435Y1843D01*
X4438Y1837D01*
X4443Y1830D01*
X4450Y1823D01*
X4457Y1817D01*
X4462Y1814D01*
X4466Y1812D01*
X4471Y1811D01*
X4477Y1811D01*
X4480D01*
X4482Y1811D01*
X4486Y1812D01*
X4490Y1814D01*
X4495Y1816D01*
X4501Y1819D01*
X4506Y1823D01*
X4507Y1824D01*
X4509Y1826D01*
X4512Y1829D01*
X4515Y1833D01*
X4519Y1839D01*
X4523Y1847D01*
X4527Y1856D01*
X4530Y1866D01*
Y1867D01*
X4531Y1868D01*
X4531Y1871D01*
X4532Y1874D01*
X4533Y1879D01*
X4534Y1885D01*
X4535Y1892D01*
X4536Y1899D01*
X4537Y1908D01*
X4538Y1917D01*
X4540Y1928D01*
X4541Y1939D01*
X4541Y1952D01*
X4542Y1965D01*
X4542Y1979D01*
Y1994D01*
Y1995D01*
Y1997D01*
Y2000D01*
Y2004D01*
X4542Y2010D01*
Y2016D01*
X4541Y2023D01*
X4541Y2030D01*
X4539Y2046D01*
X4537Y2063D01*
X4534Y2080D01*
X4530Y2096D01*
Y2097D01*
X4529Y2097D01*
X4528Y2099D01*
X4528Y2101D01*
X4526Y2107D01*
X4523Y2113D01*
X4519Y2120D01*
X4515Y2127D01*
X4510Y2134D01*
X4505Y2140D01*
X4504Y2140D01*
X4502Y2141D01*
X4500Y2142D01*
X4497Y2144D01*
X4493Y2146D01*
X4489Y2147D01*
X4484Y2148D01*
X4479Y2149D01*
D02*
G37*
G36*
X8402Y25425D02*
X8246D01*
Y25203D01*
X8402Y25425D01*
D02*
G37*
G36*
X18494D02*
X18338D01*
Y25203D01*
X18494Y25425D01*
D02*
G37*
G36*
X8686Y11295D02*
Y11294D01*
X8686Y11293D01*
Y11291D01*
X8684Y11289D01*
X8684Y11285D01*
X8683Y11281D01*
X8680Y11271D01*
X8678Y11259D01*
X8674Y11247D01*
X8670Y11233D01*
X8664Y11219D01*
X8621Y11103D01*
X8756D01*
X8714Y11212D01*
Y11212D01*
X8714Y11214D01*
X8713Y11217D01*
X8711Y11220D01*
X8710Y11224D01*
X8708Y11229D01*
X8706Y11235D01*
X8704Y11241D01*
X8699Y11254D01*
X8695Y11268D01*
X8690Y11282D01*
X8686Y11295D01*
D02*
G37*
G36*
X3255Y2732D02*
X3248D01*
X3245Y2731D01*
X3241Y2731D01*
X3237Y2730D01*
X3232Y2729D01*
X3227Y2726D01*
X3222Y2724D01*
X3221Y2723D01*
X3219Y2722D01*
X3217Y2720D01*
X3214Y2717D01*
X3210Y2713D01*
X3206Y2708D01*
X3202Y2701D01*
X3199Y2694D01*
X3198Y2693D01*
X3198Y2690D01*
X3196Y2686D01*
X3195Y2680D01*
X3193Y2672D01*
X3192Y2663D01*
X3191Y2652D01*
X3191Y2640D01*
Y2640D01*
Y2638D01*
Y2635D01*
X3191Y2632D01*
Y2627D01*
X3192Y2622D01*
X3192Y2616D01*
X3193Y2609D01*
X3196Y2595D01*
X3199Y2580D01*
X3204Y2564D01*
X3211Y2549D01*
Y2549D01*
X3212Y2548D01*
X3213Y2546D01*
X3215Y2543D01*
X3219Y2538D01*
X3226Y2531D01*
X3234Y2524D01*
X3243Y2518D01*
X3249Y2515D01*
X3254Y2513D01*
X3261Y2512D01*
X3267Y2512D01*
X3268D01*
X3271Y2512D01*
X3275Y2513D01*
X3282Y2514D01*
X3288Y2517D01*
X3295Y2521D01*
X3302Y2526D01*
X3309Y2533D01*
X3309Y2534D01*
X3312Y2537D01*
X3313Y2539D01*
X3314Y2542D01*
X3315Y2546D01*
X3317Y2550D01*
X3319Y2554D01*
X3320Y2559D01*
X3322Y2565D01*
X3323Y2572D01*
X3324Y2579D01*
X3325Y2587D01*
X3325Y2595D01*
Y2605D01*
Y2605D01*
Y2608D01*
Y2611D01*
X3325Y2615D01*
Y2621D01*
X3324Y2627D01*
X3323Y2634D01*
X3322Y2642D01*
X3319Y2658D01*
X3314Y2675D01*
X3310Y2683D01*
X3307Y2691D01*
X3303Y2699D01*
X3298Y2706D01*
Y2707D01*
X3297Y2708D01*
X3294Y2710D01*
X3290Y2715D01*
X3285Y2719D01*
X3278Y2724D01*
X3269Y2728D01*
X3261Y2731D01*
X3255Y2732D01*
D02*
G37*
G36*
X4653Y3294D02*
X4652D01*
X4651Y3294D01*
X4649Y3293D01*
X4646Y3292D01*
X4639Y3289D01*
X4631Y3285D01*
X4623Y3282D01*
X4614Y3278D01*
X4607Y3274D01*
X4604Y3273D01*
X4601Y3272D01*
X4600Y3271D01*
X4598Y3269D01*
X4594Y3267D01*
X4589Y3264D01*
X4584Y3260D01*
X4579Y3257D01*
X4575Y3252D01*
X4571Y3247D01*
X4570Y3247D01*
X4570Y3245D01*
X4568Y3242D01*
X4567Y3239D01*
X4565Y3235D01*
X4564Y3230D01*
X4563Y3225D01*
X4562Y3219D01*
Y3219D01*
Y3216D01*
X4563Y3213D01*
X4564Y3208D01*
X4565Y3203D01*
X4567Y3198D01*
X4569Y3193D01*
X4573Y3188D01*
X4574Y3187D01*
X4575Y3186D01*
X4578Y3184D01*
X4580Y3182D01*
X4584Y3179D01*
X4589Y3177D01*
X4594Y3176D01*
X4599Y3176D01*
X4600D01*
X4603Y3176D01*
X4608Y3177D01*
X4614Y3179D01*
X4621Y3182D01*
X4630Y3187D01*
X4641Y3193D01*
X4646Y3197D01*
X4653Y3202D01*
Y3294D01*
D02*
G37*
G36*
X3901D02*
X3901D01*
X3899Y3294D01*
X3897Y3293D01*
X3894Y3292D01*
X3888Y3289D01*
X3879Y3285D01*
X3871Y3282D01*
X3862Y3278D01*
X3855Y3274D01*
X3852Y3273D01*
X3850Y3272D01*
X3848Y3271D01*
X3846Y3269D01*
X3842Y3267D01*
X3838Y3264D01*
X3833Y3260D01*
X3828Y3257D01*
X3823Y3252D01*
X3820Y3247D01*
X3819Y3247D01*
X3818Y3245D01*
X3817Y3242D01*
X3815Y3239D01*
X3813Y3235D01*
X3812Y3230D01*
X3811Y3225D01*
X3811Y3219D01*
Y3219D01*
Y3216D01*
X3811Y3213D01*
X3812Y3208D01*
X3813Y3203D01*
X3815Y3198D01*
X3818Y3193D01*
X3822Y3188D01*
X3822Y3187D01*
X3824Y3186D01*
X3826Y3184D01*
X3829Y3182D01*
X3833Y3179D01*
X3837Y3177D01*
X3842Y3176D01*
X3848Y3176D01*
X3849D01*
X3852Y3176D01*
X3856Y3177D01*
X3862Y3179D01*
X3869Y3182D01*
X3879Y3187D01*
X3889Y3193D01*
X3895Y3197D01*
X3901Y3202D01*
Y3294D01*
D02*
G37*
G36*
X4090Y11295D02*
Y11294D01*
X4089Y11293D01*
Y11291D01*
X4088Y11289D01*
X4087Y11285D01*
X4086Y11281D01*
X4084Y11271D01*
X4081Y11259D01*
X4077Y11247D01*
X4073Y11233D01*
X4068Y11219D01*
X4025Y11103D01*
X4159D01*
X4118Y11212D01*
Y11212D01*
X4117Y11214D01*
X4116Y11217D01*
X4115Y11220D01*
X4113Y11224D01*
X4112Y11229D01*
X4110Y11235D01*
X4108Y11241D01*
X4103Y11254D01*
X4098Y11268D01*
X4094Y11282D01*
X4090Y11295D01*
D02*
G37*
G36*
X5375Y2730D02*
X5371D01*
X5367Y2729D01*
X5362Y2728D01*
X5356Y2726D01*
X5349Y2723D01*
X5342Y2719D01*
X5336Y2713D01*
X5335Y2713D01*
X5333Y2710D01*
X5330Y2706D01*
X5327Y2701D01*
X5323Y2694D01*
X5320Y2686D01*
X5317Y2676D01*
X5316Y2666D01*
X5428D01*
Y2667D01*
X5427Y2670D01*
Y2674D01*
X5427Y2679D01*
X5425Y2689D01*
X5423Y2694D01*
X5422Y2698D01*
X5422Y2699D01*
X5421Y2700D01*
X5419Y2703D01*
X5417Y2706D01*
X5414Y2710D01*
X5411Y2714D01*
X5407Y2718D01*
X5402Y2721D01*
X5402Y2722D01*
X5400Y2723D01*
X5397Y2724D01*
X5394Y2726D01*
X5390Y2728D01*
X5385Y2729D01*
X5380Y2730D01*
X5375Y2730D01*
D02*
G37*
G36*
X17879Y11295D02*
Y11294D01*
X17879Y11293D01*
Y11291D01*
X17877Y11289D01*
X17877Y11285D01*
X17876Y11281D01*
X17873Y11271D01*
X17870Y11259D01*
X17866Y11247D01*
X17862Y11233D01*
X17857Y11219D01*
X17814Y11103D01*
X17949D01*
X17907Y11212D01*
Y11212D01*
X17907Y11214D01*
X17905Y11217D01*
X17904Y11220D01*
X17903Y11224D01*
X17901Y11229D01*
X17899Y11235D01*
X17897Y11241D01*
X17892Y11254D01*
X17888Y11268D01*
X17883Y11282D01*
X17879Y11295D01*
D02*
G37*
G36*
X13283D02*
Y11294D01*
X13282Y11293D01*
Y11291D01*
X13281Y11289D01*
X13280Y11285D01*
X13279Y11281D01*
X13277Y11271D01*
X13274Y11259D01*
X13270Y11247D01*
X13266Y11233D01*
X13261Y11219D01*
X13218Y11103D01*
X13352D01*
X13311Y11212D01*
Y11212D01*
X13310Y11214D01*
X13309Y11217D01*
X13308Y11220D01*
X13306Y11224D01*
X13304Y11229D01*
X13303Y11235D01*
X13300Y11241D01*
X13296Y11254D01*
X13291Y11268D01*
X13287Y11282D01*
X13283Y11295D01*
D02*
G37*
G36*
X3677Y2732D02*
X3669D01*
X3666Y2731D01*
X3662Y2731D01*
X3658Y2730D01*
X3653Y2729D01*
X3648Y2726D01*
X3643Y2724D01*
X3642Y2723D01*
X3641Y2722D01*
X3638Y2720D01*
X3635Y2717D01*
X3631Y2713D01*
X3627Y2708D01*
X3623Y2701D01*
X3620Y2694D01*
X3620Y2693D01*
X3619Y2690D01*
X3617Y2686D01*
X3616Y2680D01*
X3615Y2672D01*
X3613Y2663D01*
X3612Y2652D01*
X3612Y2640D01*
Y2640D01*
Y2638D01*
Y2635D01*
X3612Y2632D01*
Y2627D01*
X3613Y2622D01*
X3613Y2616D01*
X3615Y2609D01*
X3617Y2595D01*
X3621Y2580D01*
X3626Y2564D01*
X3632Y2549D01*
Y2549D01*
X3633Y2548D01*
X3635Y2546D01*
X3636Y2543D01*
X3641Y2538D01*
X3647Y2531D01*
X3655Y2524D01*
X3665Y2518D01*
X3670Y2515D01*
X3676Y2513D01*
X3682Y2512D01*
X3688Y2512D01*
X3689D01*
X3692Y2512D01*
X3697Y2513D01*
X3703Y2514D01*
X3710Y2517D01*
X3717Y2521D01*
X3723Y2526D01*
X3730Y2533D01*
X3731Y2534D01*
X3733Y2537D01*
X3734Y2539D01*
X3736Y2542D01*
X3737Y2546D01*
X3738Y2550D01*
X3740Y2554D01*
X3742Y2559D01*
X3743Y2565D01*
X3744Y2572D01*
X3745Y2579D01*
X3746Y2587D01*
X3747Y2595D01*
Y2605D01*
Y2605D01*
Y2608D01*
Y2611D01*
X3746Y2615D01*
Y2621D01*
X3745Y2627D01*
X3744Y2634D01*
X3743Y2642D01*
X3740Y2658D01*
X3735Y2675D01*
X3732Y2683D01*
X3728Y2691D01*
X3724Y2699D01*
X3719Y2706D01*
Y2707D01*
X3718Y2708D01*
X3716Y2710D01*
X3712Y2715D01*
X3706Y2719D01*
X3699Y2724D01*
X3691Y2728D01*
X3682Y2731D01*
X3677Y2732D01*
D02*
G37*
G36*
X4431Y2839D02*
X4427D01*
X4422Y2838D01*
X4415Y2837D01*
X4407Y2837D01*
X4398Y2835D01*
X4388Y2834D01*
X4377Y2831D01*
Y2526D01*
X4378D01*
X4379Y2526D01*
X4380D01*
X4383Y2525D01*
X4389Y2524D01*
X4397Y2523D01*
X4405Y2521D01*
X4415Y2520D01*
X4424Y2519D01*
X4433Y2519D01*
X4436D01*
X4439Y2519D01*
X4443D01*
X4449Y2520D01*
X4455Y2521D01*
X4462Y2522D01*
X4469Y2524D01*
X4477Y2527D01*
X4485Y2529D01*
X4493Y2533D01*
X4502Y2537D01*
X4510Y2542D01*
X4519Y2548D01*
X4527Y2554D01*
X4535Y2562D01*
X4535Y2562D01*
X4536Y2564D01*
X4539Y2566D01*
X4541Y2569D01*
X4544Y2574D01*
X4548Y2579D01*
X4551Y2585D01*
X4555Y2593D01*
X4559Y2600D01*
X4563Y2609D01*
X4566Y2619D01*
X4569Y2629D01*
X4571Y2640D01*
X4574Y2653D01*
X4575Y2665D01*
X4575Y2679D01*
Y2680D01*
Y2682D01*
Y2686D01*
X4575Y2691D01*
X4574Y2697D01*
X4573Y2704D01*
X4572Y2713D01*
X4570Y2721D01*
X4568Y2730D01*
X4565Y2740D01*
X4562Y2749D01*
X4558Y2759D01*
X4554Y2769D01*
X4548Y2778D01*
X4542Y2787D01*
X4535Y2795D01*
X4534Y2796D01*
X4533Y2797D01*
X4531Y2799D01*
X4528Y2802D01*
X4524Y2805D01*
X4519Y2809D01*
X4513Y2813D01*
X4506Y2817D01*
X4499Y2821D01*
X4491Y2825D01*
X4483Y2829D01*
X4474Y2832D01*
X4464Y2835D01*
X4454Y2837D01*
X4443Y2838D01*
X4431Y2839D01*
D02*
G37*
%LPD*%
D18*
X12300Y22049D02*
D03*
D19*
X16251Y20652D02*
D03*
X16351Y18652D02*
D03*
X3349Y9102D02*
D03*
X9579Y9302D02*
D03*
D20*
X9149Y16850D02*
D03*
X3201Y7160D02*
D03*
X8601Y20940D02*
D03*
D21*
X13548Y9929D02*
D03*
X7152Y20449D02*
D03*
D22*
X16235Y24099D02*
D03*
D23*
X7311Y12239D02*
G03*
X7311Y12239I-1650J0D01*
G01*
X11907D02*
G03*
X11907Y12239I-1650J0D01*
G01*
X16504D02*
G03*
X16504Y12239I-1650J0D01*
G01*
X21100D02*
G03*
X21100Y12239I-1650J0D01*
G01*
X7311D02*
G03*
X7311Y12239I-1650J0D01*
G01*
X11907D02*
G03*
X11907Y12239I-1650J0D01*
G01*
X16504D02*
G03*
X16504Y12239I-1650J0D01*
G01*
X21100D02*
G03*
X21100Y12239I-1650J0D01*
G01*
D24*
X19317Y8485D02*
X20183D01*
X19317Y7915D02*
X20183D01*
Y8485D01*
X19317Y7915D02*
Y8485D01*
X14717Y8735D02*
X15583D01*
X14717Y8165D02*
X15583D01*
Y8735D01*
X14717Y8165D02*
Y8735D01*
X5962Y7715D02*
X6828D01*
X5962Y8285D02*
X6828D01*
X5962Y7715D02*
Y8285D01*
X6828Y7715D02*
Y8285D01*
X19750Y8003D02*
Y8397D01*
X19553Y8200D02*
X19947D01*
X19199Y8515D02*
X20301D01*
X19199Y7885D02*
X20301D01*
Y8515D01*
X19199Y7885D02*
Y8515D01*
X15150Y8253D02*
Y8647D01*
X14953Y8450D02*
X15347D01*
X14599Y8765D02*
X15701D01*
X14599Y8135D02*
X15701D01*
Y8765D01*
X14599Y8135D02*
Y8765D01*
X6395Y7803D02*
Y8197D01*
X6198Y8000D02*
X6592D01*
X5844Y7685D02*
X6946D01*
X5844Y8315D02*
X6946D01*
X5844Y7685D02*
Y8315D01*
X6946Y7685D02*
Y8315D01*
D25*
X7850Y23200D02*
X8000D01*
X10700D02*
X10850D01*
X13600Y23000D02*
X13750D01*
X16450D02*
X16600D01*
D26*
X8100Y22850D02*
G03*
X8200Y22750I100J0D01*
G01*
Y23650D02*
G03*
X8100Y23550I0J-100D01*
G01*
X10600D02*
G03*
X10500Y23650I-100J0D01*
G01*
Y22750D02*
G03*
X10600Y22850I0J100D01*
G01*
X4600Y18500D02*
G03*
X5000Y18500I200J0D01*
G01*
X4180D02*
G03*
X4030Y18350I0J-150D01*
G01*
X5420Y15000D02*
G03*
X5570Y15150I0J150D01*
G01*
Y18350D02*
G03*
X5420Y18500I-150J0D01*
G01*
X4030Y15150D02*
G03*
X4180Y15000I150J0D01*
G01*
X4650Y23500D02*
G03*
X5050Y23500I200J0D01*
G01*
X4230D02*
G03*
X4080Y23350I0J-150D01*
G01*
X5470Y20000D02*
G03*
X5620Y20150I0J150D01*
G01*
Y23350D02*
G03*
X5470Y23500I-150J0D01*
G01*
X4080Y20150D02*
G03*
X4230Y20000I150J0D01*
G01*
X13850Y22650D02*
G03*
X13950Y22550I100J0D01*
G01*
Y23450D02*
G03*
X13850Y23350I0J-100D01*
G01*
X16350D02*
G03*
X16250Y23450I-100J0D01*
G01*
Y22550D02*
G03*
X16350Y22650I0J100D01*
G01*
X11800Y21460D02*
G03*
X12800Y21460I500J0D01*
G01*
X10980D02*
G03*
X10830Y21310I0J-150D01*
G01*
X13620Y16340D02*
G03*
X13770Y16490I0J150D01*
G01*
Y21310D02*
G03*
X13620Y21460I-150J0D01*
G01*
X10830Y16490D02*
G03*
X10980Y16340I150J0D01*
G01*
X6371Y12239D02*
G03*
X6371Y12239I-710J0D01*
G01*
X10967D02*
G03*
X10967Y12239I-710J0D01*
G01*
X15564D02*
G03*
X15564Y12239I-710J0D01*
G01*
X20160D02*
G03*
X20160Y12239I-710J0D01*
G01*
X13480Y26800D02*
G03*
X13280Y26600I0J-200D01*
G01*
X18883Y23900D02*
G03*
X19083Y24100I0J200D01*
G01*
Y26600D02*
G03*
X18883Y26800I-200J0D01*
G01*
X13280Y24100D02*
G03*
X13480Y23900I200J0D01*
G01*
X18683Y26300D02*
G03*
X18583Y26400I-100J0D01*
G01*
Y24300D02*
G03*
X18683Y24400I0J100D01*
G01*
X13680D02*
G03*
X13780Y24300I100J0D01*
G01*
Y26400D02*
G03*
X13680Y26300I0J-100D01*
G01*
X3388Y26800D02*
G03*
X3188Y26600I0J-200D01*
G01*
X8791Y23900D02*
G03*
X8991Y24100I0J200D01*
G01*
Y26600D02*
G03*
X8791Y26800I-200J0D01*
G01*
X3188Y24100D02*
G03*
X3388Y23900I200J0D01*
G01*
X8591Y26300D02*
G03*
X8491Y26400I-100J0D01*
G01*
Y24300D02*
G03*
X8591Y24400I0J100D01*
G01*
X3588D02*
G03*
X3688Y24300I100J0D01*
G01*
Y26400D02*
G03*
X3588Y26300I0J-100D01*
G01*
X8200Y23650D02*
X8350D01*
X8200Y22750D02*
X8350D01*
X8400Y23600D02*
X10300D01*
X8350Y23650D02*
X8400Y23600D01*
Y22800D02*
X10300D01*
X8350Y22750D02*
X8400Y22800D01*
X10300Y23600D02*
X10350Y23650D01*
X10500D01*
X10300Y22800D02*
X10350Y22750D01*
X10500D01*
X4180Y18500D02*
X4600D01*
X5000D01*
X5420D01*
X4180Y15000D02*
X5420D01*
X4030Y15150D02*
Y18350D01*
X5570Y15150D02*
Y18350D01*
X4230Y23500D02*
X4650D01*
X5050D01*
X5470D01*
X4230Y20000D02*
X5470D01*
X4080Y20150D02*
Y23350D01*
X5620Y20150D02*
Y23350D01*
X13950Y23450D02*
X14100D01*
X13950Y22550D02*
X14100D01*
X14150Y23400D02*
X16050D01*
X14100Y23450D02*
X14150Y23400D01*
Y22600D02*
X16050D01*
X14100Y22550D02*
X14150Y22600D01*
X16050Y23400D02*
X16100Y23450D01*
X16250D01*
X16050Y22600D02*
X16100Y22550D01*
X16250D01*
X10980Y21460D02*
X13620D01*
X10980Y16340D02*
X13620D01*
X10830Y16490D02*
Y21310D01*
X13770Y16490D02*
Y21310D01*
X3611Y12839D02*
Y13589D01*
Y12839D02*
X3961D01*
Y12239D02*
Y12839D01*
X3611Y12239D02*
X3961D01*
X3611Y7339D02*
Y12239D01*
X7711Y12839D02*
Y13589D01*
X7361Y12839D02*
X7711D01*
X7361Y12239D02*
Y12839D01*
Y12239D02*
X7711D01*
Y7339D02*
Y12239D01*
X3611Y13589D02*
X7711D01*
X3611Y7339D02*
X7711D01*
X8207Y12839D02*
Y13589D01*
Y12839D02*
X8557D01*
Y12239D02*
Y12839D01*
X8207Y12239D02*
X8557D01*
X8207Y7339D02*
Y12239D01*
X12307Y12839D02*
Y13589D01*
X11957Y12839D02*
X12307D01*
X11957Y12239D02*
Y12839D01*
Y12239D02*
X12307D01*
Y7339D02*
Y12239D01*
X8207Y13589D02*
X12307D01*
X8207Y7339D02*
X12307D01*
X12804Y12839D02*
Y13589D01*
Y12839D02*
X13154D01*
Y12239D02*
Y12839D01*
X12804Y12239D02*
X13154D01*
X12804Y7339D02*
Y12239D01*
X16904Y12839D02*
Y13589D01*
X16554Y12839D02*
X16904D01*
X16554Y12239D02*
Y12839D01*
Y12239D02*
X16904D01*
Y7339D02*
Y12239D01*
X12804Y13589D02*
X16904D01*
X12804Y7339D02*
X16904D01*
X17400Y12839D02*
Y13589D01*
Y12839D02*
X17750D01*
Y12239D02*
Y12839D01*
X17400Y12239D02*
X17750D01*
X17400Y7339D02*
Y12239D01*
X21500Y12839D02*
Y13589D01*
X21150Y12839D02*
X21500D01*
X21150Y12239D02*
Y12839D01*
Y12239D02*
X21500D01*
Y7339D02*
Y12239D01*
X17400Y13589D02*
X21500D01*
X17400Y7339D02*
X21500D01*
X14280Y26200D02*
Y26400D01*
Y26800D01*
X14130Y26400D02*
X14280D01*
X14130Y26800D02*
X14280D01*
X13480D02*
X14130D01*
X13780Y26400D02*
X14130D01*
X13280Y24100D02*
Y26600D01*
X13680Y25850D02*
Y26300D01*
Y24400D02*
Y24850D01*
Y25850D01*
X14280Y26200D02*
X18083D01*
Y26400D01*
X18683Y24400D02*
Y24850D01*
Y25850D01*
X13680Y24850D02*
X18683D01*
X13680Y25850D02*
X18683D01*
X18233Y26800D02*
X18883D01*
X18083Y26400D02*
X18233D01*
X18083Y26800D02*
X18233D01*
X18083Y26400D02*
Y26800D01*
X19083Y24100D02*
Y26600D01*
X18683Y25850D02*
Y26300D01*
X18233Y26400D02*
X18583D01*
X13780Y24300D02*
X18583D01*
X13480Y23900D02*
X18883D01*
X4188Y26200D02*
Y26400D01*
Y26800D01*
X4038Y26400D02*
X4188D01*
X4038Y26800D02*
X4188D01*
X3388D02*
X4038D01*
X3688Y26400D02*
X4038D01*
X3188Y24100D02*
Y26600D01*
X3588Y25850D02*
Y26300D01*
Y24400D02*
Y24850D01*
Y25850D01*
X4188Y26200D02*
X7991D01*
Y26400D01*
X8591Y24400D02*
Y24850D01*
Y25850D01*
X3588Y24850D02*
X8591D01*
X3588Y25850D02*
X8591D01*
X8141Y26800D02*
X8791D01*
X7991Y26400D02*
X8141D01*
X7991Y26800D02*
X8141D01*
X7991Y26400D02*
Y26800D01*
X8991Y24100D02*
Y26600D01*
X8591Y25850D02*
Y26300D01*
X8141Y26400D02*
X8491D01*
X3688Y24300D02*
X8491D01*
X3388Y23900D02*
X8791D01*
X8100Y22850D02*
Y23550D01*
X10600Y22850D02*
Y23550D01*
X13850Y22650D02*
Y23350D01*
X16350Y22650D02*
Y23350D01*
X15970Y20400D02*
X16530D01*
X15970Y20900D02*
X16530D01*
X16070Y18400D02*
X16630D01*
X16070Y18900D02*
X16630D01*
X13800Y9650D02*
Y10210D01*
X13300Y9650D02*
Y10210D01*
X3070Y8850D02*
X3630D01*
X3070Y9350D02*
X3630D01*
X9300Y9050D02*
X9860D01*
X9300Y9550D02*
X9860D01*
X15550Y25500D02*
X15850D01*
X15550Y25200D02*
X15850Y25500D01*
X15550D02*
X15850Y25200D01*
X15550D02*
Y25500D01*
Y25200D02*
X15850D01*
Y25500D01*
X14570D02*
X14870D01*
X14570Y25200D02*
X14870Y25500D01*
X14570D02*
X14870Y25200D01*
X14570D02*
Y25500D01*
Y25200D02*
X14870D01*
Y25500D01*
X17524D02*
X17824Y25200D01*
X17524D02*
X17824Y25500D01*
X17524D02*
X17824D01*
Y25200D02*
Y25500D01*
X17524Y25200D02*
X17824D01*
X17524D02*
Y25500D01*
X16533Y25200D02*
X16833Y25500D01*
X16533D02*
X16833Y25200D01*
Y25500D01*
X16533Y25200D02*
X16833D01*
X16533D02*
Y25500D01*
X16833D01*
X6900Y20170D02*
Y20730D01*
X7400Y20170D02*
Y20730D01*
X5458Y25500D02*
X5758D01*
X5458Y25200D02*
X5758Y25500D01*
X5458D02*
X5758Y25200D01*
X5458D02*
Y25500D01*
Y25200D02*
X5758D01*
Y25500D01*
X4478D02*
X4778D01*
X4478Y25200D02*
X4778Y25500D01*
X4478D02*
X4778Y25200D01*
X4478D02*
Y25500D01*
Y25200D02*
X4778D01*
Y25500D01*
X7431D02*
X7732Y25200D01*
X7431D02*
X7732Y25500D01*
X7431D02*
X7732D01*
Y25200D02*
Y25500D01*
X7431Y25200D02*
X7732D01*
X7431D02*
Y25500D01*
X6441Y25200D02*
X6741Y25500D01*
X6441D02*
X6741Y25200D01*
Y25500D01*
X6441Y25200D02*
X6741D01*
X6441D02*
Y25500D01*
X6741D01*
D27*
X10210Y2211D02*
G03*
X10210Y2211I-580J0D01*
G01*
X8830D02*
G03*
X8830Y2211I-580J0D01*
G01*
X7452D02*
G03*
X7452Y2211I-580J0D01*
G01*
X19010D02*
G03*
X19010Y2211I-580J0D01*
G01*
X17630D02*
G03*
X17630Y2211I-580J0D01*
G01*
X16252D02*
G03*
X16252Y2211I-580J0D01*
G01*
X2469Y11890D02*
G03*
X2469Y11890I-580J0D01*
G01*
Y10511D02*
G03*
X2469Y10511I-580J0D01*
G01*
Y7690D02*
G03*
X2469Y7690I-580J0D01*
G01*
Y6311D02*
G03*
X2469Y6311I-580J0D01*
G01*
X10110Y2490D02*
Y2500D01*
X8730Y2490D02*
Y2500D01*
X7344Y2490D02*
X7347Y2500D01*
X10420Y931D02*
Y1104D01*
X6085Y931D02*
Y1104D01*
Y813D02*
Y931D01*
X10420D01*
Y813D02*
Y931D01*
X6085Y813D02*
X10420D01*
X6085Y1104D02*
X10420D01*
X6085D02*
Y1424D01*
Y1614D01*
X10420Y3010D02*
Y3690D01*
X6085Y1614D02*
X10420D01*
X6085Y2820D02*
X10420D01*
X6085Y1614D02*
Y2820D01*
X10420D02*
Y3010D01*
X6085D02*
X10420D01*
X6085Y2820D02*
Y3010D01*
X10420Y1424D02*
Y1614D01*
Y1104D02*
Y1424D01*
Y1614D02*
Y2820D01*
X6085Y1424D02*
X10420D01*
X6085Y3010D02*
Y3690D01*
X10420D01*
X18910Y2490D02*
Y2500D01*
X17530Y2490D02*
Y2500D01*
X16144Y2490D02*
X16147Y2500D01*
X19220Y931D02*
Y1104D01*
X14885Y931D02*
Y1104D01*
Y813D02*
Y931D01*
X19220D01*
Y813D02*
Y931D01*
X14885Y813D02*
X19220D01*
X14885Y1104D02*
X19220D01*
X14885D02*
Y1424D01*
Y1614D01*
X19220Y3010D02*
Y3690D01*
X14885Y1614D02*
X19220D01*
X14885Y2820D02*
X19220D01*
X14885Y1614D02*
Y2820D01*
X19220D02*
Y3010D01*
X14885D02*
X19220D01*
X14885Y2820D02*
Y3010D01*
X19220Y1424D02*
Y1614D01*
Y1104D02*
Y1424D01*
Y1614D02*
Y2820D01*
X14885Y1424D02*
X19220D01*
X14885Y3010D02*
Y3690D01*
X19220D01*
X1600Y12370D02*
X1610D01*
X1600Y10986D02*
X1610Y10983D01*
X2996Y12680D02*
X3169D01*
X2996Y9724D02*
X3169D01*
X3287D01*
X3169D02*
Y12680D01*
X3287D01*
Y9724D02*
Y12680D01*
X2996Y9724D02*
Y12680D01*
X2677Y9724D02*
X2996D01*
X2486D02*
X2677D01*
X410Y12680D02*
X1090D01*
X2486Y9724D02*
Y12680D01*
X1280Y9724D02*
Y12680D01*
Y9724D02*
X2486D01*
X1090Y12680D02*
X1280D01*
X1090Y9724D02*
Y12680D01*
Y9724D02*
X1280D01*
X2486Y12680D02*
X2677D01*
X2996D01*
X1280D02*
X2486D01*
X2677Y9724D02*
Y12680D01*
X410Y9724D02*
X1090D01*
X410D02*
Y12680D01*
X1600Y8170D02*
X1610D01*
X1600Y6786D02*
X1610Y6783D01*
X2996Y8480D02*
X3169D01*
X2996Y5524D02*
X3169D01*
X3287D01*
X3169D02*
Y8480D01*
X3287D01*
Y5524D02*
Y8480D01*
X2996Y5524D02*
Y8480D01*
X2677Y5524D02*
X2996D01*
X2486D02*
X2677D01*
X410Y8480D02*
X1090D01*
X2486Y5524D02*
Y8480D01*
X1280Y5524D02*
Y8480D01*
Y5524D02*
X2486D01*
X1090Y8480D02*
X1280D01*
X1090Y5524D02*
Y8480D01*
Y5524D02*
X1280D01*
X2486Y8480D02*
X2677D01*
X2996D01*
X1280D02*
X2486D01*
X2677Y5524D02*
Y8480D01*
X410Y5524D02*
X1090D01*
X410D02*
Y8480D01*
X12150Y22310D02*
X12440D01*
X12150Y21790D02*
X12450D01*
X9410Y16710D02*
Y17000D01*
X8890Y16700D02*
Y17000D01*
X2940Y7020D02*
Y7310D01*
X3460Y7010D02*
Y7310D01*
X9350Y1736D02*
X10110Y2490D01*
X9160Y1931D02*
X9910Y2690D01*
X7970Y1736D02*
X8730Y2490D01*
X7775Y1931D02*
X8530Y2690D01*
X6592Y1736D02*
X7344Y2490D01*
X6397Y1931D02*
X7152Y2690D01*
X18150Y1736D02*
X18910Y2490D01*
X17960Y1931D02*
X18710Y2690D01*
X16770Y1736D02*
X17530Y2490D01*
X16575Y1931D02*
X17330Y2690D01*
X15392Y1736D02*
X16144Y2490D01*
X15197Y1931D02*
X15952Y2690D01*
X1610Y12370D02*
X2364Y11610D01*
X1410Y12170D02*
X2169Y11420D01*
X1610Y10983D02*
X2364Y10231D01*
X1410Y10791D02*
X2169Y10036D01*
X1610Y8170D02*
X2364Y7410D01*
X1410Y7970D02*
X2169Y7220D01*
X1610Y6783D02*
X2364Y6031D01*
X1410Y6591D02*
X2169Y5836D01*
X8340Y20790D02*
Y21080D01*
X8860Y20790D02*
Y21090D01*
X16094Y24360D02*
X16385D01*
X16085Y23840D02*
X16385D01*
D28*
X8050Y23200D02*
D03*
X10650D02*
D03*
X13800Y23000D02*
D03*
X16400D02*
D03*
D29*
X3805Y15250D02*
D03*
Y15750D02*
D03*
Y16250D02*
D03*
X5795Y15250D02*
D03*
Y15750D02*
D03*
Y16250D02*
D03*
Y18250D02*
D03*
Y17750D02*
D03*
Y17250D02*
D03*
X3805Y16750D02*
D03*
X3815Y17250D02*
D03*
X3805Y17750D02*
D03*
Y18250D02*
D03*
X5795Y16750D02*
D03*
X3855Y20250D02*
D03*
Y20750D02*
D03*
Y21250D02*
D03*
X5845Y20250D02*
D03*
Y20750D02*
D03*
Y21250D02*
D03*
Y23250D02*
D03*
Y22750D02*
D03*
Y22250D02*
D03*
X3855Y21750D02*
D03*
X3865Y22250D02*
D03*
X3855Y22750D02*
D03*
Y23250D02*
D03*
X5845Y21750D02*
D03*
D30*
X12010Y22048D02*
D03*
X16525Y24097D02*
D03*
D31*
X12582Y22048D02*
D03*
X15952Y24097D02*
D03*
D32*
X16590Y20650D02*
D03*
X15910D02*
D03*
X16690Y18650D02*
D03*
X16010D02*
D03*
X3010Y9100D02*
D03*
X3690D02*
D03*
X9240Y9300D02*
D03*
X9920D02*
D03*
D33*
X9147Y17140D02*
D03*
X3203Y7450D02*
D03*
X8602Y20650D02*
D03*
D34*
X9147Y16568D02*
D03*
X3203Y6878D02*
D03*
X8602Y21222D02*
D03*
D35*
X10490Y16650D02*
D03*
Y17150D02*
D03*
X14110Y16650D02*
D03*
Y17150D02*
D03*
Y17650D02*
D03*
Y18150D02*
D03*
Y18650D02*
D03*
Y19150D02*
D03*
Y19650D02*
D03*
Y20150D02*
D03*
Y20650D02*
D03*
Y21150D02*
D03*
X10490Y17650D02*
D03*
Y18150D02*
D03*
Y18650D02*
D03*
Y19150D02*
D03*
Y19650D02*
D03*
Y20150D02*
D03*
Y20650D02*
D03*
Y21150D02*
D03*
D36*
X6661Y5614D02*
D03*
X5661D02*
D03*
X4661D02*
D03*
X11257D02*
D03*
X10257D02*
D03*
X9257D02*
D03*
X15854D02*
D03*
X14854D02*
D03*
X13854D02*
D03*
X20450D02*
D03*
X19450D02*
D03*
X18450D02*
D03*
D37*
X13550Y9590D02*
D03*
Y10270D02*
D03*
X7150Y20110D02*
D03*
Y20790D02*
D03*
D38*
X4170Y15000D02*
Y18500D01*
X4220Y20000D02*
Y23500D01*
X10970Y16350D02*
Y21450D01*
X3861Y7589D02*
Y10839D01*
X7461D01*
Y7589D02*
Y10839D01*
X3861Y7589D02*
X7461D01*
X8457D02*
Y10839D01*
X12057D01*
Y7589D02*
Y10839D01*
X8457Y7589D02*
X12057D01*
X13054D02*
Y10839D01*
X16654D01*
Y7589D02*
Y10839D01*
X13054Y7589D02*
X16654D01*
X17650D02*
Y10839D01*
X21250D01*
Y7589D02*
Y10839D01*
X17650Y7589D02*
X21250D01*
X14130Y26400D02*
Y26800D01*
X18233Y26400D02*
Y26800D01*
X4038Y26400D02*
Y26800D01*
X8141Y26400D02*
Y26800D01*
X11520Y21660D02*
Y22437D01*
X13077Y21660D02*
Y22437D01*
X11520D02*
X13077D01*
X11520Y21660D02*
X13077D01*
X17030Y20263D02*
Y21040D01*
X15473Y20263D02*
Y21040D01*
Y20263D02*
X17030D01*
X15473Y21040D02*
X17030D01*
X17130Y18263D02*
Y19040D01*
X15573Y18263D02*
Y19040D01*
Y18263D02*
X17130D01*
X15573Y19040D02*
X17130D01*
X8760Y17630D02*
X9537D01*
X8760Y16073D02*
X9537D01*
Y17630D01*
X8760Y16073D02*
Y17630D01*
X13160Y9150D02*
X13937D01*
X13160Y10707D02*
X13937D01*
Y9150D02*
Y10707D01*
X13160Y9150D02*
Y10707D01*
X2570Y8713D02*
Y9490D01*
X4127Y8713D02*
Y9490D01*
X2570Y8713D02*
X4127D01*
X2570Y9490D02*
X4127D01*
X2813Y7940D02*
X3590D01*
X2813Y6383D02*
X3590D01*
X2813D02*
Y7940D01*
X3590Y6383D02*
Y7940D01*
X8800Y8913D02*
Y9690D01*
X10357Y8913D02*
Y9690D01*
X8800Y8913D02*
X10357D01*
X8800Y9690D02*
X10357D01*
X8213Y20160D02*
X8990D01*
X8213Y21717D02*
X8990D01*
X8213Y20160D02*
Y21717D01*
X8990Y20160D02*
Y21717D01*
X6763Y19670D02*
X7540D01*
X6763Y21227D02*
X7540D01*
X6763Y19670D02*
Y21227D01*
X7540Y19670D02*
Y21227D01*
X17015Y23710D02*
Y24487D01*
X15458Y23710D02*
Y24487D01*
X17015D01*
X15458Y23710D02*
X17015D01*
D48*
X16900Y27700D02*
Y27300D01*
X17100Y27100D01*
X17300Y27300D01*
Y27700D01*
X17500D02*
Y27100D01*
X17800D01*
X17900Y27200D01*
Y27600D01*
X17800Y27700D01*
X17500D01*
X18100D02*
Y27100D01*
X18400D01*
X18499Y27200D01*
Y27600D01*
X18400Y27700D01*
X18100D01*
X7000Y27650D02*
X6900Y27750D01*
X6700D01*
X6600Y27650D01*
Y27250D01*
X6700Y27150D01*
X6900D01*
X7000Y27250D01*
X7300Y27150D02*
X7500D01*
X7600Y27250D01*
Y27450D01*
X7500Y27550D01*
X7300D01*
X7200Y27450D01*
Y27250D01*
X7300Y27150D01*
X7800D02*
Y27550D01*
X8100D01*
X8199Y27450D01*
Y27150D01*
X8499Y27650D02*
Y27550D01*
X8399D01*
X8599D01*
X8499D01*
Y27250D01*
X8599Y27150D01*
X8899Y27550D02*
Y27150D01*
Y27350D01*
X8999Y27450D01*
X9099Y27550D01*
X9199D01*
X9599Y27150D02*
X9799D01*
X9899Y27250D01*
Y27450D01*
X9799Y27550D01*
X9599D01*
X9499Y27450D01*
Y27250D01*
X9599Y27150D01*
X10099D02*
X10299D01*
X10199D01*
Y27750D01*
X10099D01*
X8950Y22950D02*
Y23550D01*
X9250D01*
X9350Y23450D01*
Y23250D01*
X9250Y23150D01*
X8950D01*
X9150D02*
X9350Y22950D01*
X9550Y23550D02*
X9950D01*
Y23450D01*
X9550Y23050D01*
Y22950D01*
X4500Y15800D02*
Y16000D01*
Y15900D01*
X5100D01*
Y15800D01*
Y16000D01*
X4600Y16700D02*
X4500Y16600D01*
Y16400D01*
X4600Y16300D01*
X5000D01*
X5100Y16400D01*
Y16600D01*
X5000Y16700D01*
X4600Y16900D02*
X4500Y17000D01*
Y17200D01*
X4600Y17300D01*
X4700D01*
X4800Y17200D01*
Y17100D01*
Y17200D01*
X4900Y17300D01*
X5000D01*
X5100Y17200D01*
Y17000D01*
X5000Y16900D01*
X4550Y20550D02*
Y20750D01*
Y20650D01*
X5150D01*
Y20550D01*
Y20750D01*
X4650Y21450D02*
X4550Y21350D01*
Y21150D01*
X4650Y21050D01*
X5050D01*
X5150Y21150D01*
Y21350D01*
X5050Y21450D01*
X5150Y22050D02*
Y21650D01*
X4750Y22050D01*
X4650D01*
X4550Y21950D01*
Y21750D01*
X4650Y21650D01*
X14650Y23100D02*
Y23700D01*
X14950D01*
X15050Y23600D01*
Y23400D01*
X14950Y23300D01*
X14650D01*
X14850D02*
X15050Y23100D01*
X15250Y23600D02*
X15350Y23700D01*
X15550D01*
X15650Y23600D01*
Y23500D01*
X15550Y23400D01*
X15650Y23300D01*
Y23200D01*
X15550Y23100D01*
X15350D01*
X15250Y23200D01*
Y23300D01*
X15350Y23400D01*
X15250Y23500D01*
Y23600D01*
X15350Y23400D02*
X15550D01*
X11100Y22450D02*
X11000Y22550D01*
X10800D01*
X10700Y22450D01*
Y22050D01*
X10800Y21950D01*
X11000D01*
X11100Y22050D01*
X11300Y21950D02*
X11500D01*
X11400D01*
Y22550D01*
X11300Y22450D01*
X15800Y21300D02*
Y21900D01*
X16100D01*
X16200Y21800D01*
Y21600D01*
X16100Y21500D01*
X15800D01*
X16000D02*
X16200Y21300D01*
X16400Y21800D02*
X16500Y21900D01*
X16700D01*
X16800Y21800D01*
Y21700D01*
X16700Y21600D01*
X16600D01*
X16700D01*
X16800Y21500D01*
Y21400D01*
X16700Y21300D01*
X16500D01*
X16400Y21400D01*
X15850Y19300D02*
Y19900D01*
X16150D01*
X16250Y19800D01*
Y19600D01*
X16150Y19500D01*
X15850D01*
X16050D02*
X16250Y19300D01*
X16750D02*
Y19900D01*
X16450Y19600D01*
X16850D01*
X8000Y17100D02*
X7900Y17200D01*
X7700D01*
X7600Y17100D01*
Y16700D01*
X7700Y16600D01*
X7900D01*
X8000Y16700D01*
X8600Y16600D02*
X8200D01*
X8600Y17000D01*
Y17100D01*
X8500Y17200D01*
X8300D01*
X8200Y17100D01*
X11650Y16100D02*
X11850D01*
X11750D01*
Y15500D01*
X11650D01*
X11850D01*
X12550Y16000D02*
X12450Y16100D01*
X12250D01*
X12150Y16000D01*
Y15600D01*
X12250Y15500D01*
X12450D01*
X12550Y15600D01*
X12750Y15500D02*
X12950D01*
X12850D01*
Y16100D01*
X12750Y16000D01*
X5100Y14200D02*
Y14600D01*
X5000Y14700D01*
X4800D01*
X4700Y14600D01*
Y14200D01*
X4800Y14100D01*
X5000D01*
X4900Y14300D02*
X5100Y14100D01*
X5000D02*
X5100Y14200D01*
X5300Y14100D02*
X5500D01*
X5400D01*
Y14700D01*
X5300Y14600D01*
X14960Y4610D02*
X15360Y4010D01*
Y4610D02*
X14960Y4010D01*
X15960D02*
X15560D01*
X15960Y4410D01*
Y4510D01*
X15860Y4610D01*
X15660D01*
X15560Y4510D01*
X6160Y4610D02*
X6560Y4010D01*
Y4610D02*
X6160Y4010D01*
X6760D02*
X6960D01*
X6860D01*
Y4610D01*
X6760Y4510D01*
X17875Y14284D02*
Y14684D01*
X17775Y14784D01*
X17575D01*
X17475Y14684D01*
Y14284D01*
X17575Y14184D01*
X17775D01*
X17675Y14384D02*
X17875Y14184D01*
X17775D02*
X17875Y14284D01*
X18375Y14184D02*
Y14784D01*
X18075Y14484D01*
X18475D01*
X13270Y14290D02*
Y14690D01*
X13170Y14790D01*
X12970D01*
X12870Y14690D01*
Y14290D01*
X12970Y14190D01*
X13170D01*
X13070Y14390D02*
X13270Y14190D01*
X13170D02*
X13270Y14290D01*
X13470Y14690D02*
X13570Y14790D01*
X13770D01*
X13870Y14690D01*
Y14590D01*
X13770Y14490D01*
X13670D01*
X13770D01*
X13870Y14390D01*
Y14290D01*
X13770Y14190D01*
X13570D01*
X13470Y14290D01*
X8680D02*
Y14690D01*
X8580Y14790D01*
X8380D01*
X8280Y14690D01*
Y14290D01*
X8380Y14190D01*
X8580D01*
X8480Y14390D02*
X8680Y14190D01*
X8580D02*
X8680Y14290D01*
X9280Y14190D02*
X8880D01*
X9280Y14590D01*
Y14690D01*
X9180Y14790D01*
X8980D01*
X8880Y14690D01*
X490Y9400D02*
Y9000D01*
X690Y8800D01*
X890Y9000D01*
Y9400D01*
X1090D02*
Y8800D01*
X1390D01*
X1490Y8900D01*
Y9000D01*
X1390Y9100D01*
X1090D01*
X1390D01*
X1490Y9200D01*
Y9300D01*
X1390Y9400D01*
X1090D01*
X1690Y8800D02*
Y9200D01*
X1890Y9400D01*
X2089Y9200D01*
Y8800D01*
Y9100D01*
X1690D01*
X2289Y9400D02*
X2689D01*
X2489D01*
Y8800D01*
X490Y13600D02*
Y13200D01*
X690Y13000D01*
X890Y13200D01*
Y13600D01*
X1090D02*
Y13000D01*
X1390D01*
X1490Y13100D01*
Y13200D01*
X1390Y13300D01*
X1090D01*
X1390D01*
X1490Y13400D01*
Y13500D01*
X1390Y13600D01*
X1090D01*
X1690Y13000D02*
Y13400D01*
X1890Y13600D01*
X2089Y13400D01*
Y13000D01*
Y13300D01*
X1690D01*
X2289Y13600D02*
X2689D01*
X2489D01*
Y13000D01*
X3189Y13600D02*
X2989D01*
X2889Y13500D01*
Y13100D01*
X2989Y13000D01*
X3189D01*
X3289Y13100D01*
Y13500D01*
X3189Y13600D01*
X6850Y21540D02*
Y22140D01*
X7150D01*
X7250Y22040D01*
Y21840D01*
X7150Y21740D01*
X6850D01*
X7050D02*
X7250Y21540D01*
X7850Y22140D02*
X7650Y22040D01*
X7450Y21840D01*
Y21640D01*
X7550Y21540D01*
X7750D01*
X7850Y21640D01*
Y21740D01*
X7750Y21840D01*
X7450D01*
X3258Y27730D02*
Y27130D01*
Y27330D01*
X3658Y27730D01*
X3358Y27430D01*
X3658Y27130D01*
X3858Y27730D02*
Y27130D01*
X4258D01*
X4857D02*
X4457D01*
X4857Y27530D01*
Y27630D01*
X4757Y27730D01*
X4557D01*
X4457Y27630D01*
X5457Y27730D02*
X5057D01*
Y27430D01*
X5257Y27530D01*
X5357D01*
X5457Y27430D01*
Y27230D01*
X5357Y27130D01*
X5157D01*
X5057Y27230D01*
X5657Y27730D02*
X6057D01*
Y27630D01*
X5657Y27230D01*
Y27130D01*
X6057D01*
X13350Y27730D02*
Y27130D01*
Y27330D01*
X13750Y27730D01*
X13450Y27430D01*
X13750Y27130D01*
X13950Y27730D02*
Y27130D01*
X14350D01*
X14949D02*
X14550D01*
X14949Y27530D01*
Y27630D01*
X14850Y27730D01*
X14650D01*
X14550Y27630D01*
X15549Y27730D02*
X15149D01*
Y27430D01*
X15349Y27530D01*
X15449D01*
X15549Y27430D01*
Y27230D01*
X15449Y27130D01*
X15249D01*
X15149Y27230D01*
X15749Y27730D02*
X16149D01*
Y27630D01*
X15749Y27230D01*
Y27130D01*
X16149D01*
X16349D02*
X16549D01*
X16449D01*
Y27730D01*
X16349Y27630D01*
X8700Y22530D02*
X8600Y22630D01*
X8400D01*
X8300Y22530D01*
Y22130D01*
X8400Y22030D01*
X8600D01*
X8700Y22130D01*
X8900Y22530D02*
X9000Y22630D01*
X9200D01*
X9300Y22530D01*
Y22430D01*
X9200Y22330D01*
X9100D01*
X9200D01*
X9300Y22230D01*
Y22130D01*
X9200Y22030D01*
X9000D01*
X8900Y22130D01*
D49*
X9450Y3484D02*
X9521Y3555D01*
X9662D01*
X9733Y3484D01*
Y3413D01*
X9662Y3342D01*
X9592D01*
X9662D01*
X9733Y3272D01*
Y3201D01*
X9662Y3130D01*
X9521D01*
X9450Y3201D01*
X8353Y3130D02*
X8070D01*
X8353Y3413D01*
Y3484D01*
X8282Y3555D01*
X8141D01*
X8070Y3484D01*
X6695Y3130D02*
X6837D01*
X6766D01*
Y3555D01*
X6695Y3484D01*
X18250D02*
X18321Y3555D01*
X18462D01*
X18533Y3484D01*
Y3413D01*
X18462Y3342D01*
X18392D01*
X18462D01*
X18533Y3272D01*
Y3201D01*
X18462Y3130D01*
X18321D01*
X18250Y3201D01*
X17153Y3130D02*
X16870D01*
X17153Y3413D01*
Y3484D01*
X17082Y3555D01*
X16941D01*
X16870Y3484D01*
X15495Y3130D02*
X15637D01*
X15566D01*
Y3555D01*
X15495Y3484D01*
X970Y11993D02*
Y11710D01*
X687Y11993D01*
X616D01*
X545Y11922D01*
Y11781D01*
X616Y11710D01*
X970Y10334D02*
Y10475D01*
Y10405D01*
X545D01*
X616Y10334D01*
X970Y7793D02*
Y7510D01*
X687Y7793D01*
X616D01*
X545Y7722D01*
Y7581D01*
X616Y7510D01*
X970Y6134D02*
Y6275D01*
Y6205D01*
X545D01*
X616Y6134D01*
D50*
X10805Y16650D02*
D03*
Y17150D02*
D03*
X13795Y16650D02*
D03*
Y17150D02*
D03*
Y17650D02*
D03*
Y18150D02*
D03*
Y18650D02*
D03*
Y19150D02*
D03*
Y19650D02*
D03*
Y20150D02*
D03*
Y20650D02*
D03*
Y21150D02*
D03*
X10805Y17650D02*
D03*
Y18150D02*
D03*
Y18650D02*
D03*
Y19150D02*
D03*
Y19650D02*
D03*
Y20150D02*
D03*
Y20650D02*
D03*
Y21150D02*
D03*
D51*
X6661Y6789D02*
D03*
X5661D02*
D03*
X4661D02*
D03*
X11257D02*
D03*
X10257D02*
D03*
X9257D02*
D03*
X15854D02*
D03*
X14854D02*
D03*
X13854D02*
D03*
X20450D02*
D03*
X19450D02*
D03*
X18450D02*
D03*
D52*
X4661Y6114D02*
D03*
X5661D02*
D03*
X6661D02*
D03*
X9257D02*
D03*
X10257D02*
D03*
X11257D02*
D03*
X13854D02*
D03*
X14854D02*
D03*
X15854D02*
D03*
X18450D02*
D03*
X19450D02*
D03*
X20450D02*
D03*
M02*
