%FSTAX24Y24*%
%MOIN*%
%SFA1B1*%

%IPPOS*%
%ADD49C,0.005000*%
%LNmotor_driver-1*%
%LPD*%
G54D49*
X0009Y0011D02*
X0021D01*
X0015Y0005D02*
Y0017D01*
X0009Y02635D02*
X0021D01*
X0015Y02575D02*
Y02695D01*
X02Y0011D02*
X0212D01*
X0206Y0005D02*
Y0017D01*
X01995Y02635D02*
X02115D01*
X02055Y02575D02*
Y02695D01*
X0064Y02535D02*
X0068D01*
X0066Y02515D02*
Y02555D01*
X007384Y02535D02*
X007784D01*
X007584Y02515D02*
Y02555D01*
X005408Y02535D02*
X005808D01*
X005608Y02515D02*
Y02555D01*
X004428Y02535D02*
X004828D01*
X004628Y02515D02*
Y02555D01*
X016492Y02535D02*
X016892D01*
X016692Y02515D02*
Y02555D01*
X017476Y02535D02*
X017876D01*
X017676Y02515D02*
Y02555D01*
X0155Y02535D02*
X0159D01*
X0157Y02515D02*
Y02555D01*
X01452Y02535D02*
X01492D01*
X01472Y02515D02*
Y02555D01*
X001669Y006311D02*
X002109D01*
X001889Y006091D02*
Y006531D01*
X001669Y00769D02*
X002109D01*
X001889Y00747D02*
Y00791D01*
X001669Y010511D02*
X002109D01*
X001889Y010291D02*
Y010731D01*
X001669Y01189D02*
X002109D01*
X001889Y01167D02*
Y01211D01*
X01823Y005339D02*
X01867D01*
X01845Y005119D02*
Y005559D01*
X01923Y005339D02*
X01967D01*
X01945Y005119D02*
Y005559D01*
X02023Y005339D02*
X02067D01*
X02045Y005119D02*
Y005559D01*
X0188Y012239D02*
X0201D01*
X01945Y011589D02*
Y012889D01*
X013634Y005339D02*
X014074D01*
X013854Y005119D02*
Y005559D01*
X014634Y005339D02*
X015074D01*
X014854Y005119D02*
Y005559D01*
X015634Y005339D02*
X016074D01*
X015854Y005119D02*
Y005559D01*
X014204Y012239D02*
X015504D01*
X014854Y011589D02*
Y012889D01*
X009037Y005339D02*
X009477D01*
X009257Y005119D02*
Y005559D01*
X010037Y005339D02*
X010477D01*
X010257Y005119D02*
Y005559D01*
X011037Y005339D02*
X011477D01*
X011257Y005119D02*
Y005559D01*
X009607Y012239D02*
X010907D01*
X010257Y011589D02*
Y012889D01*
X015452Y002211D02*
X015892D01*
X015672Y001991D02*
Y002431D01*
X01683Y002211D02*
X01727D01*
X01705Y001991D02*
Y002431D01*
X01821Y002211D02*
X01865D01*
X01843Y001991D02*
Y002431D01*
X006652Y002211D02*
X007092D01*
X006872Y001991D02*
Y002431D01*
X00803Y002211D02*
X00847D01*
X00825Y001991D02*
Y002431D01*
X00941Y002211D02*
X00985D01*
X00963Y001991D02*
Y002431D01*
X004441Y005339D02*
X004881D01*
X004661Y005119D02*
Y005559D01*
X005441Y005339D02*
X005881D01*
X005661Y005119D02*
Y005559D01*
X006441Y005339D02*
X006881D01*
X006661Y005119D02*
Y005559D01*
X005011Y012239D02*
X006311D01*
X005661Y011589D02*
Y012889D01*
X01644Y023D02*
X01676D01*
X0166Y02284D02*
Y02316D01*
X01344Y023D02*
X01376D01*
X0136Y02284D02*
Y02316D01*
X01069Y0232D02*
X01101D01*
X01085Y02304D02*
Y02336D01*
X00769Y0232D02*
X00801D01*
X00785Y02304D02*
Y02336D01*
X00301Y00425D02*
X00329D01*
X00315Y00411D02*
Y00439D01*
X01206Y00285D02*
X01234D01*
X0122Y00271D02*
Y00299D01*
X01996Y0027D02*
X02024D01*
X0201Y00256D02*
Y00284D01*
X01601Y0169D02*
X01629D01*
X01615Y01676D02*
Y01704D01*
X00391Y01925D02*
X00419D01*
X00405Y01911D02*
Y01939D01*
X00936Y01865D02*
X00964D01*
X0095Y01851D02*
Y01879D01*
X00256Y01725D02*
X00284D01*
X0027Y01711D02*
Y01739D01*
X00686Y01675D02*
X00714D01*
X007Y01661D02*
Y01689D01*
X01311Y01915D02*
X01339D01*
X01325Y01901D02*
Y01929D01*
X01136Y0182D02*
X01164D01*
X0115Y01806D02*
Y01834D01*
X01131Y01995D02*
X01159D01*
X01145Y01981D02*
Y02009D01*
X01281Y01995D02*
X01309D01*
X01295Y01981D02*
Y02009D01*
X00831Y01785D02*
X00859D01*
X00845Y01771D02*
Y01799D01*
X01791Y02005D02*
X01819D01*
X01805Y01991D02*
Y02019D01*
X01931Y0186D02*
X01959D01*
X01945Y01846D02*
Y01874D01*
X01931Y0096D02*
X01959D01*
X01945Y00946D02*
Y00974D01*
X01659Y01762D02*
X01687D01*
X01673Y01748D02*
Y01776D01*
X01516Y01985D02*
X01544D01*
X0153Y01971D02*
Y01999D01*
X01471Y00945D02*
X01499D01*
X01485Y00931D02*
Y00959D01*
X00796Y0144D02*
X00824D01*
X0081Y01426D02*
Y01454D01*
X00516Y0091D02*
X00544D01*
X0053Y00896D02*
Y00924D01*
X00161Y0165D02*
X00189D01*
X00175Y01636D02*
Y01664D01*
X00261Y02275D02*
X00289D01*
X00275Y02261D02*
Y02289D01*
X00226Y01895D02*
X00254D01*
X0024Y01881D02*
Y01909D01*
X00651Y0146D02*
X00679D01*
X00665Y01446D02*
Y01474D01*
X00676Y01575D02*
X00704D01*
X0069Y01561D02*
Y01589D01*
X01216Y01765D02*
X01244D01*
X0123Y01751D02*
Y01779D01*
X00241Y01535D02*
X00269D01*
X00255Y01521D02*
Y01549D01*
X00286Y0196D02*
X00314D01*
X003Y01946D02*
Y01974D01*
X00276Y02175D02*
X00304D01*
X0029Y02161D02*
Y02189D01*
M02*