%FSTAX23Y23*%
%MOIN*%
%SFA1B1*%

%IPPOS*%
%AMD40*
4,1,8,-0.012000,-0.024000,0.012000,-0.024000,0.024000,-0.012000,0.024000,0.012000,0.012000,0.024000,-0.012000,0.024000,-0.024000,0.012000,-0.024000,-0.012000,-0.012000,-0.024000,0.0*
%
%ADD10R,0.080000X0.026000*%
%ADD11R,0.052000X0.060000*%
%ADD12R,0.052000X0.063000*%
%ADD13R,0.060000X0.052000*%
%ADD14R,0.063000X0.052000*%
%ADD15C,0.035000*%
%ADD16C,0.070000*%
%ADD17C,0.060000*%
%ADD18R,0.007900X0.031800*%
%ADD19R,0.015900X0.047600*%
%ADD20R,0.031800X0.007900*%
%ADD21R,0.047600X0.015900*%
%ADD22R,0.007900X0.031800*%
%ADD23C,0.000000*%
%ADD24C,0.003900*%
%ADD25C,0.024000*%
%ADD26C,0.006000*%
%ADD27C,0.004000*%
%ADD28R,0.010000X0.024000*%
%ADD29R,0.045000X0.020000*%
%ADD30R,0.030000X0.057500*%
%ADD31R,0.029500X0.057500*%
%ADD32R,0.014000X0.056000*%
%ADD33R,0.057500X0.030000*%
%ADD34R,0.057500X0.029500*%
%ADD35R,0.058000X0.020000*%
%ADD36R,0.030000X0.075000*%
%ADD37R,0.056000X0.014000*%
%ADD38C,0.002000*%
%ADD39R,0.150000X0.150000*%
G04~CAMADD=40~4~0.0~0.0~480.0~480.0~0.0~120.0~0~0.0~0.0~0.0~0.0~0~0.0~0.0~0.0~0.0~0~0.0~0.0~0.0~180.0~480.0~480.0*
%ADD40D40*%
%ADD41C,0.130000*%
%ADD42O,0.066000X0.132000*%
%ADD43C,0.067000*%
%ADD44O,0.060000X0.120000*%
%ADD45C,0.050000*%
%LNmotor_driver-1*%
%LPD*%
G36*
X01922Y01831D02*
Y01475D01*
X0145*
Y01642*
X0154*
X01578Y01603*
X01586Y01598*
X01595Y01597*
X0167*
X01678Y01598*
X01686Y01603*
X01896Y01813*
X01901Y01821*
X01902Y0183*
Y01833*
X01908Y01838*
X01922Y01831*
G37*
G36*
X0219Y01475D02*
D01*
X01967*
Y0184*
X01973Y01848*
X01975Y0186*
X01973Y01871*
X01966Y01881*
X01956Y01888*
X01945Y0189*
X01933Y01888*
X01923Y01881*
X01905Y01882*
X01902Y01885*
Y02605*
X01901Y02613*
X01896Y02621*
X01801Y02716*
X01793Y02721*
X01785Y02722*
X0117*
X01161Y02721*
X01153Y02716*
X00786Y02349*
X0077*
X00756Y02334*
Y02305*
X00762Y02299*
Y02202*
X00763Y02193*
X00768Y02186*
X00825Y0213*
Y02106*
Y02096*
Y02093*
Y02091*
Y02081*
Y02077*
X00822Y02074*
X00806Y02071*
X00778Y02098*
X00771Y02103*
X00762Y02105*
X00751*
Y02113*
X00678*
Y02051*
Y02038*
Y01976*
X00713*
X00727Y01962*
Y019*
X00712Y01899*
X00711Y01903*
X00706Y01911*
X00628Y01988*
Y02007*
X00651*
Y02042*
Y02043*
Y0205*
Y02057*
Y02058*
Y02092*
Y02093*
Y021*
Y02107*
Y02108*
Y02142*
Y02143*
Y0215*
Y02157*
Y02158*
Y02192*
Y02193*
Y022*
Y02207*
Y02208*
Y02242*
Y02243*
Y0225*
Y02257*
Y02258*
Y02292*
Y02293*
Y023*
Y02307*
Y02308*
Y02343*
X00561*
Y02308*
Y02307*
Y023*
Y02293*
Y02292*
Y02258*
Y02257*
Y0225*
Y02243*
Y02242*
Y02208*
Y02207*
Y022*
Y02193*
Y02192*
Y02158*
Y02157*
Y0215*
Y02143*
Y02142*
Y02112*
Y02107*
X00549Y02097*
X00549*
X00532Y02114*
Y02375*
X00588Y0243*
X00591Y02431*
X00598Y02436*
X00639Y02476*
X00646Y02472*
X0066Y02469*
X00673Y02472*
X00685Y02479*
X00693Y02491*
X00695Y02505*
Y02565*
X00693Y02578*
X00685Y0259*
X00673Y02598*
X0066Y026*
X00646Y02598*
X00634Y0259*
X00627Y02578*
X00624Y02565*
Y02526*
X00611Y02513*
X00596Y0252*
Y02565*
X00593Y02578*
X00586Y0259*
X00574Y02598*
X0056Y026*
X00547Y02598*
X00535Y0259*
X00527Y02578*
X00525Y02565*
Y02505*
X00525Y02503*
X00509Y02486*
X00496Y02495*
X00498Y02505*
Y02565*
X00495Y02578*
X00488Y0259*
X00476Y02598*
X00462Y026*
X00452Y02598*
X00444Y02608*
X00443Y02611*
X00454Y02622*
X00735*
Y02591*
X00733Y0259*
X00725Y02578*
X00722Y02565*
Y02505*
X00725Y02491*
X00733Y02479*
X00744Y02472*
X00758Y02469*
X00772Y02472*
X00783Y02479*
X00791Y02491*
X00794Y02505*
Y02565*
X00791Y02578*
X00783Y0259*
X00781Y02591*
Y02645*
X00779Y02653*
X00774Y02661*
X00767Y02666*
X00758Y02667*
X00445*
X00436Y02666*
X00428Y02661*
X00158Y02391*
X00153Y02383*
X00152Y02375*
Y02125*
X00153Y02116*
X00158Y02108*
X00166Y02103*
X00175Y02102*
X00307*
X00319Y02093*
Y02087*
Y02058*
Y02057*
Y0205*
Y02043*
Y02042*
Y02007*
X00409*
Y02022*
X00424Y02028*
X00447Y02005*
Y0195*
X00444Y01947*
X00426Y01946*
X00416Y01953*
X00405Y01955*
X00393Y01953*
X00383Y01946*
X00376Y01936*
X00374Y01927*
X00342Y01895*
X00337Y01887*
X00336Y01879*
Y01843*
X00314*
Y01814*
X00299Y01808*
X00267Y01839*
Y01882*
X00268Y01883*
X0027Y01895*
X00268Y01906*
X00261Y01916*
X00262Y01934*
X00265Y01937*
X0028*
X00288Y01931*
X003Y01929*
X00311Y01931*
X00321Y01938*
X00328Y01948*
X0033Y0196*
X00328Y01971*
X00321Y01981*
X00311Y01988*
X003Y0199*
X00288Y01988*
X0028Y01982*
X0019*
X00181Y01981*
X00173Y01976*
X00093Y01896*
X00088Y01888*
X00087Y0188*
Y0158*
X00088Y01571*
X00093Y01563*
X00148Y01508*
X00156Y01503*
X00165Y01502*
X00173Y01503*
X00181Y01508*
X00209Y01537*
X00215Y01536*
X00225Y01531*
X00226Y01523*
X00233Y01513*
X00243Y01506*
X00255Y01504*
X00266Y01506*
X00276Y01513*
X00283Y01523*
X00285Y01532*
X00301Y01549*
X00314Y0154*
Y01537*
Y01507*
X00404*
Y01542*
Y01543*
Y0155*
Y01557*
Y01558*
Y01593*
Y01607*
Y01643*
Y01657*
Y01693*
Y01707*
Y01742*
Y01743*
Y0175*
Y01757*
Y01758*
Y01792*
Y01793*
Y018*
Y01807*
Y01808*
Y01843*
X00381*
Y01869*
X00407Y01894*
X00416Y01896*
X00426Y01903*
X00444Y01902*
X00447Y019*
Y01625*
X00448Y01616*
X00453Y01608*
X00461Y01603*
X0047Y01602*
X00544*
X00556Y01593*
Y01587*
Y01558*
Y01557*
Y0155*
Y01543*
Y01542*
Y01507*
X00585*
X00603Y01488*
X00598Y01475*
X0001*
X0Y01485*
Y02815*
X0219*
Y01475*
G37*
G36*
Y01402D02*
Y0D01*
X00007*
X0Y00007*
Y0141*
X00808*
X0081Y01409*
X00812Y0141*
X00844*
X00848Y014*
X0083Y01382*
X00785*
X00776Y01381*
X00768Y01376*
X00748Y01356*
X00743Y01348*
X00742Y0134*
Y01154*
X00527Y00939*
X00522Y00939*
X00514Y00936*
X00508Y00931*
X00503Y00925*
X005Y00917*
X00499Y0091*
X005Y00902*
X00503Y00894*
X00508Y00888*
X00514Y00883*
X00522Y0088*
X0053Y00879*
X00537Y0088*
X00545Y00883*
X00551Y00888*
X00556Y00894*
X00559Y00902*
X00559Y00907*
X00781Y01128*
X00786Y01136*
X00787Y01145*
Y0133*
X00794Y01337*
X0084*
X00848Y01338*
X00856Y01343*
X00901Y01388*
X00906Y01396*
X00907Y01405*
Y0141*
X01405*
Y01387*
X01338Y01321*
X01333Y01313*
X01332Y01305*
Y01075*
X01333Y01066*
X01338Y01058*
X01455Y00942*
X01455Y00937*
X01458Y00929*
X01463Y00923*
X01469Y00918*
X01477Y00915*
X01485Y00914*
X01492Y00915*
X015Y00918*
X01506Y00923*
X01511Y00929*
X01514Y00937*
X01515Y00945*
X01514Y00952*
X01511Y0096*
X01506Y00966*
X015Y00971*
X01492Y00974*
X01487Y00974*
X01377Y01084*
Y01295*
X01444Y01361*
X01449Y01369*
X0145Y01378*
Y0141*
X01889*
X01893Y014*
X01793Y01301*
X01788Y01293*
X01787Y01285*
Y01183*
X01788Y01175*
X01793Y01167*
X01922Y01039*
Y00979*
X01918Y00975*
X01915Y00967*
X01914Y0096*
X01915Y00952*
X01918Y00944*
X01923Y00938*
X01929Y00933*
X01937Y0093*
X01945Y00929*
X01952Y0093*
X0196Y00933*
X01966Y00938*
X01971Y00944*
X01974Y00952*
X01975Y0096*
X01974Y00967*
X01971Y00975*
X01967Y00979*
Y01048*
X01966Y01057*
X01961Y01065*
X01832Y01193*
Y01275*
X01961Y01403*
X01965Y0141*
X02182*
X0219Y01402*
G37*
G36*
X01857Y02595D02*
Y01839D01*
X0166Y01642*
X01639*
X01638Y01645*
X0164Y01664*
X01648Y01676*
X01649Y01685*
X01615*
Y0169*
X0161*
Y01724*
X01601Y01723*
X01589Y01715*
X01582Y01703*
X01579Y0169*
X01579Y01689*
X01567Y01682*
X01565Y01681*
X01558Y01686*
X0155Y01687*
X01491*
X01478Y01692*
Y01702*
Y0171*
X01378*
Y01695*
Y01692*
Y01692*
X01383Y01679*
Y01677*
Y01647*
X01405*
Y01475*
X00907*
Y01505*
X00906Y01513*
X00901Y01521*
X00871Y01551*
X00863Y01556*
X00855Y01557*
X00822*
Y01745*
X00825Y01748*
X00837Y01755*
X00845Y01754*
X00856Y01756*
X00862Y0176*
X00875Y01751*
Y01724*
X0091*
Y01755*
X00879*
X00869Y01767*
X00873Y01773*
X00875Y01782*
X00884Y01792*
X00975*
X00987Y01783*
Y01777*
Y01753*
Y0175*
X00982Y01738*
Y01737*
Y01734*
Y0172*
X01082*
Y01727*
Y01738*
X01095Y01742*
X0121*
X01218Y01736*
X0123Y01734*
X01241Y01736*
X01251Y01743*
X01258Y01753*
X0126Y01765*
X01258Y01776*
X01251Y01786*
X01241Y01793*
X0123Y01795*
X01218Y01793*
X0121Y01787*
X01181*
X0118Y01788*
X01174Y01802*
X01178Y01808*
X0118Y0182*
X01178Y01831*
X01172Y01839*
Y01879*
X01187Y0188*
X01188Y01876*
X01193Y01868*
X01313Y01748*
X01321Y01743*
X0133Y01742*
X01364*
X01378Y01738*
Y01727*
Y0172*
X01478*
Y01734*
Y01737*
Y01738*
X01473Y0175*
Y01753*
Y01777*
Y01779*
X01478Y01792*
Y01792*
Y01795*
Y0181*
X01378*
Y01802*
Y01792*
X01364Y01787*
X01339*
X01232Y01894*
Y02075*
X01279Y02122*
X01284Y02129*
X01286Y02138*
Y0217*
X01294*
Y0224*
X01242*
X01232*
X01229*
X01227*
X01217*
X01165*
Y02195*
X01123Y02154*
X01118Y02146*
X01117Y02138*
Y02087*
X01088*
X01077Y02097*
Y02102*
Y02133*
X01046*
X01035Y02143*
X01028Y02148*
X01019Y0215*
X00895*
Y02158*
X00861*
X00807Y02212*
Y02299*
X00814Y02305*
Y02311*
X01054Y02552*
X01067Y02543*
X01065Y02535*
X01095*
Y02564*
X01086Y02563*
X01077Y02575*
X01179Y02677*
X01775*
X01857Y02595*
G37*
%LNmotor_driver-2*%
%LPC*%
G36*
X0112Y00528D02*
X01082D01*
Y005*
X01083Y00489*
X01088Y00479*
X01095Y0047*
X01104Y00463*
X01114Y00459*
X0112Y00458*
Y00528*
G37*
G36*
X01169D02*
X0113D01*
Y00458*
X01136Y00459*
X01147Y00463*
X01156Y0047*
X01163Y00479*
X01167Y00489*
X01169Y005*
Y00528*
G37*
G36*
X0204D02*
X02001D01*
Y005*
X02003Y00489*
X02007Y00479*
X02014Y0047*
X02023Y00463*
X02033Y00459*
X0204Y00458*
Y00528*
G37*
G36*
X01025Y00605D02*
X01015Y00603D01*
X01006Y006*
X00998Y00594*
X00992Y00586*
X00988Y00576*
X00987Y00566*
Y005*
X00988Y00491*
X0099Y00486*
Y00445*
X00955Y0041*
X00839*
X00704Y00545*
Y00566*
X00703Y00576*
X00699Y00586*
X00693Y00594*
X00685Y006*
X00676Y00603*
X00666Y00605*
X00656Y00603*
X00646Y006*
X00639Y00594*
X00632Y00586*
X00629Y00576*
X00627Y00566*
Y005*
X00629Y00491*
X00632Y00481*
X00639Y00473*
X00646Y00467*
X00656Y00463*
X00666Y00462*
X00676Y00463*
X00683Y00466*
X00789Y0036*
Y00236*
X00787Y00231*
X00786Y00221*
X00787Y00211*
X00791Y00201*
X00797Y00193*
X00805Y00187*
X00814Y00183*
X00825Y00182*
X00835Y00183*
X00844Y00187*
X00852Y00193*
X00858Y00201*
X00862Y00211*
X00863Y00221*
X00862Y00231*
X0086Y00236*
Y00339*
X0097*
X00979Y0034*
X00987Y00344*
X00994Y0035*
X0105Y00405*
X01056Y00413*
X01059Y00421*
X01061Y0043*
Y00486*
X01062Y00491*
X01064Y005*
Y00566*
X01062Y00576*
X01058Y00586*
X01052Y00594*
X01044Y006*
X01035Y00603*
X01025Y00605*
G37*
G36*
X00349Y0042D02*
X0032D01*
Y0039*
X00324Y0039*
X00332Y00394*
X0034Y004*
X00345Y00407*
X00349Y00415*
X00349Y0042*
G37*
G36*
X0031D02*
X0028D01*
X0028Y00415*
X00284Y00407*
X0029Y004*
X00297Y00394*
X00305Y0039*
X0031Y0039*
Y0042*
G37*
G36*
X01945Y00605D02*
X01935Y00603D01*
X01925Y006*
X01917Y00594*
X01911Y00586*
X01908Y00576*
X01906Y00566*
Y005*
X01908Y00491*
X01909Y00486*
Y00435*
X01824*
X01701Y00558*
X01693Y00564*
X01685Y00568*
X01676Y00569*
X01623*
X01622Y00576*
X01618Y00586*
X01612Y00594*
X01604Y006*
X01595Y00603*
X01585Y00605*
X01575Y00603*
X01566Y006*
X01558Y00594*
X01552Y00586*
X01548Y00576*
X01547Y00566*
Y00545*
X01546Y00544*
X01545Y00533*
Y0034*
X01546Y0033*
X0155Y0032*
X01556Y00312*
X01676Y00192*
X01684Y00186*
X01694Y00182*
X01705Y0018*
X01715Y00182*
X01725Y00186*
X01733Y00192*
X01739Y002*
X01744Y0021*
X01745Y00221*
X01744Y00231*
X01739Y00241*
X01733Y00249*
X01625Y00357*
Y00498*
X01661*
X01785Y00375*
X01792Y00369*
X018Y00365*
X0181Y00364*
X01925*
X01934Y00365*
X01942Y00369*
X0195Y00375*
X0197Y00395*
X01975Y00402*
X01979Y0041*
X0198Y0042*
Y00486*
X01982Y00491*
X01983Y005*
Y00566*
X01982Y00576*
X01978Y00586*
X01972Y00594*
X01964Y006*
X01954Y00603*
X01945Y00605*
G37*
G36*
X0032Y00459D02*
Y0043D01*
X00349*
X00349Y00434*
X00345Y00442*
X0034Y0045*
X00332Y00455*
X00324Y00459*
X0032Y00459*
G37*
G36*
X0031D02*
X00305Y00459D01*
X00297Y00455*
X0029Y0045*
X00284Y00442*
X0028Y00434*
X0028Y0043*
X0031*
Y00459*
G37*
G36*
X02088Y00528D02*
X0205D01*
Y00458*
X02056Y00459*
X02066Y00463*
X02075Y0047*
X02082Y00479*
X02086Y00489*
X02088Y005*
Y00528*
G37*
G36*
X0205Y00609D02*
Y00538D01*
X02088*
Y00566*
X02086Y00578*
X02082Y00588*
X02075Y00597*
X02066Y00604*
X02056Y00608*
X0205Y00609*
G37*
G36*
X0204D02*
X02033Y00608D01*
X02023Y00604*
X02014Y00597*
X02007Y00588*
X02003Y00578*
X02001Y00566*
Y00538*
X0204*
Y00609*
G37*
G36*
X00188Y01091D02*
X00178Y0109D01*
X00168Y01086*
X0016Y01079*
X00081Y01*
X00075Y00992*
X00071Y00982*
X00069Y00972*
Y0071*
X00071Y00699*
X00075Y00689*
X00081Y00681*
X0016Y00602*
X00168Y00596*
X00178Y00592*
X00188Y0059*
X00199Y00592*
X00209Y00596*
X00217Y00602*
X00223Y0061*
X00227Y0062*
X00229Y00631*
X00227Y00641*
X00223Y00651*
X00217Y00659*
X00154Y00723*
X00153Y00725*
X00154Y00728*
X00165Y00732*
X00167Y00731*
X00177Y00726*
X00183Y00725*
Y00769*
Y00812*
X00177Y00811*
X00167Y00807*
X0016Y00801*
X00152Y00804*
X0015Y00806*
Y00955*
X00217Y01022*
X00223Y0103*
X00227Y0104*
X00229Y01051*
X00227Y01061*
X00223Y01071*
X00217Y01079*
X00209Y01086*
X00199Y0109*
X00188Y01091*
G37*
G36*
X00193Y00812D02*
Y00774D01*
X00232*
X00231Y0078*
X00226Y0079*
X0022Y008*
X0021Y00807*
X002Y00811*
X00193Y00812*
G37*
G36*
X00232Y00764D02*
X00193D01*
Y00725*
X002Y00726*
X0021Y00731*
X0022Y00738*
X00226Y00747*
X00231Y00757*
X00232Y00764*
G37*
G36*
X0113Y00609D02*
Y00538D01*
X01169*
Y00566*
X01167Y00578*
X01163Y00588*
X01156Y00597*
X01147Y00604*
X01136Y00608*
X0113Y00609*
G37*
G36*
X00925Y00605D02*
X00915Y00603D01*
X00906Y006*
X00898Y00594*
X00892Y00586*
X00888Y00576*
X00887Y00566*
Y005*
X00888Y00491*
X00892Y00481*
X00898Y00473*
X00906Y00467*
X00915Y00463*
X00925Y00462*
X00935Y00463*
X00944Y00467*
X00952Y00473*
X00958Y00481*
X00962Y00491*
X00964Y005*
Y00566*
X00962Y00576*
X00958Y00586*
X00952Y00594*
X00944Y006*
X00935Y00603*
X00925Y00605*
G37*
G36*
X00466D02*
X00456Y00603D01*
X00446Y006*
X00439Y00594*
X00432Y00586*
X00429Y00576*
X00427Y00566*
Y005*
X00429Y00491*
X00432Y00481*
X00439Y00473*
X00446Y00467*
X00456Y00463*
X00466Y00462*
X00476Y00463*
X00485Y00467*
X00493Y00473*
X00499Y00481*
X00503Y00491*
X00504Y005*
Y00566*
X00503Y00576*
X00499Y00586*
X00493Y00594*
X00485Y006*
X00476Y00603*
X00466Y00605*
G37*
G36*
X01385D02*
X01375Y00603D01*
X01366Y006*
X01358Y00594*
X01352Y00586*
X01348Y00576*
X01347Y00566*
Y005*
X01348Y00491*
X01352Y00481*
X01358Y00473*
X01366Y00467*
X01375Y00463*
X01385Y00462*
X01395Y00463*
X01404Y00467*
X01412Y00473*
X01418Y00481*
X01422Y00491*
X01423Y005*
Y00566*
X01422Y00576*
X01418Y00586*
X01412Y00594*
X01404Y006*
X01395Y00603*
X01385Y00605*
G37*
G36*
X0112Y00609D02*
X01114Y00608D01*
X01104Y00604*
X01095Y00597*
X01088Y00588*
X01083Y00578*
X01082Y00566*
Y00538*
X0112*
Y00609*
G37*
G36*
X01845Y00605D02*
X01835Y00603D01*
X01825Y006*
X01817Y00594*
X01811Y00586*
X01808Y00576*
X01806Y00566*
Y005*
X01808Y00491*
X01811Y00481*
X01817Y00473*
X01825Y00467*
X01835Y00463*
X01845Y00462*
X01854Y00463*
X01864Y00467*
X01872Y00473*
X01878Y00481*
X01882Y00491*
X01883Y005*
Y00566*
X01882Y00576*
X01878Y00586*
X01872Y00594*
X01864Y006*
X01854Y00603*
X01845Y00605*
G37*
G36*
X01225Y00319D02*
Y0029D01*
X01254*
X01254Y00294*
X0125Y00302*
X01245Y0031*
X01237Y00315*
X01229Y00319*
X01225Y00319*
G37*
G36*
X01485Y00605D02*
X01475Y00603D01*
X01466Y006*
X01458Y00594*
X01452Y00586*
X01448Y00576*
X01447Y00566*
Y00545*
X01446Y00544*
X01445Y00533*
Y00302*
X01446Y00292*
X0145Y00282*
X01456Y00274*
X0151Y00221*
X01439Y0015*
X00815*
X00722Y00242*
Y00337*
X00721Y00346*
X00717Y00355*
X00712Y00362*
X00601Y00473*
Y00486*
X00603Y00491*
X00604Y005*
Y00566*
X00603Y00576*
X00599Y00586*
X00593Y00594*
X00585Y006*
X00576Y00603*
X00566Y00605*
X00556Y00603*
X00546Y006*
X00539Y00594*
X00532Y00586*
X00529Y00576*
X00527Y00566*
Y005*
X00529Y00491*
X0053Y00486*
Y00458*
X00532Y00449*
X00535Y00441*
X00541Y00434*
X00651Y00323*
Y0024*
X00648Y00231*
X00646Y00221*
X00648Y0021*
X00652Y002*
X00658Y00192*
X00769Y00081*
X00778Y00075*
X00787Y00071*
X00798Y00069*
X01456*
X01466Y00071*
X01476Y00075*
X01484Y00081*
X01595Y00192*
X01602Y002*
X01606Y0021*
X01607Y00221*
X01606Y00231*
X01602Y00241*
X01595Y00249*
X01525Y00319*
Y00533*
X01524Y00544*
X01523Y00545*
Y00566*
X01522Y00576*
X01518Y00586*
X01512Y00594*
X01504Y006*
X01495Y00603*
X01485Y00605*
G37*
G36*
X02145Y00195D02*
X02065D01*
Y00115*
X02145*
Y00195*
G37*
G36*
X02055D02*
X01975D01*
Y00115*
X02055*
Y00195*
G37*
G36*
X01838Y00216D02*
X01799D01*
X018Y00209*
X01805Y00199*
X01812Y0019*
X01821Y00183*
X01831Y00178*
X01838Y00177*
Y00216*
G37*
G36*
X01006D02*
X00968D01*
Y00177*
X00974Y00178*
X00984Y00183*
X00994Y0019*
X01001Y00199*
X01005Y00209*
X01006Y00216*
G37*
G36*
X00958D02*
X00919D01*
X0092Y00209*
X00925Y00199*
X00932Y0019*
X00941Y00183*
X00951Y00178*
X00958Y00177*
Y00216*
G37*
G36*
X02055Y00105D02*
X01975D01*
Y00025*
X02055*
Y00105*
G37*
G36*
X00235D02*
X00155D01*
Y00025*
X00235*
Y00105*
G37*
G36*
X00145D02*
X00065D01*
Y00025*
X00145*
Y00105*
G37*
G36*
X00235Y00195D02*
X00155D01*
Y00115*
X00235*
Y00195*
G37*
G36*
X00145D02*
X00065D01*
Y00115*
X00145*
Y00195*
G37*
G36*
X02145Y00105D02*
X02065D01*
Y00025*
X02145*
Y00105*
G37*
G36*
X01254Y0028D02*
X01225D01*
Y0025*
X01229Y0025*
X01237Y00254*
X01245Y0026*
X0125Y00267*
X01254Y00275*
X01254Y0028*
G37*
G36*
X01215D02*
X01185D01*
X01185Y00275*
X01189Y00267*
X01195Y0026*
X01202Y00254*
X0121Y0025*
X01215Y0025*
Y0028*
G37*
G36*
X02044Y00265D02*
X02015D01*
Y00235*
X02019Y00235*
X02027Y00239*
X02035Y00245*
X0204Y00252*
X02044Y0026*
X02044Y00265*
G37*
G36*
X01215Y00319D02*
X0121Y00319D01*
X01202Y00315*
X01195Y0031*
X01189Y00302*
X01185Y00294*
X01185Y0029*
X01215*
Y00319*
G37*
G36*
X02015Y00304D02*
Y00275D01*
X02044*
X02044Y00279*
X0204Y00287*
X02035Y00295*
X02027Y003*
X02019Y00304*
X02015Y00304*
G37*
G36*
X02005D02*
X02Y00304D01*
X01992Y003*
X01985Y00295*
X01979Y00287*
X01975Y00279*
X01975Y00275*
X02005*
Y00304*
G37*
G36*
X00968Y00264D02*
Y00226D01*
X01006*
X01005Y00232*
X01001Y00243*
X00994Y00252*
X00984Y00259*
X00974Y00263*
X00968Y00264*
G37*
G36*
X00958D02*
X00951Y00263D01*
X00941Y00259*
X00932Y00252*
X00925Y00243*
X0092Y00232*
X00919Y00226*
X00958*
Y00264*
G37*
G36*
X01886Y00216D02*
X01848D01*
Y00177*
X01854Y00178*
X01864Y00183*
X01874Y0019*
X01881Y00199*
X01885Y00209*
X01886Y00216*
G37*
G36*
X02005Y00265D02*
X01975D01*
X01975Y0026*
X01979Y00252*
X01985Y00245*
X01992Y00239*
X02Y00235*
X02005Y00235*
Y00265*
G37*
G36*
X01848Y00264D02*
Y00226D01*
X01886*
X01885Y00232*
X01881Y00243*
X01874Y00252*
X01864Y00259*
X01854Y00263*
X01848Y00264*
G37*
G36*
X01838D02*
X01831Y00263D01*
X01821Y00259*
X01812Y00252*
X01805Y00243*
X018Y00232*
X01799Y00226*
X01838*
Y00264*
G37*
G36*
X01095Y02525D02*
X01065D01*
X01067Y02516*
X01074Y02504*
X01086Y02497*
X01095Y02495*
Y02525*
G37*
G36*
X0157Y026D02*
X01556Y02598D01*
X01544Y0259*
X01537Y02578*
X01534Y02565*
Y02505*
X01537Y02491*
X01544Y02479*
X01556Y02472*
X0157Y02469*
X01583Y02472*
X01595Y02479*
X01603Y02491*
X01605Y02505*
Y02565*
X01603Y02578*
X01595Y0259*
X01583Y02598*
X0157Y026*
G37*
G36*
X01134Y02525D02*
X01105D01*
Y02495*
X01113Y02497*
X01125Y02504*
X01133Y02516*
X01134Y02525*
G37*
G36*
X01664Y02604D02*
X01653Y02602D01*
X0164Y02593*
X01631Y0258*
X01628Y02565*
Y0254*
X01664*
Y02604*
G37*
G36*
X01105Y02564D02*
Y02535D01*
X01134*
X01133Y02543*
X01125Y02555*
X01113Y02563*
X01105Y02564*
G37*
G36*
X01472Y026D02*
X01458Y02598D01*
X01446Y0259*
X01439Y02578*
X01436Y02565*
Y02505*
X01439Y02491*
X01446Y02479*
X01458Y02472*
X01472Y02469*
X01485Y02472*
X01497Y02479*
X01505Y02491*
X01507Y02505*
Y02565*
X01505Y02578*
X01497Y0259*
X01485Y02598*
X01472Y026*
G37*
G36*
X01664Y0253D02*
X01628D01*
Y02505*
X01631Y02489*
X0164Y02476*
X01653Y02467*
X01664Y02465*
Y0253*
G37*
G36*
X01677Y02334D02*
X01665D01*
Y02305*
X01694*
Y02317*
X01677Y02334*
G37*
G36*
X0171Y0253D02*
X01674D01*
Y02465*
X01684Y02467*
X01698Y02476*
X01706Y02489*
X0171Y02505*
Y0253*
G37*
G36*
X01808D02*
X01772D01*
Y02465*
X01783Y02467*
X01796Y02476*
X01805Y02489*
X01808Y02505*
Y0253*
G37*
G36*
X01762D02*
X01726D01*
Y02505*
X0173Y02489*
X01738Y02476*
X01752Y02467*
X01762Y02465*
Y0253*
G37*
G36*
X01674Y02604D02*
Y0254D01*
X0171*
Y02565*
X01706Y0258*
X01698Y02593*
X01684Y02602*
X01674Y02604*
G37*
G36*
X00145Y0272D02*
X00065D01*
Y0264*
X00145*
Y0272*
G37*
G36*
X01024Y02635D02*
X00995D01*
Y02605*
X01003Y02607*
X01015Y02614*
X01023Y02626*
X01024Y02635*
G37*
G36*
X00235Y0272D02*
X00155D01*
Y0264*
X00235*
Y0272*
G37*
G36*
X00995Y02674D02*
Y02645D01*
X01024*
X01023Y02653*
X01015Y02665*
X01003Y02673*
X00995Y02674*
G37*
G36*
X00985D02*
X00976Y02673D01*
X00964Y02665*
X00957Y02653*
X00955Y02645*
X00985*
Y02674*
G37*
G36*
Y02635D02*
X00955D01*
X00957Y02626*
X00964Y02614*
X00976Y02607*
X00985Y02605*
Y02635*
G37*
G36*
X01772Y02604D02*
Y0254D01*
X01808*
Y02565*
X01805Y0258*
X01796Y02593*
X01783Y02602*
X01772Y02604*
G37*
G36*
X01762D02*
X01752Y02602D01*
X01738Y02593*
X0173Y0258*
X01726Y02565*
Y0254*
X01762*
Y02604*
G37*
G36*
X00145Y0263D02*
X00065D01*
Y0255*
X00145*
Y0263*
G37*
G36*
X02135Y02715D02*
X01975D01*
Y02555*
X02135*
Y02715*
G37*
G36*
X00235Y0263D02*
X00155D01*
Y0255*
X00235*
Y0263*
G37*
G36*
X00193Y01232D02*
Y01194D01*
X00232*
X00231Y012*
X00226Y0121*
X0022Y0122*
X0021Y01227*
X002Y01231*
X00193Y01232*
G37*
G36*
X00183D02*
X00177Y01231D01*
X00167Y01227*
X00157Y0122*
X0015Y0121*
X00146Y012*
X00145Y01194*
X00183*
Y01232*
G37*
G36*
X0182Y01565D02*
X0179D01*
X01792Y01556*
X01799Y01544*
X01811Y01537*
X0182Y01535*
Y01565*
G37*
G36*
Y01604D02*
X01811Y01603D01*
X01799Y01595*
X01792Y01583*
X0179Y01575*
X0182*
Y01604*
G37*
G36*
X01859Y01565D02*
X0183D01*
Y01535*
X01838Y01537*
X0185Y01544*
X01858Y01556*
X01859Y01565*
G37*
G36*
X01945Y01294D02*
X01931Y01292D01*
X01918Y01288*
X01905Y01282*
X01895Y01273*
X01886Y01263*
X0188Y0125*
X01876Y01237*
X01874Y01223*
X01876Y0121*
X0188Y01197*
X01886Y01184*
X01895Y01174*
X01905Y01165*
X01918Y01158*
X01931Y01154*
X01945Y01153*
X01958Y01154*
X01971Y01158*
X01984Y01165*
X01994Y01174*
X02003Y01184*
X0201Y01197*
X02014Y0121*
X02015Y01223*
X02014Y01237*
X0201Y0125*
X02003Y01263*
X01994Y01273*
X01984Y01282*
X01971Y01288*
X01958Y01292*
X01945Y01294*
G37*
G36*
X00232Y01184D02*
X00193D01*
Y01145*
X002Y01146*
X0021Y01151*
X0022Y01158*
X00226Y01167*
X00231Y01177*
X00232Y01184*
G37*
G36*
X00183D02*
X00145D01*
X00146Y01177*
X0015Y01167*
X00157Y01158*
X00167Y01151*
X00177Y01146*
X00183Y01145*
Y01184*
G37*
G36*
X00566Y01294D02*
X00552Y01292D01*
X00539Y01288*
X00527Y01282*
X00516Y01273*
X00507Y01263*
X00501Y0125*
X00497Y01237*
X00495Y01223*
X00497Y0121*
X00501Y01197*
X00507Y01184*
X00516Y01174*
X00527Y01165*
X00539Y01158*
X00552Y01154*
X00566Y01153*
X00579Y01154*
X00593Y01158*
X00605Y01165*
X00615Y01174*
X00624Y01184*
X00631Y01197*
X00635Y0121*
X00636Y01223*
X00635Y01237*
X00631Y0125*
X00624Y01263*
X00615Y01273*
X00605Y01282*
X00593Y01288*
X00579Y01292*
X00566Y01294*
G37*
G36*
X01485D02*
X01471Y01292D01*
X01458Y01288*
X01446Y01282*
X01435Y01273*
X01426Y01263*
X0142Y0125*
X01416Y01237*
X01415Y01223*
X01416Y0121*
X0142Y01197*
X01426Y01184*
X01435Y01174*
X01446Y01165*
X01458Y01158*
X01471Y01154*
X01485Y01153*
X01499Y01154*
X01512Y01158*
X01524Y01165*
X01535Y01174*
X01543Y01184*
X0155Y01197*
X01554Y0121*
X01555Y01223*
X01554Y01237*
X0155Y0125*
X01543Y01263*
X01535Y01273*
X01524Y01282*
X01512Y01288*
X01499Y01292*
X01485Y01294*
G37*
G36*
X01025D02*
X01012Y01292D01*
X00998Y01288*
X00986Y01282*
X00976Y01273*
X00967Y01263*
X0096Y0125*
X00956Y01237*
X00955Y01223*
X00956Y0121*
X0096Y01197*
X00967Y01184*
X00976Y01174*
X00986Y01165*
X00998Y01158*
X01012Y01154*
X01025Y01153*
X01039Y01154*
X01052Y01158*
X01064Y01165*
X01075Y01174*
X01084Y01184*
X0109Y01197*
X01094Y0121*
X01096Y01223*
X01094Y01237*
X0109Y0125*
X01084Y01263*
X01075Y01273*
X01064Y01282*
X01052Y01288*
X01039Y01292*
X01025Y01294*
G37*
G36*
X0183Y01604D02*
Y01575D01*
X01859*
X01858Y01583*
X0185Y01595*
X01838Y01603*
X0183Y01604*
G37*
G36*
X0203Y02089D02*
Y0206D01*
X02059*
X02058Y02068*
X0205Y0208*
X02038Y02088*
X0203Y02089*
G37*
G36*
X0202D02*
X02011Y02088D01*
X01999Y0208*
X01992Y02068*
X0199Y0206*
X0202*
Y02089*
G37*
G36*
X01655Y02295D02*
X01626D01*
Y02283*
X01643Y02266*
X01655*
Y02295*
G37*
G36*
Y02334D02*
X01643D01*
X01626Y02317*
Y02305*
X01655*
Y02334*
G37*
G36*
X01694Y02295D02*
X01665D01*
Y02266*
X01677*
X01694Y02283*
Y02295*
G37*
G36*
X02059Y0205D02*
X0203D01*
Y0202*
X02038Y02022*
X0205Y02029*
X02058Y02041*
X02059Y0205*
G37*
G36*
X0162Y01724D02*
Y01695D01*
X01649*
X01648Y01703*
X0164Y01715*
X01628Y01723*
X0162Y01724*
G37*
G36*
X00955Y01714D02*
X00875D01*
Y01695*
Y01689*
Y01683*
X0088Y0167*
Y01668*
Y0162*
X0095*
Y01628*
X01018*
X01027Y0163*
X01034Y01635*
X01046Y01647*
X01077*
Y01677*
Y01679*
X01082Y01692*
Y01692*
Y01695*
Y0171*
X00982*
Y01695*
Y01692*
Y01692*
X00983Y01689*
X00978Y01682*
X00959Y01679*
X00955Y01683*
Y01689*
Y01695*
Y01714*
G37*
G36*
Y01755D02*
X0092D01*
Y01724*
X00955*
Y01755*
G37*
G36*
X0202Y0205D02*
X0199D01*
X01992Y02041*
X01999Y02029*
X02011Y02022*
X0202Y0202*
Y0205*
G37*
G36*
X01099Y02349D02*
X0107D01*
X01056Y02334*
Y02305*
X0107Y02291*
X01099*
X01105Y02297*
X0133*
X01331Y02296*
Y02285*
X01345Y02271*
X01356*
X01405Y02222*
Y02133*
X01383*
Y02098*
Y02097*
Y0209*
Y02083*
Y02082*
Y02048*
Y02047*
Y0204*
Y02033*
Y02032*
Y02002*
Y01997*
X01371Y01987*
X01364*
X01341Y02011*
X01333Y02016*
X01325Y02017*
X01314*
X01306Y02023*
X01295Y02025*
X01283Y02023*
X01273Y02016*
X01266Y02006*
X01264Y01995*
X01266Y01983*
X01273Y01973*
X01283Y01966*
X01295Y01964*
X01306Y01966*
X01314Y01972*
X01315*
X01327Y0196*
X01326Y01955*
X01321Y01944*
X01313Y01943*
X01303Y01936*
X01296Y01926*
X01294Y01915*
X01296Y01903*
X01303Y01893*
X01313Y01886*
X01325Y01884*
X01336Y01886*
X01344Y01892*
X01371*
X01383Y01883*
Y01877*
Y01853*
Y0185*
X01378Y01838*
Y01837*
Y01834*
Y0182*
X01478*
Y01827*
Y01838*
X01491Y01842*
X01566*
Y01828*
X01627*
X01628*
X01635*
X01642Y01828*
X0165Y01816*
Y01781*
X01644Y01773*
X01642Y01762*
X01644Y0175*
X01651Y0174*
X01661Y01733*
X01673Y01731*
X01684Y01733*
X01694Y0174*
X01701Y0175*
X01703Y01762*
X01701Y01773*
X01695Y01781*
Y01828*
X01704*
Y01901*
X01643*
X01642*
X01635*
X01628*
X01627*
X01566*
Y01887*
X01484*
X01473Y01897*
Y01902*
Y01932*
Y01933*
Y0194*
Y01947*
Y01948*
Y01977*
Y01983*
X01484Y01992*
X0149*
X01499Y01982*
X01501Y01973*
X01508Y01963*
X01518Y01956*
X0153Y01954*
X01541Y01956*
X01551Y01963*
X01558Y01973*
X0156Y01985*
X01558Y01996*
X01551Y02006*
X01541Y02013*
X01532Y02015*
X0152Y02027*
X01526Y02042*
X01556*
Y02028*
X01617*
X01618*
X01625*
X01632*
X01633*
X01694*
Y02042*
X01735*
X01774Y02002*
X01776Y01993*
X01783Y01983*
X01793Y01976*
X01805Y01974*
X01816Y01976*
X01826Y01983*
X01833Y01993*
X01835Y02005*
X01833Y02016*
X01826Y02026*
X01816Y02033*
X01807Y02035*
X01761Y02081*
X01753Y02086*
X01745Y02087*
X01694*
Y02101*
X01633*
X01632*
X01625*
X01618*
X01617*
X01556*
Y02087*
X01484*
X01473Y02097*
Y02102*
Y02133*
X0145*
Y02232*
X01449Y0224*
X01444Y02248*
X01389Y02303*
Y02314*
X01374Y02329*
X01363*
X01356Y02336*
X01348Y02341*
X0134Y02342*
X01105*
X01099Y02349*
G37*
%LNmotor_driver-3*%
%LPD*%
G54D10*
X00601Y01525D03*
X00359D03*
X00601Y01575D03*
Y01625D03*
X00359Y01575D03*
Y01625D03*
X00601Y01675D03*
X00359D03*
X00601Y01725D03*
Y01775D03*
X00359Y01725D03*
Y01775D03*
X00601Y01825D03*
X00359D03*
X00606Y02025D03*
X00364D03*
X00606Y02075D03*
Y02125D03*
X00364Y02075D03*
Y02125D03*
X00606Y02175D03*
X00364D03*
X00606Y02225D03*
Y02275D03*
X00364Y02225D03*
Y02275D03*
X00606Y02325D03*
X00364D03*
X01428Y01665D03*
Y01715D03*
X01032Y01665D03*
Y01715D03*
X01428Y02115D03*
Y02065D03*
Y02015D03*
Y01965D03*
Y01915D03*
Y01865D03*
Y01815D03*
Y01765D03*
X01032D03*
Y01815D03*
Y01865D03*
Y01915D03*
Y01965D03*
Y02015D03*
Y02065D03*
Y02115D03*
G54D11*
X01196Y02205D03*
X01263D03*
G54D12*
X01663Y02065D03*
X01587D03*
X01673Y01865D03*
X01597D03*
G54D13*
X00915Y01719D03*
Y01651D03*
X0086Y0206D03*
Y02127D03*
G54D14*
X00715Y02007D03*
Y02082D03*
G54D15*
X00606Y01979D02*
Y02025D01*
Y01979D02*
X0069Y01895D01*
Y01785D02*
Y01895D01*
X0068Y01775D02*
X0069Y01785D01*
X00601Y01775D02*
X0068D01*
X00715Y02007D02*
X0075Y01972D01*
X00175Y02125D02*
X00364D01*
X00175D02*
Y02375D01*
X0029Y02175D02*
X00364D01*
X0019Y0196D02*
X003D01*
X0011Y0188D02*
X0019Y0196D01*
X0011Y0158D02*
Y0188D01*
Y0158D02*
X00165Y01525D01*
X0025Y0161*
X00266*
X00281Y01625*
X00359*
X00255Y01535D02*
X00295Y01575D01*
X00359*
X01595Y0162D02*
X0167D01*
X0155Y01665D02*
X01595Y0162D01*
X01428Y01665D02*
X0155D01*
X0167Y0162D02*
X0188Y0183D01*
X0131Y01715D02*
X01428D01*
X0129Y01695D02*
X0131Y01715D01*
X01195Y01695D02*
X0129D01*
X01175Y01715D02*
X01195Y01695D01*
X01032Y01715D02*
X01175D01*
X01032Y01765D02*
X0123D01*
X01575Y0173D02*
X0159Y01715D01*
X01615Y0169*
X01428Y01715D02*
X0159D01*
X01428Y01815D02*
X01535D01*
X01575Y01775*
Y0173D02*
Y01775D01*
X00601Y01575D02*
X0069D01*
X006Y01525D02*
X00665Y0146D01*
X003Y01775D02*
X00359D01*
X00245Y0183D02*
X003Y01775D01*
X00245Y0183D02*
Y0189D01*
X0024Y01895D02*
X00245Y0189D01*
X00275Y02275D02*
X00364D01*
X00175Y02375D02*
X00445Y02645D01*
X00275Y01675D02*
X00359D01*
X0025Y0165D02*
X00275Y01675D01*
X00175Y0165D02*
X0025D01*
X011Y0253D02*
X0114D01*
X0053Y0091D02*
X00765Y01145D01*
Y0134*
X00785Y0136*
X0075Y015D02*
X0081Y0144D01*
X0075Y015D02*
Y01972D01*
X0084Y0136D02*
X00885Y01405D01*
X00785Y0136D02*
X0084D01*
X00885Y01405D02*
Y01505D01*
X00855Y01535D02*
X00885Y01505D01*
X008Y01535D02*
Y01762D01*
Y01535D02*
X00855D01*
X00797Y01765D02*
X008Y01762D01*
X00875Y01815D02*
X01032D01*
X00915Y01719D02*
X00919Y01715D01*
X01032*
X01355Y01075D02*
X01485Y00945D01*
X01355Y01075D02*
Y01305D01*
X01428Y01378*
Y01665*
X015Y02015D02*
X0153Y01985D01*
X01428Y02015D02*
X015D01*
X01673Y01762D02*
Y01865D01*
X01945Y0142D02*
Y0186D01*
X0181Y01285D02*
X01945Y0142D01*
X0181Y01183D02*
Y01285D01*
Y01183D02*
X01945Y01048D01*
Y0096D02*
Y01048D01*
X01745Y02065D02*
X01805Y02005D01*
X0188Y0183D02*
Y02605D01*
X01785Y027D02*
X0188Y02605D01*
X01663Y02065D02*
X01745D01*
X0079Y0199D02*
X00837D01*
X0079D02*
Y02055D01*
X00837Y0199D02*
X00862Y01965D01*
X00797Y01765D02*
Y01804D01*
X008Y01807*
Y01915*
X00845Y01785D02*
X00875Y01815D01*
X008Y01915D02*
X01032D01*
X00762Y02082D02*
X0079Y02055D01*
X00715Y02082D02*
X00762D01*
X00785Y0232D02*
X0079D01*
X0117Y027*
X01785*
X0115Y0182D02*
Y01995D01*
X01355Y01965D02*
X01428D01*
X01325Y01995D02*
X01355Y01965D01*
X01295Y01995D02*
X01325D01*
X01145D02*
X0115D01*
X0121Y01885D02*
Y02085D01*
X006Y01525D02*
X00601D01*
X0121Y02085D02*
X01263Y02138D01*
Y02205*
X0114Y02138D02*
X01196Y02194D01*
X0114Y02075D02*
Y02138D01*
X0113Y02065D02*
X0114Y02075D01*
X01196Y02194D02*
Y02205D01*
X0121Y01885D02*
X0133Y01765D01*
X01032Y02065D02*
X0113D01*
X01325Y01915D02*
X01428D01*
X00601Y01675D02*
X007D01*
X0027Y01725D02*
X00359D01*
X0095Y01865D02*
X01032D01*
X01018Y01651D02*
X01032Y01665D01*
X00915Y01651D02*
X01018D01*
X00862Y01965D02*
X01032D01*
X00359Y01825D02*
Y01879D01*
X00405Y01925*
X00364Y02225D02*
X0045D01*
Y02395*
X0056Y02505*
Y02535*
X00582Y02452D02*
X0066Y0253D01*
X00577Y02452D02*
X00582D01*
X0051Y02385D02*
X00577Y02452D01*
X0051Y02105D02*
Y02385D01*
X0066Y0253D02*
Y02535D01*
X00523Y01725D02*
Y02026D01*
X00425Y02125D02*
X00523Y02026D01*
X00364Y02125D02*
X00425D01*
X0047Y01625D02*
Y02015D01*
X0041Y02075D02*
X0047Y02015D01*
X00364Y02075D02*
X0041D01*
X0047Y01625D02*
X00601D01*
X00523Y01725D02*
X00601D01*
X0051Y02105D02*
X0054Y02075D01*
X00606*
X00445Y02645D02*
X00758D01*
Y02535D02*
Y02645D01*
X00364Y02325D02*
Y02436D01*
X00462Y02535*
X0133Y01765D02*
X01428D01*
X0095Y02015D02*
X01032D01*
X00905Y0206D02*
X0095Y02015D01*
X0086Y0206D02*
X00905D01*
X00785Y02202D02*
X0086Y02127D01*
X00785Y02202D02*
Y0232D01*
X0134D02*
X0136Y023D01*
X01085Y0232D02*
X0134D01*
X01428Y02115D02*
Y02232D01*
X0136Y023D02*
X01428Y02232D01*
X01019Y02127D02*
X01032Y02115D01*
X0086Y02127D02*
X01019D01*
X01428Y02065D02*
X01587D01*
X01428Y01865D02*
X01597D01*
G54D16*
X0011Y0071D02*
X00188Y00631D01*
X0011Y0071D02*
Y00972D01*
X00188Y01051*
X01456Y0011D02*
X01567Y00221D01*
X00798Y0011D02*
X01456D01*
X00687Y00221D02*
X00798Y0011D01*
X01585Y0034D02*
X01705Y00221D01*
X01585Y0034D02*
Y00533D01*
X01485Y00302D02*
X01567Y00221D01*
X01485Y00302D02*
Y00533D01*
G54D17*
X01945Y0042D02*
Y00533D01*
X01585D02*
X01676D01*
X0181Y004*
X01925*
X01945Y0042*
X00825Y00375D02*
X0097D01*
X01025Y0043*
Y00533*
X00825Y00221D02*
Y00375D01*
X00666Y00533D02*
X00825Y00375D01*
X00566Y00458D02*
Y00533D01*
Y00458D02*
X00687Y00337D01*
Y00221D02*
Y00337D01*
G54D18*
X0123Y02204D03*
G54D19*
X01625Y02065D03*
X01635Y01865D03*
X00334Y0091D03*
X00957Y0093D03*
G54D20*
X00914Y01685D03*
X0032Y00716D03*
X0086Y02094D03*
G54D21*
X01354Y00992D03*
X00715Y02044D03*
G54D22*
X01623Y02409D03*
G54D23*
X00731Y01223D02*
D01*
X0073Y01235*
X00729Y01246*
X00727Y01258*
X00724Y01269*
X00721Y0128*
X00716Y01291*
X00711Y01301*
X00706Y01311*
X00699Y0132*
X00692Y01329*
X00684Y01338*
X00676Y01346*
X00667Y01353*
X00658Y0136*
X00648Y01366*
X00638Y01372*
X00627Y01376*
X00617Y0138*
X00606Y01383*
X00594Y01386*
X00583Y01387*
X00571Y01388*
X0056*
X00548Y01387*
X00537Y01386*
X00526Y01383*
X00515Y0138*
X00504Y01376*
X00493Y01372*
X00483Y01366*
X00473Y0136*
X00464Y01353*
X00455Y01346*
X00447Y01338*
X00439Y01329*
X00432Y0132*
X00426Y01311*
X0042Y01301*
X00415Y01291*
X00411Y0128*
X00407Y01269*
X00404Y01258*
X00402Y01246*
X00401Y01235*
X00401Y01223*
X00401Y01212*
X00402Y012*
X00404Y01189*
X00407Y01178*
X00411Y01167*
X00415Y01156*
X0042Y01146*
X00426Y01136*
X00432Y01126*
X00439Y01117*
X00447Y01109*
X00455Y01101*
X00464Y01093*
X00473Y01087*
X00483Y01081*
X00493Y01075*
X00504Y0107*
X00515Y01066*
X00526Y01063*
X00537Y01061*
X00548Y01059*
X0056Y01059*
X00571*
X00583Y01059*
X00594Y01061*
X00606Y01063*
X00617Y01066*
X00627Y0107*
X00638Y01075*
X00648Y01081*
X00658Y01087*
X00667Y01093*
X00676Y01101*
X00684Y01109*
X00692Y01117*
X00699Y01126*
X00706Y01136*
X00711Y01146*
X00716Y01156*
X00721Y01167*
X00724Y01178*
X00727Y01189*
X00729Y012*
X0073Y01212*
X00731Y01223*
X0119D02*
D01*
X0119Y01235*
X01189Y01246*
X01187Y01258*
X01184Y01269*
X0118Y0128*
X01176Y01291*
X01171Y01301*
X01165Y01311*
X01159Y0132*
X01152Y01329*
X01144Y01338*
X01136Y01346*
X01127Y01353*
X01117Y0136*
X01108Y01366*
X01098Y01372*
X01087Y01376*
X01076Y0138*
X01065Y01383*
X01054Y01386*
X01042Y01387*
X01031Y01388*
X01019*
X01008Y01387*
X00997Y01386*
X00985Y01383*
X00974Y0138*
X00963Y01376*
X00953Y01372*
X00943Y01366*
X00933Y0136*
X00924Y01353*
X00915Y01346*
X00907Y01338*
X00899Y01329*
X00892Y0132*
X00885Y01311*
X0088Y01301*
X00874Y01291*
X0087Y0128*
X00867Y01269*
X00864Y01258*
X00862Y01246*
X00861Y01235*
X0086Y01223*
X00861Y01212*
X00862Y012*
X00864Y01189*
X00867Y01178*
X0087Y01167*
X00874Y01156*
X0088Y01146*
X00885Y01136*
X00892Y01126*
X00899Y01117*
X00907Y01109*
X00915Y01101*
X00924Y01093*
X00933Y01087*
X00943Y01081*
X00953Y01075*
X00963Y0107*
X00974Y01066*
X00985Y01063*
X00997Y01061*
X01008Y01059*
X01019Y01059*
X01031*
X01042Y01059*
X01054Y01061*
X01065Y01063*
X01076Y01066*
X01087Y0107*
X01098Y01075*
X01108Y01081*
X01117Y01087*
X01127Y01093*
X01136Y01101*
X01144Y01109*
X01152Y01117*
X01159Y01126*
X01165Y01136*
X01171Y01146*
X01176Y01156*
X0118Y01167*
X01184Y01178*
X01187Y01189*
X01189Y012*
X0119Y01212*
X0119Y01223*
X0165D02*
D01*
X01649Y01235*
X01648Y01246*
X01646Y01258*
X01644Y01269*
X0164Y0128*
X01636Y01291*
X01631Y01301*
X01625Y01311*
X01618Y0132*
X01611Y01329*
X01604Y01338*
X01595Y01346*
X01586Y01353*
X01577Y0136*
X01567Y01366*
X01557Y01372*
X01547Y01376*
X01536Y0138*
X01525Y01383*
X01514Y01386*
X01502Y01387*
X01491Y01388*
X01479*
X01468Y01387*
X01456Y01386*
X01445Y01383*
X01434Y0138*
X01423Y01376*
X01413Y01372*
X01402Y01366*
X01393Y0136*
X01383Y01353*
X01374Y01346*
X01366Y01338*
X01359Y01329*
X01351Y0132*
X01345Y01311*
X01339Y01301*
X01334Y01291*
X0133Y0128*
X01326Y01269*
X01324Y01258*
X01322Y01246*
X0132Y01235*
X0132Y01223*
X0132Y01212*
X01322Y012*
X01324Y01189*
X01326Y01178*
X0133Y01167*
X01334Y01156*
X01339Y01146*
X01345Y01136*
X01351Y01126*
X01359Y01117*
X01366Y01109*
X01374Y01101*
X01383Y01093*
X01393Y01087*
X01402Y01081*
X01413Y01075*
X01423Y0107*
X01434Y01066*
X01445Y01063*
X01456Y01061*
X01468Y01059*
X01479Y01059*
X01491*
X01502Y01059*
X01514Y01061*
X01525Y01063*
X01536Y01066*
X01547Y0107*
X01557Y01075*
X01567Y01081*
X01577Y01087*
X01586Y01093*
X01595Y01101*
X01604Y01109*
X01611Y01117*
X01618Y01126*
X01625Y01136*
X01631Y01146*
X01636Y01156*
X0164Y01167*
X01644Y01178*
X01646Y01189*
X01648Y012*
X01649Y01212*
X0165Y01223*
X0211D02*
D01*
X02109Y01235*
X02108Y01246*
X02106Y01258*
X02103Y01269*
X021Y0128*
X02095Y01291*
X0209Y01301*
X02084Y01311*
X02078Y0132*
X02071Y01329*
X02063Y01338*
X02055Y01346*
X02046Y01353*
X02037Y0136*
X02027Y01366*
X02017Y01372*
X02006Y01376*
X01995Y0138*
X01984Y01383*
X01973Y01386*
X01962Y01387*
X0195Y01388*
X01939*
X01927Y01387*
X01916Y01386*
X01905Y01383*
X01894Y0138*
X01883Y01376*
X01872Y01372*
X01862Y01366*
X01852Y0136*
X01843Y01353*
X01834Y01346*
X01826Y01338*
X01818Y01329*
X01811Y0132*
X01805Y01311*
X01799Y01301*
X01794Y01291*
X01789Y0128*
X01786Y01269*
X01783Y01258*
X01781Y01246*
X0178Y01235*
X0178Y01223*
X0178Y01212*
X01781Y012*
X01783Y01189*
X01786Y01178*
X01789Y01167*
X01794Y01156*
X01799Y01146*
X01805Y01136*
X01811Y01126*
X01818Y01117*
X01826Y01109*
X01834Y01101*
X01843Y01093*
X01852Y01087*
X01862Y01081*
X01872Y01075*
X01883Y0107*
X01894Y01066*
X01905Y01063*
X01916Y01061*
X01927Y01059*
X01939Y01059*
X0195*
X01962Y01059*
X01973Y01061*
X01984Y01063*
X01995Y01066*
X02006Y0107*
X02017Y01075*
X02027Y01081*
X02037Y01087*
X02046Y01093*
X02055Y01101*
X02063Y01109*
X02071Y01117*
X02078Y01126*
X02084Y01136*
X0209Y01146*
X02095Y01156*
X021Y01167*
X02103Y01178*
X02106Y01189*
X02108Y012*
X02109Y01212*
X0211Y01223*
X00731D02*
D01*
X0073Y01235*
X00729Y01246*
X00727Y01258*
X00724Y01269*
X00721Y0128*
X00716Y01291*
X00711Y01301*
X00706Y01311*
X00699Y0132*
X00692Y01329*
X00684Y01338*
X00676Y01346*
X00667Y01353*
X00658Y0136*
X00648Y01366*
X00638Y01372*
X00627Y01376*
X00617Y0138*
X00606Y01383*
X00594Y01386*
X00583Y01387*
X00571Y01388*
X0056*
X00548Y01387*
X00537Y01386*
X00526Y01383*
X00515Y0138*
X00504Y01376*
X00493Y01372*
X00483Y01366*
X00473Y0136*
X00464Y01353*
X00455Y01346*
X00447Y01338*
X00439Y01329*
X00432Y0132*
X00426Y01311*
X0042Y01301*
X00415Y01291*
X00411Y0128*
X00407Y01269*
X00404Y01258*
X00402Y01246*
X00401Y01235*
X00401Y01223*
X00401Y01212*
X00402Y012*
X00404Y01189*
X00407Y01178*
X00411Y01167*
X00415Y01156*
X0042Y01146*
X00426Y01136*
X00432Y01126*
X00439Y01117*
X00447Y01109*
X00455Y01101*
X00464Y01093*
X00473Y01087*
X00483Y01081*
X00493Y01075*
X00504Y0107*
X00515Y01066*
X00526Y01063*
X00537Y01061*
X00548Y01059*
X0056Y01059*
X00571*
X00583Y01059*
X00594Y01061*
X00606Y01063*
X00617Y01066*
X00627Y0107*
X00638Y01075*
X00648Y01081*
X00658Y01087*
X00667Y01093*
X00676Y01101*
X00684Y01109*
X00692Y01117*
X00699Y01126*
X00706Y01136*
X00711Y01146*
X00716Y01156*
X00721Y01167*
X00724Y01178*
X00727Y01189*
X00729Y012*
X0073Y01212*
X00731Y01223*
X0119D02*
D01*
X0119Y01235*
X01189Y01246*
X01187Y01258*
X01184Y01269*
X0118Y0128*
X01176Y01291*
X01171Y01301*
X01165Y01311*
X01159Y0132*
X01152Y01329*
X01144Y01338*
X01136Y01346*
X01127Y01353*
X01117Y0136*
X01108Y01366*
X01098Y01372*
X01087Y01376*
X01076Y0138*
X01065Y01383*
X01054Y01386*
X01042Y01387*
X01031Y01388*
X01019*
X01008Y01387*
X00997Y01386*
X00985Y01383*
X00974Y0138*
X00963Y01376*
X00953Y01372*
X00943Y01366*
X00933Y0136*
X00924Y01353*
X00915Y01346*
X00907Y01338*
X00899Y01329*
X00892Y0132*
X00885Y01311*
X0088Y01301*
X00874Y01291*
X0087Y0128*
X00867Y01269*
X00864Y01258*
X00862Y01246*
X00861Y01235*
X0086Y01223*
X00861Y01212*
X00862Y012*
X00864Y01189*
X00867Y01178*
X0087Y01167*
X00874Y01156*
X0088Y01146*
X00885Y01136*
X00892Y01126*
X00899Y01117*
X00907Y01109*
X00915Y01101*
X00924Y01093*
X00933Y01087*
X00943Y01081*
X00953Y01075*
X00963Y0107*
X00974Y01066*
X00985Y01063*
X00997Y01061*
X01008Y01059*
X01019Y01059*
X01031*
X01042Y01059*
X01054Y01061*
X01065Y01063*
X01076Y01066*
X01087Y0107*
X01098Y01075*
X01108Y01081*
X01117Y01087*
X01127Y01093*
X01136Y01101*
X01144Y01109*
X01152Y01117*
X01159Y01126*
X01165Y01136*
X01171Y01146*
X01176Y01156*
X0118Y01167*
X01184Y01178*
X01187Y01189*
X01189Y012*
X0119Y01212*
X0119Y01223*
X0165D02*
D01*
X01649Y01235*
X01648Y01246*
X01646Y01258*
X01644Y01269*
X0164Y0128*
X01636Y01291*
X01631Y01301*
X01625Y01311*
X01618Y0132*
X01611Y01329*
X01604Y01338*
X01595Y01346*
X01586Y01353*
X01577Y0136*
X01567Y01366*
X01557Y01372*
X01547Y01376*
X01536Y0138*
X01525Y01383*
X01514Y01386*
X01502Y01387*
X01491Y01388*
X01479*
X01468Y01387*
X01456Y01386*
X01445Y01383*
X01434Y0138*
X01423Y01376*
X01413Y01372*
X01402Y01366*
X01393Y0136*
X01383Y01353*
X01374Y01346*
X01366Y01338*
X01359Y01329*
X01351Y0132*
X01345Y01311*
X01339Y01301*
X01334Y01291*
X0133Y0128*
X01326Y01269*
X01324Y01258*
X01322Y01246*
X0132Y01235*
X0132Y01223*
X0132Y01212*
X01322Y012*
X01324Y01189*
X01326Y01178*
X0133Y01167*
X01334Y01156*
X01339Y01146*
X01345Y01136*
X01351Y01126*
X01359Y01117*
X01366Y01109*
X01374Y01101*
X01383Y01093*
X01393Y01087*
X01402Y01081*
X01413Y01075*
X01423Y0107*
X01434Y01066*
X01445Y01063*
X01456Y01061*
X01468Y01059*
X01479Y01059*
X01491*
X01502Y01059*
X01514Y01061*
X01525Y01063*
X01536Y01066*
X01547Y0107*
X01557Y01075*
X01567Y01081*
X01577Y01087*
X01586Y01093*
X01595Y01101*
X01604Y01109*
X01611Y01117*
X01618Y01126*
X01625Y01136*
X01631Y01146*
X01636Y01156*
X0164Y01167*
X01644Y01178*
X01646Y01189*
X01648Y012*
X01649Y01212*
X0165Y01223*
X0211D02*
D01*
X02109Y01235*
X02108Y01246*
X02106Y01258*
X02103Y01269*
X021Y0128*
X02095Y01291*
X0209Y01301*
X02084Y01311*
X02078Y0132*
X02071Y01329*
X02063Y01338*
X02055Y01346*
X02046Y01353*
X02037Y0136*
X02027Y01366*
X02017Y01372*
X02006Y01376*
X01995Y0138*
X01984Y01383*
X01973Y01386*
X01962Y01387*
X0195Y01388*
X01939*
X01927Y01387*
X01916Y01386*
X01905Y01383*
X01894Y0138*
X01883Y01376*
X01872Y01372*
X01862Y01366*
X01852Y0136*
X01843Y01353*
X01834Y01346*
X01826Y01338*
X01818Y01329*
X01811Y0132*
X01805Y01311*
X01799Y01301*
X01794Y01291*
X01789Y0128*
X01786Y01269*
X01783Y01258*
X01781Y01246*
X0178Y01235*
X0178Y01223*
X0178Y01212*
X01781Y012*
X01783Y01189*
X01786Y01178*
X01789Y01167*
X01794Y01156*
X01799Y01146*
X01805Y01136*
X01811Y01126*
X01818Y01117*
X01826Y01109*
X01834Y01101*
X01843Y01093*
X01852Y01087*
X01862Y01081*
X01872Y01075*
X01883Y0107*
X01894Y01066*
X01905Y01063*
X01916Y01061*
X01927Y01059*
X01939Y01059*
X0195*
X01962Y01059*
X01973Y01061*
X01984Y01063*
X01995Y01066*
X02006Y0107*
X02017Y01075*
X02027Y01081*
X02037Y01087*
X02046Y01093*
X02055Y01101*
X02063Y01109*
X02071Y01117*
X02078Y01126*
X02084Y01136*
X0209Y01146*
X02095Y01156*
X021Y01167*
X02103Y01178*
X02106Y01189*
X02108Y012*
X02109Y01212*
X0211Y01223*
G54D24*
X01931Y00848D02*
X02018D01*
X01931Y00791D02*
X02018D01*
Y00848*
X01931Y00791D02*
Y00848D01*
X01471Y00873D02*
X01558D01*
X01471Y00816D02*
X01558D01*
Y00873*
X01471Y00816D02*
Y00873D01*
X00596Y00771D02*
X00682D01*
X00596Y00828D02*
X00682D01*
X00596Y00771D02*
Y00828D01*
X00682Y00771D02*
Y00828D01*
X01975Y008D02*
Y00839D01*
X01955Y0082D02*
X01994D01*
X01919Y00851D02*
X0203D01*
X01919Y00788D02*
X0203D01*
Y00851*
X01919Y00788D02*
Y00851D01*
X01515Y00825D02*
Y00864D01*
X01495Y00845D02*
X01534D01*
X01459Y00876D02*
X0157D01*
X01459Y00813D02*
X0157D01*
Y00876*
X01459Y00813D02*
Y00876D01*
X00639Y0078D02*
Y00819D01*
X00619Y008D02*
X00659D01*
X00584Y00768D02*
X00694D01*
X00584Y00831D02*
X00694D01*
X00584Y00768D02*
Y00831D01*
X00694Y00768D02*
Y00831D01*
G54D25*
X00785Y0232D02*
X008D01*
X0107D02*
X01085D01*
X0136Y023D02*
X01375D01*
X01645D02*
X0166D01*
G54D26*
X0081Y02285D02*
Y02355D01*
X0106Y02285D02*
Y02355D01*
X01385Y02265D02*
Y02335D01*
X01635Y02265D02*
Y02335D01*
X01597Y0204D02*
X01653D01*
X01597Y0209D02*
X01653D01*
X01607Y0184D02*
X01663D01*
X01607Y0189D02*
X01663D01*
X0138Y00965D02*
Y01021D01*
X0133Y00965D02*
Y01021D01*
X00307Y00885D02*
X00363D01*
X00307Y00935D02*
X00363D01*
X0093Y00905D02*
X00986D01*
X0093Y00955D02*
X00986D01*
X01555Y0255D02*
X01585D01*
X01555Y0252D02*
X01585Y0255D01*
X01555D02*
X01585Y0252D01*
X01555D02*
Y0255D01*
Y0252D02*
X01585D01*
Y0255*
X01457D02*
X01487D01*
X01457Y0252D02*
X01487Y0255D01*
X01457D02*
X01487Y0252D01*
X01457D02*
Y0255D01*
Y0252D02*
X01487D01*
Y0255*
X01752D02*
X01782Y0252D01*
X01752D02*
X01782Y0255D01*
X01752D02*
X01782D01*
Y0252D02*
Y0255D01*
X01752Y0252D02*
X01782D01*
X01752D02*
Y0255D01*
X01653Y0252D02*
X01683Y0255D01*
X01653D02*
X01683Y0252D01*
Y0255*
X01653Y0252D02*
X01683D01*
X01653D02*
Y0255D01*
X01683*
X0069Y02017D02*
Y02073D01*
X0074Y02017D02*
Y02073D01*
X00545Y0255D02*
X00575D01*
X00545Y0252D02*
X00575Y0255D01*
X00545D02*
X00575Y0252D01*
X00545D02*
Y0255D01*
Y0252D02*
X00575D01*
Y0255*
X00447D02*
X00477D01*
X00447Y0252D02*
X00477Y0255D01*
X00447D02*
X00477Y0252D01*
X00447D02*
Y0255D01*
Y0252D02*
X00477D01*
Y0255*
X00743D02*
X00773Y0252D01*
X00743D02*
X00773Y0255D01*
X00743D02*
X00773D01*
Y0252D02*
Y0255D01*
X00743Y0252D02*
X00773D01*
X00743D02*
Y0255D01*
X00644Y0252D02*
X00674Y0255D01*
X00644D02*
X00674Y0252D01*
Y0255*
X00644Y0252D02*
X00674D01*
X00644D02*
Y0255D01*
X00674*
G54D27*
X01215Y02231D02*
X01244D01*
X01215Y02179D02*
X01245D01*
X00941Y01671D02*
Y017D01*
X00889Y0167D02*
Y017D01*
X00294Y00702D02*
Y00731D01*
X00346Y00701D02*
Y00731D01*
X00935Y00173D02*
X01011Y00249D01*
X00916Y00193D02*
X00991Y00269D01*
X00797Y00173D02*
X00873Y00249D01*
X00777Y00193D02*
X00853Y00269D01*
X00659Y00173D02*
X00734Y00249D01*
X00639Y00193D02*
X00715Y00269D01*
X01815Y00173D02*
X01891Y00249D01*
X01796Y00193D02*
X01871Y00269D01*
X01677Y00173D02*
X01753Y00249D01*
X01657Y00193D02*
X01733Y00269D01*
X01539Y00173D02*
X01614Y00249D01*
X01519Y00193D02*
X01595Y00269D01*
X00161Y01237D02*
X00236Y01161D01*
X00141Y01217D02*
X00216Y01142D01*
X00161Y01098D02*
X00236Y01023D01*
X00141Y01079D02*
X00216Y01003D01*
X00161Y00817D02*
X00236Y00741D01*
X00141Y00797D02*
X00216Y00722D01*
X00161Y00678D02*
X00236Y00603D01*
X00141Y00659D02*
X00216Y00583D01*
X00834Y02079D02*
Y02108D01*
X00886Y02079D02*
Y02109D01*
X01609Y02436D02*
X01638D01*
X01608Y02384D02*
X01638D01*
G54D28*
X00805Y0232D03*
X01065D03*
X0138Y023D03*
X0164D03*
G54D29*
X0038Y01525D03*
Y01575D03*
Y01625D03*
X00579Y01525D03*
Y01575D03*
Y01625D03*
Y01825D03*
Y01775D03*
Y01725D03*
X0038Y01675D03*
X00381Y01725D03*
X0038Y01775D03*
Y01825D03*
X00579Y01675D03*
X00385Y02025D03*
Y02075D03*
Y02125D03*
X00584Y02025D03*
Y02075D03*
Y02125D03*
Y02325D03*
Y02275D03*
Y02225D03*
X00385Y02175D03*
X00386Y02225D03*
X00385Y02275D03*
Y02325D03*
X00584Y02175D03*
G54D30*
X01201Y02204D03*
X01652Y02409D03*
G54D31*
X01258Y02204D03*
X01595Y02409D03*
G54D32*
X01659Y02065D03*
X01591D03*
X01669Y01865D03*
X01601D03*
X00301Y0091D03*
X00369D03*
X00924Y0093D03*
X00992D03*
G54D33*
X00914Y01714D03*
X0032Y00745D03*
X0086Y02065D03*
G54D34*
X00914Y01656D03*
X0032Y00687D03*
X0086Y02122D03*
G54D35*
X01049Y01665D03*
Y01715D03*
X01411Y01665D03*
Y01715D03*
Y01765D03*
Y01815D03*
Y01865D03*
Y01915D03*
Y01965D03*
Y02015D03*
Y02065D03*
Y02115D03*
X01049Y01765D03*
Y01815D03*
Y01865D03*
Y01915D03*
Y01965D03*
Y02015D03*
Y02065D03*
Y02115D03*
G54D36*
X00666Y00561D03*
X00566D03*
X00466D03*
X01125D03*
X01025D03*
X00925D03*
X01585D03*
X01485D03*
X01385D03*
X02045D03*
X01945D03*
X01845D03*
G54D37*
X01355Y00959D03*
Y01027D03*
X00715Y02011D03*
Y02079D03*
G54D38*
X01152Y02166D02*
Y02243D01*
X01307Y02166D02*
Y02243D01*
X01152D02*
X01307D01*
X01152Y02166D02*
X01307D01*
X01703Y02026D02*
Y02104D01*
X01547Y02026D02*
Y02104D01*
Y02026D02*
X01703D01*
X01547Y02104D02*
X01703D01*
X01713Y01826D02*
Y01904D01*
X01557Y01826D02*
Y01904D01*
Y01826D02*
X01713D01*
X01557Y01904D02*
X01713D01*
X00876Y01763D02*
X00953D01*
X00876Y01607D02*
X00953D01*
Y01763*
X00876Y01607D02*
Y01763D01*
X01316Y00915D02*
X01393D01*
X01316Y0107D02*
X01393D01*
Y00915D02*
Y0107D01*
X01316Y00915D02*
Y0107D01*
X00257Y00871D02*
Y00949D01*
X00412Y00871D02*
Y00949D01*
X00257Y00871D02*
X00412D01*
X00257Y00949D02*
X00412D01*
X00281Y00794D02*
X00359D01*
X00281Y00638D02*
X00359D01*
X00281D02*
Y00794D01*
X00359Y00638D02*
Y00794D01*
X0088Y00891D02*
Y00969D01*
X01035Y00891D02*
Y00969D01*
X0088Y00891D02*
X01035D01*
X0088Y00969D02*
X01035D01*
X00821Y02016D02*
X00899D01*
X00821Y02171D02*
X00899D01*
X00821Y02016D02*
Y02171D01*
X00899Y02016D02*
Y02171D01*
X00676Y01967D02*
X00754D01*
X00676Y02122D02*
X00754D01*
X00676Y01967D02*
Y02122D01*
X00754Y01967D02*
Y02122D01*
X01701Y02371D02*
Y02448D01*
X01545Y02371D02*
Y02448D01*
X01701*
X01545Y02371D02*
X01701D01*
G54D39*
X0206Y0011D03*
X0015D03*
X02055Y02635D03*
X0015D03*
G54D40*
X00785Y0232D03*
X01085D03*
X0136Y023D03*
X0166D03*
G54D41*
X00566Y01223D03*
X01025D03*
X01485D03*
X01945D03*
G54D42*
X00666Y00533D03*
X00566D03*
X00466D03*
X01125D03*
X01025D03*
X00925D03*
X01585D03*
X01485D03*
X01385D03*
X02045D03*
X01945D03*
X01845D03*
G54D43*
X00963Y00221D03*
X00825D03*
X00687D03*
X01843D03*
X01705D03*
X01567D03*
X00188Y01189D03*
Y01051D03*
Y00769D03*
Y00631D03*
G54D44*
X01472Y02535D03*
X0157D03*
X01767D03*
X01669D03*
X00462D03*
X0056D03*
X00758D03*
X0066D03*
G54D45*
X0201Y0027D03*
X0122Y00285D03*
X00315Y00425D03*
X02025Y02055D03*
X01825Y0157D03*
X0029Y02175D03*
X003Y0196D03*
X00255Y01535D03*
X0123Y01765D03*
X01615Y0169D03*
X0069Y01575D03*
X00665Y0146D03*
X0024Y01895D03*
X00275Y02275D03*
X00175Y0165D03*
X0099Y0264D03*
X011Y0253D03*
X0053Y0091D03*
X0081Y0144D03*
X01485Y00945D03*
X0153Y01985D03*
X01673Y01762D03*
X01945Y0096D03*
Y0186D03*
X01805Y02005D03*
X00845Y01785D03*
X01295Y01995D03*
X01145D03*
X0115Y0182D03*
X01325Y01915D03*
X007Y01675D03*
X0027Y01725D03*
X0095Y01865D03*
X00405Y01925D03*
M02*