%FSTAX24Y24*%
%MOIN*%
%SFA1B1*%

%IPPOS*%
%ADD18R,0.007900X0.031800*%
%ADD19R,0.047600X0.015900*%
%ADD20R,0.031800X0.007900*%
%ADD21R,0.015900X0.047600*%
%ADD22R,0.007900X0.031800*%
%ADD23C,0.000000*%
%ADD24C,0.003900*%
%ADD25C,0.004000*%
%ADD26C,0.006000*%
%ADD27C,0.024000*%
%ADD28R,0.029500X0.057500*%
%ADD29R,0.030000X0.057500*%
%ADD30R,0.056000X0.014000*%
%ADD31R,0.057500X0.029500*%
%ADD32R,0.057500X0.030000*%
%ADD33R,0.030000X0.075000*%
%ADD34R,0.014000X0.056000*%
%ADD35R,0.058000X0.020000*%
%ADD36R,0.010000X0.024000*%
%ADD37R,0.045000X0.020000*%
%ADD38C,0.002000*%
%ADD48C,0.010000*%
%LNmotor_driver-1*%
%LPD*%
G54D18*
X016235Y024099D03*
G54D19*
X007152Y020449D03*
X013548Y009929D03*
G54D20*
X008601Y02094D03*
X003201Y00716D03*
X009149Y01685D03*
G54D21*
X009579Y009302D03*
X003349Y009102D03*
X016351Y018652D03*
X016251Y020652D03*
G54D22*
X0123Y022049D03*
G54D23*
X0211Y012239D02*
D01*
X021095Y012354*
X021083Y012468*
X021063Y012582*
X021036Y012693*
X021Y012803*
X020957Y01291*
X020906Y013013*
X020849Y013113*
X020784Y013208*
X020713Y013299*
X020636Y013385*
X020554Y013465*
X020465Y013539*
X020372Y013606*
X020275Y013667*
X020173Y013722*
X020068Y013768*
X019959Y013808*
X019849Y013839*
X019736Y013863*
X019622Y013879*
X019507Y013887*
X019392*
X019277Y013879*
X019163Y013863*
X01905Y013839*
X01894Y013808*
X018831Y013768*
X018726Y013722*
X018625Y013667*
X018527Y013606*
X018434Y013539*
X018345Y013465*
X018263Y013385*
X018186Y013299*
X018115Y013208*
X01805Y013113*
X017993Y013013*
X017942Y01291*
X017899Y012803*
X017863Y012693*
X017836Y012582*
X017816Y012468*
X017804Y012354*
X0178Y012239*
X017804Y012123*
X017816Y012009*
X017836Y011895*
X017863Y011784*
X017899Y011674*
X017942Y011567*
X017993Y011464*
X01805Y011364*
X018115Y011269*
X018186Y011178*
X018263Y011092*
X018345Y011012*
X018434Y010938*
X018527Y010871*
X018625Y01081*
X018726Y010755*
X018831Y010709*
X01894Y010669*
X01905Y010638*
X019163Y010614*
X019277Y010598*
X019392Y01059*
X019507*
X019622Y010598*
X019736Y010614*
X019849Y010638*
X019959Y010669*
X020068Y010709*
X020173Y010755*
X020275Y01081*
X020372Y010871*
X020465Y010938*
X020554Y011012*
X020636Y011092*
X020713Y011178*
X020784Y011269*
X020849Y011364*
X020906Y011464*
X020957Y011567*
X021Y011674*
X021036Y011784*
X021063Y011895*
X021083Y012009*
X021095Y012123*
X0211Y012239*
X016504D02*
D01*
X016499Y012354*
X016487Y012468*
X016467Y012582*
X01644Y012693*
X016404Y012803*
X016361Y01291*
X01631Y013013*
X016253Y013113*
X016188Y013208*
X016117Y013299*
X01604Y013385*
X015958Y013465*
X015869Y013539*
X015776Y013606*
X015679Y013667*
X015577Y013722*
X015472Y013768*
X015363Y013808*
X015253Y013839*
X01514Y013863*
X015026Y013879*
X014911Y013887*
X014796*
X014681Y013879*
X014567Y013863*
X014454Y013839*
X014344Y013808*
X014235Y013768*
X01413Y013722*
X014028Y013667*
X013931Y013606*
X013838Y013539*
X013749Y013465*
X013667Y013385*
X01359Y013299*
X013519Y013208*
X013454Y013113*
X013397Y013013*
X013346Y01291*
X013303Y012803*
X013267Y012693*
X01324Y012582*
X01322Y012468*
X013208Y012354*
X013204Y012239*
X013208Y012123*
X01322Y012009*
X01324Y011895*
X013267Y011784*
X013303Y011674*
X013346Y011567*
X013397Y011464*
X013454Y011364*
X013519Y011269*
X01359Y011178*
X013667Y011092*
X013749Y011012*
X013838Y010938*
X013931Y010871*
X014029Y01081*
X01413Y010755*
X014235Y010709*
X014344Y010669*
X014454Y010638*
X014567Y010614*
X014681Y010598*
X014796Y01059*
X014911*
X015026Y010598*
X01514Y010614*
X015253Y010638*
X015363Y010669*
X015472Y010709*
X015577Y010755*
X015679Y01081*
X015776Y010871*
X015869Y010938*
X015958Y011012*
X01604Y011092*
X016117Y011178*
X016188Y011269*
X016253Y011364*
X01631Y011464*
X016361Y011567*
X016404Y011674*
X01644Y011784*
X016467Y011895*
X016487Y012009*
X016499Y012123*
X016504Y012239*
X011907D02*
D01*
X011902Y012354*
X01189Y012468*
X01187Y012582*
X011843Y012693*
X011807Y012803*
X011764Y01291*
X011713Y013013*
X011656Y013113*
X011591Y013208*
X01152Y013299*
X011443Y013385*
X011361Y013465*
X011272Y013539*
X011179Y013606*
X011082Y013667*
X01098Y013722*
X010875Y013768*
X010766Y013808*
X010656Y013839*
X010543Y013863*
X010429Y013879*
X010314Y013887*
X010199*
X010084Y013879*
X00997Y013863*
X009857Y013839*
X009747Y013808*
X009638Y013768*
X009533Y013722*
X009431Y013667*
X009334Y013606*
X009241Y013539*
X009152Y013465*
X00907Y013385*
X008993Y013299*
X008922Y013208*
X008857Y013113*
X0088Y013013*
X008749Y01291*
X008706Y012803*
X00867Y012693*
X008643Y012582*
X008623Y012468*
X008611Y012354*
X008607Y012239*
X008611Y012123*
X008623Y012009*
X008643Y011895*
X00867Y011784*
X008706Y011674*
X008749Y011567*
X0088Y011464*
X008857Y011364*
X008922Y011269*
X008993Y011178*
X00907Y011092*
X009152Y011012*
X009241Y010938*
X009334Y010871*
X009432Y01081*
X009533Y010755*
X009638Y010709*
X009747Y010669*
X009857Y010638*
X00997Y010614*
X010084Y010598*
X010199Y01059*
X010314*
X010429Y010598*
X010543Y010614*
X010656Y010638*
X010766Y010669*
X010875Y010709*
X01098Y010755*
X011082Y01081*
X011179Y010871*
X011272Y010938*
X011361Y011012*
X011443Y011092*
X01152Y011178*
X011591Y011269*
X011656Y011364*
X011713Y011464*
X011764Y011567*
X011807Y011674*
X011843Y011784*
X01187Y011895*
X01189Y012009*
X011902Y012123*
X011907Y012239*
X007311D02*
D01*
X007306Y012354*
X007294Y012468*
X007274Y012582*
X007247Y012693*
X007211Y012803*
X007168Y01291*
X007117Y013013*
X00706Y013113*
X006995Y013208*
X006924Y013299*
X006847Y013385*
X006765Y013465*
X006676Y013539*
X006583Y013606*
X006486Y013667*
X006384Y013722*
X006279Y013768*
X00617Y013808*
X00606Y013839*
X005947Y013863*
X005833Y013879*
X005718Y013887*
X005603*
X005488Y013879*
X005374Y013863*
X005261Y013839*
X005151Y013808*
X005042Y013768*
X004937Y013722*
X004835Y013667*
X004738Y013606*
X004645Y013539*
X004556Y013465*
X004474Y013385*
X004397Y013299*
X004326Y013208*
X004261Y013113*
X004204Y013013*
X004153Y01291*
X00411Y012803*
X004074Y012693*
X004047Y012582*
X004027Y012468*
X004015Y012354*
X004011Y012239*
X004015Y012123*
X004027Y012009*
X004047Y011895*
X004074Y011784*
X00411Y011674*
X004153Y011567*
X004204Y011464*
X004261Y011364*
X004326Y011269*
X004397Y011178*
X004474Y011092*
X004556Y011012*
X004645Y010938*
X004738Y010871*
X004836Y01081*
X004937Y010755*
X005042Y010709*
X005151Y010669*
X005261Y010638*
X005374Y010614*
X005488Y010598*
X005603Y01059*
X005718*
X005833Y010598*
X005947Y010614*
X00606Y010638*
X00617Y010669*
X006279Y010709*
X006384Y010755*
X006486Y01081*
X006583Y010871*
X006676Y010938*
X006765Y011012*
X006847Y011092*
X006924Y011178*
X006995Y011269*
X00706Y011364*
X007117Y011464*
X007168Y011567*
X007211Y011674*
X007247Y011784*
X007274Y011895*
X007294Y012009*
X007306Y012123*
X007311Y012239*
X0211D02*
D01*
X021095Y012354*
X021083Y012468*
X021063Y012582*
X021036Y012693*
X021Y012803*
X020957Y01291*
X020906Y013013*
X020849Y013113*
X020784Y013208*
X020713Y013299*
X020636Y013385*
X020554Y013465*
X020465Y013539*
X020372Y013606*
X020275Y013667*
X020173Y013722*
X020068Y013768*
X019959Y013808*
X019849Y013839*
X019736Y013863*
X019622Y013879*
X019507Y013887*
X019392*
X019277Y013879*
X019163Y013863*
X01905Y013839*
X01894Y013808*
X018831Y013768*
X018726Y013722*
X018625Y013667*
X018527Y013606*
X018434Y013539*
X018345Y013465*
X018263Y013385*
X018186Y013299*
X018115Y013208*
X01805Y013113*
X017993Y013013*
X017942Y01291*
X017899Y012803*
X017863Y012693*
X017836Y012582*
X017816Y012468*
X017804Y012354*
X0178Y012239*
X017804Y012123*
X017816Y012009*
X017836Y011895*
X017863Y011784*
X017899Y011674*
X017942Y011567*
X017993Y011464*
X01805Y011364*
X018115Y011269*
X018186Y011178*
X018263Y011092*
X018345Y011012*
X018434Y010938*
X018527Y010871*
X018625Y01081*
X018726Y010755*
X018831Y010709*
X01894Y010669*
X01905Y010638*
X019163Y010614*
X019277Y010598*
X019392Y01059*
X019507*
X019622Y010598*
X019736Y010614*
X019849Y010638*
X019959Y010669*
X020068Y010709*
X020173Y010755*
X020275Y01081*
X020372Y010871*
X020465Y010938*
X020554Y011012*
X020636Y011092*
X020713Y011178*
X020784Y011269*
X020849Y011364*
X020906Y011464*
X020957Y011567*
X021Y011674*
X021036Y011784*
X021063Y011895*
X021083Y012009*
X021095Y012123*
X0211Y012239*
X016504D02*
D01*
X016499Y012354*
X016487Y012468*
X016467Y012582*
X01644Y012693*
X016404Y012803*
X016361Y01291*
X01631Y013013*
X016253Y013113*
X016188Y013208*
X016117Y013299*
X01604Y013385*
X015958Y013465*
X015869Y013539*
X015776Y013606*
X015679Y013667*
X015577Y013722*
X015472Y013768*
X015363Y013808*
X015253Y013839*
X01514Y013863*
X015026Y013879*
X014911Y013887*
X014796*
X014681Y013879*
X014567Y013863*
X014454Y013839*
X014344Y013808*
X014235Y013768*
X01413Y013722*
X014028Y013667*
X013931Y013606*
X013838Y013539*
X013749Y013465*
X013667Y013385*
X01359Y013299*
X013519Y013208*
X013454Y013113*
X013397Y013013*
X013346Y01291*
X013303Y012803*
X013267Y012693*
X01324Y012582*
X01322Y012468*
X013208Y012354*
X013204Y012239*
X013208Y012123*
X01322Y012009*
X01324Y011895*
X013267Y011784*
X013303Y011674*
X013346Y011567*
X013397Y011464*
X013454Y011364*
X013519Y011269*
X01359Y011178*
X013667Y011092*
X013749Y011012*
X013838Y010938*
X013931Y010871*
X014029Y01081*
X01413Y010755*
X014235Y010709*
X014344Y010669*
X014454Y010638*
X014567Y010614*
X014681Y010598*
X014796Y01059*
X014911*
X015026Y010598*
X01514Y010614*
X015253Y010638*
X015363Y010669*
X015472Y010709*
X015577Y010755*
X015679Y01081*
X015776Y010871*
X015869Y010938*
X015958Y011012*
X01604Y011092*
X016117Y011178*
X016188Y011269*
X016253Y011364*
X01631Y011464*
X016361Y011567*
X016404Y011674*
X01644Y011784*
X016467Y011895*
X016487Y012009*
X016499Y012123*
X016504Y012239*
X011907D02*
D01*
X011902Y012354*
X01189Y012468*
X01187Y012582*
X011843Y012693*
X011807Y012803*
X011764Y01291*
X011713Y013013*
X011656Y013113*
X011591Y013208*
X01152Y013299*
X011443Y013385*
X011361Y013465*
X011272Y013539*
X011179Y013606*
X011082Y013667*
X01098Y013722*
X010875Y013768*
X010766Y013808*
X010656Y013839*
X010543Y013863*
X010429Y013879*
X010314Y013887*
X010199*
X010084Y013879*
X00997Y013863*
X009857Y013839*
X009747Y013808*
X009638Y013768*
X009533Y013722*
X009431Y013667*
X009334Y013606*
X009241Y013539*
X009152Y013465*
X00907Y013385*
X008993Y013299*
X008922Y013208*
X008857Y013113*
X0088Y013013*
X008749Y01291*
X008706Y012803*
X00867Y012693*
X008643Y012582*
X008623Y012468*
X008611Y012354*
X008607Y012239*
X008611Y012123*
X008623Y012009*
X008643Y011895*
X00867Y011784*
X008706Y011674*
X008749Y011567*
X0088Y011464*
X008857Y011364*
X008922Y011269*
X008993Y011178*
X00907Y011092*
X009152Y011012*
X009241Y010938*
X009334Y010871*
X009432Y01081*
X009533Y010755*
X009638Y010709*
X009747Y010669*
X009857Y010638*
X00997Y010614*
X010084Y010598*
X010199Y01059*
X010314*
X010429Y010598*
X010543Y010614*
X010656Y010638*
X010766Y010669*
X010875Y010709*
X01098Y010755*
X011082Y01081*
X011179Y010871*
X011272Y010938*
X011361Y011012*
X011443Y011092*
X01152Y011178*
X011591Y011269*
X011656Y011364*
X011713Y011464*
X011764Y011567*
X011807Y011674*
X011843Y011784*
X01187Y011895*
X01189Y012009*
X011902Y012123*
X011907Y012239*
X007311D02*
D01*
X007306Y012354*
X007294Y012468*
X007274Y012582*
X007247Y012693*
X007211Y012803*
X007168Y01291*
X007117Y013013*
X00706Y013113*
X006995Y013208*
X006924Y013299*
X006847Y013385*
X006765Y013465*
X006676Y013539*
X006583Y013606*
X006486Y013667*
X006384Y013722*
X006279Y013768*
X00617Y013808*
X00606Y013839*
X005947Y013863*
X005833Y013879*
X005718Y013887*
X005603*
X005488Y013879*
X005374Y013863*
X005261Y013839*
X005151Y013808*
X005042Y013768*
X004937Y013722*
X004835Y013667*
X004738Y013606*
X004645Y013539*
X004556Y013465*
X004474Y013385*
X004397Y013299*
X004326Y013208*
X004261Y013113*
X004204Y013013*
X004153Y01291*
X00411Y012803*
X004074Y012693*
X004047Y012582*
X004027Y012468*
X004015Y012354*
X004011Y012239*
X004015Y012123*
X004027Y012009*
X004047Y011895*
X004074Y011784*
X00411Y011674*
X004153Y011567*
X004204Y011464*
X004261Y011364*
X004326Y011269*
X004397Y011178*
X004474Y011092*
X004556Y011012*
X004645Y010938*
X004738Y010871*
X004836Y01081*
X004937Y010755*
X005042Y010709*
X005151Y010669*
X005261Y010638*
X005374Y010614*
X005488Y010598*
X005603Y01059*
X005718*
X005833Y010598*
X005947Y010614*
X00606Y010638*
X00617Y010669*
X006279Y010709*
X006384Y010755*
X006486Y01081*
X006583Y010871*
X006676Y010938*
X006765Y011012*
X006847Y011092*
X006924Y011178*
X006995Y011269*
X00706Y011364*
X007117Y011464*
X007168Y011567*
X007211Y011674*
X007247Y011784*
X007274Y011895*
X007294Y012009*
X007306Y012123*
X007311Y012239*
G54D24*
X006828Y007715D02*
Y008285D01*
X005962Y007715D02*
Y008285D01*
X006828*
X005962Y007715D02*
X006828D01*
X014717Y008165D02*
Y008735D01*
X015583Y008165D02*
Y008735D01*
X014717Y008165D02*
X015583D01*
X014717Y008735D02*
X015583D01*
X019317Y007915D02*
Y008485D01*
X020183Y007915D02*
Y008485D01*
X019317Y007915D02*
X020183D01*
X019317Y008485D02*
X020183D01*
X006946Y007685D02*
Y008315D01*
X005844Y007685D02*
Y008315D01*
X006946*
X005844Y007685D02*
X006946D01*
X006198Y008D02*
X006592D01*
X006395Y007803D02*
Y008197D01*
X014599Y008135D02*
Y008765D01*
X015701Y008135D02*
Y008765D01*
X014599Y008135D02*
X015701D01*
X014599Y008765D02*
X015701D01*
X014953Y00845D02*
X015347D01*
X01515Y008253D02*
Y008647D01*
X019199Y007885D02*
Y008515D01*
X020301Y007885D02*
Y008515D01*
X019199Y007885D02*
X020301D01*
X019199Y008515D02*
X020301D01*
X019553Y0082D02*
X019947D01*
X01975Y008003D02*
Y008397D01*
G54D25*
X016085Y02384D02*
X016385D01*
X016094Y02436D02*
X016385D01*
X00886Y02079D02*
Y02109D01*
X00834Y02079D02*
Y02108D01*
X00141Y006591D02*
X002169Y005836D01*
X00161Y006783D02*
X002364Y006031D01*
X00141Y00797D02*
X002169Y00722D01*
X00161Y00817D02*
X002364Y00741D01*
X00141Y010791D02*
X002169Y010036D01*
X00161Y010983D02*
X002364Y010231D01*
X00141Y01217D02*
X002169Y01142D01*
X00161Y01237D02*
X002364Y01161D01*
X015197Y001931D02*
X015952Y00269D01*
X015392Y001736D02*
X016144Y00249D01*
X016575Y001931D02*
X01733Y00269D01*
X01677Y001736D02*
X01753Y00249D01*
X01796Y001931D02*
X01871Y00269D01*
X01815Y001736D02*
X01891Y00249D01*
X006397Y001931D02*
X007152Y00269D01*
X006592Y001736D02*
X007344Y00249D01*
X007775Y001931D02*
X00853Y00269D01*
X00797Y001736D02*
X00873Y00249D01*
X00916Y001931D02*
X00991Y00269D01*
X00935Y001736D02*
X01011Y00249D01*
X00346Y00701D02*
Y00731D01*
X00294Y00702D02*
Y00731D01*
X00889Y0167D02*
Y017D01*
X00941Y01671D02*
Y017D01*
X01215Y02179D02*
X01245D01*
X01215Y02231D02*
X01244D01*
G54D26*
X006441Y0255D02*
X006741D01*
X006441Y0252D02*
Y0255D01*
Y0252D02*
X006741D01*
Y0255*
X006441D02*
X006741Y0252D01*
X006441D02*
X006741Y0255D01*
X007431Y0252D02*
Y0255D01*
Y0252D02*
X007732D01*
Y0255*
X007431D02*
X007732D01*
X007431Y0252D02*
X007732Y0255D01*
X007431D02*
X007732Y0252D01*
X004778D02*
Y0255D01*
X004478Y0252D02*
X004778D01*
X004478D02*
Y0255D01*
X004778Y0252*
X004478D02*
X004778Y0255D01*
X004478D02*
X004778D01*
X005758Y0252D02*
Y0255D01*
X005458Y0252D02*
X005758D01*
X005458D02*
Y0255D01*
X005758Y0252*
X005458D02*
X005758Y0255D01*
X005458D02*
X005758D01*
X0074Y02017D02*
Y02073D01*
X0069Y02017D02*
Y02073D01*
X016533Y0255D02*
X016833D01*
X016533Y0252D02*
Y0255D01*
Y0252D02*
X016833D01*
Y0255*
X016533D02*
X016833Y0252D01*
X016533D02*
X016833Y0255D01*
X017524Y0252D02*
Y0255D01*
Y0252D02*
X017824D01*
Y0255*
X017524D02*
X017824D01*
X017524Y0252D02*
X017824Y0255D01*
X017524D02*
X017824Y0252D01*
X01487D02*
Y0255D01*
X01457Y0252D02*
X01487D01*
X01457D02*
Y0255D01*
X01487Y0252*
X01457D02*
X01487Y0255D01*
X01457D02*
X01487D01*
X01585Y0252D02*
Y0255D01*
X01555Y0252D02*
X01585D01*
X01555D02*
Y0255D01*
X01585Y0252*
X01555D02*
X01585Y0255D01*
X01555D02*
X01585D01*
X0093Y00955D02*
X00986D01*
X0093Y00905D02*
X00986D01*
X00307Y00935D02*
X00363D01*
X00307Y00885D02*
X00363D01*
X0133Y00965D02*
Y01021D01*
X0138Y00965D02*
Y01021D01*
X01607Y0189D02*
X01663D01*
X01607Y0184D02*
X01663D01*
X01597Y0209D02*
X01653D01*
X01597Y0204D02*
X01653D01*
X01635Y02265D02*
Y02335D01*
X01385Y02265D02*
Y02335D01*
X0106Y02285D02*
Y02355D01*
X0081Y02285D02*
Y02355D01*
G54D27*
X01645Y023D02*
X0166D01*
X0136D02*
X01375D01*
X0107Y0232D02*
X01085D01*
X00785D02*
X008D01*
G54D28*
X015952Y024097D03*
X012582Y022048D03*
G54D29*
X016525Y024097D03*
X01201Y022048D03*
G54D30*
X00715Y02079D03*
Y02011D03*
X01355Y01027D03*
Y00959D03*
G54D31*
X008602Y021222D03*
X003203Y006878D03*
X009147Y016568D03*
G54D32*
X008602Y02065D03*
X003203Y00745D03*
X009147Y01714D03*
G54D33*
X01845Y005614D03*
X01945D03*
X02045D03*
X013854D03*
X014854D03*
X015854D03*
X009257D03*
X010257D03*
X011257D03*
X004661D03*
X005661D03*
X006661D03*
G54D34*
X00992Y0093D03*
X00924D03*
X00369Y0091D03*
X00301D03*
X01601Y01865D03*
X01669D03*
X01591Y02065D03*
X01659D03*
G54D35*
X01049Y02115D03*
Y02065D03*
Y02015D03*
Y01965D03*
Y01915D03*
Y01865D03*
Y01815D03*
Y01765D03*
X01411Y02115D03*
Y02065D03*
Y02015D03*
Y01965D03*
Y01915D03*
Y01865D03*
Y01815D03*
Y01765D03*
Y01715D03*
Y01665D03*
X01049Y01715D03*
Y01665D03*
G54D36*
X0164Y023D03*
X0138D03*
X01065Y0232D03*
X00805D03*
G54D37*
X005845Y02175D03*
X003855Y02325D03*
Y02275D03*
X003865Y02225D03*
X003855Y02175D03*
X005845Y02225D03*
Y02275D03*
Y02325D03*
Y02125D03*
Y02075D03*
Y02025D03*
X003855Y02125D03*
Y02075D03*
Y02025D03*
X005795Y01675D03*
X003805Y01825D03*
Y01775D03*
X003815Y01725D03*
X003805Y01675D03*
X005795Y01725D03*
Y01775D03*
Y01825D03*
Y01625D03*
Y01575D03*
Y01525D03*
X003805Y01625D03*
Y01575D03*
Y01525D03*
G54D38*
X015458Y02371D02*
X017015D01*
X015458Y024487D02*
X017015D01*
X015458Y02371D02*
Y024487D01*
X017015Y02371D02*
Y024487D01*
X00754Y01967D02*
Y021227D01*
X006763Y01967D02*
Y021227D01*
X00754*
X006763Y01967D02*
X00754D01*
X00899Y02016D02*
Y021717D01*
X008213Y02016D02*
Y021717D01*
X00899*
X008213Y02016D02*
X00899D01*
X0088Y00969D02*
X010357D01*
X0088Y008913D02*
X010357D01*
Y00969*
X0088Y008913D02*
Y00969D01*
X00359Y006383D02*
Y00794D01*
X002813Y006383D02*
Y00794D01*
Y006383D02*
X00359D01*
X002813Y00794D02*
X00359D01*
X00257Y00949D02*
X004127D01*
X00257Y008713D02*
X004127D01*
Y00949*
X00257Y008713D02*
Y00949D01*
X01316Y00915D02*
Y010707D01*
X013937Y00915D02*
Y010707D01*
X01316D02*
X013937D01*
X01316Y00915D02*
X013937D01*
X00876Y016073D02*
Y01763D01*
X009537Y016073D02*
Y01763D01*
X00876Y016073D02*
X009537D01*
X00876Y01763D02*
X009537D01*
X015573Y01904D02*
X01713D01*
X015573Y018263D02*
X01713D01*
X015573D02*
Y01904D01*
X01713Y018263D02*
Y01904D01*
X015473Y02104D02*
X01703D01*
X015473Y020263D02*
X01703D01*
X015473D02*
Y02104D01*
X01703Y020263D02*
Y02104D01*
X01152Y02166D02*
X013077D01*
X01152Y022437D02*
X013077D01*
Y02166D02*
Y022437D01*
X01152Y02166D02*
Y022437D01*
G54D48*
X01652Y0253D02*
X01662Y0254D01*
X01682*
X01692Y0253*
Y0249*
X01682Y0248*
X01662*
X01652Y0249*
X01602Y0248D02*
Y0254D01*
X01632Y0251*
X01592*
X0031Y00875D02*
X0032Y00885D01*
X0034*
X0035Y00875*
Y00835*
X0034Y00825*
X0032*
X0031Y00835*
X0025Y00885D02*
X0029D01*
Y00855*
X0027Y00865*
X0026*
X0025Y00855*
Y00835*
X0026Y00825*
X0028*
X0029Y00835*
X00324Y0098D02*
Y0104D01*
X00354*
X00364Y0103*
Y0101*
X00354Y01*
X00324*
X00344D02*
X00364Y0098D01*
X00384D02*
X00404D01*
X00394*
Y0104*
X00384Y0103*
X010267Y01D02*
Y0106D01*
X009967*
X009867Y0105*
Y0103*
X009967Y0102*
X010267*
X010067D02*
X009867Y01D01*
X009267D02*
X009667D01*
X009267Y0104*
Y0105*
X009367Y0106*
X009567*
X009667Y0105*
X01285Y01102D02*
Y01162D01*
X01315*
X01325Y01152*
Y01132*
X01315Y01122*
X01285*
X01305D02*
X01325Y01102D01*
X01385Y01162D02*
X01345D01*
Y01132*
X01365Y01142*
X01375*
X01385Y01132*
Y01112*
X01375Y01102*
X01355*
X01345Y01112*
X00627Y00913D02*
X00617Y00923D01*
X00597*
X00587Y00913*
Y00873*
X00597Y00863*
X00617*
X00627Y00873*
X00687Y00923D02*
X00667Y00913D01*
X00647Y00893*
Y00873*
X00657Y00863*
X00677*
X00687Y00873*
Y00883*
X00677Y00893*
X00647*
X01575Y0095D02*
X01585Y0096D01*
X01605*
X01615Y0095*
Y0091*
X01605Y009*
X01585*
X01575Y0091*
X01555Y0095D02*
X01545Y0096D01*
X01525*
X01515Y0095*
Y0094*
X01525Y0093*
X01515Y0092*
Y0091*
X01525Y009*
X01545*
X01555Y0091*
Y0092*
X01545Y0093*
X01555Y0094*
Y0095*
X01545Y0093D02*
X01525D01*
X02055Y0092D02*
X02065Y0093D01*
X02085*
X02095Y0092*
Y0088*
X02085Y0087*
X02065*
X02055Y0088*
X02035D02*
X02025Y0087D01*
X02005*
X01995Y0088*
Y0092*
X02005Y0093*
X02025*
X02035Y0092*
Y0091*
X02025Y009*
X01995*
M02*