%FSTAX23Y23*%
%MOIN*%
%SFA1B1*%

%IPPOS*%
%AMD40*
4,1,8,-0.012000,-0.024000,0.012000,-0.024000,0.024000,-0.012000,0.024000,0.012000,0.012000,0.024000,-0.012000,0.024000,-0.024000,0.012000,-0.024000,-0.012000,-0.012000,-0.024000,0.0*
%
%ADD11R,0.052000X0.060000*%
%ADD12R,0.052000X0.063000*%
%ADD13R,0.060000X0.052000*%
%ADD14R,0.063000X0.052000*%
%ADD15C,0.035000*%
%ADD16C,0.070000*%
%ADD17C,0.060000*%
%ADD18R,0.007900X0.031800*%
%ADD19R,0.015900X0.047600*%
%ADD20R,0.031800X0.007900*%
%ADD21R,0.047600X0.015900*%
%ADD22R,0.007900X0.031800*%
%ADD23C,0.000000*%
%ADD24C,0.003900*%
%ADD25C,0.024000*%
%ADD26C,0.006000*%
%ADD27C,0.004000*%
%ADD28R,0.010000X0.024000*%
%ADD29R,0.045000X0.020000*%
%ADD30R,0.030000X0.057500*%
%ADD31R,0.029500X0.057500*%
%ADD32R,0.014000X0.056000*%
%ADD33R,0.057500X0.030000*%
%ADD34R,0.057500X0.029500*%
%ADD35R,0.058000X0.020000*%
%ADD36R,0.030000X0.075000*%
%ADD37R,0.056000X0.014000*%
%ADD38C,0.002000*%
%ADD39R,0.150000X0.150000*%
G04~CAMADD=40~4~0.0~0.0~480.0~480.0~0.0~120.0~0~0.0~0.0~0.0~0.0~0~0.0~0.0~0.0~0.0~0~0.0~0.0~0.0~180.0~480.0~480.0*
%ADD40D40*%
%ADD41C,0.130000*%
%ADD42O,0.066000X0.132000*%
%ADD43C,0.067000*%
%ADD44O,0.060000X0.120000*%
%ADD45C,0.050000*%
%ADD46R,0.043300X0.055100*%
%ADD47C,0.065000*%
%LNmotor_driver-1*%
%LPD*%
G36*
X02185Y014D02*
X0219Y01395D01*
Y0*
X00007*
X0Y00007*
Y01405*
X00787*
Y0095*
X00669Y00832*
X00651*
X00649*
X00641Y00837*
X00637*
X00634*
X00615*
Y008*
Y00762*
X00634*
X00638*
X00641*
X00646Y00754*
Y00599*
X00639Y00594*
X00632Y00586*
X00629Y00576*
X00627Y00566*
Y005*
X00629Y00491*
X00632Y00481*
X00639Y00473*
X00646Y00467*
X00656Y00463*
X00666Y00462*
X00676Y00463*
X00685Y00467*
X00693Y00473*
X00699Y00481*
X00703Y00491*
X00704Y005*
Y00566*
X00703Y00576*
X00699Y00586*
X00693Y00594*
X00692Y00594*
Y00767*
X00695*
Y00794*
X00826Y00924*
X00831Y00932*
X00832Y0094*
Y01117*
X00842Y0112*
X00843Y01118*
X00972Y0099*
Y00966*
X00964*
Y00893*
X01026*
Y00966*
X01018*
Y00999*
X01016Y01008*
X01011Y01015*
X00882Y01144*
Y01295*
X00992Y01405*
X01414*
X01418Y01395*
X01338Y01316*
X01333Y01308*
X01332Y013*
Y01061*
X01318*
Y00999*
X01391*
Y01061*
X01377*
Y0129*
X01492Y01405*
X01692*
Y01165*
X01693Y01156*
X01698Y01148*
X01822Y01025*
Y00597*
X01817Y00594*
X01811Y00586*
X01808Y00576*
X01806Y00566*
Y005*
X01808Y00491*
X01811Y00481*
X01817Y00473*
X01825Y00467*
X01835Y00463*
X01845Y00462*
X01854Y00463*
X01864Y00467*
X01872Y00473*
X01878Y00481*
X01882Y00491*
X01883Y005*
Y00566*
X01882Y00576*
X01878Y00586*
X01872Y00594*
X01867Y00597*
Y01035*
X01866Y01043*
X01861Y01051*
X01737Y01174*
Y01405*
X0218*
X02185Y014*
G37*
G36*
X0219Y01475D02*
D01*
X01737*
Y0172*
X01736Y01728*
X01731Y01736*
X01703Y01764*
X01701Y01773*
X01694Y01783*
X01684Y0179*
X01673Y01792*
X01661Y0179*
X01651Y01783*
X01644Y01773*
X01642Y01762*
X01644Y0175*
X01651Y0174*
X01661Y01733*
X0167Y01731*
X01692Y0171*
Y01475*
X01552*
Y01965*
X01558Y01973*
X0156Y01985*
X01558Y01996*
X01551Y02006*
X01541Y02013*
X0153Y02015*
X01518Y02013*
X01508Y02006*
X01501Y01996*
X01499Y01985*
X01501Y01973*
X01507Y01965*
Y01484*
X01497Y01475*
X01082*
X01076Y01488*
X01246Y01658*
X01251Y01666*
X01252Y01675*
Y01745*
X01258Y01753*
X0126Y01765*
X01258Y01776*
X01251Y01786*
X01241Y01793*
X0123Y01795*
X01218Y01793*
X01208Y01786*
X01201Y01776*
X01199Y01765*
X01201Y01753*
X01207Y01745*
Y01684*
X00997Y01475*
X00787*
X00781Y01488*
X01089Y01797*
X0113*
X01138Y01791*
X0115Y01789*
X01161Y01791*
X01171Y01798*
X01178Y01808*
X0118Y0182*
X01178Y01831*
X01171Y01841*
X01161Y01848*
X0115Y0185*
X01138Y01848*
X0113Y01842*
X01091*
X01085Y01857*
X01119Y01892*
X01305*
X01313Y01886*
X01325Y01884*
X01336Y01886*
X01346Y01893*
X01353Y01903*
X01355Y01915*
X01353Y01926*
X01346Y01936*
X01336Y01943*
X01325Y01945*
X01313Y01943*
X01305Y01937*
X0111*
X01101Y01936*
X01093Y01931*
X0091Y01747*
X0087*
X00866Y01762*
X00866Y01763*
X00873Y01773*
X00875Y01785*
X00873Y01796*
X00866Y01806*
X00856Y01813*
X00845Y01815*
X00833Y01813*
X00825Y01807*
X0051*
X00501Y01806*
X00493Y01801*
X00462Y0177*
X00447Y01776*
Y01805*
X00484Y01842*
X0093*
X00938Y01836*
X0095Y01834*
X00961Y01836*
X00971Y01843*
X00978Y01853*
X0098Y01865*
X00978Y01876*
X00971Y01886*
X00961Y01893*
X0095Y01895*
X00938Y01893*
X0093Y01887*
X00475*
X00466Y01886*
X00458Y01881*
X00408Y01831*
X00403Y01823*
X00402Y01815*
Y01747*
X00289*
X00281Y01753*
X0027Y01755*
X00258Y01753*
X00248Y01746*
X00241Y01736*
X00239Y01725*
X00241Y01713*
X00248Y01703*
X00258Y01696*
X0027Y01694*
X00281Y01696*
X00289Y01702*
X00425*
X00432Y01703*
X00435Y01702*
X00447Y01694*
Y01566*
X00418Y01537*
X00285*
X00283Y01546*
X00276Y01556*
X00266Y01563*
X00255Y01565*
X00243Y01563*
X00233Y01556*
X00226Y01546*
X00224Y01535*
X00226Y01523*
X00233Y01513*
X00243Y01506*
X00248Y01505*
X00253Y01497*
X00246Y01482*
X00239*
X00132Y01589*
Y01625*
X00135Y01627*
X00153Y01628*
X00163Y01621*
X00175Y01619*
X00186Y01621*
X00196Y01628*
X00203Y01638*
X00205Y0165*
X00203Y01661*
X00197Y01669*
Y0187*
X002Y01872*
X00218Y01873*
X00228Y01866*
X0024Y01864*
X00251Y01866*
X00261Y01873*
X00268Y01883*
X0027Y01895*
X00268Y01906*
X00261Y01916*
X00252Y01922*
Y01949*
X00267Y0196*
X00269Y0196*
X00271Y01948*
X00278Y01938*
X00288Y01931*
X003Y01929*
X00311Y01931*
X00321Y01938*
X00328Y01948*
X0033Y0196*
X00328Y01971*
X00321Y01981*
X00312Y01987*
Y02155*
X00318Y02163*
X0032Y02175*
X00318Y02186*
X00311Y02196*
X00301Y02203*
X0029Y02205*
X00278Y02203*
X00268Y02196*
X00267Y02196*
X00252Y022*
Y0222*
X00277Y02244*
X00286Y02246*
X00296Y02253*
X00303Y02263*
X00305Y02275*
X00303Y02286*
X00296Y02296*
X00286Y02303*
X00275Y02305*
X00263Y02303*
X00253Y02296*
X00246Y02286*
X00244Y02277*
X00213Y02246*
X00212Y02245*
X00197Y02249*
Y02375*
X00236Y02414*
X00365*
X00373Y02416*
X00381Y02421*
X00439Y02478*
X00449Y02472*
X00462Y02469*
X00472Y02471*
X0048Y02458*
X00433Y02411*
X00428Y02403*
X00427Y02395*
Y01979*
X00402Y01955*
X00393Y01953*
X00383Y01946*
X00376Y01936*
X00374Y01925*
X00376Y01913*
X00383Y01903*
X00393Y01896*
X00405Y01894*
X00416Y01896*
X00426Y01903*
X00433Y01913*
X00435Y01922*
X00466Y01953*
X00471Y01961*
X00472Y0197*
Y02385*
X00557Y0247*
X0056Y02469*
X00574Y02472*
X00586Y02479*
X00593Y02491*
X00596Y02505*
Y02565*
X00593Y02578*
X00586Y0259*
X00574Y02598*
X0056Y026*
X00547Y02598*
X00535Y0259*
X00527Y02578*
X00525Y02565*
Y02505*
X00525Y02503*
X00509Y02486*
X00496Y02495*
X00498Y02505*
Y02565*
X00495Y02578*
X00488Y0259*
X00476Y02598*
X00462Y026*
X00449Y02598*
X00437Y0259*
X00429Y02578*
X00427Y02565*
Y02531*
X00355Y0246*
X00238*
X00232Y02475*
X00384Y02627*
X00605*
X00628Y02604*
X00634Y0259*
X00627Y02578*
X00624Y02565*
Y02505*
X00627Y02491*
X00634Y02479*
X00646Y02472*
X0066Y02469*
X00673Y02472*
X00685Y02479*
X00693Y02491*
X00695Y02505*
Y02565*
X00693Y02578*
X00685Y0259*
X00682Y02591*
Y02605*
X00681Y02613*
X00676Y02621*
X00631Y02666*
X00623Y02671*
X00615Y02672*
X00375*
X00366Y02671*
X00358Y02666*
X0025Y02557*
X00235Y02563*
Y0263*
X00155*
Y0255*
X00221*
X00227Y02535*
X00093Y02401*
X00088Y02393*
X00087Y02385*
Y0158*
X00088Y01571*
X00093Y01563*
X00168Y01488*
X00163Y01475*
X0001*
X0Y01485*
Y02815*
X0219*
Y01475*
G37*
%LNmotor_driver-2*%
%LPC*%
G36*
X01025Y00605D02*
X01015Y00603D01*
X01006Y006*
X00998Y00594*
X00992Y00586*
X00988Y00576*
X00987Y00566*
Y005*
X00988Y00491*
X00992Y00481*
X00998Y00473*
X01006Y00467*
X01015Y00463*
X01025Y00462*
X01035Y00463*
X01044Y00467*
X01052Y00473*
X01058Y00481*
X01062Y00491*
X01064Y005*
Y00566*
X01062Y00576*
X01058Y00586*
X01052Y00594*
X01044Y006*
X01035Y00603*
X01025Y00605*
G37*
G36*
X00951Y00966D02*
X00889D01*
Y00893*
X00897*
Y00592*
X00892Y00586*
X00888Y00576*
X00887Y00566*
Y005*
X00888Y00491*
X00892Y00481*
X00898Y00473*
X00906Y00467*
X00915Y00463*
X00925Y00462*
X00935Y00463*
X00944Y00467*
X00952Y00473*
X00958Y00481*
X00962Y00491*
X00964Y005*
Y00566*
X00962Y00576*
X00958Y00586*
X00952Y00594*
X00944Y006*
X00942Y006*
Y00893*
X00951*
Y00966*
G37*
G36*
X02088Y00528D02*
X0205D01*
Y00458*
X02056Y00459*
X02066Y00463*
X02075Y0047*
X02082Y00479*
X02086Y00489*
X02088Y005*
Y00528*
G37*
G36*
X01485Y00975D02*
X01477Y00974D01*
X01469Y00971*
X01463Y00966*
X01458Y0096*
X01455Y00952*
X01454Y00945*
X01455Y00937*
X01458Y00929*
X01462Y00925*
Y00877*
X01458*
Y00812*
X01462*
Y00597*
X01458Y00594*
X01452Y00586*
X01448Y00576*
X01447Y00566*
Y005*
X01448Y00491*
X01452Y00481*
X01458Y00473*
X01466Y00467*
X01475Y00463*
X01485Y00462*
X01495Y00463*
X01504Y00467*
X01512Y00473*
X01518Y00481*
X01522Y00491*
X01523Y005*
Y00566*
X01522Y00576*
X01518Y00586*
X01512Y00594*
X01508Y00597*
Y00799*
X01512Y00807*
X01516*
X0152*
X01539*
Y00845*
Y00882*
X0152*
X01516*
X01512*
X01508Y0089*
Y00926*
X01511Y00929*
X01514Y00937*
X01515Y00945*
X01514Y00952*
X01511Y0096*
X01506Y00966*
X015Y00971*
X01492Y00974*
X01485Y00975*
G37*
G36*
X01391Y00986D02*
X01318D01*
Y00924*
X01353*
X01362Y00915*
Y00597*
X01358Y00594*
X01352Y00586*
X01348Y00576*
X01347Y00566*
Y005*
X01348Y00491*
X01352Y00481*
X01358Y00473*
X01366Y00467*
X01375Y00463*
X01385Y00462*
X01395Y00463*
X01404Y00467*
X01412Y00473*
X01418Y00481*
X01422Y00491*
X01423Y005*
Y00566*
X01422Y00576*
X01418Y00586*
X01412Y00594*
X01408Y00597*
Y00924*
X01406Y00933*
X01401Y0094*
X01391Y0095*
Y00986*
G37*
G36*
X02009Y00857D02*
Y00825D01*
X02036*
Y00857*
X02009*
G37*
G36*
X0204Y00528D02*
X02001D01*
Y005*
X02003Y00489*
X02007Y00479*
X02014Y0047*
X02023Y00463*
X02033Y00459*
X0204Y00458*
Y00528*
G37*
G36*
X0031Y00459D02*
X00305Y00459D01*
X00297Y00455*
X0029Y0045*
X00284Y00442*
X0028Y00434*
X0028Y0043*
X0031*
Y00459*
G37*
G36*
X00349Y0042D02*
X0032D01*
Y0039*
X00324Y0039*
X00332Y00394*
X0034Y004*
X00345Y00407*
X00349Y00415*
X00349Y0042*
G37*
G36*
X0031D02*
X0028D01*
X0028Y00415*
X00284Y00407*
X0029Y004*
X00297Y00394*
X00305Y0039*
X0031Y0039*
Y0042*
G37*
G36*
X01169Y00528D02*
X0113D01*
Y00458*
X01136Y00459*
X01147Y00463*
X01156Y0047*
X01163Y00479*
X01167Y00489*
X01169Y005*
Y00528*
G37*
G36*
X0112D02*
X01082D01*
Y005*
X01083Y00489*
X01088Y00479*
X01095Y0047*
X01104Y00463*
X01114Y00459*
X0112Y00458*
Y00528*
G37*
G36*
X0032Y00459D02*
Y0043D01*
X00349*
X00349Y00434*
X00345Y00442*
X0034Y0045*
X00332Y00455*
X00324Y00459*
X0032Y00459*
G37*
G36*
X01585Y00605D02*
X01575Y00603D01*
X01566Y006*
X01558Y00594*
X01552Y00586*
X01548Y00576*
X01547Y00566*
Y005*
X01548Y00491*
X01552Y00481*
X01558Y00473*
X01566Y00467*
X01575Y00463*
X01585Y00462*
X01595Y00463*
X01604Y00467*
X01612Y00473*
X01618Y00481*
X01622Y00491*
X01623Y005*
Y00566*
X01622Y00576*
X01618Y00586*
X01612Y00594*
X01604Y006*
X01595Y00603*
X01585Y00605*
G37*
G36*
X00605Y00795D02*
X00578D01*
Y00762*
X00605*
Y00795*
G37*
G36*
X0036Y00786D02*
X00325D01*
Y00755*
X0036*
Y00786*
G37*
G36*
X00315D02*
X0028D01*
Y00755*
X00315*
Y00786*
G37*
G36*
X00605Y00837D02*
X00578D01*
Y00805*
X00605*
Y00837*
G37*
G36*
X02036Y00815D02*
X02009D01*
Y00782*
X02036*
Y00815*
G37*
G36*
X00193Y00812D02*
Y00774D01*
X00232*
X00231Y0078*
X00226Y0079*
X0022Y008*
X0021Y00807*
X002Y00811*
X00193Y00812*
G37*
G36*
X00232Y00764D02*
X00193D01*
Y00725*
X002Y00726*
X0021Y00731*
X0022Y00738*
X00226Y00747*
X00231Y00757*
X00232Y00764*
G37*
G36*
X0112Y00609D02*
X01114Y00608D01*
X01104Y00604*
X01095Y00597*
X01088Y00588*
X01083Y00578*
X01082Y00566*
Y00538*
X0112*
Y00609*
G37*
G36*
X01945Y0099D02*
X01937Y00989D01*
X01929Y00986*
X01923Y00981*
X01918Y00975*
X01915Y00967*
X01914Y0096*
X01915Y00952*
X01918Y00944*
X01922Y0094*
Y00852*
X01918*
Y00787*
X01922*
Y00597*
X01917Y00594*
X01911Y00586*
X01908Y00576*
X01906Y00566*
Y005*
X01908Y00491*
X01911Y00481*
X01917Y00473*
X01925Y00467*
X01935Y00463*
X01945Y00462*
X01954Y00463*
X01964Y00467*
X01972Y00473*
X01978Y00481*
X01982Y00491*
X01983Y005*
Y00566*
X01982Y00576*
X01978Y00586*
X01972Y00594*
X01967Y00597*
Y00774*
X01972Y00782*
X01976*
X0198*
X01999*
Y0082*
Y00857*
X0198*
X01976*
X01972*
X01967Y00865*
Y0094*
X01971Y00944*
X01974Y00952*
X01975Y0096*
X01974Y00967*
X01971Y00975*
X01966Y00981*
X0196Y00986*
X01952Y00989*
X01945Y0099*
G37*
G36*
X01576Y0084D02*
X01549D01*
Y00807*
X01576*
Y0084*
G37*
G36*
X0205Y00609D02*
Y00538D01*
X02088*
Y00566*
X02086Y00578*
X02082Y00588*
X02075Y00597*
X02066Y00604*
X02056Y00608*
X0205Y00609*
G37*
G36*
X0204D02*
X02033Y00608D01*
X02023Y00604*
X02014Y00597*
X02007Y00588*
X02003Y00578*
X02001Y00566*
Y00538*
X0204*
Y00609*
G37*
G36*
X0113D02*
Y00538D01*
X01169*
Y00566*
X01167Y00578*
X01163Y00588*
X01156Y00597*
X01147Y00604*
X01136Y00608*
X0113Y00609*
G37*
G36*
X01006Y00216D02*
X00968D01*
Y00177*
X00974Y00178*
X00984Y00183*
X00994Y0019*
X01001Y00199*
X01005Y00209*
X01006Y00216*
G37*
G36*
X00958D02*
X00919D01*
X0092Y00209*
X00925Y00199*
X00932Y0019*
X00941Y00183*
X00951Y00178*
X00958Y00177*
Y00216*
G37*
G36*
X02145Y00195D02*
X02065D01*
Y00115*
X02145*
Y00195*
G37*
G36*
X01838Y00216D02*
X01799D01*
X018Y00209*
X01805Y00199*
X01812Y0019*
X01821Y00183*
X01831Y00178*
X01838Y00177*
Y00216*
G37*
G36*
X00825Y00259D02*
X00814Y00258D01*
X00805Y00254*
X00797Y00248*
X00791Y0024*
X00787Y00231*
X00786Y00221*
X00787Y00211*
X00791Y00201*
X00797Y00193*
X00805Y00187*
X00814Y00183*
X00825Y00182*
X00835Y00183*
X00844Y00187*
X00852Y00193*
X00858Y00201*
X00862Y00211*
X00863Y00221*
X00862Y00231*
X00858Y0024*
X00852Y00248*
X00844Y00254*
X00835Y00258*
X00825Y00259*
G37*
G36*
X00687D02*
X00677Y00258D01*
X00667Y00254*
X00659Y00248*
X00653Y0024*
X00649Y00231*
X00648Y00221*
X00649Y00211*
X00653Y00201*
X00659Y00193*
X00667Y00187*
X00677Y00183*
X00687Y00182*
X00697Y00183*
X00706Y00187*
X00714Y00193*
X0072Y00201*
X00724Y00211*
X00726Y00221*
X00724Y00231*
X0072Y0024*
X00714Y00248*
X00706Y00254*
X00697Y00258*
X00687Y00259*
G37*
G36*
X01886Y00216D02*
X01848D01*
Y00177*
X01854Y00178*
X01864Y00183*
X01874Y0019*
X01881Y00199*
X01885Y00209*
X01886Y00216*
G37*
G36*
X02055Y00105D02*
X01975D01*
Y00025*
X02055*
Y00105*
G37*
G36*
X00235D02*
X00155D01*
Y00025*
X00235*
Y00105*
G37*
G36*
X00145D02*
X00065D01*
Y00025*
X00145*
Y00105*
G37*
G36*
X02145D02*
X02065D01*
Y00025*
X02145*
Y00105*
G37*
G36*
X02055Y00195D02*
X01975D01*
Y00115*
X02055*
Y00195*
G37*
G36*
X00235D02*
X00155D01*
Y00115*
X00235*
Y00195*
G37*
G36*
X00145D02*
X00065D01*
Y00115*
X00145*
Y00195*
G37*
G36*
X01254Y0028D02*
X01225D01*
Y0025*
X01229Y0025*
X01237Y00254*
X01245Y0026*
X0125Y00267*
X01254Y00275*
X01254Y0028*
G37*
G36*
X01215D02*
X01185D01*
X01185Y00275*
X01189Y00267*
X01195Y0026*
X01202Y00254*
X0121Y0025*
X01215Y0025*
Y0028*
G37*
G36*
X02044Y00265D02*
X02015D01*
Y00235*
X02019Y00235*
X02027Y00239*
X02035Y00245*
X0204Y00252*
X02044Y0026*
X02044Y00265*
G37*
G36*
X02005Y00304D02*
X02Y00304D01*
X01992Y003*
X01985Y00295*
X01979Y00287*
X01975Y00279*
X01975Y00275*
X02005*
Y00304*
G37*
G36*
X01225Y00319D02*
Y0029D01*
X01254*
X01254Y00294*
X0125Y00302*
X01245Y0031*
X01237Y00315*
X01229Y00319*
X01225Y00319*
G37*
G36*
X01215D02*
X0121Y00319D01*
X01202Y00315*
X01195Y0031*
X01189Y00302*
X01185Y00294*
X01185Y0029*
X01215*
Y00319*
G37*
G36*
X02015Y00304D02*
Y00275D01*
X02044*
X02044Y00279*
X0204Y00287*
X02035Y00295*
X02027Y003*
X02019Y00304*
X02015Y00304*
G37*
G36*
X00958Y00264D02*
X00951Y00263D01*
X00941Y00259*
X00932Y00252*
X00925Y00243*
X0092Y00232*
X00919Y00226*
X00958*
Y00264*
G37*
G36*
X01705Y00259D02*
X01694Y00258D01*
X01685Y00254*
X01677Y00248*
X01671Y0024*
X01667Y00231*
X01666Y00221*
X01667Y00211*
X01671Y00201*
X01677Y00193*
X01685Y00187*
X01694Y00183*
X01705Y00182*
X01715Y00183*
X01724Y00187*
X01732Y00193*
X01738Y00201*
X01742Y00211*
X01743Y00221*
X01742Y00231*
X01738Y0024*
X01732Y00248*
X01724Y00254*
X01715Y00258*
X01705Y00259*
G37*
G36*
X01567D02*
X01557Y00258D01*
X01547Y00254*
X01539Y00248*
X01533Y0024*
X01529Y00231*
X01528Y00221*
X01529Y00211*
X01533Y00201*
X01539Y00193*
X01547Y00187*
X01557Y00183*
X01567Y00182*
X01577Y00183*
X01586Y00187*
X01594Y00193*
X016Y00201*
X01604Y00211*
X01606Y00221*
X01604Y00231*
X016Y0024*
X01594Y00248*
X01586Y00254*
X01577Y00258*
X01567Y00259*
G37*
G36*
X00968Y00264D02*
Y00226D01*
X01006*
X01005Y00232*
X01001Y00243*
X00994Y00252*
X00984Y00259*
X00974Y00263*
X00968Y00264*
G37*
G36*
X02005Y00265D02*
X01975D01*
X01975Y0026*
X01979Y00252*
X01985Y00245*
X01992Y00239*
X02Y00235*
X02005Y00235*
Y00265*
G37*
G36*
X01848Y00264D02*
Y00226D01*
X01886*
X01885Y00232*
X01881Y00243*
X01874Y00252*
X01864Y00259*
X01854Y00263*
X01848Y00264*
G37*
G36*
X01838D02*
X01831Y00263D01*
X01821Y00259*
X01812Y00252*
X01805Y00243*
X018Y00232*
X01799Y00226*
X01838*
Y00264*
G37*
G36*
X01808Y0253D02*
X01772D01*
Y02465*
X01783Y02467*
X01796Y02476*
X01805Y02489*
X01808Y02505*
Y0253*
G37*
G36*
X01762D02*
X01726D01*
Y02505*
X0173Y02489*
X01738Y02476*
X01752Y02467*
X01762Y02465*
Y0253*
G37*
G36*
X0171D02*
X01674D01*
Y02465*
X01679Y02466*
X01684Y02467*
X01698Y02476*
X01706Y02489*
X0171Y02505*
Y0253*
G37*
G36*
X00758Y026D02*
X00744Y02598D01*
X00733Y0259*
X00725Y02578*
X00722Y02565*
Y02505*
X00725Y02491*
X00733Y02479*
X00744Y02472*
X00758Y02469*
X00772Y02472*
X00783Y02479*
X00791Y02491*
X00794Y02505*
Y02565*
X00791Y02578*
X00783Y0259*
X00772Y02598*
X00758Y026*
G37*
G36*
X0157D02*
X01556Y02598D01*
X01544Y0259*
X01537Y02578*
X01534Y02565*
Y02519*
X01519Y02513*
X01507Y02524*
Y02565*
X01505Y02578*
X01497Y0259*
X01485Y02598*
X01472Y026*
X01458Y02598*
X01446Y0259*
X01439Y02578*
X01436Y02565*
Y02505*
X01439Y02491*
X01446Y02479*
X01458Y02472*
X01472Y02469*
X01485Y02472*
X01491Y02476*
X01553Y02413*
X01559Y02408*
Y02375*
X01606*
X01608*
X01621Y0237*
X01627*
X01633*
X01652*
Y0241*
Y0245*
X01633*
X01627*
X01621*
X01608Y02445*
X01607*
X01592Y02448*
Y02478*
X01595Y02479*
X01603Y02491*
X01605Y02505*
Y02565*
X01603Y02578*
X01595Y0259*
X01583Y02598*
X0157Y026*
G37*
G36*
X01134Y02525D02*
X01105D01*
Y02495*
X01113Y02497*
X01125Y02504*
X01133Y02516*
X01134Y02525*
G37*
G36*
X01095D02*
X01065D01*
X01067Y02516*
X01074Y02504*
X01086Y02497*
X01095Y02495*
Y02525*
G37*
G36*
X01655Y02334D02*
X01643D01*
X01626Y02317*
Y02305*
X01655*
Y02334*
G37*
G36*
X01099Y02349D02*
X0107D01*
X01056Y02334*
Y02305*
X0107Y02291*
X01099*
X01114Y02305*
Y02334*
X01099Y02349*
G37*
G36*
X00799D02*
X0077D01*
X00756Y02334*
Y02305*
X0077Y02291*
X00799*
X00814Y02305*
Y02334*
X00799Y02349*
G37*
G36*
X01677Y02334D02*
X01665D01*
Y02305*
X01694*
Y02317*
X01677Y02334*
G37*
G36*
X01664Y0253D02*
X01628D01*
Y02505*
X01631Y02489*
X0164Y02476*
X01653Y02467*
X01659Y02466*
X01664Y02465*
Y0253*
G37*
G36*
X01673Y0246D02*
X01664D01*
X01663Y0245*
X01662*
Y02415*
X01693*
Y0245*
X01674*
X01673Y0246*
G37*
G36*
X01693Y02405D02*
X01662D01*
Y0237*
X01693*
Y02405*
G37*
G36*
X01024Y02635D02*
X00995D01*
Y02605*
X01003Y02607*
X01015Y02614*
X01023Y02626*
X01024Y02635*
G37*
G36*
X00985D02*
X00955D01*
X00957Y02626*
X00964Y02614*
X00976Y02607*
X00985Y02605*
Y02635*
G37*
G36*
X02135Y02715D02*
X01975D01*
Y02555*
X02135*
Y02715*
G37*
G36*
X00145Y0272D02*
X00065D01*
Y0264*
X00145*
Y0272*
G37*
G36*
X00995Y02674D02*
Y02645D01*
X01024*
X01023Y02653*
X01015Y02665*
X01003Y02673*
X00995Y02674*
G37*
G36*
X00985D02*
X00976Y02673D01*
X00964Y02665*
X00957Y02653*
X00955Y02645*
X00985*
Y02674*
G37*
G36*
X00235Y0272D02*
X00155D01*
Y0264*
X00235*
Y0272*
G37*
G36*
X01664Y02604D02*
X01653Y02602D01*
X0164Y02593*
X01631Y0258*
X01628Y02565*
Y0254*
X01664*
Y02604*
G37*
G36*
X01105Y02564D02*
Y02535D01*
X01134*
X01133Y02543*
X01125Y02555*
X01113Y02563*
X01105Y02564*
G37*
G36*
X01095D02*
X01086Y02563D01*
X01074Y02555*
X01067Y02543*
X01065Y02535*
X01095*
Y02564*
G37*
G36*
X01674Y02604D02*
Y0254D01*
X0171*
Y02565*
X01706Y0258*
X01698Y02593*
X01684Y02602*
X01674Y02604*
G37*
G36*
X00145Y0263D02*
X00065D01*
Y0255*
X00145*
Y0263*
G37*
G36*
X01772Y02604D02*
Y0254D01*
X01808*
Y02565*
X01805Y0258*
X01796Y02593*
X01783Y02602*
X01772Y02604*
G37*
G36*
X01762D02*
X01752Y02602D01*
X01738Y02593*
X0173Y0258*
X01726Y02565*
Y0254*
X01762*
Y02604*
G37*
G36*
X00183Y01232D02*
X00177Y01231D01*
X00167Y01227*
X00157Y0122*
X0015Y0121*
X00146Y012*
X00145Y01194*
X00183*
Y01232*
G37*
G36*
X01945Y01294D02*
X01931Y01292D01*
X01918Y01288*
X01905Y01282*
X01895Y01273*
X01886Y01263*
X0188Y0125*
X01876Y01237*
X01874Y01223*
X01876Y0121*
X0188Y01197*
X01886Y01184*
X01895Y01174*
X01905Y01165*
X01918Y01158*
X01931Y01154*
X01945Y01153*
X01958Y01154*
X01971Y01158*
X01984Y01165*
X01994Y01174*
X02003Y01184*
X0201Y01197*
X02014Y0121*
X02015Y01223*
X02014Y01237*
X0201Y0125*
X02003Y01263*
X01994Y01273*
X01984Y01282*
X01971Y01288*
X01958Y01292*
X01945Y01294*
G37*
G36*
X01485D02*
X01471Y01292D01*
X01458Y01288*
X01446Y01282*
X01435Y01273*
X01426Y01263*
X0142Y0125*
X01416Y01237*
X01415Y01223*
X01416Y0121*
X0142Y01197*
X01426Y01184*
X01435Y01174*
X01446Y01165*
X01458Y01158*
X01471Y01154*
X01485Y01153*
X01499Y01154*
X01512Y01158*
X01524Y01165*
X01535Y01174*
X01543Y01184*
X0155Y01197*
X01554Y0121*
X01555Y01223*
X01554Y01237*
X0155Y0125*
X01543Y01263*
X01535Y01273*
X01524Y01282*
X01512Y01288*
X01499Y01292*
X01485Y01294*
G37*
G36*
X00193Y01232D02*
Y01194D01*
X00232*
X00231Y012*
X00226Y0121*
X0022Y0122*
X0021Y01227*
X002Y01231*
X00193Y01232*
G37*
G36*
X0182Y01604D02*
X01811Y01603D01*
X01799Y01595*
X01792Y01583*
X0179Y01575*
X0182*
Y01604*
G37*
G36*
X01859Y01565D02*
X0183D01*
Y01535*
X01838Y01537*
X0185Y01544*
X01858Y01556*
X01859Y01565*
G37*
G36*
X0182D02*
X0179D01*
X01792Y01556*
X01799Y01544*
X01811Y01537*
X0182Y01535*
Y01565*
G37*
G36*
X00188Y01089D02*
X00178Y01088D01*
X00169Y01084*
X00161Y01078*
X00155Y0107*
X00151Y01061*
X0015Y01051*
X00151Y01041*
X00155Y01031*
X00161Y01023*
X00169Y01017*
X00178Y01013*
X00188Y01012*
X00199Y01013*
X00208Y01017*
X00216Y01023*
X00222Y01031*
X00226Y01041*
X00227Y01051*
X00226Y01061*
X00222Y0107*
X00216Y01078*
X00208Y01084*
X00199Y01088*
X00188Y01089*
G37*
G36*
X00195Y0095D02*
X00184Y00949D01*
X00174Y00944*
X00166Y00938*
X00081Y00853*
X00075Y00845*
X00071Y00835*
X00069Y00825*
Y0056*
X00071Y00549*
X00075Y00539*
X00081Y00531*
X00107Y00505*
X00115Y00499*
X00125Y00494*
X00136Y00493*
X00428*
X00429Y00491*
X00432Y00481*
X00439Y00473*
X00446Y00467*
X00456Y00463*
X00466Y00462*
X00476Y00463*
X00485Y00467*
X00493Y00473*
X00499Y00481*
X00503Y00491*
X00504Y005*
Y00521*
X00505Y00523*
X00506Y00533*
X00505Y00544*
X00504Y00545*
Y00566*
X00503Y00576*
X00499Y00586*
X00493Y00594*
X00485Y006*
X00476Y00603*
X00466Y00605*
X00456Y00603*
X00446Y006*
X00439Y00594*
X00432Y00586*
X00429Y00576*
X00428Y00574*
X00152*
X0015Y00576*
Y00601*
X0016Y00605*
X00161Y00603*
X00169Y00597*
X00178Y00593*
X00188Y00592*
X00199Y00593*
X00204Y00595*
X00255*
X00258Y00594*
X00268Y00593*
X00278Y00594*
X00287Y00598*
X00295Y00604*
X00338Y00647*
X00507*
X0053Y00624*
Y00581*
X00529Y00576*
X00527Y00566*
Y005*
X00529Y00491*
X00532Y00481*
X00539Y00473*
X00546Y00467*
X00556Y00463*
X00566Y00462*
X00576Y00463*
X00585Y00467*
X00593Y00473*
X00599Y00481*
X00603Y00491*
X00604Y005*
Y00566*
X00603Y00576*
X00601Y00581*
Y00638*
X006Y00648*
X00596Y00656*
X00591Y00663*
X00547Y00707*
X0054Y00713*
X00531Y00716*
X00522Y00717*
X0036*
Y00745*
X0028*
Y00714*
X00285Y00713*
Y00701*
X0025Y00666*
X00204*
X00199Y00668*
X00188Y00669*
X00178Y00668*
X00169Y00664*
X00161Y00658*
X0016Y00657*
X0015Y0066*
Y00731*
X00152Y00733*
X0016Y00736*
X00167Y00731*
X00177Y00726*
X00183Y00725*
Y00769*
Y00812*
X00177Y00811*
X00167Y00807*
X00166Y00807*
X00156Y00811*
X00156Y00813*
X00156Y00814*
X00211Y00869*
X00297*
X00307Y00871*
X00313Y00873*
X00328*
Y00881*
X00332Y00884*
X00341Y00879*
Y00873*
X00403*
Y00887*
X0051*
X00514Y00883*
X00522Y0088*
X0053Y00879*
X00537Y0088*
X00545Y00883*
X00551Y00888*
X00556Y00894*
X00559Y00902*
X0056Y0091*
X00559Y00917*
X00556Y00925*
X00551Y00931*
X00545Y00936*
X00537Y00939*
X0053Y0094*
X00522Y00939*
X00514Y00936*
X0051Y00932*
X00403*
Y00946*
X00341*
Y0094*
X00332Y00935*
X00328Y00938*
Y00946*
X00313*
X00307Y00949*
X00297Y0095*
X00195*
G37*
G36*
X01549Y00882D02*
Y0085D01*
X01576*
Y00882*
X01549*
G37*
G36*
X00183Y01184D02*
X00145D01*
X00146Y01177*
X0015Y01167*
X00157Y01158*
X00167Y01151*
X00177Y01146*
X00183Y01145*
Y01184*
G37*
G36*
X01025Y01294D02*
X01012Y01292D01*
X00998Y01288*
X00986Y01282*
X00976Y01273*
X00967Y01263*
X0096Y0125*
X00956Y01237*
X00955Y01223*
X00956Y0121*
X0096Y01197*
X00967Y01184*
X00976Y01174*
X00986Y01165*
X00998Y01158*
X01012Y01154*
X01025Y01153*
X01039Y01154*
X01052Y01158*
X01064Y01165*
X01075Y01174*
X01084Y01184*
X0109Y01197*
X01094Y0121*
X01096Y01223*
X01094Y01237*
X0109Y0125*
X01084Y01263*
X01075Y01273*
X01064Y01282*
X01052Y01288*
X01039Y01292*
X01025Y01294*
G37*
G36*
X00566D02*
X00552Y01292D01*
X00539Y01288*
X00527Y01282*
X00516Y01273*
X00507Y01263*
X00501Y0125*
X00497Y01237*
X00495Y01223*
X00497Y0121*
X00501Y01197*
X00507Y01184*
X00516Y01174*
X00527Y01165*
X00539Y01158*
X00552Y01154*
X00566Y01153*
X00579Y01154*
X00593Y01158*
X00605Y01165*
X00615Y01174*
X00624Y01184*
X00631Y01197*
X00635Y0121*
X00636Y01223*
X00635Y01237*
X00631Y0125*
X00624Y01263*
X00615Y01273*
X00605Y01282*
X00593Y01288*
X00579Y01292*
X00566Y01294*
G37*
G36*
X00232Y01184D02*
X00193D01*
Y01145*
X002Y01146*
X0021Y01151*
X0022Y01158*
X00226Y01167*
X00231Y01177*
X00232Y01184*
G37*
G36*
X0202Y02089D02*
X02011Y02088D01*
X01999Y0208*
X01992Y02068*
X0199Y0206*
X0202*
Y02089*
G37*
G36*
X02059Y0205D02*
X0203D01*
Y0202*
X02038Y02022*
X0205Y02029*
X02058Y02041*
X02059Y0205*
G37*
G36*
X0202D02*
X0199D01*
X01992Y02041*
X01999Y02029*
X02011Y02022*
X0202Y0202*
Y0205*
G37*
G36*
X0203Y02089D02*
Y0206D01*
X02059*
X02058Y02068*
X0205Y0208*
X02038Y02088*
X0203Y02089*
G37*
G36*
X01374Y02329D02*
X01345D01*
X01331Y02314*
Y02285*
X01345Y02271*
X01374*
X01389Y02285*
Y02314*
X01374Y02329*
G37*
G36*
X01694Y02295D02*
X01665D01*
Y02266*
X01677*
X01694Y02283*
Y02295*
G37*
G36*
X01655D02*
X01626D01*
Y02283*
X01643Y02266*
X01655*
Y02295*
G37*
G36*
X01649Y01685D02*
X0162D01*
Y01655*
X01628Y01657*
X0164Y01664*
X01648Y01676*
X01649Y01685*
G37*
G36*
X0161D02*
X0158D01*
X01582Y01676*
X01589Y01664*
X01601Y01657*
X0161Y01655*
Y01685*
G37*
G36*
X0183Y01604D02*
Y01575D01*
X01859*
X01858Y01583*
X0185Y01595*
X01838Y01603*
X0183Y01604*
G37*
G36*
X0161Y01724D02*
X01601Y01723D01*
X01589Y01715*
X01582Y01703*
X0158Y01695*
X0161*
Y01724*
G37*
G36*
X01295Y02025D02*
X01283Y02023D01*
X01275Y02017*
X01164*
X01156Y02023*
X01145Y02025*
X01133Y02023*
X01123Y02016*
X01116Y02006*
X01114Y01995*
X01116Y01983*
X01123Y01973*
X01133Y01966*
X01145Y01964*
X01156Y01966*
X01164Y01972*
X01275*
X01283Y01966*
X01295Y01964*
X01306Y01966*
X01316Y01973*
X01323Y01983*
X01325Y01995*
X01323Y02006*
X01316Y02016*
X01306Y02023*
X01295Y02025*
G37*
G36*
X01805Y02035D02*
X01793Y02033D01*
X01783Y02026*
X01776Y02016*
X01774Y02005*
X01776Y01993*
X01783Y01983*
X01793Y01976*
X01802Y01974*
X01914Y01862*
X01914Y0186*
X01916Y01848*
X01923Y01838*
X01933Y01831*
X01945Y01829*
X01956Y01831*
X01966Y01838*
X01973Y01848*
X01975Y0186*
X01973Y01871*
X01966Y01881*
X01956Y01888*
X01953Y01888*
X01835Y02007*
X01833Y02016*
X01826Y02026*
X01816Y02033*
X01805Y02035*
G37*
G36*
X0162Y01724D02*
Y01695D01*
X01649*
X01648Y01703*
X0164Y01715*
X01628Y01723*
X0162Y01724*
G37*
%LNmotor_driver-3*%
%LPD*%
G54D11*
X01657Y0241D03*
X0159D03*
G54D12*
X00297Y0091D03*
X00372D03*
X0092Y0093D03*
X00995D03*
G54D13*
X0032Y0075D03*
Y00682D03*
G54D14*
X01355Y00955D03*
Y0103D03*
G54D15*
X00375Y0265D02*
X00615D01*
X0011Y02385D02*
X00375Y0265D01*
X0011Y0158D02*
Y02385D01*
X00666Y00533D02*
X00669Y00536D01*
Y008*
X0023Y0223D02*
X00275Y02275D01*
X0023Y01905D02*
Y0223D01*
Y01905D02*
X0024Y01895D01*
X0029Y0197D02*
Y02175D01*
Y0197D02*
X003Y0196D01*
X00275Y01515D02*
X00428D01*
X00255Y01535D02*
X00275Y01515D01*
X0047Y01556D02*
Y01745D01*
X00428Y01515D02*
X0047Y01556D01*
X01544Y00845D02*
X01615Y00915D01*
Y0169*
X0086Y01305D02*
X0123Y01675D01*
Y01765*
X01615Y0169D02*
Y02145D01*
X0166Y0219*
Y023*
X01767Y0252D02*
Y02535D01*
X01657Y0241D02*
X01767Y0252D01*
X01657Y02302D02*
X0166Y023D01*
X01657Y02302D02*
Y0241D01*
Y02523D02*
X01669Y02535D01*
X01657Y0241D02*
Y02523D01*
X0157Y0243D02*
X0159Y0241D01*
X01472Y02528D02*
X0157Y0243D01*
X01472Y02528D02*
Y02535D01*
X0157Y0243D02*
Y02535D01*
X0066D02*
Y02605D01*
X00545Y01575D02*
X0069D01*
X0043Y0146D02*
X00545Y01575D01*
X0023Y0146D02*
X0043D01*
X0011Y0158D02*
X0023Y0146D01*
X00615Y0265D02*
X0066Y02605D01*
X00665Y0146D02*
X0072D01*
X00175Y0165D02*
Y02385D01*
X00227Y02437*
X00365*
X00462Y02535*
X01945Y00533D02*
Y0096D01*
X0004Y0139D02*
Y015D01*
X0099Y0264D02*
X011Y0253D01*
X00372Y0091D02*
X0053D01*
X00669Y008D02*
X0081Y0094D01*
Y0144*
X0086Y01135D02*
Y01305D01*
Y01135D02*
X00995Y00999D01*
X0072Y0146D02*
X0108Y0182D01*
X0092Y01725D02*
X0111Y01915D01*
X0075Y01725D02*
X0092D01*
X0108Y0182D02*
X0115D01*
X0111Y01915D02*
X01325D01*
X01485Y00845D02*
Y00944D01*
X01485Y00945D02*
X01485Y00944D01*
X01355Y0103D02*
Y013D01*
X0153Y01475*
Y01985*
X01715Y01165D02*
Y0172D01*
Y01165D02*
X01845Y01035D01*
Y00533D02*
Y01035D01*
X01673Y01762D02*
X01715Y0172D01*
X01945Y0186D02*
Y01865D01*
X01805Y02005D02*
X01945Y01865D01*
X00995Y0093D02*
Y00999D01*
X0051Y01785D02*
X00845D01*
X00475Y01865D02*
X0095D01*
X0047Y01745D02*
X0051Y01785D01*
X00425Y01815D02*
X00475Y01865D01*
X01145Y01995D02*
X01295D01*
X007Y01675D02*
X0075Y01725D01*
X00425D02*
Y01815D01*
X0027Y01725D02*
X00425D01*
X00405Y01925D02*
X0045Y0197D01*
Y02395*
X0056Y02505*
Y02535*
X0092Y00539D02*
X00925Y00533D01*
X0092Y00539D02*
Y0093D01*
X01485Y00533D02*
X01485Y00534D01*
Y00845*
X01385Y00533D02*
Y00924D01*
X01355Y00955D02*
X01385Y00924D01*
G54D16*
X0011Y00825D02*
X00195Y0091D01*
X0011Y0056D02*
Y00825D01*
Y0056D02*
X00136Y00533D01*
X00466*
X00195Y0091D02*
X00297D01*
G54D17*
X0032Y00682D02*
X00522D01*
X00188Y00631D02*
X00268D01*
X00566Y00533D02*
Y00638D01*
X00522Y00682D02*
X00566Y00638D01*
G54D18*
X0123Y02204D03*
G54D19*
X01625Y02065D03*
X01635Y01865D03*
X00334Y0091D03*
X00957Y0093D03*
G54D20*
X00914Y01685D03*
X0032Y00716D03*
X0086Y02094D03*
G54D21*
X01354Y00992D03*
X00715Y02044D03*
G54D22*
X01623Y02409D03*
G54D23*
X00731Y01223D02*
D01*
X0073Y01235*
X00729Y01246*
X00727Y01258*
X00724Y01269*
X00721Y0128*
X00716Y01291*
X00711Y01301*
X00706Y01311*
X00699Y0132*
X00692Y01329*
X00684Y01338*
X00676Y01346*
X00667Y01353*
X00658Y0136*
X00648Y01366*
X00638Y01372*
X00627Y01376*
X00617Y0138*
X00606Y01383*
X00594Y01386*
X00583Y01387*
X00571Y01388*
X0056*
X00548Y01387*
X00537Y01386*
X00526Y01383*
X00515Y0138*
X00504Y01376*
X00493Y01372*
X00483Y01366*
X00473Y0136*
X00464Y01353*
X00455Y01346*
X00447Y01338*
X00439Y01329*
X00432Y0132*
X00426Y01311*
X0042Y01301*
X00415Y01291*
X00411Y0128*
X00407Y01269*
X00404Y01258*
X00402Y01246*
X00401Y01235*
X00401Y01223*
X00401Y01212*
X00402Y012*
X00404Y01189*
X00407Y01178*
X00411Y01167*
X00415Y01156*
X0042Y01146*
X00426Y01136*
X00432Y01126*
X00439Y01117*
X00447Y01109*
X00455Y01101*
X00464Y01093*
X00473Y01087*
X00483Y01081*
X00493Y01075*
X00504Y0107*
X00515Y01066*
X00526Y01063*
X00537Y01061*
X00548Y01059*
X0056Y01059*
X00571*
X00583Y01059*
X00594Y01061*
X00606Y01063*
X00617Y01066*
X00627Y0107*
X00638Y01075*
X00648Y01081*
X00658Y01087*
X00667Y01093*
X00676Y01101*
X00684Y01109*
X00692Y01117*
X00699Y01126*
X00706Y01136*
X00711Y01146*
X00716Y01156*
X00721Y01167*
X00724Y01178*
X00727Y01189*
X00729Y012*
X0073Y01212*
X00731Y01223*
X0119D02*
D01*
X0119Y01235*
X01189Y01246*
X01187Y01258*
X01184Y01269*
X0118Y0128*
X01176Y01291*
X01171Y01301*
X01165Y01311*
X01159Y0132*
X01152Y01329*
X01144Y01338*
X01136Y01346*
X01127Y01353*
X01117Y0136*
X01108Y01366*
X01098Y01372*
X01087Y01376*
X01076Y0138*
X01065Y01383*
X01054Y01386*
X01042Y01387*
X01031Y01388*
X01019*
X01008Y01387*
X00997Y01386*
X00985Y01383*
X00974Y0138*
X00963Y01376*
X00953Y01372*
X00943Y01366*
X00933Y0136*
X00924Y01353*
X00915Y01346*
X00907Y01338*
X00899Y01329*
X00892Y0132*
X00885Y01311*
X0088Y01301*
X00874Y01291*
X0087Y0128*
X00867Y01269*
X00864Y01258*
X00862Y01246*
X00861Y01235*
X0086Y01223*
X00861Y01212*
X00862Y012*
X00864Y01189*
X00867Y01178*
X0087Y01167*
X00874Y01156*
X0088Y01146*
X00885Y01136*
X00892Y01126*
X00899Y01117*
X00907Y01109*
X00915Y01101*
X00924Y01093*
X00933Y01087*
X00943Y01081*
X00953Y01075*
X00963Y0107*
X00974Y01066*
X00985Y01063*
X00997Y01061*
X01008Y01059*
X01019Y01059*
X01031*
X01042Y01059*
X01054Y01061*
X01065Y01063*
X01076Y01066*
X01087Y0107*
X01098Y01075*
X01108Y01081*
X01117Y01087*
X01127Y01093*
X01136Y01101*
X01144Y01109*
X01152Y01117*
X01159Y01126*
X01165Y01136*
X01171Y01146*
X01176Y01156*
X0118Y01167*
X01184Y01178*
X01187Y01189*
X01189Y012*
X0119Y01212*
X0119Y01223*
X0165D02*
D01*
X01649Y01235*
X01648Y01246*
X01646Y01258*
X01644Y01269*
X0164Y0128*
X01636Y01291*
X01631Y01301*
X01625Y01311*
X01618Y0132*
X01611Y01329*
X01604Y01338*
X01595Y01346*
X01586Y01353*
X01577Y0136*
X01567Y01366*
X01557Y01372*
X01547Y01376*
X01536Y0138*
X01525Y01383*
X01514Y01386*
X01502Y01387*
X01491Y01388*
X01479*
X01468Y01387*
X01456Y01386*
X01445Y01383*
X01434Y0138*
X01423Y01376*
X01413Y01372*
X01402Y01366*
X01393Y0136*
X01383Y01353*
X01374Y01346*
X01366Y01338*
X01359Y01329*
X01351Y0132*
X01345Y01311*
X01339Y01301*
X01334Y01291*
X0133Y0128*
X01326Y01269*
X01324Y01258*
X01322Y01246*
X0132Y01235*
X0132Y01223*
X0132Y01212*
X01322Y012*
X01324Y01189*
X01326Y01178*
X0133Y01167*
X01334Y01156*
X01339Y01146*
X01345Y01136*
X01351Y01126*
X01359Y01117*
X01366Y01109*
X01374Y01101*
X01383Y01093*
X01393Y01087*
X01402Y01081*
X01413Y01075*
X01423Y0107*
X01434Y01066*
X01445Y01063*
X01456Y01061*
X01468Y01059*
X01479Y01059*
X01491*
X01502Y01059*
X01514Y01061*
X01525Y01063*
X01536Y01066*
X01547Y0107*
X01557Y01075*
X01567Y01081*
X01577Y01087*
X01586Y01093*
X01595Y01101*
X01604Y01109*
X01611Y01117*
X01618Y01126*
X01625Y01136*
X01631Y01146*
X01636Y01156*
X0164Y01167*
X01644Y01178*
X01646Y01189*
X01648Y012*
X01649Y01212*
X0165Y01223*
X0211D02*
D01*
X02109Y01235*
X02108Y01246*
X02106Y01258*
X02103Y01269*
X021Y0128*
X02095Y01291*
X0209Y01301*
X02084Y01311*
X02078Y0132*
X02071Y01329*
X02063Y01338*
X02055Y01346*
X02046Y01353*
X02037Y0136*
X02027Y01366*
X02017Y01372*
X02006Y01376*
X01995Y0138*
X01984Y01383*
X01973Y01386*
X01962Y01387*
X0195Y01388*
X01939*
X01927Y01387*
X01916Y01386*
X01905Y01383*
X01894Y0138*
X01883Y01376*
X01872Y01372*
X01862Y01366*
X01852Y0136*
X01843Y01353*
X01834Y01346*
X01826Y01338*
X01818Y01329*
X01811Y0132*
X01805Y01311*
X01799Y01301*
X01794Y01291*
X01789Y0128*
X01786Y01269*
X01783Y01258*
X01781Y01246*
X0178Y01235*
X0178Y01223*
X0178Y01212*
X01781Y012*
X01783Y01189*
X01786Y01178*
X01789Y01167*
X01794Y01156*
X01799Y01146*
X01805Y01136*
X01811Y01126*
X01818Y01117*
X01826Y01109*
X01834Y01101*
X01843Y01093*
X01852Y01087*
X01862Y01081*
X01872Y01075*
X01883Y0107*
X01894Y01066*
X01905Y01063*
X01916Y01061*
X01927Y01059*
X01939Y01059*
X0195*
X01962Y01059*
X01973Y01061*
X01984Y01063*
X01995Y01066*
X02006Y0107*
X02017Y01075*
X02027Y01081*
X02037Y01087*
X02046Y01093*
X02055Y01101*
X02063Y01109*
X02071Y01117*
X02078Y01126*
X02084Y01136*
X0209Y01146*
X02095Y01156*
X021Y01167*
X02103Y01178*
X02106Y01189*
X02108Y012*
X02109Y01212*
X0211Y01223*
X00731D02*
D01*
X0073Y01235*
X00729Y01246*
X00727Y01258*
X00724Y01269*
X00721Y0128*
X00716Y01291*
X00711Y01301*
X00706Y01311*
X00699Y0132*
X00692Y01329*
X00684Y01338*
X00676Y01346*
X00667Y01353*
X00658Y0136*
X00648Y01366*
X00638Y01372*
X00627Y01376*
X00617Y0138*
X00606Y01383*
X00594Y01386*
X00583Y01387*
X00571Y01388*
X0056*
X00548Y01387*
X00537Y01386*
X00526Y01383*
X00515Y0138*
X00504Y01376*
X00493Y01372*
X00483Y01366*
X00473Y0136*
X00464Y01353*
X00455Y01346*
X00447Y01338*
X00439Y01329*
X00432Y0132*
X00426Y01311*
X0042Y01301*
X00415Y01291*
X00411Y0128*
X00407Y01269*
X00404Y01258*
X00402Y01246*
X00401Y01235*
X00401Y01223*
X00401Y01212*
X00402Y012*
X00404Y01189*
X00407Y01178*
X00411Y01167*
X00415Y01156*
X0042Y01146*
X00426Y01136*
X00432Y01126*
X00439Y01117*
X00447Y01109*
X00455Y01101*
X00464Y01093*
X00473Y01087*
X00483Y01081*
X00493Y01075*
X00504Y0107*
X00515Y01066*
X00526Y01063*
X00537Y01061*
X00548Y01059*
X0056Y01059*
X00571*
X00583Y01059*
X00594Y01061*
X00606Y01063*
X00617Y01066*
X00627Y0107*
X00638Y01075*
X00648Y01081*
X00658Y01087*
X00667Y01093*
X00676Y01101*
X00684Y01109*
X00692Y01117*
X00699Y01126*
X00706Y01136*
X00711Y01146*
X00716Y01156*
X00721Y01167*
X00724Y01178*
X00727Y01189*
X00729Y012*
X0073Y01212*
X00731Y01223*
X0119D02*
D01*
X0119Y01235*
X01189Y01246*
X01187Y01258*
X01184Y01269*
X0118Y0128*
X01176Y01291*
X01171Y01301*
X01165Y01311*
X01159Y0132*
X01152Y01329*
X01144Y01338*
X01136Y01346*
X01127Y01353*
X01117Y0136*
X01108Y01366*
X01098Y01372*
X01087Y01376*
X01076Y0138*
X01065Y01383*
X01054Y01386*
X01042Y01387*
X01031Y01388*
X01019*
X01008Y01387*
X00997Y01386*
X00985Y01383*
X00974Y0138*
X00963Y01376*
X00953Y01372*
X00943Y01366*
X00933Y0136*
X00924Y01353*
X00915Y01346*
X00907Y01338*
X00899Y01329*
X00892Y0132*
X00885Y01311*
X0088Y01301*
X00874Y01291*
X0087Y0128*
X00867Y01269*
X00864Y01258*
X00862Y01246*
X00861Y01235*
X0086Y01223*
X00861Y01212*
X00862Y012*
X00864Y01189*
X00867Y01178*
X0087Y01167*
X00874Y01156*
X0088Y01146*
X00885Y01136*
X00892Y01126*
X00899Y01117*
X00907Y01109*
X00915Y01101*
X00924Y01093*
X00933Y01087*
X00943Y01081*
X00953Y01075*
X00963Y0107*
X00974Y01066*
X00985Y01063*
X00997Y01061*
X01008Y01059*
X01019Y01059*
X01031*
X01042Y01059*
X01054Y01061*
X01065Y01063*
X01076Y01066*
X01087Y0107*
X01098Y01075*
X01108Y01081*
X01117Y01087*
X01127Y01093*
X01136Y01101*
X01144Y01109*
X01152Y01117*
X01159Y01126*
X01165Y01136*
X01171Y01146*
X01176Y01156*
X0118Y01167*
X01184Y01178*
X01187Y01189*
X01189Y012*
X0119Y01212*
X0119Y01223*
X0165D02*
D01*
X01649Y01235*
X01648Y01246*
X01646Y01258*
X01644Y01269*
X0164Y0128*
X01636Y01291*
X01631Y01301*
X01625Y01311*
X01618Y0132*
X01611Y01329*
X01604Y01338*
X01595Y01346*
X01586Y01353*
X01577Y0136*
X01567Y01366*
X01557Y01372*
X01547Y01376*
X01536Y0138*
X01525Y01383*
X01514Y01386*
X01502Y01387*
X01491Y01388*
X01479*
X01468Y01387*
X01456Y01386*
X01445Y01383*
X01434Y0138*
X01423Y01376*
X01413Y01372*
X01402Y01366*
X01393Y0136*
X01383Y01353*
X01374Y01346*
X01366Y01338*
X01359Y01329*
X01351Y0132*
X01345Y01311*
X01339Y01301*
X01334Y01291*
X0133Y0128*
X01326Y01269*
X01324Y01258*
X01322Y01246*
X0132Y01235*
X0132Y01223*
X0132Y01212*
X01322Y012*
X01324Y01189*
X01326Y01178*
X0133Y01167*
X01334Y01156*
X01339Y01146*
X01345Y01136*
X01351Y01126*
X01359Y01117*
X01366Y01109*
X01374Y01101*
X01383Y01093*
X01393Y01087*
X01402Y01081*
X01413Y01075*
X01423Y0107*
X01434Y01066*
X01445Y01063*
X01456Y01061*
X01468Y01059*
X01479Y01059*
X01491*
X01502Y01059*
X01514Y01061*
X01525Y01063*
X01536Y01066*
X01547Y0107*
X01557Y01075*
X01567Y01081*
X01577Y01087*
X01586Y01093*
X01595Y01101*
X01604Y01109*
X01611Y01117*
X01618Y01126*
X01625Y01136*
X01631Y01146*
X01636Y01156*
X0164Y01167*
X01644Y01178*
X01646Y01189*
X01648Y012*
X01649Y01212*
X0165Y01223*
X0211D02*
D01*
X02109Y01235*
X02108Y01246*
X02106Y01258*
X02103Y01269*
X021Y0128*
X02095Y01291*
X0209Y01301*
X02084Y01311*
X02078Y0132*
X02071Y01329*
X02063Y01338*
X02055Y01346*
X02046Y01353*
X02037Y0136*
X02027Y01366*
X02017Y01372*
X02006Y01376*
X01995Y0138*
X01984Y01383*
X01973Y01386*
X01962Y01387*
X0195Y01388*
X01939*
X01927Y01387*
X01916Y01386*
X01905Y01383*
X01894Y0138*
X01883Y01376*
X01872Y01372*
X01862Y01366*
X01852Y0136*
X01843Y01353*
X01834Y01346*
X01826Y01338*
X01818Y01329*
X01811Y0132*
X01805Y01311*
X01799Y01301*
X01794Y01291*
X01789Y0128*
X01786Y01269*
X01783Y01258*
X01781Y01246*
X0178Y01235*
X0178Y01223*
X0178Y01212*
X01781Y012*
X01783Y01189*
X01786Y01178*
X01789Y01167*
X01794Y01156*
X01799Y01146*
X01805Y01136*
X01811Y01126*
X01818Y01117*
X01826Y01109*
X01834Y01101*
X01843Y01093*
X01852Y01087*
X01862Y01081*
X01872Y01075*
X01883Y0107*
X01894Y01066*
X01905Y01063*
X01916Y01061*
X01927Y01059*
X01939Y01059*
X0195*
X01962Y01059*
X01973Y01061*
X01984Y01063*
X01995Y01066*
X02006Y0107*
X02017Y01075*
X02027Y01081*
X02037Y01087*
X02046Y01093*
X02055Y01101*
X02063Y01109*
X02071Y01117*
X02078Y01126*
X02084Y01136*
X0209Y01146*
X02095Y01156*
X021Y01167*
X02103Y01178*
X02106Y01189*
X02108Y012*
X02109Y01212*
X0211Y01223*
G54D24*
X01931Y00848D02*
X02018D01*
X01931Y00791D02*
X02018D01*
Y00848*
X01931Y00791D02*
Y00848D01*
X01471Y00873D02*
X01558D01*
X01471Y00816D02*
X01558D01*
Y00873*
X01471Y00816D02*
Y00873D01*
X00596Y00771D02*
X00682D01*
X00596Y00828D02*
X00682D01*
X00596Y00771D02*
Y00828D01*
X00682Y00771D02*
Y00828D01*
X01975Y008D02*
Y00839D01*
X01955Y0082D02*
X01994D01*
X01919Y00851D02*
X0203D01*
X01919Y00788D02*
X0203D01*
Y00851*
X01919Y00788D02*
Y00851D01*
X01515Y00825D02*
Y00864D01*
X01495Y00845D02*
X01534D01*
X01459Y00876D02*
X0157D01*
X01459Y00813D02*
X0157D01*
Y00876*
X01459Y00813D02*
Y00876D01*
X00639Y0078D02*
Y00819D01*
X00619Y008D02*
X00659D01*
X00584Y00768D02*
X00694D01*
X00584Y00831D02*
X00694D01*
X00584Y00768D02*
Y00831D01*
X00694Y00768D02*
Y00831D01*
G54D25*
X00785Y0232D02*
X008D01*
X0107D02*
X01085D01*
X0136Y023D02*
X01375D01*
X01645D02*
X0166D01*
G54D26*
X0081Y02285D02*
Y02355D01*
X0106Y02285D02*
Y02355D01*
X01385Y02265D02*
Y02335D01*
X01635Y02265D02*
Y02335D01*
X01597Y0204D02*
X01653D01*
X01597Y0209D02*
X01653D01*
X01607Y0184D02*
X01663D01*
X01607Y0189D02*
X01663D01*
X0138Y00965D02*
Y01021D01*
X0133Y00965D02*
Y01021D01*
X00307Y00885D02*
X00363D01*
X00307Y00935D02*
X00363D01*
X0093Y00905D02*
X00986D01*
X0093Y00955D02*
X00986D01*
X01555Y0255D02*
X01585D01*
X01555Y0252D02*
X01585Y0255D01*
X01555D02*
X01585Y0252D01*
X01555D02*
Y0255D01*
Y0252D02*
X01585D01*
Y0255*
X01457D02*
X01487D01*
X01457Y0252D02*
X01487Y0255D01*
X01457D02*
X01487Y0252D01*
X01457D02*
Y0255D01*
Y0252D02*
X01487D01*
Y0255*
X01752D02*
X01782Y0252D01*
X01752D02*
X01782Y0255D01*
X01752D02*
X01782D01*
Y0252D02*
Y0255D01*
X01752Y0252D02*
X01782D01*
X01752D02*
Y0255D01*
X01653Y0252D02*
X01683Y0255D01*
X01653D02*
X01683Y0252D01*
Y0255*
X01653Y0252D02*
X01683D01*
X01653D02*
Y0255D01*
X01683*
X0069Y02017D02*
Y02073D01*
X0074Y02017D02*
Y02073D01*
X00545Y0255D02*
X00575D01*
X00545Y0252D02*
X00575Y0255D01*
X00545D02*
X00575Y0252D01*
X00545D02*
Y0255D01*
Y0252D02*
X00575D01*
Y0255*
X00447D02*
X00477D01*
X00447Y0252D02*
X00477Y0255D01*
X00447D02*
X00477Y0252D01*
X00447D02*
Y0255D01*
Y0252D02*
X00477D01*
Y0255*
X00743D02*
X00773Y0252D01*
X00743D02*
X00773Y0255D01*
X00743D02*
X00773D01*
Y0252D02*
Y0255D01*
X00743Y0252D02*
X00773D01*
X00743D02*
Y0255D01*
X00644Y0252D02*
X00674Y0255D01*
X00644D02*
X00674Y0252D01*
Y0255*
X00644Y0252D02*
X00674D01*
X00644D02*
Y0255D01*
X00674*
G54D27*
X01215Y02231D02*
X01244D01*
X01215Y02179D02*
X01245D01*
X00941Y01671D02*
Y017D01*
X00889Y0167D02*
Y017D01*
X00294Y00702D02*
Y00731D01*
X00346Y00701D02*
Y00731D01*
X00935Y00173D02*
X01011Y00249D01*
X00916Y00193D02*
X00991Y00269D01*
X00797Y00173D02*
X00873Y00249D01*
X00777Y00193D02*
X00853Y00269D01*
X00659Y00173D02*
X00734Y00249D01*
X00639Y00193D02*
X00715Y00269D01*
X01815Y00173D02*
X01891Y00249D01*
X01796Y00193D02*
X01871Y00269D01*
X01677Y00173D02*
X01753Y00249D01*
X01657Y00193D02*
X01733Y00269D01*
X01539Y00173D02*
X01614Y00249D01*
X01519Y00193D02*
X01595Y00269D01*
X00161Y01237D02*
X00236Y01161D01*
X00141Y01217D02*
X00216Y01142D01*
X00161Y01098D02*
X00236Y01023D01*
X00141Y01079D02*
X00216Y01003D01*
X00161Y00817D02*
X00236Y00741D01*
X00141Y00797D02*
X00216Y00722D01*
X00161Y00678D02*
X00236Y00603D01*
X00141Y00659D02*
X00216Y00583D01*
X00834Y02079D02*
Y02108D01*
X00886Y02079D02*
Y02109D01*
X01609Y02436D02*
X01638D01*
X01608Y02384D02*
X01638D01*
G54D28*
X00805Y0232D03*
X01065D03*
X0138Y023D03*
X0164D03*
G54D29*
X0038Y01525D03*
Y01575D03*
Y01625D03*
X00579Y01525D03*
Y01575D03*
Y01625D03*
Y01825D03*
Y01775D03*
Y01725D03*
X0038Y01675D03*
X00381Y01725D03*
X0038Y01775D03*
Y01825D03*
X00579Y01675D03*
X00385Y02025D03*
Y02075D03*
Y02125D03*
X00584Y02025D03*
Y02075D03*
Y02125D03*
Y02325D03*
Y02275D03*
Y02225D03*
X00385Y02175D03*
X00386Y02225D03*
X00385Y02275D03*
Y02325D03*
X00584Y02175D03*
G54D30*
X01201Y02204D03*
X01652Y02409D03*
G54D31*
X01258Y02204D03*
X01595Y02409D03*
G54D32*
X01659Y02065D03*
X01591D03*
X01669Y01865D03*
X01601D03*
X00301Y0091D03*
X00369D03*
X00924Y0093D03*
X00992D03*
G54D33*
X00914Y01714D03*
X0032Y00745D03*
X0086Y02065D03*
G54D34*
X00914Y01656D03*
X0032Y00687D03*
X0086Y02122D03*
G54D35*
X01049Y01665D03*
Y01715D03*
X01411Y01665D03*
Y01715D03*
Y01765D03*
Y01815D03*
Y01865D03*
Y01915D03*
Y01965D03*
Y02015D03*
Y02065D03*
Y02115D03*
X01049Y01765D03*
Y01815D03*
Y01865D03*
Y01915D03*
Y01965D03*
Y02015D03*
Y02065D03*
Y02115D03*
G54D36*
X00666Y00561D03*
X00566D03*
X00466D03*
X01125D03*
X01025D03*
X00925D03*
X01585D03*
X01485D03*
X01385D03*
X02045D03*
X01945D03*
X01845D03*
G54D37*
X01355Y00959D03*
Y01027D03*
X00715Y02011D03*
Y02079D03*
G54D38*
X01152Y02166D02*
Y02243D01*
X01307Y02166D02*
Y02243D01*
X01152D02*
X01307D01*
X01152Y02166D02*
X01307D01*
X01703Y02026D02*
Y02104D01*
X01547Y02026D02*
Y02104D01*
Y02026D02*
X01703D01*
X01547Y02104D02*
X01703D01*
X01713Y01826D02*
Y01904D01*
X01557Y01826D02*
Y01904D01*
Y01826D02*
X01713D01*
X01557Y01904D02*
X01713D01*
X00876Y01763D02*
X00953D01*
X00876Y01607D02*
X00953D01*
Y01763*
X00876Y01607D02*
Y01763D01*
X01316Y00915D02*
X01393D01*
X01316Y0107D02*
X01393D01*
Y00915D02*
Y0107D01*
X01316Y00915D02*
Y0107D01*
X00257Y00871D02*
Y00949D01*
X00412Y00871D02*
Y00949D01*
X00257Y00871D02*
X00412D01*
X00257Y00949D02*
X00412D01*
X00281Y00794D02*
X00359D01*
X00281Y00638D02*
X00359D01*
X00281D02*
Y00794D01*
X00359Y00638D02*
Y00794D01*
X0088Y00891D02*
Y00969D01*
X01035Y00891D02*
Y00969D01*
X0088Y00891D02*
X01035D01*
X0088Y00969D02*
X01035D01*
X00821Y02016D02*
X00899D01*
X00821Y02171D02*
X00899D01*
X00821Y02016D02*
Y02171D01*
X00899Y02016D02*
Y02171D01*
X00676Y01967D02*
X00754D01*
X00676Y02122D02*
X00754D01*
X00676Y01967D02*
Y02122D01*
X00754Y01967D02*
Y02122D01*
X01701Y02371D02*
Y02448D01*
X01545Y02371D02*
Y02448D01*
X01701*
X01545Y02371D02*
X01701D01*
G54D39*
X0206Y0011D03*
X0015D03*
X02055Y02635D03*
X0015D03*
G54D40*
X00785Y0232D03*
X01085D03*
X0136Y023D03*
X0166D03*
G54D41*
X00566Y01223D03*
X01025D03*
X01485D03*
X01945D03*
G54D42*
X00666Y00533D03*
X00566D03*
X00466D03*
X01125D03*
X01025D03*
X00925D03*
X01585D03*
X01485D03*
X01385D03*
X02045D03*
X01945D03*
X01845D03*
G54D43*
X00963Y00221D03*
X00825D03*
X00687D03*
X01843D03*
X01705D03*
X01567D03*
X00188Y01189D03*
Y01051D03*
Y00769D03*
Y00631D03*
G54D44*
X01472Y02535D03*
X0157D03*
X01767D03*
X01669D03*
X00462D03*
X0056D03*
X00758D03*
X0066D03*
G54D45*
X0201Y0027D03*
X0122Y00285D03*
X00315Y00425D03*
X02025Y02055D03*
X01825Y0157D03*
X0029Y02175D03*
X003Y0196D03*
X00255Y01535D03*
X0123Y01765D03*
X01615Y0169D03*
X0069Y01575D03*
X00665Y0146D03*
X0024Y01895D03*
X00275Y02275D03*
X00175Y0165D03*
X0099Y0264D03*
X011Y0253D03*
X0053Y0091D03*
X0081Y0144D03*
X01485Y00945D03*
X0153Y01985D03*
X01673Y01762D03*
X01945Y0096D03*
Y0186D03*
X01805Y02005D03*
X00845Y01785D03*
X01295Y01995D03*
X01145D03*
X0115Y0182D03*
X01325Y01915D03*
X007Y01675D03*
X0027Y01725D03*
X0095Y01865D03*
X00405Y01925D03*
G54D46*
X02004Y0082D03*
X01945D03*
X01544Y00845D03*
X01485D03*
X0061Y008D03*
X00669D03*
G54D47*
X00268Y00631D02*
X0032Y00682D01*
M02*