%FSTAX24Y24*%
%MOIN*%
%SFA1B1*%

%IPPOS*%
%ADD30C,0.010000*%
%LNmotor_driver-1*%
%LPD*%
G54D30*
X01652Y0253D02*
X01662Y0254D01*
X01682*
X01692Y0253*
Y0249*
X01682Y0248*
X01662*
X01652Y0249*
X01602Y0248D02*
Y0254D01*
X01632Y0251*
X01592*
X0031Y00875D02*
X0032Y00885D01*
X0034*
X0035Y00875*
Y00835*
X0034Y00825*
X0032*
X0031Y00835*
X0025Y00885D02*
X0029D01*
Y00855*
X0027Y00865*
X0026*
X0025Y00855*
Y00835*
X0026Y00825*
X0028*
X0029Y00835*
X00324Y0098D02*
Y0104D01*
X00354*
X00364Y0103*
Y0101*
X00354Y01*
X00324*
X00344D02*
X00364Y0098D01*
X00384D02*
X00404D01*
X00394*
Y0104*
X00384Y0103*
X010267Y01D02*
Y0106D01*
X009967*
X009867Y0105*
Y0103*
X009967Y0102*
X010267*
X010067D02*
X009867Y01D01*
X009267D02*
X009667D01*
X009267Y0104*
Y0105*
X009367Y0106*
X009567*
X009667Y0105*
X01285Y01102D02*
Y01162D01*
X01315*
X01325Y01152*
Y01132*
X01315Y01122*
X01285*
X01305D02*
X01325Y01102D01*
X01385Y01162D02*
X01345D01*
Y01132*
X01365Y01142*
X01375*
X01385Y01132*
Y01112*
X01375Y01102*
X01355*
X01345Y01112*
X00627Y00913D02*
X00617Y00923D01*
X00597*
X00587Y00913*
Y00873*
X00597Y00863*
X00617*
X00627Y00873*
X00687Y00923D02*
X00667Y00913D01*
X00647Y00893*
Y00873*
X00657Y00863*
X00677*
X00687Y00873*
Y00883*
X00677Y00893*
X00647*
X01575Y0095D02*
X01585Y0096D01*
X01605*
X01615Y0095*
Y0091*
X01605Y009*
X01585*
X01575Y0091*
X01555Y0095D02*
X01545Y0096D01*
X01525*
X01515Y0095*
Y0094*
X01525Y0093*
X01515Y0092*
Y0091*
X01525Y009*
X01545*
X01555Y0091*
Y0092*
X01545Y0093*
X01555Y0094*
Y0095*
X01545Y0093D02*
X01525D01*
X02055Y0092D02*
X02065Y0093D01*
X02085*
X02095Y0092*
Y0088*
X02085Y0087*
X02065*
X02055Y0088*
X02035D02*
X02025Y0087D01*
X02005*
X01995Y0088*
Y0092*
X02005Y0093*
X02025*
X02035Y0092*
Y0091*
X02025Y009*
X01995*
M02*