%FSTAX24Y24*%
%MOIN*%
%SFA1B1*%

%IPPOS*%
%AMD23*
4,1,8,-0.012000,-0.024000,0.012000,-0.024000,0.024000,-0.012000,0.024000,0.012000,0.012000,0.024000,-0.012000,0.024000,-0.024000,0.012000,-0.024000,-0.012000,-0.012000,-0.024000,0.0*
%
%ADD10R,0.063000X0.052000*%
%ADD11R,0.060000X0.052000*%
%ADD12R,0.080000X0.026000*%
%ADD13R,0.052000X0.063000*%
%ADD14R,0.052000X0.060000*%
%ADD15C,0.035000*%
%ADD16C,0.060000*%
%ADD17C,0.070000*%
%ADD18R,0.150000X0.150000*%
%ADD19O,0.060000X0.120000*%
%ADD20C,0.067000*%
%ADD21O,0.066000X0.132000*%
%ADD22C,0.130000*%
G04~CAMADD=23~4~0.0~0.0~480.0~480.0~0.0~120.0~0~0.0~0.0~0.0~0.0~0~0.0~0.0~0.0~0.0~0~0.0~0.0~0.0~180.0~480.0~480.0*
%ADD23D23*%
%ADD24C,0.050000*%
%LNmotor_driver-1*%
%LPD*%
G36*
X0219Y014029D02*
Y0D01*
X000071*
X0Y000071*
Y0141*
X00808*
X0081Y014097*
X00812Y0141*
X008445*
X008483Y014008*
X008305Y013829*
X00785*
X007762Y013812*
X007688Y013762*
X007488Y013562*
X007438Y013488*
X007421Y0134*
Y011545*
X005275Y009399*
X005222Y009392*
X005149Y009362*
X005086Y009314*
X005038Y009251*
X005008Y009178*
X004997Y0091*
X005008Y009022*
X005038Y008949*
X005086Y008886*
X005149Y008838*
X005222Y008808*
X0053Y008797*
X005378Y008808*
X005451Y008838*
X005514Y008886*
X005562Y008949*
X005592Y009022*
X005599Y009075*
X007812Y011288*
X007862Y011362*
X007879Y01145*
Y013305*
X007945Y013371*
X0084*
X008488Y013388*
X008562Y013438*
X009012Y013888*
X009062Y013962*
X009079Y01405*
Y0141*
X014051*
Y013875*
X013388Y013212*
X013338Y013138*
X013321Y01305*
Y01075*
X013338Y010662*
X013388Y010588*
X014551Y009425*
X014558Y009372*
X014588Y009299*
X014636Y009236*
X014699Y009188*
X014772Y009158*
X01485Y009147*
X014928Y009158*
X015001Y009188*
X015064Y009236*
X015112Y009299*
X015142Y009372*
X015153Y00945*
X015142Y009528*
X015112Y009601*
X015064Y009664*
X015001Y009712*
X014928Y009742*
X014875Y009749*
X013779Y010845*
Y012955*
X014442Y013618*
X014492Y013692*
X014509Y01378*
Y0141*
X018895*
X018933Y014008*
X017938Y013012*
X017888Y012938*
X017871Y01285*
Y011839*
X017888Y011751*
X017938Y011677*
X019221Y010394*
Y009794*
X019188Y009751*
X019158Y009678*
X019147Y0096*
X019158Y009522*
X019188Y009449*
X019236Y009386*
X019299Y009338*
X019372Y009308*
X01945Y009297*
X019528Y009308*
X019601Y009338*
X019664Y009386*
X019712Y009449*
X019742Y009522*
X019753Y0096*
X019742Y009678*
X019712Y009751*
X019679Y009794*
Y010489*
X019662Y010577*
X019612Y010651*
X018329Y011934*
Y012755*
X019612Y014038*
X019654Y0141*
X021829*
X0219Y014029*
G37*
G36*
X018571Y025955D02*
Y018395D01*
X016605Y016429*
X016153*
X01614Y016451*
X016141Y016462*
X01622Y016608*
X016267Y016617*
X016366Y016684*
X016433Y016783*
X016456Y0169*
X016433Y017017*
X016366Y017116*
X016267Y017183*
X016173Y017201*
X016062Y017312*
X015979Y017395*
Y01775*
X015962Y017838*
X015912Y017912*
X015689Y018135*
X015752Y018285*
X01627*
X016286*
X016351*
X016422Y018282*
X016501Y018162*
Y017817*
X016447Y017737*
X016424Y01762*
X016447Y017503*
X016514Y017404*
X016613Y017337*
X01673Y017314*
X016847Y017337*
X016946Y017404*
X017013Y017503*
X017036Y01762*
X017013Y017737*
X016959Y017817*
Y018285*
X01704*
Y019015*
X016436*
X01642*
X016353*
X016286*
X01627*
X015666*
Y018879*
X014842*
X01473Y01897*
Y019029*
Y01932*
Y01933*
Y0194*
Y01947*
Y01948*
Y019771*
Y01983*
X014842Y019921*
X014905*
X014999Y019827*
X015017Y019733*
X015084Y019634*
X015183Y019567*
X0153Y019544*
X015417Y019567*
X015516Y019634*
X015583Y019733*
X015606Y01985*
X015583Y019967*
X015516Y020066*
X015417Y020133*
X015323Y020151*
X015204Y020271*
X015263Y020421*
X015566*
Y020285*
X01617*
X016186*
X016253*
X01632*
X016336*
X01694*
Y020421*
X017355*
X017749Y020027*
X017767Y019933*
X017834Y019834*
X017933Y019767*
X01805Y019744*
X018167Y019767*
X018266Y019834*
X018333Y019933*
X018356Y02005*
X018333Y020167*
X018266Y020266*
X018167Y020333*
X018073Y020351*
X017612Y020812*
X017538Y020862*
X01745Y020879*
X01694*
Y021015*
X016336*
X01632*
X016253*
X016186*
X01617*
X015566*
Y020879*
X014842*
X01473Y02097*
Y021029*
Y02133*
X014509*
Y02232*
X014492Y022408*
X014442Y022482*
X01389Y023034*
Y023145*
X013745Y02329*
X013634*
X013562Y023362*
X013488Y023412*
X0134Y023429*
X011056*
X010995Y02349*
X010705*
X01056Y023345*
Y023055*
X010705Y02291*
X010995*
X011056Y022971*
X013305*
X01331Y022966*
Y022855*
X013455Y02271*
X013566*
X014051Y022225*
Y02133*
X01383*
Y02098*
Y02097*
Y0209*
Y02083*
Y02082*
Y02048*
Y02047*
Y0204*
Y02033*
Y02032*
Y020029*
Y01997*
X013718Y019879*
X013645*
X013412Y020112*
X013338Y020162*
X01325Y020179*
X013147*
X013067Y020233*
X01295Y020256*
X012833Y020233*
X012734Y020166*
X012667Y020067*
X012644Y01995*
X012667Y019833*
X012734Y019734*
X012833Y019667*
X01295Y019644*
X013067Y019667*
X013147Y019721*
X013155*
X013274Y019602*
X013265Y01955*
X013215Y019449*
X013133Y019433*
X013034Y019366*
X012967Y019267*
X012944Y01915*
X012967Y019033*
X013034Y018934*
X013133Y018867*
X01325Y018844*
X013367Y018867*
X013447Y018921*
X013718*
X01383Y01883*
Y018771*
Y01848*
Y01847*
Y0184*
Y01833*
Y01832*
Y018029*
Y01797*
X013718Y017879*
X013395*
X012329Y018945*
Y020755*
X012797Y021222*
X012847Y021297*
X012864Y021385*
Y0217*
X012945*
Y0224*
X01242*
X012325*
X012297*
X01227*
X012175*
X01165*
Y021955*
X011238Y021543*
X011188Y021469*
X011171Y021381*
Y020879*
X010882*
X01077Y02097*
Y021029*
Y02133*
X010464*
X010358Y021437*
X010283Y021487*
X010195Y021504*
X00895*
Y021585*
X008614*
X008079Y02212*
Y022994*
X00814Y023055*
Y023116*
X011795Y026771*
X017755*
X018571Y025955*
G37*
%LNmotor_driver-2*%
%LPC*%
G36*
X02015Y003046D02*
Y00275D01*
X020446*
X020441Y002791*
X020406Y002877*
X02035Y00295*
X020277Y003006*
X020191Y003041*
X02015Y003046*
G37*
G36*
X02005D02*
X020009Y003041D01*
X019923Y003006*
X01985Y00295*
X019794Y002877*
X019759Y002791*
X019754Y00275*
X02005*
Y003046*
G37*
G36*
X012546Y0028D02*
X01225D01*
Y002504*
X012291Y002509*
X012377Y002544*
X01245Y0026*
X012506Y002673*
X012541Y002759*
X012546Y0028*
G37*
G36*
X02005Y00265D02*
X019754D01*
X019759Y002609*
X019794Y002523*
X01985Y00245*
X019923Y002394*
X020009Y002359*
X02005Y002354*
Y00265*
G37*
G36*
X020446D02*
X02015D01*
Y002354*
X020191Y002359*
X020277Y002394*
X02035Y00245*
X020406Y002523*
X020441Y002609*
X020446Y00265*
G37*
G36*
X01215Y0028D02*
X011854D01*
X011859Y002759*
X011894Y002673*
X01195Y0026*
X012023Y002544*
X012109Y002509*
X01215Y002504*
Y0028*
G37*
G36*
Y003196D02*
X012109Y003191D01*
X012023Y003156*
X01195Y0031*
X011894Y003027*
X011859Y002941*
X011854Y0029*
X01215*
Y003196*
G37*
G36*
X0032Y004596D02*
Y0043D01*
X003496*
X003491Y004341*
X003456Y004427*
X0034Y0045*
X003327Y004556*
X003241Y004591*
X0032Y004596*
G37*
G36*
X0031D02*
X003059Y004591D01*
X002973Y004556*
X0029Y0045*
X002844Y004427*
X002809Y004341*
X002804Y0043*
X0031*
Y004596*
G37*
G36*
X011207Y005289D02*
X010823D01*
Y005009*
X010838Y004897*
X010881Y004792*
X01095Y004702*
X01104Y004633*
X011145Y00459*
X011207Y004582*
Y005289*
G37*
G36*
X01945Y006052D02*
X019351Y006039D01*
X019258Y006001*
X019179Y00594*
X019118Y005861*
X01908Y005768*
X019067Y005669*
Y005009*
X01908Y00491*
X019097Y004868*
Y004353*
X018246*
X017011Y005589*
X016938Y005645*
X016852Y00568*
X016761Y005692*
X016234*
X016224Y005768*
X016185Y005861*
X016125Y00594*
X016045Y006001*
X015953Y006039*
X015854Y006052*
X015754Y006039*
X015662Y006001*
X015583Y00594*
X015522Y005861*
X015483Y005768*
X01547Y005669*
Y005459*
X015464Y005443*
X01545Y005339*
Y003407*
X015464Y003303*
X015504Y003205*
X015568Y003122*
X016765Y001925*
X016848Y001861*
X016946Y001821*
X01705Y001807*
X017154Y001821*
X017252Y001861*
X017335Y001925*
X017399Y002009*
X01744Y002106*
X017453Y002211*
X01744Y002315*
X017399Y002412*
X017335Y002496*
X016257Y003574*
Y004986*
X016615*
X01785Y00375*
X017923Y003694*
X018009Y003659*
X0181Y003647*
X01925*
X019341Y003659*
X019427Y003694*
X0195Y00375*
X0197Y00395*
X019756Y004023*
X019791Y004109*
X019803Y0042*
Y004868*
X01982Y00491*
X019833Y005009*
Y005669*
X01982Y005768*
X019782Y005861*
X019721Y00594*
X019642Y006001*
X019549Y006039*
X01945Y006052*
G37*
G36*
X0031Y0042D02*
X002804D01*
X002809Y004159*
X002844Y004073*
X0029Y004*
X002973Y003944*
X003059Y003909*
X0031Y003904*
Y0042*
G37*
G36*
X01225Y003196D02*
Y0029D01*
X012546*
X012541Y002941*
X012506Y003027*
X01245Y0031*
X012377Y003156*
X012291Y003191*
X01225Y003196*
G37*
G36*
X010257Y006052D02*
X010158Y006039D01*
X010065Y006001*
X009986Y00594*
X009925Y005861*
X009887Y005768*
X009874Y005669*
Y005009*
X009887Y00491*
X009904Y004868*
Y004453*
X009553Y004103*
X008396*
X007044Y005455*
Y005669*
X007031Y005768*
X006993Y005861*
X006932Y00594*
X006852Y006001*
X00676Y006039*
X006661Y006052*
X006561Y006039*
X006469Y006001*
X00639Y00594*
X006329Y005861*
X00629Y005768*
X006277Y005669*
Y005009*
X00629Y00491*
X006329Y004817*
X00639Y004738*
X006469Y004677*
X006561Y004639*
X006661Y004626*
X00676Y004639*
X006832Y004669*
X007897Y003603*
Y002364*
X007875Y002311*
X007862Y002211*
X007875Y00211*
X007914Y002016*
X007975Y001936*
X008056Y001874*
X008149Y001836*
X00825Y001822*
X008351Y001836*
X008444Y001874*
X008525Y001936*
X008586Y002016*
X008625Y00211*
X008638Y002211*
X008625Y002311*
X008603Y002364*
Y003397*
X0097*
X009791Y003409*
X009876Y003444*
X009949Y0035*
X010507Y004057*
X010563Y004131*
X010598Y004216*
X01061Y004307*
Y004868*
X010627Y00491*
X01064Y005009*
Y005669*
X010627Y005768*
X010589Y005861*
X010528Y00594*
X010449Y006001*
X010356Y006039*
X010257Y006052*
G37*
G36*
X003496Y0042D02*
X0032D01*
Y003904*
X003241Y003909*
X003327Y003944*
X0034Y004*
X003456Y004073*
X003491Y004159*
X003496Y0042*
G37*
G36*
X01848Y002643D02*
Y002261D01*
X018862*
X018854Y002324*
X01881Y00243*
X01874Y002521*
X018649Y002591*
X018544Y002634*
X01848Y002643*
G37*
G36*
X00235Y00195D02*
X00155D01*
Y00115*
X00235*
Y00195*
G37*
G36*
X00145D02*
X00065D01*
Y00115*
X00145*
Y00195*
G37*
G36*
X02145D02*
X02065D01*
Y00115*
X02145*
Y00195*
G37*
G36*
X02055D02*
X01975D01*
Y00115*
X02055*
Y00195*
G37*
G36*
X00235Y00105D02*
X00155D01*
Y00025*
X00235*
Y00105*
G37*
G36*
X00145D02*
X00065D01*
Y00025*
X00145*
Y00105*
G37*
G36*
X02145D02*
X02065D01*
Y00025*
X02145*
Y00105*
G37*
G36*
X02055D02*
X01975D01*
Y00025*
X02055*
Y00105*
G37*
G36*
X00958Y002643D02*
X009516Y002634D01*
X009411Y002591*
X00932Y002521*
X00925Y00243*
X009206Y002324*
X009198Y002261*
X00958*
Y002643*
G37*
G36*
X018862Y002161D02*
X01848D01*
Y001778*
X018544Y001787*
X018649Y001831*
X01874Y0019*
X01881Y001991*
X018854Y002097*
X018862Y002161*
G37*
G36*
X01838Y002643D02*
X018316Y002634D01*
X018211Y002591*
X01812Y002521*
X01805Y00243*
X018006Y002324*
X017998Y002261*
X01838*
Y002643*
G37*
G36*
X00968D02*
Y002261D01*
X010062*
X010054Y002324*
X01001Y00243*
X00994Y002521*
X009849Y002591*
X009744Y002634*
X00968Y002643*
G37*
G36*
X00958Y002161D02*
X009198D01*
X009206Y002097*
X00925Y001991*
X00932Y0019*
X009411Y001831*
X009516Y001787*
X00958Y001778*
Y002161*
G37*
G36*
X014854Y006052D02*
X014754Y006039D01*
X014662Y006001*
X014583Y00594*
X014522Y005861*
X014483Y005768*
X01447Y005669*
Y005459*
X014464Y005443*
X01445Y005339*
Y003029*
X014464Y002925*
X014504Y002827*
X014568Y002744*
X015101Y002211*
X014394Y001503*
X00815*
X007225Y002428*
Y003378*
X007213Y003469*
X007178Y003554*
X007122Y003628*
X006014Y004736*
Y004868*
X006031Y00491*
X006044Y005009*
Y005669*
X006031Y005768*
X005993Y005861*
X005932Y00594*
X005852Y006001*
X00576Y006039*
X005661Y006052*
X005561Y006039*
X005469Y006001*
X00539Y00594*
X005329Y005861*
X00529Y005768*
X005277Y005669*
Y005009*
X00529Y00491*
X005308Y004868*
Y004589*
X00532Y004498*
X005355Y004413*
X005411Y00434*
X006519Y003232*
Y002404*
X006482Y002315*
X006469Y002211*
X006482Y002106*
X006523Y002009*
X006587Y001925*
X007697Y000815*
X007781Y000751*
X007878Y00071*
X007983Y000697*
X014561*
X014666Y00071*
X014763Y000751*
X014847Y000815*
X015957Y001925*
X016021Y002009*
X016062Y002106*
X016075Y002211*
X016062Y002315*
X016021Y002412*
X015957Y002496*
X015257Y003196*
Y005339*
X015243Y005443*
X015237Y005459*
Y005669*
X015224Y005768*
X015185Y005861*
X015125Y00594*
X015045Y006001*
X014953Y006039*
X014854Y006052*
G37*
G36*
X01838Y002161D02*
X017998D01*
X018006Y002097*
X01805Y001991*
X01812Y0019*
X018211Y001831*
X018316Y001787*
X01838Y001778*
Y002161*
G37*
G36*
X010062D02*
X00968D01*
Y001778*
X009744Y001787*
X009849Y001831*
X00994Y0019*
X01001Y001991*
X010054Y002097*
X010062Y002161*
G37*
G36*
X011691Y005289D02*
X011307D01*
Y004582*
X011369Y00459*
X011474Y004633*
X011564Y004702*
X011633Y004792*
X011676Y004897*
X011691Y005009*
Y005289*
G37*
G36*
X016745Y02329D02*
X016455D01*
X01631Y023145*
Y022855*
X016455Y02271*
X016745*
X01689Y022855*
Y023145*
X016745Y02329*
G37*
G36*
X001939Y012322D02*
Y01194D01*
X002322*
X002313Y012004*
X002269Y012109*
X0022Y0122*
X002109Y01227*
X002003Y012314*
X001939Y012322*
G37*
G36*
X0171Y0253D02*
X016742D01*
Y024652*
X016848Y024673*
X016981Y024762*
X017069Y024894*
X0171Y02505*
Y0253*
G37*
G36*
X016642D02*
X016284D01*
Y02505*
X016315Y024894*
X016404Y024762*
X016536Y024673*
X016642Y024652*
Y0253*
G37*
G36*
X014854Y012942D02*
X014716Y012929D01*
X014584Y012889*
X014463Y012824*
X014356Y012736*
X014269Y01263*
X014204Y012508*
X014164Y012376*
X01415Y012239*
X014164Y012102*
X014204Y01197*
X014269Y011848*
X014356Y011742*
X014463Y011654*
X014584Y011589*
X014716Y011549*
X014854Y011536*
X014991Y011549*
X015123Y011589*
X015244Y011654*
X015351Y011742*
X015438Y011848*
X015503Y01197*
X015543Y012102*
X015557Y012239*
X015543Y012376*
X015503Y012508*
X015438Y01263*
X015351Y012736*
X015244Y012824*
X015123Y012889*
X014991Y012929*
X014854Y012942*
G37*
G36*
X010257D02*
X01012Y012929D01*
X009988Y012889*
X009866Y012824*
X00976Y012736*
X009672Y01263*
X009607Y012508*
X009567Y012376*
X009554Y012239*
X009567Y012102*
X009607Y01197*
X009672Y011848*
X00976Y011742*
X009866Y011654*
X009988Y011589*
X01012Y011549*
X010257Y011536*
X010394Y011549*
X010526Y011589*
X010648Y011654*
X010754Y011742*
X010842Y011848*
X010907Y01197*
X010947Y012102*
X01096Y012239*
X010947Y012376*
X010907Y012508*
X010842Y01263*
X010754Y012736*
X010648Y012824*
X010526Y012889*
X010394Y012929*
X010257Y012942*
G37*
G36*
X001839Y012322D02*
X001776Y012314D01*
X00167Y01227*
X001579Y0122*
X001509Y012109*
X001466Y012004*
X001457Y01194*
X001839*
Y012322*
G37*
G36*
X01945Y012942D02*
X019313Y012929D01*
X019181Y012889*
X019059Y012824*
X018953Y012736*
X018865Y01263*
X0188Y012508*
X01876Y012376*
X018747Y012239*
X01876Y012102*
X0188Y01197*
X018865Y011848*
X018953Y011742*
X019059Y011654*
X019181Y011589*
X019313Y011549*
X01945Y011536*
X019587Y011549*
X019719Y011589*
X019841Y011654*
X019947Y011742*
X020035Y011848*
X0201Y01197*
X02014Y012102*
X020153Y012239*
X02014Y012376*
X0201Y012508*
X020035Y01263*
X019947Y012736*
X019841Y012824*
X019719Y012889*
X019587Y012929*
X01945Y012942*
G37*
G36*
X016742Y026048D02*
Y0254D01*
X0171*
Y02565*
X017069Y025806*
X016981Y025938*
X016848Y026027*
X016742Y026048*
G37*
G36*
X016642D02*
X016536Y026027D01*
X016404Y025938*
X016315Y025806*
X016284Y02565*
Y0254*
X016642*
Y026048*
G37*
G36*
X017726D02*
Y0254D01*
X018084*
Y02565*
X018053Y025806*
X017965Y025938*
X017832Y026027*
X017726Y026048*
G37*
G36*
X017626D02*
X01752Y026027D01*
X017388Y025938*
X0173Y025806*
X017269Y02565*
Y0254*
X017626*
Y026048*
G37*
G36*
X018084Y0253D02*
X017726D01*
Y024652*
X017832Y024673*
X017965Y024762*
X018053Y024894*
X018084Y02505*
Y0253*
G37*
G36*
X017626D02*
X017269D01*
Y02505*
X0173Y024894*
X017388Y024762*
X01752Y024673*
X017626Y024652*
Y0253*
G37*
G36*
X0157Y026007D02*
X015563Y02598D01*
X015448Y025902*
X01537Y025787*
X015343Y02565*
Y02505*
X01537Y024913*
X015448Y024798*
X015563Y02472*
X0157Y024693*
X015837Y02472*
X015952Y024798*
X01603Y024913*
X016057Y02505*
Y02565*
X01603Y025787*
X015952Y025902*
X015837Y02598*
X0157Y026007*
G37*
G36*
X01472D02*
X014583Y02598D01*
X014468Y025902*
X01439Y025787*
X014363Y02565*
Y02505*
X01439Y024913*
X014468Y024798*
X014583Y02472*
X01472Y024693*
X014857Y02472*
X014972Y024798*
X01505Y024913*
X015077Y02505*
Y02565*
X01505Y025787*
X014972Y025902*
X014857Y02598*
X01472Y026007*
G37*
G36*
X01845Y006052D02*
X018351Y006039D01*
X018258Y006001*
X018179Y00594*
X018118Y005861*
X01808Y005768*
X018067Y005669*
Y005009*
X01808Y00491*
X018118Y004817*
X018179Y004738*
X018258Y004677*
X018351Y004639*
X01845Y004626*
X018549Y004639*
X018642Y004677*
X018721Y004738*
X018782Y004817*
X01882Y00491*
X018833Y005009*
Y005669*
X01882Y005768*
X018782Y005861*
X018721Y00594*
X018642Y006001*
X018549Y006039*
X01845Y006052*
G37*
G36*
X013854D02*
X013754Y006039D01*
X013662Y006001*
X013583Y00594*
X013522Y005861*
X013483Y005768*
X01347Y005669*
Y005009*
X013483Y00491*
X013522Y004817*
X013583Y004738*
X013662Y004677*
X013754Y004639*
X013854Y004626*
X013953Y004639*
X014045Y004677*
X014125Y004738*
X014185Y004817*
X014224Y00491*
X014237Y005009*
Y005669*
X014224Y005768*
X014185Y005861*
X014125Y00594*
X014045Y006001*
X013953Y006039*
X013854Y006052*
G37*
G36*
X011307Y006096D02*
Y005389D01*
X011691*
Y005669*
X011676Y005781*
X011633Y005886*
X011564Y005976*
X011474Y006045*
X011369Y006088*
X011307Y006096*
G37*
G36*
X011207D02*
X011145Y006088D01*
X01104Y006045*
X01095Y005976*
X010881Y005886*
X010838Y005781*
X010823Y005669*
Y005389*
X011207*
Y006096*
G37*
G36*
X020884Y005289D02*
X0205D01*
Y004582*
X020562Y00459*
X020667Y004633*
X020757Y004702*
X020826Y004792*
X020869Y004897*
X020884Y005009*
Y005289*
G37*
G36*
X0204D02*
X020016D01*
Y005009*
X020031Y004897*
X020074Y004792*
X020143Y004702*
X020233Y004633*
X020338Y00459*
X0204Y004582*
Y005289*
G37*
G36*
X009257Y006052D02*
X009158Y006039D01*
X009065Y006001*
X008986Y00594*
X008925Y005861*
X008887Y005768*
X008874Y005669*
Y005009*
X008887Y00491*
X008925Y004817*
X008986Y004738*
X009065Y004677*
X009158Y004639*
X009257Y004626*
X009356Y004639*
X009449Y004677*
X009528Y004738*
X009589Y004817*
X009627Y00491*
X00964Y005009*
Y005669*
X009627Y005768*
X009589Y005861*
X009528Y00594*
X009449Y006001*
X009356Y006039*
X009257Y006052*
G37*
G36*
X004661D02*
X004561Y006039D01*
X004469Y006001*
X00439Y00594*
X004329Y005861*
X00429Y005768*
X004277Y005669*
Y005009*
X00429Y00491*
X004329Y004817*
X00439Y004738*
X004469Y004677*
X004561Y004639*
X004661Y004626*
X00476Y004639*
X004852Y004677*
X004932Y004738*
X004993Y004817*
X005031Y00491*
X005044Y005009*
Y005669*
X005031Y005768*
X004993Y005861*
X004932Y00594*
X004852Y006001*
X00476Y006039*
X004661Y006052*
G37*
G36*
X001839Y01184D02*
X001457D01*
X001466Y011776*
X001509Y011671*
X001579Y01158*
X00167Y01151*
X001776Y011466*
X001839Y011458*
Y01184*
G37*
G36*
X001939Y008122D02*
Y00774D01*
X002322*
X002313Y007804*
X002269Y007909*
X0022Y008*
X002109Y00807*
X002003Y008114*
X001939Y008122*
G37*
G36*
X005661Y012942D02*
X005523Y012929D01*
X005391Y012889*
X00527Y012824*
X005163Y012736*
X005076Y01263*
X005011Y012508*
X004971Y012376*
X004957Y012239*
X004971Y012102*
X005011Y01197*
X005076Y011848*
X005163Y011742*
X00527Y011654*
X005391Y011589*
X005523Y011549*
X005661Y011536*
X005798Y011549*
X00593Y011589*
X006051Y011654*
X006158Y011742*
X006245Y011848*
X00631Y01197*
X006351Y012102*
X006364Y012239*
X006351Y012376*
X00631Y012508*
X006245Y01263*
X006158Y012736*
X006051Y012824*
X00593Y012889*
X005798Y012929*
X005661Y012942*
G37*
G36*
X002322Y01184D02*
X001939D01*
Y011458*
X002003Y011466*
X002109Y01151*
X0022Y01158*
X002269Y011671*
X002313Y011776*
X002322Y01184*
G37*
G36*
X0205Y006096D02*
Y005389D01*
X020884*
Y005669*
X020869Y005781*
X020826Y005886*
X020757Y005976*
X020667Y006045*
X020562Y006088*
X0205Y006096*
G37*
G36*
X0204D02*
X020338Y006088D01*
X020233Y006045*
X020143Y005976*
X020074Y005886*
X020031Y005781*
X020016Y005669*
Y005389*
X0204*
Y006096*
G37*
G36*
X002322Y00764D02*
X001939D01*
Y007258*
X002003Y007266*
X002109Y00731*
X0022Y00738*
X002269Y007471*
X002313Y007576*
X002322Y00764*
G37*
G36*
X001889Y010914D02*
X001785Y010901D01*
X001688Y01086*
X001604Y010796*
X000815Y010007*
X000751Y009923*
X00071Y009826*
X000697Y009722*
Y0071*
X00071Y006996*
X000751Y006899*
X000815Y006815*
X001604Y006026*
X001688Y005962*
X001785Y005921*
X001889Y005908*
X001994Y005921*
X002091Y005962*
X002175Y006026*
X002239Y006109*
X002279Y006207*
X002293Y006311*
X002279Y006415*
X002239Y006513*
X002175Y006596*
X00154Y007231*
X001535Y007257*
X001542Y007283*
X001654Y007322*
X00167Y00731*
X001776Y007266*
X001839Y007258*
Y00769*
Y008122*
X001776Y008114*
X00167Y00807*
X001603Y008019*
X001523Y008047*
X001503Y008063*
Y009555*
X002175Y010226*
X002239Y010309*
X002279Y010407*
X002293Y010511*
X002279Y010615*
X002239Y010713*
X002175Y010796*
X002091Y01086*
X001994Y010901*
X001889Y010914*
G37*
%LNmotor_driver-3*%
%LPD*%
G54D10*
X00715Y020824D03*
Y02007D03*
G54D11*
X0086Y021275D03*
Y0206D03*
X00915Y016515D03*
Y01719D03*
G54D12*
X01032Y02115D03*
Y02065D03*
Y02015D03*
Y01965D03*
Y01915D03*
Y01865D03*
Y01815D03*
Y01765D03*
X01428D03*
Y01815D03*
Y01865D03*
Y01915D03*
Y01965D03*
Y02015D03*
Y02065D03*
Y02115D03*
X01032Y01715D03*
Y01665D03*
X01428Y01715D03*
Y01665D03*
X00364Y02325D03*
X00606D03*
X00364Y02275D03*
Y02225D03*
X00606Y02275D03*
Y02225D03*
X00364Y02175D03*
X00606D03*
X00364Y02125D03*
Y02075D03*
X00606Y02125D03*
Y02075D03*
X00364Y02025D03*
X00606D03*
X00359Y01825D03*
X00601D03*
X00359Y01775D03*
Y01725D03*
X00601Y01775D03*
Y01725D03*
X00359Y01675D03*
X00601D03*
X00359Y01625D03*
Y01575D03*
X00601Y01625D03*
Y01575D03*
X00359Y01525D03*
X00601D03*
G54D13*
X015976Y01865D03*
X01673D03*
X015876Y02065D03*
X01663D03*
G54D14*
X012635Y02205D03*
X01196D03*
G54D15*
X0006Y013179D02*
X001889Y01189D01*
X0006Y013179D02*
Y02415D01*
X0015Y02505*
Y02635*
X0129Y01695D02*
X0131Y01715D01*
X01175D02*
X01195Y01695D01*
X00919Y01715D02*
X01032D01*
X01175*
X00915Y01719D02*
X00919Y01715D01*
X01195Y01695D02*
X0129D01*
X0131Y01715D02*
X01428D01*
X0159*
X01428Y01815D02*
X01535D01*
X01575Y0173D02*
X0159Y01715D01*
X01615Y0169*
X01535Y01815D02*
X01575Y01775D01*
Y0173D02*
Y01775D01*
X01428Y01865D02*
X015976D01*
X01428Y02065D02*
X015876D01*
X0086Y021275D02*
X010195D01*
X01032Y02115*
X0136Y023D02*
X01428Y02232D01*
Y02115D02*
Y02232D01*
X01085Y0232D02*
X0134D01*
X0136Y023*
X00785Y022025D02*
Y0232D01*
Y022025D02*
X0086Y021275D01*
Y0206D02*
X00905D01*
X0095Y02015*
X01032*
X0133Y01765D02*
X01428D01*
X00364Y024362D02*
X004628Y02535D01*
X00364Y02325D02*
Y024362D01*
X007584Y02535D02*
Y02645D01*
X00445D02*
X007584D01*
X0054Y02075D02*
X00606D01*
X0051Y02105D02*
X0054Y02075D01*
X005233Y01725D02*
X00601D01*
X0047Y01625D02*
X00601D01*
X00364Y02075D02*
X0041D01*
X0047Y02015*
Y01625D02*
Y02015D01*
X00364Y02125D02*
X00425D01*
X005233Y020267*
Y01725D02*
Y020267D01*
X0066Y0253D02*
Y02535D01*
X0051Y02105D02*
Y02385D01*
X005775Y024525*
X005825*
X0066Y0253*
X005608Y025058D02*
Y02535D01*
X0045Y02395D02*
X005608Y025058D01*
X0045Y02225D02*
Y02395D01*
X00364Y02225D02*
X0045D01*
X00359Y01879D02*
X00405Y01925D01*
X00359Y01825D02*
Y01879D01*
X008624Y01965D02*
X01032D01*
X00915Y016515D02*
X010185D01*
X01032Y01665*
X0095Y01865D02*
X01032D01*
X0027Y01725D02*
X00359D01*
X00601Y01675D02*
X007D01*
X01325Y01915D02*
X01428D01*
X01032Y02065D02*
X0113D01*
X0121Y01885D02*
X0133Y01765D01*
X01196Y021941D02*
Y02205D01*
X0113Y02065D02*
X0114Y02075D01*
Y021381*
X01196Y021941*
X012635Y021385D02*
Y02205D01*
X0121Y02085D02*
X012635Y021385D01*
X006Y01525D02*
X00601D01*
X0121Y01885D02*
Y02085D01*
X01145Y01995D02*
X0115D01*
X01295D02*
X01325D01*
X01355Y01965*
X01428*
X0115Y0182D02*
Y01995D01*
X0117Y027D02*
X01785D01*
X0079Y0232D02*
X0117Y027D01*
X00785Y0232D02*
X0079D01*
X00715Y020824D02*
X007626D01*
X0079Y02055*
X008Y01915D02*
X01032D01*
X00845Y01785D02*
X00875Y01815D01*
X008Y018072D02*
Y01915D01*
X007975Y018047D02*
X008Y018072D01*
X007975Y017653D02*
Y018047D01*
X008374Y0199D02*
X008624Y01965D01*
X0079Y0199D02*
Y02055D01*
Y0199D02*
X008374D01*
X01663Y02065D02*
X01745D01*
X01785Y027D02*
X0188Y02605D01*
Y0183D02*
Y02605D01*
X01745Y02065D02*
X01805Y02005D01*
X01945Y0096D02*
Y010489D01*
X0181Y011839D02*
X01945Y010489D01*
X0181Y011839D02*
Y01285D01*
X01945Y0142*
Y0186*
X01673Y01762D02*
Y01865D01*
X01428Y02015D02*
X015D01*
X0153Y01985*
X01428Y01378D02*
Y01665D01*
X01355Y01305D02*
X01428Y01378D01*
X01355Y01075D02*
Y01305D01*
Y01075D02*
X01485Y00945D01*
X00875Y01815D02*
X01032D01*
X007975Y017653D02*
X008Y017628D01*
Y01535D02*
X00855D01*
X008D02*
Y017628D01*
X00855Y01535D02*
X00885Y01505D01*
Y01405D02*
Y01505D01*
X00785Y0136D02*
X0084D01*
X00885Y01405*
X0075Y015D02*
Y01972D01*
Y015D02*
X0081Y0144D01*
X00765Y0134D02*
X00785Y0136D01*
X00765Y01145D02*
Y0134D01*
X0053Y0091D02*
X00765Y01145D01*
X00175Y0165D02*
X0025D01*
X00275Y01675*
X00359*
X00175Y02375D02*
X00445Y02645D01*
X00275Y02275D02*
X00364D01*
X0024Y01895D02*
X00245Y0189D01*
Y0183D02*
Y0189D01*
Y0183D02*
X003Y01775D01*
X00359*
X006Y01525D02*
X00665Y0146D01*
X00601Y01575D02*
X0069D01*
X01032Y01765D02*
X0123D01*
X0167Y0162D02*
X0188Y0183D01*
X01428Y01665D02*
X0155D01*
X01595Y0162*
X0167*
X00295Y01575D02*
X00359D01*
X00255Y01535D02*
X00295Y01575D01*
X002816Y01625D02*
X00359D01*
X002666Y0161D02*
X002816Y01625D01*
X0025Y0161D02*
X002666D01*
X00165Y01525D02*
X0025Y0161D01*
X0011Y0158D02*
X00165Y01525D01*
X0011Y0158D02*
Y0188D01*
X0019Y0196*
X003*
X0029Y02175D02*
X00364D01*
X00175Y02125D02*
Y02375D01*
Y02125D02*
X00364D01*
X00715Y02007D02*
X0075Y01972D01*
X00601Y01775D02*
X0068D01*
X0069Y01785*
Y01895*
X00606Y01979D02*
X0069Y01895D01*
X00606Y01979D02*
Y02025D01*
G54D16*
X006872Y002211D02*
Y003378D01*
X005661Y004589D02*
X006872Y003378D01*
X005661Y004589D02*
Y005339D01*
X006661D02*
X00825Y00375D01*
Y002211D02*
Y00375D01*
X010257Y004307D02*
Y005339D01*
X0097Y00375D02*
X010257Y004307D01*
X00825Y00375D02*
X0097D01*
X01925Y004D02*
X01945Y0042D01*
X0181Y004D02*
X01925D01*
X016761Y005339D02*
X0181Y004D01*
X015854Y005339D02*
X016761D01*
X01945Y0042D02*
Y005339D01*
G54D17*
X014854Y003029D02*
Y005339D01*
Y003029D02*
X015672Y002211D01*
X015854Y003407D02*
Y005339D01*
Y003407D02*
X01705Y002211D01*
X006872D02*
X007983Y0011D01*
X014561*
X015672Y002211*
X0011Y009722D02*
X001889Y010511D01*
X0011Y0071D02*
Y009722D01*
Y0071D02*
X001889Y006311D01*
G54D18*
X0015Y0011D03*
Y02635D03*
X0206Y0011D03*
X02055Y02635D03*
G54D19*
X0066Y02535D03*
X007584D03*
X005608D03*
X004628D03*
X016692D03*
X017676D03*
X0157D03*
X01472D03*
G54D20*
X001889Y006311D03*
Y00769D03*
Y010511D03*
Y01189D03*
X015672Y002211D03*
X01705D03*
X01843D03*
X006872D03*
X00825D03*
X00963D03*
G54D21*
X01845Y005339D03*
X01945D03*
X02045D03*
X013854D03*
X014854D03*
X015854D03*
X009257D03*
X010257D03*
X011257D03*
X004661D03*
X005661D03*
X006661D03*
G54D22*
X01945Y012239D03*
X014854D03*
X010257D03*
X005661D03*
G54D23*
X0166Y023D03*
X0136D03*
X01085Y0232D03*
X00785D03*
G54D24*
X00315Y00425D03*
X0122Y00285D03*
X0201Y0027D03*
X01615Y0169D03*
X00405Y01925D03*
X0095Y01865D03*
X0027Y01725D03*
X007Y01675D03*
X01325Y01915D03*
X0115Y0182D03*
X01145Y01995D03*
X01295D03*
X00845Y01785D03*
X01805Y02005D03*
X01945Y0186D03*
Y0096D03*
X01673Y01762D03*
X0153Y01985D03*
X01485Y00945D03*
X0081Y0144D03*
X0053Y0091D03*
X00175Y0165D03*
X00275Y02275D03*
X0024Y01895D03*
X00665Y0146D03*
X0069Y01575D03*
X0123Y01765D03*
X00255Y01535D03*
X003Y0196D03*
X0029Y02175D03*
M02*