%FSTAX23Y23*%
%MOIN*%
%SFA1B1*%

%IPPOS*%
%ADD18R,0.007900X0.031800*%
%ADD19R,0.015900X0.047600*%
%ADD20R,0.031800X0.007900*%
%ADD21R,0.047600X0.015900*%
%ADD22R,0.007900X0.031800*%
%ADD23C,0.000000*%
%ADD24C,0.003900*%
%ADD25C,0.024000*%
%ADD26C,0.006000*%
%ADD27C,0.004000*%
%ADD28R,0.010000X0.024000*%
%ADD29R,0.045000X0.020000*%
%ADD30R,0.030000X0.057500*%
%ADD31R,0.029500X0.057500*%
%ADD32R,0.014000X0.056000*%
%ADD33R,0.057500X0.030000*%
%ADD34R,0.057500X0.029500*%
%ADD35R,0.058000X0.020000*%
%ADD36R,0.030000X0.075000*%
%ADD37R,0.056000X0.014000*%
%ADD38C,0.002000*%
%ADD66C,0.005000*%
%ADD67C,0.006700*%
%LNmotor_driver-1*%
%LPD*%
G54D18*
X0123Y02204D03*
G54D19*
X01625Y02065D03*
X01635Y01865D03*
X00334Y0091D03*
X00957Y0093D03*
G54D20*
X00914Y01685D03*
X0032Y00716D03*
X0086Y02094D03*
G54D21*
X01354Y00992D03*
X00715Y02044D03*
G54D22*
X01623Y02409D03*
G54D23*
X00731Y01223D02*
D01*
X0073Y01235*
X00729Y01246*
X00727Y01258*
X00724Y01269*
X00721Y0128*
X00716Y01291*
X00711Y01301*
X00706Y01311*
X00699Y0132*
X00692Y01329*
X00684Y01338*
X00676Y01346*
X00667Y01353*
X00658Y0136*
X00648Y01366*
X00638Y01372*
X00627Y01376*
X00617Y0138*
X00606Y01383*
X00594Y01386*
X00583Y01387*
X00571Y01388*
X0056*
X00548Y01387*
X00537Y01386*
X00526Y01383*
X00515Y0138*
X00504Y01376*
X00493Y01372*
X00483Y01366*
X00473Y0136*
X00464Y01353*
X00455Y01346*
X00447Y01338*
X00439Y01329*
X00432Y0132*
X00426Y01311*
X0042Y01301*
X00415Y01291*
X00411Y0128*
X00407Y01269*
X00404Y01258*
X00402Y01246*
X00401Y01235*
X00401Y01223*
X00401Y01212*
X00402Y012*
X00404Y01189*
X00407Y01178*
X00411Y01167*
X00415Y01156*
X0042Y01146*
X00426Y01136*
X00432Y01126*
X00439Y01117*
X00447Y01109*
X00455Y01101*
X00464Y01093*
X00473Y01087*
X00483Y01081*
X00493Y01075*
X00504Y0107*
X00515Y01066*
X00526Y01063*
X00537Y01061*
X00548Y01059*
X0056Y01059*
X00571*
X00583Y01059*
X00594Y01061*
X00606Y01063*
X00617Y01066*
X00627Y0107*
X00638Y01075*
X00648Y01081*
X00658Y01087*
X00667Y01093*
X00676Y01101*
X00684Y01109*
X00692Y01117*
X00699Y01126*
X00706Y01136*
X00711Y01146*
X00716Y01156*
X00721Y01167*
X00724Y01178*
X00727Y01189*
X00729Y012*
X0073Y01212*
X00731Y01223*
X0119D02*
D01*
X0119Y01235*
X01189Y01246*
X01187Y01258*
X01184Y01269*
X0118Y0128*
X01176Y01291*
X01171Y01301*
X01165Y01311*
X01159Y0132*
X01152Y01329*
X01144Y01338*
X01136Y01346*
X01127Y01353*
X01117Y0136*
X01108Y01366*
X01098Y01372*
X01087Y01376*
X01076Y0138*
X01065Y01383*
X01054Y01386*
X01042Y01387*
X01031Y01388*
X01019*
X01008Y01387*
X00997Y01386*
X00985Y01383*
X00974Y0138*
X00963Y01376*
X00953Y01372*
X00943Y01366*
X00933Y0136*
X00924Y01353*
X00915Y01346*
X00907Y01338*
X00899Y01329*
X00892Y0132*
X00885Y01311*
X0088Y01301*
X00874Y01291*
X0087Y0128*
X00867Y01269*
X00864Y01258*
X00862Y01246*
X00861Y01235*
X0086Y01223*
X00861Y01212*
X00862Y012*
X00864Y01189*
X00867Y01178*
X0087Y01167*
X00874Y01156*
X0088Y01146*
X00885Y01136*
X00892Y01126*
X00899Y01117*
X00907Y01109*
X00915Y01101*
X00924Y01093*
X00933Y01087*
X00943Y01081*
X00953Y01075*
X00963Y0107*
X00974Y01066*
X00985Y01063*
X00997Y01061*
X01008Y01059*
X01019Y01059*
X01031*
X01042Y01059*
X01054Y01061*
X01065Y01063*
X01076Y01066*
X01087Y0107*
X01098Y01075*
X01108Y01081*
X01117Y01087*
X01127Y01093*
X01136Y01101*
X01144Y01109*
X01152Y01117*
X01159Y01126*
X01165Y01136*
X01171Y01146*
X01176Y01156*
X0118Y01167*
X01184Y01178*
X01187Y01189*
X01189Y012*
X0119Y01212*
X0119Y01223*
X0165D02*
D01*
X01649Y01235*
X01648Y01246*
X01646Y01258*
X01644Y01269*
X0164Y0128*
X01636Y01291*
X01631Y01301*
X01625Y01311*
X01618Y0132*
X01611Y01329*
X01604Y01338*
X01595Y01346*
X01586Y01353*
X01577Y0136*
X01567Y01366*
X01557Y01372*
X01547Y01376*
X01536Y0138*
X01525Y01383*
X01514Y01386*
X01502Y01387*
X01491Y01388*
X01479*
X01468Y01387*
X01456Y01386*
X01445Y01383*
X01434Y0138*
X01423Y01376*
X01413Y01372*
X01402Y01366*
X01393Y0136*
X01383Y01353*
X01374Y01346*
X01366Y01338*
X01359Y01329*
X01351Y0132*
X01345Y01311*
X01339Y01301*
X01334Y01291*
X0133Y0128*
X01326Y01269*
X01324Y01258*
X01322Y01246*
X0132Y01235*
X0132Y01223*
X0132Y01212*
X01322Y012*
X01324Y01189*
X01326Y01178*
X0133Y01167*
X01334Y01156*
X01339Y01146*
X01345Y01136*
X01351Y01126*
X01359Y01117*
X01366Y01109*
X01374Y01101*
X01383Y01093*
X01393Y01087*
X01402Y01081*
X01413Y01075*
X01423Y0107*
X01434Y01066*
X01445Y01063*
X01456Y01061*
X01468Y01059*
X01479Y01059*
X01491*
X01502Y01059*
X01514Y01061*
X01525Y01063*
X01536Y01066*
X01547Y0107*
X01557Y01075*
X01567Y01081*
X01577Y01087*
X01586Y01093*
X01595Y01101*
X01604Y01109*
X01611Y01117*
X01618Y01126*
X01625Y01136*
X01631Y01146*
X01636Y01156*
X0164Y01167*
X01644Y01178*
X01646Y01189*
X01648Y012*
X01649Y01212*
X0165Y01223*
X0211D02*
D01*
X02109Y01235*
X02108Y01246*
X02106Y01258*
X02103Y01269*
X021Y0128*
X02095Y01291*
X0209Y01301*
X02084Y01311*
X02078Y0132*
X02071Y01329*
X02063Y01338*
X02055Y01346*
X02046Y01353*
X02037Y0136*
X02027Y01366*
X02017Y01372*
X02006Y01376*
X01995Y0138*
X01984Y01383*
X01973Y01386*
X01962Y01387*
X0195Y01388*
X01939*
X01927Y01387*
X01916Y01386*
X01905Y01383*
X01894Y0138*
X01883Y01376*
X01872Y01372*
X01862Y01366*
X01852Y0136*
X01843Y01353*
X01834Y01346*
X01826Y01338*
X01818Y01329*
X01811Y0132*
X01805Y01311*
X01799Y01301*
X01794Y01291*
X01789Y0128*
X01786Y01269*
X01783Y01258*
X01781Y01246*
X0178Y01235*
X0178Y01223*
X0178Y01212*
X01781Y012*
X01783Y01189*
X01786Y01178*
X01789Y01167*
X01794Y01156*
X01799Y01146*
X01805Y01136*
X01811Y01126*
X01818Y01117*
X01826Y01109*
X01834Y01101*
X01843Y01093*
X01852Y01087*
X01862Y01081*
X01872Y01075*
X01883Y0107*
X01894Y01066*
X01905Y01063*
X01916Y01061*
X01927Y01059*
X01939Y01059*
X0195*
X01962Y01059*
X01973Y01061*
X01984Y01063*
X01995Y01066*
X02006Y0107*
X02017Y01075*
X02027Y01081*
X02037Y01087*
X02046Y01093*
X02055Y01101*
X02063Y01109*
X02071Y01117*
X02078Y01126*
X02084Y01136*
X0209Y01146*
X02095Y01156*
X021Y01167*
X02103Y01178*
X02106Y01189*
X02108Y012*
X02109Y01212*
X0211Y01223*
X00731D02*
D01*
X0073Y01235*
X00729Y01246*
X00727Y01258*
X00724Y01269*
X00721Y0128*
X00716Y01291*
X00711Y01301*
X00706Y01311*
X00699Y0132*
X00692Y01329*
X00684Y01338*
X00676Y01346*
X00667Y01353*
X00658Y0136*
X00648Y01366*
X00638Y01372*
X00627Y01376*
X00617Y0138*
X00606Y01383*
X00594Y01386*
X00583Y01387*
X00571Y01388*
X0056*
X00548Y01387*
X00537Y01386*
X00526Y01383*
X00515Y0138*
X00504Y01376*
X00493Y01372*
X00483Y01366*
X00473Y0136*
X00464Y01353*
X00455Y01346*
X00447Y01338*
X00439Y01329*
X00432Y0132*
X00426Y01311*
X0042Y01301*
X00415Y01291*
X00411Y0128*
X00407Y01269*
X00404Y01258*
X00402Y01246*
X00401Y01235*
X00401Y01223*
X00401Y01212*
X00402Y012*
X00404Y01189*
X00407Y01178*
X00411Y01167*
X00415Y01156*
X0042Y01146*
X00426Y01136*
X00432Y01126*
X00439Y01117*
X00447Y01109*
X00455Y01101*
X00464Y01093*
X00473Y01087*
X00483Y01081*
X00493Y01075*
X00504Y0107*
X00515Y01066*
X00526Y01063*
X00537Y01061*
X00548Y01059*
X0056Y01059*
X00571*
X00583Y01059*
X00594Y01061*
X00606Y01063*
X00617Y01066*
X00627Y0107*
X00638Y01075*
X00648Y01081*
X00658Y01087*
X00667Y01093*
X00676Y01101*
X00684Y01109*
X00692Y01117*
X00699Y01126*
X00706Y01136*
X00711Y01146*
X00716Y01156*
X00721Y01167*
X00724Y01178*
X00727Y01189*
X00729Y012*
X0073Y01212*
X00731Y01223*
X0119D02*
D01*
X0119Y01235*
X01189Y01246*
X01187Y01258*
X01184Y01269*
X0118Y0128*
X01176Y01291*
X01171Y01301*
X01165Y01311*
X01159Y0132*
X01152Y01329*
X01144Y01338*
X01136Y01346*
X01127Y01353*
X01117Y0136*
X01108Y01366*
X01098Y01372*
X01087Y01376*
X01076Y0138*
X01065Y01383*
X01054Y01386*
X01042Y01387*
X01031Y01388*
X01019*
X01008Y01387*
X00997Y01386*
X00985Y01383*
X00974Y0138*
X00963Y01376*
X00953Y01372*
X00943Y01366*
X00933Y0136*
X00924Y01353*
X00915Y01346*
X00907Y01338*
X00899Y01329*
X00892Y0132*
X00885Y01311*
X0088Y01301*
X00874Y01291*
X0087Y0128*
X00867Y01269*
X00864Y01258*
X00862Y01246*
X00861Y01235*
X0086Y01223*
X00861Y01212*
X00862Y012*
X00864Y01189*
X00867Y01178*
X0087Y01167*
X00874Y01156*
X0088Y01146*
X00885Y01136*
X00892Y01126*
X00899Y01117*
X00907Y01109*
X00915Y01101*
X00924Y01093*
X00933Y01087*
X00943Y01081*
X00953Y01075*
X00963Y0107*
X00974Y01066*
X00985Y01063*
X00997Y01061*
X01008Y01059*
X01019Y01059*
X01031*
X01042Y01059*
X01054Y01061*
X01065Y01063*
X01076Y01066*
X01087Y0107*
X01098Y01075*
X01108Y01081*
X01117Y01087*
X01127Y01093*
X01136Y01101*
X01144Y01109*
X01152Y01117*
X01159Y01126*
X01165Y01136*
X01171Y01146*
X01176Y01156*
X0118Y01167*
X01184Y01178*
X01187Y01189*
X01189Y012*
X0119Y01212*
X0119Y01223*
X0165D02*
D01*
X01649Y01235*
X01648Y01246*
X01646Y01258*
X01644Y01269*
X0164Y0128*
X01636Y01291*
X01631Y01301*
X01625Y01311*
X01618Y0132*
X01611Y01329*
X01604Y01338*
X01595Y01346*
X01586Y01353*
X01577Y0136*
X01567Y01366*
X01557Y01372*
X01547Y01376*
X01536Y0138*
X01525Y01383*
X01514Y01386*
X01502Y01387*
X01491Y01388*
X01479*
X01468Y01387*
X01456Y01386*
X01445Y01383*
X01434Y0138*
X01423Y01376*
X01413Y01372*
X01402Y01366*
X01393Y0136*
X01383Y01353*
X01374Y01346*
X01366Y01338*
X01359Y01329*
X01351Y0132*
X01345Y01311*
X01339Y01301*
X01334Y01291*
X0133Y0128*
X01326Y01269*
X01324Y01258*
X01322Y01246*
X0132Y01235*
X0132Y01223*
X0132Y01212*
X01322Y012*
X01324Y01189*
X01326Y01178*
X0133Y01167*
X01334Y01156*
X01339Y01146*
X01345Y01136*
X01351Y01126*
X01359Y01117*
X01366Y01109*
X01374Y01101*
X01383Y01093*
X01393Y01087*
X01402Y01081*
X01413Y01075*
X01423Y0107*
X01434Y01066*
X01445Y01063*
X01456Y01061*
X01468Y01059*
X01479Y01059*
X01491*
X01502Y01059*
X01514Y01061*
X01525Y01063*
X01536Y01066*
X01547Y0107*
X01557Y01075*
X01567Y01081*
X01577Y01087*
X01586Y01093*
X01595Y01101*
X01604Y01109*
X01611Y01117*
X01618Y01126*
X01625Y01136*
X01631Y01146*
X01636Y01156*
X0164Y01167*
X01644Y01178*
X01646Y01189*
X01648Y012*
X01649Y01212*
X0165Y01223*
X0211D02*
D01*
X02109Y01235*
X02108Y01246*
X02106Y01258*
X02103Y01269*
X021Y0128*
X02095Y01291*
X0209Y01301*
X02084Y01311*
X02078Y0132*
X02071Y01329*
X02063Y01338*
X02055Y01346*
X02046Y01353*
X02037Y0136*
X02027Y01366*
X02017Y01372*
X02006Y01376*
X01995Y0138*
X01984Y01383*
X01973Y01386*
X01962Y01387*
X0195Y01388*
X01939*
X01927Y01387*
X01916Y01386*
X01905Y01383*
X01894Y0138*
X01883Y01376*
X01872Y01372*
X01862Y01366*
X01852Y0136*
X01843Y01353*
X01834Y01346*
X01826Y01338*
X01818Y01329*
X01811Y0132*
X01805Y01311*
X01799Y01301*
X01794Y01291*
X01789Y0128*
X01786Y01269*
X01783Y01258*
X01781Y01246*
X0178Y01235*
X0178Y01223*
X0178Y01212*
X01781Y012*
X01783Y01189*
X01786Y01178*
X01789Y01167*
X01794Y01156*
X01799Y01146*
X01805Y01136*
X01811Y01126*
X01818Y01117*
X01826Y01109*
X01834Y01101*
X01843Y01093*
X01852Y01087*
X01862Y01081*
X01872Y01075*
X01883Y0107*
X01894Y01066*
X01905Y01063*
X01916Y01061*
X01927Y01059*
X01939Y01059*
X0195*
X01962Y01059*
X01973Y01061*
X01984Y01063*
X01995Y01066*
X02006Y0107*
X02017Y01075*
X02027Y01081*
X02037Y01087*
X02046Y01093*
X02055Y01101*
X02063Y01109*
X02071Y01117*
X02078Y01126*
X02084Y01136*
X0209Y01146*
X02095Y01156*
X021Y01167*
X02103Y01178*
X02106Y01189*
X02108Y012*
X02109Y01212*
X0211Y01223*
G54D24*
X01931Y00848D02*
X02018D01*
X01931Y00791D02*
X02018D01*
Y00848*
X01931Y00791D02*
Y00848D01*
X01471Y00873D02*
X01558D01*
X01471Y00816D02*
X01558D01*
Y00873*
X01471Y00816D02*
Y00873D01*
X00596Y00771D02*
X00682D01*
X00596Y00828D02*
X00682D01*
X00596Y00771D02*
Y00828D01*
X00682Y00771D02*
Y00828D01*
X01975Y008D02*
Y00839D01*
X01955Y0082D02*
X01994D01*
X01919Y00851D02*
X0203D01*
X01919Y00788D02*
X0203D01*
Y00851*
X01919Y00788D02*
Y00851D01*
X01515Y00825D02*
Y00864D01*
X01495Y00845D02*
X01534D01*
X01459Y00876D02*
X0157D01*
X01459Y00813D02*
X0157D01*
Y00876*
X01459Y00813D02*
Y00876D01*
X00639Y0078D02*
Y00819D01*
X00619Y008D02*
X00659D01*
X00584Y00768D02*
X00694D01*
X00584Y00831D02*
X00694D01*
X00584Y00768D02*
Y00831D01*
X00694Y00768D02*
Y00831D01*
G54D25*
X00785Y0232D02*
X008D01*
X0107D02*
X01085D01*
X0136Y023D02*
X01375D01*
X01645D02*
X0166D01*
G54D26*
X0081Y02285D02*
Y02355D01*
X0106Y02285D02*
Y02355D01*
X01385Y02265D02*
Y02335D01*
X01635Y02265D02*
Y02335D01*
X01597Y0204D02*
X01653D01*
X01597Y0209D02*
X01653D01*
X01607Y0184D02*
X01663D01*
X01607Y0189D02*
X01663D01*
X0138Y00965D02*
Y01021D01*
X0133Y00965D02*
Y01021D01*
X00307Y00885D02*
X00363D01*
X00307Y00935D02*
X00363D01*
X0093Y00905D02*
X00986D01*
X0093Y00955D02*
X00986D01*
X01555Y0255D02*
X01585D01*
X01555Y0252D02*
X01585Y0255D01*
X01555D02*
X01585Y0252D01*
X01555D02*
Y0255D01*
Y0252D02*
X01585D01*
Y0255*
X01457D02*
X01487D01*
X01457Y0252D02*
X01487Y0255D01*
X01457D02*
X01487Y0252D01*
X01457D02*
Y0255D01*
Y0252D02*
X01487D01*
Y0255*
X01752D02*
X01782Y0252D01*
X01752D02*
X01782Y0255D01*
X01752D02*
X01782D01*
Y0252D02*
Y0255D01*
X01752Y0252D02*
X01782D01*
X01752D02*
Y0255D01*
X01653Y0252D02*
X01683Y0255D01*
X01653D02*
X01683Y0252D01*
Y0255*
X01653Y0252D02*
X01683D01*
X01653D02*
Y0255D01*
X01683*
X0069Y02017D02*
Y02073D01*
X0074Y02017D02*
Y02073D01*
X00545Y0255D02*
X00575D01*
X00545Y0252D02*
X00575Y0255D01*
X00545D02*
X00575Y0252D01*
X00545D02*
Y0255D01*
Y0252D02*
X00575D01*
Y0255*
X00447D02*
X00477D01*
X00447Y0252D02*
X00477Y0255D01*
X00447D02*
X00477Y0252D01*
X00447D02*
Y0255D01*
Y0252D02*
X00477D01*
Y0255*
X00743D02*
X00773Y0252D01*
X00743D02*
X00773Y0255D01*
X00743D02*
X00773D01*
Y0252D02*
Y0255D01*
X00743Y0252D02*
X00773D01*
X00743D02*
Y0255D01*
X00644Y0252D02*
X00674Y0255D01*
X00644D02*
X00674Y0252D01*
Y0255*
X00644Y0252D02*
X00674D01*
X00644D02*
Y0255D01*
X00674*
G54D27*
X01215Y02231D02*
X01244D01*
X01215Y02179D02*
X01245D01*
X00941Y01671D02*
Y017D01*
X00889Y0167D02*
Y017D01*
X00294Y00702D02*
Y00731D01*
X00346Y00701D02*
Y00731D01*
X00935Y00173D02*
X01011Y00249D01*
X00916Y00193D02*
X00991Y00269D01*
X00797Y00173D02*
X00873Y00249D01*
X00777Y00193D02*
X00853Y00269D01*
X00659Y00173D02*
X00734Y00249D01*
X00639Y00193D02*
X00715Y00269D01*
X01815Y00173D02*
X01891Y00249D01*
X01796Y00193D02*
X01871Y00269D01*
X01677Y00173D02*
X01753Y00249D01*
X01657Y00193D02*
X01733Y00269D01*
X01539Y00173D02*
X01614Y00249D01*
X01519Y00193D02*
X01595Y00269D01*
X00161Y01237D02*
X00236Y01161D01*
X00141Y01217D02*
X00216Y01142D01*
X00161Y01098D02*
X00236Y01023D01*
X00141Y01079D02*
X00216Y01003D01*
X00161Y00817D02*
X00236Y00741D01*
X00141Y00797D02*
X00216Y00722D01*
X00161Y00678D02*
X00236Y00603D01*
X00141Y00659D02*
X00216Y00583D01*
X00834Y02079D02*
Y02108D01*
X00886Y02079D02*
Y02109D01*
X01609Y02436D02*
X01638D01*
X01608Y02384D02*
X01638D01*
G54D28*
X00805Y0232D03*
X01065D03*
X0138Y023D03*
X0164D03*
G54D29*
X0038Y01525D03*
Y01575D03*
Y01625D03*
X00579Y01525D03*
Y01575D03*
Y01625D03*
Y01825D03*
Y01775D03*
Y01725D03*
X0038Y01675D03*
X00381Y01725D03*
X0038Y01775D03*
Y01825D03*
X00579Y01675D03*
X00385Y02025D03*
Y02075D03*
Y02125D03*
X00584Y02025D03*
Y02075D03*
Y02125D03*
Y02325D03*
Y02275D03*
Y02225D03*
X00385Y02175D03*
X00386Y02225D03*
X00385Y02275D03*
Y02325D03*
X00584Y02175D03*
G54D30*
X01201Y02204D03*
X01652Y02409D03*
G54D31*
X01258Y02204D03*
X01595Y02409D03*
G54D32*
X01659Y02065D03*
X01591D03*
X01669Y01865D03*
X01601D03*
X00301Y0091D03*
X00369D03*
X00924Y0093D03*
X00992D03*
G54D33*
X00914Y01714D03*
X0032Y00745D03*
X0086Y02065D03*
G54D34*
X00914Y01656D03*
X0032Y00687D03*
X0086Y02122D03*
G54D35*
X01049Y01665D03*
Y01715D03*
X01411Y01665D03*
Y01715D03*
Y01765D03*
Y01815D03*
Y01865D03*
Y01915D03*
Y01965D03*
Y02015D03*
Y02065D03*
Y02115D03*
X01049Y01765D03*
Y01815D03*
Y01865D03*
Y01915D03*
Y01965D03*
Y02015D03*
Y02065D03*
Y02115D03*
G54D36*
X00666Y00561D03*
X00566D03*
X00466D03*
X01125D03*
X01025D03*
X00925D03*
X01585D03*
X01485D03*
X01385D03*
X02045D03*
X01945D03*
X01845D03*
G54D37*
X01355Y00959D03*
Y01027D03*
X00715Y02011D03*
Y02079D03*
G54D38*
X01152Y02166D02*
Y02243D01*
X01307Y02166D02*
Y02243D01*
X01152D02*
X01307D01*
X01152Y02166D02*
X01307D01*
X01703Y02026D02*
Y02104D01*
X01547Y02026D02*
Y02104D01*
Y02026D02*
X01703D01*
X01547Y02104D02*
X01703D01*
X01713Y01826D02*
Y01904D01*
X01557Y01826D02*
Y01904D01*
Y01826D02*
X01713D01*
X01557Y01904D02*
X01713D01*
X00876Y01763D02*
X00953D01*
X00876Y01607D02*
X00953D01*
Y01763*
X00876Y01607D02*
Y01763D01*
X01316Y00915D02*
X01393D01*
X01316Y0107D02*
X01393D01*
Y00915D02*
Y0107D01*
X01316Y00915D02*
Y0107D01*
X00257Y00871D02*
Y00949D01*
X00412Y00871D02*
Y00949D01*
X00257Y00871D02*
X00412D01*
X00257Y00949D02*
X00412D01*
X00281Y00794D02*
X00359D01*
X00281Y00638D02*
X00359D01*
X00281D02*
Y00794D01*
X00359Y00638D02*
Y00794D01*
X0088Y00891D02*
Y00969D01*
X01035Y00891D02*
Y00969D01*
X0088Y00891D02*
X01035D01*
X0088Y00969D02*
X01035D01*
X00821Y02016D02*
X00899D01*
X00821Y02171D02*
X00899D01*
X00821Y02016D02*
Y02171D01*
X00899Y02016D02*
Y02171D01*
X00676Y01967D02*
X00754D01*
X00676Y02122D02*
X00754D01*
X00676Y01967D02*
Y02122D01*
X00754Y01967D02*
Y02122D01*
X01701Y02371D02*
Y02448D01*
X01545Y02371D02*
Y02448D01*
X01701*
X01545Y02371D02*
X01701D01*
G54D66*
X0204Y0009D02*
Y0013D01*
X0208*
Y0009*
X0204*
X0013D02*
Y0013D01*
X0017*
Y0009*
X0013*
X02035Y02615D02*
Y02655D01*
X02075*
Y02615*
X02035*
X0013D02*
Y02655D01*
X0017*
Y02615*
X0013*
X00566Y01203D02*
X00546Y01243D01*
X00586*
X00566Y01203*
X00666Y00513D02*
X00676Y00523D01*
X00686*
X00676Y00533*
X00686Y00543*
X00676*
X00666Y00553*
X00656Y00543*
X00646*
X00656Y00533*
X00646Y00523*
X00656*
X00666Y00513*
X00566D02*
X00576Y00523D01*
X00586*
X00576Y00533*
X00586Y00543*
X00576*
X00566Y00553*
X00556Y00543*
X00546*
X00556Y00533*
X00546Y00523*
X00556*
X00566Y00513*
X00466D02*
X00476Y00523D01*
X00486*
X00476Y00533*
X00486Y00543*
X00476*
X00466Y00553*
X00456Y00543*
X00446*
X00456Y00533*
X00446Y00523*
X00456*
X00466Y00513*
X00963Y00201D02*
X00973Y00211D01*
X00983*
X00973Y00221*
X00983Y00231*
X00973*
X00963Y00241*
X00953Y00231*
X00943*
X00953Y00221*
X00943Y00211*
X00953*
X00963Y00201*
X00825D02*
X00835Y00211D01*
X00845*
X00835Y00221*
X00845Y00231*
X00835*
X00825Y00241*
X00815Y00231*
X00805*
X00815Y00221*
X00805Y00211*
X00815*
X00825Y00201*
X00687D02*
X00697Y00211D01*
X00707*
X00697Y00221*
X00707Y00231*
X00697*
X00687Y00241*
X00677Y00231*
X00667*
X00677Y00221*
X00667Y00211*
X00677*
X00687Y00201*
X01843D02*
X01853Y00211D01*
X01863*
X01853Y00221*
X01863Y00231*
X01853*
X01843Y00241*
X01833Y00231*
X01823*
X01833Y00221*
X01823Y00211*
X01833*
X01843Y00201*
X01705D02*
X01715Y00211D01*
X01725*
X01715Y00221*
X01725Y00231*
X01715*
X01705Y00241*
X01695Y00231*
X01685*
X01695Y00221*
X01685Y00211*
X01695*
X01705Y00201*
X01567D02*
X01577Y00211D01*
X01587*
X01577Y00221*
X01587Y00231*
X01577*
X01567Y00241*
X01557Y00231*
X01547*
X01557Y00221*
X01547Y00211*
X01557*
X01567Y00201*
X01025Y01203D02*
X01005Y01243D01*
X01045*
X01025Y01203*
X01125Y00513D02*
X01135Y00523D01*
X01145*
X01135Y00533*
X01145Y00543*
X01135*
X01125Y00553*
X01115Y00543*
X01105*
X01115Y00533*
X01105Y00523*
X01115*
X01125Y00513*
X01025D02*
X01035Y00523D01*
X01045*
X01035Y00533*
X01045Y00543*
X01035*
X01025Y00553*
X01015Y00543*
X01005*
X01015Y00533*
X01005Y00523*
X01015*
X01025Y00513*
X00925D02*
X00935Y00523D01*
X00945*
X00935Y00533*
X00945Y00543*
X00935*
X00925Y00553*
X00915Y00543*
X00905*
X00915Y00533*
X00905Y00523*
X00915*
X00925Y00513*
X01485Y01203D02*
X01465Y01243D01*
X01505*
X01485Y01203*
X01585Y00513D02*
X01595Y00523D01*
X01605*
X01595Y00533*
X01605Y00543*
X01595*
X01585Y00553*
X01575Y00543*
X01565*
X01575Y00533*
X01565Y00523*
X01575*
X01585Y00513*
X01485D02*
X01495Y00523D01*
X01505*
X01495Y00533*
X01505Y00543*
X01495*
X01485Y00553*
X01475Y00543*
X01465*
X01475Y00533*
X01465Y00523*
X01475*
X01485Y00513*
X01385D02*
X01395Y00523D01*
X01405*
X01395Y00533*
X01405Y00543*
X01395*
X01385Y00553*
X01375Y00543*
X01365*
X01375Y00533*
X01365Y00523*
X01375*
X01385Y00513*
X01945Y01203D02*
X01925Y01243D01*
X01965*
X01945Y01203*
X02045Y00513D02*
X02055Y00523D01*
X02065*
X02055Y00533*
X02065Y00543*
X02055*
X02045Y00553*
X02035Y00543*
X02025*
X02035Y00533*
X02025Y00523*
X02035*
X02045Y00513*
X01945D02*
X01955Y00523D01*
X01965*
X01955Y00533*
X01965Y00543*
X01955*
X01945Y00553*
X01935Y00543*
X01925*
X01935Y00533*
X01925Y00523*
X01935*
X01945Y00513*
X01845D02*
X01855Y00523D01*
X01865*
X01855Y00533*
X01865Y00543*
X01855*
X01845Y00553*
X01835Y00543*
X01825*
X01835Y00533*
X01825Y00523*
X01835*
X01845Y00513*
X00188Y01169D02*
X00198Y01179D01*
X00208*
X00198Y01189*
X00208Y01199*
X00198*
X00188Y01209*
X00178Y01199*
X00168*
X00178Y01189*
X00168Y01179*
X00178*
X00188Y01169*
Y01031D02*
X00198Y01041D01*
X00208*
X00198Y01051*
X00208Y01061*
X00198*
X00188Y01071*
X00178Y01061*
X00168*
X00178Y01051*
X00168Y01041*
X00178*
X00188Y01031*
Y00749D02*
X00198Y00759D01*
X00208*
X00198Y00769*
X00208Y00779*
X00198*
X00188Y00789*
X00178Y00779*
X00168*
X00178Y00769*
X00168Y00759*
X00178*
X00188Y00749*
Y00611D02*
X00198Y00621D01*
X00208*
X00198Y00631*
X00208Y00641*
X00198*
X00188Y00651*
X00178Y00641*
X00168*
X00178Y00631*
X00168Y00621*
X00178*
X00188Y00611*
X01452Y02515D02*
X01462Y02535D01*
X01452Y02555*
X01472Y02545*
X01492Y02555*
X01482Y02535*
X01492Y02515*
X01472Y02525*
X01452Y02515*
X0155D02*
X0156Y02535D01*
X0155Y02555*
X0157Y02545*
X0159Y02555*
X0158Y02535*
X0159Y02515*
X0157Y02525*
X0155Y02515*
X01747D02*
X01757Y02535D01*
X01747Y02555*
X01767Y02545*
X01787Y02555*
X01777Y02535*
X01787Y02515*
X01767Y02525*
X01747Y02515*
X01649D02*
X01659Y02535D01*
X01649Y02555*
X01669Y02545*
X01689Y02555*
X01679Y02535*
X01689Y02515*
X01669Y02525*
X01649Y02515*
X00442D02*
X00452Y02535D01*
X00442Y02555*
X00462Y02545*
X00482Y02555*
X00472Y02535*
X00482Y02515*
X00462Y02525*
X00442Y02515*
X0054D02*
X0055Y02535D01*
X0054Y02555*
X0056Y02545*
X0058Y02555*
X0057Y02535*
X0058Y02515*
X0056Y02525*
X0054Y02515*
X00738D02*
X00748Y02535D01*
X00738Y02555*
X00758Y02545*
X00778Y02555*
X00768Y02535*
X00778Y02515*
X00758Y02525*
X00738Y02515*
X0064D02*
X0065Y02535D01*
X0064Y02555*
X0066Y02545*
X0068Y02555*
X0067Y02535*
X0068Y02515*
X0066Y02525*
X0064Y02515*
X02Y0026D02*
Y0025D01*
X0202*
Y0026*
X0203*
Y0028*
X0202*
Y0029*
X02*
Y0028*
X0199*
Y0026*
X02*
X0121Y00275D02*
Y00265D01*
X0123*
Y00275*
X0124*
Y00295*
X0123*
Y00305*
X0121*
Y00295*
X012*
Y00275*
X0121*
X00305Y00415D02*
Y00405D01*
X00325*
Y00415*
X00335*
Y00435*
X00325*
Y00445*
X00305*
Y00435*
X00295*
Y00415*
X00305*
X02015Y02045D02*
Y02035D01*
X02035*
Y02045*
X02045*
Y02065*
X02035*
Y02075*
X02015*
Y02065*
X02005*
Y02045*
X02015*
X01815Y0156D02*
Y0155D01*
X01835*
Y0156*
X01845*
Y0158*
X01835*
Y0159*
X01815*
Y0158*
X01805*
Y0156*
X01815*
X0028Y02165D02*
Y02155D01*
X003*
Y02165*
X0031*
Y02185*
X003*
Y02195*
X0028*
Y02185*
X0027*
Y02165*
X0028*
X0029Y0195D02*
Y0194D01*
X0031*
Y0195*
X0032*
Y0197*
X0031*
Y0198*
X0029*
Y0197*
X0028*
Y0195*
X0029*
X00245Y01525D02*
Y01515D01*
X00265*
Y01525*
X00275*
Y01545*
X00265*
Y01555*
X00245*
Y01545*
X00235*
Y01525*
X00245*
X0122Y01755D02*
Y01745D01*
X0124*
Y01755*
X0125*
Y01775*
X0124*
Y01785*
X0122*
Y01775*
X0121*
Y01755*
X0122*
X01605Y0168D02*
Y0167D01*
X01625*
Y0168*
X01635*
Y017*
X01625*
Y0171*
X01605*
Y017*
X01595*
Y0168*
X01605*
X0068Y01565D02*
Y01555D01*
X007*
Y01565*
X0071*
Y01585*
X007*
Y01595*
X0068*
Y01585*
X0067*
Y01565*
X0068*
X00655Y0145D02*
Y0144D01*
X00675*
Y0145*
X00685*
Y0147*
X00675*
Y0148*
X00655*
Y0147*
X00645*
Y0145*
X00655*
X0023Y01885D02*
Y01875D01*
X0025*
Y01885*
X0026*
Y01905*
X0025*
Y01915*
X0023*
Y01905*
X0022*
Y01885*
X0023*
X00265Y02265D02*
Y02255D01*
X00285*
Y02265*
X00295*
Y02285*
X00285*
Y02295*
X00265*
Y02285*
X00255*
Y02265*
X00265*
X00165Y0164D02*
Y0163D01*
X00185*
Y0164*
X00195*
Y0166*
X00185*
Y0167*
X00165*
Y0166*
X00155*
Y0164*
X00165*
X0098Y0263D02*
Y0262D01*
X01*
Y0263*
X0101*
Y0265*
X01*
Y0266*
X0098*
Y0265*
X0097*
Y0263*
X0098*
X0109Y0252D02*
Y0251D01*
X0111*
Y0252*
X0112*
Y0254*
X0111*
Y0255*
X0109*
Y0254*
X0108*
Y0252*
X0109*
X0052Y009D02*
Y0089D01*
X0054*
Y009*
X0055*
Y0092*
X0054*
Y0093*
X0052*
Y0092*
X0051*
Y009*
X0052*
X008Y0143D02*
Y0142D01*
X0082*
Y0143*
X0083*
Y0145*
X0082*
Y0146*
X008*
Y0145*
X0079*
Y0143*
X008*
X01475Y00935D02*
Y00925D01*
X01495*
Y00935*
X01505*
Y00955*
X01495*
Y00965*
X01475*
Y00955*
X01465*
Y00935*
X01475*
X0152Y01975D02*
Y01965D01*
X0154*
Y01975*
X0155*
Y01995*
X0154*
Y02005*
X0152*
Y01995*
X0151*
Y01975*
X0152*
X01663Y01752D02*
Y01742D01*
X01683*
Y01752*
X01693*
Y01772*
X01683*
Y01782*
X01663*
Y01772*
X01653*
Y01752*
X01663*
X01935Y0095D02*
Y0094D01*
X01955*
Y0095*
X01965*
Y0097*
X01955*
Y0098*
X01935*
Y0097*
X01925*
Y0095*
X01935*
Y0185D02*
Y0184D01*
X01955*
Y0185*
X01965*
Y0187*
X01955*
Y0188*
X01935*
Y0187*
X01925*
Y0185*
X01935*
X01795Y01995D02*
Y01985D01*
X01815*
Y01995*
X01825*
Y02015*
X01815*
Y02025*
X01795*
Y02015*
X01785*
Y01995*
X01795*
X00835Y01775D02*
Y01765D01*
X00855*
Y01775*
X00865*
Y01795*
X00855*
Y01805*
X00835*
Y01795*
X00825*
Y01775*
X00835*
X01285Y01985D02*
Y01975D01*
X01305*
Y01985*
X01315*
Y02005*
X01305*
Y02015*
X01285*
Y02005*
X01275*
Y01985*
X01285*
X01135D02*
Y01975D01*
X01155*
Y01985*
X01165*
Y02005*
X01155*
Y02015*
X01135*
Y02005*
X01125*
Y01985*
X01135*
X0114Y0181D02*
Y018D01*
X0116*
Y0181*
X0117*
Y0183*
X0116*
Y0184*
X0114*
Y0183*
X0113*
Y0181*
X0114*
X01315Y01905D02*
Y01895D01*
X01335*
Y01905*
X01345*
Y01925*
X01335*
Y01935*
X01315*
Y01925*
X01305*
Y01905*
X01315*
X0069Y01665D02*
Y01655D01*
X0071*
Y01665*
X0072*
Y01685*
X0071*
Y01695*
X0069*
Y01685*
X0068*
Y01665*
X0069*
X0026Y01715D02*
Y01705D01*
X0028*
Y01715*
X0029*
Y01735*
X0028*
Y01745*
X0026*
Y01735*
X0025*
Y01715*
X0026*
X0094Y01855D02*
Y01845D01*
X0096*
Y01855*
X0097*
Y01875*
X0096*
Y01885*
X0094*
Y01875*
X0093*
Y01855*
X0094*
X00395Y01915D02*
Y01905D01*
X00415*
Y01915*
X00425*
Y01935*
X00415*
Y01945*
X00395*
Y01935*
X00385*
Y01915*
X00395*
G54D67*
X00805Y0232D02*
D01*
X00804Y02321*
X00804Y02322*
X00804Y02324*
X00804Y02325*
X00803Y02326*
X00803Y02328*
X00802Y02329*
X00801Y0233*
X00801Y02331*
X008Y02332*
X00799Y02333*
X00798Y02334*
X00797Y02335*
X00796Y02336*
X00795Y02337*
X00793Y02337*
X00792Y02338*
X00791Y02339*
X00789Y02339*
X00788Y02339*
X00787Y02339*
X00785Y02339*
X00784*
X00782Y02339*
X00781Y02339*
X0078Y02339*
X00778Y02339*
X00777Y02338*
X00776Y02337*
X00775Y02337*
X00773Y02336*
X00772Y02335*
X00771Y02334*
X0077Y02333*
X00769Y02332*
X00768Y02331*
X00768Y0233*
X00767Y02329*
X00766Y02328*
X00766Y02326*
X00765Y02325*
X00765Y02324*
X00765Y02322*
X00765Y02321*
X00765Y0232*
X00765Y02318*
X00765Y02317*
X00765Y02315*
X00765Y02314*
X00766Y02313*
X00766Y02311*
X00767Y0231*
X00768Y02309*
X00768Y02308*
X00769Y02307*
X0077Y02306*
X00771Y02305*
X00772Y02304*
X00773Y02303*
X00775Y02302*
X00776Y02302*
X00777Y02301*
X00778Y023*
X0078Y023*
X00781Y023*
X00782Y023*
X00784Y023*
X00785*
X00787Y023*
X00788Y023*
X00789Y023*
X00791Y023*
X00792Y02301*
X00793Y02302*
X00795Y02302*
X00796Y02303*
X00797Y02304*
X00798Y02305*
X00799Y02306*
X008Y02307*
X00801Y02308*
X00801Y02309*
X00802Y0231*
X00803Y02311*
X00803Y02313*
X00804Y02314*
X00804Y02315*
X00804Y02317*
X00804Y02318*
X00805Y0232*
X01105D02*
D01*
X01104Y02321*
X01104Y02322*
X01104Y02324*
X01104Y02325*
X01103Y02326*
X01103Y02328*
X01102Y02329*
X01101Y0233*
X01101Y02331*
X011Y02332*
X01099Y02333*
X01098Y02334*
X01097Y02335*
X01096Y02336*
X01095Y02337*
X01093Y02337*
X01092Y02338*
X01091Y02339*
X01089Y02339*
X01088Y02339*
X01087Y02339*
X01085Y02339*
X01084*
X01082Y02339*
X01081Y02339*
X0108Y02339*
X01078Y02339*
X01077Y02338*
X01076Y02337*
X01075Y02337*
X01073Y02336*
X01072Y02335*
X01071Y02334*
X0107Y02333*
X01069Y02332*
X01068Y02331*
X01068Y0233*
X01067Y02329*
X01066Y02328*
X01066Y02326*
X01065Y02325*
X01065Y02324*
X01065Y02322*
X01065Y02321*
X01065Y0232*
X01065Y02318*
X01065Y02317*
X01065Y02315*
X01065Y02314*
X01066Y02313*
X01066Y02311*
X01067Y0231*
X01068Y02309*
X01068Y02308*
X01069Y02307*
X0107Y02306*
X01071Y02305*
X01072Y02304*
X01073Y02303*
X01075Y02302*
X01076Y02302*
X01077Y02301*
X01078Y023*
X0108Y023*
X01081Y023*
X01082Y023*
X01084Y023*
X01085*
X01087Y023*
X01088Y023*
X01089Y023*
X01091Y023*
X01092Y02301*
X01093Y02302*
X01095Y02302*
X01096Y02303*
X01097Y02304*
X01098Y02305*
X01099Y02306*
X011Y02307*
X01101Y02308*
X01101Y02309*
X01102Y0231*
X01103Y02311*
X01103Y02313*
X01104Y02314*
X01104Y02315*
X01104Y02317*
X01104Y02318*
X01105Y0232*
X0138Y023D02*
D01*
X01379Y02301*
X01379Y02302*
X01379Y02304*
X01379Y02305*
X01378Y02306*
X01378Y02308*
X01377Y02309*
X01376Y0231*
X01376Y02311*
X01375Y02312*
X01374Y02313*
X01373Y02314*
X01372Y02315*
X01371Y02316*
X0137Y02317*
X01368Y02317*
X01367Y02318*
X01366Y02319*
X01364Y02319*
X01363Y02319*
X01362Y02319*
X0136Y02319*
X01359*
X01357Y02319*
X01356Y02319*
X01355Y02319*
X01353Y02319*
X01352Y02318*
X01351Y02317*
X0135Y02317*
X01348Y02316*
X01347Y02315*
X01346Y02314*
X01345Y02313*
X01344Y02312*
X01343Y02311*
X01343Y0231*
X01342Y02309*
X01341Y02308*
X01341Y02306*
X0134Y02305*
X0134Y02304*
X0134Y02302*
X0134Y02301*
X0134Y023*
X0134Y02298*
X0134Y02297*
X0134Y02295*
X0134Y02294*
X01341Y02293*
X01341Y02291*
X01342Y0229*
X01343Y02289*
X01343Y02288*
X01344Y02287*
X01345Y02286*
X01346Y02285*
X01347Y02284*
X01348Y02283*
X0135Y02282*
X01351Y02282*
X01352Y02281*
X01353Y0228*
X01355Y0228*
X01356Y0228*
X01357Y0228*
X01359Y0228*
X0136*
X01362Y0228*
X01363Y0228*
X01364Y0228*
X01366Y0228*
X01367Y02281*
X01368Y02282*
X0137Y02282*
X01371Y02283*
X01372Y02284*
X01373Y02285*
X01374Y02286*
X01375Y02287*
X01376Y02288*
X01376Y02289*
X01377Y0229*
X01378Y02291*
X01378Y02293*
X01379Y02294*
X01379Y02295*
X01379Y02297*
X01379Y02298*
X0138Y023*
X0168D02*
D01*
X01679Y02301*
X01679Y02302*
X01679Y02304*
X01679Y02305*
X01678Y02306*
X01678Y02308*
X01677Y02309*
X01676Y0231*
X01676Y02311*
X01675Y02312*
X01674Y02313*
X01673Y02314*
X01672Y02315*
X01671Y02316*
X0167Y02317*
X01668Y02317*
X01667Y02318*
X01666Y02319*
X01664Y02319*
X01663Y02319*
X01662Y02319*
X0166Y02319*
X01659*
X01657Y02319*
X01656Y02319*
X01655Y02319*
X01653Y02319*
X01652Y02318*
X01651Y02317*
X0165Y02317*
X01648Y02316*
X01647Y02315*
X01646Y02314*
X01645Y02313*
X01644Y02312*
X01643Y02311*
X01643Y0231*
X01642Y02309*
X01641Y02308*
X01641Y02306*
X0164Y02305*
X0164Y02304*
X0164Y02302*
X0164Y02301*
X0164Y023*
X0164Y02298*
X0164Y02297*
X0164Y02295*
X0164Y02294*
X01641Y02293*
X01641Y02291*
X01642Y0229*
X01643Y02289*
X01643Y02288*
X01644Y02287*
X01645Y02286*
X01646Y02285*
X01647Y02284*
X01648Y02283*
X0165Y02282*
X01651Y02282*
X01652Y02281*
X01653Y0228*
X01655Y0228*
X01656Y0228*
X01657Y0228*
X01659Y0228*
X0166*
X01662Y0228*
X01663Y0228*
X01664Y0228*
X01666Y0228*
X01667Y02281*
X01668Y02282*
X0167Y02282*
X01671Y02283*
X01672Y02284*
X01673Y02285*
X01674Y02286*
X01675Y02287*
X01676Y02288*
X01676Y02289*
X01677Y0229*
X01678Y02291*
X01678Y02293*
X01679Y02294*
X01679Y02295*
X01679Y02297*
X01679Y02298*
X0168Y023*
M02*