%FSTAX24Y24*%
%MOIN*%
%SFA1B1*%

%IPPOS*%
%ADD49C,0.005000*%
%ADD50C,0.006700*%
%LNmotor_driver-1*%
%LPD*%
G54D49*
X0013Y0009D02*
Y0013D01*
X0017*
Y0009*
X0013*
Y02615D02*
Y02655D01*
X0017*
Y02615*
X0013*
X0204Y0009D02*
Y0013D01*
X0208*
Y0009*
X0204*
X02035Y02615D02*
Y02655D01*
X02075*
Y02615*
X02035*
X001889Y006111D02*
X001689Y006511D01*
X002089*
X001889Y006111*
Y00749D02*
X001689Y00789D01*
X002089*
X001889Y00749*
Y010311D02*
X001689Y010711D01*
X002089*
X001889Y010311*
Y01169D02*
X001689Y01209D01*
X002089*
X001889Y01169*
X01845Y005139D02*
X01825Y005539D01*
X01865*
X01845Y005139*
X01945D02*
X01925Y005539D01*
X01965*
X01945Y005139*
X02045D02*
X02025Y005539D01*
X02065*
X02045Y005139*
X01945Y012039D02*
X01955Y012139D01*
X01965*
X01955Y012239*
X01965Y012339*
X01955*
X01945Y012439*
X01935Y012339*
X01925*
X01935Y012239*
X01925Y012139*
X01935*
X01945Y012039*
X013854Y005139D02*
X013654Y005539D01*
X014054*
X013854Y005139*
X014854D02*
X014654Y005539D01*
X015054*
X014854Y005139*
X015854D02*
X015654Y005539D01*
X016054*
X015854Y005139*
X014854Y012039D02*
X014954Y012139D01*
X015054*
X014954Y012239*
X015054Y012339*
X014954*
X014854Y012439*
X014754Y012339*
X014654*
X014754Y012239*
X014654Y012139*
X014754*
X014854Y012039*
X009257Y005139D02*
X009057Y005539D01*
X009457*
X009257Y005139*
X010257D02*
X010057Y005539D01*
X010457*
X010257Y005139*
X011257D02*
X011057Y005539D01*
X011457*
X011257Y005139*
X010257Y012039D02*
X010357Y012139D01*
X010457*
X010357Y012239*
X010457Y012339*
X010357*
X010257Y012439*
X010157Y012339*
X010057*
X010157Y012239*
X010057Y012139*
X010157*
X010257Y012039*
X015672Y002011D02*
X015472Y002411D01*
X015872*
X015672Y002011*
X01705D02*
X01685Y002411D01*
X01725*
X01705Y002011*
X01843D02*
X01823Y002411D01*
X01863*
X01843Y002011*
X006872D02*
X006672Y002411D01*
X007072*
X006872Y002011*
X00825D02*
X00805Y002411D01*
X00845*
X00825Y002011*
X00963D02*
X00943Y002411D01*
X00983*
X00963Y002011*
X004661Y005139D02*
X004461Y005539D01*
X004861*
X004661Y005139*
X005661D02*
X005461Y005539D01*
X005861*
X005661Y005139*
X006661D02*
X006461Y005539D01*
X006861*
X006661Y005139*
X005661Y012039D02*
X005761Y012139D01*
X005861*
X005761Y012239*
X005861Y012339*
X005761*
X005661Y012439*
X005561Y012339*
X005461*
X005561Y012239*
X005461Y012139*
X005561*
X005661Y012039*
X0164Y0228D02*
X0165Y023D01*
X0164Y0232*
X0166Y0231*
X0168Y0232*
X0167Y023*
X0168Y0228*
X0166Y0229*
X0164Y0228*
X0134D02*
X0135Y023D01*
X0134Y0232*
X0136Y0231*
X0138Y0232*
X0137Y023*
X0138Y0228*
X0136Y0229*
X0134Y0228*
X01065Y023D02*
X01075Y0232D01*
X01065Y0234*
X01085Y0233*
X01105Y0234*
X01095Y0232*
X01105Y023*
X01085Y0231*
X01065Y023*
X00765D02*
X00775Y0232D01*
X00765Y0234*
X00785Y0233*
X00805Y0234*
X00795Y0232*
X00805Y023*
X00785Y0231*
X00765Y023*
X00305Y00415D02*
Y00405D01*
X00325*
Y00415*
X00335*
Y00435*
X00325*
Y00445*
X00305*
Y00435*
X00295*
Y00415*
X00305*
X0121Y00275D02*
Y00265D01*
X0123*
Y00275*
X0124*
Y00295*
X0123*
Y00305*
X0121*
Y00295*
X012*
Y00275*
X0121*
X02Y0026D02*
Y0025D01*
X0202*
Y0026*
X0203*
Y0028*
X0202*
Y0029*
X02*
Y0028*
X0199*
Y0026*
X02*
X01605Y0168D02*
Y0167D01*
X01625*
Y0168*
X01635*
Y017*
X01625*
Y0171*
X01605*
Y017*
X01595*
Y0168*
X01605*
X00395Y01915D02*
Y01905D01*
X00415*
Y01915*
X00425*
Y01935*
X00415*
Y01945*
X00395*
Y01935*
X00385*
Y01915*
X00395*
X0094Y01855D02*
Y01845D01*
X0096*
Y01855*
X0097*
Y01875*
X0096*
Y01885*
X0094*
Y01875*
X0093*
Y01855*
X0094*
X0026Y01715D02*
Y01705D01*
X0028*
Y01715*
X0029*
Y01735*
X0028*
Y01745*
X0026*
Y01735*
X0025*
Y01715*
X0026*
X0069Y01665D02*
Y01655D01*
X0071*
Y01665*
X0072*
Y01685*
X0071*
Y01695*
X0069*
Y01685*
X0068*
Y01665*
X0069*
X01315Y01905D02*
Y01895D01*
X01335*
Y01905*
X01345*
Y01925*
X01335*
Y01935*
X01315*
Y01925*
X01305*
Y01905*
X01315*
X0114Y0181D02*
Y018D01*
X0116*
Y0181*
X0117*
Y0183*
X0116*
Y0184*
X0114*
Y0183*
X0113*
Y0181*
X0114*
X01135Y01985D02*
Y01975D01*
X01155*
Y01985*
X01165*
Y02005*
X01155*
Y02015*
X01135*
Y02005*
X01125*
Y01985*
X01135*
X01285D02*
Y01975D01*
X01305*
Y01985*
X01315*
Y02005*
X01305*
Y02015*
X01285*
Y02005*
X01275*
Y01985*
X01285*
X00835Y01775D02*
Y01765D01*
X00855*
Y01775*
X00865*
Y01795*
X00855*
Y01805*
X00835*
Y01795*
X00825*
Y01775*
X00835*
X01795Y01995D02*
Y01985D01*
X01815*
Y01995*
X01825*
Y02015*
X01815*
Y02025*
X01795*
Y02015*
X01785*
Y01995*
X01795*
X01935Y0185D02*
Y0184D01*
X01955*
Y0185*
X01965*
Y0187*
X01955*
Y0188*
X01935*
Y0187*
X01925*
Y0185*
X01935*
Y0095D02*
Y0094D01*
X01955*
Y0095*
X01965*
Y0097*
X01955*
Y0098*
X01935*
Y0097*
X01925*
Y0095*
X01935*
X01663Y01752D02*
Y01742D01*
X01683*
Y01752*
X01693*
Y01772*
X01683*
Y01782*
X01663*
Y01772*
X01653*
Y01752*
X01663*
X0152Y01975D02*
Y01965D01*
X0154*
Y01975*
X0155*
Y01995*
X0154*
Y02005*
X0152*
Y01995*
X0151*
Y01975*
X0152*
X01475Y00935D02*
Y00925D01*
X01495*
Y00935*
X01505*
Y00955*
X01495*
Y00965*
X01475*
Y00955*
X01465*
Y00935*
X01475*
X008Y0143D02*
Y0142D01*
X0082*
Y0143*
X0083*
Y0145*
X0082*
Y0146*
X008*
Y0145*
X0079*
Y0143*
X008*
X0052Y009D02*
Y0089D01*
X0054*
Y009*
X0055*
Y0092*
X0054*
Y0093*
X0052*
Y0092*
X0051*
Y009*
X0052*
X00165Y0164D02*
Y0163D01*
X00185*
Y0164*
X00195*
Y0166*
X00185*
Y0167*
X00165*
Y0166*
X00155*
Y0164*
X00165*
X00265Y02265D02*
Y02255D01*
X00285*
Y02265*
X00295*
Y02285*
X00285*
Y02295*
X00265*
Y02285*
X00255*
Y02265*
X00265*
X0023Y01885D02*
Y01875D01*
X0025*
Y01885*
X0026*
Y01905*
X0025*
Y01915*
X0023*
Y01905*
X0022*
Y01885*
X0023*
X00655Y0145D02*
Y0144D01*
X00675*
Y0145*
X00685*
Y0147*
X00675*
Y0148*
X00655*
Y0147*
X00645*
Y0145*
X00655*
X0068Y01565D02*
Y01555D01*
X007*
Y01565*
X0071*
Y01585*
X007*
Y01595*
X0068*
Y01585*
X0067*
Y01565*
X0068*
X0122Y01755D02*
Y01745D01*
X0124*
Y01755*
X0125*
Y01775*
X0124*
Y01785*
X0122*
Y01775*
X0121*
Y01755*
X0122*
X00245Y01525D02*
Y01515D01*
X00265*
Y01525*
X00275*
Y01545*
X00265*
Y01555*
X00245*
Y01545*
X00235*
Y01525*
X00245*
X0029Y0195D02*
Y0194D01*
X0031*
Y0195*
X0032*
Y0197*
X0031*
Y0198*
X0029*
Y0197*
X0028*
Y0195*
X0029*
X0028Y02165D02*
Y02155D01*
X003*
Y02165*
X0031*
Y02185*
X003*
Y02195*
X0028*
Y02185*
X0027*
Y02165*
X0028*
G54D50*
X0068Y02535D02*
D01*
X006799Y025363*
X006798Y025377*
X006795Y025391*
X006792Y025405*
X006787Y025418*
X006782Y025431*
X006776Y025443*
X006769Y025455*
X006761Y025467*
X006753Y025478*
X006743Y025488*
X006733Y025498*
X006723Y025507*
X006711Y025515*
X0067Y025523*
X006687Y025529*
X006674Y025535*
X006661Y02554*
X006648Y025544*
X006634Y025546*
X00662Y025548*
X006606Y025549*
X006593*
X006579Y025548*
X006565Y025546*
X006551Y025544*
X006538Y02554*
X006525Y025535*
X006512Y025529*
X0065Y025523*
X006488Y025515*
X006476Y025507*
X006466Y025498*
X006456Y025488*
X006446Y025478*
X006438Y025467*
X00643Y025455*
X006423Y025443*
X006417Y025431*
X006412Y025418*
X006407Y025405*
X006404Y025391*
X006401Y025377*
X0064Y025363*
X0064Y02535*
X0064Y025336*
X006401Y025322*
X006404Y025308*
X006407Y025294*
X006412Y025281*
X006417Y025268*
X006423Y025256*
X00643Y025244*
X006438Y025232*
X006446Y025221*
X006456Y025211*
X006466Y025201*
X006476Y025192*
X006488Y025184*
X0065Y025176*
X006512Y02517*
X006525Y025164*
X006538Y025159*
X006551Y025155*
X006565Y025153*
X006579Y025151*
X006593Y02515*
X006606*
X00662Y025151*
X006634Y025153*
X006648Y025155*
X006661Y025159*
X006674Y025164*
X006687Y02517*
X0067Y025176*
X006711Y025184*
X006723Y025192*
X006733Y025201*
X006743Y025211*
X006753Y025221*
X006761Y025232*
X006769Y025244*
X006776Y025256*
X006782Y025268*
X006787Y025281*
X006792Y025294*
X006795Y025308*
X006798Y025322*
X006799Y025336*
X0068Y02535*
X007784D02*
D01*
X007783Y025363*
X007782Y025377*
X007779Y025391*
X007776Y025405*
X007771Y025418*
X007766Y025431*
X00776Y025443*
X007753Y025455*
X007745Y025467*
X007737Y025478*
X007727Y025488*
X007717Y025498*
X007707Y025507*
X007695Y025515*
X007684Y025523*
X007671Y025529*
X007658Y025535*
X007645Y02554*
X007632Y025544*
X007618Y025546*
X007604Y025548*
X00759Y025549*
X007577*
X007563Y025548*
X007549Y025546*
X007535Y025544*
X007522Y02554*
X007509Y025535*
X007496Y025529*
X007484Y025523*
X007472Y025515*
X00746Y025507*
X00745Y025498*
X00744Y025488*
X00743Y025478*
X007422Y025467*
X007414Y025455*
X007407Y025443*
X007401Y025431*
X007396Y025418*
X007391Y025405*
X007388Y025391*
X007385Y025377*
X007384Y025363*
X007384Y02535*
X007384Y025336*
X007385Y025322*
X007388Y025308*
X007391Y025294*
X007396Y025281*
X007401Y025268*
X007407Y025256*
X007414Y025244*
X007422Y025232*
X00743Y025221*
X00744Y025211*
X00745Y025201*
X00746Y025192*
X007472Y025184*
X007484Y025176*
X007496Y02517*
X007509Y025164*
X007522Y025159*
X007535Y025155*
X007549Y025153*
X007563Y025151*
X007577Y02515*
X00759*
X007604Y025151*
X007618Y025153*
X007632Y025155*
X007645Y025159*
X007658Y025164*
X007671Y02517*
X007684Y025176*
X007695Y025184*
X007707Y025192*
X007717Y025201*
X007727Y025211*
X007737Y025221*
X007745Y025232*
X007753Y025244*
X00776Y025256*
X007766Y025268*
X007771Y025281*
X007776Y025294*
X007779Y025308*
X007782Y025322*
X007783Y025336*
X007784Y02535*
X005808D02*
D01*
X005807Y025363*
X005806Y025377*
X005803Y025391*
X0058Y025405*
X005795Y025418*
X00579Y025431*
X005784Y025443*
X005777Y025455*
X005769Y025467*
X005761Y025478*
X005751Y025488*
X005741Y025498*
X005731Y025507*
X005719Y025515*
X005708Y025523*
X005695Y025529*
X005682Y025535*
X005669Y02554*
X005656Y025544*
X005642Y025546*
X005628Y025548*
X005614Y025549*
X005601*
X005587Y025548*
X005573Y025546*
X005559Y025544*
X005546Y02554*
X005533Y025535*
X00552Y025529*
X005508Y025523*
X005496Y025515*
X005484Y025507*
X005474Y025498*
X005464Y025488*
X005454Y025478*
X005446Y025467*
X005438Y025455*
X005431Y025443*
X005425Y025431*
X00542Y025418*
X005415Y025405*
X005412Y025391*
X005409Y025377*
X005408Y025363*
X005408Y02535*
X005408Y025336*
X005409Y025322*
X005412Y025308*
X005415Y025294*
X00542Y025281*
X005425Y025268*
X005431Y025256*
X005438Y025244*
X005446Y025232*
X005454Y025221*
X005464Y025211*
X005474Y025201*
X005484Y025192*
X005496Y025184*
X005508Y025176*
X00552Y02517*
X005533Y025164*
X005546Y025159*
X005559Y025155*
X005573Y025153*
X005587Y025151*
X005601Y02515*
X005614*
X005628Y025151*
X005642Y025153*
X005656Y025155*
X005669Y025159*
X005682Y025164*
X005695Y02517*
X005708Y025176*
X005719Y025184*
X005731Y025192*
X005741Y025201*
X005751Y025211*
X005761Y025221*
X005769Y025232*
X005777Y025244*
X005784Y025256*
X00579Y025268*
X005795Y025281*
X0058Y025294*
X005803Y025308*
X005806Y025322*
X005807Y025336*
X005808Y02535*
X004828D02*
D01*
X004827Y025363*
X004826Y025377*
X004823Y025391*
X00482Y025405*
X004815Y025418*
X00481Y025431*
X004804Y025443*
X004797Y025455*
X004789Y025467*
X004781Y025478*
X004771Y025488*
X004761Y025498*
X004751Y025507*
X004739Y025515*
X004728Y025523*
X004715Y025529*
X004702Y025535*
X004689Y02554*
X004676Y025544*
X004662Y025546*
X004648Y025548*
X004634Y025549*
X004621*
X004607Y025548*
X004593Y025546*
X004579Y025544*
X004566Y02554*
X004553Y025535*
X00454Y025529*
X004528Y025523*
X004516Y025515*
X004504Y025507*
X004494Y025498*
X004484Y025488*
X004474Y025478*
X004466Y025467*
X004458Y025455*
X004451Y025443*
X004445Y025431*
X00444Y025418*
X004435Y025405*
X004432Y025391*
X004429Y025377*
X004428Y025363*
X004428Y02535*
X004428Y025336*
X004429Y025322*
X004432Y025308*
X004435Y025294*
X00444Y025281*
X004445Y025268*
X004451Y025256*
X004458Y025244*
X004466Y025232*
X004474Y025221*
X004484Y025211*
X004494Y025201*
X004504Y025192*
X004516Y025184*
X004528Y025176*
X00454Y02517*
X004553Y025164*
X004566Y025159*
X004579Y025155*
X004593Y025153*
X004607Y025151*
X004621Y02515*
X004634*
X004648Y025151*
X004662Y025153*
X004676Y025155*
X004689Y025159*
X004702Y025164*
X004715Y02517*
X004728Y025176*
X004739Y025184*
X004751Y025192*
X004761Y025201*
X004771Y025211*
X004781Y025221*
X004789Y025232*
X004797Y025244*
X004804Y025256*
X00481Y025268*
X004815Y025281*
X00482Y025294*
X004823Y025308*
X004826Y025322*
X004827Y025336*
X004828Y02535*
X016892D02*
D01*
X016891Y025363*
X01689Y025377*
X016887Y025391*
X016884Y025405*
X016879Y025418*
X016874Y025431*
X016868Y025443*
X016861Y025455*
X016853Y025467*
X016845Y025478*
X016835Y025488*
X016825Y025498*
X016815Y025507*
X016803Y025515*
X016792Y025523*
X016779Y025529*
X016766Y025535*
X016753Y02554*
X01674Y025544*
X016726Y025546*
X016712Y025548*
X016698Y025549*
X016685*
X016671Y025548*
X016657Y025546*
X016643Y025544*
X01663Y02554*
X016617Y025535*
X016604Y025529*
X016592Y025523*
X01658Y025515*
X016568Y025507*
X016558Y025498*
X016548Y025488*
X016538Y025478*
X01653Y025467*
X016522Y025455*
X016515Y025443*
X016509Y025431*
X016504Y025418*
X016499Y025405*
X016496Y025391*
X016493Y025377*
X016492Y025363*
X016492Y02535*
X016492Y025336*
X016493Y025322*
X016496Y025308*
X016499Y025294*
X016504Y025281*
X016509Y025268*
X016515Y025256*
X016522Y025244*
X01653Y025232*
X016538Y025221*
X016548Y025211*
X016558Y025201*
X016568Y025192*
X01658Y025184*
X016592Y025176*
X016604Y02517*
X016617Y025164*
X01663Y025159*
X016643Y025155*
X016657Y025153*
X016671Y025151*
X016685Y02515*
X016698*
X016712Y025151*
X016726Y025153*
X01674Y025155*
X016753Y025159*
X016766Y025164*
X016779Y02517*
X016792Y025176*
X016803Y025184*
X016815Y025192*
X016825Y025201*
X016835Y025211*
X016845Y025221*
X016853Y025232*
X016861Y025244*
X016868Y025256*
X016874Y025268*
X016879Y025281*
X016884Y025294*
X016887Y025308*
X01689Y025322*
X016891Y025336*
X016892Y02535*
X017876D02*
D01*
X017875Y025363*
X017874Y025377*
X017871Y025391*
X017868Y025405*
X017863Y025418*
X017858Y025431*
X017852Y025443*
X017845Y025455*
X017837Y025467*
X017829Y025478*
X017819Y025488*
X017809Y025498*
X017799Y025507*
X017787Y025515*
X017776Y025523*
X017763Y025529*
X01775Y025535*
X017737Y02554*
X017724Y025544*
X01771Y025546*
X017696Y025548*
X017682Y025549*
X017669*
X017655Y025548*
X017641Y025546*
X017627Y025544*
X017614Y02554*
X017601Y025535*
X017588Y025529*
X017576Y025523*
X017564Y025515*
X017552Y025507*
X017542Y025498*
X017532Y025488*
X017522Y025478*
X017514Y025467*
X017506Y025455*
X017499Y025443*
X017493Y025431*
X017488Y025418*
X017483Y025405*
X01748Y025391*
X017477Y025377*
X017476Y025363*
X017476Y02535*
X017476Y025336*
X017477Y025322*
X01748Y025308*
X017483Y025294*
X017488Y025281*
X017493Y025268*
X017499Y025256*
X017506Y025244*
X017514Y025232*
X017522Y025221*
X017532Y025211*
X017542Y025201*
X017552Y025192*
X017564Y025184*
X017576Y025176*
X017588Y02517*
X017601Y025164*
X017614Y025159*
X017627Y025155*
X017641Y025153*
X017655Y025151*
X017669Y02515*
X017682*
X017696Y025151*
X01771Y025153*
X017724Y025155*
X017737Y025159*
X01775Y025164*
X017763Y02517*
X017776Y025176*
X017787Y025184*
X017799Y025192*
X017809Y025201*
X017819Y025211*
X017829Y025221*
X017837Y025232*
X017845Y025244*
X017852Y025256*
X017858Y025268*
X017863Y025281*
X017868Y025294*
X017871Y025308*
X017874Y025322*
X017875Y025336*
X017876Y02535*
X0159D02*
D01*
X015899Y025363*
X015898Y025377*
X015895Y025391*
X015892Y025405*
X015887Y025418*
X015882Y025431*
X015876Y025443*
X015869Y025455*
X015861Y025467*
X015853Y025478*
X015843Y025488*
X015833Y025498*
X015823Y025507*
X015811Y025515*
X0158Y025523*
X015787Y025529*
X015774Y025535*
X015761Y02554*
X015748Y025544*
X015734Y025546*
X01572Y025548*
X015706Y025549*
X015693*
X015679Y025548*
X015665Y025546*
X015651Y025544*
X015638Y02554*
X015625Y025535*
X015612Y025529*
X0156Y025523*
X015588Y025515*
X015576Y025507*
X015566Y025498*
X015556Y025488*
X015546Y025478*
X015538Y025467*
X01553Y025455*
X015523Y025443*
X015517Y025431*
X015512Y025418*
X015507Y025405*
X015504Y025391*
X015501Y025377*
X0155Y025363*
X0155Y02535*
X0155Y025336*
X015501Y025322*
X015504Y025308*
X015507Y025294*
X015512Y025281*
X015517Y025268*
X015523Y025256*
X01553Y025244*
X015538Y025232*
X015546Y025221*
X015556Y025211*
X015566Y025201*
X015576Y025192*
X015588Y025184*
X0156Y025176*
X015612Y02517*
X015625Y025164*
X015638Y025159*
X015651Y025155*
X015665Y025153*
X015679Y025151*
X015693Y02515*
X015706*
X01572Y025151*
X015734Y025153*
X015748Y025155*
X015761Y025159*
X015774Y025164*
X015787Y02517*
X0158Y025176*
X015811Y025184*
X015823Y025192*
X015833Y025201*
X015843Y025211*
X015853Y025221*
X015861Y025232*
X015869Y025244*
X015876Y025256*
X015882Y025268*
X015887Y025281*
X015892Y025294*
X015895Y025308*
X015898Y025322*
X015899Y025336*
X0159Y02535*
X01492D02*
D01*
X014919Y025363*
X014918Y025377*
X014915Y025391*
X014912Y025405*
X014907Y025418*
X014902Y025431*
X014896Y025443*
X014889Y025455*
X014881Y025467*
X014873Y025478*
X014863Y025488*
X014853Y025498*
X014843Y025507*
X014831Y025515*
X01482Y025523*
X014807Y025529*
X014794Y025535*
X014781Y02554*
X014768Y025544*
X014754Y025546*
X01474Y025548*
X014726Y025549*
X014713*
X014699Y025548*
X014685Y025546*
X014671Y025544*
X014658Y02554*
X014645Y025535*
X014632Y025529*
X01462Y025523*
X014608Y025515*
X014596Y025507*
X014586Y025498*
X014576Y025488*
X014566Y025478*
X014558Y025467*
X01455Y025455*
X014543Y025443*
X014537Y025431*
X014532Y025418*
X014527Y025405*
X014524Y025391*
X014521Y025377*
X01452Y025363*
X01452Y02535*
X01452Y025336*
X014521Y025322*
X014524Y025308*
X014527Y025294*
X014532Y025281*
X014537Y025268*
X014543Y025256*
X01455Y025244*
X014558Y025232*
X014566Y025221*
X014576Y025211*
X014586Y025201*
X014596Y025192*
X014608Y025184*
X01462Y025176*
X014632Y02517*
X014645Y025164*
X014658Y025159*
X014671Y025155*
X014685Y025153*
X014699Y025151*
X014713Y02515*
X014726*
X01474Y025151*
X014754Y025153*
X014768Y025155*
X014781Y025159*
X014794Y025164*
X014807Y02517*
X01482Y025176*
X014831Y025184*
X014843Y025192*
X014853Y025201*
X014863Y025211*
X014873Y025221*
X014881Y025232*
X014889Y025244*
X014896Y025256*
X014902Y025268*
X014907Y025281*
X014912Y025294*
X014915Y025308*
X014918Y025322*
X014919Y025336*
X01492Y02535*
M02*