%FSTAX23Y23*%
%MOIN*%
%SFA1B1*%

%IPPOS*%
%ADD10R,0.080000X0.026000*%
%ADD11R,0.052000X0.060000*%
%ADD12R,0.052000X0.063000*%
%ADD13R,0.060000X0.052000*%
%ADD14R,0.063000X0.052000*%
%ADD18R,0.007900X0.031800*%
%ADD19R,0.015900X0.047600*%
%ADD20R,0.031800X0.007900*%
%ADD21R,0.047600X0.015900*%
%ADD22R,0.007900X0.031800*%
%ADD23C,0.000000*%
%ADD24C,0.003900*%
%ADD25C,0.024000*%
%ADD26C,0.006000*%
%ADD27C,0.004000*%
%ADD28R,0.010000X0.024000*%
%ADD29R,0.045000X0.020000*%
%ADD30R,0.030000X0.057500*%
%ADD31R,0.029500X0.057500*%
%ADD32R,0.014000X0.056000*%
%ADD33R,0.057500X0.030000*%
%ADD34R,0.057500X0.029500*%
%ADD35R,0.058000X0.020000*%
%ADD36R,0.030000X0.075000*%
%ADD37R,0.056000X0.014000*%
%ADD38C,0.002000*%
%LNmotor_driver-1*%
%LPD*%
G54D10*
X00601Y01525D03*
X00359D03*
X00601Y01575D03*
Y01625D03*
X00359Y01575D03*
Y01625D03*
X00601Y01675D03*
X00359D03*
X00601Y01725D03*
Y01775D03*
X00359Y01725D03*
Y01775D03*
X00601Y01825D03*
X00359D03*
X00606Y02025D03*
X00364D03*
X00606Y02075D03*
Y02125D03*
X00364Y02075D03*
Y02125D03*
X00606Y02175D03*
X00364D03*
X00606Y02225D03*
Y02275D03*
X00364Y02225D03*
Y02275D03*
X00606Y02325D03*
X00364D03*
X01428Y01665D03*
Y01715D03*
X01032Y01665D03*
Y01715D03*
X01428Y02115D03*
Y02065D03*
Y02015D03*
Y01965D03*
Y01915D03*
Y01865D03*
Y01815D03*
Y01765D03*
X01032D03*
Y01815D03*
Y01865D03*
Y01915D03*
Y01965D03*
Y02015D03*
Y02065D03*
Y02115D03*
G54D11*
X01196Y02205D03*
X01263D03*
G54D12*
X01663Y02065D03*
X01587D03*
X01673Y01865D03*
X01597D03*
G54D13*
X00915Y01719D03*
Y01651D03*
X0086Y0206D03*
Y02127D03*
G54D14*
X00715Y02007D03*
Y02082D03*
G54D18*
X0123Y02204D03*
G54D19*
X01625Y02065D03*
X01635Y01865D03*
X00334Y0091D03*
X00957Y0093D03*
G54D20*
X00914Y01685D03*
X0032Y00716D03*
X0086Y02094D03*
G54D21*
X01354Y00992D03*
X00715Y02044D03*
G54D22*
X01623Y02409D03*
G54D23*
X00731Y01223D02*
D01*
X0073Y01235*
X00729Y01246*
X00727Y01258*
X00724Y01269*
X00721Y0128*
X00716Y01291*
X00711Y01301*
X00706Y01311*
X00699Y0132*
X00692Y01329*
X00684Y01338*
X00676Y01346*
X00667Y01353*
X00658Y0136*
X00648Y01366*
X00638Y01372*
X00627Y01376*
X00617Y0138*
X00606Y01383*
X00594Y01386*
X00583Y01387*
X00571Y01388*
X0056*
X00548Y01387*
X00537Y01386*
X00526Y01383*
X00515Y0138*
X00504Y01376*
X00493Y01372*
X00483Y01366*
X00473Y0136*
X00464Y01353*
X00455Y01346*
X00447Y01338*
X00439Y01329*
X00432Y0132*
X00426Y01311*
X0042Y01301*
X00415Y01291*
X00411Y0128*
X00407Y01269*
X00404Y01258*
X00402Y01246*
X00401Y01235*
X00401Y01223*
X00401Y01212*
X00402Y012*
X00404Y01189*
X00407Y01178*
X00411Y01167*
X00415Y01156*
X0042Y01146*
X00426Y01136*
X00432Y01126*
X00439Y01117*
X00447Y01109*
X00455Y01101*
X00464Y01093*
X00473Y01087*
X00483Y01081*
X00493Y01075*
X00504Y0107*
X00515Y01066*
X00526Y01063*
X00537Y01061*
X00548Y01059*
X0056Y01059*
X00571*
X00583Y01059*
X00594Y01061*
X00606Y01063*
X00617Y01066*
X00627Y0107*
X00638Y01075*
X00648Y01081*
X00658Y01087*
X00667Y01093*
X00676Y01101*
X00684Y01109*
X00692Y01117*
X00699Y01126*
X00706Y01136*
X00711Y01146*
X00716Y01156*
X00721Y01167*
X00724Y01178*
X00727Y01189*
X00729Y012*
X0073Y01212*
X00731Y01223*
X0119D02*
D01*
X0119Y01235*
X01189Y01246*
X01187Y01258*
X01184Y01269*
X0118Y0128*
X01176Y01291*
X01171Y01301*
X01165Y01311*
X01159Y0132*
X01152Y01329*
X01144Y01338*
X01136Y01346*
X01127Y01353*
X01117Y0136*
X01108Y01366*
X01098Y01372*
X01087Y01376*
X01076Y0138*
X01065Y01383*
X01054Y01386*
X01042Y01387*
X01031Y01388*
X01019*
X01008Y01387*
X00997Y01386*
X00985Y01383*
X00974Y0138*
X00963Y01376*
X00953Y01372*
X00943Y01366*
X00933Y0136*
X00924Y01353*
X00915Y01346*
X00907Y01338*
X00899Y01329*
X00892Y0132*
X00885Y01311*
X0088Y01301*
X00874Y01291*
X0087Y0128*
X00867Y01269*
X00864Y01258*
X00862Y01246*
X00861Y01235*
X0086Y01223*
X00861Y01212*
X00862Y012*
X00864Y01189*
X00867Y01178*
X0087Y01167*
X00874Y01156*
X0088Y01146*
X00885Y01136*
X00892Y01126*
X00899Y01117*
X00907Y01109*
X00915Y01101*
X00924Y01093*
X00933Y01087*
X00943Y01081*
X00953Y01075*
X00963Y0107*
X00974Y01066*
X00985Y01063*
X00997Y01061*
X01008Y01059*
X01019Y01059*
X01031*
X01042Y01059*
X01054Y01061*
X01065Y01063*
X01076Y01066*
X01087Y0107*
X01098Y01075*
X01108Y01081*
X01117Y01087*
X01127Y01093*
X01136Y01101*
X01144Y01109*
X01152Y01117*
X01159Y01126*
X01165Y01136*
X01171Y01146*
X01176Y01156*
X0118Y01167*
X01184Y01178*
X01187Y01189*
X01189Y012*
X0119Y01212*
X0119Y01223*
X0165D02*
D01*
X01649Y01235*
X01648Y01246*
X01646Y01258*
X01644Y01269*
X0164Y0128*
X01636Y01291*
X01631Y01301*
X01625Y01311*
X01618Y0132*
X01611Y01329*
X01604Y01338*
X01595Y01346*
X01586Y01353*
X01577Y0136*
X01567Y01366*
X01557Y01372*
X01547Y01376*
X01536Y0138*
X01525Y01383*
X01514Y01386*
X01502Y01387*
X01491Y01388*
X01479*
X01468Y01387*
X01456Y01386*
X01445Y01383*
X01434Y0138*
X01423Y01376*
X01413Y01372*
X01402Y01366*
X01393Y0136*
X01383Y01353*
X01374Y01346*
X01366Y01338*
X01359Y01329*
X01351Y0132*
X01345Y01311*
X01339Y01301*
X01334Y01291*
X0133Y0128*
X01326Y01269*
X01324Y01258*
X01322Y01246*
X0132Y01235*
X0132Y01223*
X0132Y01212*
X01322Y012*
X01324Y01189*
X01326Y01178*
X0133Y01167*
X01334Y01156*
X01339Y01146*
X01345Y01136*
X01351Y01126*
X01359Y01117*
X01366Y01109*
X01374Y01101*
X01383Y01093*
X01393Y01087*
X01402Y01081*
X01413Y01075*
X01423Y0107*
X01434Y01066*
X01445Y01063*
X01456Y01061*
X01468Y01059*
X01479Y01059*
X01491*
X01502Y01059*
X01514Y01061*
X01525Y01063*
X01536Y01066*
X01547Y0107*
X01557Y01075*
X01567Y01081*
X01577Y01087*
X01586Y01093*
X01595Y01101*
X01604Y01109*
X01611Y01117*
X01618Y01126*
X01625Y01136*
X01631Y01146*
X01636Y01156*
X0164Y01167*
X01644Y01178*
X01646Y01189*
X01648Y012*
X01649Y01212*
X0165Y01223*
X0211D02*
D01*
X02109Y01235*
X02108Y01246*
X02106Y01258*
X02103Y01269*
X021Y0128*
X02095Y01291*
X0209Y01301*
X02084Y01311*
X02078Y0132*
X02071Y01329*
X02063Y01338*
X02055Y01346*
X02046Y01353*
X02037Y0136*
X02027Y01366*
X02017Y01372*
X02006Y01376*
X01995Y0138*
X01984Y01383*
X01973Y01386*
X01962Y01387*
X0195Y01388*
X01939*
X01927Y01387*
X01916Y01386*
X01905Y01383*
X01894Y0138*
X01883Y01376*
X01872Y01372*
X01862Y01366*
X01852Y0136*
X01843Y01353*
X01834Y01346*
X01826Y01338*
X01818Y01329*
X01811Y0132*
X01805Y01311*
X01799Y01301*
X01794Y01291*
X01789Y0128*
X01786Y01269*
X01783Y01258*
X01781Y01246*
X0178Y01235*
X0178Y01223*
X0178Y01212*
X01781Y012*
X01783Y01189*
X01786Y01178*
X01789Y01167*
X01794Y01156*
X01799Y01146*
X01805Y01136*
X01811Y01126*
X01818Y01117*
X01826Y01109*
X01834Y01101*
X01843Y01093*
X01852Y01087*
X01862Y01081*
X01872Y01075*
X01883Y0107*
X01894Y01066*
X01905Y01063*
X01916Y01061*
X01927Y01059*
X01939Y01059*
X0195*
X01962Y01059*
X01973Y01061*
X01984Y01063*
X01995Y01066*
X02006Y0107*
X02017Y01075*
X02027Y01081*
X02037Y01087*
X02046Y01093*
X02055Y01101*
X02063Y01109*
X02071Y01117*
X02078Y01126*
X02084Y01136*
X0209Y01146*
X02095Y01156*
X021Y01167*
X02103Y01178*
X02106Y01189*
X02108Y012*
X02109Y01212*
X0211Y01223*
X00731D02*
D01*
X0073Y01235*
X00729Y01246*
X00727Y01258*
X00724Y01269*
X00721Y0128*
X00716Y01291*
X00711Y01301*
X00706Y01311*
X00699Y0132*
X00692Y01329*
X00684Y01338*
X00676Y01346*
X00667Y01353*
X00658Y0136*
X00648Y01366*
X00638Y01372*
X00627Y01376*
X00617Y0138*
X00606Y01383*
X00594Y01386*
X00583Y01387*
X00571Y01388*
X0056*
X00548Y01387*
X00537Y01386*
X00526Y01383*
X00515Y0138*
X00504Y01376*
X00493Y01372*
X00483Y01366*
X00473Y0136*
X00464Y01353*
X00455Y01346*
X00447Y01338*
X00439Y01329*
X00432Y0132*
X00426Y01311*
X0042Y01301*
X00415Y01291*
X00411Y0128*
X00407Y01269*
X00404Y01258*
X00402Y01246*
X00401Y01235*
X00401Y01223*
X00401Y01212*
X00402Y012*
X00404Y01189*
X00407Y01178*
X00411Y01167*
X00415Y01156*
X0042Y01146*
X00426Y01136*
X00432Y01126*
X00439Y01117*
X00447Y01109*
X00455Y01101*
X00464Y01093*
X00473Y01087*
X00483Y01081*
X00493Y01075*
X00504Y0107*
X00515Y01066*
X00526Y01063*
X00537Y01061*
X00548Y01059*
X0056Y01059*
X00571*
X00583Y01059*
X00594Y01061*
X00606Y01063*
X00617Y01066*
X00627Y0107*
X00638Y01075*
X00648Y01081*
X00658Y01087*
X00667Y01093*
X00676Y01101*
X00684Y01109*
X00692Y01117*
X00699Y01126*
X00706Y01136*
X00711Y01146*
X00716Y01156*
X00721Y01167*
X00724Y01178*
X00727Y01189*
X00729Y012*
X0073Y01212*
X00731Y01223*
X0119D02*
D01*
X0119Y01235*
X01189Y01246*
X01187Y01258*
X01184Y01269*
X0118Y0128*
X01176Y01291*
X01171Y01301*
X01165Y01311*
X01159Y0132*
X01152Y01329*
X01144Y01338*
X01136Y01346*
X01127Y01353*
X01117Y0136*
X01108Y01366*
X01098Y01372*
X01087Y01376*
X01076Y0138*
X01065Y01383*
X01054Y01386*
X01042Y01387*
X01031Y01388*
X01019*
X01008Y01387*
X00997Y01386*
X00985Y01383*
X00974Y0138*
X00963Y01376*
X00953Y01372*
X00943Y01366*
X00933Y0136*
X00924Y01353*
X00915Y01346*
X00907Y01338*
X00899Y01329*
X00892Y0132*
X00885Y01311*
X0088Y01301*
X00874Y01291*
X0087Y0128*
X00867Y01269*
X00864Y01258*
X00862Y01246*
X00861Y01235*
X0086Y01223*
X00861Y01212*
X00862Y012*
X00864Y01189*
X00867Y01178*
X0087Y01167*
X00874Y01156*
X0088Y01146*
X00885Y01136*
X00892Y01126*
X00899Y01117*
X00907Y01109*
X00915Y01101*
X00924Y01093*
X00933Y01087*
X00943Y01081*
X00953Y01075*
X00963Y0107*
X00974Y01066*
X00985Y01063*
X00997Y01061*
X01008Y01059*
X01019Y01059*
X01031*
X01042Y01059*
X01054Y01061*
X01065Y01063*
X01076Y01066*
X01087Y0107*
X01098Y01075*
X01108Y01081*
X01117Y01087*
X01127Y01093*
X01136Y01101*
X01144Y01109*
X01152Y01117*
X01159Y01126*
X01165Y01136*
X01171Y01146*
X01176Y01156*
X0118Y01167*
X01184Y01178*
X01187Y01189*
X01189Y012*
X0119Y01212*
X0119Y01223*
X0165D02*
D01*
X01649Y01235*
X01648Y01246*
X01646Y01258*
X01644Y01269*
X0164Y0128*
X01636Y01291*
X01631Y01301*
X01625Y01311*
X01618Y0132*
X01611Y01329*
X01604Y01338*
X01595Y01346*
X01586Y01353*
X01577Y0136*
X01567Y01366*
X01557Y01372*
X01547Y01376*
X01536Y0138*
X01525Y01383*
X01514Y01386*
X01502Y01387*
X01491Y01388*
X01479*
X01468Y01387*
X01456Y01386*
X01445Y01383*
X01434Y0138*
X01423Y01376*
X01413Y01372*
X01402Y01366*
X01393Y0136*
X01383Y01353*
X01374Y01346*
X01366Y01338*
X01359Y01329*
X01351Y0132*
X01345Y01311*
X01339Y01301*
X01334Y01291*
X0133Y0128*
X01326Y01269*
X01324Y01258*
X01322Y01246*
X0132Y01235*
X0132Y01223*
X0132Y01212*
X01322Y012*
X01324Y01189*
X01326Y01178*
X0133Y01167*
X01334Y01156*
X01339Y01146*
X01345Y01136*
X01351Y01126*
X01359Y01117*
X01366Y01109*
X01374Y01101*
X01383Y01093*
X01393Y01087*
X01402Y01081*
X01413Y01075*
X01423Y0107*
X01434Y01066*
X01445Y01063*
X01456Y01061*
X01468Y01059*
X01479Y01059*
X01491*
X01502Y01059*
X01514Y01061*
X01525Y01063*
X01536Y01066*
X01547Y0107*
X01557Y01075*
X01567Y01081*
X01577Y01087*
X01586Y01093*
X01595Y01101*
X01604Y01109*
X01611Y01117*
X01618Y01126*
X01625Y01136*
X01631Y01146*
X01636Y01156*
X0164Y01167*
X01644Y01178*
X01646Y01189*
X01648Y012*
X01649Y01212*
X0165Y01223*
X0211D02*
D01*
X02109Y01235*
X02108Y01246*
X02106Y01258*
X02103Y01269*
X021Y0128*
X02095Y01291*
X0209Y01301*
X02084Y01311*
X02078Y0132*
X02071Y01329*
X02063Y01338*
X02055Y01346*
X02046Y01353*
X02037Y0136*
X02027Y01366*
X02017Y01372*
X02006Y01376*
X01995Y0138*
X01984Y01383*
X01973Y01386*
X01962Y01387*
X0195Y01388*
X01939*
X01927Y01387*
X01916Y01386*
X01905Y01383*
X01894Y0138*
X01883Y01376*
X01872Y01372*
X01862Y01366*
X01852Y0136*
X01843Y01353*
X01834Y01346*
X01826Y01338*
X01818Y01329*
X01811Y0132*
X01805Y01311*
X01799Y01301*
X01794Y01291*
X01789Y0128*
X01786Y01269*
X01783Y01258*
X01781Y01246*
X0178Y01235*
X0178Y01223*
X0178Y01212*
X01781Y012*
X01783Y01189*
X01786Y01178*
X01789Y01167*
X01794Y01156*
X01799Y01146*
X01805Y01136*
X01811Y01126*
X01818Y01117*
X01826Y01109*
X01834Y01101*
X01843Y01093*
X01852Y01087*
X01862Y01081*
X01872Y01075*
X01883Y0107*
X01894Y01066*
X01905Y01063*
X01916Y01061*
X01927Y01059*
X01939Y01059*
X0195*
X01962Y01059*
X01973Y01061*
X01984Y01063*
X01995Y01066*
X02006Y0107*
X02017Y01075*
X02027Y01081*
X02037Y01087*
X02046Y01093*
X02055Y01101*
X02063Y01109*
X02071Y01117*
X02078Y01126*
X02084Y01136*
X0209Y01146*
X02095Y01156*
X021Y01167*
X02103Y01178*
X02106Y01189*
X02108Y012*
X02109Y01212*
X0211Y01223*
G54D24*
X01931Y00848D02*
X02018D01*
X01931Y00791D02*
X02018D01*
Y00848*
X01931Y00791D02*
Y00848D01*
X01471Y00873D02*
X01558D01*
X01471Y00816D02*
X01558D01*
Y00873*
X01471Y00816D02*
Y00873D01*
X00596Y00771D02*
X00682D01*
X00596Y00828D02*
X00682D01*
X00596Y00771D02*
Y00828D01*
X00682Y00771D02*
Y00828D01*
X01975Y008D02*
Y00839D01*
X01955Y0082D02*
X01994D01*
X01919Y00851D02*
X0203D01*
X01919Y00788D02*
X0203D01*
Y00851*
X01919Y00788D02*
Y00851D01*
X01515Y00825D02*
Y00864D01*
X01495Y00845D02*
X01534D01*
X01459Y00876D02*
X0157D01*
X01459Y00813D02*
X0157D01*
Y00876*
X01459Y00813D02*
Y00876D01*
X00639Y0078D02*
Y00819D01*
X00619Y008D02*
X00659D01*
X00584Y00768D02*
X00694D01*
X00584Y00831D02*
X00694D01*
X00584Y00768D02*
Y00831D01*
X00694Y00768D02*
Y00831D01*
G54D25*
X00785Y0232D02*
X008D01*
X0107D02*
X01085D01*
X0136Y023D02*
X01375D01*
X01645D02*
X0166D01*
G54D26*
X0081Y02285D02*
Y02355D01*
X0106Y02285D02*
Y02355D01*
X01385Y02265D02*
Y02335D01*
X01635Y02265D02*
Y02335D01*
X01597Y0204D02*
X01653D01*
X01597Y0209D02*
X01653D01*
X01607Y0184D02*
X01663D01*
X01607Y0189D02*
X01663D01*
X0138Y00965D02*
Y01021D01*
X0133Y00965D02*
Y01021D01*
X00307Y00885D02*
X00363D01*
X00307Y00935D02*
X00363D01*
X0093Y00905D02*
X00986D01*
X0093Y00955D02*
X00986D01*
X01555Y0255D02*
X01585D01*
X01555Y0252D02*
X01585Y0255D01*
X01555D02*
X01585Y0252D01*
X01555D02*
Y0255D01*
Y0252D02*
X01585D01*
Y0255*
X01457D02*
X01487D01*
X01457Y0252D02*
X01487Y0255D01*
X01457D02*
X01487Y0252D01*
X01457D02*
Y0255D01*
Y0252D02*
X01487D01*
Y0255*
X01752D02*
X01782Y0252D01*
X01752D02*
X01782Y0255D01*
X01752D02*
X01782D01*
Y0252D02*
Y0255D01*
X01752Y0252D02*
X01782D01*
X01752D02*
Y0255D01*
X01653Y0252D02*
X01683Y0255D01*
X01653D02*
X01683Y0252D01*
Y0255*
X01653Y0252D02*
X01683D01*
X01653D02*
Y0255D01*
X01683*
X0069Y02017D02*
Y02073D01*
X0074Y02017D02*
Y02073D01*
X00545Y0255D02*
X00575D01*
X00545Y0252D02*
X00575Y0255D01*
X00545D02*
X00575Y0252D01*
X00545D02*
Y0255D01*
Y0252D02*
X00575D01*
Y0255*
X00447D02*
X00477D01*
X00447Y0252D02*
X00477Y0255D01*
X00447D02*
X00477Y0252D01*
X00447D02*
Y0255D01*
Y0252D02*
X00477D01*
Y0255*
X00743D02*
X00773Y0252D01*
X00743D02*
X00773Y0255D01*
X00743D02*
X00773D01*
Y0252D02*
Y0255D01*
X00743Y0252D02*
X00773D01*
X00743D02*
Y0255D01*
X00644Y0252D02*
X00674Y0255D01*
X00644D02*
X00674Y0252D01*
Y0255*
X00644Y0252D02*
X00674D01*
X00644D02*
Y0255D01*
X00674*
G54D27*
X01215Y02231D02*
X01244D01*
X01215Y02179D02*
X01245D01*
X00941Y01671D02*
Y017D01*
X00889Y0167D02*
Y017D01*
X00294Y00702D02*
Y00731D01*
X00346Y00701D02*
Y00731D01*
X00935Y00173D02*
X01011Y00249D01*
X00916Y00193D02*
X00991Y00269D01*
X00797Y00173D02*
X00873Y00249D01*
X00777Y00193D02*
X00853Y00269D01*
X00659Y00173D02*
X00734Y00249D01*
X00639Y00193D02*
X00715Y00269D01*
X01815Y00173D02*
X01891Y00249D01*
X01796Y00193D02*
X01871Y00269D01*
X01677Y00173D02*
X01753Y00249D01*
X01657Y00193D02*
X01733Y00269D01*
X01539Y00173D02*
X01614Y00249D01*
X01519Y00193D02*
X01595Y00269D01*
X00161Y01237D02*
X00236Y01161D01*
X00141Y01217D02*
X00216Y01142D01*
X00161Y01098D02*
X00236Y01023D01*
X00141Y01079D02*
X00216Y01003D01*
X00161Y00817D02*
X00236Y00741D01*
X00141Y00797D02*
X00216Y00722D01*
X00161Y00678D02*
X00236Y00603D01*
X00141Y00659D02*
X00216Y00583D01*
X00834Y02079D02*
Y02108D01*
X00886Y02079D02*
Y02109D01*
X01609Y02436D02*
X01638D01*
X01608Y02384D02*
X01638D01*
G54D28*
X00805Y0232D03*
X01065D03*
X0138Y023D03*
X0164D03*
G54D29*
X0038Y01525D03*
Y01575D03*
Y01625D03*
X00579Y01525D03*
Y01575D03*
Y01625D03*
Y01825D03*
Y01775D03*
Y01725D03*
X0038Y01675D03*
X00381Y01725D03*
X0038Y01775D03*
Y01825D03*
X00579Y01675D03*
X00385Y02025D03*
Y02075D03*
Y02125D03*
X00584Y02025D03*
Y02075D03*
Y02125D03*
Y02325D03*
Y02275D03*
Y02225D03*
X00385Y02175D03*
X00386Y02225D03*
X00385Y02275D03*
Y02325D03*
X00584Y02175D03*
G54D30*
X01201Y02204D03*
X01652Y02409D03*
G54D31*
X01258Y02204D03*
X01595Y02409D03*
G54D32*
X01659Y02065D03*
X01591D03*
X01669Y01865D03*
X01601D03*
X00301Y0091D03*
X00369D03*
X00924Y0093D03*
X00992D03*
G54D33*
X00914Y01714D03*
X0032Y00745D03*
X0086Y02065D03*
G54D34*
X00914Y01656D03*
X0032Y00687D03*
X0086Y02122D03*
G54D35*
X01049Y01665D03*
Y01715D03*
X01411Y01665D03*
Y01715D03*
Y01765D03*
Y01815D03*
Y01865D03*
Y01915D03*
Y01965D03*
Y02015D03*
Y02065D03*
Y02115D03*
X01049Y01765D03*
Y01815D03*
Y01865D03*
Y01915D03*
Y01965D03*
Y02015D03*
Y02065D03*
Y02115D03*
G54D36*
X00666Y00561D03*
X00566D03*
X00466D03*
X01125D03*
X01025D03*
X00925D03*
X01585D03*
X01485D03*
X01385D03*
X02045D03*
X01945D03*
X01845D03*
G54D37*
X01355Y00959D03*
Y01027D03*
X00715Y02011D03*
Y02079D03*
G54D38*
X01152Y02166D02*
Y02243D01*
X01307Y02166D02*
Y02243D01*
X01152D02*
X01307D01*
X01152Y02166D02*
X01307D01*
X01703Y02026D02*
Y02104D01*
X01547Y02026D02*
Y02104D01*
Y02026D02*
X01703D01*
X01547Y02104D02*
X01703D01*
X01713Y01826D02*
Y01904D01*
X01557Y01826D02*
Y01904D01*
Y01826D02*
X01713D01*
X01557Y01904D02*
X01713D01*
X00876Y01763D02*
X00953D01*
X00876Y01607D02*
X00953D01*
Y01763*
X00876Y01607D02*
Y01763D01*
X01316Y00915D02*
X01393D01*
X01316Y0107D02*
X01393D01*
Y00915D02*
Y0107D01*
X01316Y00915D02*
Y0107D01*
X00257Y00871D02*
Y00949D01*
X00412Y00871D02*
Y00949D01*
X00257Y00871D02*
X00412D01*
X00257Y00949D02*
X00412D01*
X00281Y00794D02*
X00359D01*
X00281Y00638D02*
X00359D01*
X00281D02*
Y00794D01*
X00359Y00638D02*
Y00794D01*
X0088Y00891D02*
Y00969D01*
X01035Y00891D02*
Y00969D01*
X0088Y00891D02*
X01035D01*
X0088Y00969D02*
X01035D01*
X00821Y02016D02*
X00899D01*
X00821Y02171D02*
X00899D01*
X00821Y02016D02*
Y02171D01*
X00899Y02016D02*
Y02171D01*
X00676Y01967D02*
X00754D01*
X00676Y02122D02*
X00754D01*
X00676Y01967D02*
Y02122D01*
X00754Y01967D02*
Y02122D01*
X01701Y02371D02*
Y02448D01*
X01545Y02371D02*
Y02448D01*
X01701*
X01545Y02371D02*
X01701D01*
M02*