%FSTAX24Y24*%
%MOIN*%
%SFA1B1*%

%IPPOS*%
%AMD44*
4,1,8,-0.012000,-0.024000,0.012000,-0.024000,0.024000,-0.012000,0.024000,0.012000,0.012000,0.024000,-0.012000,0.024000,-0.024000,0.012000,-0.024000,-0.012000,-0.012000,-0.024000,0.0*
%
%ADD10R,0.063000X0.052000*%
%ADD11R,0.060000X0.052000*%
%ADD13R,0.052000X0.063000*%
%ADD14R,0.052000X0.060000*%
%ADD15C,0.035000*%
%ADD16C,0.060000*%
%ADD17C,0.070000*%
%ADD18R,0.007900X0.031800*%
%ADD19R,0.047600X0.015900*%
%ADD20R,0.031800X0.007900*%
%ADD21R,0.015900X0.047600*%
%ADD22R,0.007900X0.031800*%
%ADD23C,0.000000*%
%ADD24C,0.003900*%
%ADD25C,0.004000*%
%ADD26C,0.006000*%
%ADD27C,0.024000*%
%ADD28R,0.029500X0.057500*%
%ADD29R,0.030000X0.057500*%
%ADD30R,0.056000X0.014000*%
%ADD31R,0.057500X0.029500*%
%ADD32R,0.057500X0.030000*%
%ADD33R,0.030000X0.075000*%
%ADD34R,0.014000X0.056000*%
%ADD35R,0.058000X0.020000*%
%ADD36R,0.010000X0.024000*%
%ADD37R,0.045000X0.020000*%
%ADD38C,0.002000*%
%ADD39R,0.150000X0.150000*%
%ADD40O,0.060000X0.120000*%
%ADD41C,0.067000*%
%ADD42O,0.066000X0.132000*%
%ADD43C,0.130000*%
G04~CAMADD=44~4~0.0~0.0~480.0~480.0~0.0~120.0~0~0.0~0.0~0.0~0.0~0~0.0~0.0~0.0~0.0~0~0.0~0.0~0.0~180.0~480.0~480.0*
%ADD44D44*%
%ADD45C,0.050000*%
%ADD46R,0.043300X0.055100*%
%ADD47C,0.065000*%
%LNmotor_driver-1*%
%LPD*%
G36*
X0219Y01475D02*
D01*
X020779*
Y02555*
X02135*
Y02715*
X01975*
Y02555*
X020321*
Y01475*
X017379*
Y0172*
X017362Y017288*
X017312Y017362*
X017031Y017643*
X017013Y017737*
X016946Y017836*
X016847Y017903*
X01673Y017926*
X016613Y017903*
X016529Y017847*
X016458Y017865*
X016379Y017905*
Y021355*
X016762Y021738*
X016812Y021812*
X016829Y0219*
Y022794*
X01689Y022855*
Y023145*
X016745Y02329*
X016455*
X01631Y023145*
Y022855*
X016371Y022794*
Y021995*
X015988Y021612*
X015938Y021538*
X015921Y02145*
Y017097*
X015867Y017017*
X015844Y0169*
X015867Y016783*
X015921Y016703*
Y01475*
X015529*
Y019653*
X015583Y019733*
X015606Y01985*
X015583Y019967*
X015516Y020066*
X015417Y020133*
X0153Y020156*
X015183Y020133*
X015084Y020066*
X015017Y019967*
X014994Y01985*
X015017Y019733*
X015071Y019653*
Y014845*
X014976Y01475*
X01082*
X010763Y014889*
X012462Y016588*
X012512Y016662*
X012529Y01675*
Y017453*
X012583Y017533*
X012606Y01765*
X012583Y017767*
X012516Y017866*
X012417Y017933*
X0123Y017956*
X012183Y017933*
X012084Y017866*
X012017Y017767*
X011994Y01765*
X012017Y017533*
X012071Y017453*
Y016845*
X009976Y01475*
X00787*
X007813Y014889*
X010895Y017971*
X011303*
X011383Y017917*
X0115Y017894*
X011617Y017917*
X011716Y017984*
X011783Y018083*
X011806Y0182*
X011783Y018317*
X011716Y018416*
X011617Y018483*
X0115Y018506*
X011383Y018483*
X011303Y018429*
X010916*
X010854Y018579*
X011195Y018921*
X013053*
X013133Y018867*
X01325Y018844*
X013367Y018867*
X013466Y018934*
X013533Y019033*
X013556Y01915*
X013533Y019267*
X013466Y019366*
X013367Y019433*
X01325Y019456*
X013133Y019433*
X013053Y019379*
X0111*
X011012Y019362*
X010938Y019312*
X009105Y017479*
X008705*
X00866Y017629*
X008666Y017634*
X008733Y017733*
X008756Y01785*
X008733Y017967*
X008666Y018066*
X008567Y018133*
X00845Y018156*
X008333Y018133*
X008253Y018079*
X0051*
X005012Y018062*
X004938Y018012*
X004629Y017704*
X004479Y017766*
Y018055*
X004845Y018421*
X009303*
X009383Y018367*
X0095Y018344*
X009617Y018367*
X009716Y018434*
X009783Y018533*
X009806Y01865*
X009783Y018767*
X009716Y018866*
X009617Y018933*
X0095Y018956*
X009383Y018933*
X009303Y018879*
X00475*
X004662Y018862*
X004588Y018812*
X004088Y018312*
X004038Y018238*
X004021Y01815*
Y017479*
X002897*
X002817Y017533*
X0027Y017556*
X002583Y017533*
X002484Y017466*
X002417Y017367*
X002394Y01725*
X002417Y017133*
X002484Y017034*
X002583Y016967*
X0027Y016944*
X002817Y016967*
X002897Y017021*
X00425*
X004321Y017035*
X004356Y017025*
X004471Y016946*
Y015661*
X004189Y015379*
X00285*
X002833Y015467*
X002766Y015566*
X002667Y015633*
X00255Y015656*
X002433Y015633*
X002334Y015566*
X002267Y015467*
X002244Y01535*
X002267Y015233*
X002334Y015134*
X002433Y015067*
X002485Y015057*
X002539Y014979*
X002464Y014829*
X002395*
X001329Y015895*
Y01625*
X001359Y016275*
X001534Y016284*
X001633Y016217*
X00175Y016194*
X001867Y016217*
X001966Y016284*
X002033Y016383*
X002056Y0165*
X002033Y016617*
X001979Y016697*
Y0187*
X002009Y018725*
X002184Y018734*
X002283Y018667*
X0024Y018644*
X002517Y018667*
X002616Y018734*
X002683Y018833*
X002706Y01895*
X002683Y019067*
X002616Y019166*
X002529Y019224*
Y019494*
X002679Y019605*
X002694Y0196*
X002717Y019483*
X002784Y019384*
X002883Y019317*
X003Y019294*
X003117Y019317*
X003216Y019384*
X003283Y019483*
X003306Y0196*
X003283Y019717*
X003216Y019816*
X003129Y019874*
Y021553*
X003183Y021633*
X003206Y02175*
X003183Y021867*
X003116Y021966*
X003017Y022033*
X0029Y022056*
X002783Y022033*
X002684Y021966*
X002679Y02196*
X002529Y022005*
Y022205*
X002773Y022449*
X002867Y022467*
X002966Y022534*
X003033Y022633*
X003056Y02275*
X003033Y022867*
X002966Y022966*
X002867Y023033*
X00275Y023056*
X002633Y023033*
X002534Y022966*
X002467Y022867*
X002449Y022773*
X002138Y022462*
X002129Y02245*
X001979Y022495*
Y023755*
X002367Y024143*
X00365*
X003738Y02416*
X003812Y02421*
X00439Y024788*
X004491Y02472*
X004628Y024693*
X004726Y024713*
X004809Y024583*
X004338Y024112*
X004288Y024038*
X004271Y02395*
Y019795*
X004027Y019551*
X003933Y019533*
X003834Y019466*
X003767Y019367*
X003744Y01925*
X003767Y019133*
X003834Y019034*
X003933Y018967*
X00405Y018944*
X004167Y018967*
X004266Y019034*
X004333Y019133*
X004351Y019227*
X004662Y019538*
X004712Y019612*
X004729Y0197*
Y023855*
X005574Y0247*
X005608Y024693*
X005744Y02472*
X00586Y024798*
X005938Y024913*
X005965Y02505*
Y02565*
X005938Y025787*
X00586Y025902*
X005744Y02598*
X005608Y026007*
X005471Y02598*
X005356Y025902*
X005278Y025787*
X005251Y02565*
Y02505*
X005255Y02503*
X005095Y024869*
X004965Y024952*
X004985Y02505*
Y02565*
X004958Y025787*
X00488Y025902*
X004764Y02598*
X004628Y026007*
X004491Y02598*
X004376Y025902*
X004298Y025787*
X004271Y02565*
Y025318*
X003555Y024602*
X002388*
X002326Y024752*
X003845Y026271*
X006055*
X006285Y026041*
X006348Y025902*
X00627Y025787*
X006243Y02565*
Y02505*
X00627Y024913*
X006348Y024798*
X006463Y02472*
X0066Y024693*
X006737Y02472*
X006852Y024798*
X00693Y024913*
X006957Y02505*
Y02565*
X00693Y025787*
X006852Y025902*
X006829Y025918*
Y02605*
X006812Y026138*
X006762Y026212*
X006312Y026662*
X006238Y026712*
X00615Y026729*
X00375*
X003662Y026712*
X003588Y026662*
X002432Y025506*
X002343Y02556*
X002339Y025563*
X002323Y025573*
X002309Y025581*
X0023Y025587*
Y025591*
Y025611*
Y025685*
Y025695*
Y02715*
X0007*
Y02555*
X002155*
X002165*
X002239*
X002259*
X002263*
X002269Y025541*
X002277Y025527*
X002287Y025511*
X00229Y025506*
X002344Y025418*
X000938Y024012*
X000888Y023938*
X000871Y02385*
Y0158*
X000888Y015712*
X000938Y015638*
X001687Y014889*
X00163Y01475*
X000106*
X0Y014856*
Y02815*
X0219*
Y01475*
G37*
G36*
X02185Y014D02*
X0219Y01395D01*
Y0*
X000071*
X0Y000071*
Y01405*
X007871*
Y009504*
X006692Y008326*
X006517*
X006496*
X006417Y008376*
X006375*
X006345*
X00615*
Y008*
Y007624*
X006345*
X00638*
X006417*
X006461Y007543*
Y005995*
X00639Y00594*
X006329Y005861*
X00629Y005768*
X006277Y005669*
Y005009*
X00629Y00491*
X006329Y004817*
X00639Y004738*
X006469Y004677*
X006561Y004639*
X006661Y004626*
X00676Y004639*
X006852Y004677*
X006932Y004738*
X006993Y004817*
X007031Y00491*
X007044Y005009*
Y005669*
X007031Y005768*
X006993Y005861*
X006932Y00594*
X00692Y005949*
Y007674*
X006957*
Y007942*
X008262Y009247*
X008312Y009322*
X008329Y009409*
Y01117*
X008429Y0112*
X008438Y011188*
X009725Y009901*
Y009665*
X009644*
Y008935*
X010264*
Y009665*
X010183*
Y009996*
X010166Y010084*
X010116Y010158*
X008829Y011445*
Y012955*
X009924Y01405*
X014145*
X014183Y013958*
X013388Y013162*
X013338Y013088*
X013321Y013*
Y010614*
X013185*
Y009994*
X013915*
Y010614*
X013779*
Y012905*
X014924Y01405*
X016921*
Y01165*
X016938Y011562*
X016988Y011488*
X018221Y010255*
Y005972*
X018179Y00594*
X018118Y005861*
X01808Y005768*
X018067Y005669*
Y005009*
X01808Y00491*
X018118Y004817*
X018179Y004738*
X018258Y004677*
X018351Y004639*
X01845Y004626*
X018549Y004639*
X018642Y004677*
X018721Y004738*
X018782Y004817*
X01882Y00491*
X018833Y005009*
Y005669*
X01882Y005768*
X018782Y005861*
X018721Y00594*
X018679Y005972*
Y01035*
X018662Y010438*
X018612Y010512*
X017379Y011745*
Y01405*
X0218*
X02185Y014*
G37*
%LNmotor_driver-2*%
%LPC*%
G36*
X01225Y003196D02*
Y0029D01*
X012546*
X012541Y002941*
X012506Y003027*
X01245Y0031*
X012377Y003156*
X012291Y003191*
X01225Y003196*
G37*
G36*
X01215D02*
X012109Y003191D01*
X012023Y003156*
X01195Y0031*
X011894Y003027*
X011859Y002941*
X011854Y0029*
X01215*
Y003196*
G37*
G36*
X003496Y0042D02*
X0032D01*
Y003904*
X003241Y003909*
X003327Y003944*
X0034Y004*
X003456Y004073*
X003491Y004159*
X003496Y0042*
G37*
G36*
X0031D02*
X002804D01*
X002809Y004159*
X002844Y004073*
X0029Y004*
X002973Y003944*
X003059Y003909*
X0031Y003904*
Y0042*
G37*
G36*
X02015Y003046D02*
Y00275D01*
X020446*
X020441Y002791*
X020406Y002877*
X02035Y00295*
X020277Y003006*
X020191Y003041*
X02015Y003046*
G37*
G36*
X012546Y0028D02*
X01225D01*
Y002504*
X012291Y002509*
X012377Y002544*
X01245Y0026*
X012506Y002673*
X012541Y002759*
X012546Y0028*
G37*
G36*
X01215D02*
X011854D01*
X011859Y002759*
X011894Y002673*
X01195Y0026*
X012023Y002544*
X012109Y002509*
X01215Y002504*
Y0028*
G37*
G36*
X020446Y00265D02*
X02015D01*
Y002354*
X020191Y002359*
X020277Y002394*
X02035Y00245*
X020406Y002523*
X020441Y002609*
X020446Y00265*
G37*
G36*
X02005Y003046D02*
X020009Y003041D01*
X019923Y003006*
X01985Y00295*
X019794Y002877*
X019759Y002791*
X019754Y00275*
X02005*
Y003046*
G37*
G36*
X0031Y004596D02*
X003059Y004591D01*
X002973Y004556*
X0029Y0045*
X002844Y004427*
X002809Y004341*
X002804Y0043*
X0031*
Y004596*
G37*
G36*
X010257Y006052D02*
X010158Y006039D01*
X010065Y006001*
X009986Y00594*
X009925Y005861*
X009887Y005768*
X009874Y005669*
Y005009*
X009887Y00491*
X009925Y004817*
X009986Y004738*
X010065Y004677*
X010158Y004639*
X010257Y004626*
X010356Y004639*
X010449Y004677*
X010528Y004738*
X010589Y004817*
X010627Y00491*
X01064Y005009*
Y005669*
X010627Y005768*
X010589Y005861*
X010528Y00594*
X010449Y006001*
X010356Y006039*
X010257Y006052*
G37*
G36*
X00951Y009665D02*
X00889D01*
Y008935*
X008971*
Y00592*
X008925Y005861*
X008887Y005768*
X008874Y005669*
Y005009*
X008887Y00491*
X008925Y004817*
X008986Y004738*
X009065Y004677*
X009158Y004639*
X009257Y004626*
X009356Y004639*
X009449Y004677*
X009528Y004738*
X009589Y004817*
X009627Y00491*
X00964Y005009*
Y005669*
X009627Y005768*
X009589Y005861*
X009528Y00594*
X009449Y006001*
X009429Y006009*
Y008935*
X00951*
Y009665*
G37*
G36*
X013915Y00986D02*
X013185D01*
Y00924*
X013536*
X013624Y009151*
Y005972*
X013583Y00594*
X013522Y005861*
X013483Y005768*
X01347Y005669*
Y005009*
X013483Y00491*
X013522Y004817*
X013583Y004738*
X013662Y004677*
X013754Y004639*
X013854Y004626*
X013953Y004639*
X014045Y004677*
X014125Y004738*
X014185Y004817*
X014224Y00491*
X014237Y005009*
Y005669*
X014224Y005768*
X014185Y005861*
X014125Y00594*
X014083Y005972*
Y009246*
X014065Y009334*
X014016Y009409*
X013915Y009509*
Y00986*
G37*
G36*
X015854Y006052D02*
X015754Y006039D01*
X015662Y006001*
X015583Y00594*
X015522Y005861*
X015483Y005768*
X01547Y005669*
Y005009*
X015483Y00491*
X015522Y004817*
X015583Y004738*
X015662Y004677*
X015754Y004639*
X015854Y004626*
X015953Y004639*
X016045Y004677*
X016125Y004738*
X016185Y004817*
X016224Y00491*
X016237Y005009*
Y005669*
X016224Y005768*
X016185Y005861*
X016125Y00594*
X016045Y006001*
X015953Y006039*
X015854Y006052*
G37*
G36*
X01485Y009753D02*
X014772Y009742D01*
X014699Y009712*
X014636Y009664*
X014588Y009601*
X014558Y009528*
X014547Y00945*
X014558Y009372*
X014588Y009299*
X014625Y00925*
Y008776*
X014588*
Y008124*
X014625*
Y005973*
X014583Y00594*
X014522Y005861*
X014483Y005768*
X01447Y005669*
Y005009*
X014483Y00491*
X014522Y004817*
X014583Y004738*
X014662Y004677*
X014754Y004639*
X014854Y004626*
X014953Y004639*
X015045Y004677*
X015125Y004738*
X015185Y004817*
X015224Y00491*
X015237Y005009*
Y005669*
X015224Y005768*
X015185Y005861*
X015125Y00594*
X015084Y005971*
Y007993*
X015129Y008074*
X015165*
X015201*
X015395*
Y00845*
Y008826*
X015201*
X015165*
X015129*
X015084Y008907*
Y009262*
X015112Y009299*
X015142Y009372*
X015153Y00945*
X015142Y009528*
X015112Y009601*
X015064Y009664*
X015001Y009712*
X014928Y009742*
X01485Y009753*
G37*
G36*
X011207Y005289D02*
X010823D01*
Y005009*
X010838Y004897*
X010881Y004792*
X01095Y004702*
X01104Y004633*
X011145Y00459*
X011207Y004582*
Y005289*
G37*
G36*
X0032Y004596D02*
Y0043D01*
X003496*
X003491Y004341*
X003456Y004427*
X0034Y0045*
X003327Y004556*
X003241Y004591*
X0032Y004596*
G37*
G36*
X011691Y005289D02*
X011307D01*
Y004582*
X011369Y00459*
X011474Y004633*
X011564Y004702*
X011633Y004792*
X011676Y004897*
X011691Y005009*
Y005289*
G37*
G36*
X020884D02*
X0205D01*
Y004582*
X020562Y00459*
X020667Y004633*
X020757Y004702*
X020826Y004792*
X020869Y004897*
X020884Y005009*
Y005289*
G37*
G36*
X0204D02*
X020016D01*
Y005009*
X020031Y004897*
X020074Y004792*
X020143Y004702*
X020233Y004633*
X020338Y00459*
X0204Y004582*
Y005289*
G37*
G36*
X02055Y00195D02*
X01975D01*
Y00115*
X02055*
Y00195*
G37*
G36*
X00235D02*
X00155D01*
Y00115*
X00235*
Y00195*
G37*
G36*
X02145D02*
X02065D01*
Y00115*
X02145*
Y00195*
G37*
G36*
X010062Y002161D02*
X00968D01*
Y001778*
X009744Y001787*
X009849Y001831*
X00994Y0019*
X01001Y001991*
X010054Y002097*
X010062Y002161*
G37*
G36*
X00958D02*
X009198D01*
X009206Y002097*
X00925Y001991*
X00932Y0019*
X009411Y001831*
X009516Y001787*
X00958Y001778*
Y002161*
G37*
G36*
X00235Y00105D02*
X00155D01*
Y00025*
X00235*
Y00105*
G37*
G36*
X00145D02*
X00065D01*
Y00025*
X00145*
Y00105*
G37*
G36*
X02055D02*
X01975D01*
Y00025*
X02055*
Y00105*
G37*
G36*
X00145Y00195D02*
X00065D01*
Y00115*
X00145*
Y00195*
G37*
G36*
X02145Y00105D02*
X02065D01*
Y00025*
X02145*
Y00105*
G37*
G36*
X01838Y002161D02*
X017998D01*
X018006Y002097*
X01805Y001991*
X01812Y0019*
X018211Y001831*
X018316Y001787*
X01838Y001778*
Y002161*
G37*
G36*
X00968Y002643D02*
Y002261D01*
X010062*
X010054Y002324*
X01001Y00243*
X00994Y002521*
X009849Y002591*
X009744Y002634*
X00968Y002643*
G37*
G36*
X00958D02*
X009516Y002634D01*
X009411Y002591*
X00932Y002521*
X00925Y00243*
X009206Y002324*
X009198Y002261*
X00958*
Y002643*
G37*
G36*
X01838D02*
X018316Y002634D01*
X018211Y002591*
X01812Y002521*
X01805Y00243*
X018006Y002324*
X017998Y002261*
X01838*
Y002643*
G37*
G36*
X02005Y00265D02*
X019754D01*
X019759Y002609*
X019794Y002523*
X01985Y00245*
X019923Y002394*
X020009Y002359*
X02005Y002354*
Y00265*
G37*
G36*
X01848Y002643D02*
Y002261D01*
X018862*
X018854Y002324*
X01881Y00243*
X01874Y002521*
X018649Y002591*
X018544Y002634*
X01848Y002643*
G37*
G36*
X006872Y002599D02*
X006772Y002586D01*
X006678Y002547*
X006597Y002485*
X006536Y002405*
X006497Y002311*
X006484Y002211*
X006497Y00211*
X006536Y002016*
X006597Y001936*
X006678Y001874*
X006772Y001836*
X006872Y001822*
X006973Y001836*
X007066Y001874*
X007147Y001936*
X007208Y002016*
X007247Y00211*
X00726Y002211*
X007247Y002311*
X007208Y002405*
X007147Y002485*
X007066Y002547*
X006973Y002586*
X006872Y002599*
G37*
G36*
X018862Y002161D02*
X01848D01*
Y001778*
X018544Y001787*
X018649Y001831*
X01874Y0019*
X01881Y001991*
X018854Y002097*
X018862Y002161*
G37*
G36*
X00825Y002599D02*
X008149Y002586D01*
X008056Y002547*
X007975Y002485*
X007914Y002405*
X007875Y002311*
X007862Y002211*
X007875Y00211*
X007914Y002016*
X007975Y001936*
X008056Y001874*
X008149Y001836*
X00825Y001822*
X008351Y001836*
X008444Y001874*
X008525Y001936*
X008586Y002016*
X008625Y00211*
X008638Y002211*
X008625Y002311*
X008586Y002405*
X008525Y002485*
X008444Y002547*
X008351Y002586*
X00825Y002599*
G37*
G36*
X01705D02*
X016949Y002586D01*
X016856Y002547*
X016775Y002485*
X016714Y002405*
X016675Y002311*
X016662Y002211*
X016675Y00211*
X016714Y002016*
X016775Y001936*
X016856Y001874*
X016949Y001836*
X01705Y001822*
X017151Y001836*
X017244Y001874*
X017325Y001936*
X017386Y002016*
X017425Y00211*
X017438Y002211*
X017425Y002311*
X017386Y002405*
X017325Y002485*
X017244Y002547*
X017151Y002586*
X01705Y002599*
G37*
G36*
X015672D02*
X015572Y002586D01*
X015478Y002547*
X015397Y002485*
X015336Y002405*
X015297Y002311*
X015284Y002211*
X015297Y00211*
X015336Y002016*
X015397Y001936*
X015478Y001874*
X015572Y001836*
X015672Y001822*
X015773Y001836*
X015866Y001874*
X015947Y001936*
X016008Y002016*
X016047Y00211*
X01606Y002211*
X016047Y002311*
X016008Y002405*
X015947Y002485*
X015866Y002547*
X015773Y002586*
X015672Y002599*
G37*
G36*
X013745Y02329D02*
X013455D01*
X01331Y023145*
Y022855*
X013455Y02271*
X013745*
X01389Y022855*
Y023145*
X013745Y02329*
G37*
G36*
X01295Y020256D02*
X012833Y020233D01*
X012753Y020179*
X011647*
X011567Y020233*
X01145Y020256*
X011333Y020233*
X011234Y020166*
X011167Y020067*
X011144Y01995*
X011167Y019833*
X011234Y019734*
X011333Y019667*
X01145Y019644*
X011567Y019667*
X011647Y019721*
X012753*
X012833Y019667*
X01295Y019644*
X013067Y019667*
X013166Y019734*
X013233Y019833*
X013256Y01995*
X013233Y020067*
X013166Y020166*
X013067Y020233*
X01295Y020256*
G37*
G36*
X007995Y02349D02*
X007705D01*
X00756Y023345*
Y023055*
X007705Y02291*
X007995*
X00814Y023055*
Y023345*
X007995Y02349*
G37*
G36*
X016935Y02405D02*
X016625D01*
Y0237*
X016935*
Y02405*
G37*
G36*
X010995Y02349D02*
X010705D01*
X01056Y023345*
Y023055*
X010705Y02291*
X010995*
X01114Y023055*
Y023345*
X010995Y02349*
G37*
G36*
X01945Y012942D02*
X019313Y012929D01*
X019181Y012889*
X019059Y012824*
X018953Y012736*
X018865Y01263*
X0188Y012508*
X01876Y012376*
X018747Y012239*
X01876Y012102*
X0188Y01197*
X018865Y011848*
X018953Y011742*
X019059Y011654*
X019181Y011589*
X019313Y011549*
X01945Y011536*
X019587Y011549*
X019719Y011589*
X019841Y011654*
X019947Y011742*
X020035Y011848*
X0201Y01197*
X02014Y012102*
X020153Y012239*
X02014Y012376*
X0201Y012508*
X020035Y01263*
X019947Y012736*
X019841Y012824*
X019719Y012889*
X019587Y012929*
X01945Y012942*
G37*
G36*
X014854D02*
X014716Y012929D01*
X014584Y012889*
X014463Y012824*
X014356Y012736*
X014269Y01263*
X014204Y012508*
X014164Y012376*
X01415Y012239*
X014164Y012102*
X014204Y01197*
X014269Y011848*
X014356Y011742*
X014463Y011654*
X014584Y011589*
X014716Y011549*
X014854Y011536*
X014991Y011549*
X015123Y011589*
X015244Y011654*
X015351Y011742*
X015438Y011848*
X015503Y01197*
X015543Y012102*
X015557Y012239*
X015543Y012376*
X015503Y012508*
X015438Y01263*
X015351Y012736*
X015244Y012824*
X015123Y012889*
X014991Y012929*
X014854Y012942*
G37*
G36*
X001839Y012322D02*
X001776Y012314D01*
X00167Y01227*
X001579Y0122*
X001509Y012109*
X001466Y012004*
X001457Y01194*
X001839*
Y012322*
G37*
G36*
X01805Y020356D02*
X017933Y020333D01*
X017834Y020266*
X017767Y020167*
X017744Y02005*
X017767Y019933*
X017834Y019834*
X017933Y019767*
X018027Y019749*
X019149Y018626*
X019144Y0186*
X019167Y018483*
X019234Y018384*
X019333Y018317*
X01945Y018294*
X019567Y018317*
X019666Y018384*
X019733Y018483*
X019756Y0186*
X019733Y018717*
X019666Y018816*
X019567Y018883*
X019536Y018889*
X018351Y020073*
X018333Y020167*
X018266Y020266*
X018167Y020333*
X01805Y020356*
G37*
G36*
X001939Y012322D02*
Y01194D01*
X002322*
X002313Y012004*
X002269Y012109*
X0022Y0122*
X002109Y01227*
X002003Y012314*
X001939Y012322*
G37*
G36*
X016736Y024601D02*
X016648D01*
X016638Y0245*
X016625*
Y02415*
X016935*
Y0245*
X016746*
X016736Y024601*
G37*
G36*
X016642Y026048D02*
X016536Y026027D01*
X016404Y025938*
X016315Y025806*
X016284Y02565*
Y0254*
X016642*
Y026048*
G37*
G36*
X0157Y026007D02*
X015563Y02598D01*
X015448Y025902*
X01537Y025787*
X015343Y02565*
Y025193*
X015193Y025131*
X015077Y025248*
Y02565*
X01505Y025787*
X014972Y025902*
X014857Y02598*
X01472Y026007*
X014583Y02598*
X014468Y025902*
X01439Y025787*
X014363Y02565*
Y02505*
X01439Y024913*
X014468Y024798*
X014583Y02472*
X01472Y024693*
X014857Y02472*
X014916Y02476*
X015538Y024138*
X01559Y024086*
Y02375*
X016065*
X016085*
X016215Y0237*
X016279*
X016339*
X016525*
Y0241*
Y0245*
X016339*
X016279*
X016215*
X016085Y02445*
X016079*
X015929Y024486*
Y024782*
X015952Y024798*
X01603Y024913*
X016057Y02505*
Y02565*
X01603Y025787*
X015952Y025902*
X015837Y02598*
X0157Y026007*
G37*
G36*
X016742Y026048D02*
Y0254D01*
X0171*
Y02565*
X017069Y025806*
X016981Y025938*
X016848Y026027*
X016742Y026048*
G37*
G36*
X017726D02*
Y0254D01*
X018084*
Y02565*
X018053Y025806*
X017965Y025938*
X017832Y026027*
X017726Y026048*
G37*
G36*
X017626D02*
X01752Y026027D01*
X017388Y025938*
X0173Y025806*
X017269Y02565*
Y0254*
X017626*
Y026048*
G37*
G36*
X0171Y0253D02*
X016742D01*
Y024652*
X016794Y024662*
X016848Y024673*
X016981Y024762*
X017069Y024894*
X0171Y02505*
Y0253*
G37*
G36*
X016642D02*
X016284D01*
Y02505*
X016315Y024894*
X016404Y024762*
X016536Y024673*
X01659Y024662*
X016642Y024652*
Y0253*
G37*
G36*
X017626D02*
X017269D01*
Y02505*
X0173Y024894*
X017388Y024762*
X01752Y024673*
X017626Y024652*
Y0253*
G37*
G36*
X007584Y026007D02*
X007448Y02598D01*
X007332Y025902*
X007255Y025787*
X007227Y02565*
Y02505*
X007255Y024913*
X007332Y024798*
X007448Y02472*
X007584Y024693*
X007721Y02472*
X007837Y024798*
X007914Y024913*
X007941Y02505*
Y02565*
X007914Y025787*
X007837Y025902*
X007721Y02598*
X007584Y026007*
G37*
G36*
X018084Y0253D02*
X017726D01*
Y024652*
X017832Y024673*
X017965Y024762*
X018053Y024894*
X018084Y02505*
Y0253*
G37*
G36*
X00315Y00786D02*
X0028D01*
Y00755*
X00315*
Y00786*
G37*
G36*
X002322Y00764D02*
X001939D01*
Y007258*
X002003Y007266*
X002109Y00731*
X0022Y00738*
X002269Y007471*
X002313Y007576*
X002322Y00764*
G37*
G36*
X0036Y00786D02*
X00325D01*
Y00755*
X0036*
Y00786*
G37*
G36*
X001939Y008122D02*
Y00774D01*
X002322*
X002313Y007804*
X002269Y007909*
X0022Y008*
X002109Y00807*
X002003Y008114*
X001939Y008122*
G37*
G36*
X00605Y00795D02*
X005783D01*
Y007624*
X00605*
Y00795*
G37*
G36*
X011207Y006096D02*
X011145Y006088D01*
X01104Y006045*
X01095Y005976*
X010881Y005886*
X010838Y005781*
X010823Y005669*
Y005389*
X011207*
Y006096*
G37*
G36*
X01945Y009903D02*
X019372Y009892D01*
X019299Y009862*
X019236Y009814*
X019188Y009751*
X019158Y009678*
X019147Y0096*
X019158Y009522*
X019188Y009449*
X019221Y009406*
Y008526*
X019188*
Y007874*
X019221*
Y005972*
X019179Y00594*
X019118Y005861*
X01908Y005768*
X019067Y005669*
Y005009*
X01908Y00491*
X019118Y004817*
X019179Y004738*
X019258Y004677*
X019351Y004639*
X01945Y004626*
X019549Y004639*
X019642Y004677*
X019721Y004738*
X019782Y004817*
X01982Y00491*
X019833Y005009*
Y005669*
X01982Y005768*
X019782Y005861*
X019721Y00594*
X019679Y005972*
Y007745*
X019729Y007824*
X019766*
X019801*
X019995*
Y0082*
Y008576*
X019801*
X019766*
X019729*
X019679Y008655*
Y009406*
X019712Y009449*
X019742Y009522*
X019753Y0096*
X019742Y009678*
X019712Y009751*
X019664Y009814*
X019601Y009862*
X019528Y009892*
X01945Y009903*
G37*
G36*
X011307Y006096D02*
Y005389D01*
X011691*
Y005669*
X011676Y005781*
X011633Y005886*
X011564Y005976*
X011474Y006045*
X011369Y006088*
X011307Y006096*
G37*
G36*
X0205D02*
Y005389D01*
X020884*
Y005669*
X020869Y005781*
X020826Y005886*
X020757Y005976*
X020667Y006045*
X020562Y006088*
X0205Y006096*
G37*
G36*
X0204D02*
X020338Y006088D01*
X020233Y006045*
X020143Y005976*
X020074Y005886*
X020031Y005781*
X020016Y005669*
Y005389*
X0204*
Y006096*
G37*
G36*
X020362Y00815D02*
X020095D01*
Y007824*
X020362*
Y00815*
G37*
G36*
X001839Y01184D02*
X001457D01*
X001466Y011776*
X001509Y011671*
X001579Y01158*
X00167Y01151*
X001776Y011466*
X001839Y011458*
Y01184*
G37*
G36*
X001889Y010899D02*
X001789Y010886D01*
X001695Y010847*
X001615Y010786*
X001553Y010705*
X001514Y010612*
X001501Y010511*
X001514Y010411*
X001553Y010317*
X001615Y010236*
X001695Y010175*
X001789Y010136*
X001889Y010123*
X00199Y010136*
X002084Y010175*
X002164Y010236*
X002226Y010317*
X002264Y010411*
X002278Y010511*
X002264Y010612*
X002226Y010705*
X002164Y010786*
X002084Y010847*
X00199Y010886*
X001889Y010899*
G37*
G36*
X002322Y01184D02*
X001939D01*
Y011458*
X002003Y011466*
X002109Y01151*
X0022Y01158*
X002269Y011671*
X002313Y011776*
X002322Y01184*
G37*
G36*
X010257Y012942D02*
X01012Y012929D01*
X009988Y012889*
X009866Y012824*
X00976Y012736*
X009672Y01263*
X009607Y012508*
X009567Y012376*
X009554Y012239*
X009567Y012102*
X009607Y01197*
X009672Y011848*
X00976Y011742*
X009866Y011654*
X009988Y011589*
X01012Y011549*
X010257Y011536*
X010394Y011549*
X010526Y011589*
X010648Y011654*
X010754Y011742*
X010842Y011848*
X010907Y01197*
X010947Y012102*
X01096Y012239*
X010947Y012376*
X010907Y012508*
X010842Y01263*
X010754Y012736*
X010648Y012824*
X010526Y012889*
X010394Y012929*
X010257Y012942*
G37*
G36*
X005661D02*
X005523Y012929D01*
X005391Y012889*
X00527Y012824*
X005163Y012736*
X005076Y01263*
X005011Y012508*
X004971Y012376*
X004957Y012239*
X004971Y012102*
X005011Y01197*
X005076Y011848*
X005163Y011742*
X00527Y011654*
X005391Y011589*
X005523Y011549*
X005661Y011536*
X005798Y011549*
X00593Y011589*
X006051Y011654*
X006158Y011742*
X006245Y011848*
X00631Y01197*
X006351Y012102*
X006364Y012239*
X006351Y012376*
X00631Y012508*
X006245Y01263*
X006158Y012736*
X006051Y012824*
X00593Y012889*
X005798Y012929*
X005661Y012942*
G37*
G36*
X015762Y0084D02*
X015495D01*
Y008074*
X015762*
Y0084*
G37*
G36*
X00605Y008376D02*
X005783D01*
Y00805*
X00605*
Y008376*
G37*
G36*
X020095Y008576D02*
Y00825D01*
X020362*
Y008576*
X020095*
G37*
G36*
X00195Y009503D02*
X001846Y00949D01*
X001748Y009449*
X001665Y009385*
X000815Y008535*
X000751Y008452*
X00071Y008354*
X000697Y00825*
Y0056*
X00071Y005496*
X000751Y005398*
X000815Y005315*
X001076Y005054*
X001159Y00499*
X001257Y004949*
X001361Y004936*
X004287*
X00429Y00491*
X004329Y004817*
X00439Y004738*
X004469Y004677*
X004561Y004639*
X004661Y004626*
X00476Y004639*
X004852Y004677*
X004932Y004738*
X004993Y004817*
X005031Y00491*
X005044Y005009*
Y005219*
X00505Y005235*
X005064Y005339*
X00505Y005443*
X005044Y005459*
Y005669*
X005031Y005768*
X004993Y005861*
X004932Y00594*
X004852Y006001*
X00476Y006039*
X004661Y006052*
X004561Y006039*
X004469Y006001*
X00439Y00594*
X004329Y005861*
X00429Y005768*
X004287Y005742*
X001528*
X001503Y005767*
Y006017*
X001603Y006051*
X001615Y006036*
X001695Y005975*
X001789Y005936*
X001889Y005923*
X00199Y005936*
X002043Y005958*
X002558*
X002588Y005946*
X002686Y005933*
X002784Y005946*
X002875Y005983*
X002953Y006044*
X003382Y006472*
X005078*
X005308Y006243*
Y00581*
X00529Y005768*
X005277Y005669*
Y005009*
X00529Y00491*
X005329Y004817*
X00539Y004738*
X005469Y004677*
X005561Y004639*
X005661Y004626*
X00576Y004639*
X005852Y004677*
X005932Y004738*
X005993Y004817*
X006031Y00491*
X006044Y005009*
Y005669*
X006031Y005768*
X006014Y00581*
Y006389*
X006002Y006481*
X005966Y006566*
X00591Y006639*
X005474Y007075*
X005401Y007131*
X005316Y007166*
X005225Y007178*
X0036*
Y00745*
X0028*
Y00714*
X00285Y007135*
Y00701*
X002504Y006664*
X002043*
X00199Y006686*
X001889Y006699*
X001789Y006686*
X001695Y006647*
X001615Y006586*
X001603Y006571*
X001503Y006605*
Y007317*
X001523Y007333*
X001603Y007361*
X00167Y00731*
X001776Y007266*
X001839Y007258*
Y00769*
Y008122*
X001776Y008114*
X001678Y008073*
X001665Y008072*
X001566Y008116*
X001561Y008138*
X001562Y008142*
X002117Y008697*
X00297*
X003074Y00871*
X003134Y008735*
X00328*
Y008816*
X003326Y008847*
X003414Y008796*
Y008735*
X004034*
Y008871*
X005106*
X005149Y008838*
X005222Y008808*
X0053Y008797*
X005378Y008808*
X005451Y008838*
X005514Y008886*
X005562Y008949*
X005592Y009022*
X005603Y0091*
X005592Y009178*
X005562Y009251*
X005514Y009314*
X005451Y009362*
X005378Y009392*
X0053Y009403*
X005222Y009392*
X005149Y009362*
X005106Y009329*
X004034*
Y009465*
X003414*
Y009404*
X003326Y009353*
X00328Y009384*
Y009465*
X003134*
X003074Y00949*
X00297Y009503*
X00195*
G37*
G36*
X015495Y008826D02*
Y0085D01*
X015762*
Y008826*
X015495*
G37*
%LNmotor_driver-3*%
%LPD*%
G54D10*
X01355Y010304D03*
Y00955D03*
G54D11*
X0032Y006825D03*
Y0075D03*
G54D13*
X009954Y0093D03*
X0092D03*
X003724Y0091D03*
X00297D03*
G54D14*
X0159Y0241D03*
X016575D03*
G54D15*
X02055Y0141D02*
X021Y01365D01*
X016575Y025233D02*
X016692Y02535D01*
X016575Y0241D02*
Y025233D01*
X015445Y00845D02*
X01615Y009155D01*
Y0169*
Y02145*
X0166Y0219D02*
Y023D01*
X016575Y023025D02*
X0166Y023D01*
X01615Y02145D02*
X0166Y0219D01*
X02055Y0141D02*
Y02635D01*
X01355Y00955D02*
X013854Y009246D01*
Y005339D02*
Y009246D01*
X014855Y00534D02*
Y00845D01*
X014854Y005339D02*
X014855Y00534D01*
X0092Y005396D02*
Y0093D01*
Y005396D02*
X009257Y005339D01*
X005608Y025058D02*
Y02535D01*
X0045Y02395D02*
X005608Y025058D01*
X0045Y0197D02*
Y02395D01*
X00405Y01925D02*
X0045Y0197D01*
X0027Y01725D02*
X00425D01*
Y01815*
X007Y01675D02*
X0075Y01725D01*
X01145Y01995D02*
X01295D01*
X00425Y01815D02*
X00475Y01865D01*
X0047Y01745D02*
X0051Y01785D01*
X00475Y01865D02*
X0095D01*
X0051Y01785D02*
X00845D01*
X009954Y0093D02*
Y009996D01*
X01805Y02005D02*
X01945Y01865D01*
Y0186D02*
Y01865D01*
X01673Y01762D02*
X01715Y0172D01*
X01845Y005339D02*
Y01035D01*
X01715Y01165D02*
X01845Y01035D01*
X01715Y01165D02*
Y0172D01*
X0153Y01475D02*
Y01985D01*
X01355Y013D02*
X0153Y01475D01*
X01355Y010304D02*
Y013D01*
X01485Y00945D02*
X014855Y009445D01*
Y00845D02*
Y009445D01*
X0111Y01915D02*
X01325D01*
X0108Y0182D02*
X0115D01*
X0075Y01725D02*
X0092D01*
X0111Y01915*
X0072Y0146D02*
X0108Y0182D01*
X0086Y01135D02*
X009954Y009996D01*
X0086Y01135D02*
Y01305D01*
X0081Y009409D02*
Y0144D01*
X006691Y008D02*
X0081Y009409D01*
X003724Y0091D02*
X0053D01*
X01945Y005339D02*
Y0096D01*
X00365Y024372D02*
X004628Y02535D01*
X002272Y024372D02*
X00365D01*
X00175Y02385D02*
X002272Y024372D01*
X00175Y0165D02*
Y02385D01*
X00665Y0146D02*
X0072D01*
X00615Y0265D02*
X0066Y02605D01*
X0011Y0158D02*
X0023Y0146D01*
X0043*
X00545Y01575*
X0069*
X0066Y02535D02*
Y02605D01*
X0157Y0243D02*
Y02535D01*
X01472Y02528D02*
Y02535D01*
Y02528D02*
X0157Y0243D01*
X0159Y0241*
X0123Y01675D02*
Y01765D01*
X0086Y01305D02*
X0123Y01675D01*
X004284Y01515D02*
X0047Y015566D01*
Y01745*
X00255Y01535D02*
X00275Y01515D01*
X004284*
X0029Y0197D02*
X003Y0196D01*
X0029Y0197D02*
Y02175D01*
X0023Y01905D02*
X0024Y01895D01*
X0023Y01905D02*
Y0223D01*
X00275Y02275*
X006691Y005369D02*
Y008D01*
X006661Y005339D02*
X006691Y005369D01*
X0011Y0158D02*
Y02385D01*
X00375Y0265*
X00615*
G54D16*
X005225Y006825D02*
X005661Y006389D01*
Y005339D02*
Y006389D01*
X001889Y006311D02*
X002686D01*
X0032Y006825D02*
X005225D01*
G54D17*
X00195Y0091D02*
X00297D01*
X001361Y005339D02*
X004661D01*
X0011Y0056D02*
X001361Y005339D01*
X0011Y0056D02*
Y00825D01*
X00195Y0091*
G54D18*
X016235Y024099D03*
G54D19*
X007152Y020449D03*
X013548Y009929D03*
G54D20*
X008601Y02094D03*
X003201Y00716D03*
X009149Y01685D03*
G54D21*
X009579Y009302D03*
X003349Y009102D03*
X016351Y018652D03*
X016251Y020652D03*
G54D22*
X0123Y022049D03*
G54D23*
X0211Y012239D02*
D01*
X021095Y012354*
X021083Y012468*
X021063Y012582*
X021036Y012693*
X021Y012803*
X020957Y01291*
X020906Y013013*
X020849Y013113*
X020784Y013208*
X020713Y013299*
X020636Y013385*
X020554Y013465*
X020465Y013539*
X020372Y013606*
X020275Y013667*
X020173Y013722*
X020068Y013768*
X019959Y013808*
X019849Y013839*
X019736Y013863*
X019622Y013879*
X019507Y013887*
X019392*
X019277Y013879*
X019163Y013863*
X01905Y013839*
X01894Y013808*
X018831Y013768*
X018726Y013722*
X018625Y013667*
X018527Y013606*
X018434Y013539*
X018345Y013465*
X018263Y013385*
X018186Y013299*
X018115Y013208*
X01805Y013113*
X017993Y013013*
X017942Y01291*
X017899Y012803*
X017863Y012693*
X017836Y012582*
X017816Y012468*
X017804Y012354*
X0178Y012239*
X017804Y012123*
X017816Y012009*
X017836Y011895*
X017863Y011784*
X017899Y011674*
X017942Y011567*
X017993Y011464*
X01805Y011364*
X018115Y011269*
X018186Y011178*
X018263Y011092*
X018345Y011012*
X018434Y010938*
X018527Y010871*
X018625Y01081*
X018726Y010755*
X018831Y010709*
X01894Y010669*
X01905Y010638*
X019163Y010614*
X019277Y010598*
X019392Y01059*
X019507*
X019622Y010598*
X019736Y010614*
X019849Y010638*
X019959Y010669*
X020068Y010709*
X020173Y010755*
X020275Y01081*
X020372Y010871*
X020465Y010938*
X020554Y011012*
X020636Y011092*
X020713Y011178*
X020784Y011269*
X020849Y011364*
X020906Y011464*
X020957Y011567*
X021Y011674*
X021036Y011784*
X021063Y011895*
X021083Y012009*
X021095Y012123*
X0211Y012239*
X016504D02*
D01*
X016499Y012354*
X016487Y012468*
X016467Y012582*
X01644Y012693*
X016404Y012803*
X016361Y01291*
X01631Y013013*
X016253Y013113*
X016188Y013208*
X016117Y013299*
X01604Y013385*
X015958Y013465*
X015869Y013539*
X015776Y013606*
X015679Y013667*
X015577Y013722*
X015472Y013768*
X015363Y013808*
X015253Y013839*
X01514Y013863*
X015026Y013879*
X014911Y013887*
X014796*
X014681Y013879*
X014567Y013863*
X014454Y013839*
X014344Y013808*
X014235Y013768*
X01413Y013722*
X014028Y013667*
X013931Y013606*
X013838Y013539*
X013749Y013465*
X013667Y013385*
X01359Y013299*
X013519Y013208*
X013454Y013113*
X013397Y013013*
X013346Y01291*
X013303Y012803*
X013267Y012693*
X01324Y012582*
X01322Y012468*
X013208Y012354*
X013204Y012239*
X013208Y012123*
X01322Y012009*
X01324Y011895*
X013267Y011784*
X013303Y011674*
X013346Y011567*
X013397Y011464*
X013454Y011364*
X013519Y011269*
X01359Y011178*
X013667Y011092*
X013749Y011012*
X013838Y010938*
X013931Y010871*
X014029Y01081*
X01413Y010755*
X014235Y010709*
X014344Y010669*
X014454Y010638*
X014567Y010614*
X014681Y010598*
X014796Y01059*
X014911*
X015026Y010598*
X01514Y010614*
X015253Y010638*
X015363Y010669*
X015472Y010709*
X015577Y010755*
X015679Y01081*
X015776Y010871*
X015869Y010938*
X015958Y011012*
X01604Y011092*
X016117Y011178*
X016188Y011269*
X016253Y011364*
X01631Y011464*
X016361Y011567*
X016404Y011674*
X01644Y011784*
X016467Y011895*
X016487Y012009*
X016499Y012123*
X016504Y012239*
X011907D02*
D01*
X011902Y012354*
X01189Y012468*
X01187Y012582*
X011843Y012693*
X011807Y012803*
X011764Y01291*
X011713Y013013*
X011656Y013113*
X011591Y013208*
X01152Y013299*
X011443Y013385*
X011361Y013465*
X011272Y013539*
X011179Y013606*
X011082Y013667*
X01098Y013722*
X010875Y013768*
X010766Y013808*
X010656Y013839*
X010543Y013863*
X010429Y013879*
X010314Y013887*
X010199*
X010084Y013879*
X00997Y013863*
X009857Y013839*
X009747Y013808*
X009638Y013768*
X009533Y013722*
X009431Y013667*
X009334Y013606*
X009241Y013539*
X009152Y013465*
X00907Y013385*
X008993Y013299*
X008922Y013208*
X008857Y013113*
X0088Y013013*
X008749Y01291*
X008706Y012803*
X00867Y012693*
X008643Y012582*
X008623Y012468*
X008611Y012354*
X008607Y012239*
X008611Y012123*
X008623Y012009*
X008643Y011895*
X00867Y011784*
X008706Y011674*
X008749Y011567*
X0088Y011464*
X008857Y011364*
X008922Y011269*
X008993Y011178*
X00907Y011092*
X009152Y011012*
X009241Y010938*
X009334Y010871*
X009432Y01081*
X009533Y010755*
X009638Y010709*
X009747Y010669*
X009857Y010638*
X00997Y010614*
X010084Y010598*
X010199Y01059*
X010314*
X010429Y010598*
X010543Y010614*
X010656Y010638*
X010766Y010669*
X010875Y010709*
X01098Y010755*
X011082Y01081*
X011179Y010871*
X011272Y010938*
X011361Y011012*
X011443Y011092*
X01152Y011178*
X011591Y011269*
X011656Y011364*
X011713Y011464*
X011764Y011567*
X011807Y011674*
X011843Y011784*
X01187Y011895*
X01189Y012009*
X011902Y012123*
X011907Y012239*
X007311D02*
D01*
X007306Y012354*
X007294Y012468*
X007274Y012582*
X007247Y012693*
X007211Y012803*
X007168Y01291*
X007117Y013013*
X00706Y013113*
X006995Y013208*
X006924Y013299*
X006847Y013385*
X006765Y013465*
X006676Y013539*
X006583Y013606*
X006486Y013667*
X006384Y013722*
X006279Y013768*
X00617Y013808*
X00606Y013839*
X005947Y013863*
X005833Y013879*
X005718Y013887*
X005603*
X005488Y013879*
X005374Y013863*
X005261Y013839*
X005151Y013808*
X005042Y013768*
X004937Y013722*
X004835Y013667*
X004738Y013606*
X004645Y013539*
X004556Y013465*
X004474Y013385*
X004397Y013299*
X004326Y013208*
X004261Y013113*
X004204Y013013*
X004153Y01291*
X00411Y012803*
X004074Y012693*
X004047Y012582*
X004027Y012468*
X004015Y012354*
X004011Y012239*
X004015Y012123*
X004027Y012009*
X004047Y011895*
X004074Y011784*
X00411Y011674*
X004153Y011567*
X004204Y011464*
X004261Y011364*
X004326Y011269*
X004397Y011178*
X004474Y011092*
X004556Y011012*
X004645Y010938*
X004738Y010871*
X004836Y01081*
X004937Y010755*
X005042Y010709*
X005151Y010669*
X005261Y010638*
X005374Y010614*
X005488Y010598*
X005603Y01059*
X005718*
X005833Y010598*
X005947Y010614*
X00606Y010638*
X00617Y010669*
X006279Y010709*
X006384Y010755*
X006486Y01081*
X006583Y010871*
X006676Y010938*
X006765Y011012*
X006847Y011092*
X006924Y011178*
X006995Y011269*
X00706Y011364*
X007117Y011464*
X007168Y011567*
X007211Y011674*
X007247Y011784*
X007274Y011895*
X007294Y012009*
X007306Y012123*
X007311Y012239*
X0211D02*
D01*
X021095Y012354*
X021083Y012468*
X021063Y012582*
X021036Y012693*
X021Y012803*
X020957Y01291*
X020906Y013013*
X020849Y013113*
X020784Y013208*
X020713Y013299*
X020636Y013385*
X020554Y013465*
X020465Y013539*
X020372Y013606*
X020275Y013667*
X020173Y013722*
X020068Y013768*
X019959Y013808*
X019849Y013839*
X019736Y013863*
X019622Y013879*
X019507Y013887*
X019392*
X019277Y013879*
X019163Y013863*
X01905Y013839*
X01894Y013808*
X018831Y013768*
X018726Y013722*
X018625Y013667*
X018527Y013606*
X018434Y013539*
X018345Y013465*
X018263Y013385*
X018186Y013299*
X018115Y013208*
X01805Y013113*
X017993Y013013*
X017942Y01291*
X017899Y012803*
X017863Y012693*
X017836Y012582*
X017816Y012468*
X017804Y012354*
X0178Y012239*
X017804Y012123*
X017816Y012009*
X017836Y011895*
X017863Y011784*
X017899Y011674*
X017942Y011567*
X017993Y011464*
X01805Y011364*
X018115Y011269*
X018186Y011178*
X018263Y011092*
X018345Y011012*
X018434Y010938*
X018527Y010871*
X018625Y01081*
X018726Y010755*
X018831Y010709*
X01894Y010669*
X01905Y010638*
X019163Y010614*
X019277Y010598*
X019392Y01059*
X019507*
X019622Y010598*
X019736Y010614*
X019849Y010638*
X019959Y010669*
X020068Y010709*
X020173Y010755*
X020275Y01081*
X020372Y010871*
X020465Y010938*
X020554Y011012*
X020636Y011092*
X020713Y011178*
X020784Y011269*
X020849Y011364*
X020906Y011464*
X020957Y011567*
X021Y011674*
X021036Y011784*
X021063Y011895*
X021083Y012009*
X021095Y012123*
X0211Y012239*
X016504D02*
D01*
X016499Y012354*
X016487Y012468*
X016467Y012582*
X01644Y012693*
X016404Y012803*
X016361Y01291*
X01631Y013013*
X016253Y013113*
X016188Y013208*
X016117Y013299*
X01604Y013385*
X015958Y013465*
X015869Y013539*
X015776Y013606*
X015679Y013667*
X015577Y013722*
X015472Y013768*
X015363Y013808*
X015253Y013839*
X01514Y013863*
X015026Y013879*
X014911Y013887*
X014796*
X014681Y013879*
X014567Y013863*
X014454Y013839*
X014344Y013808*
X014235Y013768*
X01413Y013722*
X014028Y013667*
X013931Y013606*
X013838Y013539*
X013749Y013465*
X013667Y013385*
X01359Y013299*
X013519Y013208*
X013454Y013113*
X013397Y013013*
X013346Y01291*
X013303Y012803*
X013267Y012693*
X01324Y012582*
X01322Y012468*
X013208Y012354*
X013204Y012239*
X013208Y012123*
X01322Y012009*
X01324Y011895*
X013267Y011784*
X013303Y011674*
X013346Y011567*
X013397Y011464*
X013454Y011364*
X013519Y011269*
X01359Y011178*
X013667Y011092*
X013749Y011012*
X013838Y010938*
X013931Y010871*
X014029Y01081*
X01413Y010755*
X014235Y010709*
X014344Y010669*
X014454Y010638*
X014567Y010614*
X014681Y010598*
X014796Y01059*
X014911*
X015026Y010598*
X01514Y010614*
X015253Y010638*
X015363Y010669*
X015472Y010709*
X015577Y010755*
X015679Y01081*
X015776Y010871*
X015869Y010938*
X015958Y011012*
X01604Y011092*
X016117Y011178*
X016188Y011269*
X016253Y011364*
X01631Y011464*
X016361Y011567*
X016404Y011674*
X01644Y011784*
X016467Y011895*
X016487Y012009*
X016499Y012123*
X016504Y012239*
X011907D02*
D01*
X011902Y012354*
X01189Y012468*
X01187Y012582*
X011843Y012693*
X011807Y012803*
X011764Y01291*
X011713Y013013*
X011656Y013113*
X011591Y013208*
X01152Y013299*
X011443Y013385*
X011361Y013465*
X011272Y013539*
X011179Y013606*
X011082Y013667*
X01098Y013722*
X010875Y013768*
X010766Y013808*
X010656Y013839*
X010543Y013863*
X010429Y013879*
X010314Y013887*
X010199*
X010084Y013879*
X00997Y013863*
X009857Y013839*
X009747Y013808*
X009638Y013768*
X009533Y013722*
X009431Y013667*
X009334Y013606*
X009241Y013539*
X009152Y013465*
X00907Y013385*
X008993Y013299*
X008922Y013208*
X008857Y013113*
X0088Y013013*
X008749Y01291*
X008706Y012803*
X00867Y012693*
X008643Y012582*
X008623Y012468*
X008611Y012354*
X008607Y012239*
X008611Y012123*
X008623Y012009*
X008643Y011895*
X00867Y011784*
X008706Y011674*
X008749Y011567*
X0088Y011464*
X008857Y011364*
X008922Y011269*
X008993Y011178*
X00907Y011092*
X009152Y011012*
X009241Y010938*
X009334Y010871*
X009432Y01081*
X009533Y010755*
X009638Y010709*
X009747Y010669*
X009857Y010638*
X00997Y010614*
X010084Y010598*
X010199Y01059*
X010314*
X010429Y010598*
X010543Y010614*
X010656Y010638*
X010766Y010669*
X010875Y010709*
X01098Y010755*
X011082Y01081*
X011179Y010871*
X011272Y010938*
X011361Y011012*
X011443Y011092*
X01152Y011178*
X011591Y011269*
X011656Y011364*
X011713Y011464*
X011764Y011567*
X011807Y011674*
X011843Y011784*
X01187Y011895*
X01189Y012009*
X011902Y012123*
X011907Y012239*
X007311D02*
D01*
X007306Y012354*
X007294Y012468*
X007274Y012582*
X007247Y012693*
X007211Y012803*
X007168Y01291*
X007117Y013013*
X00706Y013113*
X006995Y013208*
X006924Y013299*
X006847Y013385*
X006765Y013465*
X006676Y013539*
X006583Y013606*
X006486Y013667*
X006384Y013722*
X006279Y013768*
X00617Y013808*
X00606Y013839*
X005947Y013863*
X005833Y013879*
X005718Y013887*
X005603*
X005488Y013879*
X005374Y013863*
X005261Y013839*
X005151Y013808*
X005042Y013768*
X004937Y013722*
X004835Y013667*
X004738Y013606*
X004645Y013539*
X004556Y013465*
X004474Y013385*
X004397Y013299*
X004326Y013208*
X004261Y013113*
X004204Y013013*
X004153Y01291*
X00411Y012803*
X004074Y012693*
X004047Y012582*
X004027Y012468*
X004015Y012354*
X004011Y012239*
X004015Y012123*
X004027Y012009*
X004047Y011895*
X004074Y011784*
X00411Y011674*
X004153Y011567*
X004204Y011464*
X004261Y011364*
X004326Y011269*
X004397Y011178*
X004474Y011092*
X004556Y011012*
X004645Y010938*
X004738Y010871*
X004836Y01081*
X004937Y010755*
X005042Y010709*
X005151Y010669*
X005261Y010638*
X005374Y010614*
X005488Y010598*
X005603Y01059*
X005718*
X005833Y010598*
X005947Y010614*
X00606Y010638*
X00617Y010669*
X006279Y010709*
X006384Y010755*
X006486Y01081*
X006583Y010871*
X006676Y010938*
X006765Y011012*
X006847Y011092*
X006924Y011178*
X006995Y011269*
X00706Y011364*
X007117Y011464*
X007168Y011567*
X007211Y011674*
X007247Y011784*
X007274Y011895*
X007294Y012009*
X007306Y012123*
X007311Y012239*
G54D24*
X006828Y007715D02*
Y008285D01*
X005962Y007715D02*
Y008285D01*
X006828*
X005962Y007715D02*
X006828D01*
X014717Y008165D02*
Y008735D01*
X015583Y008165D02*
Y008735D01*
X014717Y008165D02*
X015583D01*
X014717Y008735D02*
X015583D01*
X019317Y007915D02*
Y008485D01*
X020183Y007915D02*
Y008485D01*
X019317Y007915D02*
X020183D01*
X019317Y008485D02*
X020183D01*
X006946Y007685D02*
Y008315D01*
X005844Y007685D02*
Y008315D01*
X006946*
X005844Y007685D02*
X006946D01*
X006198Y008D02*
X006592D01*
X006395Y007803D02*
Y008197D01*
X014599Y008135D02*
Y008765D01*
X015701Y008135D02*
Y008765D01*
X014599Y008135D02*
X015701D01*
X014599Y008765D02*
X015701D01*
X014953Y00845D02*
X015347D01*
X01515Y008253D02*
Y008647D01*
X019199Y007885D02*
Y008515D01*
X020301Y007885D02*
Y008515D01*
X019199Y007885D02*
X020301D01*
X019199Y008515D02*
X020301D01*
X019553Y0082D02*
X019947D01*
X01975Y008003D02*
Y008397D01*
G54D25*
X016085Y02384D02*
X016385D01*
X016094Y02436D02*
X016385D01*
X00886Y02079D02*
Y02109D01*
X00834Y02079D02*
Y02108D01*
X00141Y006591D02*
X002169Y005836D01*
X00161Y006783D02*
X002364Y006031D01*
X00141Y00797D02*
X002169Y00722D01*
X00161Y00817D02*
X002364Y00741D01*
X00141Y010791D02*
X002169Y010036D01*
X00161Y010983D02*
X002364Y010231D01*
X00141Y01217D02*
X002169Y01142D01*
X00161Y01237D02*
X002364Y01161D01*
X015197Y001931D02*
X015952Y00269D01*
X015392Y001736D02*
X016144Y00249D01*
X016575Y001931D02*
X01733Y00269D01*
X01677Y001736D02*
X01753Y00249D01*
X01796Y001931D02*
X01871Y00269D01*
X01815Y001736D02*
X01891Y00249D01*
X006397Y001931D02*
X007152Y00269D01*
X006592Y001736D02*
X007344Y00249D01*
X007775Y001931D02*
X00853Y00269D01*
X00797Y001736D02*
X00873Y00249D01*
X00916Y001931D02*
X00991Y00269D01*
X00935Y001736D02*
X01011Y00249D01*
X00346Y00701D02*
Y00731D01*
X00294Y00702D02*
Y00731D01*
X00889Y0167D02*
Y017D01*
X00941Y01671D02*
Y017D01*
X01215Y02179D02*
X01245D01*
X01215Y02231D02*
X01244D01*
G54D26*
X006441Y0255D02*
X006741D01*
X006441Y0252D02*
Y0255D01*
Y0252D02*
X006741D01*
Y0255*
X006441D02*
X006741Y0252D01*
X006441D02*
X006741Y0255D01*
X007431Y0252D02*
Y0255D01*
Y0252D02*
X007732D01*
Y0255*
X007431D02*
X007732D01*
X007431Y0252D02*
X007732Y0255D01*
X007431D02*
X007732Y0252D01*
X004778D02*
Y0255D01*
X004478Y0252D02*
X004778D01*
X004478D02*
Y0255D01*
X004778Y0252*
X004478D02*
X004778Y0255D01*
X004478D02*
X004778D01*
X005758Y0252D02*
Y0255D01*
X005458Y0252D02*
X005758D01*
X005458D02*
Y0255D01*
X005758Y0252*
X005458D02*
X005758Y0255D01*
X005458D02*
X005758D01*
X0074Y02017D02*
Y02073D01*
X0069Y02017D02*
Y02073D01*
X016533Y0255D02*
X016833D01*
X016533Y0252D02*
Y0255D01*
Y0252D02*
X016833D01*
Y0255*
X016533D02*
X016833Y0252D01*
X016533D02*
X016833Y0255D01*
X017524Y0252D02*
Y0255D01*
Y0252D02*
X017824D01*
Y0255*
X017524D02*
X017824D01*
X017524Y0252D02*
X017824Y0255D01*
X017524D02*
X017824Y0252D01*
X01487D02*
Y0255D01*
X01457Y0252D02*
X01487D01*
X01457D02*
Y0255D01*
X01487Y0252*
X01457D02*
X01487Y0255D01*
X01457D02*
X01487D01*
X01585Y0252D02*
Y0255D01*
X01555Y0252D02*
X01585D01*
X01555D02*
Y0255D01*
X01585Y0252*
X01555D02*
X01585Y0255D01*
X01555D02*
X01585D01*
X0093Y00955D02*
X00986D01*
X0093Y00905D02*
X00986D01*
X00307Y00935D02*
X00363D01*
X00307Y00885D02*
X00363D01*
X0133Y00965D02*
Y01021D01*
X0138Y00965D02*
Y01021D01*
X01607Y0189D02*
X01663D01*
X01607Y0184D02*
X01663D01*
X01597Y0209D02*
X01653D01*
X01597Y0204D02*
X01653D01*
X01635Y02265D02*
Y02335D01*
X01385Y02265D02*
Y02335D01*
X0106Y02285D02*
Y02355D01*
X0081Y02285D02*
Y02355D01*
G54D27*
X01645Y023D02*
X0166D01*
X0136D02*
X01375D01*
X0107Y0232D02*
X01085D01*
X00785D02*
X008D01*
G54D28*
X015952Y024097D03*
X012582Y022048D03*
G54D29*
X016525Y024097D03*
X01201Y022048D03*
G54D30*
X00715Y02079D03*
Y02011D03*
X01355Y01027D03*
Y00959D03*
G54D31*
X008602Y021222D03*
X003203Y006878D03*
X009147Y016568D03*
G54D32*
X008602Y02065D03*
X003203Y00745D03*
X009147Y01714D03*
G54D33*
X01845Y005614D03*
X01945D03*
X02045D03*
X013854D03*
X014854D03*
X015854D03*
X009257D03*
X010257D03*
X011257D03*
X004661D03*
X005661D03*
X006661D03*
G54D34*
X00992Y0093D03*
X00924D03*
X00369Y0091D03*
X00301D03*
X01601Y01865D03*
X01669D03*
X01591Y02065D03*
X01659D03*
G54D35*
X01049Y02115D03*
Y02065D03*
Y02015D03*
Y01965D03*
Y01915D03*
Y01865D03*
Y01815D03*
Y01765D03*
X01411Y02115D03*
Y02065D03*
Y02015D03*
Y01965D03*
Y01915D03*
Y01865D03*
Y01815D03*
Y01765D03*
Y01715D03*
Y01665D03*
X01049Y01715D03*
Y01665D03*
G54D36*
X0164Y023D03*
X0138D03*
X01065Y0232D03*
X00805D03*
G54D37*
X005845Y02175D03*
X003855Y02325D03*
Y02275D03*
X003865Y02225D03*
X003855Y02175D03*
X005845Y02225D03*
Y02275D03*
Y02325D03*
Y02125D03*
Y02075D03*
Y02025D03*
X003855Y02125D03*
Y02075D03*
Y02025D03*
X005795Y01675D03*
X003805Y01825D03*
Y01775D03*
X003815Y01725D03*
X003805Y01675D03*
X005795Y01725D03*
Y01775D03*
Y01825D03*
Y01625D03*
Y01575D03*
Y01525D03*
X003805Y01625D03*
Y01575D03*
Y01525D03*
G54D38*
X015458Y02371D02*
X017015D01*
X015458Y024487D02*
X017015D01*
X015458Y02371D02*
Y024487D01*
X017015Y02371D02*
Y024487D01*
X00754Y01967D02*
Y021227D01*
X006763Y01967D02*
Y021227D01*
X00754*
X006763Y01967D02*
X00754D01*
X00899Y02016D02*
Y021717D01*
X008213Y02016D02*
Y021717D01*
X00899*
X008213Y02016D02*
X00899D01*
X0088Y00969D02*
X010357D01*
X0088Y008913D02*
X010357D01*
Y00969*
X0088Y008913D02*
Y00969D01*
X00359Y006383D02*
Y00794D01*
X002813Y006383D02*
Y00794D01*
Y006383D02*
X00359D01*
X002813Y00794D02*
X00359D01*
X00257Y00949D02*
X004127D01*
X00257Y008713D02*
X004127D01*
Y00949*
X00257Y008713D02*
Y00949D01*
X01316Y00915D02*
Y010707D01*
X013937Y00915D02*
Y010707D01*
X01316D02*
X013937D01*
X01316Y00915D02*
X013937D01*
X00876Y016073D02*
Y01763D01*
X009537Y016073D02*
Y01763D01*
X00876Y016073D02*
X009537D01*
X00876Y01763D02*
X009537D01*
X015573Y01904D02*
X01713D01*
X015573Y018263D02*
X01713D01*
X015573D02*
Y01904D01*
X01713Y018263D02*
Y01904D01*
X015473Y02104D02*
X01703D01*
X015473Y020263D02*
X01703D01*
X015473D02*
Y02104D01*
X01703Y020263D02*
Y02104D01*
X01152Y02166D02*
X013077D01*
X01152Y022437D02*
X013077D01*
Y02166D02*
Y022437D01*
X01152Y02166D02*
Y022437D01*
G54D39*
X0015Y0011D03*
Y02635D03*
X0206Y0011D03*
X02055Y02635D03*
G54D40*
X0066Y02535D03*
X007584D03*
X005608D03*
X004628D03*
X016692D03*
X017676D03*
X0157D03*
X01472D03*
G54D41*
X001889Y006311D03*
Y00769D03*
Y010511D03*
Y01189D03*
X015672Y002211D03*
X01705D03*
X01843D03*
X006872D03*
X00825D03*
X00963D03*
G54D42*
X01845Y005339D03*
X01945D03*
X02045D03*
X013854D03*
X014854D03*
X015854D03*
X009257D03*
X010257D03*
X011257D03*
X004661D03*
X005661D03*
X006661D03*
G54D43*
X01945Y012239D03*
X014854D03*
X010257D03*
X005661D03*
G54D44*
X0166Y023D03*
X0136D03*
X01085Y0232D03*
X00785D03*
G54D45*
X00315Y00425D03*
X0122Y00285D03*
X0201Y0027D03*
X01615Y0169D03*
X00405Y01925D03*
X0095Y01865D03*
X0027Y01725D03*
X007Y01675D03*
X01325Y01915D03*
X0115Y0182D03*
X01145Y01995D03*
X01295D03*
X00845Y01785D03*
X01805Y02005D03*
X01945Y0186D03*
Y0096D03*
X01673Y01762D03*
X0153Y01985D03*
X01485Y00945D03*
X0081Y0144D03*
X0053Y0091D03*
X00175Y0165D03*
X00275Y02275D03*
X0024Y01895D03*
X00665Y0146D03*
X0069Y01575D03*
X0123Y01765D03*
X00255Y01535D03*
X003Y0196D03*
X0029Y02175D03*
G54D46*
X006691Y008D03*
X0061D03*
X014855Y00845D03*
X015445D03*
X019455Y0082D03*
X020045D03*
G54D47*
X002686Y006311D02*
X0032Y006825D01*
M02*