%FSTAX23Y23*%
%MOIN*%
%SFA1B1*%

%IPPOS*%
%ADD18R,0.007900X0.031800*%
%ADD19R,0.015900X0.047600*%
%ADD20R,0.031800X0.007900*%
%ADD21R,0.047600X0.015900*%
%ADD22R,0.007900X0.031800*%
%ADD23C,0.000000*%
%ADD24C,0.003900*%
%ADD25C,0.024000*%
%ADD26C,0.006000*%
%ADD27C,0.004000*%
%ADD28R,0.010000X0.024000*%
%ADD29R,0.045000X0.020000*%
%ADD30R,0.030000X0.057500*%
%ADD31R,0.029500X0.057500*%
%ADD32R,0.014000X0.056000*%
%ADD33R,0.057500X0.030000*%
%ADD34R,0.057500X0.029500*%
%ADD35R,0.058000X0.020000*%
%ADD36R,0.030000X0.075000*%
%ADD37R,0.056000X0.014000*%
%ADD38C,0.002000*%
%ADD48C,0.010000*%
%ADD49C,0.003400*%
%ADD50R,0.005000X0.020000*%
%ADD51R,0.050000X0.110000*%
%ADD52R,0.030000X0.025000*%
%LNmotor_driver-1*%
%LPD*%
G36*
X00991Y01128D02*
X00975D01*
X00973Y01117*
X00973Y01117*
X00973*
X00974Y01117*
X00974Y01118*
X00974Y01118*
X00975Y01118*
X00976Y01119*
X00977Y01119*
X00978Y01119*
X00979Y0112*
X0098Y0112*
X00981*
X00982*
X00982Y0112*
X00983*
X00983Y0112*
X00984Y01119*
X00985Y01119*
X00986Y01119*
X00987Y01118*
X00987Y01118*
X00988Y01117*
X00989Y01117*
X0099Y01116*
X0099*
X0099Y01116*
X0099Y01116*
X0099Y01116*
X0099Y01115*
X00991Y01115*
X00991Y01114*
X00991Y01114*
X00992Y01113*
X00992Y01112*
X00992Y01112*
X00993Y01111*
X00993Y0111*
X00993Y01109*
X00993Y01108*
Y01107*
Y01107*
Y01106*
Y01106*
X00993Y01106*
Y01105*
X00993Y01104*
X00993Y01104*
X00992Y01102*
X00992Y01101*
X00992Y011*
X00991Y01099*
X00991Y01098*
X0099Y01098*
X0099*
X0099Y01097*
X0099Y01097*
X00989Y01097*
X00989Y01096*
X00988Y01096*
X00988Y01096*
X00987Y01095*
X00987Y01095*
X00986Y01094*
X00985Y01094*
X00984Y01094*
X00983Y01093*
X00982Y01093*
X00981Y01093*
X0098Y01093*
X00979*
X00979Y01093*
X00978*
X00978Y01093*
X00977*
X00976Y01093*
X00975Y01094*
X00974Y01094*
X00973Y01094*
X00972Y01095*
X00971Y01095*
X00971Y01096*
Y01096*
X00971*
X0097Y01096*
X0097Y01096*
X0097Y01097*
X0097Y01097*
X00969Y01097*
X00969Y01098*
X00969Y01098*
X00968Y01099*
X00968Y011*
X00967Y01102*
X00967Y01103*
X00967Y01104*
X00972Y01104*
Y01104*
Y01104*
X00972Y01104*
Y01104*
X00972Y01103*
X00972Y01102*
X00973Y01101*
X00973Y011*
X00974Y01099*
X00975Y01099*
X00975Y01099*
X00975Y01098*
X00975Y01098*
X00976Y01098*
X00977Y01097*
X00978Y01097*
X00978Y01097*
X0098Y01097*
X0098*
X0098Y01097*
X00981*
X00982Y01097*
X00983Y01097*
X00984Y01098*
X00985Y01099*
X00985Y01099*
X00986Y01099*
X00986*
Y011*
X00986Y011*
X00986Y011*
X00986Y01101*
X00987Y01101*
X00987Y01102*
X00988Y01103*
X00988Y01105*
X00988Y01106*
Y01106*
Y01107*
Y01107*
Y01107*
X00988Y01107*
Y01108*
Y01108*
X00988Y01109*
X00987Y0111*
X00987Y01111*
X00986Y01112*
X00986Y01113*
X00986Y01113*
X00985Y01113*
X00985Y01114*
X00984Y01114*
X00983Y01115*
X00982Y01115*
X00981Y01115*
X0098Y01115*
X00979*
X00979*
X00978Y01115*
X00977Y01115*
X00977Y01115*
X00976Y01115*
X00975Y01114*
X00975*
X00975Y01114*
X00975Y01114*
X00974Y01114*
X00974Y01113*
X00973Y01113*
X00973Y01112*
X00972Y01112*
X00968Y01112*
X00972Y01133*
X00991*
Y01128*
G37*
G36*
X00947Y01129D02*
Y01129D01*
X00946Y01129*
X00946Y01128*
X00946Y01128*
X00946Y01128*
X00945Y01127*
X00945Y01127*
X00944Y01126*
X00944Y01125*
X00943Y01124*
X00942Y01124*
X00942Y01123*
X00941Y01122*
X0094Y0112*
X0094Y01119*
X00939Y01118*
X00939Y01118*
X00939Y01117*
X00938Y01117*
X00938Y01116*
X00938Y01116*
X00937Y01115*
X00937Y01114*
X00936Y01113*
X00936Y01112*
X00935Y01111*
X00935Y01109*
X00934Y01107*
X00933Y01104*
Y01104*
Y01104*
X00933Y01104*
X00933Y01103*
X00933Y01103*
X00933Y01102*
X00933Y01102*
X00933Y01101*
X00932Y011*
X00932Y01099*
X00932Y01098*
X00932Y01096*
X00931Y01093*
X00926*
Y01094*
Y01094*
Y01094*
Y01094*
Y01095*
X00927Y01095*
X00927Y01096*
Y01097*
X00927Y01097*
X00927Y01098*
X00927Y01099*
X00927Y011*
X00927Y01101*
X00928Y01102*
X00928Y01105*
Y01105*
Y01105*
X00928Y01105*
X00929Y01106*
X00929Y01106*
X00929Y01107*
X00929Y01108*
X0093Y01109*
X0093Y0111*
X0093Y01111*
X00931Y01113*
X00932Y01115*
X00933Y01117*
X00933Y01118*
X00933Y01118*
X00934Y01118*
X00934Y01119*
X00934Y01119*
X00935Y0112*
X00935Y0112*
X00935Y01121*
X00936Y01123*
X00938Y01125*
X00939Y01126*
X0094Y01128*
X00921*
Y01133*
X00947*
Y01129*
G37*
G36*
X01076Y01123D02*
X01077D01*
X01077Y01123*
X01078Y01123*
X01079Y01122*
X0108Y01122*
X01081Y01121*
X01082Y0112*
X01082Y0112*
X01082Y0112*
X01083Y0112*
X01083Y01119*
X01083Y01119*
X01083Y01118*
X01084Y01118*
X01084Y01117*
X01084Y01116*
X01084Y01116*
X01084Y01115*
X01084Y01114*
Y01113*
Y01093*
X0108*
Y01112*
Y01112*
Y01112*
Y01113*
X01079Y01113*
X01079Y01114*
Y01115*
X01079Y01115*
X01079Y01116*
X01079Y01116*
X01079Y01116*
X01079Y01116*
X01078Y01117*
X01078Y01117*
X01078Y01117*
X01077Y01118*
X01077Y01118*
X01077*
X01077Y01118*
X01076Y01118*
X01076Y01118*
X01076Y01119*
X01075*
X01074Y01119*
X01074*
X01074Y01119*
X01073*
X01073Y01118*
X01072Y01118*
X01071Y01118*
X0107Y01117*
X01069Y01117*
Y01116*
X01069Y01116*
X01069Y01116*
X01068Y01115*
X01068Y01114*
X01068Y01113*
X01067Y01112*
X01067Y0111*
Y01093*
X01062*
Y01112*
Y01112*
Y01112*
Y01113*
X01062Y01113*
X01062Y01114*
X01062Y01115*
X01062Y01116*
X01062Y01116*
X01061Y01117*
X01061Y01117*
X01061Y01117*
X01061Y01117*
X0106Y01118*
X0106Y01118*
X01059Y01118*
X01058Y01119*
X01057Y01119*
X01057*
X01057Y01119*
X01056*
X01056Y01118*
X01055Y01118*
X01054Y01118*
X01054Y01118*
X01053Y01117*
X01053Y01117*
X01053Y01117*
X01053Y01117*
X01052Y01116*
X01052Y01116*
X01051Y01115*
X01051Y01114*
Y01114*
X01051Y01114*
X01051Y01113*
X01051Y01113*
X0105Y01112*
X0105Y01111*
Y0111*
X0105Y01108*
Y01093*
X01045*
Y01122*
X0105*
Y01118*
X0105Y01118*
X0105Y01118*
X0105Y01119*
X01051Y01119*
X01051Y0112*
X01052Y0112*
X01052Y01121*
X01053Y01122*
X01053Y01122*
X01054Y01122*
X01054Y01122*
X01055Y01122*
X01056Y01122*
X01056Y01123*
X01057Y01123*
X01058*
X01059*
X0106*
X0106Y01123*
X01061Y01123*
X01062Y01122*
X01063Y01122*
X01064Y01122*
X01064Y01121*
X01064Y01121*
X01064Y01121*
X01065Y01121*
X01065Y0112*
X01066Y01119*
X01066Y01119*
X01067Y01118*
Y01118*
X01067Y01118*
X01067Y01118*
X01067Y01119*
X01068Y01119*
X01068Y01119*
X01068Y0112*
X01069Y0112*
X0107Y01121*
X0107Y01121*
X01071Y01122*
X01072Y01122*
X01073Y01122*
X01074Y01123*
X01074Y01123*
X01075*
X01076*
X01076*
G37*
G36*
X0103D02*
X0103D01*
X01031Y01123*
X01032Y01123*
X01033Y01122*
X01034Y01122*
X01035Y01121*
X01036Y0112*
X01036Y0112*
X01036Y0112*
X01037Y0112*
X01037Y01119*
X01037Y01119*
X01037Y01118*
X01037Y01118*
X01038Y01117*
X01038Y01116*
X01038Y01116*
X01038Y01115*
X01038Y01114*
Y01113*
Y01093*
X01033*
Y01112*
Y01112*
Y01112*
Y01113*
X01033Y01113*
Y01114*
X01033Y01115*
X01033Y01115*
X01033Y01116*
X01033Y01116*
X01033Y01116*
X01032Y01116*
X01032Y01117*
X01032Y01117*
X01032Y01117*
X01031Y01118*
Y01118*
X01031*
X01031Y01118*
X0103Y01118*
X0103Y01118*
X01029Y01119*
X01029*
X01028Y01119*
X01028*
X01028Y01119*
X01027*
X01026Y01118*
X01026Y01118*
X01025Y01118*
X01024Y01117*
X01023Y01117*
X01023Y01116*
X01023Y01116*
X01022Y01116*
X01022Y01115*
X01022Y01114*
X01021Y01113*
X01021Y01112*
X01021Y0111*
Y01093*
X01016*
Y01112*
Y01112*
Y01112*
Y01113*
X01016Y01113*
X01016Y01114*
X01016Y01115*
X01016Y01116*
X01015Y01116*
X01015Y01117*
X01015Y01117*
X01015Y01117*
X01014Y01117*
X01014Y01118*
X01014Y01118*
X01013Y01118*
X01012Y01119*
X01011Y01119*
X01011*
X0101Y01119*
X0101*
X01009Y01118*
X01009Y01118*
X01008Y01118*
X01007Y01118*
X01007Y01117*
X01007Y01117*
X01007Y01117*
X01006Y01117*
X01006Y01116*
X01005Y01116*
X01005Y01115*
X01005Y01114*
X01005Y01114*
Y01114*
X01004Y01113*
X01004Y01113*
X01004Y01112*
X01004Y01111*
X01004Y0111*
Y01108*
Y01093*
X00999*
Y01122*
X01003*
Y01118*
Y01118*
X01004Y01118*
X01004Y01119*
X01004Y01119*
X01005Y0112*
X01006Y0112*
X01006Y01121*
X01007Y01122*
X01007Y01122*
X01007Y01122*
X01008Y01122*
X01009Y01122*
X01009Y01122*
X0101Y01123*
X01011Y01123*
X01012*
X01013*
X01013*
X01014Y01123*
X01015Y01123*
X01016Y01122*
X01017Y01122*
X01017Y01122*
X01017Y01121*
X01018Y01121*
X01018Y01121*
X01018Y01121*
X01019Y0112*
X01019Y01119*
X0102Y01119*
X0102Y01118*
X0102Y01118*
X0102Y01118*
X01021Y01118*
X01021Y01119*
X01021Y01119*
X01022Y01119*
X01022Y0112*
X01023Y0112*
X01023Y01121*
X01024Y01121*
X01025Y01122*
X01026Y01122*
X01026Y01122*
X01027Y01123*
X01028Y01123*
X01029*
X0103*
X0103*
G37*
G36*
X0096Y01093D02*
Y01093D01*
Y01093*
Y01093*
X0096Y01092*
X00959Y01092*
X00959Y01091*
X00959Y0109*
X00959Y01089*
X00959Y01089*
X00958Y01088*
X00958Y01088*
X00958Y01088*
X00958Y01087*
X00957Y01087*
X00957Y01087*
X00956Y01086*
X00955Y01086*
X00954Y01088*
X00954Y01088*
X00954*
X00954Y01088*
X00955Y01088*
X00955Y01088*
X00955Y01089*
X00956Y01089*
X00956Y0109*
Y0109*
X00956Y0109*
X00956Y0109*
X00956Y01091*
X00956Y01091*
X00957Y01092*
X00957Y01093*
Y01093*
X00954*
Y01099*
X0096*
Y01093*
G37*
G36*
X01536Y01123D02*
X01536D01*
X01537Y01123*
X01538Y01123*
X01539Y01122*
X0154Y01122*
X01541Y01121*
X01542Y0112*
X01542Y0112*
X01542Y0112*
X01542Y0112*
X01543Y01119*
X01543Y01119*
X01543Y01118*
X01543Y01118*
X01544Y01117*
X01544Y01116*
X01544Y01116*
X01544Y01115*
X01544Y01114*
Y01113*
Y01093*
X01539*
Y01112*
Y01112*
Y01112*
Y01113*
Y01113*
X01539Y01114*
X01539Y01115*
X01539Y01115*
X01539Y01116*
X01539Y01116*
X01538Y01116*
X01538Y01116*
X01538Y01117*
X01538Y01117*
X01537Y01117*
X01537Y01118*
Y01118*
X01537*
X01537Y01118*
X01536Y01118*
X01536Y01118*
X01535Y01119*
X01535*
X01534Y01119*
X01534*
X01534Y01119*
X01533*
X01532Y01118*
X01531Y01118*
X01531Y01118*
X0153Y01117*
X01529Y01117*
X01529Y01116*
X01529Y01116*
X01528Y01116*
X01528Y01115*
X01528Y01114*
X01527Y01113*
X01527Y01112*
X01527Y0111*
Y01093*
X01522*
Y01112*
Y01112*
Y01112*
Y01113*
X01522Y01113*
X01522Y01114*
X01522Y01115*
X01522Y01116*
X01521Y01116*
X01521Y01117*
X01521Y01117*
X01521Y01117*
X0152Y01117*
X0152Y01118*
X01519Y01118*
X01519Y01118*
X01518Y01119*
X01517Y01119*
X01517*
X01516Y01119*
X01516*
X01515Y01118*
X01514Y01118*
X01514Y01118*
X01513Y01118*
Y01117*
X01513Y01117*
X01513Y01117*
X01512Y01117*
X01512Y01116*
X01511Y01116*
X01511Y01115*
X01511Y01114*
X01511Y01114*
Y01114*
X0151Y01113*
X0151Y01113*
X0151Y01112*
X0151Y01111*
X0151Y0111*
Y01108*
Y01093*
X01505*
Y01122*
X01509*
Y01118*
Y01118*
X0151Y01118*
X0151Y01119*
X0151Y01119*
X01511Y0112*
X01511Y0112*
X01512Y01121*
X01513Y01122*
X01513Y01122*
X01513Y01122*
X01514Y01122*
X01514Y01122*
X01515Y01122*
X01516Y01123*
X01517Y01123*
X01518*
X01519*
X01519*
X0152Y01123*
X01521Y01123*
X01522Y01122*
X01522Y01122*
X01523Y01122*
X01523Y01121*
X01524Y01121*
X01524Y01121*
X01524Y01121*
X01525Y0112*
X01525Y01119*
X01526Y01119*
X01526Y01118*
X01526Y01118*
X01526Y01118*
X01527Y01118*
X01527Y01119*
X01527Y01119*
X01528Y01119*
X01528Y0112*
X01529Y0112*
X01529Y01121*
X0153Y01121*
X01531Y01122*
X01531Y01122*
X01532Y01122*
X01533Y01123*
X01534Y01123*
X01535*
X01536*
X01536*
G37*
G36*
X00908Y01093D02*
X00903D01*
Y01125*
X00903Y01124*
X00903Y01124*
X00902Y01124*
X00902Y01123*
X00901Y01123*
X009Y01122*
X009Y01122*
X00898Y01121*
X00898Y01121*
X00898Y01121*
X00897Y01121*
X00897Y0112*
X00896Y0112*
X00895Y01119*
X00894Y01119*
X00893Y01119*
Y01123*
X00893*
X00894Y01123*
X00894Y01124*
X00894Y01124*
X00894Y01124*
X00895Y01124*
X00896Y01125*
X00897Y01125*
X00898Y01126*
X00899Y01127*
X009Y01128*
X00901*
Y01128*
X00901Y01128*
X00901Y01128*
X00902Y01129*
X00902Y0113*
X00903Y01131*
X00904Y01131*
X00904Y01132*
X00905Y01133*
X00908*
Y01093*
G37*
G36*
X00887D02*
X00881D01*
X00877Y01106*
X0086*
X00856Y01093*
X0085*
X00865Y01133*
X00871*
X00887Y01093*
G37*
G36*
X0057Y01123D02*
X00571D01*
X00571Y01123*
X00572Y01123*
X00573Y01122*
X00574Y01122*
X00575Y01121*
X00576Y0112*
X00576Y0112*
X00577Y0112*
X00577Y0112*
X00577Y01119*
X00577Y01119*
X00578Y01118*
X00578Y01118*
X00578Y01117*
X00578Y01116*
X00578Y01116*
X00578Y01115*
X00578Y01114*
Y01113*
Y01093*
X00574*
Y01112*
Y01112*
Y01112*
Y01113*
X00574Y01113*
X00573Y01114*
Y01115*
X00573Y01115*
X00573Y01116*
X00573Y01116*
X00573Y01116*
X00573Y01116*
X00573Y01117*
X00572Y01117*
X00572Y01117*
X00571Y01118*
X00571Y01118*
X00571*
X00571Y01118*
X00571Y01118*
X0057Y01118*
X0057Y01119*
X00569*
X00568Y01119*
X00568*
X00568Y01119*
X00567*
X00567Y01118*
X00566Y01118*
X00565Y01118*
X00564Y01117*
X00563Y01117*
Y01116*
X00563Y01116*
X00563Y01116*
X00562Y01115*
X00562Y01114*
X00562Y01113*
X00561Y01112*
X00561Y0111*
Y01093*
X00556*
Y01112*
Y01112*
Y01112*
Y01113*
Y01113*
X00556Y01114*
X00556Y01115*
X00556Y01116*
X00556Y01116*
X00555Y01117*
Y01117*
X00555Y01117*
X00555Y01117*
X00554Y01118*
X00554Y01118*
X00553Y01118*
X00552Y01119*
X00551Y01119*
X00551*
X00551Y01119*
X0055*
X0055Y01118*
X00549Y01118*
X00548Y01118*
X00548Y01118*
X00548Y01117*
X00547Y01117*
X00547Y01117*
X00547Y01117*
X00546Y01116*
X00546Y01116*
X00545Y01115*
X00545Y01114*
Y01114*
X00545Y01114*
X00545Y01113*
X00545Y01113*
X00545Y01112*
X00544Y01111*
Y0111*
X00544Y01108*
Y01093*
X00539*
Y01122*
X00544*
Y01118*
X00544Y01118*
X00544Y01118*
X00544Y01119*
X00545Y01119*
X00545Y0112*
X00546Y0112*
X00547Y01121*
X00547Y01122*
X00547Y01122*
X00548Y01122*
X00548Y01122*
X00549Y01122*
X0055Y01122*
X0055Y01123*
X00551Y01123*
X00552*
X00553*
X00554*
X00554Y01123*
X00555Y01123*
X00556Y01122*
X00557Y01122*
X00558Y01122*
X00558Y01121*
X00558Y01121*
X00558Y01121*
X00559Y01121*
X00559Y0112*
X0056Y01119*
X0056Y01119*
X00561Y01118*
Y01118*
X00561Y01118*
X00561Y01118*
X00561Y01119*
X00562Y01119*
X00562Y01119*
X00562Y0112*
X00563Y0112*
X00564Y01121*
X00564Y01121*
X00565Y01122*
X00566Y01122*
X00567Y01122*
X00568Y01123*
X00569Y01123*
X0057*
X0057*
X0057*
G37*
G36*
X00532Y01128D02*
X00516D01*
X00514Y01117*
Y01117*
X00514*
X00514Y01117*
X00514Y01118*
X00515Y01118*
X00515Y01118*
X00516Y01119*
X00517Y01119*
X00518Y01119*
X0052Y0112*
X0052Y0112*
X00522*
X00522*
X00522Y0112*
X00523*
X00524Y0112*
X00524Y01119*
X00526Y01119*
X00526Y01119*
X00527Y01118*
X00528Y01118*
X00529Y01117*
X00529Y01117*
X0053Y01116*
X0053Y01116*
X0053Y01116*
X0053Y01116*
X00531Y01115*
X00531Y01115*
X00531Y01114*
X00532Y01114*
X00532Y01113*
X00532Y01112*
X00533Y01112*
X00533Y01111*
X00533Y0111*
X00533Y01109*
X00533Y01108*
X00534Y01107*
Y01107*
Y01106*
X00533Y01106*
Y01106*
X00533Y01105*
X00533Y01104*
X00533Y01104*
X00533Y01102*
X00532Y01101*
X00532Y011*
X00531Y01099*
X00531Y01098*
X0053Y01098*
X0053Y01097*
X0053Y01097*
X0053Y01097*
X00529Y01096*
X00529Y01096*
X00528Y01096*
X00528Y01095*
X00527Y01095*
X00526Y01094*
X00525Y01094*
X00524Y01094*
X00523Y01093*
X00522Y01093*
X00521Y01093*
X0052Y01093*
X00519*
X00519Y01093*
X00519*
X00518Y01093*
X00517*
X00517Y01093*
X00515Y01094*
X00514Y01094*
X00513Y01094*
X00512Y01095*
X00512Y01095*
X00511Y01096*
X00511Y01096*
X00511*
X00511Y01096*
X00511Y01096*
X0051Y01097*
X0051Y01097*
X0051Y01097*
X00509Y01098*
X00509Y01098*
X00509Y01099*
X00508Y011*
X00507Y01102*
X00507Y01103*
X00507Y01104*
X00512Y01104*
Y01104*
Y01104*
Y01104*
X00512Y01104*
X00513Y01103*
X00513Y01102*
X00513Y01101*
X00514Y011*
X00514Y01099*
X00515Y01099*
X00515Y01099*
X00515Y01098*
X00516Y01098*
X00516Y01098*
X00517Y01097*
X00518Y01097*
X00519Y01097*
X0052Y01097*
X0052*
X00521Y01097*
X00521*
X00522Y01097*
X00523Y01097*
X00524Y01098*
X00525Y01099*
X00525Y01099*
X00526Y01099*
X00526Y011*
X00526Y011*
X00526Y011*
X00527Y01101*
X00527Y01101*
X00528Y01102*
X00528Y01103*
X00528Y01105*
X00528Y01106*
Y01106*
Y01107*
Y01107*
Y01107*
Y01107*
Y01108*
X00528Y01108*
X00528Y01109*
X00528Y0111*
X00527Y01111*
X00527Y01112*
X00526Y01113*
X00526Y01113*
X00526Y01113*
X00525Y01114*
X00524Y01114*
X00523Y01115*
X00522Y01115*
X00521Y01115*
X00521Y01115*
X00519*
X00519*
X00518Y01115*
X00518Y01115*
X00517Y01115*
X00516Y01115*
X00516Y01114*
X00515Y01114*
X00515Y01114*
X00514Y01114*
X00514Y01113*
X00514Y01113*
X00513Y01112*
X00513Y01112*
X00508Y01112*
X00512Y01133*
X00532*
Y01128*
G37*
G36*
X00387Y00339D02*
X00388Y00339D01*
X00389Y00339*
X0039Y00339*
X0039Y00339*
X00391Y00338*
X00391*
X00392Y00338*
X00392Y00338*
X00392Y00338*
X00392Y00337*
X00393Y00337*
X00393Y00336*
X00394Y00336*
Y00336*
X00394Y00336*
X00394Y00335*
X00394Y00335*
Y00334*
X00394Y00333*
X00394Y00332*
Y00331*
Y00323*
Y00323*
Y00323*
Y00323*
Y00322*
Y00322*
Y00321*
X00394Y0032*
Y0032*
Y00319*
Y00319*
Y00319*
Y00319*
X00394Y00318*
X00394Y00318*
X00395Y00318*
X00395Y00318*
X00395Y00317*
X00395*
X00395Y00317*
X00396*
X00396Y00317*
X00396Y00318*
X00396Y00318*
X00396Y00318*
X00397Y00318*
X00397Y00318*
X00397Y00318*
X00398Y00319*
X00398Y00319*
Y00318*
X00398*
X00398Y00318*
X00398Y00318*
X00398Y00317*
X00397Y00317*
X00396Y00316*
X00395Y00315*
X00395Y00315*
X00394Y00314*
X00394Y00314*
X00393Y00314*
X00392Y00314*
X00392*
X00392Y00314*
X00392*
X00391Y00314*
X00391Y00314*
X00391Y00315*
X0039Y00315*
X0039*
Y00315*
X0039Y00315*
X0039Y00316*
X0039Y00316*
X0039Y00317*
Y00317*
X0039Y00318*
X00389Y00318*
X00389Y00318*
X00389Y00318*
X00388Y00317*
X00388Y00316*
X00387Y00316*
X00386Y00315*
X00385Y00315*
X00385Y00315*
X00385Y00315*
X00385*
X00385Y00315*
X00384Y00314*
X00384Y00314*
X00384Y00314*
X00383Y00314*
X00383*
X00382Y00314*
X00382*
X00382Y00314*
X00381*
X00381Y00314*
X0038Y00314*
X00379Y00315*
X00379Y00315*
X00378Y00316*
X00378*
X00378Y00316*
X00377Y00316*
X00377Y00317*
X00377Y00318*
X00377Y00318*
X00376Y00319*
Y0032*
Y0032*
Y00321*
Y00321*
X00376Y00321*
Y00322*
X00377Y00322*
X00377Y00323*
X00377Y00323*
X00377Y00324*
X00378Y00324*
X00378Y00324*
X00378Y00325*
X00379Y00325*
X0038Y00326*
X00381Y00327*
X00381*
X00381Y00327*
X00381Y00327*
X00382Y00327*
X00382Y00327*
X00382Y00328*
X00383Y00328*
X00383Y00328*
X00384Y00328*
X00385Y00329*
X00386Y00329*
X00387Y00329*
X00387Y0033*
X00389Y0033*
X0039Y00331*
Y00332*
Y00332*
Y00332*
Y00332*
Y00333*
X00389Y00334*
X00389Y00334*
X00389Y00335*
X00389Y00336*
X00388Y00336*
Y00337*
X00388Y00337*
X00388Y00337*
X00388Y00337*
X00387Y00337*
X00387Y00338*
X00386Y00338*
X00385*
X00385*
X00385*
X00384Y00338*
X00384Y00338*
X00383Y00337*
X00383Y00337*
X00383Y00337*
Y00337*
X00382Y00337*
X00382Y00337*
X00382Y00336*
X00382Y00336*
X00382Y00335*
Y00335*
Y00333*
Y00333*
Y00333*
Y00333*
Y00333*
X00381Y00332*
X00381Y00332*
X00381Y00331*
X00381Y00331*
X00381Y00331*
X0038Y00331*
X0038Y00331*
X00379*
X00379*
X00379*
X00379Y00331*
X00378Y00331*
X00378Y00331*
X00378Y00331*
Y00332*
X00378*
Y00332*
X00378Y00332*
X00377Y00332*
X00377Y00333*
Y00333*
X00377Y00333*
Y00333*
X00377Y00334*
Y00334*
X00377Y00335*
X00378Y00335*
X00378Y00336*
X00379Y00337*
X00379Y00338*
X0038Y00338*
X0038Y00338*
X0038Y00338*
X00381Y00339*
X00382Y00339*
X00383Y00339*
X00385Y00339*
X00386*
X00387*
X00387*
G37*
G36*
X00617Y01123D02*
X00617D01*
X00617Y01123*
X00618Y01123*
X00619Y01122*
X0062Y01122*
X00622Y01121*
X00622Y0112*
X00623Y0112*
X00623Y0112*
X00623Y0112*
X00623Y01119*
X00624Y01119*
X00624Y01118*
X00624Y01118*
X00624Y01117*
X00624Y01116*
X00625Y01116*
X00625Y01115*
X00625Y01114*
Y01113*
Y01093*
X0062*
Y01112*
Y01112*
Y01112*
Y01113*
Y01113*
X0062Y01114*
X0062Y01115*
X0062Y01115*
X00619Y01116*
X00619Y01116*
X00619Y01116*
X00619Y01116*
X00619Y01117*
X00618Y01117*
X00618Y01117*
X00618Y01118*
Y01118*
X00617*
X00617Y01118*
X00617Y01118*
X00616Y01118*
X00616Y01119*
X00615*
X00615Y01119*
X00614*
X00614Y01119*
X00614*
X00613Y01118*
X00612Y01118*
X00611Y01118*
X0061Y01117*
X0061Y01117*
X0061Y01116*
X00609Y01116*
X00609Y01116*
X00609Y01115*
X00608Y01114*
X00608Y01113*
X00608Y01112*
X00608Y0111*
Y01093*
X00603*
Y01112*
Y01112*
Y01112*
Y01113*
Y01113*
X00603Y01114*
X00602Y01115*
X00602Y01116*
X00602Y01116*
X00602Y01117*
Y01117*
X00601Y01117*
X00601Y01117*
X00601Y01118*
X006Y01118*
X00599Y01118*
X00599Y01119*
X00598Y01119*
X00597*
X00597Y01119*
X00596*
X00596Y01118*
X00595Y01118*
X00595Y01118*
X00594Y01118*
Y01117*
X00594Y01117*
X00593Y01117*
X00593Y01117*
X00592Y01116*
X00592Y01116*
X00592Y01115*
X00591Y01114*
X00591Y01114*
Y01114*
X00591Y01113*
X00591Y01113*
X00591Y01112*
X00591Y01111*
X00591Y0111*
Y01108*
Y01093*
X00586*
Y01122*
X0059*
Y01118*
Y01118*
X0059Y01118*
X00591Y01119*
X00591Y01119*
X00592Y0112*
X00592Y0112*
X00593Y01121*
X00594Y01122*
X00594Y01122*
X00594Y01122*
X00594Y01122*
X00595Y01122*
X00596Y01122*
X00597Y01123*
X00598Y01123*
X00599*
X00599*
X006*
X00601Y01123*
X00601Y01123*
X00602Y01122*
X00603Y01122*
X00604Y01122*
X00604Y01121*
X00604Y01121*
X00605Y01121*
X00605Y01121*
X00606Y0112*
X00606Y01119*
X00607Y01119*
X00607Y01118*
X00607Y01118*
X00607Y01118*
X00607Y01118*
X00608Y01119*
X00608Y01119*
X00608Y01119*
X00609Y0112*
X00609Y0112*
X0061Y01121*
X00611Y01121*
X00611Y01122*
X00612Y01122*
X00613Y01122*
X00614Y01123*
X00615Y01123*
X00616*
X00616*
X00617*
G37*
G36*
X00428Y01093D02*
X00422D01*
X00417Y01106*
X004*
X00396Y01093*
X00391*
X00406Y01133*
X00412*
X00428Y01093*
G37*
G36*
X005D02*
Y01093D01*
Y01093*
Y01093*
Y01092*
X005Y01092*
X005Y01091*
X005Y0109*
X00499Y01089*
X00499Y01089*
Y01088*
X00499Y01088*
X00498Y01088*
X00498Y01087*
X00498Y01087*
X00497Y01087*
X00496Y01086*
X00495Y01086*
X00494Y01088*
X00494Y01088*
X00494*
X00495Y01088*
X00495Y01088*
X00495Y01088*
X00496Y01089*
X00496Y01089*
X00496Y0109*
X00496Y0109*
X00496Y0109*
X00497Y0109*
X00497Y01091*
X00497Y01091*
X00497Y01092*
X00497Y01093*
X00497Y01093*
X00494*
Y01099*
X005*
Y01093*
G37*
G36*
X00487Y01129D02*
X00487Y01129D01*
X00487Y01129*
X00487Y01128*
X00486Y01128*
X00486Y01128*
X00485Y01127*
X00485Y01127*
X00485Y01126*
X00484Y01125*
X00483Y01124*
X00483Y01124*
X00482Y01123*
X00481Y01122*
X00481Y0112*
X0048Y01119*
X00479Y01118*
X00479*
X00479Y01118*
X00479Y01117*
X00479Y01117*
X00478Y01116*
X00478Y01116*
X00478Y01115*
X00477Y01114*
X00477Y01113*
X00476Y01112*
X00476Y01111*
X00475Y01109*
X00474Y01107*
X00474Y01104*
Y01104*
X00474Y01104*
X00473Y01104*
X00473Y01103*
X00473Y01103*
X00473Y01102*
X00473Y01102*
X00473Y01101*
X00473Y011*
X00473Y01099*
X00472Y01098*
X00472Y01096*
X00472Y01093*
X00467*
Y01094*
Y01094*
Y01094*
X00467Y01094*
Y01095*
Y01095*
X00467Y01096*
X00467Y01097*
X00467Y01097*
X00467Y01098*
X00467Y01099*
X00468Y011*
X00468Y01101*
X00468Y01102*
X00469Y01105*
Y01105*
X00469Y01105*
X00469Y01105*
X00469Y01106*
X00469Y01106*
X00469Y01107*
X0047Y01108*
X0047Y01109*
X0047Y0111*
X00471Y01111*
X00471Y01113*
X00472Y01115*
X00474Y01117*
Y01118*
X00474Y01118*
X00474Y01118*
X00474Y01119*
X00474Y01119*
X00475Y0112*
X00475Y0112*
X00476Y01121*
X00477Y01123*
X00478Y01125*
X00479Y01126*
X00481Y01128*
X00461*
Y01133*
X00487*
Y01129*
G37*
G36*
X00448Y01093D02*
X00443D01*
Y01125*
Y01124*
X00443Y01124*
X00443Y01124*
X00442Y01123*
X00442Y01123*
X00441Y01122*
X0044Y01122*
X00439Y01121*
X00439*
Y01121*
X00438Y01121*
X00438Y01121*
X00437Y0112*
X00436Y0112*
X00435Y01119*
X00435Y01119*
X00434Y01119*
Y01123*
X00434Y01123*
X00434Y01124*
X00434Y01124*
X00435Y01124*
X00435Y01124*
X00436Y01125*
X00437Y01125*
X00438Y01126*
X0044Y01127*
X00441Y01128*
X00441Y01128*
X00441Y01128*
X00441Y01128*
X00442Y01129*
X00443Y0113*
X00443Y01131*
X00444Y01131*
X00445Y01132*
X00445Y01133*
X00448*
Y01093*
G37*
G36*
X0149Y01123D02*
X0149D01*
X0149Y01123*
X01491Y01123*
X01492Y01122*
X01493Y01122*
X01495Y01121*
X01495Y0112*
X01496Y0112*
X01496Y0112*
X01496Y0112*
X01496Y01119*
X01497Y01119*
X01497Y01118*
X01497Y01118*
X01497Y01117*
X01497Y01116*
X01498Y01116*
X01498Y01115*
X01498Y01114*
Y01113*
Y01093*
X01493*
Y01112*
Y01112*
Y01112*
Y01113*
Y01113*
X01493Y01114*
Y01115*
X01493Y01115*
X01492Y01116*
X01492Y01116*
X01492Y01116*
X01492Y01116*
X01492Y01117*
X01492Y01117*
X01491Y01117*
X01491Y01118*
X01491Y01118*
X0149*
X0149Y01118*
X0149Y01118*
X01489Y01118*
X01489Y01119*
X01488*
X01488Y01119*
X01487*
X01487Y01119*
X01487*
X01486Y01118*
X01485Y01118*
X01484Y01118*
X01483Y01117*
X01483Y01117*
Y01116*
X01482Y01116*
X01482Y01116*
X01482Y01115*
X01481Y01114*
X01481Y01113*
X01481Y01112*
X01481Y0111*
Y01093*
X01476*
Y01112*
Y01112*
Y01112*
Y01113*
Y01113*
X01476Y01114*
X01476Y01115*
X01475Y01116*
X01475Y01116*
X01475Y01117*
Y01117*
X01474Y01117*
X01474Y01117*
X01474Y01118*
X01473Y01118*
X01472Y01118*
X01472Y01119*
X01471Y01119*
X0147*
X0147Y01119*
X01469*
X01469Y01118*
X01468Y01118*
X01468Y01118*
X01467Y01118*
Y01117*
X01467Y01117*
X01466Y01117*
X01466Y01117*
X01466Y01116*
X01465Y01116*
X01465Y01115*
X01464Y01114*
Y01114*
X01464Y01114*
X01464Y01113*
X01464Y01113*
X01464Y01112*
X01464Y01111*
Y0111*
X01464Y01108*
Y01093*
X01459*
Y01122*
X01463*
Y01118*
X01463Y01118*
X01463Y01118*
X01464Y01119*
X01464Y01119*
X01465Y0112*
X01465Y0112*
X01466Y01121*
X01467Y01122*
X01467Y01122*
X01467Y01122*
X01468Y01122*
X01468Y01122*
X01469Y01122*
X0147Y01123*
X01471Y01123*
X01472*
X01472*
X01473*
X01474Y01123*
X01474Y01123*
X01475Y01122*
X01476Y01122*
X01477Y01122*
X01477Y01121*
X01477Y01121*
X01478Y01121*
X01478Y01121*
X01479Y0112*
X01479Y01119*
X0148Y01119*
X0148Y01118*
Y01118*
X0148Y01118*
X0148Y01118*
X01481Y01119*
X01481Y01119*
X01481Y01119*
X01482Y0112*
X01482Y0112*
X01483Y01121*
X01484Y01121*
X01484Y01122*
X01485Y01122*
X01486Y01122*
X01487Y01123*
X01488Y01123*
X01489*
X01489*
X0149*
G37*
G36*
X01807Y01093D02*
X01801D01*
X01796Y01106*
X01779*
X01775Y01093*
X0177*
X01785Y01133*
X0179*
X01807Y01093*
G37*
G36*
X01879D02*
Y01093D01*
Y01093*
Y01093*
Y01092*
X01879Y01092*
X01879Y01091*
X01878Y0109*
X01878Y01089*
X01878Y01089*
X01878Y01088*
X01878Y01088*
X01877Y01088*
X01877Y01087*
X01876Y01087*
X01876Y01087*
X01875Y01086*
X01874Y01086*
X01873Y01088*
X01873Y01088*
X01873*
X01874Y01088*
X01874Y01088*
X01874Y01088*
X01875Y01089*
X01875Y01089*
X01875Y0109*
Y0109*
X01875Y0109*
X01875Y0109*
X01876Y01091*
X01876Y01091*
X01876Y01092*
X01876Y01093*
Y01093*
X01873*
Y01099*
X01879*
Y01093*
G37*
G36*
X01866Y01129D02*
Y01129D01*
X01866Y01129*
X01865Y01128*
X01865Y01128*
X01865Y01128*
X01864Y01127*
X01864Y01127*
X01863Y01126*
X01863Y01125*
X01862Y01124*
X01862Y01124*
X01861Y01123*
X0186Y01122*
X0186Y0112*
X01859Y01119*
X01858Y01118*
X01858Y01118*
X01858Y01117*
X01858Y01117*
X01857Y01116*
X01857Y01116*
X01857Y01115*
X01856Y01114*
X01856Y01113*
X01855Y01112*
X01855Y01111*
X01854Y01109*
X01853Y01107*
X01853Y01104*
Y01104*
X01852Y01104*
Y01104*
X01852Y01103*
X01852Y01103*
X01852Y01102*
X01852Y01102*
X01852Y01101*
X01852Y011*
X01851Y01099*
X01851Y01098*
X01851Y01096*
X01851Y01093*
X01846*
Y01094*
Y01094*
Y01094*
Y01094*
Y01095*
X01846Y01095*
Y01096*
X01846Y01097*
X01846Y01097*
X01846Y01098*
X01846Y01099*
X01847Y011*
X01847Y01101*
X01847Y01102*
X01847Y01105*
Y01105*
X01848Y01105*
X01848Y01105*
X01848Y01106*
X01848Y01106*
X01848Y01107*
X01848Y01108*
X01849Y01109*
X01849Y0111*
X0185Y01111*
X0185Y01113*
X01851Y01115*
X01853Y01117*
X01853Y01118*
X01853Y01118*
X01853Y01118*
X01853Y01119*
X01853Y01119*
X01854Y0112*
X01854Y0112*
X01855Y01121*
X01856Y01123*
X01857Y01125*
X01858Y01126*
X0186Y01128*
X0184*
Y01133*
X01866*
Y01129*
G37*
G36*
X01827Y01093D02*
X01822D01*
Y01125*
X01822Y01124*
X01822Y01124*
X01822Y01124*
X01821Y01123*
X01821Y01123*
X0182Y01122*
X01819Y01122*
X01818Y01121*
X01818Y01121*
X01817Y01121*
X01817Y01121*
X01816Y0112*
X01815Y0112*
X01814Y01119*
X01814Y01119*
X01813Y01119*
Y01123*
X01813*
X01813Y01123*
X01813Y01124*
X01813Y01124*
X01814Y01124*
X01814Y01124*
X01815Y01125*
X01816Y01125*
X01817Y01126*
X01819Y01127*
X0182Y01128*
X0182*
Y01128*
X0182Y01128*
X0182Y01128*
X01821Y01129*
X01821Y0113*
X01822Y01131*
X01823Y01131*
X01824Y01132*
X01824Y01133*
X01827*
Y01093*
G37*
G36*
X00824Y02548D02*
X00846D01*
Y02542*
X00823Y0251*
X00818*
Y02542*
X00811*
Y02548*
X00818*
Y0256*
X00824*
Y02548*
G37*
G36*
X00398Y02521D02*
X00398Y02521D01*
X00399Y02521*
X00399Y02522*
X004Y02522*
X00401Y02523*
X00402Y02523*
X00403Y02524*
X00404Y02525*
X00404*
Y02525*
X00405Y02525*
X00405Y02526*
X00406Y02526*
X00407Y02527*
X00408Y02527*
X00409Y02528*
X0041Y02528*
Y02522*
X0041*
X0041Y02522*
X0041Y02522*
X00409Y02522*
X00409Y02522*
X00409Y02521*
X00407Y02521*
X00406Y0252*
X00404Y02519*
X00403Y02518*
X00401Y02516*
X00401*
Y02516*
X00401Y02516*
X00401Y02516*
X004Y02515*
X00399Y02514*
X00398Y02513*
X00398Y02512*
X00397Y02511*
X00396Y0251*
X00392*
Y0256*
X00398*
Y02521*
G37*
G36*
X01833Y02548D02*
X01855D01*
Y02542*
X01832Y0251*
X01827*
Y02542*
X0182*
Y02548*
X01827*
Y0256*
X01833*
Y02548*
G37*
G36*
X01407Y02521D02*
X01407Y02521D01*
X01408Y02521*
X01408Y02522*
X01409Y02522*
X0141Y02523*
X01411Y02523*
X01412Y02524*
X01413Y02525*
X01413*
X01413Y02525*
X01414Y02525*
X01414Y02526*
X01415Y02526*
X01416Y02527*
X01417Y02527*
X01418Y02528*
X0142Y02528*
Y02522*
X01419*
X01419Y02522*
X01419Y02522*
X01419Y02522*
X01418Y02522*
X01418Y02521*
X01417Y02521*
X01415Y0252*
X01414Y02519*
X01412Y02518*
X01411Y02516*
X01411*
Y02516*
X0141Y02516*
X0141Y02516*
X01409Y02515*
X01409Y02514*
X01408Y02513*
X01407Y02512*
X01406Y02511*
X01405Y0251*
X01401*
Y0256*
X01407*
Y02521*
G37*
G36*
X01368Y01093D02*
X01363D01*
Y01125*
Y01124*
X01362Y01124*
X01362Y01124*
X01362Y01123*
X01361Y01123*
X0136Y01122*
X01359Y01122*
X01358Y01121*
X01358*
Y01121*
X01358Y01121*
X01357Y01121*
X01356Y0112*
X01356Y0112*
X01355Y01119*
X01354Y01119*
X01353Y01119*
Y01123*
X01353Y01123*
X01353Y01124*
X01354Y01124*
X01354Y01124*
X01354Y01124*
X01355Y01125*
X01357Y01125*
X01358Y01126*
X01359Y01127*
X0136Y01128*
X0136Y01128*
X0136Y01128*
X01361Y01128*
X01361Y01129*
X01362Y0113*
X01363Y01131*
X01363Y01131*
X01364Y01132*
X01364Y01133*
X01368*
Y01093*
G37*
G36*
X01347D02*
X01341D01*
X01336Y01106*
X0132*
X01315Y01093*
X0131*
X01325Y01133*
X01331*
X01347Y01093*
G37*
G36*
X01451Y01128D02*
X01435D01*
X01433Y01117*
Y01117*
X01433*
X01433Y01117*
X01434Y01118*
X01434Y01118*
X01434Y01118*
X01435Y01119*
X01436Y01119*
X01438Y01119*
X01439Y0112*
X0144Y0112*
X01441*
X01441*
X01442Y0112*
X01442*
X01443Y0112*
X01443Y01119*
X01445Y01119*
X01446Y01119*
X01446Y01118*
X01447Y01118*
X01448Y01117*
X01449Y01117*
X01449Y01116*
X01449Y01116*
X0145Y01116*
X0145Y01116*
X0145Y01115*
X0145Y01115*
X01451Y01114*
X01451Y01114*
X01451Y01113*
X01452Y01112*
X01452Y01112*
X01452Y01111*
X01452Y0111*
X01453Y01109*
X01453Y01108*
X01453Y01107*
Y01107*
Y01106*
X01453Y01106*
Y01106*
X01453Y01105*
X01453Y01104*
X01452Y01104*
X01452Y01102*
X01452Y01101*
X01451Y011*
X01451Y01099*
X0145Y01098*
X0145Y01098*
X0145Y01097*
X01449Y01097*
X01449Y01097*
X01449Y01096*
X01448Y01096*
X01448Y01096*
X01447Y01095*
X01446Y01095*
X01445Y01094*
X01445Y01094*
X01444Y01094*
X01443Y01093*
X01442Y01093*
X0144Y01093*
X01439Y01093*
X01439*
X01438Y01093*
X01438*
X01437Y01093*
X01437*
X01436Y01093*
X01435Y01094*
X01433Y01094*
X01432Y01094*
X01432Y01095*
X01431Y01095*
X0143Y01096*
X0143Y01096*
X0143*
X0143Y01096*
X0143Y01096*
X0143Y01097*
X01429Y01097*
X01429Y01097*
X01429Y01098*
X01428Y01098*
X01428Y01099*
X01427Y011*
X01427Y01102*
X01427Y01103*
X01426Y01104*
X01432Y01104*
Y01104*
Y01104*
X01432Y01104*
X01432Y01104*
X01432Y01103*
X01432Y01102*
X01432Y01101*
X01433Y011*
X01433Y01099*
X01434Y01099*
X01434Y01099*
X01435Y01098*
X01435Y01098*
X01436Y01098*
X01436Y01097*
X01437Y01097*
X01438Y01097*
X01439Y01097*
X0144*
X0144Y01097*
X0144*
X01441Y01097*
X01442Y01097*
X01443Y01098*
X01444Y01099*
X01445Y01099*
X01445Y01099*
X01445*
X01445Y011*
X01445Y011*
X01446Y011*
X01446Y01101*
X01446Y01101*
X01447Y01102*
X01447Y01103*
X01448Y01105*
X01448Y01106*
Y01106*
Y01107*
Y01107*
Y01107*
Y01107*
Y01108*
X01448Y01108*
X01447Y01109*
X01447Y0111*
X01447Y01111*
X01446Y01112*
X01445Y01113*
X01445Y01113*
X01445Y01113*
X01444Y01114*
X01444Y01114*
X01443Y01115*
X01442Y01115*
X01441Y01115*
X0144Y01115*
X01439*
X01438*
X01438Y01115*
X01437Y01115*
X01436Y01115*
X01436Y01115*
X01435Y01114*
X01435Y01114*
X01434Y01114*
X01434Y01114*
X01433Y01113*
X01433Y01113*
X01432Y01112*
X01432Y01112*
X01427Y01112*
X01431Y01133*
X01451*
Y01128*
G37*
G36*
X01406Y01129D02*
X01406Y01129D01*
X01406Y01129*
X01406Y01128*
X01406Y01128*
X01405Y01128*
X01405Y01127*
X01404Y01127*
X01404Y01126*
X01403Y01125*
X01403Y01124*
X01402Y01124*
X01401Y01123*
X01401Y01122*
X014Y0112*
X01399Y01119*
X01399Y01118*
X01399*
X01398Y01118*
X01398Y01117*
X01398Y01117*
X01398Y01116*
X01397Y01116*
X01397Y01115*
X01397Y01114*
X01396Y01113*
X01396Y01112*
X01395Y01111*
X01395Y01109*
X01394Y01107*
X01393Y01104*
Y01104*
X01393Y01104*
X01393Y01104*
X01393Y01103*
X01393Y01103*
X01392Y01102*
X01392Y01102*
X01392Y01101*
X01392Y011*
X01392Y01099*
X01392Y01098*
X01391Y01096*
X01391Y01093*
X01386*
Y01094*
Y01094*
Y01094*
X01386Y01094*
Y01095*
Y01095*
X01386Y01096*
X01386Y01097*
X01386Y01097*
X01387Y01098*
X01387Y01099*
X01387Y011*
X01387Y01101*
X01387Y01102*
X01388Y01105*
Y01105*
X01388Y01105*
X01388Y01105*
X01388Y01106*
X01388Y01106*
X01389Y01107*
X01389Y01108*
X01389Y01109*
X0139Y0111*
X0139Y01111*
X01391Y01113*
X01392Y01115*
X01393Y01117*
Y01118*
X01393Y01118*
X01393Y01118*
X01393Y01119*
X01394Y01119*
X01394Y0112*
X01395Y0112*
X01395Y01121*
X01396Y01123*
X01397Y01125*
X01399Y01126*
X014Y01128*
X01381*
Y01133*
X01406*
Y01129*
G37*
G36*
X01949Y01123D02*
X0195D01*
X0195Y01123*
X01951Y01123*
X01952Y01122*
X01953Y01122*
X01954Y01121*
X01955Y0112*
X01955Y0112*
X01955Y0112*
X01956Y0112*
X01956Y01119*
X01956Y01119*
X01957Y01118*
X01957Y01118*
X01957Y01117*
X01957Y01116*
X01957Y01116*
X01957Y01115*
X01957Y01114*
Y01113*
Y01093*
X01953*
Y01112*
Y01112*
Y01112*
Y01113*
X01952Y01113*
Y01114*
X01952Y01115*
X01952Y01115*
X01952Y01116*
X01952Y01116*
X01952Y01116*
X01952Y01116*
X01951Y01117*
X01951Y01117*
X01951Y01117*
X0195Y01118*
Y01118*
X0195*
X0195Y01118*
X01949Y01118*
X01949Y01118*
X01949Y01119*
X01948*
X01947Y01119*
X01947*
X01947Y01119*
X01946*
X01946Y01118*
X01945Y01118*
X01944Y01118*
X01943Y01117*
X01942Y01117*
X01942Y01116*
X01942Y01116*
X01942Y01116*
X01941Y01115*
X01941Y01114*
X01941Y01113*
X0194Y01112*
X0194Y0111*
Y01093*
X01935*
Y01112*
Y01112*
Y01112*
Y01113*
X01935Y01113*
X01935Y01114*
X01935Y01115*
X01935Y01116*
X01935Y01116*
X01934Y01117*
X01934Y01117*
X01934Y01117*
X01934Y01117*
X01933Y01118*
X01933Y01118*
X01932Y01118*
X01931Y01119*
X0193Y01119*
X0193*
X0193Y01119*
X01929*
X01929Y01118*
X01928Y01118*
X01927Y01118*
X01927Y01118*
X01926Y01117*
X01926Y01117*
X01926Y01117*
X01926Y01117*
X01925Y01116*
X01925Y01116*
X01924Y01115*
X01924Y01114*
X01924Y01114*
X01924Y01114*
X01924Y01113*
X01924Y01113*
X01923Y01112*
X01923Y01111*
X01923Y0111*
Y01108*
Y01093*
X01918*
Y01122*
X01923*
Y01118*
X01923Y01118*
X01923Y01118*
X01923Y01119*
X01924Y01119*
X01924Y0112*
X01925Y0112*
X01926Y01121*
X01926Y01122*
X01926Y01122*
X01927Y01122*
X01927Y01122*
X01928Y01122*
X01929Y01122*
X01929Y01123*
X0193Y01123*
X01931*
X01932*
X01933*
X01933Y01123*
X01934Y01123*
X01935Y01122*
X01936Y01122*
X01937Y01122*
X01937Y01121*
X01937Y01121*
X01937Y01121*
X01938Y01121*
X01938Y0112*
X01939Y01119*
X01939Y01119*
X0194Y01118*
X0194Y01118*
X0194Y01118*
X0194Y01118*
X0194Y01119*
X01941Y01119*
X01941Y01119*
X01941Y0112*
X01942Y0112*
X01943Y01121*
X01943Y01121*
X01944Y01122*
X01945Y01122*
X01946Y01122*
X01947Y01123*
X01947Y01123*
X01949*
X01949*
X01949*
G37*
G36*
X01911Y01128D02*
X01895D01*
X01893Y01117*
X01893Y01117*
X01893*
X01893Y01117*
X01893Y01118*
X01894Y01118*
X01894Y01118*
X01895Y01119*
X01896Y01119*
X01897Y01119*
X01899Y0112*
X01899Y0112*
X01901*
X01901*
X01901Y0112*
X01902*
X01902Y0112*
X01903Y01119*
X01904Y01119*
X01905Y01119*
X01906Y01118*
X01907Y01118*
X01907Y01117*
X01908Y01117*
X01909Y01116*
X01909*
X01909Y01116*
X01909Y01116*
X01909Y01116*
X0191Y01115*
X0191Y01115*
X0191Y01114*
X01911Y01114*
X01911Y01113*
X01911Y01112*
X01912Y01112*
X01912Y01111*
X01912Y0111*
X01912Y01109*
X01912Y01108*
Y01107*
Y01107*
Y01106*
Y01106*
X01912Y01106*
Y01105*
X01912Y01104*
X01912Y01104*
X01912Y01102*
X01911Y01101*
X01911Y011*
X0191Y01099*
X0191Y01098*
X01909Y01098*
X01909*
X01909Y01097*
X01909Y01097*
X01909Y01097*
X01908Y01096*
X01908Y01096*
X01907Y01096*
X01907Y01095*
X01906Y01095*
X01905Y01094*
X01904Y01094*
X01903Y01094*
X01902Y01093*
X01901Y01093*
X019Y01093*
X01899Y01093*
X01898*
X01898Y01093*
X01897*
X01897Y01093*
X01896*
X01896Y01093*
X01894Y01094*
X01893Y01094*
X01892Y01094*
X01891Y01095*
X01891Y01095*
X0189Y01096*
Y01096*
X0189*
X0189Y01096*
X01889Y01096*
X01889Y01097*
X01889Y01097*
X01889Y01097*
X01888Y01098*
X01888Y01098*
X01888Y01099*
X01887Y011*
X01886Y01102*
X01886Y01103*
X01886Y01104*
X01891Y01104*
Y01104*
Y01104*
Y01104*
X01891Y01104*
X01892Y01103*
X01892Y01102*
X01892Y01101*
X01893Y011*
X01893Y01099*
X01894Y01099*
X01894Y01099*
X01894Y01098*
X01895Y01098*
X01895Y01098*
X01896Y01097*
X01897Y01097*
X01898Y01097*
X01899Y01097*
X01899*
X01899Y01097*
X019*
X01901Y01097*
X01902Y01097*
X01903Y01098*
X01904Y01099*
X01904Y01099*
X01905Y01099*
X01905Y011*
X01905Y011*
X01905Y011*
X01906Y01101*
X01906Y01101*
X01907Y01102*
X01907Y01103*
X01907Y01105*
X01907Y01106*
Y01106*
Y01107*
Y01107*
Y01107*
X01907Y01107*
Y01108*
X01907Y01108*
X01907Y01109*
X01907Y0111*
X01906Y01111*
X01906Y01112*
X01905Y01113*
X01905Y01113*
X01905Y01113*
X01904Y01114*
X01903Y01114*
X01902Y01115*
X01901Y01115*
X019Y01115*
X019Y01115*
X01898*
X01898*
X01897Y01115*
X01897Y01115*
X01896Y01115*
X01895Y01115*
X01895Y01114*
X01894*
X01894Y01114*
X01894Y01114*
X01893Y01114*
X01893Y01113*
X01893Y01113*
X01892Y01112*
X01892Y01112*
X01887Y01112*
X01891Y01133*
X01911*
Y01128*
G37*
G36*
X01419Y01093D02*
Y01093D01*
Y01093*
Y01093*
X01419Y01092*
Y01092*
X01419Y01091*
X01419Y0109*
X01419Y01089*
X01418Y01089*
Y01088*
X01418Y01088*
X01418Y01088*
X01417Y01087*
X01417Y01087*
X01416Y01087*
X01416Y01086*
X01415Y01086*
X01413Y01088*
Y01088*
X01414*
X01414Y01088*
X01414Y01088*
X01415Y01088*
X01415Y01089*
X01415Y01089*
X01416Y0109*
X01416Y0109*
Y0109*
X01416Y0109*
X01416Y01091*
X01416Y01091*
X01416Y01092*
X01416Y01093*
X01416Y01093*
X01414*
Y01099*
X01419*
Y01093*
G37*
G36*
X01995Y01123D02*
X01996D01*
X01996Y01123*
X01997Y01123*
X01998Y01122*
X01999Y01122*
X02Y01121*
X02001Y0112*
X02002Y0112*
X02002Y0112*
X02002Y0112*
X02002Y01119*
X02003Y01119*
X02003Y01118*
X02003Y01118*
X02003Y01117*
X02003Y01116*
X02003Y01116*
X02004Y01115*
X02004Y01114*
Y01113*
Y01093*
X01999*
Y01112*
Y01112*
Y01112*
Y01113*
X01999Y01113*
X01999Y01114*
Y01115*
X01999Y01115*
X01998Y01116*
X01998Y01116*
X01998Y01116*
X01998Y01116*
X01998Y01117*
X01997Y01117*
X01997Y01117*
X01997Y01118*
X01997Y01118*
X01996*
X01996Y01118*
X01996Y01118*
X01995Y01118*
X01995Y01119*
X01994*
X01994Y01119*
X01993*
X01993Y01119*
X01993*
X01992Y01118*
X01991Y01118*
X0199Y01118*
X01989Y01117*
X01989Y01117*
Y01116*
X01988Y01116*
X01988Y01116*
X01988Y01115*
X01987Y01114*
X01987Y01113*
X01987Y01112*
X01987Y0111*
Y01093*
X01982*
Y01112*
Y01112*
Y01112*
Y01113*
Y01113*
X01982Y01114*
X01981Y01115*
X01981Y01116*
X01981Y01116*
X0198Y01117*
Y01117*
X0198Y01117*
X0198Y01117*
X0198Y01118*
X01979Y01118*
X01978Y01118*
X01978Y01119*
X01977Y01119*
X01976*
X01976Y01119*
X01975*
X01975Y01118*
X01974Y01118*
X01973Y01118*
X01973Y01118*
X01973Y01117*
X01973Y01117*
X01972Y01117*
X01972Y01117*
X01971Y01116*
X01971Y01116*
X01971Y01115*
X0197Y01114*
Y01114*
X0197Y01114*
X0197Y01113*
X0197Y01113*
X0197Y01112*
X0197Y01111*
Y0111*
X01969Y01108*
Y01093*
X01965*
Y01122*
X01969*
Y01118*
X01969Y01118*
X01969Y01118*
X0197Y01119*
X0197Y01119*
X0197Y0112*
X01971Y0112*
X01972Y01121*
X01973Y01122*
X01973Y01122*
X01973Y01122*
X01973Y01122*
X01974Y01122*
X01975Y01122*
X01976Y01123*
X01977Y01123*
X01978*
X01978*
X01979*
X0198Y01123*
X0198Y01123*
X01981Y01122*
X01982Y01122*
X01983Y01122*
X01983Y01121*
X01983Y01121*
X01984Y01121*
X01984Y01121*
X01985Y0112*
X01985Y01119*
X01985Y01119*
X01986Y01118*
Y01118*
X01986Y01118*
X01986Y01118*
X01986Y01119*
X01987Y01119*
X01987Y01119*
X01988Y0112*
X01988Y0112*
X01989Y01121*
X0199Y01121*
X0199Y01122*
X01991Y01122*
X01992Y01122*
X01993Y01123*
X01994Y01123*
X01995*
X01995*
X01995*
G37*
G36*
X00392Y00214D02*
D01*
X00392Y00214*
X00392Y00214*
X00391Y00214*
X0039Y00214*
X0039Y00213*
X0039Y00213*
X00389Y00213*
X00389Y00213*
X00389Y00212*
X00388Y00212*
X00388Y00211*
X00388Y0021*
X00387Y00209*
X00375Y00179*
X00374*
X0036Y0021*
Y0021*
X0036*
X0036Y0021*
X0036Y0021*
X0036Y00211*
X00359Y00211*
X00359Y00212*
X00359Y00212*
X00359Y00213*
X00359Y00213*
X00358Y00213*
X00358Y00213*
X00357Y00214*
X00357*
X00357*
X00357Y00214*
X00356Y00214*
X00356Y00214*
X00356Y00214*
X00355Y00214*
X00354Y00214*
Y00215*
X00369*
Y00214*
X00369*
X00369Y00214*
X00368Y00214*
X00368Y00214*
X00367Y00214*
X00367Y00214*
X00366Y00214*
X00366Y00214*
X00366Y00213*
X00366Y00213*
X00365Y00213*
Y00212*
X00365Y00212*
Y00212*
X00365Y00211*
X00365Y00211*
X00366Y0021*
X00366Y0021*
X00366Y00209*
X00366Y00208*
X00376Y00187*
X00384Y00208*
Y00208*
X00384*
Y00208*
X00384Y00208*
X00384Y00209*
X00385Y00209*
X00385Y0021*
X00385Y00211*
X00385Y00211*
Y00212*
Y00212*
X00385Y00212*
X00385Y00213*
X00385Y00213*
X00385Y00213*
X00384Y00213*
X00384Y00213*
X00384Y00214*
X00384Y00214*
X00384Y00214*
X00383Y00214*
X00383Y00214*
X00382Y00214*
X00382Y00214*
X00382*
X00381Y00214*
Y00215*
X00392*
Y00214*
G37*
G36*
X00525Y00273D02*
X00525D01*
X00524Y00273*
X00524Y00273*
X00523Y00273*
X00523Y00272*
X00523Y00272*
X00523*
X00523Y00272*
X00523Y00272*
X00522Y00272*
X00522Y00271*
X00522Y00271*
X00521Y0027*
X00521Y0027*
X00513Y00249*
X00512*
X00503Y00269*
Y00269*
X00503Y00269*
X00503Y0027*
X00503Y0027*
X00502Y00271*
X00502Y00271*
X00502Y00271*
Y00271*
X00502*
X00501Y00272*
X00501Y00272*
X005Y00272*
X005*
X005Y00272*
X005*
X005Y00273*
X005Y00273*
X00499*
X00499Y00273*
Y00274*
X0051*
Y00273*
X00509*
X00509Y00273*
X00508Y00273*
X00508Y00272*
X00508Y00272*
X00508Y00272*
X00507Y00271*
X00507Y00271*
Y00271*
Y00271*
X00507Y00271*
Y0027*
Y0027*
X00507Y0027*
X00508Y00269*
X00513Y00255*
X00519Y00269*
Y00269*
X00519Y00269*
X00519Y0027*
X00519Y0027*
X0052Y00271*
X0052Y00271*
Y00271*
Y00272*
Y00272*
X0052Y00272*
X00519Y00272*
Y00272*
X00519Y00272*
X00519Y00272*
X00519Y00273*
X00519*
X00518*
X00518Y00273*
X00518*
X00518Y00273*
X00517*
Y00274*
X00525*
Y00273*
G37*
G36*
X00311Y00284D02*
X00309D01*
X00309Y00284*
X00308Y00284*
X00308Y00284*
X00307Y00284*
X00307Y00283*
X00306Y00283*
Y00283*
X00306Y00283*
X00306Y00283*
X00306Y00282*
X00306Y00282*
X00306Y00281*
X00306Y0028*
Y00279*
Y00256*
Y00256*
Y00255*
Y00255*
X00306Y00255*
Y00254*
X00306Y00253*
X00306Y00253*
X00306Y00252*
X00306Y00252*
X00306Y00252*
X00306Y00252*
X00306Y00251*
X00307Y00251*
X00307Y00251*
X00308Y00251*
X00308Y00251*
X00309Y00251*
X00309Y00251*
X00311*
Y0025*
X00295*
Y00251*
X00297*
X00297Y00251*
X00298Y00251*
X00298Y00251*
X00299Y00251*
X003Y00251*
X003Y00252*
Y00252*
X003Y00252*
X003Y00252*
X003Y00253*
X003Y00253*
X003Y00254*
X00301Y00255*
Y00256*
Y0028*
X00287Y0025*
X00286*
X00272Y0028*
Y00256*
Y00256*
Y00255*
Y00255*
X00272Y00255*
Y00254*
X00272Y00253*
X00272Y00253*
X00272Y00252*
X00273Y00252*
X00273Y00252*
X00273Y00252*
X00273Y00251*
X00273Y00251*
X00273Y00251*
X00274Y00251*
X00274Y00251*
X00275Y00251*
X00276Y00251*
X00277*
Y0025*
X00265*
Y00251*
X00266*
X00267Y00251*
X00267Y00251*
X00268Y00251*
X00268Y00251*
X00269Y00251*
X00269Y00252*
X00269Y00252*
Y00252*
X00269Y00252*
X00269Y00253*
X00269Y00253*
X0027Y00254*
X0027Y00255*
Y00256*
Y00279*
Y00279*
Y0028*
Y0028*
X0027Y0028*
X00269Y00282*
X00269Y00282*
X00269Y00283*
Y00283*
X00269*
X00269Y00283*
X00268Y00283*
X00268Y00284*
X00268Y00284*
X00268*
X00268Y00284*
X00267Y00284*
X00267Y00284*
X00266Y00284*
X00266*
X00265Y00284*
X00265*
Y00285*
X00275*
X00288Y00257*
X00301Y00285*
X00311*
Y00284*
G37*
G36*
X00444Y00285D02*
X00444Y00285D01*
X00445*
X00446Y00285*
X00448Y00285*
X0045Y00285*
X00452Y00284*
X00453Y00284*
X00454Y00284*
X00454Y00283*
X00454Y00283*
X00455Y00283*
X00455Y00283*
X00455Y00283*
X00456Y00282*
X00457Y00281*
X00458Y0028*
X0046Y00279*
X0046Y00278*
X00461Y00277*
X00461*
Y00277*
X00461Y00277*
X00461Y00277*
X00461Y00276*
X00461Y00276*
X00462Y00275*
X00462Y00275*
X00462Y00274*
X00462Y00273*
X00463Y00272*
X00463Y00272*
X00463Y0027*
X00463Y00269*
Y00268*
Y00268*
Y00267*
X00463Y00267*
Y00266*
Y00266*
X00463Y00265*
X00463Y00264*
X00463Y00263*
X00462Y00262*
X00462Y00261*
X00462Y0026*
X00461Y00259*
X00461Y00258*
X0046Y00257*
X00459Y00256*
X00459Y00255*
Y00255*
X00458Y00255*
X00458Y00255*
X00458Y00254*
X00457Y00254*
X00456Y00253*
X00456Y00253*
X00455Y00252*
X00454Y00252*
X00453Y00251*
X00451Y00251*
X0045Y0025*
X00448Y0025*
X00447Y0025*
X00445Y0025*
X00443Y0025*
X00427*
Y00251*
X00429*
X00429Y00251*
X0043Y00251*
X0043Y00251*
X00431Y00251*
X00431Y00251*
X00432Y00252*
Y00252*
X00432Y00252*
X00432Y00252*
X00432Y00253*
X00432Y00253*
X00432Y00254*
X00432Y00255*
Y00256*
Y00279*
Y00279*
Y00279*
Y00279*
Y0028*
X00432Y0028*
Y00281*
X00432Y00282*
X00432Y00282*
X00432Y00283*
X00432Y00283*
X00431Y00283*
X00431*
X00431Y00283*
X00431Y00284*
X00431Y00284*
X0043Y00284*
X0043Y00284*
X00429Y00284*
X00428Y00284*
X00427*
Y00285*
X00443*
X00444Y00285*
G37*
G36*
X00493Y00255D02*
Y00255D01*
Y00255*
Y00254*
X00493Y00254*
Y00253*
X00493Y00252*
X00494Y00252*
Y00252*
X00494Y00252*
X00494Y00251*
X00495Y00251*
X00495Y00251*
X00495*
X00495Y00251*
X00495*
X00496Y00251*
X00496Y0025*
X00497*
Y0025*
X00485*
Y0025*
X00486*
X00486Y00251*
X00487Y00251*
X00487Y00251*
X00488Y00251*
X00488*
X00488Y00251*
X00488Y00251*
X00488Y00252*
X00489Y00252*
X00489Y00252*
X00489Y00253*
Y00253*
X00489Y00254*
Y00254*
Y00255*
Y00264*
Y00264*
Y00265*
Y00265*
Y00265*
Y00266*
Y00266*
Y00267*
X00489Y00268*
Y00269*
X00489Y00269*
Y00269*
X00489Y0027*
X00488Y0027*
X00488Y0027*
X00488Y00271*
X00488*
X00488Y00271*
X00487Y00271*
X00487*
X00487*
X00486*
X00486Y00271*
X00485Y00271*
X00485Y00272*
X00492Y00274*
X00493*
Y00255*
G37*
G36*
X00835Y00225D02*
X00825D01*
Y00235*
X00835*
Y00225*
G37*
G36*
X00409Y00186D02*
D01*
Y00186*
Y00186*
Y00185*
Y00185*
X00409Y00184*
Y00184*
Y00183*
X00409Y00182*
Y00182*
Y00182*
X00409Y00182*
X0041Y00182*
X0041Y00181*
X0041Y00181*
X00411Y00181*
X00411*
X00411Y00181*
X00412Y00181*
X00412*
X00413Y00181*
X00414*
Y0018*
X004*
Y00181*
X00401*
X00402Y00181*
X00402*
X00403Y00181*
X00403Y00181*
X00403Y00181*
X00403*
X00404*
X00404Y00181*
X00404Y00182*
X00404Y00182*
Y00182*
Y00182*
X00405Y00182*
X00405Y00183*
Y00183*
X00405Y00184*
Y00185*
Y00185*
Y00186*
Y00205*
Y00205*
Y00205*
Y00206*
Y00206*
Y00206*
Y00207*
Y00208*
X00405Y00209*
Y0021*
X00405Y0021*
X00404Y0021*
Y0021*
X00404Y00211*
X00404Y00211*
X00404Y00211*
X00404Y00212*
X00403Y00212*
X00403*
X00403*
X00402*
X00402Y00212*
X00402*
X00401Y00211*
X00401Y00211*
X004Y00211*
X004Y00212*
X00408Y00216*
X00409*
Y00186*
G37*
G36*
X00491Y00287D02*
X00492D01*
X00492Y00287*
X00492Y00287*
X00493Y00287*
X00493Y00286*
X00493Y00286*
X00493Y00286*
X00493Y00286*
X00494Y00285*
X00494Y00285*
Y00284*
Y00284*
Y00284*
Y00284*
X00494Y00284*
X00494Y00283*
X00493Y00283*
X00493Y00283*
X00493Y00283*
X00493Y00282*
X00493Y00282*
X00492Y00282*
X00492Y00282*
X00491Y00282*
X00491*
X00491*
X00491*
X0049Y00282*
X0049Y00282*
X00489Y00282*
X00489Y00283*
X00489Y00283*
X00489Y00283*
X00489Y00283*
X00488Y00284*
Y00284*
X00488Y00284*
Y00285*
X00488Y00285*
Y00285*
X00489Y00286*
X00489Y00286*
X00489Y00286*
X00489Y00286*
X00489Y00286*
X00489Y00287*
X0049Y00287*
X0049Y00287*
X00491*
X00491Y00287*
X00491*
X00491Y00287*
G37*
G36*
X00448Y00216D02*
X00448D01*
X00449Y00216*
X0045Y00216*
X0045Y00215*
X00451Y00215*
X00452Y00215*
X00452Y00214*
X00453Y00214*
X00454Y00213*
X00454Y00213*
X00455Y00212*
Y00212*
X00455Y00212*
X00455Y00211*
X00456Y00211*
X00456Y0021*
X00456Y0021*
X00457Y00209*
X00457Y00208*
X00457Y00207*
X00458Y00206*
X00458Y00205*
X00458Y00204*
X00459Y00202*
X00459Y00201*
X00459Y00199*
X00459Y00198*
Y00198*
Y00198*
Y00197*
Y00197*
X00459Y00196*
Y00196*
X00459Y00195*
Y00194*
X00459Y00192*
X00458Y00191*
X00458Y00189*
X00457Y00187*
Y00187*
X00457Y00187*
X00457Y00187*
X00457Y00186*
X00457Y00186*
X00456Y00186*
X00456Y00185*
X00455Y00184*
X00454Y00183*
X00454Y00182*
X00453Y00181*
X00453Y00181*
X00452*
X00452*
X00452Y00181*
X00452Y00181*
X00452Y0018*
X00451Y0018*
X0045Y0018*
X00449Y00179*
X00448Y00179*
X00447Y00179*
X00447*
X00447*
X00446Y00179*
X00446Y00179*
X00445Y00179*
X00445Y00179*
X00444Y0018*
X00443Y0018*
X00443Y0018*
X00442Y00181*
X00441Y00181*
X00441Y00182*
X0044Y00183*
X00439Y00184*
X00439Y00185*
X00438Y00185*
X00438Y00185*
X00438Y00186*
X00438Y00186*
X00438Y00187*
X00437Y00188*
X00437Y00188*
X00437Y00189*
X00437Y0019*
X00436Y00191*
X00436Y00192*
X00436Y00193*
X00436Y00195*
Y00196*
X00436Y00197*
Y00197*
Y00198*
Y00198*
X00436Y00198*
Y00199*
Y00199*
X00436Y002*
Y00201*
X00436Y00203*
X00437Y00204*
X00437Y00206*
X00438Y00208*
X00438Y00208*
X00438Y00208*
X00438Y00209*
X00438Y00209*
X00438Y00209*
X00439Y0021*
X0044Y00211*
X0044Y00212*
X00441Y00214*
X00443Y00214*
X00443*
X00443Y00215*
X00443Y00215*
X00444Y00215*
X00445Y00216*
X00446Y00216*
X00446Y00216*
X00447Y00216*
X00448*
X00448Y00216*
G37*
G36*
X00427Y00185D02*
X00428Y00185D01*
X00428Y00184*
X00428Y00184*
X00429Y00184*
X00429Y00184*
X00429Y00184*
X00429Y00184*
X00429Y00183*
X0043Y00183*
X0043Y00183*
X0043Y00182*
Y00182*
Y00182*
Y00181*
X0043Y00181*
X0043Y00181*
X0043Y0018*
X00429Y0018*
X00429Y0018*
X00429Y0018*
X00429Y00179*
X00428Y00179*
X00428Y00179*
X00427Y00179*
X00427*
X00427*
X00427*
X00426Y00179*
X00426Y00179*
X00426Y00179*
X00425Y00179*
X00425Y0018*
X00425Y0018*
Y0018*
X00425Y0018*
X00425Y0018*
X00424Y00181*
X00424Y00181*
X00424Y00181*
X00424Y00182*
Y00182*
Y00182*
X00424Y00182*
X00424Y00182*
X00424Y00183*
X00424Y00183*
X00425Y00183*
X00425Y00184*
X00425Y00184*
X00425Y00184*
X00426Y00184*
X00426Y00184*
X00426Y00185*
X00427Y00185*
X00427Y00185*
X00427*
X00427Y00185*
G37*
G36*
X00396Y00274D02*
X00397Y00274D01*
X00397Y00274*
X00398Y00274*
X00398Y00274*
X00398Y00274*
X00398*
X00399Y00273*
X00399Y00273*
X00399Y00273*
X00399Y00272*
X00399Y00272*
Y00272*
Y00271*
Y00271*
Y00271*
X00399Y00271*
X00399Y0027*
X00399Y0027*
X00399Y0027*
X00399*
Y0027*
X00398Y00269*
X00398Y00269*
X00397*
X00397Y00269*
X00397*
X00397Y00269*
X00396*
X00396Y00269*
X00396Y00269*
X00395Y0027*
X00395Y0027*
X00395Y0027*
X00395Y0027*
X00395Y0027*
X00394Y0027*
X00394Y00271*
X00393Y00271*
X00393Y00271*
X00393*
X00393Y00271*
X00393Y00271*
X00392Y0027*
X00392Y0027*
X00392Y0027*
X00391Y0027*
X00391Y00269*
X00391Y00268*
X0039Y00268*
X0039Y00267*
Y00255*
Y00255*
Y00255*
Y00254*
Y00254*
X0039Y00253*
X0039Y00253*
X0039Y00252*
Y00252*
X00391Y00252*
X00391Y00251*
X00391Y00251*
X00392*
X00392Y00251*
X00392*
X00392Y00251*
X00392Y00251*
X00393Y00251*
X00393Y0025*
X00394*
Y0025*
X00382*
Y0025*
X00382*
X00382Y00251*
X00383*
X00384Y00251*
X00384Y00251*
X00384Y00251*
X00384Y00251*
X00385Y00251*
X00385Y00252*
X00385Y00252*
X00385Y00253*
Y00253*
Y00253*
Y00253*
X00385Y00254*
Y00254*
Y00255*
Y00264*
Y00264*
Y00265*
Y00265*
Y00265*
Y00266*
Y00267*
X00385Y00267*
Y00268*
Y00269*
X00385Y00269*
Y00269*
Y00269*
Y00269*
X00385*
X00385Y0027*
X00385Y0027*
X00385Y00271*
Y00271*
X00384Y00271*
X00384Y00271*
X00383*
X00383*
X00383*
X00382Y00271*
X00382Y00271*
X00381Y00272*
X00389Y00274*
X0039*
Y00269*
X0039Y00269*
X0039Y0027*
X0039Y0027*
X00391Y0027*
X00391Y00271*
X00392Y00272*
X00393Y00273*
X00393Y00273*
X00394Y00274*
X00394Y00274*
X00395Y00274*
X00395Y00274*
X00396*
X00396*
X00396*
G37*
G36*
X00481D02*
X00481Y00274D01*
X00481Y00274*
X00482Y00274*
X00482Y00274*
X00483Y00274*
X00483*
X00483Y00273*
X00483Y00273*
X00483Y00273*
X00483Y00272*
X00483Y00272*
X00484Y00272*
Y00271*
Y00271*
X00483Y00271*
Y00271*
X00483Y0027*
X00483Y0027*
X00483Y0027*
X00483*
Y0027*
X00482Y00269*
X00482Y00269*
X00482*
X00481Y00269*
X00481*
X00481Y00269*
X00481*
X0048Y00269*
X0048Y00269*
X0048Y0027*
X00479Y0027*
X00479Y0027*
X00479Y0027*
X00479Y0027*
X00479Y0027*
X00478Y00271*
X00478Y00271*
X00477Y00271*
X00477*
X00477Y00271*
X00477Y00271*
X00476Y0027*
X00476*
X00476Y0027*
X00476Y0027*
X00476Y0027*
X00475Y00269*
X00475Y00268*
X00474Y00268*
X00474Y00267*
Y00255*
Y00255*
Y00255*
Y00254*
Y00254*
X00474Y00253*
X00474Y00253*
X00475Y00252*
Y00252*
X00475Y00252*
X00475Y00251*
X00476Y00251*
X00476*
X00476Y00251*
X00476*
X00476Y00251*
X00477Y00251*
X00477Y00251*
X00478Y0025*
X00478*
Y0025*
X00466*
Y0025*
X00466*
X00466Y00251*
X00467*
X00468Y00251*
X00468Y00251*
X00469Y00251*
X00469Y00251*
X00469Y00251*
X00469Y00252*
X00469Y00252*
X0047Y00253*
Y00253*
Y00253*
Y00253*
X0047Y00254*
Y00254*
Y00255*
Y00264*
Y00264*
Y00265*
Y00265*
Y00265*
Y00266*
Y00267*
X0047Y00267*
Y00268*
Y00269*
X00469Y00269*
Y00269*
Y00269*
Y00269*
X00469*
X00469Y0027*
X00469Y0027*
X00469Y00271*
Y00271*
X00468Y00271*
X00468Y00271*
X00468*
X00467*
X00467*
X00467Y00271*
X00466Y00271*
X00466Y00272*
X00473Y00274*
X00474*
Y00269*
X00474Y00269*
X00474Y0027*
X00475Y0027*
X00475Y0027*
X00475Y00271*
X00476Y00272*
X00477Y00273*
X00477Y00273*
X00478Y00274*
X00478Y00274*
X00479Y00274*
X0048Y00274*
X0048*
X0048*
X00481*
G37*
G36*
X00565D02*
X00565Y00274D01*
X00566Y00274*
X00566Y00274*
X00566Y00274*
X00567Y00274*
X00567*
X00567Y00273*
X00567Y00273*
X00567Y00273*
X00568Y00272*
X00568Y00272*
X00568Y00272*
Y00271*
Y00271*
X00568Y00271*
Y00271*
X00567Y0027*
X00567Y0027*
X00567Y0027*
X00567*
Y0027*
X00567Y00269*
X00566Y00269*
X00566*
X00565Y00269*
X00565*
X00565Y00269*
X00565*
X00564Y00269*
X00564Y00269*
X00564Y0027*
X00563Y0027*
X00563Y0027*
X00563Y0027*
X00563Y0027*
X00563Y0027*
X00562Y00271*
X00562Y00271*
X00562Y00271*
X00562*
X00561Y00271*
X00561Y00271*
X00561Y0027*
X00561*
X0056Y0027*
X0056Y0027*
X0056Y0027*
X0056Y00269*
X00559Y00268*
X00559Y00268*
X00558Y00267*
Y00255*
Y00255*
Y00255*
Y00254*
Y00254*
X00558Y00253*
X00559Y00253*
X00559Y00252*
X00559Y00252*
X00559Y00252*
X00559Y00251*
X0056Y00251*
X0056*
X0056Y00251*
X0056*
X00561Y00251*
X00561Y00251*
X00561Y00251*
X00562Y0025*
X00562*
Y0025*
X0055*
Y0025*
X0055*
X00551Y00251*
X00551*
X00552Y00251*
X00552Y00251*
X00553Y00251*
X00553Y00251*
X00553Y00251*
X00553Y00252*
X00554Y00252*
X00554Y00253*
Y00253*
Y00253*
Y00253*
X00554Y00254*
Y00254*
Y00255*
Y00264*
Y00264*
Y00265*
Y00265*
Y00265*
Y00266*
Y00267*
X00554Y00267*
Y00268*
Y00269*
X00554Y00269*
Y00269*
X00554Y00269*
Y00269*
X00553Y0027*
X00553Y0027*
X00553Y00271*
Y00271*
X00553Y00271*
X00552Y00271*
X00552*
X00552*
X00551*
X00551Y00271*
X0055Y00271*
X0055Y00272*
X00557Y00274*
X00558*
Y00269*
X00558Y00269*
X00558Y0027*
X00559Y0027*
X00559Y0027*
X00559Y00271*
X0056Y00272*
X00561Y00273*
X00562Y00273*
X00562Y00274*
X00563Y00274*
X00563Y00274*
X00564Y00274*
X00564*
X00565*
X00565*
G37*
G36*
X00348Y00274D02*
X00353D01*
Y00272*
X00348*
Y00256*
Y00256*
Y00256*
Y00255*
X00348Y00255*
X00348Y00254*
X00348Y00253*
X00348Y00253*
X00348*
X00348Y00253*
X00349Y00253*
X00349Y00253*
X00349Y00252*
X0035Y00252*
X0035*
X0035*
X0035*
X00351*
X00351Y00252*
X00352Y00253*
X00352Y00253*
X00352Y00253*
X00353Y00254*
X00353Y00254*
X00354*
X00354Y00254*
X00354Y00254*
X00354Y00253*
X00353Y00253*
X00353Y00252*
X00353Y00252*
X00352Y00251*
X00351Y0025*
X00351Y0025*
X00351Y0025*
X00351Y0025*
X0035Y0025*
X0035Y0025*
X00349Y00249*
X00349Y00249*
X00348Y00249*
X00348*
X00347Y00249*
X00347*
X00346Y00249*
X00346Y0025*
X00345Y0025*
X00345Y0025*
X00345Y0025*
X00345Y0025*
X00345Y00251*
X00344Y00251*
X00344Y00252*
X00344Y00252*
Y00252*
X00344Y00253*
X00343Y00253*
X00343Y00254*
X00343Y00255*
Y00256*
Y00272*
X00339*
Y00273*
X0034Y00273*
X0034Y00273*
X0034Y00273*
X00341Y00274*
X00341Y00274*
X00342Y00274*
X00342Y00275*
X00342Y00275*
X00343Y00275*
X00343Y00275*
X00343Y00276*
X00344Y00276*
X00344Y00277*
X00345Y00277*
X00345Y00278*
X00345Y00278*
Y00278*
X00345Y00278*
X00346Y00279*
X00346Y00279*
X00346Y0028*
X00346Y00281*
X00347Y00282*
X00348*
Y00274*
G37*
G36*
X00374Y00349D02*
X00372D01*
X00372Y00349*
X00371Y00349*
X00371Y00349*
X0037Y00349*
X00369Y00348*
X00369Y00348*
Y00348*
X00369Y00348*
Y00348*
X00369Y00347*
X00369Y00347*
Y00346*
X00369Y00345*
Y00344*
Y00314*
X00368*
X00344Y00343*
Y00321*
Y00321*
Y0032*
Y0032*
Y0032*
X00344Y00319*
Y00318*
X00344Y00318*
X00344Y00317*
X00344Y00317*
X00345Y00317*
X00345Y00317*
X00345Y00316*
X00345Y00316*
X00345Y00316*
X00346Y00316*
X00346Y00316*
X00347Y00316*
X00348Y00316*
X00349*
Y00315*
X00336*
Y00316*
X00338*
X00338Y00316*
X00339Y00316*
X0034Y00316*
X0034Y00316*
X00341Y00316*
X00341Y00317*
X00341Y00317*
Y00317*
X00341Y00317*
X00341Y00318*
X00341Y00318*
Y00319*
X00342Y0032*
Y00321*
Y00346*
Y00346*
X00341Y00346*
X00341Y00346*
X00341Y00347*
X0034Y00347*
X00339Y00348*
X00339Y00348*
X00339Y00348*
X00339Y00348*
X00339Y00348*
X00338Y00349*
X00338Y00349*
X00337Y00349*
X00337Y00349*
X00337*
X00337*
X00336Y00349*
X00336*
X00336*
X00336Y00349*
X00335Y00349*
X00335*
Y0035*
X00344*
X00366Y00324*
Y00344*
Y00344*
Y00344*
Y00345*
Y00345*
Y00345*
X00366Y00346*
Y00347*
X00366Y00347*
X00366Y00348*
X00366Y00348*
X00365Y00348*
X00365Y00348*
X00365Y00348*
X00365Y00349*
X00365Y00349*
X00364Y00349*
X00364Y00349*
X00363Y00349*
X00362Y00349*
X00361*
Y0035*
X00374*
Y00349*
G37*
G36*
X00489Y00339D02*
X00489Y00339D01*
X0049Y00339*
X0049Y00339*
X00491Y00339*
X00491Y00339*
X00491*
X00491Y00338*
X00491Y00338*
X00491Y00338*
X00492Y00337*
X00492Y00337*
Y00337*
Y00336*
Y00336*
Y00336*
X00492Y00336*
X00492Y00335*
X00491Y00335*
X00491Y00335*
X00491Y00335*
X00491Y00334*
X0049Y00334*
X0049*
X0049Y00334*
X00489*
X00489Y00334*
X00489*
X00489Y00334*
X00488Y00334*
X00488Y00335*
X00487Y00335*
X00487Y00335*
X00487Y00335*
X00487Y00335*
X00487Y00335*
X00486Y00336*
X00486Y00336*
X00486Y00336*
X00486Y00336*
X00485Y00336*
X00485Y00335*
X00485Y00335*
X00484Y00335*
X00484Y00335*
X00484Y00334*
X00483Y00333*
X00483Y00333*
X00482Y00332*
Y0032*
Y0032*
Y0032*
X00482Y00319*
Y00319*
X00483Y00318*
X00483Y00318*
X00483Y00317*
X00483Y00317*
X00483Y00317*
X00483Y00316*
X00484Y00316*
X00484Y00316*
X00484*
X00485Y00316*
X00485Y00316*
X00485Y00316*
X00486Y00315*
X00487*
Y00315*
X00474*
Y00315*
X00474*
X00475Y00316*
X00475*
X00476Y00316*
X00476Y00316*
X00477Y00316*
X00477*
Y00316*
X00477Y00316*
X00478Y00317*
X00478Y00317*
X00478Y00318*
Y00318*
X00478Y00318*
Y00318*
Y00319*
Y00319*
Y0032*
Y00329*
Y00329*
Y0033*
Y0033*
Y0033*
Y00331*
Y00332*
Y00332*
X00478Y00333*
Y00334*
X00478Y00334*
Y00334*
Y00334*
Y00334*
X00478*
Y00335*
X00477Y00335*
X00477Y00336*
X00477Y00336*
X00477Y00336*
X00476Y00336*
X00476*
X00476*
X00475*
X00475Y00336*
X00474Y00336*
X00474Y00337*
X00481Y00339*
X00482*
Y00334*
X00482*
Y00334*
X00483Y00335*
X00483Y00335*
X00483Y00335*
X00483Y00336*
X00484Y00337*
X00485Y00338*
X00486Y00338*
X00486Y00339*
X00487Y00339*
X00487Y00339*
X00488Y00339*
X00489*
X00489*
X00489*
G37*
G36*
X00447Y00339D02*
X00446D01*
Y00339*
X00446Y00339*
X00446Y0034*
X00446Y0034*
X00445Y0034*
X00445Y00341*
X00445Y00342*
X00444Y00343*
X00443Y00345*
X00442Y00346*
X00442Y00346*
X00441Y00347*
X00441*
Y00347*
X00441Y00347*
X00441Y00347*
X0044Y00347*
X0044Y00348*
X00439Y00348*
X00438Y00349*
X00437Y00349*
X00436Y00349*
X00435Y00349*
X00433*
X00433Y00349*
X00433*
X00432Y00349*
X00431Y00349*
X0043Y00349*
X00429Y00348*
X00428Y00348*
X00427Y00347*
X00427Y00347*
X00427Y00347*
X00426Y00346*
X00425Y00345*
X00424Y00344*
X00424Y00343*
X00423Y00342*
Y00342*
X00423Y00341*
X00423Y00341*
X00423Y00341*
X00423Y0034*
X00422Y0034*
X00422Y00339*
X00422Y00338*
X00422Y00338*
X00422Y00337*
X00422Y00336*
X00422Y00335*
X00422Y00334*
X00421Y00332*
Y00332*
Y00331*
Y00331*
X00422Y00331*
Y0033*
Y0033*
X00422Y00329*
X00422Y00328*
X00422Y00326*
X00422Y00325*
X00423Y00323*
X00423Y00323*
X00423Y00323*
X00423Y00323*
X00424Y00322*
X00424Y00321*
X00425Y0032*
X00426Y0032*
X00427Y00319*
X00428Y00318*
X00428Y00318*
X00428Y00318*
X00428Y00318*
X00428Y00317*
X00429Y00317*
X0043Y00317*
X00431Y00317*
X00432Y00316*
X00433Y00316*
X00435Y00316*
X00435*
X00436Y00316*
X00436*
X00437Y00316*
X00438Y00316*
X00439Y00317*
X0044Y00317*
X00441Y00317*
X00441*
Y00318*
X00441Y00318*
X00441Y00318*
X00442Y00318*
X00443Y00319*
X00443Y00319*
X00443Y0032*
X00444Y0032*
X00444Y00321*
X00445Y00321*
X00446Y00322*
X00446Y00323*
X00447Y00323*
X00448Y00323*
X00448Y00323*
X00447Y00323*
X00447Y00322*
X00447Y00322*
X00447Y00322*
X00447Y00321*
X00446Y0032*
X00445Y00319*
X00444Y00318*
X00443Y00317*
X00442Y00316*
X00441Y00316*
X00441Y00316*
X00441Y00316*
X00441Y00316*
X0044Y00315*
X0044Y00315*
X00439Y00315*
X00439Y00315*
X00438Y00315*
X00438Y00314*
X00436Y00314*
X00435Y00314*
X00433Y00314*
X00432*
X00432*
X00431Y00314*
X00431Y00314*
X0043Y00314*
X00429Y00314*
X00428Y00315*
X00427Y00315*
X00426Y00315*
X00424Y00316*
X00423Y00316*
X00422Y00317*
X00421Y00318*
X0042Y00319*
X00419Y0032*
X00419*
X00419Y00321*
X00419Y00321*
X00418Y00321*
X00418Y00322*
X00418Y00322*
X00418Y00323*
X00417Y00324*
X00417Y00324*
X00417Y00325*
X00416Y00326*
X00416Y00327*
X00416Y00328*
X00416Y00329*
X00415Y00331*
Y00332*
Y00332*
Y00332*
Y00332*
Y00333*
Y00333*
X00416Y00334*
X00416Y00334*
Y00335*
X00416Y00337*
X00416Y00338*
X00417Y0034*
X00417Y00341*
X00418Y00342*
X00418*
X00418Y00342*
X00418Y00342*
X00418Y00342*
X00418Y00343*
X00419Y00343*
X0042Y00344*
X0042Y00345*
X00422Y00347*
X00423Y00348*
X00424Y00349*
X00424*
X00425Y00349*
X00425Y00349*
X00425Y00349*
X00425Y00349*
X00426Y0035*
X00426Y0035*
X00427Y0035*
X00428Y0035*
X00428Y0035*
X0043Y00351*
X00432Y00351*
X00433Y00351*
X00434*
X00434Y00351*
X00435*
X00435*
X00436Y00351*
X00437Y00351*
X00438Y0035*
X0044Y0035*
X00441Y00349*
X00441Y00349*
X00441*
X00442Y00349*
X00442Y00349*
X00442Y00349*
X00443*
X00443*
X00444Y00349*
X00444Y00349*
X00444Y00349*
X00444Y0035*
X00444Y0035*
X00444Y0035*
X00445Y0035*
X00445Y00351*
X00445Y00351*
X00446*
X00447Y00339*
G37*
G36*
X00185Y007D02*
X00175D01*
Y0071*
X00185*
Y007*
G37*
G36*
X00462Y00339D02*
X00463Y00339D01*
X00464Y00339*
X00465Y00339*
X00466Y00339*
X00466Y00338*
X00467Y00338*
X00467Y00338*
X00467Y00338*
X00468Y00337*
X00468Y00337*
X00468Y00336*
X00469Y00336*
Y00336*
X00469Y00336*
X00469Y00335*
X00469Y00335*
X00469Y00334*
X00469Y00333*
Y00332*
Y00331*
Y00323*
Y00323*
Y00323*
Y00323*
Y00322*
Y00322*
Y00321*
X00469Y0032*
Y0032*
Y00319*
X00469Y00319*
Y00319*
Y00319*
X00469Y00318*
X0047Y00318*
X0047Y00318*
X0047Y00318*
X0047Y00317*
X0047*
X0047Y00317*
X00471*
X00471Y00317*
X00471Y00318*
X00471*
X00471Y00318*
X00471Y00318*
X00472Y00318*
X00472Y00318*
X00472Y00318*
X00473Y00319*
X00473Y00319*
Y00318*
X00473*
Y00318*
X00473Y00318*
X00473Y00317*
X00472Y00317*
X00472Y00316*
X00471Y00315*
X0047Y00315*
X00469Y00314*
X00469Y00314*
X00468Y00314*
X00468Y00314*
X00467*
X00467Y00314*
X00467*
X00467Y00314*
X00466Y00314*
X00466Y00315*
X00466Y00315*
X00465Y00315*
X00465Y00315*
X00465Y00316*
X00465Y00316*
X00465Y00317*
X00465Y00317*
Y00318*
X00465*
X00465Y00318*
X00464Y00318*
X00464Y00318*
X00464Y00317*
X00463Y00316*
X00462Y00316*
X00461Y00315*
X00461Y00315*
X0046Y00315*
X0046Y00315*
X0046*
X0046Y00315*
X0046Y00314*
X00459Y00314*
X00459Y00314*
X00458Y00314*
X00458*
X00457Y00314*
X00457*
X00457Y00314*
X00456*
X00456Y00314*
X00455Y00314*
X00454Y00315*
X00454Y00315*
X00453Y00316*
X00453Y00316*
X00452Y00316*
X00452Y00317*
X00452Y00318*
X00452Y00318*
X00451Y00319*
X00451Y0032*
Y0032*
Y00321*
X00451Y00321*
Y00321*
X00452Y00322*
X00452Y00322*
X00452Y00323*
X00452Y00323*
X00452*
X00452Y00324*
X00453Y00324*
X00453Y00324*
X00454Y00325*
X00454Y00325*
X00455Y00326*
X00456Y00327*
X00456*
X00456Y00327*
X00456Y00327*
X00457Y00327*
X00457Y00327*
X00457Y00328*
X00458Y00328*
X00459Y00328*
X00459Y00328*
X0046Y00329*
X00461Y00329*
X00462Y00329*
X00463Y0033*
X00464Y0033*
X00465Y00331*
Y00332*
Y00332*
Y00332*
Y00332*
X00465Y00333*
X00465Y00334*
X00465Y00334*
X00464Y00335*
X00464Y00336*
X00464Y00336*
X00464Y00337*
X00463Y00337*
X00463Y00337*
X00463Y00337*
X00462Y00337*
X00462Y00338*
X00461Y00338*
X0046*
X0046*
X0046*
X00459Y00338*
X00459Y00338*
X00459Y00337*
X00458Y00337*
X00458Y00337*
X00458Y00337*
X00458Y00337*
X00457Y00337*
X00457Y00336*
X00457Y00336*
X00457Y00335*
X00457Y00335*
X00457Y00333*
Y00333*
Y00333*
X00457Y00333*
Y00333*
X00457Y00332*
X00456Y00332*
X00456Y00331*
X00456Y00331*
X00456Y00331*
X00455Y00331*
X00455Y00331*
X00455*
X00454*
X00454*
X00454Y00331*
X00453Y00331*
X00453Y00331*
X00453Y00331*
Y00332*
X00453*
X00453Y00332*
X00453Y00332*
X00453Y00332*
X00452Y00333*
X00452Y00333*
Y00333*
Y00333*
Y00334*
X00452Y00334*
X00453Y00335*
X00453Y00335*
X00453Y00336*
X00454Y00337*
X00455Y00338*
X00455Y00338*
X00455Y00338*
X00456Y00338*
X00456Y00339*
X00457Y00339*
X00458Y00339*
X0046Y00339*
X00461*
X00462*
X00462*
G37*
G36*
X00407Y00339D02*
X00413D01*
Y00337*
X00407*
Y00321*
Y00321*
Y00321*
Y0032*
X00407Y0032*
X00407Y00319*
X00408Y00318*
X00408Y00318*
X00408Y00318*
X00408Y00318*
X00408Y00318*
X00409Y00317*
X00409Y00317*
X0041*
X0041*
X0041*
X0041*
X00411Y00317*
X00411Y00318*
X00411Y00318*
X00412Y00318*
X00412Y00319*
X00412Y00319*
X00414*
X00413Y00319*
X00413Y00319*
X00413Y00318*
X00413Y00318*
X00412Y00317*
X00412Y00317*
X00411Y00316*
X00411Y00315*
Y00315*
X00411Y00315*
X0041Y00315*
X0041Y00315*
X00409Y00315*
X00409Y00314*
X00408Y00314*
X00407Y00314*
X00407*
X00407Y00314*
X00407*
X00406Y00314*
X00405Y00315*
X00405Y00315*
X00405Y00315*
X00405Y00315*
X00404Y00315*
X00404Y00316*
X00404Y00316*
X00403Y00317*
X00403Y00317*
X00403Y00317*
X00403Y00318*
X00403Y00318*
X00403Y00319*
X00403Y0032*
Y00321*
Y00337*
X00399*
Y00338*
X00399Y00338*
X00399Y00338*
X004Y00338*
X004Y00339*
X00401Y00339*
X00401Y00339*
X00402Y0034*
X00402Y0034*
X00402Y0034*
X00402Y0034*
X00403Y00341*
X00403Y00341*
X00404Y00342*
X00404Y00342*
X00405Y00343*
X00405Y00343*
X00405Y00343*
X00405Y00343*
X00405Y00344*
X00405Y00344*
X00406Y00345*
X00406Y00346*
X00406Y00347*
X00407*
Y00339*
G37*
G36*
X00185Y0112D02*
X00175D01*
Y0113*
X00185*
Y0112*
G37*
G36*
X01715Y00225D02*
X01705D01*
Y00235*
X01715*
Y00225*
G37*
G36*
X00368Y00274D02*
X00369Y00274D01*
X00369Y00274*
X0037Y00274*
X00371Y00274*
X00371Y00274*
X00372Y00273*
X00373Y00273*
X00374Y00273*
X00374Y00272*
X00375Y00272*
X00376Y00271*
X00376Y0027*
Y0027*
X00376Y0027*
X00377Y0027*
X00377Y0027*
X00377Y00269*
X00377Y00269*
X00377Y00268*
X00378Y00268*
X00378Y00267*
X00379Y00265*
X00379Y00264*
X00379Y00263*
Y00262*
Y00262*
Y00262*
Y00262*
Y00261*
Y00261*
X00379Y0026*
X00379Y00259*
X00378Y00258*
X00378Y00257*
X00378Y00255*
X00377Y00255*
X00377Y00255*
X00377Y00255*
X00377Y00254*
X00376Y00254*
X00376Y00253*
X00375Y00252*
X00374Y00251*
X00373Y0025*
X00373*
X00373Y0025*
X00373Y0025*
X00372Y0025*
X00371Y0025*
X00371Y00249*
X0037Y00249*
X00368Y00249*
X00367*
X00367*
X00367*
X00366*
X00366Y00249*
X00365Y00249*
X00365Y00249*
X00364Y00249*
X00363Y0025*
X00363Y0025*
X00362Y0025*
X00361Y00251*
X00361Y00251*
X0036Y00252*
X00359Y00252*
X00359Y00253*
X00358Y00253*
Y00253*
X00358Y00254*
X00358Y00254*
X00358Y00254*
X00358Y00255*
X00357Y00255*
X00357Y00256*
X00357Y00257*
X00356Y00258*
X00356Y0026*
X00356Y00261*
X00356Y00261*
Y00261*
Y00262*
Y00262*
Y00262*
X00356Y00262*
X00356Y00263*
X00356Y00263*
X00356Y00264*
X00356Y00266*
X00357Y00267*
X00357Y00268*
Y00268*
Y00268*
X00358Y00268*
X00358Y00269*
X00358Y00269*
X00359Y0027*
X00359Y00271*
X0036Y00271*
X00361Y00272*
X00362Y00273*
X00362Y00273*
X00362Y00273*
X00362Y00273*
X00363Y00273*
X00363Y00274*
X00364Y00274*
X00365Y00274*
X00366Y00274*
X00367*
X00368*
X00368*
G37*
G36*
X00326D02*
X00327Y00274D01*
X00327Y00274*
X00328Y00274*
X00329Y00274*
X00329Y00274*
X0033Y00273*
X00331Y00273*
X00331Y00273*
X00332Y00272*
X00333Y00272*
X00334Y00271*
X00334Y0027*
Y0027*
X00334Y0027*
X00334Y0027*
X00335Y0027*
X00335Y00269*
X00335Y00269*
X00335Y00268*
X00336Y00268*
X00336Y00267*
X00337Y00265*
X00337Y00264*
Y00263*
X00337Y00262*
Y00262*
Y00262*
Y00262*
X00337Y00261*
Y00261*
X00337Y0026*
X00337Y00259*
X00336Y00258*
X00336Y00257*
X00335Y00255*
X00335Y00255*
X00335Y00255*
X00335Y00255*
X00335Y00254*
X00334Y00254*
X00334Y00253*
X00333Y00252*
X00332Y00251*
X00331Y0025*
X00331*
X00331Y0025*
X00331Y0025*
X0033Y0025*
X00329Y0025*
X00328Y00249*
X00327Y00249*
X00326Y00249*
X00325*
X00325*
X00325*
X00324*
X00324Y00249*
X00323Y00249*
X00323Y00249*
X00322Y00249*
X00321Y0025*
X00321Y0025*
X0032Y0025*
X00319Y00251*
X00318Y00251*
X00318Y00252*
X00317Y00252*
X00316Y00253*
Y00253*
X00316Y00253*
X00316Y00254*
X00316Y00254*
X00316Y00254*
X00316Y00255*
X00315Y00255*
X00315Y00256*
X00315Y00257*
X00314Y00258*
X00314Y0026*
Y00261*
X00314Y00261*
Y00261*
Y00262*
Y00262*
Y00262*
X00314Y00262*
Y00263*
X00314Y00263*
X00314Y00264*
X00314Y00266*
X00315Y00267*
X00315Y00268*
Y00268*
X00315Y00268*
X00315Y00268*
X00316Y00269*
X00316Y00269*
X00316Y0027*
X00317Y00271*
X00318Y00271*
X00319Y00272*
X0032Y00273*
X0032Y00273*
X0032Y00273*
X0032Y00273*
X00321Y00273*
X00321Y00274*
X00322Y00274*
X00323Y00274*
X00324Y00274*
X00325*
X00326*
X00326*
G37*
G36*
X00427Y00238D02*
X00399D01*
Y0024*
X00427*
Y00238*
G37*
G36*
X00539Y00274D02*
X00539D01*
X0054Y00274*
X00541Y00274*
X00542Y00274*
X00543Y00273*
X00544Y00273*
X00544Y00273*
X00545Y00272*
X00545Y00272*
X00545Y00272*
X00545Y00271*
X00546Y00271*
X00546Y00271*
X00546Y00271*
X00546Y0027*
X00547Y00269*
X00547Y00268*
X00548Y00266*
Y00265*
X00548Y00265*
X00531*
Y00264*
Y00264*
Y00264*
Y00263*
X00531Y00263*
X00531Y00262*
X00531Y00262*
X00532Y0026*
X00532Y00259*
X00533Y00258*
X00533Y00257*
X00533Y00257*
X00534Y00256*
Y00256*
X00534*
X00534Y00256*
X00534Y00256*
X00535Y00255*
X00536Y00255*
X00536Y00254*
X00537Y00254*
X00539Y00253*
X00539*
X0054Y00253*
X0054*
X00541Y00253*
X00541Y00253*
X00542Y00253*
X00543Y00254*
X00543Y00254*
X00544Y00254*
X00544*
X00544Y00255*
X00545Y00255*
X00545Y00255*
X00545Y00256*
X00546Y00257*
X00546Y00258*
X00547Y00259*
X00548Y00258*
Y00258*
X00548Y00258*
Y00258*
X00548Y00257*
X00547Y00257*
X00547Y00256*
X00547Y00255*
X00546Y00254*
X00545Y00253*
X00545Y00252*
X00544*
Y00252*
X00544Y00251*
X00544Y00251*
X00543Y00251*
X00543Y0025*
X00542Y0025*
X00541Y00249*
X00539Y00249*
X00539Y00249*
X00538*
X00537*
X00537*
X00537Y00249*
X00536*
X00535Y00249*
X00534Y0025*
X00534Y0025*
X00533Y0025*
X00532Y00251*
X00532Y00251*
X00531Y00252*
X0053Y00252*
X0053Y00252*
X0053Y00253*
X0053Y00253*
X0053Y00253*
X00529Y00254*
X00529Y00254*
X00529Y00255*
X00529Y00255*
X00528Y00256*
X00528Y00257*
X00528Y00257*
X00528Y00258*
X00527Y00259*
X00527Y0026*
Y00261*
Y00262*
Y00262*
Y00262*
X00527Y00263*
X00528Y00263*
X00528Y00264*
X00528Y00265*
X00528Y00266*
X00528Y00267*
X00529Y00268*
X00529Y00269*
X00529Y0027*
X0053Y0027*
X00531Y00271*
Y00271*
X00531Y00271*
X00531Y00271*
X00531Y00272*
X00531Y00272*
X00532Y00272*
X00532Y00272*
X00533Y00273*
X00533Y00273*
X00534Y00273*
X00535Y00274*
X00536Y00274*
X00537Y00274*
X00538Y00274*
X00538*
X00539*
X00539*
G37*
%LNmotor_driver-2*%
%LPC*%
G36*
X00447Y00214D02*
X00447D01*
X00447Y00214*
X00446Y00214*
X00446Y00214*
X00445Y00214*
X00445Y00213*
X00444Y00213*
Y00213*
X00444Y00212*
X00444Y00212*
X00443Y00211*
X00443Y00211*
X00443Y0021*
X00442Y0021*
X00442Y00209*
X00442Y00208*
X00442Y00208*
X00442Y00207*
X00442Y00206*
Y00206*
Y00205*
X00441Y00205*
Y00205*
X00441Y00204*
X00441Y00204*
Y00203*
X00441Y00202*
X00441Y002*
X00441Y00198*
Y00197*
Y00196*
Y00196*
Y00195*
Y00195*
X00441Y00194*
Y00193*
X00441Y00192*
X00441Y0019*
X00442Y00188*
X00442Y00186*
X00442Y00185*
X00443Y00184*
Y00184*
X00443Y00184*
X00443Y00184*
X00443Y00183*
X00444Y00183*
X00445Y00182*
X00445Y00181*
X00446Y00181*
X00446Y00181*
X00447Y00181*
X00447*
X00448*
X00448*
X00448Y00181*
X00449Y00181*
X00449Y00181*
X0045Y00181*
X0045Y00182*
X0045Y00182*
X0045Y00182*
X00451Y00182*
X00451Y00183*
X00451Y00183*
X00452Y00184*
X00452Y00185*
X00453Y00186*
Y00186*
X00453Y00186*
Y00187*
X00453Y00187*
X00453Y00187*
X00453Y00188*
X00453Y00189*
X00453Y00189*
X00453Y0019*
X00453Y00191*
X00454Y00192*
X00454Y00193*
Y00195*
X00454Y00196*
Y00197*
Y00199*
Y00199*
Y00199*
Y002*
Y002*
Y00201*
Y00201*
X00454Y00202*
Y00203*
X00453Y00204*
X00453Y00206*
X00453Y00208*
X00453Y00209*
Y00209*
X00452*
X00452Y00209*
Y0021*
X00452Y0021*
X00452Y00211*
X00451Y00212*
X00451Y00212*
X00451Y00213*
X0045Y00214*
X0045*
X0045Y00214*
X0045Y00214*
X00449Y00214*
X00449Y00214*
X00448Y00214*
X00448Y00214*
X00447Y00214*
G37*
G36*
X0084Y02542D02*
X00824D01*
Y0252*
X0084Y02542*
G37*
G36*
X01849D02*
X01833D01*
Y0252*
X01849Y02542*
G37*
G36*
X00868Y01129D02*
Y01129D01*
Y01129*
Y01129*
X00868Y01128*
Y01128*
X00868Y01128*
X00868Y01127*
X00867Y01125*
X00867Y01124*
X00867Y01123*
X00866Y01121*
X00862Y0111*
X00875*
X00871Y01121*
Y01121*
X00871Y01121*
X00871Y01122*
X00871Y01122*
X0087Y01122*
X0087Y01123*
X0087Y01124*
X00869Y01125*
X00869Y01126*
X00869Y01128*
X00868Y01129*
G37*
G36*
X00325Y00273D02*
X00324D01*
X00324Y00273*
X00324*
X00323Y00273*
X00323Y00272*
X00322Y00272*
X00322Y00272*
X00322Y00272*
X00321Y00272*
X00321Y00272*
X00321Y00271*
X00321Y00271*
X0032Y0027*
X0032Y0027*
X00319Y00269*
X00319Y00269*
Y00269*
X00319Y00268*
X00319Y00268*
X00319Y00267*
X00319Y00266*
X00319Y00265*
Y00264*
Y00263*
Y00263*
Y00263*
Y00262*
X00319Y00262*
Y00261*
X00319Y0026*
X00319Y00259*
X00319Y00258*
X0032Y00256*
X00321Y00254*
X00321Y00254*
X00321Y00254*
X00321Y00254*
X00321Y00253*
X00322Y00253*
X00323Y00252*
X00324Y00251*
X00324Y00251*
X00325Y00251*
X00326Y00251*
X00326*
X00326*
X00327*
X00327Y00251*
X00328Y00251*
X00328Y00251*
X00329Y00252*
X0033Y00252*
X0033Y00253*
Y00253*
X00331Y00253*
X00331Y00253*
X00331Y00254*
X00331Y00254*
X00331Y00255*
X00331Y00255*
X00332Y00255*
X00332Y00256*
X00332Y00257*
X00332Y00257*
X00332Y00258*
Y00259*
Y0026*
Y0026*
Y00261*
Y00261*
Y00262*
X00332Y00262*
X00332Y00263*
X00332Y00264*
X00331Y00265*
X00331Y00267*
X00331Y00268*
X0033Y00269*
X0033Y00269*
X00329Y0027*
Y0027*
X00329Y0027*
X00329Y00271*
X00329Y00271*
X00328Y00271*
X00327Y00272*
X00326Y00272*
X00326Y00273*
X00325Y00273*
G37*
G36*
X00465Y00329D02*
X00465D01*
X00465*
X00464Y00329*
X00464Y00329*
X00463Y00328*
X00463Y00328*
X00462Y00328*
X00461Y00327*
X0046Y00327*
X0046Y00327*
X0046Y00327*
X0046Y00327*
X00459Y00326*
X00459Y00326*
X00458Y00326*
X00458Y00326*
X00457Y00325*
X00457Y00325*
X00457Y00324*
X00457*
Y00324*
X00456Y00324*
X00456Y00323*
X00456Y00323*
X00456Y00323*
X00456Y00322*
X00456Y00321*
Y00321*
X00456Y00321*
X00456Y0032*
X00456Y0032*
X00456Y00319*
X00456Y00319*
X00457Y00318*
X00457Y00318*
X00457Y00318*
X00457Y00318*
X00458Y00318*
X00458Y00317*
X00458Y00317*
X00459Y00317*
X00459*
X0046*
X0046*
X0046Y00317*
X00461Y00317*
X00462Y00318*
X00463Y00318*
X00464Y00319*
X00464Y00319*
X00465Y0032*
Y00329*
G37*
G36*
X0039D02*
D01*
X00389*
X00389Y00329*
X00389Y00329*
X00388Y00328*
X00387Y00328*
X00387Y00328*
X00386Y00327*
X00385Y00327*
X00385Y00327*
X00385Y00327*
X00384Y00327*
X00384Y00326*
X00384Y00326*
X00383Y00326*
X00383Y00326*
X00382Y00325*
X00382Y00325*
X00382Y00324*
X00381*
X00381Y00324*
X00381Y00324*
X00381Y00323*
X00381Y00323*
X00381Y00323*
X00381Y00322*
Y00321*
Y00321*
Y00321*
X00381Y0032*
X00381Y0032*
X00381Y00319*
X00381Y00319*
X00382Y00318*
Y00318*
X00382Y00318*
X00382Y00318*
X00382Y00318*
X00383Y00317*
X00383Y00317*
X00384Y00317*
X00384*
X00384*
X00385*
X00385Y00317*
X00386Y00317*
X00386Y00318*
X00387Y00318*
X00388Y00319*
X00389Y00319*
X0039Y0032*
Y00329*
G37*
G36*
X00409Y01129D02*
Y01129D01*
X00408Y01129*
Y01129*
X00408Y01128*
X00408Y01128*
X00408Y01128*
X00408Y01127*
X00408Y01125*
X00407Y01124*
X00407Y01123*
X00406Y01121*
X00402Y0111*
X00415*
X00411Y01121*
X00411Y01121*
X00411Y01121*
X00411Y01122*
X00411Y01122*
X00411Y01122*
X00411Y01123*
X0041Y01124*
X0041Y01125*
X00409Y01126*
X00409Y01128*
X00409Y01129*
G37*
G36*
X00537Y00273D02*
X00537D01*
X00536Y00272*
X00536Y00272*
X00535Y00272*
X00534Y00272*
X00534Y00271*
X00533Y00271*
X00533*
X00533Y00271*
X00533Y0027*
X00532Y0027*
X00532Y00269*
X00532Y00268*
X00531Y00267*
X00531Y00266*
X00542*
Y00266*
X00542Y00267*
Y00267*
Y00267*
X00542Y00268*
X00542Y00269*
X00542Y00269*
Y00269*
X00542Y0027*
X00541Y0027*
X00541Y0027*
X00541Y00271*
X00541Y00271*
X0054Y00271*
X0054Y00272*
Y00272*
X0054Y00272*
X00539Y00272*
X00539Y00272*
X00539Y00272*
X00538Y00272*
X00538Y00273*
X00537*
G37*
G36*
X01787Y01129D02*
Y01129D01*
Y01129*
Y01129*
X01787Y01128*
Y01128*
X01787Y01128*
X01787Y01127*
X01787Y01125*
X01786Y01124*
X01786Y01123*
X01785Y01121*
X01781Y0111*
X01794*
X0179Y01121*
Y01121*
X0179Y01121*
X0179Y01122*
X0179Y01122*
X0179Y01122*
X01789Y01123*
X01789Y01124*
X01789Y01125*
X01788Y01126*
X01788Y01128*
X01787Y01129*
G37*
G36*
X01328D02*
Y01129D01*
X01328Y01129*
Y01129*
X01328Y01128*
X01328Y01128*
X01327Y01128*
X01327Y01127*
X01327Y01125*
X01327Y01124*
X01326Y01123*
X01326Y01121*
X01321Y0111*
X01335*
X01331Y01121*
X01331Y01121*
X0133Y01121*
X0133Y01122*
X0133Y01122*
X0133Y01122*
X0133Y01123*
X0133Y01124*
X01329Y01125*
X01329Y01126*
X01328Y01128*
X01328Y01129*
G37*
G36*
X00367Y00273D02*
X00366D01*
X00366Y00273*
X00366*
X00365Y00273*
X00365Y00272*
X00364Y00272*
X00364Y00272*
X00364Y00272*
X00364Y00272*
X00363Y00272*
X00363Y00271*
X00363Y00271*
X00362Y0027*
X00362Y0027*
X00362Y00269*
Y00269*
X00361Y00269*
X00361Y00268*
X00361Y00268*
X00361Y00267*
X00361Y00266*
X00361Y00265*
Y00264*
Y00263*
Y00263*
Y00263*
Y00262*
X00361Y00262*
Y00261*
X00361Y0026*
X00361Y00259*
X00362Y00258*
X00362Y00256*
X00363Y00254*
X00363Y00254*
X00363Y00254*
X00363Y00254*
X00364Y00253*
X00364Y00253*
X00365Y00252*
X00366Y00251*
X00367Y00251*
X00367Y00251*
X00368Y00251*
X00368*
X00368*
X00369*
X00369Y00251*
X0037Y00251*
X00371Y00251*
X00371Y00252*
X00372Y00252*
X00373Y00253*
X00373Y00253*
X00373Y00253*
X00373Y00253*
X00373Y00254*
X00373Y00254*
X00373Y00255*
X00374Y00255*
X00374Y00255*
X00374Y00256*
X00374Y00257*
X00374Y00257*
X00374Y00258*
X00374Y00259*
Y0026*
Y0026*
Y00261*
X00374Y00261*
Y00262*
X00374Y00262*
X00374Y00263*
X00374Y00264*
X00374Y00265*
X00373Y00267*
X00373Y00268*
X00372Y00269*
X00372Y00269*
X00371Y0027*
Y0027*
X00371Y0027*
X00371Y00271*
X00371Y00271*
X0037Y00271*
X00369Y00272*
X00369Y00272*
X00368Y00273*
X00367Y00273*
G37*
G36*
X00443Y00283D02*
X00442D01*
X00442Y00283*
X00441Y00283*
X0044*
X00439Y00283*
X00438Y00283*
X00437Y00283*
Y00252*
X00437*
X00437*
X00438*
X00438Y00252*
X00438Y00252*
X00439Y00252*
X0044Y00252*
X00441Y00252*
X00442Y00251*
X00443*
X00443*
X00443*
X00444*
X00444Y00252*
X00445Y00252*
X00446Y00252*
X00446Y00252*
X00447Y00252*
X00448Y00252*
X00449Y00253*
X0045Y00253*
X00451Y00254*
X00451Y00254*
X00452Y00255*
X00453Y00256*
X00453Y00256*
X00453Y00256*
X00454Y00256*
X00454Y00257*
X00454Y00257*
X00455Y00258*
X00455Y00259*
X00455Y0026*
X00456Y0026*
X00456Y00261*
X00456Y00262*
X00457Y00264*
X00457Y00265*
X00457Y00266*
Y00267*
Y00268*
Y00268*
Y00268*
Y00269*
X00457Y00269*
X00457Y0027*
X00457Y00271*
X00457Y00272*
X00456Y00273*
X00456Y00274*
X00456Y00274*
X00455Y00275*
X00455Y00276*
X00454Y00277*
X00454Y00278*
X00453Y00279*
X00453Y00279*
X00453Y00279*
X00453Y00279*
X00452Y0028*
X00452Y0028*
X00451Y0028*
X00451Y00281*
X0045Y00281*
X00449Y00282*
X00449Y00282*
X00448Y00282*
X00447Y00283*
X00446Y00283*
X00445Y00283*
X00444Y00283*
X00443Y00283*
G37*
%LNmotor_driver-3*%
%LPD*%
G54D18*
X0123Y02204D03*
G54D19*
X01625Y02065D03*
X01635Y01865D03*
X00334Y0091D03*
X00957Y0093D03*
G54D20*
X00914Y01685D03*
X0032Y00716D03*
X0086Y02094D03*
G54D21*
X01354Y00992D03*
X00715Y02044D03*
G54D22*
X01623Y02409D03*
G54D23*
X00731Y01223D02*
D01*
X0073Y01235*
X00729Y01246*
X00727Y01258*
X00724Y01269*
X00721Y0128*
X00716Y01291*
X00711Y01301*
X00706Y01311*
X00699Y0132*
X00692Y01329*
X00684Y01338*
X00676Y01346*
X00667Y01353*
X00658Y0136*
X00648Y01366*
X00638Y01372*
X00627Y01376*
X00617Y0138*
X00606Y01383*
X00594Y01386*
X00583Y01387*
X00571Y01388*
X0056*
X00548Y01387*
X00537Y01386*
X00526Y01383*
X00515Y0138*
X00504Y01376*
X00493Y01372*
X00483Y01366*
X00473Y0136*
X00464Y01353*
X00455Y01346*
X00447Y01338*
X00439Y01329*
X00432Y0132*
X00426Y01311*
X0042Y01301*
X00415Y01291*
X00411Y0128*
X00407Y01269*
X00404Y01258*
X00402Y01246*
X00401Y01235*
X00401Y01223*
X00401Y01212*
X00402Y012*
X00404Y01189*
X00407Y01178*
X00411Y01167*
X00415Y01156*
X0042Y01146*
X00426Y01136*
X00432Y01126*
X00439Y01117*
X00447Y01109*
X00455Y01101*
X00464Y01093*
X00473Y01087*
X00483Y01081*
X00493Y01075*
X00504Y0107*
X00515Y01066*
X00526Y01063*
X00537Y01061*
X00548Y01059*
X0056Y01059*
X00571*
X00583Y01059*
X00594Y01061*
X00606Y01063*
X00617Y01066*
X00627Y0107*
X00638Y01075*
X00648Y01081*
X00658Y01087*
X00667Y01093*
X00676Y01101*
X00684Y01109*
X00692Y01117*
X00699Y01126*
X00706Y01136*
X00711Y01146*
X00716Y01156*
X00721Y01167*
X00724Y01178*
X00727Y01189*
X00729Y012*
X0073Y01212*
X00731Y01223*
X0119D02*
D01*
X0119Y01235*
X01189Y01246*
X01187Y01258*
X01184Y01269*
X0118Y0128*
X01176Y01291*
X01171Y01301*
X01165Y01311*
X01159Y0132*
X01152Y01329*
X01144Y01338*
X01136Y01346*
X01127Y01353*
X01117Y0136*
X01108Y01366*
X01098Y01372*
X01087Y01376*
X01076Y0138*
X01065Y01383*
X01054Y01386*
X01042Y01387*
X01031Y01388*
X01019*
X01008Y01387*
X00997Y01386*
X00985Y01383*
X00974Y0138*
X00963Y01376*
X00953Y01372*
X00943Y01366*
X00933Y0136*
X00924Y01353*
X00915Y01346*
X00907Y01338*
X00899Y01329*
X00892Y0132*
X00885Y01311*
X0088Y01301*
X00874Y01291*
X0087Y0128*
X00867Y01269*
X00864Y01258*
X00862Y01246*
X00861Y01235*
X0086Y01223*
X00861Y01212*
X00862Y012*
X00864Y01189*
X00867Y01178*
X0087Y01167*
X00874Y01156*
X0088Y01146*
X00885Y01136*
X00892Y01126*
X00899Y01117*
X00907Y01109*
X00915Y01101*
X00924Y01093*
X00933Y01087*
X00943Y01081*
X00953Y01075*
X00963Y0107*
X00974Y01066*
X00985Y01063*
X00997Y01061*
X01008Y01059*
X01019Y01059*
X01031*
X01042Y01059*
X01054Y01061*
X01065Y01063*
X01076Y01066*
X01087Y0107*
X01098Y01075*
X01108Y01081*
X01117Y01087*
X01127Y01093*
X01136Y01101*
X01144Y01109*
X01152Y01117*
X01159Y01126*
X01165Y01136*
X01171Y01146*
X01176Y01156*
X0118Y01167*
X01184Y01178*
X01187Y01189*
X01189Y012*
X0119Y01212*
X0119Y01223*
X0165D02*
D01*
X01649Y01235*
X01648Y01246*
X01646Y01258*
X01644Y01269*
X0164Y0128*
X01636Y01291*
X01631Y01301*
X01625Y01311*
X01618Y0132*
X01611Y01329*
X01604Y01338*
X01595Y01346*
X01586Y01353*
X01577Y0136*
X01567Y01366*
X01557Y01372*
X01547Y01376*
X01536Y0138*
X01525Y01383*
X01514Y01386*
X01502Y01387*
X01491Y01388*
X01479*
X01468Y01387*
X01456Y01386*
X01445Y01383*
X01434Y0138*
X01423Y01376*
X01413Y01372*
X01402Y01366*
X01393Y0136*
X01383Y01353*
X01374Y01346*
X01366Y01338*
X01359Y01329*
X01351Y0132*
X01345Y01311*
X01339Y01301*
X01334Y01291*
X0133Y0128*
X01326Y01269*
X01324Y01258*
X01322Y01246*
X0132Y01235*
X0132Y01223*
X0132Y01212*
X01322Y012*
X01324Y01189*
X01326Y01178*
X0133Y01167*
X01334Y01156*
X01339Y01146*
X01345Y01136*
X01351Y01126*
X01359Y01117*
X01366Y01109*
X01374Y01101*
X01383Y01093*
X01393Y01087*
X01402Y01081*
X01413Y01075*
X01423Y0107*
X01434Y01066*
X01445Y01063*
X01456Y01061*
X01468Y01059*
X01479Y01059*
X01491*
X01502Y01059*
X01514Y01061*
X01525Y01063*
X01536Y01066*
X01547Y0107*
X01557Y01075*
X01567Y01081*
X01577Y01087*
X01586Y01093*
X01595Y01101*
X01604Y01109*
X01611Y01117*
X01618Y01126*
X01625Y01136*
X01631Y01146*
X01636Y01156*
X0164Y01167*
X01644Y01178*
X01646Y01189*
X01648Y012*
X01649Y01212*
X0165Y01223*
X0211D02*
D01*
X02109Y01235*
X02108Y01246*
X02106Y01258*
X02103Y01269*
X021Y0128*
X02095Y01291*
X0209Y01301*
X02084Y01311*
X02078Y0132*
X02071Y01329*
X02063Y01338*
X02055Y01346*
X02046Y01353*
X02037Y0136*
X02027Y01366*
X02017Y01372*
X02006Y01376*
X01995Y0138*
X01984Y01383*
X01973Y01386*
X01962Y01387*
X0195Y01388*
X01939*
X01927Y01387*
X01916Y01386*
X01905Y01383*
X01894Y0138*
X01883Y01376*
X01872Y01372*
X01862Y01366*
X01852Y0136*
X01843Y01353*
X01834Y01346*
X01826Y01338*
X01818Y01329*
X01811Y0132*
X01805Y01311*
X01799Y01301*
X01794Y01291*
X01789Y0128*
X01786Y01269*
X01783Y01258*
X01781Y01246*
X0178Y01235*
X0178Y01223*
X0178Y01212*
X01781Y012*
X01783Y01189*
X01786Y01178*
X01789Y01167*
X01794Y01156*
X01799Y01146*
X01805Y01136*
X01811Y01126*
X01818Y01117*
X01826Y01109*
X01834Y01101*
X01843Y01093*
X01852Y01087*
X01862Y01081*
X01872Y01075*
X01883Y0107*
X01894Y01066*
X01905Y01063*
X01916Y01061*
X01927Y01059*
X01939Y01059*
X0195*
X01962Y01059*
X01973Y01061*
X01984Y01063*
X01995Y01066*
X02006Y0107*
X02017Y01075*
X02027Y01081*
X02037Y01087*
X02046Y01093*
X02055Y01101*
X02063Y01109*
X02071Y01117*
X02078Y01126*
X02084Y01136*
X0209Y01146*
X02095Y01156*
X021Y01167*
X02103Y01178*
X02106Y01189*
X02108Y012*
X02109Y01212*
X0211Y01223*
X00731D02*
D01*
X0073Y01235*
X00729Y01246*
X00727Y01258*
X00724Y01269*
X00721Y0128*
X00716Y01291*
X00711Y01301*
X00706Y01311*
X00699Y0132*
X00692Y01329*
X00684Y01338*
X00676Y01346*
X00667Y01353*
X00658Y0136*
X00648Y01366*
X00638Y01372*
X00627Y01376*
X00617Y0138*
X00606Y01383*
X00594Y01386*
X00583Y01387*
X00571Y01388*
X0056*
X00548Y01387*
X00537Y01386*
X00526Y01383*
X00515Y0138*
X00504Y01376*
X00493Y01372*
X00483Y01366*
X00473Y0136*
X00464Y01353*
X00455Y01346*
X00447Y01338*
X00439Y01329*
X00432Y0132*
X00426Y01311*
X0042Y01301*
X00415Y01291*
X00411Y0128*
X00407Y01269*
X00404Y01258*
X00402Y01246*
X00401Y01235*
X00401Y01223*
X00401Y01212*
X00402Y012*
X00404Y01189*
X00407Y01178*
X00411Y01167*
X00415Y01156*
X0042Y01146*
X00426Y01136*
X00432Y01126*
X00439Y01117*
X00447Y01109*
X00455Y01101*
X00464Y01093*
X00473Y01087*
X00483Y01081*
X00493Y01075*
X00504Y0107*
X00515Y01066*
X00526Y01063*
X00537Y01061*
X00548Y01059*
X0056Y01059*
X00571*
X00583Y01059*
X00594Y01061*
X00606Y01063*
X00617Y01066*
X00627Y0107*
X00638Y01075*
X00648Y01081*
X00658Y01087*
X00667Y01093*
X00676Y01101*
X00684Y01109*
X00692Y01117*
X00699Y01126*
X00706Y01136*
X00711Y01146*
X00716Y01156*
X00721Y01167*
X00724Y01178*
X00727Y01189*
X00729Y012*
X0073Y01212*
X00731Y01223*
X0119D02*
D01*
X0119Y01235*
X01189Y01246*
X01187Y01258*
X01184Y01269*
X0118Y0128*
X01176Y01291*
X01171Y01301*
X01165Y01311*
X01159Y0132*
X01152Y01329*
X01144Y01338*
X01136Y01346*
X01127Y01353*
X01117Y0136*
X01108Y01366*
X01098Y01372*
X01087Y01376*
X01076Y0138*
X01065Y01383*
X01054Y01386*
X01042Y01387*
X01031Y01388*
X01019*
X01008Y01387*
X00997Y01386*
X00985Y01383*
X00974Y0138*
X00963Y01376*
X00953Y01372*
X00943Y01366*
X00933Y0136*
X00924Y01353*
X00915Y01346*
X00907Y01338*
X00899Y01329*
X00892Y0132*
X00885Y01311*
X0088Y01301*
X00874Y01291*
X0087Y0128*
X00867Y01269*
X00864Y01258*
X00862Y01246*
X00861Y01235*
X0086Y01223*
X00861Y01212*
X00862Y012*
X00864Y01189*
X00867Y01178*
X0087Y01167*
X00874Y01156*
X0088Y01146*
X00885Y01136*
X00892Y01126*
X00899Y01117*
X00907Y01109*
X00915Y01101*
X00924Y01093*
X00933Y01087*
X00943Y01081*
X00953Y01075*
X00963Y0107*
X00974Y01066*
X00985Y01063*
X00997Y01061*
X01008Y01059*
X01019Y01059*
X01031*
X01042Y01059*
X01054Y01061*
X01065Y01063*
X01076Y01066*
X01087Y0107*
X01098Y01075*
X01108Y01081*
X01117Y01087*
X01127Y01093*
X01136Y01101*
X01144Y01109*
X01152Y01117*
X01159Y01126*
X01165Y01136*
X01171Y01146*
X01176Y01156*
X0118Y01167*
X01184Y01178*
X01187Y01189*
X01189Y012*
X0119Y01212*
X0119Y01223*
X0165D02*
D01*
X01649Y01235*
X01648Y01246*
X01646Y01258*
X01644Y01269*
X0164Y0128*
X01636Y01291*
X01631Y01301*
X01625Y01311*
X01618Y0132*
X01611Y01329*
X01604Y01338*
X01595Y01346*
X01586Y01353*
X01577Y0136*
X01567Y01366*
X01557Y01372*
X01547Y01376*
X01536Y0138*
X01525Y01383*
X01514Y01386*
X01502Y01387*
X01491Y01388*
X01479*
X01468Y01387*
X01456Y01386*
X01445Y01383*
X01434Y0138*
X01423Y01376*
X01413Y01372*
X01402Y01366*
X01393Y0136*
X01383Y01353*
X01374Y01346*
X01366Y01338*
X01359Y01329*
X01351Y0132*
X01345Y01311*
X01339Y01301*
X01334Y01291*
X0133Y0128*
X01326Y01269*
X01324Y01258*
X01322Y01246*
X0132Y01235*
X0132Y01223*
X0132Y01212*
X01322Y012*
X01324Y01189*
X01326Y01178*
X0133Y01167*
X01334Y01156*
X01339Y01146*
X01345Y01136*
X01351Y01126*
X01359Y01117*
X01366Y01109*
X01374Y01101*
X01383Y01093*
X01393Y01087*
X01402Y01081*
X01413Y01075*
X01423Y0107*
X01434Y01066*
X01445Y01063*
X01456Y01061*
X01468Y01059*
X01479Y01059*
X01491*
X01502Y01059*
X01514Y01061*
X01525Y01063*
X01536Y01066*
X01547Y0107*
X01557Y01075*
X01567Y01081*
X01577Y01087*
X01586Y01093*
X01595Y01101*
X01604Y01109*
X01611Y01117*
X01618Y01126*
X01625Y01136*
X01631Y01146*
X01636Y01156*
X0164Y01167*
X01644Y01178*
X01646Y01189*
X01648Y012*
X01649Y01212*
X0165Y01223*
X0211D02*
D01*
X02109Y01235*
X02108Y01246*
X02106Y01258*
X02103Y01269*
X021Y0128*
X02095Y01291*
X0209Y01301*
X02084Y01311*
X02078Y0132*
X02071Y01329*
X02063Y01338*
X02055Y01346*
X02046Y01353*
X02037Y0136*
X02027Y01366*
X02017Y01372*
X02006Y01376*
X01995Y0138*
X01984Y01383*
X01973Y01386*
X01962Y01387*
X0195Y01388*
X01939*
X01927Y01387*
X01916Y01386*
X01905Y01383*
X01894Y0138*
X01883Y01376*
X01872Y01372*
X01862Y01366*
X01852Y0136*
X01843Y01353*
X01834Y01346*
X01826Y01338*
X01818Y01329*
X01811Y0132*
X01805Y01311*
X01799Y01301*
X01794Y01291*
X01789Y0128*
X01786Y01269*
X01783Y01258*
X01781Y01246*
X0178Y01235*
X0178Y01223*
X0178Y01212*
X01781Y012*
X01783Y01189*
X01786Y01178*
X01789Y01167*
X01794Y01156*
X01799Y01146*
X01805Y01136*
X01811Y01126*
X01818Y01117*
X01826Y01109*
X01834Y01101*
X01843Y01093*
X01852Y01087*
X01862Y01081*
X01872Y01075*
X01883Y0107*
X01894Y01066*
X01905Y01063*
X01916Y01061*
X01927Y01059*
X01939Y01059*
X0195*
X01962Y01059*
X01973Y01061*
X01984Y01063*
X01995Y01066*
X02006Y0107*
X02017Y01075*
X02027Y01081*
X02037Y01087*
X02046Y01093*
X02055Y01101*
X02063Y01109*
X02071Y01117*
X02078Y01126*
X02084Y01136*
X0209Y01146*
X02095Y01156*
X021Y01167*
X02103Y01178*
X02106Y01189*
X02108Y012*
X02109Y01212*
X0211Y01223*
G54D24*
X01931Y00848D02*
X02018D01*
X01931Y00791D02*
X02018D01*
Y00848*
X01931Y00791D02*
Y00848D01*
X01471Y00873D02*
X01558D01*
X01471Y00816D02*
X01558D01*
Y00873*
X01471Y00816D02*
Y00873D01*
X00596Y00771D02*
X00682D01*
X00596Y00828D02*
X00682D01*
X00596Y00771D02*
Y00828D01*
X00682Y00771D02*
Y00828D01*
X01975Y008D02*
Y00839D01*
X01955Y0082D02*
X01994D01*
X01919Y00851D02*
X0203D01*
X01919Y00788D02*
X0203D01*
Y00851*
X01919Y00788D02*
Y00851D01*
X01515Y00825D02*
Y00864D01*
X01495Y00845D02*
X01534D01*
X01459Y00876D02*
X0157D01*
X01459Y00813D02*
X0157D01*
Y00876*
X01459Y00813D02*
Y00876D01*
X00639Y0078D02*
Y00819D01*
X00619Y008D02*
X00659D01*
X00584Y00768D02*
X00694D01*
X00584Y00831D02*
X00694D01*
X00584Y00768D02*
Y00831D01*
X00694Y00768D02*
Y00831D01*
G54D25*
X00785Y0232D02*
X008D01*
X0107D02*
X01085D01*
X0136Y023D02*
X01375D01*
X01645D02*
X0166D01*
G54D26*
X0081Y02285D02*
D01*
X0081Y02284*
X0081Y02283*
X0081Y02282*
X0081Y02282*
X0081Y02281*
X0081Y0228*
X00811Y0228*
X00811Y02279*
X00811Y02279*
X00812Y02278*
X00812Y02278*
X00813Y02277*
X00813Y02277*
X00814Y02276*
X00815Y02276*
X00815Y02276*
X00816Y02275*
X00816Y02275*
X00817Y02275*
X00818Y02275*
X00818Y02275*
X00819Y02275*
X0082Y02275*
Y02365D02*
D01*
X00819Y02364*
X00818Y02364*
X00817Y02364*
X00817Y02364*
X00816Y02364*
X00815Y02364*
X00815Y02363*
X00814Y02363*
X00814Y02363*
X00813Y02362*
X00813Y02362*
X00812Y02361*
X00812Y02361*
X00811Y0236*
X00811Y0236*
X00811Y02359*
X0081Y02358*
X0081Y02358*
X0081Y02357*
X0081Y02356*
X0081Y02356*
X0081Y02355*
X0081Y02355*
X0106D02*
D01*
X01059Y02355*
X01059Y02356*
X01059Y02357*
X01059Y02357*
X01059Y02358*
X01059Y02359*
X01058Y02359*
X01058Y0236*
X01058Y0236*
X01057Y02361*
X01057Y02361*
X01056Y02362*
X01056Y02362*
X01055Y02363*
X01055Y02363*
X01054Y02363*
X01053Y02364*
X01053Y02364*
X01052Y02364*
X01051Y02364*
X01051Y02364*
X0105Y02364*
X0105Y02365*
Y02275D02*
D01*
X0105Y02275*
X01051Y02275*
X01052Y02275*
X01052Y02275*
X01053Y02275*
X01054Y02275*
X01054Y02276*
X01055Y02276*
X01055Y02276*
X01056Y02277*
X01056Y02277*
X01057Y02278*
X01057Y02278*
X01058Y02279*
X01058Y0228*
X01058Y0228*
X01059Y02281*
X01059Y02281*
X01059Y02282*
X01059Y02283*
X01059Y02283*
X01059Y02284*
X0106Y02285*
X0046Y0185D02*
D01*
X0046Y01848*
X0046Y01847*
X0046Y01845*
X0046Y01844*
X00461Y01843*
X00461Y01841*
X00462Y0184*
X00463Y01839*
X00463Y01838*
X00464Y01837*
X00465Y01836*
X00466Y01835*
X00467Y01834*
X00468Y01833*
X0047Y01832*
X00471Y01832*
X00472Y01831*
X00473Y0183*
X00475Y0183*
X00476Y0183*
X00477Y0183*
X00479Y0183*
X0048*
X00482Y0183*
X00483Y0183*
X00484Y0183*
X00486Y0183*
X00487Y01831*
X00488Y01832*
X0049Y01832*
X00491Y01833*
X00492Y01834*
X00493Y01835*
X00494Y01836*
X00495Y01837*
X00496Y01838*
X00496Y01839*
X00497Y0184*
X00498Y01841*
X00498Y01843*
X00499Y01844*
X00499Y01845*
X00499Y01847*
X00499Y01848*
X005Y0185*
X00418D02*
D01*
X00416Y01849*
X00415Y01849*
X00414Y01849*
X00413Y01849*
X00412Y01849*
X00411Y01848*
X0041Y01848*
X0041Y01847*
X00409Y01847*
X00408Y01846*
X00407Y01845*
X00406Y01845*
X00406Y01844*
X00405Y01843*
X00405Y01842*
X00404Y01841*
X00404Y0184*
X00403Y01839*
X00403Y01838*
X00403Y01837*
X00403Y01836*
X00403Y01835*
X00403Y01835*
X00542Y015D02*
D01*
X00543Y015*
X00544Y015*
X00545Y015*
X00546Y015*
X00547Y015*
X00548Y01501*
X00549Y01501*
X00549Y01502*
X0055Y01502*
X00551Y01503*
X00552Y01504*
X00553Y01504*
X00553Y01505*
X00554Y01506*
X00554Y01507*
X00555Y01508*
X00555Y01509*
X00556Y0151*
X00556Y01511*
X00556Y01512*
X00556Y01513*
X00556Y01514*
X00557Y01515*
Y01835D02*
D01*
X00556Y01836*
X00556Y01837*
X00556Y01838*
X00556Y01839*
X00556Y0184*
X00555Y01841*
X00555Y01842*
X00554Y01842*
X00554Y01843*
X00553Y01844*
X00552Y01845*
X00552Y01846*
X00551Y01846*
X0055Y01847*
X00549Y01847*
X00548Y01848*
X00547Y01848*
X00546Y01849*
X00545Y01849*
X00544Y01849*
X00543Y01849*
X00542Y01849*
X00542Y0185*
X00403Y01515D02*
D01*
X00403Y01513*
X00403Y01512*
X00403Y01511*
X00403Y0151*
X00403Y01509*
X00404Y01508*
X00404Y01507*
X00405Y01507*
X00405Y01506*
X00406Y01505*
X00407Y01504*
X00407Y01503*
X00408Y01503*
X00409Y01502*
X0041Y01502*
X00411Y01501*
X00412Y01501*
X00413Y015*
X00414Y015*
X00415Y015*
X00416Y015*
X00417Y015*
X00418Y015*
X00465Y0235D02*
D01*
X00465Y02348*
X00465Y02347*
X00465Y02345*
X00465Y02344*
X00466Y02343*
X00466Y02341*
X00467Y0234*
X00468Y02339*
X00468Y02338*
X00469Y02337*
X0047Y02336*
X00471Y02335*
X00472Y02334*
X00473Y02333*
X00475Y02332*
X00476Y02332*
X00477Y02331*
X00478Y0233*
X0048Y0233*
X00481Y0233*
X00482Y0233*
X00484Y0233*
X00485*
X00487Y0233*
X00488Y0233*
X00489Y0233*
X00491Y0233*
X00492Y02331*
X00493Y02332*
X00495Y02332*
X00496Y02333*
X00497Y02334*
X00498Y02335*
X00499Y02336*
X005Y02337*
X00501Y02338*
X00501Y02339*
X00502Y0234*
X00503Y02341*
X00503Y02343*
X00504Y02344*
X00504Y02345*
X00504Y02347*
X00504Y02348*
X00505Y0235*
X00423D02*
D01*
X00421Y02349*
X0042Y02349*
X00419Y02349*
X00418Y02349*
X00417Y02349*
X00416Y02348*
X00415Y02348*
X00415Y02347*
X00414Y02347*
X00413Y02346*
X00412Y02345*
X00411Y02345*
X00411Y02344*
X0041Y02343*
X0041Y02342*
X00409Y02341*
X00409Y0234*
X00408Y02339*
X00408Y02338*
X00408Y02337*
X00408Y02336*
X00408Y02335*
X00408Y02335*
X00547Y02D02*
D01*
X00548Y02*
X00549Y02*
X0055Y02*
X00551Y02*
X00552Y02*
X00553Y02001*
X00554Y02001*
X00554Y02002*
X00555Y02002*
X00556Y02003*
X00557Y02004*
X00558Y02004*
X00558Y02005*
X00559Y02006*
X00559Y02007*
X0056Y02008*
X0056Y02009*
X00561Y0201*
X00561Y02011*
X00561Y02012*
X00561Y02013*
X00561Y02014*
X00562Y02015*
Y02335D02*
D01*
X00561Y02336*
X00561Y02337*
X00561Y02338*
X00561Y02339*
X00561Y0234*
X0056Y02341*
X0056Y02342*
X00559Y02342*
X00559Y02343*
X00558Y02344*
X00557Y02345*
X00557Y02346*
X00556Y02346*
X00555Y02347*
X00554Y02347*
X00553Y02348*
X00552Y02348*
X00551Y02349*
X0055Y02349*
X00549Y02349*
X00548Y02349*
X00547Y02349*
X00547Y0235*
X00408Y02015D02*
D01*
X00408Y02013*
X00408Y02012*
X00408Y02011*
X00408Y0201*
X00408Y02009*
X00409Y02008*
X00409Y02007*
X0041Y02007*
X0041Y02006*
X00411Y02005*
X00412Y02004*
X00412Y02003*
X00413Y02003*
X00414Y02002*
X00415Y02002*
X00416Y02001*
X00417Y02001*
X00418Y02*
X00419Y02*
X0042Y02*
X00421Y02*
X00422Y02*
X00423Y02*
X01385Y02265D02*
D01*
X01385Y02264*
X01385Y02263*
X01385Y02262*
X01385Y02262*
X01385Y02261*
X01385Y0226*
X01386Y0226*
X01386Y02259*
X01386Y02259*
X01387Y02258*
X01387Y02258*
X01388Y02257*
X01388Y02257*
X01389Y02256*
X0139Y02256*
X0139Y02256*
X01391Y02255*
X01391Y02255*
X01392Y02255*
X01393Y02255*
X01393Y02255*
X01394Y02255*
X01395Y02255*
Y02345D02*
D01*
X01394Y02344*
X01393Y02344*
X01392Y02344*
X01392Y02344*
X01391Y02344*
X0139Y02344*
X0139Y02343*
X01389Y02343*
X01389Y02343*
X01388Y02342*
X01388Y02342*
X01387Y02341*
X01387Y02341*
X01386Y0234*
X01386Y0234*
X01386Y02339*
X01385Y02338*
X01385Y02338*
X01385Y02337*
X01385Y02336*
X01385Y02336*
X01385Y02335*
X01385Y02335*
X01635D02*
D01*
X01634Y02335*
X01634Y02336*
X01634Y02337*
X01634Y02337*
X01634Y02338*
X01634Y02339*
X01633Y02339*
X01633Y0234*
X01633Y0234*
X01632Y02341*
X01632Y02341*
X01631Y02342*
X01631Y02342*
X0163Y02343*
X0163Y02343*
X01629Y02343*
X01628Y02344*
X01628Y02344*
X01627Y02344*
X01626Y02344*
X01626Y02344*
X01625Y02344*
X01625Y02345*
Y02255D02*
D01*
X01625Y02255*
X01626Y02255*
X01627Y02255*
X01627Y02255*
X01628Y02255*
X01629Y02255*
X01629Y02256*
X0163Y02256*
X0163Y02256*
X01631Y02257*
X01631Y02257*
X01632Y02258*
X01632Y02258*
X01633Y02259*
X01633Y0226*
X01633Y0226*
X01634Y02261*
X01634Y02261*
X01634Y02262*
X01634Y02263*
X01634Y02263*
X01634Y02264*
X01635Y02265*
X0118Y02146D02*
D01*
X0118Y02142*
X0118Y02139*
X01181Y02135*
X01181Y02132*
X01183Y02128*
X01184Y02125*
X01185Y02122*
X01187Y02119*
X01189Y02116*
X01191Y02113*
X01194Y02111*
X01196Y02108*
X01199Y02106*
X01202Y02104*
X01205Y02102*
X01208Y02101*
X01211Y02099*
X01214Y02098*
X01217Y02097*
X01221Y02096*
X01224Y02096*
X01228Y02096*
X01231*
X01235Y02096*
X01238Y02096*
X01242Y02097*
X01245Y02098*
X01248Y02099*
X01251Y02101*
X01255Y02102*
X01257Y02104*
X0126Y02106*
X01263Y02108*
X01265Y02111*
X01268Y02113*
X0127Y02116*
X01272Y02119*
X01274Y02122*
X01275Y02125*
X01276Y02128*
X01278Y02132*
X01278Y02135*
X01279Y02139*
X01279Y02142*
X0128Y02146*
X01098D02*
D01*
X01096Y02145*
X01095Y02145*
X01094Y02145*
X01093Y02145*
X01092Y02145*
X01091Y02144*
X0109Y02144*
X0109Y02143*
X01089Y02143*
X01088Y02142*
X01087Y02141*
X01086Y02141*
X01086Y0214*
X01085Y02139*
X01085Y02138*
X01084Y02137*
X01084Y02136*
X01083Y02135*
X01083Y02134*
X01083Y02133*
X01083Y02132*
X01083Y02131*
X01083Y02131*
X01362Y01634D02*
D01*
X01363Y01634*
X01364Y01634*
X01365Y01634*
X01366Y01634*
X01367Y01634*
X01368Y01635*
X01369Y01635*
X01369Y01636*
X0137Y01636*
X01371Y01637*
X01372Y01638*
X01373Y01638*
X01373Y01639*
X01374Y0164*
X01374Y01641*
X01375Y01642*
X01375Y01643*
X01376Y01644*
X01376Y01645*
X01376Y01646*
X01376Y01647*
X01376Y01648*
X01377Y01649*
Y02131D02*
D01*
X01376Y02132*
X01376Y02133*
X01376Y02134*
X01376Y02135*
X01376Y02136*
X01375Y02137*
X01375Y02138*
X01374Y02138*
X01374Y02139*
X01373Y0214*
X01372Y02141*
X01372Y02142*
X01371Y02142*
X0137Y02143*
X01369Y02143*
X01368Y02144*
X01367Y02144*
X01366Y02145*
X01365Y02145*
X01364Y02145*
X01363Y02145*
X01362Y02145*
X01362Y02146*
X01083Y01649D02*
D01*
X01083Y01647*
X01083Y01646*
X01083Y01645*
X01083Y01644*
X01083Y01643*
X01084Y01642*
X01084Y01641*
X01085Y01641*
X01085Y0164*
X01086Y01639*
X01087Y01638*
X01087Y01637*
X01088Y01637*
X01089Y01636*
X0109Y01636*
X01091Y01635*
X01092Y01635*
X01093Y01634*
X01094Y01634*
X01095Y01634*
X01096Y01634*
X01097Y01634*
X01098Y01634*
X00637Y01223D02*
D01*
X00636Y01228*
X00636Y01233*
X00635Y01238*
X00634Y01243*
X00632Y01248*
X0063Y01252*
X00628Y01257*
X00626Y01261*
X00623Y01265*
X0062Y01269*
X00617Y01273*
X00613Y01276*
X00609Y01279*
X00605Y01282*
X00601Y01285*
X00597Y01287*
X00592Y01289*
X00588Y01291*
X00583Y01292*
X00578Y01293*
X00573Y01294*
X00568Y01294*
X00563*
X00558Y01294*
X00553Y01293*
X00548Y01292*
X00544Y01291*
X00539Y01289*
X00534Y01287*
X0053Y01285*
X00526Y01282*
X00522Y01279*
X00518Y01276*
X00515Y01273*
X00511Y01269*
X00508Y01265*
X00505Y01261*
X00503Y01257*
X00501Y01252*
X00499Y01248*
X00497Y01243*
X00496Y01238*
X00495Y01233*
X00495Y01228*
X00495Y01223*
X00495Y01218*
X00495Y01214*
X00496Y01209*
X00497Y01204*
X00499Y01199*
X00501Y01195*
X00503Y0119*
X00505Y01186*
X00508Y01182*
X00511Y01178*
X00515Y01174*
X00518Y01171*
X00522Y01167*
X00526Y01165*
X0053Y01162*
X00534Y0116*
X00539Y01158*
X00544Y01156*
X00548Y01155*
X00553Y01153*
X00558Y01153*
X00563Y01152*
X00568*
X00573Y01153*
X00578Y01153*
X00583Y01155*
X00588Y01156*
X00592Y01158*
X00597Y0116*
X00601Y01162*
X00605Y01165*
X00609Y01167*
X00613Y01171*
X00617Y01174*
X0062Y01178*
X00623Y01182*
X00626Y01186*
X00628Y0119*
X0063Y01195*
X00632Y01199*
X00634Y01204*
X00635Y01209*
X00636Y01214*
X00636Y01218*
X00637Y01223*
X01096D02*
D01*
X01096Y01228*
X01096Y01233*
X01095Y01238*
X01093Y01243*
X01092Y01248*
X0109Y01252*
X01088Y01257*
X01085Y01261*
X01083Y01265*
X0108Y01269*
X01076Y01273*
X01073Y01276*
X01069Y01279*
X01065Y01282*
X01061Y01285*
X01056Y01287*
X01052Y01289*
X01047Y01291*
X01042Y01292*
X01038Y01293*
X01033Y01294*
X01028Y01294*
X01023*
X01018Y01294*
X01013Y01293*
X01008Y01292*
X01003Y01291*
X00999Y01289*
X00994Y01287*
X0099Y01285*
X00985Y01282*
X00981Y01279*
X00978Y01276*
X00974Y01273*
X00971Y01269*
X00968Y01265*
X00965Y01261*
X00963Y01257*
X0096Y01252*
X00958Y01248*
X00957Y01243*
X00956Y01238*
X00955Y01233*
X00954Y01228*
X00954Y01223*
X00954Y01218*
X00955Y01214*
X00956Y01209*
X00957Y01204*
X00958Y01199*
X0096Y01195*
X00963Y0119*
X00965Y01186*
X00968Y01182*
X00971Y01178*
X00974Y01174*
X00978Y01171*
X00981Y01167*
X00985Y01165*
X0099Y01162*
X00994Y0116*
X00999Y01158*
X01003Y01156*
X01008Y01155*
X01013Y01153*
X01018Y01153*
X01023Y01152*
X01028*
X01033Y01153*
X01038Y01153*
X01042Y01155*
X01047Y01156*
X01052Y01158*
X01056Y0116*
X01061Y01162*
X01065Y01165*
X01069Y01167*
X01073Y01171*
X01076Y01174*
X0108Y01178*
X01083Y01182*
X01085Y01186*
X01088Y0119*
X0109Y01195*
X01092Y01199*
X01093Y01204*
X01095Y01209*
X01096Y01214*
X01096Y01218*
X01096Y01223*
X01556D02*
D01*
X01556Y01228*
X01555Y01233*
X01554Y01238*
X01553Y01243*
X01552Y01248*
X0155Y01252*
X01548Y01257*
X01545Y01261*
X01542Y01265*
X01539Y01269*
X01536Y01273*
X01532Y01276*
X01529Y01279*
X01525Y01282*
X0152Y01285*
X01516Y01287*
X01511Y01289*
X01507Y01291*
X01502Y01292*
X01497Y01293*
X01492Y01294*
X01487Y01294*
X01482*
X01477Y01294*
X01473Y01293*
X01468Y01292*
X01463Y01291*
X01458Y01289*
X01454Y01287*
X01449Y01285*
X01445Y01282*
X01441Y01279*
X01437Y01276*
X01434Y01273*
X01431Y01269*
X01427Y01265*
X01425Y01261*
X01422Y01257*
X0142Y01252*
X01418Y01248*
X01417Y01243*
X01415Y01238*
X01415Y01233*
X01414Y01228*
X01414Y01223*
X01414Y01218*
X01415Y01214*
X01415Y01209*
X01417Y01204*
X01418Y01199*
X0142Y01195*
X01422Y0119*
X01425Y01186*
X01427Y01182*
X01431Y01178*
X01434Y01174*
X01437Y01171*
X01441Y01167*
X01445Y01165*
X01449Y01162*
X01454Y0116*
X01458Y01158*
X01463Y01156*
X01468Y01155*
X01473Y01153*
X01477Y01153*
X01482Y01152*
X01487*
X01492Y01153*
X01497Y01153*
X01502Y01155*
X01507Y01156*
X01511Y01158*
X01516Y0116*
X0152Y01162*
X01525Y01165*
X01529Y01167*
X01532Y01171*
X01536Y01174*
X01539Y01178*
X01542Y01182*
X01545Y01186*
X01548Y0119*
X0155Y01195*
X01552Y01199*
X01553Y01204*
X01554Y01209*
X01555Y01214*
X01556Y01218*
X01556Y01223*
X02016D02*
D01*
X02015Y01228*
X02015Y01233*
X02014Y01238*
X02013Y01243*
X02011Y01248*
X02009Y01252*
X02007Y01257*
X02005Y01261*
X02002Y01265*
X01999Y01269*
X01996Y01273*
X01992Y01276*
X01988Y01279*
X01984Y01282*
X0198Y01285*
X01976Y01287*
X01971Y01289*
X01966Y01291*
X01962Y01292*
X01957Y01293*
X01952Y01294*
X01947Y01294*
X01942*
X01937Y01294*
X01932Y01293*
X01927Y01292*
X01923Y01291*
X01918Y01289*
X01913Y01287*
X01909Y01285*
X01905Y01282*
X01901Y01279*
X01897Y01276*
X01893Y01273*
X0189Y01269*
X01887Y01265*
X01884Y01261*
X01882Y01257*
X0188Y01252*
X01878Y01248*
X01876Y01243*
X01875Y01238*
X01874Y01233*
X01874Y01228*
X01874Y01223*
X01874Y01218*
X01874Y01214*
X01875Y01209*
X01876Y01204*
X01878Y01199*
X0188Y01195*
X01882Y0119*
X01884Y01186*
X01887Y01182*
X0189Y01178*
X01893Y01174*
X01897Y01171*
X01901Y01167*
X01905Y01165*
X01909Y01162*
X01913Y0116*
X01918Y01158*
X01923Y01156*
X01927Y01155*
X01932Y01153*
X01937Y01153*
X01942Y01152*
X01947*
X01952Y01153*
X01957Y01153*
X01962Y01155*
X01966Y01156*
X01971Y01158*
X01976Y0116*
X0198Y01162*
X01984Y01165*
X01988Y01167*
X01992Y01171*
X01996Y01174*
X01999Y01178*
X02002Y01182*
X02005Y01186*
X02007Y0119*
X02009Y01195*
X02011Y01199*
X02013Y01204*
X02014Y01209*
X02015Y01214*
X02015Y01218*
X02016Y01223*
X01348Y0268D02*
D01*
X01346Y02679*
X01345Y02679*
X01343Y02679*
X01342Y02679*
X01341Y02678*
X01339Y02678*
X01338Y02677*
X01337Y02676*
X01336Y02676*
X01335Y02675*
X01334Y02674*
X01333Y02673*
X01332Y02672*
X01331Y02671*
X0133Y0267*
X0133Y02668*
X01329Y02667*
X01328Y02666*
X01328Y02664*
X01328Y02663*
X01328Y02662*
X01328Y0266*
X01328Y0266*
X01888Y0239D02*
D01*
X01889Y0239*
X01891Y0239*
X01892Y0239*
X01893Y0239*
X01895Y02391*
X01896Y02391*
X01897Y02392*
X01898Y02393*
X019Y02393*
X01901Y02394*
X01902Y02395*
X01903Y02396*
X01904Y02397*
X01904Y02398*
X01905Y024*
X01906Y02401*
X01906Y02402*
X01907Y02403*
X01907Y02405*
X01907Y02406*
X01908Y02407*
X01908Y02409*
X01908Y0241*
Y0266D02*
D01*
X01908Y02661*
X01908Y02662*
X01907Y02664*
X01907Y02665*
X01907Y02666*
X01906Y02668*
X01905Y02669*
X01905Y0267*
X01904Y02671*
X01903Y02672*
X01902Y02673*
X01901Y02674*
X019Y02675*
X01899Y02676*
X01898Y02677*
X01897Y02677*
X01895Y02678*
X01894Y02679*
X01893Y02679*
X01891Y02679*
X0189Y02679*
X01888Y02679*
X01888Y0268*
X01328Y0241D02*
D01*
X01328Y02408*
X01328Y02407*
X01328Y02405*
X01328Y02404*
X01329Y02403*
X01329Y02401*
X0133Y024*
X01331Y02399*
X01331Y02398*
X01332Y02397*
X01333Y02396*
X01334Y02395*
X01335Y02394*
X01336Y02393*
X01338Y02392*
X01339Y02392*
X0134Y02391*
X01341Y0239*
X01343Y0239*
X01344Y0239*
X01345Y0239*
X01347Y0239*
X01348Y0239*
X01868Y0263D02*
D01*
X01868Y0263*
X01868Y02631*
X01868Y02632*
X01867Y02632*
X01867Y02633*
X01867Y02634*
X01867Y02634*
X01866Y02635*
X01866Y02635*
X01865Y02636*
X01865Y02636*
X01864Y02637*
X01864Y02637*
X01863Y02638*
X01863Y02638*
X01862Y02638*
X01862Y02639*
X01861Y02639*
X0186Y02639*
X0186Y02639*
X01859Y02639*
X01858Y02639*
X01858Y0264*
Y0243D02*
D01*
X01858Y0243*
X01859Y0243*
X0186Y0243*
X01861Y0243*
X01861Y0243*
X01862Y0243*
X01862Y02431*
X01863Y02431*
X01864Y02431*
X01864Y02432*
X01865Y02432*
X01865Y02433*
X01866Y02433*
X01866Y02434*
X01866Y02435*
X01867Y02435*
X01867Y02436*
X01867Y02436*
X01868Y02437*
X01868Y02438*
X01868Y02438*
X01868Y02439*
X01868Y0244*
X01368D02*
D01*
X01368Y02439*
X01368Y02438*
X01368Y02437*
X01368Y02437*
X01368Y02436*
X01368Y02435*
X01369Y02435*
X01369Y02434*
X01369Y02434*
X0137Y02433*
X0137Y02433*
X01371Y02432*
X01371Y02432*
X01372Y02431*
X01373Y02431*
X01373Y02431*
X01374Y0243*
X01374Y0243*
X01375Y0243*
X01376Y0243*
X01376Y0243*
X01377Y0243*
X01378Y0243*
Y0264D02*
D01*
X01377Y02639*
X01376Y02639*
X01375Y02639*
X01375Y02639*
X01374Y02639*
X01373Y02639*
X01373Y02638*
X01372Y02638*
X01372Y02638*
X01371Y02637*
X01371Y02637*
X0137Y02636*
X0137Y02636*
X01369Y02635*
X01369Y02635*
X01369Y02634*
X01368Y02633*
X01368Y02633*
X01368Y02632*
X01368Y02631*
X01368Y02631*
X01368Y0263*
X01368Y0263*
X00338Y0268D02*
D01*
X00337Y02679*
X00336Y02679*
X00334Y02679*
X00333Y02679*
X00331Y02678*
X0033Y02678*
X00329Y02677*
X00328Y02676*
X00327Y02676*
X00325Y02675*
X00324Y02674*
X00323Y02673*
X00323Y02672*
X00322Y02671*
X00321Y0267*
X0032Y02668*
X0032Y02667*
X00319Y02666*
X00319Y02664*
X00319Y02663*
X00318Y02662*
X00318Y0266*
X00318Y0266*
X00879Y0239D02*
D01*
X0088Y0239*
X00881Y0239*
X00883Y0239*
X00884Y0239*
X00885Y02391*
X00887Y02391*
X00888Y02392*
X00889Y02393*
X0089Y02393*
X00891Y02394*
X00892Y02395*
X00893Y02396*
X00894Y02397*
X00895Y02398*
X00896Y024*
X00897Y02401*
X00897Y02402*
X00898Y02403*
X00898Y02405*
X00898Y02406*
X00898Y02407*
X00899Y02409*
X00899Y0241*
Y0266D02*
D01*
X00899Y02661*
X00898Y02662*
X00898Y02664*
X00898Y02665*
X00897Y02666*
X00897Y02668*
X00896Y02669*
X00896Y0267*
X00895Y02671*
X00894Y02672*
X00893Y02673*
X00892Y02674*
X00891Y02675*
X0089Y02676*
X00889Y02677*
X00887Y02677*
X00886Y02678*
X00885Y02679*
X00883Y02679*
X00882Y02679*
X00881Y02679*
X00879Y02679*
X00879Y0268*
X00318Y0241D02*
D01*
X00318Y02408*
X00318Y02407*
X00319Y02405*
X00319Y02404*
X0032Y02403*
X0032Y02401*
X00321Y024*
X00321Y02399*
X00322Y02398*
X00323Y02397*
X00324Y02396*
X00325Y02395*
X00326Y02394*
X00327Y02393*
X00328Y02392*
X0033Y02392*
X00331Y02391*
X00332Y0239*
X00333Y0239*
X00335Y0239*
X00336Y0239*
X00338Y0239*
X00338Y0239*
X00859Y0263D02*
D01*
X00859Y0263*
X00859Y02631*
X00858Y02632*
X00858Y02632*
X00858Y02633*
X00858Y02634*
X00857Y02634*
X00857Y02635*
X00857Y02635*
X00856Y02636*
X00856Y02636*
X00855Y02637*
X00855Y02637*
X00854Y02638*
X00854Y02638*
X00853Y02638*
X00852Y02639*
X00852Y02639*
X00851Y02639*
X0085Y02639*
X0085Y02639*
X00849Y02639*
X00849Y0264*
Y0243D02*
D01*
X00849Y0243*
X0085Y0243*
X00851Y0243*
X00851Y0243*
X00852Y0243*
X00853Y0243*
X00853Y02431*
X00854Y02431*
X00854Y02431*
X00855Y02432*
X00856Y02432*
X00856Y02433*
X00856Y02433*
X00857Y02434*
X00857Y02435*
X00858Y02435*
X00858Y02436*
X00858Y02436*
X00858Y02437*
X00858Y02438*
X00859Y02438*
X00859Y02439*
X00859Y0244*
X00358D02*
D01*
X00358Y02439*
X00358Y02438*
X00359Y02437*
X00359Y02437*
X00359Y02436*
X00359Y02435*
X00359Y02435*
X0036Y02434*
X0036Y02434*
X00361Y02433*
X00361Y02433*
X00362Y02432*
X00362Y02432*
X00363Y02431*
X00363Y02431*
X00364Y02431*
X00365Y0243*
X00365Y0243*
X00366Y0243*
X00367Y0243*
X00367Y0243*
X00368Y0243*
X00368Y0243*
Y0264D02*
D01*
X00368Y02639*
X00367Y02639*
X00366Y02639*
X00366Y02639*
X00365Y02639*
X00364Y02639*
X00364Y02638*
X00363Y02638*
X00362Y02638*
X00362Y02637*
X00361Y02637*
X00361Y02636*
X0036Y02636*
X0036Y02635*
X0036Y02635*
X00359Y02634*
X00359Y02633*
X00359Y02633*
X00359Y02632*
X00358Y02631*
X00358Y02631*
X00358Y0263*
X00358Y0263*
X0082Y02365D02*
X00835D01*
X0082Y02275D02*
X00835D01*
X0084Y0236D02*
X0103D01*
X00835Y02365D02*
X0084Y0236D01*
Y0228D02*
X0103D01*
X00835Y02275D02*
X0084Y0228D01*
X0103Y0236D02*
X01035Y02365D01*
X0105*
X0103Y0228D02*
X01035Y02275D01*
X0105*
X00418Y0185D02*
X0046D01*
X005*
X00542*
X00418Y015D02*
X00542D01*
X00403Y01515D02*
Y01835D01*
X00557Y01515D02*
Y01835D01*
X00423Y0235D02*
X00465D01*
X00505*
X00547*
X00423Y02D02*
X00547D01*
X00408Y02015D02*
Y02335D01*
X00562Y02015D02*
Y02335D01*
X01395Y02345D02*
X0141D01*
X01395Y02255D02*
X0141D01*
X01415Y0234D02*
X01605D01*
X0141Y02345D02*
X01415Y0234D01*
Y0226D02*
X01605D01*
X0141Y02255D02*
X01415Y0226D01*
X01605Y0234D02*
X0161Y02345D01*
X01625*
X01605Y0226D02*
X0161Y02255D01*
X01625*
X01098Y02146D02*
X01362D01*
X01098Y01634D02*
X01362D01*
X01083Y01649D02*
Y02131D01*
X01377Y01649D02*
Y02131D01*
X00361Y01283D02*
Y01358D01*
Y01283D02*
X00396D01*
Y01223D02*
Y01283D01*
X00361Y01223D02*
X00396D01*
X00361Y00733D02*
Y01223D01*
X00771Y01283D02*
Y01358D01*
X00736Y01283D02*
X00771D01*
X00736Y01223D02*
Y01283D01*
Y01223D02*
X00771D01*
Y00733D02*
Y01223D01*
X00361Y01358D02*
X00771D01*
X00361Y00733D02*
X00771D01*
X0082Y01283D02*
Y01358D01*
Y01283D02*
X00855D01*
Y01223D02*
Y01283D01*
X0082Y01223D02*
X00855D01*
X0082Y00733D02*
Y01223D01*
X0123Y01283D02*
Y01358D01*
X01195Y01283D02*
X0123D01*
X01195Y01223D02*
Y01283D01*
Y01223D02*
X0123D01*
Y00733D02*
Y01223D01*
X0082Y01358D02*
X0123D01*
X0082Y00733D02*
X0123D01*
X0128Y01283D02*
Y01358D01*
Y01283D02*
X01315D01*
Y01223D02*
Y01283D01*
X0128Y01223D02*
X01315D01*
X0128Y00733D02*
Y01223D01*
X0169Y01283D02*
Y01358D01*
X01655Y01283D02*
X0169D01*
X01655Y01223D02*
Y01283D01*
Y01223D02*
X0169D01*
Y00733D02*
Y01223D01*
X0128Y01358D02*
X0169D01*
X0128Y00733D02*
X0169D01*
X0174Y01283D02*
Y01358D01*
Y01283D02*
X01775D01*
Y01223D02*
Y01283D01*
X0174Y01223D02*
X01775D01*
X0174Y00733D02*
Y01223D01*
X0215Y01283D02*
Y01358D01*
X02115Y01283D02*
X0215D01*
X02115Y01223D02*
Y01283D01*
Y01223D02*
X0215D01*
Y00733D02*
Y01223D01*
X0174Y01358D02*
X0215D01*
X0174Y00733D02*
X0215D01*
X01428Y0262D02*
Y0264D01*
Y0268*
X01413Y0264D02*
X01428D01*
X01413Y0268D02*
X01428D01*
X01348D02*
X01413D01*
X01378Y0264D02*
X01413D01*
X01328Y0241D02*
Y0266D01*
X01368Y02585D02*
Y0263D01*
Y0244D02*
Y02485D01*
Y02585*
X01428Y0262D02*
X01808D01*
Y0264*
X01868Y0244D02*
Y02485D01*
Y02585*
X01368Y02485D02*
X01868D01*
X01368Y02585D02*
X01868D01*
X01823Y0268D02*
X01888D01*
X01808Y0264D02*
X01823D01*
X01808Y0268D02*
X01823D01*
X01808Y0264D02*
Y0268D01*
X01908Y0241D02*
Y0266D01*
X01868Y02585D02*
Y0263D01*
X01823Y0264D02*
X01858D01*
X01378Y0243D02*
X01858D01*
X01348Y0239D02*
X01888D01*
X00418Y0262D02*
Y0264D01*
Y0268*
X00403Y0264D02*
X00418D01*
X00403Y0268D02*
X00418D01*
X00338D02*
X00403D01*
X00368Y0264D02*
X00403D01*
X00318Y0241D02*
Y0266D01*
X00358Y02585D02*
Y0263D01*
Y0244D02*
Y02485D01*
Y02585*
X00418Y0262D02*
X00799D01*
Y0264*
X00859Y0244D02*
Y02485D01*
Y02585*
X00358Y02485D02*
X00859D01*
X00358Y02585D02*
X00859D01*
X00814Y0268D02*
X00879D01*
X00799Y0264D02*
X00814D01*
X00799Y0268D02*
X00814D01*
X00799Y0264D02*
Y0268D01*
X00899Y0241D02*
Y0266D01*
X00859Y02585D02*
Y0263D01*
X00814Y0264D02*
X00849D01*
X00368Y0243D02*
X00849D01*
X00338Y0239D02*
X00879D01*
X0081Y02285D02*
Y02355D01*
X0106Y02285D02*
Y02355D01*
X01385Y02265D02*
Y02335D01*
X01635Y02265D02*
Y02335D01*
X01597Y0204D02*
X01653D01*
X01597Y0209D02*
X01653D01*
X01607Y0184D02*
X01663D01*
X01607Y0189D02*
X01663D01*
X0138Y00965D02*
Y01021D01*
X0133Y00965D02*
Y01021D01*
X00307Y00885D02*
X00363D01*
X00307Y00935D02*
X00363D01*
X0093Y00905D02*
X00986D01*
X0093Y00955D02*
X00986D01*
X01555Y0255D02*
X01585D01*
X01555Y0252D02*
X01585Y0255D01*
X01555D02*
X01585Y0252D01*
X01555D02*
Y0255D01*
Y0252D02*
X01585D01*
Y0255*
X01457D02*
X01487D01*
X01457Y0252D02*
X01487Y0255D01*
X01457D02*
X01487Y0252D01*
X01457D02*
Y0255D01*
Y0252D02*
X01487D01*
Y0255*
X01752D02*
X01782Y0252D01*
X01752D02*
X01782Y0255D01*
X01752D02*
X01782D01*
Y0252D02*
Y0255D01*
X01752Y0252D02*
X01782D01*
X01752D02*
Y0255D01*
X01653Y0252D02*
X01683Y0255D01*
X01653D02*
X01683Y0252D01*
Y0255*
X01653Y0252D02*
X01683D01*
X01653D02*
Y0255D01*
X01683*
X0069Y02017D02*
Y02073D01*
X0074Y02017D02*
Y02073D01*
X00545Y0255D02*
X00575D01*
X00545Y0252D02*
X00575Y0255D01*
X00545D02*
X00575Y0252D01*
X00545D02*
Y0255D01*
Y0252D02*
X00575D01*
Y0255*
X00447D02*
X00477D01*
X00447Y0252D02*
X00477Y0255D01*
X00447D02*
X00477Y0252D01*
X00447D02*
Y0255D01*
Y0252D02*
X00477D01*
Y0255*
X00743D02*
X00773Y0252D01*
X00743D02*
X00773Y0255D01*
X00743D02*
X00773D01*
Y0252D02*
Y0255D01*
X00743Y0252D02*
X00773D01*
X00743D02*
Y0255D01*
X00644Y0252D02*
X00674Y0255D01*
X00644D02*
X00674Y0252D01*
Y0255*
X00644Y0252D02*
X00674D01*
X00644D02*
Y0255D01*
X00674*
G54D27*
X01021Y00221D02*
D01*
X0102Y00225*
X0102Y00229*
X01019Y00233*
X01018Y00237*
X01017Y0024*
X01015Y00244*
X01014Y00248*
X01012Y00251*
X01009Y00255*
X01007Y00258*
X01004Y00261*
X01001Y00264*
X00998Y00266*
X00995Y00269*
X00992Y00271*
X00988Y00273*
X00984Y00274*
X0098Y00276*
X00977Y00277*
X00973Y00278*
X00969Y00278*
X00965Y00279*
X0096*
X00956Y00278*
X00952Y00278*
X00948Y00277*
X00945Y00276*
X00941Y00274*
X00937Y00273*
X00934Y00271*
X0093Y00269*
X00927Y00266*
X00924Y00264*
X00921Y00261*
X00918Y00258*
X00916Y00255*
X00913Y00251*
X00911Y00248*
X0091Y00244*
X00908Y0024*
X00907Y00237*
X00906Y00233*
X00905Y00229*
X00905Y00225*
X00905Y00221*
X00905Y00217*
X00905Y00213*
X00906Y00209*
X00907Y00205*
X00908Y00201*
X0091Y00197*
X00911Y00193*
X00913Y0019*
X00916Y00187*
X00918Y00183*
X00921Y0018*
X00924Y00177*
X00927Y00175*
X0093Y00173*
X00934Y0017*
X00937Y00168*
X00941Y00167*
X00945Y00165*
X00948Y00164*
X00952Y00163*
X00956Y00163*
X0096Y00163*
X00965*
X00969Y00163*
X00973Y00163*
X00977Y00164*
X0098Y00165*
X00984Y00167*
X00988Y00168*
X00992Y0017*
X00995Y00173*
X00998Y00175*
X01001Y00177*
X01004Y0018*
X01007Y00183*
X01009Y00187*
X01012Y0019*
X01014Y00193*
X01015Y00197*
X01017Y00201*
X01018Y00205*
X01019Y00209*
X0102Y00213*
X0102Y00217*
X01021Y00221*
X00883D02*
D01*
X00882Y00225*
X00882Y00229*
X00881Y00233*
X0088Y00237*
X00879Y0024*
X00877Y00244*
X00876Y00248*
X00874Y00251*
X00871Y00255*
X00869Y00258*
X00866Y00261*
X00863Y00264*
X0086Y00266*
X00857Y00269*
X00854Y00271*
X0085Y00273*
X00846Y00274*
X00842Y00276*
X00839Y00277*
X00835Y00278*
X00831Y00278*
X00827Y00279*
X00822*
X00818Y00278*
X00814Y00278*
X0081Y00277*
X00807Y00276*
X00803Y00274*
X00799Y00273*
X00795Y00271*
X00792Y00269*
X00789Y00266*
X00786Y00264*
X00783Y00261*
X0078Y00258*
X00778Y00255*
X00775Y00251*
X00773Y00248*
X00772Y00244*
X0077Y0024*
X00769Y00237*
X00768Y00233*
X00767Y00229*
X00767Y00225*
X00767Y00221*
X00767Y00217*
X00767Y00213*
X00768Y00209*
X00769Y00205*
X0077Y00201*
X00772Y00197*
X00773Y00193*
X00775Y0019*
X00778Y00187*
X0078Y00183*
X00783Y0018*
X00786Y00177*
X00789Y00175*
X00792Y00173*
X00796Y0017*
X00799Y00168*
X00803Y00167*
X00807Y00165*
X0081Y00164*
X00814Y00163*
X00818Y00163*
X00822Y00163*
X00827*
X00831Y00163*
X00835Y00163*
X00839Y00164*
X00842Y00165*
X00846Y00167*
X0085Y00168*
X00854Y0017*
X00857Y00173*
X0086Y00175*
X00863Y00177*
X00866Y0018*
X00869Y00183*
X00871Y00187*
X00874Y0019*
X00876Y00193*
X00877Y00197*
X00879Y00201*
X0088Y00205*
X00881Y00209*
X00882Y00213*
X00882Y00217*
X00883Y00221*
X00745D02*
D01*
X00745Y00225*
X00744Y00229*
X00743Y00233*
X00742Y00237*
X00741Y0024*
X0074Y00244*
X00738Y00248*
X00736Y00251*
X00734Y00255*
X00731Y00258*
X00728Y00261*
X00726Y00264*
X00722Y00266*
X00719Y00269*
X00716Y00271*
X00712Y00273*
X00708Y00274*
X00705Y00276*
X00701Y00277*
X00697Y00278*
X00693Y00278*
X00689Y00279*
X00685*
X00681Y00278*
X00677Y00278*
X00673Y00277*
X00669Y00276*
X00665Y00274*
X00661Y00273*
X00658Y00271*
X00654Y00269*
X00651Y00266*
X00648Y00264*
X00645Y00261*
X00642Y00258*
X0064Y00255*
X00638Y00251*
X00635Y00248*
X00634Y00244*
X00632Y0024*
X00631Y00237*
X0063Y00233*
X00629Y00229*
X00629Y00225*
X00629Y00221*
X00629Y00217*
X00629Y00213*
X0063Y00209*
X00631Y00205*
X00632Y00201*
X00634Y00197*
X00635Y00193*
X00638Y0019*
X0064Y00187*
X00642Y00183*
X00645Y0018*
X00648Y00177*
X00651Y00175*
X00654Y00173*
X00658Y0017*
X00661Y00168*
X00665Y00167*
X00669Y00165*
X00673Y00164*
X00677Y00163*
X00681Y00163*
X00685Y00163*
X00689*
X00693Y00163*
X00697Y00163*
X00701Y00164*
X00705Y00165*
X00708Y00167*
X00712Y00168*
X00716Y0017*
X00719Y00173*
X00722Y00175*
X00726Y00177*
X00728Y0018*
X00731Y00183*
X00734Y00187*
X00736Y0019*
X00738Y00193*
X0074Y00197*
X00741Y00201*
X00742Y00205*
X00743Y00209*
X00744Y00213*
X00745Y00217*
X00745Y00221*
X01901D02*
D01*
X019Y00225*
X019Y00229*
X01899Y00233*
X01898Y00237*
X01897Y0024*
X01895Y00244*
X01894Y00248*
X01892Y00251*
X01889Y00255*
X01887Y00258*
X01884Y00261*
X01881Y00264*
X01878Y00266*
X01875Y00269*
X01872Y00271*
X01868Y00273*
X01864Y00274*
X0186Y00276*
X01857Y00277*
X01853Y00278*
X01849Y00278*
X01845Y00279*
X0184*
X01836Y00278*
X01832Y00278*
X01828Y00277*
X01825Y00276*
X01821Y00274*
X01817Y00273*
X01814Y00271*
X0181Y00269*
X01807Y00266*
X01804Y00264*
X01801Y00261*
X01798Y00258*
X01796Y00255*
X01793Y00251*
X01791Y00248*
X0179Y00244*
X01788Y0024*
X01787Y00237*
X01786Y00233*
X01785Y00229*
X01785Y00225*
X01785Y00221*
X01785Y00217*
X01785Y00213*
X01786Y00209*
X01787Y00205*
X01788Y00201*
X0179Y00197*
X01791Y00193*
X01793Y0019*
X01796Y00187*
X01798Y00183*
X01801Y0018*
X01804Y00177*
X01807Y00175*
X0181Y00173*
X01814Y0017*
X01817Y00168*
X01821Y00167*
X01825Y00165*
X01828Y00164*
X01832Y00163*
X01836Y00163*
X0184Y00163*
X01845*
X01849Y00163*
X01853Y00163*
X01857Y00164*
X0186Y00165*
X01864Y00167*
X01868Y00168*
X01872Y0017*
X01875Y00173*
X01878Y00175*
X01881Y00177*
X01884Y0018*
X01887Y00183*
X01889Y00187*
X01892Y0019*
X01894Y00193*
X01895Y00197*
X01897Y00201*
X01898Y00205*
X01899Y00209*
X019Y00213*
X019Y00217*
X01901Y00221*
X01763D02*
D01*
X01762Y00225*
X01762Y00229*
X01761Y00233*
X0176Y00237*
X01759Y0024*
X01757Y00244*
X01756Y00248*
X01754Y00251*
X01751Y00255*
X01749Y00258*
X01746Y00261*
X01743Y00264*
X0174Y00266*
X01737Y00269*
X01734Y00271*
X0173Y00273*
X01726Y00274*
X01722Y00276*
X01719Y00277*
X01715Y00278*
X01711Y00278*
X01707Y00279*
X01702*
X01698Y00278*
X01694Y00278*
X0169Y00277*
X01687Y00276*
X01683Y00274*
X01679Y00273*
X01676Y00271*
X01672Y00269*
X01669Y00266*
X01666Y00264*
X01663Y00261*
X0166Y00258*
X01658Y00255*
X01655Y00251*
X01653Y00248*
X01652Y00244*
X0165Y0024*
X01649Y00237*
X01648Y00233*
X01647Y00229*
X01647Y00225*
X01647Y00221*
X01647Y00217*
X01647Y00213*
X01648Y00209*
X01649Y00205*
X0165Y00201*
X01652Y00197*
X01653Y00193*
X01655Y0019*
X01658Y00187*
X0166Y00183*
X01663Y0018*
X01666Y00177*
X01669Y00175*
X01672Y00173*
X01676Y0017*
X01679Y00168*
X01683Y00167*
X01687Y00165*
X0169Y00164*
X01694Y00163*
X01698Y00163*
X01702Y00163*
X01707*
X01711Y00163*
X01715Y00163*
X01719Y00164*
X01722Y00165*
X01726Y00167*
X0173Y00168*
X01734Y0017*
X01737Y00173*
X0174Y00175*
X01743Y00177*
X01746Y0018*
X01749Y00183*
X01751Y00187*
X01754Y0019*
X01756Y00193*
X01757Y00197*
X01759Y00201*
X0176Y00205*
X01761Y00209*
X01762Y00213*
X01762Y00217*
X01763Y00221*
X01625D02*
D01*
X01625Y00225*
X01624Y00229*
X01623Y00233*
X01622Y00237*
X01621Y0024*
X0162Y00244*
X01618Y00248*
X01616Y00251*
X01614Y00255*
X01611Y00258*
X01608Y00261*
X01606Y00264*
X01602Y00266*
X01599Y00269*
X01596Y00271*
X01592Y00273*
X01588Y00274*
X01585Y00276*
X01581Y00277*
X01577Y00278*
X01573Y00278*
X01569Y00279*
X01565*
X01561Y00278*
X01557Y00278*
X01553Y00277*
X01549Y00276*
X01545Y00274*
X01541Y00273*
X01538Y00271*
X01534Y00269*
X01531Y00266*
X01528Y00264*
X01525Y00261*
X01522Y00258*
X0152Y00255*
X01518Y00251*
X01515Y00248*
X01514Y00244*
X01512Y0024*
X01511Y00237*
X0151Y00233*
X01509Y00229*
X01509Y00225*
X01509Y00221*
X01509Y00217*
X01509Y00213*
X0151Y00209*
X01511Y00205*
X01512Y00201*
X01514Y00197*
X01515Y00193*
X01518Y0019*
X0152Y00187*
X01522Y00183*
X01525Y0018*
X01528Y00177*
X01531Y00175*
X01534Y00173*
X01538Y0017*
X01541Y00168*
X01545Y00167*
X01549Y00165*
X01553Y00164*
X01557Y00163*
X01561Y00163*
X01565Y00163*
X01569*
X01573Y00163*
X01577Y00163*
X01581Y00164*
X01585Y00165*
X01588Y00167*
X01592Y00168*
X01596Y0017*
X01599Y00173*
X01602Y00175*
X01606Y00177*
X01608Y0018*
X01611Y00183*
X01614Y00187*
X01616Y0019*
X01618Y00193*
X0162Y00197*
X01621Y00201*
X01622Y00205*
X01623Y00209*
X01624Y00213*
X01625Y00217*
X01625Y00221*
X00246Y01189D02*
D01*
X00246Y01193*
X00246Y01197*
X00245Y01201*
X00244Y01204*
X00243Y01208*
X00241Y01212*
X0024Y01216*
X00238Y01219*
X00235Y01223*
X00233Y01226*
X0023Y01229*
X00227Y01232*
X00224Y01234*
X00221Y01237*
X00217Y01239*
X00214Y01241*
X0021Y01242*
X00206Y01244*
X00202Y01245*
X00198Y01246*
X00194Y01246*
X0019Y01246*
X00186*
X00182Y01246*
X00178Y01246*
X00174Y01245*
X0017Y01244*
X00167Y01242*
X00163Y01241*
X00159Y01239*
X00156Y01237*
X00153Y01234*
X0015Y01232*
X00147Y01229*
X00144Y01226*
X00141Y01223*
X00139Y01219*
X00137Y01216*
X00135Y01212*
X00134Y01208*
X00133Y01204*
X00132Y01201*
X00131Y01197*
X00131Y01193*
X0013Y01189*
X00131Y01184*
X00131Y0118*
X00132Y01176*
X00133Y01173*
X00134Y01169*
X00135Y01165*
X00137Y01161*
X00139Y01158*
X00141Y01154*
X00144Y01151*
X00147Y01148*
X0015Y01145*
X00153Y01143*
X00156Y0114*
X00159Y01138*
X00163Y01136*
X00167Y01135*
X0017Y01133*
X00174Y01132*
X00178Y01131*
X00182Y01131*
X00186Y01131*
X0019*
X00194Y01131*
X00198Y01131*
X00202Y01132*
X00206Y01133*
X0021Y01135*
X00214Y01136*
X00217Y01138*
X00221Y0114*
X00224Y01143*
X00227Y01145*
X0023Y01148*
X00233Y01151*
X00235Y01154*
X00238Y01158*
X0024Y01161*
X00241Y01165*
X00243Y01169*
X00244Y01173*
X00245Y01176*
X00246Y0118*
X00246Y01184*
X00246Y01189*
Y01051D02*
D01*
X00246Y01055*
X00246Y01059*
X00245Y01063*
X00244Y01067*
X00243Y0107*
X00241Y01074*
X0024Y01078*
X00238Y01081*
X00235Y01085*
X00233Y01088*
X0023Y01091*
X00227Y01094*
X00224Y01096*
X00221Y01099*
X00217Y01101*
X00214Y01103*
X0021Y01104*
X00206Y01106*
X00202Y01107*
X00198Y01108*
X00194Y01108*
X0019Y01109*
X00186*
X00182Y01108*
X00178Y01108*
X00174Y01107*
X0017Y01106*
X00167Y01104*
X00163Y01103*
X00159Y01101*
X00156Y01099*
X00153Y01096*
X0015Y01094*
X00147Y01091*
X00144Y01088*
X00141Y01085*
X00139Y01081*
X00137Y01078*
X00135Y01074*
X00134Y0107*
X00133Y01067*
X00132Y01063*
X00131Y01059*
X00131Y01055*
X0013Y01051*
X00131Y01047*
X00131Y01043*
X00132Y01039*
X00133Y01035*
X00134Y01031*
X00135Y01027*
X00137Y01023*
X00139Y0102*
X00141Y01017*
X00144Y01013*
X00147Y0101*
X0015Y01007*
X00153Y01005*
X00156Y01003*
X00159Y01*
X00163Y00998*
X00167Y00997*
X0017Y00995*
X00174Y00994*
X00178Y00993*
X00182Y00993*
X00186Y00993*
X0019*
X00194Y00993*
X00198Y00993*
X00202Y00994*
X00206Y00995*
X0021Y00997*
X00214Y00998*
X00217Y01*
X00221Y01003*
X00224Y01005*
X00227Y01007*
X0023Y0101*
X00233Y01013*
X00235Y01017*
X00238Y0102*
X0024Y01023*
X00241Y01027*
X00243Y01031*
X00244Y01035*
X00245Y01039*
X00246Y01043*
X00246Y01047*
X00246Y01051*
Y00769D02*
D01*
X00246Y00773*
X00246Y00777*
X00245Y00781*
X00244Y00784*
X00243Y00788*
X00241Y00792*
X0024Y00796*
X00238Y00799*
X00235Y00803*
X00233Y00806*
X0023Y00809*
X00227Y00812*
X00224Y00814*
X00221Y00817*
X00217Y00819*
X00214Y00821*
X0021Y00822*
X00206Y00824*
X00202Y00825*
X00198Y00826*
X00194Y00826*
X0019Y00826*
X00186*
X00182Y00826*
X00178Y00826*
X00174Y00825*
X0017Y00824*
X00167Y00822*
X00163Y00821*
X00159Y00819*
X00156Y00817*
X00153Y00814*
X0015Y00812*
X00147Y00809*
X00144Y00806*
X00141Y00803*
X00139Y00799*
X00137Y00796*
X00135Y00792*
X00134Y00788*
X00133Y00784*
X00132Y00781*
X00131Y00777*
X00131Y00773*
X0013Y00769*
X00131Y00764*
X00131Y0076*
X00132Y00756*
X00133Y00753*
X00134Y00749*
X00135Y00745*
X00137Y00741*
X00139Y00738*
X00141Y00734*
X00144Y00731*
X00147Y00728*
X0015Y00725*
X00153Y00723*
X00156Y0072*
X00159Y00718*
X00163Y00716*
X00167Y00715*
X0017Y00713*
X00174Y00712*
X00178Y00711*
X00182Y00711*
X00186Y00711*
X0019*
X00194Y00711*
X00198Y00711*
X00202Y00712*
X00206Y00713*
X0021Y00715*
X00214Y00716*
X00217Y00718*
X00221Y0072*
X00224Y00723*
X00227Y00725*
X0023Y00728*
X00233Y00731*
X00235Y00734*
X00238Y00738*
X0024Y00741*
X00241Y00745*
X00243Y00749*
X00244Y00753*
X00245Y00756*
X00246Y0076*
X00246Y00764*
X00246Y00769*
Y00631D02*
D01*
X00246Y00635*
X00246Y00639*
X00245Y00643*
X00244Y00647*
X00243Y0065*
X00241Y00654*
X0024Y00658*
X00238Y00661*
X00235Y00665*
X00233Y00668*
X0023Y00671*
X00227Y00674*
X00224Y00676*
X00221Y00679*
X00217Y00681*
X00214Y00683*
X0021Y00684*
X00206Y00686*
X00202Y00687*
X00198Y00688*
X00194Y00688*
X0019Y00689*
X00186*
X00182Y00688*
X00178Y00688*
X00174Y00687*
X0017Y00686*
X00167Y00684*
X00163Y00683*
X00159Y00681*
X00156Y00679*
X00153Y00676*
X0015Y00674*
X00147Y00671*
X00144Y00668*
X00141Y00665*
X00139Y00661*
X00137Y00658*
X00135Y00654*
X00134Y0065*
X00133Y00647*
X00132Y00643*
X00131Y00639*
X00131Y00635*
X0013Y00631*
X00131Y00627*
X00131Y00623*
X00132Y00619*
X00133Y00615*
X00134Y00611*
X00135Y00607*
X00137Y00603*
X00139Y006*
X00141Y00597*
X00144Y00593*
X00147Y0059*
X0015Y00587*
X00153Y00585*
X00156Y00583*
X00159Y0058*
X00163Y00578*
X00167Y00577*
X0017Y00575*
X00174Y00574*
X00178Y00573*
X00182Y00573*
X00186Y00573*
X0019*
X00194Y00573*
X00198Y00573*
X00202Y00574*
X00206Y00575*
X0021Y00577*
X00214Y00578*
X00217Y0058*
X00221Y00583*
X00224Y00585*
X00227Y00587*
X0023Y0059*
X00233Y00593*
X00235Y00597*
X00238Y006*
X0024Y00603*
X00241Y00607*
X00243Y00611*
X00244Y00615*
X00245Y00619*
X00246Y00623*
X00246Y00627*
X00246Y00631*
X01011Y00249D02*
Y0025D01*
X00873Y00249D02*
Y0025D01*
X00734Y00249D02*
X00734Y0025D01*
X01042Y00093D02*
Y0011D01*
X00608Y00093D02*
Y0011D01*
Y00081D02*
Y00093D01*
X01042*
Y00081D02*
Y00093D01*
X00608Y00081D02*
X01042D01*
X00608Y0011D02*
X01042D01*
X00608D02*
Y00142D01*
Y00161*
X01042Y00301D02*
Y00369D01*
X00608Y00161D02*
X01042D01*
X00608Y00282D02*
X01042D01*
X00608Y00161D02*
Y00282D01*
X01042D02*
Y00301D01*
X00608D02*
X01042D01*
X00608Y00282D02*
Y00301D01*
X01042Y00142D02*
Y00161D01*
Y0011D02*
Y00142D01*
Y00161D02*
Y00282D01*
X00608Y00142D02*
X01042D01*
X00608Y00301D02*
Y00369D01*
X01042*
X01891Y00249D02*
Y0025D01*
X01753Y00249D02*
Y0025D01*
X01614Y00249D02*
X01614Y0025D01*
X01922Y00093D02*
Y0011D01*
X01488Y00093D02*
Y0011D01*
Y00081D02*
Y00093D01*
X01922*
Y00081D02*
Y00093D01*
X01488Y00081D02*
X01922D01*
X01488Y0011D02*
X01922D01*
X01488D02*
Y00142D01*
Y00161*
X01922Y00301D02*
Y00369D01*
X01488Y00161D02*
X01922D01*
X01488Y00282D02*
X01922D01*
X01488Y00161D02*
Y00282D01*
X01922D02*
Y00301D01*
X01488D02*
X01922D01*
X01488Y00282D02*
Y00301D01*
X01922Y00142D02*
Y00161D01*
Y0011D02*
Y00142D01*
Y00161D02*
Y00282D01*
X01488Y00142D02*
X01922D01*
X01488Y00301D02*
Y00369D01*
X01922*
X0016Y01237D02*
X00161D01*
X0016Y01098D02*
X00161Y01098D01*
X00299Y01268D02*
X00316D01*
X00299Y00972D02*
X00316D01*
X00328*
X00316D02*
Y01268D01*
X00328*
Y00972D02*
Y01268D01*
X00299Y00972D02*
Y01268D01*
X00267Y00972D02*
X00299D01*
X00248D02*
X00267D01*
X00041Y01268D02*
X00109D01*
X00248Y00972D02*
Y01268D01*
X00128Y00972D02*
Y01268D01*
Y00972D02*
X00248D01*
X00109Y01268D02*
X00128D01*
X00109Y00972D02*
Y01268D01*
Y00972D02*
X00128D01*
X00248Y01268D02*
X00267D01*
X00299*
X00128D02*
X00248D01*
X00267Y00972D02*
Y01268D01*
X00041Y00972D02*
X00109D01*
X00041D02*
Y01268D01*
X0016Y00817D02*
X00161D01*
X0016Y00678D02*
X00161Y00678D01*
X00299Y00848D02*
X00316D01*
X00299Y00552D02*
X00316D01*
X00328*
X00316D02*
Y00848D01*
X00328*
Y00552D02*
Y00848D01*
X00299Y00552D02*
Y00848D01*
X00267Y00552D02*
X00299D01*
X00248D02*
X00267D01*
X00041Y00848D02*
X00109D01*
X00248Y00552D02*
Y00848D01*
X00128Y00552D02*
Y00848D01*
Y00552D02*
X00248D01*
X00109Y00848D02*
X00128D01*
X00109Y00552D02*
Y00848D01*
Y00552D02*
X00128D01*
X00248Y00848D02*
X00267D01*
X00299*
X00128D02*
X00248D01*
X00267Y00552D02*
Y00848D01*
X00041Y00552D02*
X00109D01*
X00041D02*
Y00848D01*
X01215Y02231D02*
X01244D01*
X01215Y02179D02*
X01245D01*
X00941Y01671D02*
Y017D01*
X00889Y0167D02*
Y017D01*
X00294Y00702D02*
Y00731D01*
X00346Y00701D02*
Y00731D01*
X00935Y00173D02*
X01011Y00249D01*
X00916Y00193D02*
X00991Y00269D01*
X00797Y00173D02*
X00873Y00249D01*
X00777Y00193D02*
X00853Y00269D01*
X00659Y00173D02*
X00734Y00249D01*
X00639Y00193D02*
X00715Y00269D01*
X01815Y00173D02*
X01891Y00249D01*
X01796Y00193D02*
X01871Y00269D01*
X01677Y00173D02*
X01753Y00249D01*
X01657Y00193D02*
X01733Y00269D01*
X01539Y00173D02*
X01614Y00249D01*
X01519Y00193D02*
X01595Y00269D01*
X00161Y01237D02*
X00236Y01161D01*
X00141Y01217D02*
X00216Y01142D01*
X00161Y01098D02*
X00236Y01023D01*
X00141Y01079D02*
X00216Y01003D01*
X00161Y00817D02*
X00236Y00741D01*
X00141Y00797D02*
X00216Y00722D01*
X00161Y00678D02*
X00236Y00603D01*
X00141Y00659D02*
X00216Y00583D01*
X00834Y02079D02*
Y02108D01*
X00886Y02079D02*
Y02109D01*
X01609Y02436D02*
X01638D01*
X01608Y02384D02*
X01638D01*
G54D28*
X00805Y0232D03*
X01065D03*
X0138Y023D03*
X0164D03*
G54D29*
X0038Y01525D03*
Y01575D03*
Y01625D03*
X00579Y01525D03*
Y01575D03*
Y01625D03*
Y01825D03*
Y01775D03*
Y01725D03*
X0038Y01675D03*
X00381Y01725D03*
X0038Y01775D03*
Y01825D03*
X00579Y01675D03*
X00385Y02025D03*
Y02075D03*
Y02125D03*
X00584Y02025D03*
Y02075D03*
Y02125D03*
Y02325D03*
Y02275D03*
Y02225D03*
X00385Y02175D03*
X00386Y02225D03*
X00385Y02275D03*
Y02325D03*
X00584Y02175D03*
G54D30*
X01201Y02204D03*
X01652Y02409D03*
G54D31*
X01258Y02204D03*
X01595Y02409D03*
G54D32*
X01659Y02065D03*
X01591D03*
X01669Y01865D03*
X01601D03*
X00301Y0091D03*
X00369D03*
X00924Y0093D03*
X00992D03*
G54D33*
X00914Y01714D03*
X0032Y00745D03*
X0086Y02065D03*
G54D34*
X00914Y01656D03*
X0032Y00687D03*
X0086Y02122D03*
G54D35*
X01049Y01665D03*
Y01715D03*
X01411Y01665D03*
Y01715D03*
Y01765D03*
Y01815D03*
Y01865D03*
Y01915D03*
Y01965D03*
Y02015D03*
Y02065D03*
Y02115D03*
X01049Y01765D03*
Y01815D03*
Y01865D03*
Y01915D03*
Y01965D03*
Y02015D03*
Y02065D03*
Y02115D03*
G54D36*
X00666Y00561D03*
X00566D03*
X00466D03*
X01125D03*
X01025D03*
X00925D03*
X01585D03*
X01485D03*
X01385D03*
X02045D03*
X01945D03*
X01845D03*
G54D37*
X01355Y00959D03*
Y01027D03*
X00715Y02011D03*
Y02079D03*
G54D38*
X00417Y015D02*
Y0185D01*
X00422Y02D02*
Y0235D01*
X01097Y01635D02*
Y02145D01*
X00386Y00758D02*
Y01083D01*
X00746*
Y00758D02*
Y01083D01*
X00386Y00758D02*
X00746D01*
X00845D02*
Y01083D01*
X01205*
Y00758D02*
Y01083D01*
X00845Y00758D02*
X01205D01*
X01305D02*
Y01083D01*
X01665*
Y00758D02*
Y01083D01*
X01305Y00758D02*
X01665D01*
X01765D02*
Y01083D01*
X02125*
Y00758D02*
Y01083D01*
X01765Y00758D02*
X02125D01*
X01413Y0264D02*
Y0268D01*
X01823Y0264D02*
Y0268D01*
X00403Y0264D02*
Y0268D01*
X00814Y0264D02*
Y0268D01*
X01152Y02166D02*
Y02243D01*
X01307Y02166D02*
Y02243D01*
X01152D02*
X01307D01*
X01152Y02166D02*
X01307D01*
X01703Y02026D02*
Y02104D01*
X01547Y02026D02*
Y02104D01*
Y02026D02*
X01703D01*
X01547Y02104D02*
X01703D01*
X01713Y01826D02*
Y01904D01*
X01557Y01826D02*
Y01904D01*
Y01826D02*
X01713D01*
X01557Y01904D02*
X01713D01*
X00876Y01763D02*
X00953D01*
X00876Y01607D02*
X00953D01*
Y01763*
X00876Y01607D02*
Y01763D01*
X01316Y00915D02*
X01393D01*
X01316Y0107D02*
X01393D01*
Y00915D02*
Y0107D01*
X01316Y00915D02*
Y0107D01*
X00257Y00871D02*
Y00949D01*
X00412Y00871D02*
Y00949D01*
X00257Y00871D02*
X00412D01*
X00257Y00949D02*
X00412D01*
X00281Y00794D02*
X00359D01*
X00281Y00638D02*
X00359D01*
X00281D02*
Y00794D01*
X00359Y00638D02*
Y00794D01*
X0088Y00891D02*
Y00969D01*
X01035Y00891D02*
Y00969D01*
X0088Y00891D02*
X01035D01*
X0088Y00969D02*
X01035D01*
X00821Y02016D02*
X00899D01*
X00821Y02171D02*
X00899D01*
X00821Y02016D02*
Y02171D01*
X00899Y02016D02*
Y02171D01*
X00676Y01967D02*
X00754D01*
X00676Y02122D02*
X00754D01*
X00676Y01967D02*
Y02122D01*
X00754Y01967D02*
Y02122D01*
X01701Y02371D02*
Y02448D01*
X01545Y02371D02*
Y02448D01*
X01701*
X01545Y02371D02*
X01701D01*
G54D48*
X0169Y0277D02*
Y0273D01*
X0171Y0271*
X0173Y0273*
Y0277*
X0175D02*
Y0271D01*
X0178*
X0179Y0272*
Y0276*
X0178Y0277*
X0175*
X0181D02*
Y0271D01*
X0184*
X01849Y0272*
Y0276*
X0184Y0277*
X0181*
X007Y02765D02*
X0069Y02775D01*
X0067*
X0066Y02765*
Y02725*
X0067Y02715*
X0069*
X007Y02725*
X0073Y02715D02*
X0075D01*
X0076Y02725*
Y02745*
X0075Y02755*
X0073*
X0072Y02745*
Y02725*
X0073Y02715*
X0078D02*
Y02755D01*
X0081*
X00819Y02745*
Y02715*
X00849Y02765D02*
Y02755D01*
X00839*
X00859*
X00849*
Y02725*
X00859Y02715*
X00889Y02755D02*
Y02715D01*
Y02735*
X00899Y02745*
X00909Y02755*
X00919*
X00959Y02715D02*
X00979D01*
X00989Y02725*
Y02745*
X00979Y02755*
X00959*
X00949Y02745*
Y02725*
X00959Y02715*
X01009D02*
X01029D01*
X01019*
Y02775*
X01009*
X00895Y02295D02*
Y02355D01*
X00925*
X00935Y02345*
Y02325*
X00925Y02315*
X00895*
X00915D02*
X00935Y02295D01*
X00955Y02355D02*
X00995D01*
Y02345*
X00955Y02305*
Y02295*
X0045Y0158D02*
Y016D01*
Y0159*
X0051*
Y0158*
Y016*
X0046Y0167D02*
X0045Y0166D01*
Y0164*
X0046Y0163*
X005*
X0051Y0164*
Y0166*
X005Y0167*
X0046Y0169D02*
X0045Y017D01*
Y0172*
X0046Y0173*
X0047*
X0048Y0172*
Y0171*
Y0172*
X0049Y0173*
X005*
X0051Y0172*
Y017*
X005Y0169*
X00455Y02055D02*
Y02075D01*
Y02065*
X00515*
Y02055*
Y02075*
X00465Y02145D02*
X00455Y02135D01*
Y02115*
X00465Y02105*
X00505*
X00515Y02115*
Y02135*
X00505Y02145*
X00515Y02205D02*
Y02165D01*
X00475Y02205*
X00465*
X00455Y02195*
Y02175*
X00465Y02165*
X01465Y0231D02*
Y0237D01*
X01495*
X01505Y0236*
Y0234*
X01495Y0233*
X01465*
X01485D02*
X01505Y0231D01*
X01525Y0236D02*
X01535Y0237D01*
X01555*
X01565Y0236*
Y0235*
X01555Y0234*
X01565Y0233*
Y0232*
X01555Y0231*
X01535*
X01525Y0232*
Y0233*
X01535Y0234*
X01525Y0235*
Y0236*
X01535Y0234D02*
X01555D01*
X0111Y02245D02*
X011Y02255D01*
X0108*
X0107Y02245*
Y02205*
X0108Y02195*
X011*
X0111Y02205*
X0113Y02195D02*
X0115D01*
X0114*
Y02255*
X0113Y02245*
X0158Y0213D02*
Y0219D01*
X0161*
X0162Y0218*
Y0216*
X0161Y0215*
X0158*
X016D02*
X0162Y0213D01*
X0164Y0218D02*
X0165Y0219D01*
X0167*
X0168Y0218*
Y0217*
X0167Y0216*
X0166*
X0167*
X0168Y0215*
Y0214*
X0167Y0213*
X0165*
X0164Y0214*
X01585Y0193D02*
Y0199D01*
X01615*
X01625Y0198*
Y0196*
X01615Y0195*
X01585*
X01605D02*
X01625Y0193D01*
X01675D02*
Y0199D01*
X01645Y0196*
X01685*
X008Y0171D02*
X0079Y0172D01*
X0077*
X0076Y0171*
Y0167*
X0077Y0166*
X0079*
X008Y0167*
X0086Y0166D02*
X0082D01*
X0086Y017*
Y0171*
X0085Y0172*
X0083*
X0082Y0171*
X01165Y0161D02*
X01185D01*
X01175*
Y0155*
X01165*
X01185*
X01255Y016D02*
X01245Y0161D01*
X01225*
X01215Y016*
Y0156*
X01225Y0155*
X01245*
X01255Y0156*
X01275Y0155D02*
X01295D01*
X01285*
Y0161*
X01275Y016*
X0051Y0142D02*
Y0146D01*
X005Y0147*
X0048*
X0047Y0146*
Y0142*
X0048Y0141*
X005*
X0049Y0143D02*
X0051Y0141D01*
X005D02*
X0051Y0142D01*
X0053Y0141D02*
X0055D01*
X0054*
Y0147*
X0053Y0146*
X01496Y00461D02*
X01536Y00401D01*
Y00461D02*
X01496Y00401D01*
X01596D02*
X01556D01*
X01596Y00441*
Y00451*
X01586Y00461*
X01566*
X01556Y00451*
X00616Y00461D02*
X00656Y00401D01*
Y00461D02*
X00616Y00401D01*
X00676D02*
X00696D01*
X00686*
Y00461*
X00676Y00451*
X01787Y01428D02*
Y01468D01*
X01777Y01478*
X01757*
X01747Y01468*
Y01428*
X01757Y01418*
X01777*
X01767Y01438D02*
X01787Y01418D01*
X01777D02*
X01787Y01428D01*
X01837Y01418D02*
Y01478D01*
X01807Y01448*
X01847*
X01327Y01429D02*
Y01469D01*
X01317Y01479*
X01297*
X01287Y01469*
Y01429*
X01297Y01419*
X01317*
X01307Y01439D02*
X01327Y01419D01*
X01317D02*
X01327Y01429D01*
X01347Y01469D02*
X01357Y01479D01*
X01377*
X01387Y01469*
Y01459*
X01377Y01449*
X01367*
X01377*
X01387Y01439*
Y01429*
X01377Y01419*
X01357*
X01347Y01429*
X00868D02*
Y01469D01*
X00858Y01479*
X00838*
X00828Y01469*
Y01429*
X00838Y01419*
X00858*
X00848Y01439D02*
X00868Y01419D01*
X00858D02*
X00868Y01429D01*
X00928Y01419D02*
X00888D01*
X00928Y01459*
Y01469*
X00918Y01479*
X00898*
X00888Y01469*
X00049Y0094D02*
Y009D01*
X00069Y0088*
X00089Y009*
Y0094*
X00109D02*
Y0088D01*
X00139*
X00149Y0089*
Y009*
X00139Y0091*
X00109*
X00139*
X00149Y0092*
Y0093*
X00139Y0094*
X00109*
X00169Y0088D02*
Y0092D01*
X00189Y0094*
X00208Y0092*
Y0088*
Y0091*
X00169*
X00228Y0094D02*
X00268D01*
X00248*
Y0088*
X00049Y0136D02*
Y0132D01*
X00069Y013*
X00089Y0132*
Y0136*
X00109D02*
Y013D01*
X00139*
X00149Y0131*
Y0132*
X00139Y0133*
X00109*
X00139*
X00149Y0134*
Y0135*
X00139Y0136*
X00109*
X00169Y013D02*
Y0134D01*
X00189Y0136*
X00208Y0134*
Y013*
Y0133*
X00169*
X00228Y0136D02*
X00268D01*
X00248*
Y013*
X00318Y0136D02*
X00298D01*
X00288Y0135*
Y0131*
X00298Y013*
X00318*
X00328Y0131*
Y0135*
X00318Y0136*
X00685Y02154D02*
Y02214D01*
X00715*
X00725Y02204*
Y02184*
X00715Y02174*
X00685*
X00705D02*
X00725Y02154D01*
X00785Y02214D02*
X00765Y02204D01*
X00745Y02184*
Y02164*
X00755Y02154*
X00775*
X00785Y02164*
Y02174*
X00775Y02184*
X00745*
X00325Y02773D02*
Y02713D01*
Y02733*
X00365Y02773*
X00335Y02743*
X00365Y02713*
X00385Y02773D02*
Y02713D01*
X00425*
X00485D02*
X00445D01*
X00485Y02753*
Y02763*
X00475Y02773*
X00455*
X00445Y02763*
X00545Y02773D02*
X00505D01*
Y02743*
X00525Y02753*
X00535*
X00545Y02743*
Y02723*
X00535Y02713*
X00515*
X00505Y02723*
X00565Y02773D02*
X00605D01*
Y02763*
X00565Y02723*
Y02713*
X00605*
X01335Y02773D02*
Y02713D01*
Y02733*
X01375Y02773*
X01345Y02743*
X01375Y02713*
X01395Y02773D02*
Y02713D01*
X01435*
X01494D02*
X01455D01*
X01494Y02753*
Y02763*
X01485Y02773*
X01465*
X01455Y02763*
X01554Y02773D02*
X01514D01*
Y02743*
X01534Y02753*
X01544*
X01554Y02743*
Y02723*
X01544Y02713*
X01524*
X01514Y02723*
X01574Y02773D02*
X01614D01*
Y02763*
X01574Y02723*
Y02713*
X01614*
X01634D02*
X01654D01*
X01644*
Y02773*
X01634Y02763*
X0087Y02253D02*
X0086Y02263D01*
X0084*
X0083Y02253*
Y02213*
X0084Y02203*
X0086*
X0087Y02213*
X0089Y02253D02*
X009Y02263D01*
X0092*
X0093Y02253*
Y02243*
X0092Y02233*
X0091*
X0092*
X0093Y02223*
Y02213*
X0092Y02203*
X009*
X0089Y02213*
G54D49*
X00945Y00348D02*
X00952Y00355D01*
X00966*
X00973Y00348*
Y00341*
X00966Y00334*
X00959*
X00966*
X00973Y00327*
Y0032*
X00966Y00313*
X00952*
X00945Y0032*
X00835Y00313D02*
X00807D01*
X00835Y00341*
Y00348*
X00828Y00355*
X00814*
X00807Y00348*
X00669Y00313D02*
X00683D01*
X00676*
Y00355*
X00669Y00348*
X01825D02*
X01832Y00355D01*
X01846*
X01853Y00348*
Y00341*
X01846Y00334*
X01839*
X01846*
X01853Y00327*
Y0032*
X01846Y00313*
X01832*
X01825Y0032*
X01715Y00313D02*
X01687D01*
X01715Y00341*
Y00348*
X01708Y00355*
X01694*
X01687Y00348*
X01549Y00313D02*
X01563D01*
X01556*
Y00355*
X01549Y00348*
X00097Y01199D02*
Y01171D01*
X00068Y01199*
X00061*
X00054Y01192*
Y01178*
X00061Y01171*
X00097Y01033D02*
Y01047D01*
Y0104*
X00054*
X00061Y01033*
X00097Y00779D02*
Y00751D01*
X00068Y00779*
X00061*
X00054Y00772*
Y00758*
X00061Y00751*
X00097Y00613D02*
Y00627D01*
Y0062*
X00054*
X00061Y00613*
G54D50*
X0108Y01665D03*
Y01715D03*
X01379Y01665D03*
Y01715D03*
Y01765D03*
Y01815D03*
Y01865D03*
Y01915D03*
Y01965D03*
Y02015D03*
Y02065D03*
Y02115D03*
X0108Y01765D03*
Y01815D03*
Y01865D03*
Y01915D03*
Y01965D03*
Y02015D03*
Y02065D03*
Y02115D03*
G54D51*
X00666Y00678D03*
X00566D03*
X00466D03*
X01125D03*
X01025D03*
X00925D03*
X01585D03*
X01485D03*
X01385D03*
X02045D03*
X01945D03*
X01845D03*
G54D52*
X00466Y00611D03*
X00566D03*
X00666D03*
X00925D03*
X01025D03*
X01125D03*
X01385D03*
X01485D03*
X01585D03*
X01845D03*
X01945D03*
X02045D03*
M02*