%FSLAX24Y24*%
%MOIN*%
G70*
G01*
G75*
G04 Layer_Physical_Order=2*
G04 Layer_Color=16711680*
%ADD10C,0.0320*%
%ADD11R,0.0476X0.0159*%
%ADD12C,0.0039*%
%ADD13C,0.0100*%
%ADD14C,0.0060*%
%ADD15R,0.0560X0.0140*%
%ADD16R,0.0250X0.0240*%
%ADD17C,0.0020*%
G04:AMPARAMS|DCode=18|XSize=66mil|YSize=66mil|CornerRadius=0mil|HoleSize=0mil|Usage=FLASHONLY|Rotation=270.000|XOffset=0mil|YOffset=0mil|HoleType=Round|Shape=Octagon|*
%AMOCTAGOND18*
4,1,8,-0.0165,-0.0330,0.0165,-0.0330,0.0330,-0.0165,0.0330,0.0165,0.0165,0.0330,-0.0165,0.0330,-0.0330,0.0165,-0.0330,-0.0165,-0.0165,-0.0330,0.0*
%
%ADD18OCTAGOND18*%

%ADD19O,0.1200X0.0600*%
%ADD20C,0.0591*%
%ADD21R,0.0591X0.0591*%
%ADD22R,0.0630X0.0520*%
%ADD23R,0.0551X0.0433*%
G36*
X10000Y0D02*
X0D01*
Y8700D01*
X10000D01*
Y0D01*
D02*
G37*
%LPC*%
G36*
X6189Y4370D02*
X5541D01*
X5563Y4264D01*
X5651Y4132D01*
X5783Y4043D01*
X5939Y4012D01*
X6189D01*
Y4370D01*
D02*
G37*
G36*
X4343Y4300D02*
X4000D01*
Y3957D01*
X4104Y3978D01*
X4235Y4065D01*
X4322Y4196D01*
X4343Y4300D01*
D02*
G37*
G36*
X3900D02*
X3557D01*
X3578Y4196D01*
X3665Y4065D01*
X3796Y3978D01*
X3900Y3957D01*
Y4300D01*
D02*
G37*
G36*
X6937Y4370D02*
X6289D01*
Y4012D01*
X6539D01*
X6695Y4043D01*
X6828Y4132D01*
X6916Y4264D01*
X6937Y4370D01*
D02*
G37*
G36*
X1400Y4455D02*
X1074D01*
Y4188D01*
X1400D01*
Y4455D01*
D02*
G37*
G36*
X8426Y4350D02*
X8100D01*
Y4083D01*
X8426D01*
Y4350D01*
D02*
G37*
G36*
X8000D02*
X7674D01*
Y4083D01*
X8000D01*
Y4350D01*
D02*
G37*
G36*
X3298Y4300D02*
X2650D01*
Y3942D01*
X2900D01*
X3056Y3973D01*
X3188Y4062D01*
X3277Y4194D01*
X3298Y4300D01*
D02*
G37*
G36*
X8515Y2130D02*
X8085D01*
X7870Y1915D01*
Y1485D01*
X8078Y1277D01*
X8082Y1200D01*
X8078Y1123D01*
X7870Y915D01*
Y485D01*
X8085Y270D01*
X8515D01*
X8730Y485D01*
Y915D01*
X8522Y1123D01*
X8518Y1200D01*
X8522Y1277D01*
X8730Y1485D01*
Y1915D01*
X8515Y2130D01*
D02*
G37*
G36*
X6615D02*
X6185D01*
X5970Y1915D01*
Y1485D01*
X6178Y1277D01*
X6182Y1200D01*
X6178Y1123D01*
X5970Y915D01*
Y485D01*
X6185Y270D01*
X6615D01*
X6830Y485D01*
Y915D01*
X6622Y1123D01*
X6618Y1200D01*
X6622Y1277D01*
X6830Y1485D01*
Y1915D01*
X6615Y2130D01*
D02*
G37*
G36*
X4950Y4753D02*
X4796Y4722D01*
X4665Y4635D01*
X4578Y4504D01*
X4547Y4350D01*
X4578Y4196D01*
X4665Y4065D01*
X4685Y4052D01*
Y2310D01*
X4505Y2130D01*
X4235D01*
X4020Y1915D01*
Y1485D01*
X4228Y1277D01*
X4232Y1200D01*
X4228Y1123D01*
X4020Y915D01*
Y485D01*
X4235Y270D01*
X4665D01*
X4880Y485D01*
Y915D01*
X4672Y1123D01*
X4668Y1200D01*
X4672Y1277D01*
X4880Y1485D01*
Y1755D01*
X5137Y2013D01*
X5195Y2099D01*
X5215Y2200D01*
Y4052D01*
X5235Y4065D01*
X5322Y4196D01*
X5353Y4350D01*
X5322Y4504D01*
X5235Y4635D01*
X5104Y4722D01*
X4950Y4753D01*
D02*
G37*
G36*
X2715Y2130D02*
X2285D01*
X2070Y1915D01*
Y1485D01*
X2278Y1277D01*
X2282Y1200D01*
X2278Y1123D01*
X2120Y965D01*
X1274D01*
X1191Y1049D01*
X1168Y1115D01*
X1168Y1210D01*
Y1227D01*
Y1244D01*
X1168Y1360D01*
Y1554D01*
X338D01*
Y1360D01*
X338Y1244D01*
Y1227D01*
Y1210D01*
X338Y1094D01*
Y490D01*
X749D01*
X802Y455D01*
X903Y435D01*
X2120D01*
X2285Y270D01*
X2715D01*
X2930Y485D01*
Y915D01*
X2722Y1123D01*
X2718Y1200D01*
X2722Y1277D01*
X2930Y1485D01*
Y1915D01*
X2715Y2130D01*
D02*
G37*
G36*
X2900Y5742D02*
X2300D01*
X2144Y5711D01*
X2012Y5623D01*
X1935Y5509D01*
X1826Y5412D01*
Y5412D01*
X1074D01*
Y4779D01*
Y4555D01*
X1450D01*
Y4505D01*
X1500D01*
Y4188D01*
X1771D01*
X1826Y4188D01*
X1957Y4143D01*
X2012Y4062D01*
X2144Y3973D01*
X2300Y3942D01*
X2550D01*
Y4350D01*
X2600D01*
Y4400D01*
X3298D01*
X3277Y4506D01*
X3188Y4638D01*
X3056Y4727D01*
X2900Y4758D01*
X2761D01*
X2686Y4908D01*
X2700Y4926D01*
X2900D01*
X3056Y4957D01*
X3188Y5046D01*
X3277Y5178D01*
X3308Y5334D01*
X3277Y5490D01*
X3188Y5623D01*
X3056Y5711D01*
X2900Y5742D01*
D02*
G37*
G36*
X1168Y1964D02*
X803D01*
Y1654D01*
X1168D01*
Y1964D01*
D02*
G37*
G36*
X703D02*
X338D01*
Y1654D01*
X703D01*
Y1964D01*
D02*
G37*
G36*
X3900Y4743D02*
X3796Y4722D01*
X3665Y4635D01*
X3578Y4504D01*
X3557Y4400D01*
X3900D01*
Y4743D01*
D02*
G37*
G36*
X3950Y6753D02*
X3796Y6722D01*
X3665Y6635D01*
X3578Y6504D01*
X3547Y6350D01*
X3578Y6196D01*
X3665Y6065D01*
X3796Y5978D01*
X3950Y5947D01*
X4104Y5978D01*
X4235Y6065D01*
X4322Y6196D01*
X4353Y6350D01*
X4322Y6504D01*
X4235Y6635D01*
X4104Y6722D01*
X3950Y6753D01*
D02*
G37*
G36*
X4950D02*
X4796Y6722D01*
X4665Y6635D01*
X4578Y6504D01*
X4547Y6350D01*
X4578Y6196D01*
X4665Y6065D01*
X4796Y5978D01*
X4950Y5947D01*
X5104Y5978D01*
X5235Y6065D01*
X5322Y6196D01*
X5353Y6350D01*
X5322Y6504D01*
X5235Y6635D01*
X5104Y6722D01*
X4950Y6753D01*
D02*
G37*
G36*
X8100Y6209D02*
X7774D01*
Y5943D01*
X8100D01*
Y6209D01*
D02*
G37*
G36*
X8526D02*
X8200D01*
Y5943D01*
X8526D01*
Y6209D01*
D02*
G37*
G36*
X4950Y7753D02*
X4796Y7722D01*
X4665Y7635D01*
X4578Y7504D01*
X4547Y7350D01*
X4578Y7196D01*
X4665Y7065D01*
X4796Y6978D01*
X4950Y6947D01*
X5104Y6978D01*
X5235Y7065D01*
X5322Y7196D01*
X5353Y7350D01*
X5322Y7504D01*
X5235Y7635D01*
X5104Y7722D01*
X4950Y7753D01*
D02*
G37*
G36*
X4345Y7745D02*
X3555D01*
Y6955D01*
X4345D01*
Y7745D01*
D02*
G37*
G36*
X6539Y7784D02*
X5939D01*
X5783Y7753D01*
X5651Y7665D01*
X5563Y7532D01*
X5532Y7376D01*
X5563Y7220D01*
X5651Y7088D01*
X5783Y7000D01*
X5939Y6969D01*
X6539D01*
X6695Y7000D01*
X6828Y7088D01*
X6843Y7111D01*
X7514D01*
X7774Y6851D01*
Y6533D01*
Y6309D01*
X8526D01*
Y6533D01*
Y7167D01*
X8208D01*
X7811Y7564D01*
X7725Y7621D01*
X7624Y7641D01*
X6843D01*
X6828Y7665D01*
X6695Y7753D01*
X6539Y7784D01*
D02*
G37*
G36*
X2900Y7714D02*
X2300D01*
X2144Y7683D01*
X2012Y7595D01*
X1923Y7462D01*
X1892Y7306D01*
X1923Y7150D01*
X2012Y7018D01*
X2144Y6930D01*
X2300Y6899D01*
X2900D01*
X3056Y6930D01*
X3188Y7018D01*
X3277Y7150D01*
X3308Y7306D01*
X3277Y7462D01*
X3188Y7595D01*
X3056Y7683D01*
X2900Y7714D01*
D02*
G37*
G36*
X6539Y4828D02*
X6289D01*
Y4470D01*
X6937D01*
X6916Y4576D01*
X6828Y4708D01*
X6695Y4797D01*
X6539Y4828D01*
D02*
G37*
G36*
X6189D02*
X5939D01*
X5783Y4797D01*
X5651Y4708D01*
X5563Y4576D01*
X5541Y4470D01*
X6189D01*
Y4828D01*
D02*
G37*
G36*
X4000Y4743D02*
Y4400D01*
X4343D01*
X4322Y4504D01*
X4235Y4635D01*
X4104Y4722D01*
X4000Y4743D01*
D02*
G37*
G36*
X3950Y5753D02*
X3796Y5722D01*
X3665Y5635D01*
X3578Y5504D01*
X3547Y5350D01*
X3578Y5196D01*
X3665Y5065D01*
X3796Y4978D01*
X3950Y4947D01*
X4104Y4978D01*
X4235Y5065D01*
X4322Y5196D01*
X4353Y5350D01*
X4322Y5504D01*
X4235Y5635D01*
X4104Y5722D01*
X3950Y5753D01*
D02*
G37*
G36*
X6539Y6800D02*
X5939D01*
X5783Y6769D01*
X5651Y6681D01*
X5563Y6548D01*
X5532Y6392D01*
X5563Y6236D01*
X5651Y6104D01*
X5783Y6015D01*
X5939Y5984D01*
X6539D01*
X6596Y5995D01*
X6713Y5875D01*
X6693Y5786D01*
X6684Y5779D01*
X6539Y5808D01*
X5939D01*
X5783Y5777D01*
X5651Y5688D01*
X5563Y5556D01*
X5532Y5400D01*
X5563Y5244D01*
X5651Y5112D01*
X5783Y5023D01*
X5939Y4992D01*
X6539D01*
X6695Y5023D01*
X6828Y5112D01*
X6916Y5244D01*
X6947Y5400D01*
X6918Y5544D01*
X6925Y5553D01*
X7084Y5591D01*
X7674Y5001D01*
Y4674D01*
Y4450D01*
X8426D01*
Y4674D01*
Y5307D01*
X8118D01*
X6926Y6499D01*
X6916Y6548D01*
X6828Y6681D01*
X6695Y6769D01*
X6539Y6800D01*
D02*
G37*
G36*
X2900Y6734D02*
X2300D01*
X2144Y6703D01*
X2012Y6615D01*
X1923Y6482D01*
X1892Y6326D01*
X1923Y6170D01*
X2012Y6038D01*
X2144Y5950D01*
X2300Y5919D01*
X2900D01*
X3056Y5950D01*
X3188Y6038D01*
X3277Y6170D01*
X3308Y6326D01*
X3277Y6482D01*
X3188Y6615D01*
X3056Y6703D01*
X2900Y6734D01*
D02*
G37*
G36*
X4950Y5753D02*
X4796Y5722D01*
X4665Y5635D01*
X4578Y5504D01*
X4547Y5350D01*
X4578Y5196D01*
X4665Y5065D01*
X4796Y4978D01*
X4950Y4947D01*
X5104Y4978D01*
X5235Y5065D01*
X5322Y5196D01*
X5353Y5350D01*
X5322Y5504D01*
X5235Y5635D01*
X5104Y5722D01*
X4950Y5753D01*
D02*
G37*
%LPD*%
G36*
X2073Y4684D02*
X2059Y4670D01*
X2012Y4638D01*
X1983Y4595D01*
X1973Y4585D01*
X1826Y4630D01*
Y4779D01*
Y4830D01*
X2029D01*
X2073Y4684D01*
D02*
G37*
D10*
X4450Y1700D02*
X4950Y2200D01*
Y4350D01*
X6239Y6392D02*
X6658D01*
X8050Y5000D01*
Y4991D02*
Y5000D01*
X6239Y4420D02*
X6259Y4400D01*
X8050D01*
X8100Y4350D01*
X9050D01*
Y5359D01*
X8150Y6259D02*
X9050Y5359D01*
X7624Y7376D02*
X8150Y6850D01*
X6239Y7376D02*
X7624D01*
X2361Y5095D02*
X2600Y5334D01*
X1450Y5095D02*
X2361D01*
X2445Y4505D02*
X2600Y4350D01*
X1450Y4505D02*
X2445D01*
X753Y3808D02*
X1450Y4505D01*
X753Y1604D02*
Y3808D01*
Y850D02*
X903Y700D01*
X2500D01*
D11*
X752Y1225D02*
D03*
D12*
X8435Y6122D02*
Y6988D01*
X7865Y6122D02*
Y6988D01*
Y6122D02*
X8435D01*
X7865Y6988D02*
X8435D01*
X8335Y4262D02*
Y5128D01*
X7765Y4262D02*
Y5128D01*
Y4262D02*
X8335D01*
X7765Y5128D02*
X8335D01*
X1735Y4367D02*
Y5233D01*
X1165Y4367D02*
Y5233D01*
Y4367D02*
X1735D01*
X1165Y5233D02*
X1735D01*
X7953Y6555D02*
X8347D01*
X8150Y6358D02*
Y6752D01*
X8465Y6004D02*
Y7106D01*
X7835Y6004D02*
Y7106D01*
Y6004D02*
X8465D01*
X7835Y7106D02*
X8465D01*
X7853Y4695D02*
X8247D01*
X8050Y4498D02*
Y4892D01*
X8365Y4144D02*
Y5246D01*
X7735Y4144D02*
Y5246D01*
Y4144D02*
X8365D01*
X7735Y5246D02*
X8365D01*
X1253Y4800D02*
X1647D01*
X1450Y4603D02*
Y4997D01*
X1765Y4249D02*
Y5351D01*
X1135Y4249D02*
Y5351D01*
Y4249D02*
X1765D01*
X1135Y5351D02*
X1765D01*
D13*
X8300Y2000D02*
G03*
X7881Y1881I-0J-800D01*
G01*
X8680Y1904D02*
G03*
X8300Y2000I-380J-706D01*
G01*
X6400D02*
G03*
X5981Y1881I-0J-800D01*
G01*
X6780Y1904D02*
G03*
X6400Y2000I-380J-706D01*
G01*
X4450D02*
G03*
X4031Y1881I-0J-800D01*
G01*
X4830Y1904D02*
G03*
X4450Y2000I-380J-706D01*
G01*
X2500D02*
G03*
X2081Y1881I-0J-800D01*
G01*
X2880Y1904D02*
G03*
X2500Y2000I-380J-706D01*
G01*
X7800Y580D02*
X8800D01*
X5900D02*
X6900D01*
X3950D02*
X4950D01*
X2000D02*
X3000D01*
D14*
X7900Y1200D02*
G03*
X8300Y800I400J0D01*
G01*
X8050Y1200D02*
G03*
X8300Y950I250J0D01*
G01*
X8700Y1200D02*
G03*
X8300Y1600I-400J0D01*
G01*
X8550Y1200D02*
G03*
X8300Y1450I-250J0D01*
G01*
X7916Y730D02*
G03*
X8300Y600I372J465D01*
G01*
D02*
G03*
X8700Y740I11J611D01*
G01*
X8300Y1800D02*
G03*
X7901Y1648I-0J-600D01*
G01*
X8690Y1661D02*
G03*
X8300Y1800I-387J-469D01*
G01*
X6000Y1200D02*
G03*
X6400Y800I400J0D01*
G01*
X6150Y1200D02*
G03*
X6400Y950I250J0D01*
G01*
X6800Y1200D02*
G03*
X6400Y1600I-400J0D01*
G01*
X6650Y1200D02*
G03*
X6400Y1450I-250J0D01*
G01*
X6016Y730D02*
G03*
X6400Y600I372J465D01*
G01*
D02*
G03*
X6800Y740I11J611D01*
G01*
X6400Y1800D02*
G03*
X6001Y1648I-0J-600D01*
G01*
X6790Y1661D02*
G03*
X6400Y1800I-387J-469D01*
G01*
X4050Y1200D02*
G03*
X4450Y800I400J0D01*
G01*
X4200Y1200D02*
G03*
X4450Y950I250J0D01*
G01*
X4850Y1200D02*
G03*
X4450Y1600I-400J0D01*
G01*
X4700Y1200D02*
G03*
X4450Y1450I-250J0D01*
G01*
X4066Y730D02*
G03*
X4450Y600I372J465D01*
G01*
D02*
G03*
X4850Y740I11J611D01*
G01*
X4450Y1800D02*
G03*
X4051Y1648I-0J-600D01*
G01*
X4840Y1661D02*
G03*
X4450Y1800I-387J-469D01*
G01*
X2100Y1200D02*
G03*
X2500Y800I400J0D01*
G01*
X2250Y1200D02*
G03*
X2500Y950I250J0D01*
G01*
X2900Y1200D02*
G03*
X2500Y1600I-400J0D01*
G01*
X2750Y1200D02*
G03*
X2500Y1450I-250J0D01*
G01*
X2116Y730D02*
G03*
X2500Y600I372J465D01*
G01*
D02*
G03*
X2900Y740I11J611D01*
G01*
X2500Y1800D02*
G03*
X2101Y1648I-0J-600D01*
G01*
X2890Y1661D02*
G03*
X2500Y1800I-387J-469D01*
G01*
X500Y944D02*
Y1504D01*
X1000Y944D02*
Y1504D01*
X2450Y3963D02*
Y4743D01*
Y4953D02*
Y5733D01*
Y5936D02*
Y6716D01*
Y6916D02*
Y7696D01*
X6389Y6983D02*
Y7764D01*
Y5994D02*
Y6774D01*
Y5010D02*
Y5790D01*
Y4030D02*
Y4810D01*
D15*
X750Y1564D02*
D03*
Y884D02*
D03*
D16*
X2575Y4353D02*
D03*
Y5333D02*
D03*
Y6326D02*
D03*
Y7306D02*
D03*
X6264Y7374D02*
D03*
Y6394D02*
D03*
Y5400D02*
D03*
Y4420D02*
D03*
D17*
X363Y2004D02*
X1140D01*
X363Y447D02*
X1140D01*
X363D02*
Y2004D01*
X1140Y447D02*
Y2004D01*
D18*
X8300Y700D02*
D03*
Y1700D02*
D03*
X6400Y700D02*
D03*
Y1700D02*
D03*
X4450Y700D02*
D03*
Y1700D02*
D03*
X2500Y700D02*
D03*
Y1700D02*
D03*
D19*
X2600Y7306D02*
D03*
Y6326D02*
D03*
Y4350D02*
D03*
Y5334D02*
D03*
X6239Y4420D02*
D03*
Y5400D02*
D03*
Y7376D02*
D03*
Y6392D02*
D03*
D20*
X4950Y4350D02*
D03*
Y5350D02*
D03*
Y6350D02*
D03*
Y7350D02*
D03*
X3950Y4350D02*
D03*
Y5350D02*
D03*
Y6350D02*
D03*
D21*
Y7350D02*
D03*
D22*
X753Y850D02*
D03*
Y1604D02*
D03*
D23*
X8150Y6259D02*
D03*
Y6850D02*
D03*
X8050Y4400D02*
D03*
Y4991D02*
D03*
X1450Y4505D02*
D03*
Y5095D02*
D03*
M02*
