M48
;Layer_Color=9474304
;FILE_FORMAT=2:4
INCH
;TYPE=PLATED
T1F00S00C0.0320
T2F00S00C0.0354
T3F00S00C0.0400
%
T01
X002500Y000700
Y001700
X004450
Y000700
X006400
Y001700
X008300
Y000700
T02
X003950Y004350
X004950
Y005350
X003950
Y006350
X004950
Y007350
X003950
T03
X002600Y004350
Y005334
X006239Y005400
Y004420
Y006392
Y007376
X002600Y007306
Y006326
M30
