%FSLAX24Y24*%
%MOIN*%
G70*
G01*
G75*
%ADD10C,0.0320*%
%ADD11R,0.0318X0.0079*%
%ADD12R,0.0476X0.0159*%
%ADD13C,0.0040*%
%ADD14C,0.0060*%
%ADD15R,0.0250X0.0240*%
%ADD16R,0.0575X0.0300*%
%ADD17R,0.0575X0.0295*%
%ADD18R,0.0560X0.0140*%
%ADD19C,0.0020*%
%ADD20O,0.1200X0.0600*%
%ADD21C,0.0591*%
%ADD22R,0.0591X0.0591*%
G04:AMPARAMS|DCode=23|XSize=66mil|YSize=66mil|CornerRadius=0mil|HoleSize=0mil|Usage=FLASHONLY|Rotation=270.000|XOffset=0mil|YOffset=0mil|HoleType=Round|Shape=Octagon|*
%AMOCTAGOND23*
4,1,8,-0.0165,-0.0330,0.0165,-0.0330,0.0330,-0.0165,0.0330,0.0165,0.0165,0.0330,-0.0165,0.0330,-0.0330,0.0165,-0.0330,-0.0165,-0.0165,-0.0330,0.0*
%
%ADD23OCTAGOND23*%

%ADD24R,0.0600X0.0520*%
%ADD25R,0.0630X0.0520*%
%ADD26C,0.0100*%
%ADD27C,0.0260*%
%ADD28C,0.0079*%
%ADD29C,0.0050*%
%ADD30C,0.0080*%
%ADD31R,0.2601X0.0240*%
G36*
X1728Y8148D02*
X1729Y8149D01*
X1732Y8152D01*
X1737Y8156D01*
X1744Y8161D01*
X1752Y8168D01*
X1762Y8175D01*
X1773Y8183D01*
X1786Y8191D01*
X1787D01*
X1788Y8191D01*
X1792Y8194D01*
X1799Y8198D01*
X1808Y8202D01*
X1818Y8207D01*
X1828Y8212D01*
X1839Y8217D01*
X1850Y8222D01*
Y8163D01*
X1849D01*
X1848Y8161D01*
X1845Y8161D01*
X1841Y8159D01*
X1837Y8156D01*
X1832Y8153D01*
X1820Y8146D01*
X1806Y8138D01*
X1791Y8128D01*
X1776Y8117D01*
X1761Y8105D01*
X1760Y8104D01*
X1760Y8103D01*
X1758Y8101D01*
X1755Y8099D01*
X1748Y8092D01*
X1740Y8083D01*
X1731Y8073D01*
X1722Y8062D01*
X1714Y8050D01*
X1707Y8038D01*
X1667D01*
Y8536D01*
X1728D01*
Y8148D01*
D02*
G37*
G36*
X1684Y3614D02*
X1900D01*
Y3558D01*
X1673Y3237D01*
X1623D01*
Y3558D01*
X1556D01*
Y3614D01*
X1623D01*
Y3733D01*
X1684D01*
Y3614D01*
D02*
G37*
G36*
X7216Y8169D02*
X7284D01*
Y8113D01*
X7216D01*
Y7994D01*
X7155D01*
Y8113D01*
X6939D01*
Y8169D01*
X7167Y8490D01*
X7216D01*
Y8169D01*
D02*
G37*
G36*
X7172Y3190D02*
X7111D01*
Y3578D01*
X7111Y3577D01*
X7107Y3574D01*
X7103Y3570D01*
X7095Y3565D01*
X7088Y3559D01*
X7078Y3551D01*
X7066Y3543D01*
X7053Y3536D01*
X7052D01*
X7052Y3535D01*
X7047Y3532D01*
X7040Y3528D01*
X7032Y3524D01*
X7022Y3519D01*
X7011Y3514D01*
X7000Y3509D01*
X6989Y3505D01*
Y3564D01*
X6990D01*
X6992Y3565D01*
X6994Y3566D01*
X6998Y3568D01*
X7002Y3570D01*
X7007Y3573D01*
X7019Y3580D01*
X7034Y3588D01*
X7048Y3598D01*
X7063Y3609D01*
X7078Y3622D01*
X7079Y3622D01*
X7080Y3623D01*
X7082Y3625D01*
X7085Y3627D01*
X7091Y3635D01*
X7100Y3643D01*
X7108Y3653D01*
X7118Y3665D01*
X7126Y3676D01*
X7133Y3688D01*
X7172D01*
Y3190D01*
D02*
G37*
%LPC*%
G36*
X1840Y3558D02*
X1684D01*
Y3336D01*
X1840Y3558D01*
D02*
G37*
G36*
X7155Y8391D02*
X6999Y8169D01*
X7155D01*
Y8391D01*
D02*
G37*
%LPD*%
D11*
X549Y4800D02*
D03*
X9149Y4700D02*
D03*
Y6550D02*
D03*
D12*
X-2148Y1251D02*
D03*
D13*
X810Y4650D02*
Y4940D01*
X290Y4650D02*
Y4950D01*
X9410Y4550D02*
Y4840D01*
X8890Y4550D02*
Y4850D01*
X9410Y6400D02*
Y6690D01*
X8890Y6400D02*
Y6700D01*
D14*
X6989Y3960D02*
Y7814D01*
X11240Y3960D02*
X11590Y3760D01*
X7339Y3960D02*
Y7814D01*
X6989Y3960D02*
X7339D01*
X10990D02*
X11240D01*
X7339D02*
X10990D01*
Y7814D01*
X6989D02*
X7339D01*
X10990D01*
X6389Y8814D02*
X11590D01*
Y8014D02*
Y8814D01*
X11240Y7814D02*
X11590Y8014D01*
X10990Y7814D02*
X11240D01*
X6389Y2970D02*
X11590D01*
Y3760D01*
X6389Y2970D02*
Y4030D01*
Y4810D02*
Y5010D01*
Y5790D02*
Y5994D01*
Y6774D02*
Y6983D01*
Y7774D02*
Y8814D01*
X1850Y3913D02*
Y7766D01*
X-2751Y7966D02*
X-2401Y7766D01*
X1500Y3913D02*
Y7766D01*
X1850D01*
X-2401D02*
X-2151D01*
X1500D01*
X-2151Y3913D02*
Y7766D01*
X1500Y3913D02*
X1850D01*
X-2151D02*
X1500D01*
X-2751Y2913D02*
X2450D01*
X-2751D02*
Y3713D01*
X-2401Y3913D01*
X-2151D01*
X-2751Y8756D02*
X2450D01*
X-2751Y7966D02*
Y8756D01*
X2450Y7696D02*
Y8756D01*
Y6716D02*
Y6916D01*
Y5733D02*
Y5936D01*
Y4743D02*
Y4953D01*
Y2913D02*
Y3953D01*
X-2400Y970D02*
Y1530D01*
X-1900Y970D02*
Y1530D01*
D15*
X6264Y4420D02*
D03*
Y5400D02*
D03*
Y6394D02*
D03*
Y7374D02*
D03*
X2575Y7306D02*
D03*
Y6326D02*
D03*
Y5333D02*
D03*
Y4353D02*
D03*
D16*
X547Y4510D02*
D03*
X9147Y4410D02*
D03*
Y6260D02*
D03*
D17*
X547Y5082D02*
D03*
X9147Y4982D02*
D03*
Y6832D02*
D03*
D18*
X-2150Y1590D02*
D03*
Y910D02*
D03*
D19*
X160Y4020D02*
X937D01*
X160Y5577D02*
X937D01*
Y4020D02*
Y5577D01*
X160Y4020D02*
Y5577D01*
X8760Y3920D02*
X9537D01*
X8760Y5477D02*
X9537D01*
Y3920D02*
Y5477D01*
X8760Y3920D02*
Y5477D01*
Y5770D02*
X9537D01*
X8760Y7327D02*
X9537D01*
Y5770D02*
Y7327D01*
X8760Y5770D02*
Y7327D01*
X-2537Y2030D02*
X-1760D01*
X-2537Y473D02*
X-1760D01*
X-2537D02*
Y2030D01*
X-1760Y473D02*
Y2030D01*
D26*
X8820Y580D02*
G03*
X9100Y1200I-522J609D01*
G01*
X9100D02*
G03*
X8756Y1859I-798J3D01*
G01*
X7500Y1200D02*
G03*
X7783Y580I810J-5D01*
G01*
X7845Y1858D02*
G03*
X7500Y1200I455J-658D01*
G01*
X6170Y580D02*
G03*
X6450Y1200I-522J609D01*
G01*
X6450D02*
G03*
X6106Y1859I-798J3D01*
G01*
X4850Y1200D02*
G03*
X5133Y580I810J-5D01*
G01*
X5195Y1858D02*
G03*
X4850Y1200I455J-658D01*
G01*
X3120Y580D02*
G03*
X3400Y1200I-522J609D01*
G01*
X3400D02*
G03*
X3056Y1859I-798J3D01*
G01*
X1800Y1200D02*
G03*
X2083Y580I810J-5D01*
G01*
X2145Y1858D02*
G03*
X1800Y1200I455J-658D01*
G01*
X420Y580D02*
G03*
X700Y1200I-522J609D01*
G01*
X700D02*
G03*
X356Y1859I-798J3D01*
G01*
X-900Y1200D02*
G03*
X-617Y580I810J-5D01*
G01*
X-555Y1858D02*
G03*
X-900Y1200I455J-658D01*
G01*
X-1300Y2650D02*
Y2250D01*
X-1033D01*
X-634Y2650D02*
X-900D01*
Y2250D01*
X-634D01*
X-900Y2450D02*
X-767D01*
X-500Y2650D02*
Y2250D01*
X-300D01*
X-234Y2317D01*
Y2583D01*
X-300Y2650D01*
X-500D01*
X-100Y2250D02*
X33D01*
X-34D01*
Y2650D01*
X-100Y2583D01*
X1500Y2700D02*
Y2300D01*
X1767D01*
X2166Y2700D02*
X1900D01*
Y2300D01*
X2166D01*
X1900Y2500D02*
X2033D01*
X2300Y2700D02*
Y2300D01*
X2500D01*
X2566Y2367D01*
Y2633D01*
X2500Y2700D01*
X2300D01*
X2966Y2300D02*
X2700D01*
X2966Y2567D01*
Y2633D01*
X2900Y2700D01*
X2766D01*
X2700Y2633D01*
X8417Y8433D02*
X8350Y8500D01*
X8217D01*
X8150Y8433D01*
Y8367D01*
X8217Y8300D01*
X8350D01*
X8417Y8233D01*
Y8167D01*
X8350Y8100D01*
X8217D01*
X8150Y8167D01*
X8550Y8500D02*
Y8233D01*
X8683Y8100D01*
X8816Y8233D01*
Y8500D01*
X9216Y8100D02*
X8950D01*
X9216Y8367D01*
Y8433D01*
X9150Y8500D01*
X9016D01*
X8950Y8433D01*
X467Y8383D02*
X400Y8450D01*
X267D01*
X200Y8383D01*
Y8317D01*
X267Y8250D01*
X400D01*
X467Y8183D01*
Y8117D01*
X400Y8050D01*
X267D01*
X200Y8117D01*
X600Y8450D02*
Y8183D01*
X733Y8050D01*
X866Y8183D01*
Y8450D01*
X1000Y8050D02*
X1133D01*
X1066D01*
Y8450D01*
X1000Y8383D01*
X2850Y8200D02*
Y8600D01*
X3050D01*
X3117Y8533D01*
Y8400D01*
X3050Y8333D01*
X2850D01*
X3250Y8200D02*
X3383D01*
X3317D01*
Y8600D01*
X3250Y8533D01*
X9550Y350D02*
X10150D01*
Y750D01*
X9550Y1350D02*
Y950D01*
X10150D01*
Y1350D01*
X9850Y950D02*
Y1150D01*
X9550Y1550D02*
X10150D01*
Y1850D01*
X10050Y1949D01*
X9650D01*
X9550Y1850D01*
Y1550D01*
X10150Y2449D02*
X9550D01*
X9850Y2149D01*
Y2549D01*
X3800Y2600D02*
Y2200D01*
X4067D01*
X4466Y2600D02*
X4200D01*
Y2200D01*
X4466D01*
X4200Y2400D02*
X4333D01*
X4600Y2600D02*
Y2200D01*
X4800D01*
X4866Y2267D01*
Y2533D01*
X4800Y2600D01*
X4600D01*
X5000Y2533D02*
X5066Y2600D01*
X5200D01*
X5266Y2533D01*
Y2467D01*
X5200Y2400D01*
X5133D01*
X5200D01*
X5266Y2333D01*
Y2267D01*
X5200Y2200D01*
X5066D01*
X5000Y2267D01*
D27*
X9890Y4420D02*
X10090D01*
X9890Y5400D02*
X10090D01*
X9890Y6394D02*
X10090D01*
X9890Y7376D02*
X10090D01*
X-1251Y7306D02*
X-1051D01*
X-1251Y6326D02*
X-1051D01*
X-1251Y5333D02*
X-1051D01*
X-1251Y4350D02*
X-1051D01*
D28*
X3450Y3850D02*
Y7850D01*
X5450D01*
Y3850D02*
Y7850D01*
X3450Y3850D02*
X5450D01*
D29*
X8980Y1930D02*
Y2220D01*
X8820Y2080D02*
X9130D01*
X6330Y1930D02*
Y2220D01*
X6170Y2080D02*
X6480D01*
X3280Y1930D02*
Y2220D01*
X3120Y2080D02*
X3430D01*
X580Y1930D02*
Y2220D01*
X420Y2080D02*
X730D01*
D30*
X5250Y8017D02*
Y8350D01*
X5000D01*
X5083Y8183D01*
Y8100D01*
X5000Y8017D01*
X4833D01*
X4750Y8100D01*
Y8267D01*
X4833Y8350D01*
X3750Y8150D02*
Y7983D01*
Y8067D01*
X4250D01*
X4167Y8150D01*
X3750Y3500D02*
X4250D01*
X4000Y3750D01*
Y3417D01*
X5167Y3750D02*
X5250Y3667D01*
Y3500D01*
X5167Y3417D01*
X5083D01*
X5000Y3500D01*
X4917Y3417D01*
X4833D01*
X4750Y3500D01*
Y3667D01*
X4833Y3750D01*
X4917D01*
X5000Y3667D01*
X5083Y3750D01*
X5167D01*
X5000Y3667D02*
Y3500D01*
D31*
X8640Y4420D02*
D03*
Y5400D02*
D03*
Y6394D02*
D03*
Y7374D02*
D03*
X200Y7306D02*
D03*
Y6326D02*
D03*
Y5333D02*
D03*
Y4353D02*
D03*
M02*
