%FSLAX24Y24*%
%MOIN*%
G70*
G01*
G75*
G04 Layer_Color=16711935*
%ADD10C,0.0320*%
%ADD11R,0.0476X0.0159*%
%ADD12C,0.0039*%
%ADD13C,0.0100*%
%ADD14C,0.0060*%
%ADD15R,0.0560X0.0140*%
%ADD16R,0.0250X0.0240*%
%ADD17C,0.0020*%
G04:AMPARAMS|DCode=18|XSize=66mil|YSize=66mil|CornerRadius=0mil|HoleSize=0mil|Usage=FLASHONLY|Rotation=270.000|XOffset=0mil|YOffset=0mil|HoleType=Round|Shape=Octagon|*
%AMOCTAGOND18*
4,1,8,-0.0165,-0.0330,0.0165,-0.0330,0.0330,-0.0165,0.0330,0.0165,0.0165,0.0330,-0.0165,0.0330,-0.0330,0.0165,-0.0330,-0.0165,-0.0165,-0.0330,0.0*
%
%ADD18OCTAGOND18*%

%ADD19O,0.1200X0.0600*%
%ADD20C,0.0591*%
%ADD21R,0.0591X0.0591*%
%ADD22R,0.0630X0.0520*%
%ADD23R,0.0551X0.0433*%
%ADD24C,0.0050*%
%ADD25C,0.0260*%
%ADD26C,0.0079*%
%ADD27C,0.0080*%
%ADD28R,0.2601X0.0240*%
G04:AMPARAMS|DCode=29|XSize=74mil|YSize=74mil|CornerRadius=0mil|HoleSize=0mil|Usage=FLASHONLY|Rotation=270.000|XOffset=0mil|YOffset=0mil|HoleType=Round|Shape=Octagon|*
%AMOCTAGOND29*
4,1,8,-0.0185,-0.0370,0.0185,-0.0370,0.0370,-0.0185,0.0370,0.0185,0.0185,0.0370,-0.0185,0.0370,-0.0370,0.0185,-0.0370,-0.0185,-0.0185,-0.0370,0.0*
%
%ADD29OCTAGOND29*%

%ADD30O,0.1280X0.0680*%
%ADD31C,0.0671*%
%ADD32R,0.0671X0.0671*%
%ADD33R,0.0710X0.0600*%
%ADD34R,0.0631X0.0513*%
D11*
X752Y1225D02*
D03*
D12*
X8435Y6122D02*
Y6988D01*
X7865Y6122D02*
Y6988D01*
Y6122D02*
X8435D01*
X7865Y6988D02*
X8435D01*
X8335Y4262D02*
Y5128D01*
X7765Y4262D02*
Y5128D01*
Y4262D02*
X8335D01*
X7765Y5128D02*
X8335D01*
X1735Y4367D02*
Y5233D01*
X1165Y4367D02*
Y5233D01*
Y4367D02*
X1735D01*
X1165Y5233D02*
X1735D01*
X7953Y6555D02*
X8347D01*
X8150Y6358D02*
Y6752D01*
X8465Y6004D02*
Y7106D01*
X7835Y6004D02*
Y7106D01*
Y6004D02*
X8465D01*
X7835Y7106D02*
X8465D01*
X7853Y4695D02*
X8247D01*
X8050Y4498D02*
Y4892D01*
X8365Y4144D02*
Y5246D01*
X7735Y4144D02*
Y5246D01*
Y4144D02*
X8365D01*
X7735Y5246D02*
X8365D01*
X1253Y4800D02*
X1647D01*
X1450Y4603D02*
Y4997D01*
X1765Y4249D02*
Y5351D01*
X1135Y4249D02*
Y5351D01*
Y4249D02*
X1765D01*
X1135Y5351D02*
X1765D01*
D13*
X8300Y2000D02*
G03*
X7881Y1881I-0J-800D01*
G01*
X8680Y1904D02*
G03*
X8300Y2000I-380J-706D01*
G01*
X6400D02*
G03*
X5981Y1881I-0J-800D01*
G01*
X6780Y1904D02*
G03*
X6400Y2000I-380J-706D01*
G01*
X4450D02*
G03*
X4031Y1881I-0J-800D01*
G01*
X4830Y1904D02*
G03*
X4450Y2000I-380J-706D01*
G01*
X2500D02*
G03*
X2081Y1881I-0J-800D01*
G01*
X2880Y1904D02*
G03*
X2500Y2000I-380J-706D01*
G01*
X7800Y580D02*
X8800D01*
X5900D02*
X6900D01*
X3950D02*
X4950D01*
X2000D02*
X3000D01*
D14*
X7900Y1200D02*
G03*
X8300Y800I400J0D01*
G01*
X8050Y1200D02*
G03*
X8300Y950I250J0D01*
G01*
X8700Y1200D02*
G03*
X8300Y1600I-400J0D01*
G01*
X8550Y1200D02*
G03*
X8300Y1450I-250J0D01*
G01*
X7916Y730D02*
G03*
X8300Y600I372J465D01*
G01*
D02*
G03*
X8700Y740I11J611D01*
G01*
X8300Y1800D02*
G03*
X7901Y1648I-0J-600D01*
G01*
X8690Y1661D02*
G03*
X8300Y1800I-387J-469D01*
G01*
X6000Y1200D02*
G03*
X6400Y800I400J0D01*
G01*
X6150Y1200D02*
G03*
X6400Y950I250J0D01*
G01*
X6800Y1200D02*
G03*
X6400Y1600I-400J0D01*
G01*
X6650Y1200D02*
G03*
X6400Y1450I-250J0D01*
G01*
X6016Y730D02*
G03*
X6400Y600I372J465D01*
G01*
D02*
G03*
X6800Y740I11J611D01*
G01*
X6400Y1800D02*
G03*
X6001Y1648I-0J-600D01*
G01*
X6790Y1661D02*
G03*
X6400Y1800I-387J-469D01*
G01*
X4050Y1200D02*
G03*
X4450Y800I400J0D01*
G01*
X4200Y1200D02*
G03*
X4450Y950I250J0D01*
G01*
X4850Y1200D02*
G03*
X4450Y1600I-400J0D01*
G01*
X4700Y1200D02*
G03*
X4450Y1450I-250J0D01*
G01*
X4066Y730D02*
G03*
X4450Y600I372J465D01*
G01*
D02*
G03*
X4850Y740I11J611D01*
G01*
X4450Y1800D02*
G03*
X4051Y1648I-0J-600D01*
G01*
X4840Y1661D02*
G03*
X4450Y1800I-387J-469D01*
G01*
X2100Y1200D02*
G03*
X2500Y800I400J0D01*
G01*
X2250Y1200D02*
G03*
X2500Y950I250J0D01*
G01*
X2900Y1200D02*
G03*
X2500Y1600I-400J0D01*
G01*
X2750Y1200D02*
G03*
X2500Y1450I-250J0D01*
G01*
X2116Y730D02*
G03*
X2500Y600I372J465D01*
G01*
D02*
G03*
X2900Y740I11J611D01*
G01*
X2500Y1800D02*
G03*
X2101Y1648I-0J-600D01*
G01*
X2890Y1661D02*
G03*
X2500Y1800I-387J-469D01*
G01*
X500Y944D02*
Y1504D01*
X1000Y944D02*
Y1504D01*
X2450Y3963D02*
Y4743D01*
Y4953D02*
Y5733D01*
Y5936D02*
Y6716D01*
Y6916D02*
Y7696D01*
X6389Y6983D02*
Y7764D01*
Y5994D02*
Y6774D01*
Y5010D02*
Y5790D01*
Y4030D02*
Y4810D01*
D15*
X750Y1564D02*
D03*
Y884D02*
D03*
D16*
X2575Y4353D02*
D03*
Y5333D02*
D03*
Y6326D02*
D03*
Y7306D02*
D03*
X6264Y7374D02*
D03*
Y6394D02*
D03*
Y5400D02*
D03*
Y4420D02*
D03*
D17*
X363Y2004D02*
X1140D01*
X363Y447D02*
X1140D01*
X363D02*
Y2004D01*
X1140Y447D02*
Y2004D01*
M02*
