%FSLAX24Y24*%
%MOIN*%
G70*
G01*
G75*
%ADD10C,0.0320*%
%ADD11R,0.0476X0.0159*%
%ADD12C,0.0039*%
%ADD13C,0.0100*%
%ADD14C,0.0060*%
%ADD15R,0.0560X0.0140*%
%ADD16R,0.0250X0.0240*%
%ADD17C,0.0020*%
G04:AMPARAMS|DCode=18|XSize=66mil|YSize=66mil|CornerRadius=0mil|HoleSize=0mil|Usage=FLASHONLY|Rotation=270.000|XOffset=0mil|YOffset=0mil|HoleType=Round|Shape=Octagon|*
%AMOCTAGOND18*
4,1,8,-0.0165,-0.0330,0.0165,-0.0330,0.0330,-0.0165,0.0330,0.0165,0.0165,0.0330,-0.0165,0.0330,-0.0330,0.0165,-0.0330,-0.0165,-0.0165,-0.0330,0.0*
%
%ADD18OCTAGOND18*%

%ADD19O,0.1200X0.0600*%
%ADD20C,0.0591*%
%ADD21R,0.0591X0.0591*%
%ADD22R,0.0630X0.0520*%
%ADD23R,0.0551X0.0433*%
%ADD24C,0.0050*%
%ADD25C,0.0260*%
%ADD26C,0.0079*%
%ADD27C,0.0080*%
%ADD28R,0.2601X0.0240*%
G36*
X7216Y8169D02*
X7284D01*
Y8113D01*
X7216D01*
Y7994D01*
X7155D01*
Y8113D01*
X6939D01*
Y8169D01*
X7167Y8490D01*
X7216D01*
Y8169D01*
D02*
G37*
G36*
X7172Y3190D02*
X7111D01*
Y3578D01*
X7111Y3577D01*
X7107Y3574D01*
X7103Y3570D01*
X7095Y3565D01*
X7088Y3559D01*
X7078Y3551D01*
X7066Y3543D01*
X7053Y3536D01*
X7052D01*
X7052Y3535D01*
X7047Y3532D01*
X7040Y3528D01*
X7032Y3524D01*
X7022Y3519D01*
X7011Y3514D01*
X7000Y3509D01*
X6989Y3505D01*
Y3564D01*
X6990D01*
X6992Y3565D01*
X6994Y3566D01*
X6998Y3568D01*
X7002Y3570D01*
X7007Y3573D01*
X7019Y3580D01*
X7034Y3588D01*
X7048Y3598D01*
X7063Y3609D01*
X7078Y3622D01*
X7079Y3622D01*
X7080Y3623D01*
X7082Y3625D01*
X7085Y3627D01*
X7091Y3635D01*
X7100Y3643D01*
X7108Y3653D01*
X7118Y3665D01*
X7126Y3676D01*
X7133Y3688D01*
X7172D01*
Y3190D01*
D02*
G37*
G36*
X1728Y8148D02*
X1729Y8149D01*
X1732Y8152D01*
X1737Y8156D01*
X1744Y8161D01*
X1752Y8168D01*
X1762Y8175D01*
X1773Y8183D01*
X1786Y8191D01*
X1787D01*
X1788Y8191D01*
X1792Y8194D01*
X1799Y8198D01*
X1808Y8202D01*
X1818Y8207D01*
X1828Y8212D01*
X1839Y8217D01*
X1850Y8222D01*
Y8163D01*
X1849D01*
X1848Y8161D01*
X1845Y8161D01*
X1841Y8159D01*
X1837Y8156D01*
X1832Y8153D01*
X1820Y8146D01*
X1806Y8138D01*
X1791Y8128D01*
X1776Y8117D01*
X1761Y8105D01*
X1760Y8104D01*
X1760Y8103D01*
X1758Y8101D01*
X1755Y8099D01*
X1748Y8092D01*
X1740Y8083D01*
X1731Y8073D01*
X1722Y8062D01*
X1714Y8050D01*
X1707Y8038D01*
X1667D01*
Y8536D01*
X1728D01*
Y8148D01*
D02*
G37*
G36*
X1284Y3631D02*
X1500D01*
Y3575D01*
X1273Y3254D01*
X1223D01*
Y3575D01*
X1156D01*
Y3631D01*
X1223D01*
Y3750D01*
X1284D01*
Y3631D01*
D02*
G37*
%LPC*%
G36*
X1440Y3575D02*
X1284D01*
Y3353D01*
X1440Y3575D01*
D02*
G37*
G36*
X7155Y8391D02*
X6999Y8169D01*
X7155D01*
Y8391D01*
D02*
G37*
%LPD*%
D11*
X752Y1225D02*
D03*
D12*
X8435Y6122D02*
Y6988D01*
X7865Y6122D02*
Y6988D01*
Y6122D02*
X8435D01*
X7865Y6988D02*
X8435D01*
X8335Y4262D02*
Y5128D01*
X7765Y4262D02*
Y5128D01*
Y4262D02*
X8335D01*
X7765Y5128D02*
X8335D01*
X1735Y4367D02*
Y5233D01*
X1165Y4367D02*
Y5233D01*
Y4367D02*
X1735D01*
X1165Y5233D02*
X1735D01*
X7953Y6555D02*
X8347D01*
X8150Y6358D02*
Y6752D01*
X8465Y6004D02*
Y7106D01*
X7835Y6004D02*
Y7106D01*
Y6004D02*
X8465D01*
X7835Y7106D02*
X8465D01*
X7853Y4695D02*
X8247D01*
X8050Y4498D02*
Y4892D01*
X8365Y4144D02*
Y5246D01*
X7735Y4144D02*
Y5246D01*
Y4144D02*
X8365D01*
X7735Y5246D02*
X8365D01*
X1253Y4800D02*
X1647D01*
X1450Y4603D02*
Y4997D01*
X1765Y4249D02*
Y5351D01*
X1135Y4249D02*
Y5351D01*
Y4249D02*
X1765D01*
X1135Y5351D02*
X1765D01*
D13*
X7903Y1895D02*
G03*
X7500Y1200I397J-695D01*
G01*
D02*
G03*
X7783Y580I810J-5D01*
G01*
X9100Y1200D02*
G03*
X8680Y1906I-798J3D01*
G01*
X8820Y580D02*
G03*
X9100Y1200I-522J609D01*
G01*
X6003Y1895D02*
G03*
X5600Y1200I397J-695D01*
G01*
D02*
G03*
X5883Y580I810J-5D01*
G01*
X7200Y1200D02*
G03*
X6780Y1906I-798J3D01*
G01*
X6920Y580D02*
G03*
X7200Y1200I-522J609D01*
G01*
X4053Y1895D02*
G03*
X3650Y1200I397J-695D01*
G01*
D02*
G03*
X3933Y580I810J-5D01*
G01*
X5250Y1200D02*
G03*
X4830Y1906I-798J3D01*
G01*
X4970Y580D02*
G03*
X5250Y1200I-522J609D01*
G01*
X2103Y1895D02*
G03*
X1700Y1200I397J-695D01*
G01*
D02*
G03*
X1983Y580I810J-5D01*
G01*
X3300Y1200D02*
G03*
X2880Y1906I-798J3D01*
G01*
X3020Y580D02*
G03*
X3300Y1200I-522J609D01*
G01*
X7550Y2950D02*
Y2350D01*
X7950D01*
X8550Y2950D02*
X8150D01*
Y2350D01*
X8550D01*
X8150Y2650D02*
X8350D01*
X8750Y2950D02*
Y2350D01*
X9050D01*
X9149Y2450D01*
Y2850D01*
X9050Y2950D01*
X8750D01*
X9649Y2350D02*
Y2950D01*
X9349Y2650D01*
X9749D01*
X5750Y3050D02*
Y2450D01*
X6150D01*
X6750Y3050D02*
X6350D01*
Y2450D01*
X6750D01*
X6350Y2750D02*
X6550D01*
X6950Y3050D02*
Y2450D01*
X7250D01*
X7349Y2550D01*
Y2950D01*
X7250Y3050D01*
X6950D01*
X7549Y2950D02*
X7649Y3050D01*
X7849D01*
X7949Y2950D01*
Y2850D01*
X7849Y2750D01*
X7749D01*
X7849D01*
X7949Y2650D01*
Y2550D01*
X7849Y2450D01*
X7649D01*
X7549Y2550D01*
X-2280Y9590D02*
X-2380Y9690D01*
X-2580D01*
X-2680Y9590D01*
Y9490D01*
X-2580Y9390D01*
X-2380D01*
X-2280Y9290D01*
Y9190D01*
X-2380Y9090D01*
X-2580D01*
X-2680Y9190D01*
X-2080Y9690D02*
Y9290D01*
X-1880Y9090D01*
X-1680Y9290D01*
Y9690D01*
X-1480Y9090D02*
X-1280D01*
X-1380D01*
Y9690D01*
X-1480Y9590D01*
X6100Y9640D02*
X6000Y9740D01*
X5800D01*
X5700Y9640D01*
Y9540D01*
X5800Y9440D01*
X6000D01*
X6100Y9340D01*
Y9240D01*
X6000Y9140D01*
X5800D01*
X5700Y9240D01*
X6300Y9740D02*
Y9340D01*
X6500Y9140D01*
X6700Y9340D01*
Y9740D01*
X7299Y9140D02*
X6900D01*
X7299Y9540D01*
Y9640D01*
X7200Y9740D01*
X7000D01*
X6900Y9640D01*
X3700Y3140D02*
Y2540D01*
X4100D01*
X4700Y3140D02*
X4300D01*
Y2540D01*
X4700D01*
X4300Y2840D02*
X4500D01*
X4900Y3140D02*
Y2540D01*
X5200D01*
X5299Y2640D01*
Y3040D01*
X5200Y3140D01*
X4900D01*
X5899Y2540D02*
X5499D01*
X5899Y2940D01*
Y3040D01*
X5799Y3140D01*
X5599D01*
X5499Y3040D01*
X1750Y3140D02*
Y2540D01*
X2150D01*
X2750Y3140D02*
X2350D01*
Y2540D01*
X2750D01*
X2350Y2840D02*
X2550D01*
X2950Y3140D02*
Y2540D01*
X3250D01*
X3349Y2640D01*
Y3040D01*
X3250Y3140D01*
X2950D01*
X3549Y2540D02*
X3749D01*
X3649D01*
Y3140D01*
X3549Y3040D01*
X3510Y8730D02*
Y9330D01*
X3810D01*
X3910Y9230D01*
Y9030D01*
X3810Y8930D01*
X3510D01*
X4110Y8730D02*
X4310D01*
X4210D01*
Y9330D01*
X4110Y9230D01*
X8300Y2000D02*
G03*
X7881Y1881I-0J-800D01*
G01*
X8680Y1904D02*
G03*
X8300Y2000I-380J-706D01*
G01*
X6400D02*
G03*
X5981Y1881I-0J-800D01*
G01*
X6780Y1904D02*
G03*
X6400Y2000I-380J-706D01*
G01*
X4450D02*
G03*
X4031Y1881I-0J-800D01*
G01*
X4830Y1904D02*
G03*
X4450Y2000I-380J-706D01*
G01*
X2500D02*
G03*
X2081Y1881I-0J-800D01*
G01*
X2880Y1904D02*
G03*
X2500Y2000I-380J-706D01*
G01*
X7800Y580D02*
X8800D01*
X5900D02*
X6900D01*
X3950D02*
X4950D01*
X2000D02*
X3000D01*
D14*
X7932Y1674D02*
G03*
X7700Y1200I368J-474D01*
G01*
X7700D02*
G03*
X7932Y720I607J-3D01*
G01*
X8900Y1200D02*
G03*
X8660Y1680I-600J0D01*
G01*
X8650Y710D02*
G03*
X8900Y1200I-351J488D01*
G01*
X6032Y1674D02*
G03*
X5800Y1200I368J-474D01*
G01*
X5800D02*
G03*
X6032Y720I607J-3D01*
G01*
X7000Y1200D02*
G03*
X6760Y1680I-600J0D01*
G01*
X6750Y710D02*
G03*
X7000Y1200I-351J488D01*
G01*
X4082Y1674D02*
G03*
X3850Y1200I368J-474D01*
G01*
X3850D02*
G03*
X4082Y720I607J-3D01*
G01*
X5050Y1200D02*
G03*
X4810Y1680I-600J0D01*
G01*
X4800Y710D02*
G03*
X5050Y1200I-351J488D01*
G01*
X2132Y1674D02*
G03*
X1900Y1200I368J-474D01*
G01*
X1900D02*
G03*
X2132Y720I607J-3D01*
G01*
X3100Y1200D02*
G03*
X2860Y1680I-600J0D01*
G01*
X2850Y710D02*
G03*
X3100Y1200I-351J488D01*
G01*
X2450Y2913D02*
Y3953D01*
Y4743D02*
Y4953D01*
Y5733D02*
Y5936D01*
Y6716D02*
Y6916D01*
Y7696D02*
Y8756D01*
X-2751Y7966D02*
Y8756D01*
X2450D01*
X-2401Y3913D02*
X-2151D01*
X-2751Y3713D02*
X-2401Y3913D01*
X-2751Y2913D02*
Y3713D01*
Y2913D02*
X2450D01*
X-2151Y3913D02*
X1500D01*
X1850D01*
X-2151D02*
Y7766D01*
X1500D01*
X-2401D02*
X-2151D01*
X1500D02*
X1850D01*
X1500Y3913D02*
Y7766D01*
X-2751Y7966D02*
X-2401Y7766D01*
X1850Y3913D02*
Y7766D01*
X6389Y7774D02*
Y8814D01*
Y6774D02*
Y6983D01*
Y5790D02*
Y5994D01*
Y4810D02*
Y5010D01*
Y2970D02*
Y4030D01*
X11590Y2970D02*
Y3760D01*
X6389Y2970D02*
X11590D01*
X10990Y7814D02*
X11240D01*
X11590Y8014D01*
Y8814D01*
X6389D02*
X11590D01*
X7339Y7814D02*
X10990D01*
X6989D02*
X7339D01*
X10990Y3960D02*
Y7814D01*
X7339Y3960D02*
X10990D01*
X11240D01*
X6989D02*
X7339D01*
Y7814D01*
X11240Y3960D02*
X11590Y3760D01*
X6989Y3960D02*
Y7814D01*
X7900Y1200D02*
G03*
X8300Y800I400J0D01*
G01*
X8050Y1200D02*
G03*
X8300Y950I250J0D01*
G01*
X8700Y1200D02*
G03*
X8300Y1600I-400J0D01*
G01*
X8550Y1200D02*
G03*
X8300Y1450I-250J0D01*
G01*
X7916Y730D02*
G03*
X8300Y600I372J465D01*
G01*
D02*
G03*
X8700Y740I11J611D01*
G01*
X8300Y1800D02*
G03*
X7901Y1648I-0J-600D01*
G01*
X8690Y1661D02*
G03*
X8300Y1800I-387J-469D01*
G01*
X6000Y1200D02*
G03*
X6400Y800I400J0D01*
G01*
X6150Y1200D02*
G03*
X6400Y950I250J0D01*
G01*
X6800Y1200D02*
G03*
X6400Y1600I-400J0D01*
G01*
X6650Y1200D02*
G03*
X6400Y1450I-250J0D01*
G01*
X6016Y730D02*
G03*
X6400Y600I372J465D01*
G01*
D02*
G03*
X6800Y740I11J611D01*
G01*
X6400Y1800D02*
G03*
X6001Y1648I-0J-600D01*
G01*
X6790Y1661D02*
G03*
X6400Y1800I-387J-469D01*
G01*
X4050Y1200D02*
G03*
X4450Y800I400J0D01*
G01*
X4200Y1200D02*
G03*
X4450Y950I250J0D01*
G01*
X4850Y1200D02*
G03*
X4450Y1600I-400J0D01*
G01*
X4700Y1200D02*
G03*
X4450Y1450I-250J0D01*
G01*
X4066Y730D02*
G03*
X4450Y600I372J465D01*
G01*
D02*
G03*
X4850Y740I11J611D01*
G01*
X4450Y1800D02*
G03*
X4051Y1648I-0J-600D01*
G01*
X4840Y1661D02*
G03*
X4450Y1800I-387J-469D01*
G01*
X2100Y1200D02*
G03*
X2500Y800I400J0D01*
G01*
X2250Y1200D02*
G03*
X2500Y950I250J0D01*
G01*
X2900Y1200D02*
G03*
X2500Y1600I-400J0D01*
G01*
X2750Y1200D02*
G03*
X2500Y1450I-250J0D01*
G01*
X2116Y730D02*
G03*
X2500Y600I372J465D01*
G01*
D02*
G03*
X2900Y740I11J611D01*
G01*
X2500Y1800D02*
G03*
X2101Y1648I-0J-600D01*
G01*
X2890Y1661D02*
G03*
X2500Y1800I-387J-469D01*
G01*
X500Y944D02*
Y1504D01*
X1000Y944D02*
Y1504D01*
X2450Y3963D02*
Y4743D01*
Y4953D02*
Y5733D01*
Y5936D02*
Y6716D01*
Y6916D02*
Y7696D01*
X6389Y6983D02*
Y7764D01*
Y5994D02*
Y6774D01*
Y5010D02*
Y5790D01*
Y4030D02*
Y4810D01*
D15*
X750Y1564D02*
D03*
Y884D02*
D03*
D16*
X2575Y4353D02*
D03*
Y5333D02*
D03*
Y6326D02*
D03*
Y7306D02*
D03*
X6264Y7374D02*
D03*
Y6394D02*
D03*
Y5400D02*
D03*
Y4420D02*
D03*
D17*
X363Y2004D02*
X1140D01*
X363Y447D02*
X1140D01*
X363D02*
Y2004D01*
X1140Y447D02*
Y2004D01*
D24*
X8820Y2080D02*
X9130D01*
X8980Y1930D02*
Y2220D01*
X6920Y2080D02*
X7230D01*
X7080Y1930D02*
Y2220D01*
X4970Y2080D02*
X5280D01*
X5130Y1930D02*
Y2220D01*
X3020Y2080D02*
X3330D01*
X3180Y1930D02*
Y2220D01*
D25*
X-1251Y4350D02*
X-1051D01*
X-1251Y5333D02*
X-1051D01*
X-1251Y6326D02*
X-1051D01*
X-1251Y7306D02*
X-1051D01*
X9890Y7376D02*
X10090D01*
X9890Y6394D02*
X10090D01*
X9890Y5400D02*
X10090D01*
X9890Y4420D02*
X10090D01*
D26*
X3450Y3850D02*
Y7850D01*
X5450D01*
Y3850D02*
Y7850D01*
X3450Y3850D02*
X5450D01*
D27*
X5250Y8017D02*
Y8350D01*
X5000D01*
X5083Y8183D01*
Y8100D01*
X5000Y8017D01*
X4833D01*
X4750Y8100D01*
Y8267D01*
X4833Y8350D01*
X3750Y8150D02*
Y7983D01*
Y8067D01*
X4250D01*
X4167Y8150D01*
X3750Y3500D02*
X4250D01*
X4000Y3750D01*
Y3417D01*
X5167Y3750D02*
X5250Y3667D01*
Y3500D01*
X5167Y3417D01*
X5083D01*
X5000Y3500D01*
X4917Y3417D01*
X4833D01*
X4750Y3500D01*
Y3667D01*
X4833Y3750D01*
X4917D01*
X5000Y3667D01*
X5083Y3750D01*
X5167D01*
X5000Y3667D02*
Y3500D01*
D28*
X200Y4353D02*
D03*
Y5333D02*
D03*
Y6326D02*
D03*
Y7306D02*
D03*
X8640Y7374D02*
D03*
Y6394D02*
D03*
Y5400D02*
D03*
Y4420D02*
D03*
M02*
