%FSLAX24Y24*%
%MOIN*%
G70*
G01*
G75*
G04 Layer_Physical_Order=1*
G04 Layer_Color=255*
%ADD10C,0.0320*%
%ADD11R,0.0318X0.0079*%
%ADD12R,0.0476X0.0159*%
%ADD13C,0.0040*%
%ADD14C,0.0060*%
%ADD15R,0.0250X0.0240*%
%ADD16R,0.0575X0.0300*%
%ADD17R,0.0575X0.0295*%
%ADD18R,0.0560X0.0140*%
%ADD19C,0.0020*%
%ADD20O,0.1200X0.0600*%
%ADD21C,0.0591*%
%ADD22R,0.0591X0.0591*%
G04:AMPARAMS|DCode=23|XSize=66mil|YSize=66mil|CornerRadius=0mil|HoleSize=0mil|Usage=FLASHONLY|Rotation=270.000|XOffset=0mil|YOffset=0mil|HoleType=Round|Shape=Octagon|*
%AMOCTAGOND23*
4,1,8,-0.0165,-0.0330,0.0165,-0.0330,0.0330,-0.0165,0.0330,0.0165,0.0165,0.0330,-0.0165,0.0330,-0.0330,0.0165,-0.0330,-0.0165,-0.0165,-0.0330,0.0*
%
%ADD23OCTAGOND23*%

D10*
X-100Y700D02*
X2600D01*
X5650D01*
X8300D01*
X-100Y1700D02*
X2600D01*
X5650D01*
X8300D01*
X3950Y4050D02*
X4400Y3600D01*
X3950Y4050D02*
Y4350D01*
X2600D02*
X3950D01*
X4400Y3600D02*
X5419D01*
X6239Y4420D01*
X1550Y7650D02*
X2300Y8400D01*
X1550Y6850D02*
Y7650D01*
X6239Y5400D02*
X7500D01*
X7700Y5200D01*
Y3850D02*
Y5200D01*
X6750Y2900D02*
X7700Y3850D01*
X2450Y2900D02*
X6750D01*
X1550Y3800D02*
X2450Y2900D01*
X1550Y3800D02*
Y4600D01*
X2284Y5334D01*
X2600D01*
X6239Y6392D02*
X7142D01*
X7500Y6750D01*
Y7800D01*
X6900Y8400D02*
X7500Y7800D01*
X2300Y8400D02*
X6900D01*
X1550Y6850D02*
X2074Y6326D01*
X2600D01*
X5666Y7950D02*
X6239Y7376D01*
X4300Y7950D02*
X5666D01*
X3950Y7600D02*
X4300Y7950D01*
X3950Y7350D02*
Y7600D01*
X3934Y5334D02*
X3950Y5350D01*
X2600Y5334D02*
X3934D01*
X3926Y6326D02*
X3950Y6350D01*
X2600Y6326D02*
X3926D01*
X3906Y7306D02*
X3950Y7350D01*
X2600Y7306D02*
X3906D01*
D11*
X549Y4800D02*
D03*
X9149Y4700D02*
D03*
Y6550D02*
D03*
D12*
X-2148Y1251D02*
D03*
D13*
X810Y4650D02*
Y4940D01*
X290Y4650D02*
Y4950D01*
X9410Y4550D02*
Y4840D01*
X8890Y4550D02*
Y4850D01*
X9410Y6400D02*
Y6690D01*
X8890Y6400D02*
Y6700D01*
D14*
X-2400Y970D02*
Y1530D01*
X-1900Y970D02*
Y1530D01*
D15*
X6264Y4420D02*
D03*
Y5400D02*
D03*
Y6394D02*
D03*
Y7374D02*
D03*
X2575Y7306D02*
D03*
Y6326D02*
D03*
Y5333D02*
D03*
Y4353D02*
D03*
D16*
X547Y4510D02*
D03*
X9147Y4410D02*
D03*
Y6260D02*
D03*
D17*
X547Y5082D02*
D03*
X9147Y4982D02*
D03*
Y6832D02*
D03*
D18*
X-2150Y1590D02*
D03*
Y910D02*
D03*
D19*
X160Y4020D02*
X937D01*
X160Y5577D02*
X937D01*
Y4020D02*
Y5577D01*
X160Y4020D02*
Y5577D01*
X8760Y3920D02*
X9537D01*
X8760Y5477D02*
X9537D01*
Y3920D02*
Y5477D01*
X8760Y3920D02*
Y5477D01*
Y5770D02*
X9537D01*
X8760Y7327D02*
X9537D01*
Y5770D02*
Y7327D01*
X8760Y5770D02*
Y7327D01*
X-2537Y2030D02*
X-1760D01*
X-2537Y473D02*
X-1760D01*
X-2537D02*
Y2030D01*
X-1760Y473D02*
Y2030D01*
D20*
X6239Y6392D02*
D03*
Y7376D02*
D03*
Y5400D02*
D03*
Y4420D02*
D03*
X2600Y5334D02*
D03*
Y4350D02*
D03*
Y6326D02*
D03*
Y7306D02*
D03*
D21*
X4950Y4350D02*
D03*
Y5350D02*
D03*
Y6350D02*
D03*
Y7350D02*
D03*
X3950Y4350D02*
D03*
Y5350D02*
D03*
Y6350D02*
D03*
D22*
Y7350D02*
D03*
D23*
X8300Y1700D02*
D03*
Y700D02*
D03*
X5650Y1700D02*
D03*
Y700D02*
D03*
X2600Y1700D02*
D03*
Y700D02*
D03*
X-100Y1700D02*
D03*
Y700D02*
D03*
M02*
