%FSLAX24Y24*%
%MOIN*%
G70*
G01*
G75*
G04 Layer_Color=32896*
%ADD10C,0.0320*%
%ADD11R,0.0318X0.0079*%
%ADD12R,0.0476X0.0159*%
%ADD13C,0.0040*%
%ADD14C,0.0060*%
%ADD15R,0.0250X0.0240*%
%ADD16R,0.0575X0.0300*%
%ADD17R,0.0575X0.0295*%
%ADD18R,0.0560X0.0140*%
%ADD19C,0.0020*%
%ADD20O,0.1200X0.0600*%
%ADD21C,0.0591*%
%ADD22R,0.0591X0.0591*%
G04:AMPARAMS|DCode=23|XSize=66mil|YSize=66mil|CornerRadius=0mil|HoleSize=0mil|Usage=FLASHONLY|Rotation=270.000|XOffset=0mil|YOffset=0mil|HoleType=Round|Shape=Octagon|*
%AMOCTAGOND23*
4,1,8,-0.0165,-0.0330,0.0165,-0.0330,0.0330,-0.0165,0.0330,0.0165,0.0165,0.0330,-0.0165,0.0330,-0.0330,0.0165,-0.0330,-0.0165,-0.0165,-0.0330,0.0*
%
%ADD23OCTAGOND23*%

%ADD24R,0.0600X0.0520*%
%ADD25R,0.0630X0.0520*%
%ADD26C,0.0100*%
%ADD27C,0.0260*%
%ADD28C,0.0079*%
%ADD29C,0.0050*%
%ADD30C,0.0080*%
%ADD31R,0.2601X0.0240*%
%ADD32O,0.1280X0.0680*%
%ADD33C,0.0671*%
%ADD34R,0.0671X0.0671*%
G04:AMPARAMS|DCode=35|XSize=74mil|YSize=74mil|CornerRadius=0mil|HoleSize=0mil|Usage=FLASHONLY|Rotation=270.000|XOffset=0mil|YOffset=0mil|HoleType=Round|Shape=Octagon|*
%AMOCTAGOND35*
4,1,8,-0.0185,-0.0370,0.0185,-0.0370,0.0370,-0.0185,0.0370,0.0185,0.0185,0.0370,-0.0185,0.0370,-0.0370,0.0185,-0.0370,-0.0185,-0.0185,-0.0370,0.0*
%
%ADD35OCTAGOND35*%

%ADD36R,0.0680X0.0600*%
%ADD37R,0.0710X0.0600*%
D11*
X549Y4800D02*
D03*
X9149Y4700D02*
D03*
Y6550D02*
D03*
D12*
X-2148Y1251D02*
D03*
D13*
X810Y4650D02*
Y4940D01*
X290Y4650D02*
Y4950D01*
X9410Y4550D02*
Y4840D01*
X8890Y4550D02*
Y4850D01*
X9410Y6400D02*
Y6690D01*
X8890Y6400D02*
Y6700D01*
D14*
X-2400Y970D02*
Y1530D01*
X-1900Y970D02*
Y1530D01*
D15*
X6264Y4420D02*
D03*
Y5400D02*
D03*
Y6394D02*
D03*
Y7374D02*
D03*
X2575Y7306D02*
D03*
Y6326D02*
D03*
Y5333D02*
D03*
Y4353D02*
D03*
D16*
X547Y4510D02*
D03*
X9147Y4410D02*
D03*
Y6260D02*
D03*
D17*
X547Y5082D02*
D03*
X9147Y4982D02*
D03*
Y6832D02*
D03*
D18*
X-2150Y1590D02*
D03*
Y910D02*
D03*
D19*
X160Y4020D02*
X937D01*
X160Y5577D02*
X937D01*
Y4020D02*
Y5577D01*
X160Y4020D02*
Y5577D01*
X8760Y3920D02*
X9537D01*
X8760Y5477D02*
X9537D01*
Y3920D02*
Y5477D01*
X8760Y3920D02*
Y5477D01*
Y5770D02*
X9537D01*
X8760Y7327D02*
X9537D01*
Y5770D02*
Y7327D01*
X8760Y5770D02*
Y7327D01*
X-2537Y2030D02*
X-1760D01*
X-2537Y473D02*
X-1760D01*
X-2537D02*
Y2030D01*
X-1760Y473D02*
Y2030D01*
D26*
X-1850Y2336D02*
Y2936D01*
X-2150D01*
X-2250Y2836D01*
Y2636D01*
X-2150Y2536D01*
X-1850D01*
X-2050D02*
X-2250Y2336D01*
X-2450D02*
X-2650D01*
X-2550D01*
Y2936D01*
X-2450Y2836D01*
X380Y6170D02*
X480Y6270D01*
X680D01*
X780Y6170D01*
Y5770D01*
X680Y5670D01*
X480D01*
X380Y5770D01*
X180Y6170D02*
X80Y6270D01*
X-120D01*
X-220Y6170D01*
Y6070D01*
X-120Y5970D01*
X-20D01*
X-120D01*
X-220Y5870D01*
Y5770D01*
X-120Y5670D01*
X80D01*
X180Y5770D01*
X8980Y6075D02*
X9080Y6175D01*
X9280D01*
X9380Y6075D01*
Y5675D01*
X9280Y5575D01*
X9080D01*
X8980Y5675D01*
X8380Y5575D02*
X8780D01*
X8380Y5975D01*
Y6075D01*
X8480Y6175D01*
X8680D01*
X8780Y6075D01*
X8980Y7925D02*
X9080Y8025D01*
X9280D01*
X9380Y7925D01*
Y7525D01*
X9280Y7425D01*
X9080D01*
X8980Y7525D01*
X8780Y7425D02*
X8580D01*
X8680D01*
Y8025D01*
X8780Y7925D01*
M02*
